<?xml version="1.0" encoding="UTF-8" standalone="no"?>
<!-- Created with Inkscape (http://www.inkscape.org/) -->

<svg
   width="167.41418mm"
   height="227.1792mm"
   viewBox="0 0 167.41418 227.1792"
   version="1.1"
   id="svg5"
   xml:space="preserve"
   inkscape:version="1.2.2 (732a01da63, 2022-12-09)"
   sodipodi:docname="Crystal.svg"
   xmlns:inkscape="http://www.inkscape.org/namespaces/inkscape"
   xmlns:sodipodi="http://sodipodi.sourceforge.net/DTD/sodipodi-0.dtd"
   xmlns="http://www.w3.org/2000/svg"
   xmlns:svg="http://www.w3.org/2000/svg"><sodipodi:namedview
     id="namedview7"
     pagecolor="#505050"
     bordercolor="#eeeeee"
     borderopacity="1"
     inkscape:showpageshadow="0"
     inkscape:pageopacity="0"
     inkscape:pagecheckerboard="0"
     inkscape:deskcolor="#505050"
     inkscape:document-units="mm"
     showgrid="false"
     inkscape:zoom="0.73851712"
     inkscape:cx="222.74365"
     inkscape:cy="377.78407"
     inkscape:window-width="1920"
     inkscape:window-height="1009"
     inkscape:window-x="-8"
     inkscape:window-y="-8"
     inkscape:window-maximized="1"
     inkscape:current-layer="layer1" /><defs
     id="defs2"><filter
       style="color-interpolation-filters:sRGB;"
       inkscape:label="Lightness-Contrast"
       id="filter312"
       x="0"
       y="0"
       width="1"
       height="1"><feColorMatrix
         values="1.09585 0 0 0.043524 -0.0479233 0 1.09585 0 0.043524 -0.0479233 0 0 1.09585 0.043524 -0.0479233 0 0 0 1 0"
         id="feColorMatrix310"
         result="fbSourceGraphic" /><feColorMatrix
         result="fbSourceGraphicAlpha"
         in="fbSourceGraphic"
         values="0 0 0 -1 0 0 0 0 -1 0 0 0 0 -1 0 0 0 0 1 0"
         id="feColorMatrix326" /><feColorMatrix
         id="feColorMatrix328"
         values="1.09585 0 0 0.311364 -0.0479233 0 1.09585 0 0.311364 -0.0479233 0 0 1.09585 0.311364 -0.0479233 0 0 0 1 0"
         in="fbSourceGraphic" /></filter></defs><g
     inkscape:label="Layer 1"
     inkscape:groupmode="layer"
     id="layer1"
     transform="translate(-15.876057,-16.965607)"><path
       style="fill:#000000;stroke-width:0.36003"
       d="m 86.622049,233.85933 c -4.554386,-0.66982 -8.637502,-1.30398 -9.073593,-1.40924 -0.490559,-0.11841 -1.726072,-1.54376 -3.240274,-3.73815 l -2.447383,-3.54676 -3.240275,-0.40367 c -1.78215,-0.22202 -4.250084,-0.5086 -5.484294,-0.63684 -3.747042,-0.38935 -3.669355,-0.0608 -1.860785,-7.86922 1.54667,-6.67765 1.558317,-6.77682 0.856232,-7.29184 -0.391469,-0.28716 -2.731379,-1.77305 -5.199798,-3.30197 l -4.488032,-2.77986 -1.877596,-5.38069 c -2.432383,-6.97056 -3.291222,-10.46142 -2.715427,-11.03722 0.384841,-0.38484 2.70158,-0.65707 14.206507,-1.66933 1.934713,-0.17022 3.598436,-0.39027 3.69716,-0.489 0.09872,-0.0987 -0.956994,-2.79948 -2.346038,-6.00169 -2.865342,-6.60554 -5.496974,-13.20125 -6.136925,-15.38108 -0.421106,-1.43439 -0.351206,-1.67898 2.520908,-8.82075 1.624714,-4.03999 4.738689,-11.80082 6.919952,-17.24628 4.518145,-11.27943 4.796679,-11.881 5.500989,-11.881 0.282757,0 3.437863,2.85458 7.011349,6.34352 3.75096,3.66221 6.497247,6.09067 6.497247,5.74531 0,-0.32902 -0.234265,-1.76599 -0.52059,-3.19326 -0.286325,-1.42727 -1.671096,-8.58955 -3.077267,-15.91617 -1.406171,-7.32662 -2.792043,-14.48889 -3.079715,-15.91617 -0.885952,-4.395632 -1.071811,-3.718116 3.880675,-14.146369 1.08146,-2.277192 4.520885,-9.567808 7.643167,-16.201369 3.122278,-6.633561 5.923765,-12.257257 6.225525,-12.497106 0.350781,-0.278815 0.757943,-0.319884 1.128969,-0.113881 0.517302,0.287221 3.872113,3.312301 9.761093,8.801718 1.0891,1.015199 6.03051,5.561609 10.98093,10.103137 4.95042,4.541529 10.2736,9.479187 11.82928,10.972572 l 2.8285,2.715249 -0.23128,3.459583 c -0.1272,1.902771 -0.30213,4.170963 -0.38874,5.040426 -0.0866,0.86946 -0.40384,4.41608 -0.70498,7.88138 -0.30113,3.46529 -0.78624,9.04649 -1.07802,12.40267 -0.29178,3.35618 -0.46521,6.16745 -0.3854,6.24725 0.0798,0.0798 4.65146,-0.87172 10.15923,-2.11449 12.76887,-2.88118 14.04543,-3.10734 14.5713,-2.58147 0.39198,0.39198 0.63662,3.56538 1.74341,22.61463 l 0.41985,7.22612 -3.95282,6.63505 c -2.17406,3.64928 -3.90478,6.68646 -3.84605,6.74928 0.0915,0.0979 7.41897,-0.92812 11.35601,-1.5901 0.94735,-0.15929 1.40642,-0.0585 1.77911,0.39056 0.43985,0.52999 0.0394,1.99284 -3.22069,11.76456 l -3.723,11.1593 -2.39588,1.6818 c -1.31774,0.92498 -2.77666,1.93426 -3.24205,2.24283 -0.83608,0.55436 -0.78108,0.60321 4.60979,4.09527 4.25243,2.7546 5.45304,3.703 5.44273,4.29936 -0.01,0.55352 -1.22213,1.66138 -4.38398,4.00542 -3.84602,2.85126 -4.58827,3.26189 -6.18246,3.42029 l -1.81171,0.18002 -1.31012,3.42029 c -3.78132,9.87177 -5.13485,13.16598 -5.50814,13.40562 -0.22661,0.14548 -1.87015,0.2741 -3.6523,0.28583 -1.78215,0.0117 -4.43172,0.15931 -5.88794,0.32796 -2.48324,0.2876 -2.86807,0.45989 -6.19701,2.77443 -8.35172,5.80677 -9.56393,6.61005 -10.44185,6.91941 -0.76392,0.26918 -1.92351,-0.1081 -6.65972,-2.1668 l -5.73474,-2.49272 -2.817541,2.89418 c -2.198774,2.25859 -3.029167,2.88685 -3.78117,2.86076 -0.529997,-0.0184 -4.689944,-0.58147 -9.24433,-1.25129 z m 7.740656,-1.63837 c 0,-0.51365 -3.28054,-10.13134 -3.57336,-10.47617 -0.120567,-0.14198 -2.471808,1.70737 -5.224972,4.10966 -4.152192,3.62303 -4.887846,4.40981 -4.314242,4.61409 0.380337,0.13545 2.55468,0.5295 4.831872,0.87568 2.277193,0.34617 4.869413,0.75758 5.760488,0.91424 2.339291,0.41127 2.520214,0.40858 2.520214,-0.0375 z m 6.677145,-4.98297 c 2.12052,-2.36816 4.07364,-4.61721 4.34028,-4.99789 0.42204,-0.60255 0.23297,-1.57147 -1.46069,-7.48525 -1.07001,-3.73621 -2.09467,-7.19202 -2.27702,-7.67958 -0.30538,-0.81653 -0.66251,-0.3831 -4.525691,5.49275 -2.30678,3.50857 -4.194146,6.63323 -4.194146,6.94369 0,0.86909 3.717059,12.03203 4.006448,12.03203 0.140437,0 1.990303,-1.93758 4.110819,-4.30575 z m 12.36647,1.51552 c 0.38687,-2.42877 1.21192,-8.31479 1.66538,-11.88101 0.13219,-1.03959 0.16241,-1.89016 0.0672,-1.89016 -0.0952,0 -1.51302,1.66064 -3.15058,3.69031 -1.63756,2.02968 -4.03664,4.77931 -5.33128,6.11031 -1.29463,1.33099 -2.24102,2.53285 -2.10308,2.67079 0.28067,0.28068 7.85577,3.70621 8.22782,3.72071 0.13062,0.005 0.41168,-1.08434 0.62458,-2.42095 z m 7.08768,-1.20327 c 5.51926,-3.74711 5.79074,-4.00639 5.14631,-4.91514 -1.23208,-1.73746 -7.3336,-9.03486 -7.45376,-8.91469 -0.11381,0.11381 -2.54672,15.69024 -2.57299,16.47322 -0.0194,0.57904 0.73923,0.16813 4.88044,-2.64339 z m -38.012301,-2.15458 c 2.475209,-2.19008 4.737616,-4.21391 5.02757,-4.49741 0.457836,-0.44764 -0.406514,-0.51545 -6.570557,-0.51545 h -7.097745 v 1.6131 c 0,1.33047 0.32613,2.11896 1.861408,4.50038 1.023772,1.588 1.955351,2.88594 2.070175,2.88431 0.114821,-0.002 2.233939,-1.79485 4.709149,-3.98493 z m -11.051903,-6.00294 c 0.114907,-1.73265 0.303801,-3.4743 0.419766,-3.87033 0.176527,-0.60287 -0.331307,-1.04235 -3.120182,-2.70023 -1.832062,-1.08909 -3.42654,-2.02415 -3.54328,-2.07791 -0.164793,-0.0759 -2.397173,8.85153 -2.635283,10.53862 -0.04877,0.34555 4.66457,1.12296 7.369882,1.21559 l 1.300178,0.0445 z m 65.130544,2.2257 3.13433,-0.21751 1.33203,-3.47931 c 0.73262,-1.91362 1.77647,-4.6134 2.31967,-5.99952 0.54321,-1.38611 0.93255,-2.57821 0.86521,-2.6491 -0.0673,-0.0709 -3.08868,2.0037 -6.7141,4.6102 -6.45524,4.641 -7.4365,5.61718 -7.47552,7.43685 -0.0146,0.68205 0.15354,0.74524 1.69391,0.63657 0.94058,-0.0664 3.12059,-0.21854 4.84447,-0.33818 z m -6.98334,-7.62616 c 1.04306,-3.71282 1.89026,-6.87208 1.88266,-7.02059 -0.008,-0.14852 -0.9886,-0.27003 -2.18,-0.27003 -1.90937,0 -2.63841,0.23684 -6.1495,1.99772 l -3.98333,1.99771 1.22221,1.51258 c 0.67222,0.83192 2.48511,3.09222 4.02863,5.02288 1.54353,1.93067 2.91361,3.5103 3.04464,3.5103 0.13102,0 1.09163,-3.03776 2.13469,-6.75057 z m -17.94651,1.11525 c 1.98769,-2.30736 3.61398,-4.3027 3.61398,-4.43409 0,-0.13138 -0.68855,-0.62119 -1.53013,-1.08846 -0.84157,-0.46728 -3.37417,-1.95523 -5.62799,-3.30658 -4.20054,-2.51854 -4.81358,-2.78914 -4.54678,-2.00694 0.19072,0.55916 3.22221,11.41523 3.77011,13.50114 0.22105,0.84157 0.47052,1.53013 0.55437,1.53013 0.0838,0 1.77876,-1.88784 3.76644,-4.1952 z m -22.668243,2.8368 c 0,-0.15307 -0.542051,-1.56701 -1.204557,-3.14209 l -1.204558,-2.86378 -4.896911,-3.13156 -4.896912,-3.13157 -0.358565,1.14322 c -0.783293,2.49736 -2.362621,10.34329 -2.241204,11.13406 0.05504,0.35848 14.802707,0.35023 14.802707,-0.008 z m 8.499734,-10.78362 c -0.208278,-0.20827 -8.139703,4.23653 -8.139703,4.56153 0,0.42515 1.471772,3.7248 1.902333,4.26495 0.278638,0.34955 1.114287,-0.67028 3.370882,-4.1139 1.650222,-2.51826 2.940139,-4.63892 2.866488,-4.71258 z m 39.971349,3.8566 c 6.57615,-4.68451 6.47411,-4.31565 1.19391,-4.31565 h -4.49387 l -0.61081,2.25019 c -0.33594,1.23761 -0.85676,3.03599 -1.15738,3.99642 -0.44793,1.43105 -0.45802,1.71224 -0.0559,1.55793 0.26986,-0.10355 2.57569,-1.67355 5.12407,-3.48889 z m -63.760836,-3.07227 0.966711,-4.15708 -1.356149,-3.04353 c -0.745879,-1.67394 -1.387349,-3.04353 -1.425483,-3.04353 -0.03814,0 -0.539052,0.1522 -1.113149,0.33822 -0.574094,0.18601 -3.919552,1.24506 -7.434349,2.35343 -3.514798,1.10836 -6.390542,2.14126 -6.390542,2.29533 0,0.15406 0.526545,0.54961 1.170099,0.879 0.643555,0.32938 4.00534,2.3735 7.470633,4.54248 3.465294,2.16899 6.490655,3.95467 6.723026,3.96818 0.248763,0.0145 0.819995,-1.68478 1.389203,-4.1325 z m 16.596041,0.17032 c 1.158845,-0.66302 1.933987,-1.35444 1.933987,-1.72508 0,-0.34022 -0.551362,-2.55602 -1.225245,-4.924 -0.673887,-2.36798 -2.287738,-8.19375 -3.586336,-12.94615 -4.140383,-15.1523 -5.50114,-19.8031 -5.777247,-19.74553 -0.351862,0.0734 -8.492788,6.95083 -8.492788,7.17471 0,0.26118 1.57927,3.9487 3.070883,7.17036 1.516517,3.27544 3.565368,7.82569 6.808692,15.12128 3.273275,7.36296 4.97533,10.98093 5.165919,10.98093 0.09249,0 1.038443,-0.49794 2.102135,-1.10652 z m 24.812605,-2.04375 c -0.1348,-0.94058 -0.48426,-2.76323 -0.77659,-4.05034 -0.29233,-1.28711 -1.22952,-5.49146 -2.08264,-9.34301 -0.85312,-3.85155 -1.69665,-7.04009 -1.8745,-7.08566 -0.17786,-0.0456 -2.21703,2.14768 -4.5315,4.87389 l -4.20812,4.95675 0.40228,2.34853 0.40229,2.34853 6.32605,3.81643 c 3.47933,2.09904 6.38495,3.82287 6.45693,3.83073 0.072,0.008 0.0206,-0.75527 -0.1142,-1.69585 z m -30.799289,1.07522 c 0,-0.1512 -1.391097,-3.35097 -3.091323,-7.11061 -1.700226,-3.75963 -3.879278,-8.61785 -4.842338,-10.79603 -5.814395,-13.15064 -5.517669,-12.64031 -10.427894,-17.93437 -2.47521,-2.66869 -4.55893,-4.79709 -4.630493,-4.72976 -0.230193,0.21659 4.884825,12.27953 13.197789,31.12484 l 2.144003,4.86041 3.555104,2.40775 c 3.552204,2.40578 4.095152,2.69452 4.095152,2.17777 z m 39.467929,-1.92984 c 2.15366,-1.21261 5.2678,-3.01496 6.92031,-4.00523 l 3.00457,-1.80049 -2.10449,-2.1384 c -2.28126,-2.31802 -6.91297,-6.23778 -7.10393,-6.01198 -0.0649,0.0767 -0.63893,1.84062 -1.27567,3.9198 -0.63675,2.07917 -1.71302,5.5898 -2.39172,7.80139 -1.24976,4.07241 -1.3407,4.43964 -1.09941,4.43964 0.074,0 1.89668,-0.99213 4.05034,-2.20473 z m -23.34047,-2.67323 c 0.0583,-0.0411 -0.639779,-3.94222 -1.551398,-8.66927 -0.911618,-4.72705 -1.818301,-9.48571 -2.014845,-10.57481 -0.196545,-1.08909 -0.818659,-4.32936 -1.382474,-7.2006 -0.563815,-2.87125 -1.632742,-8.37971 -2.375395,-12.24104 -0.742653,-3.86132 -1.711546,-8.80274 -2.153091,-10.98093 l -0.802814,-3.96033 -0.524085,1.26011 c -0.288244,0.69305 -1.711668,4.63003 -3.16316,8.74883 l -2.639074,7.48872 2.22527,8.1726 c 4.744654,17.42537 8.359119,30.42313 8.542839,30.72039 0.139757,0.22614 4.567646,-1.86992 5.838227,-2.76367 z m 17.83843,0.64761 c 1.49045,-4.71216 3.78399,-12.24634 3.94943,-12.97375 0.16923,-0.74409 -0.25736,-1.04546 -4.46288,-3.15285 -2.5575,-1.28156 -4.65,-2.16035 -4.65,-1.95285 0,0.52376 3.74348,17.67032 4.18296,19.15954 0.27349,0.92675 0.38435,0.80463 0.98049,-1.08009 z m 35.36864,-1.21032 c 1.8654,-1.40824 3.39163,-2.61174 3.39163,-2.67445 0,-0.15277 -8.51125,-5.53895 -9.12455,-5.77429 -0.26511,-0.10173 -3.22145,1.62722 -6.56965,3.84211 -3.3482,2.21489 -6.97616,4.61206 -8.06212,5.32704 l -1.97448,1.29997 7.0149,0.1918 c 3.8582,0.1055 8.1214,0.22701 9.47377,0.27003 l 2.45886,0.0782 z m -96.464749,-2.14627 c 1.357473,-0.41051 5.007894,-1.54909 8.112048,-2.53019 l 5.643918,-1.78382 -1.920882,-4.38484 -1.920878,-4.38484 -1.742868,0.0914 c -0.958581,0.0503 -3.038981,0.2376 -4.623115,0.41625 -1.584135,0.17864 -4.544374,0.43514 -6.578312,0.56999 -2.033938,0.13485 -3.768836,0.35968 -3.855328,0.49963 -0.214977,0.34784 3.818511,12.25276 4.151338,12.25276 0.146273,0 1.376609,-0.33587 2.734079,-0.74637 z m 81.166189,-3.51199 c 1.07183,-0.75796 4.4421,-3.14079 7.48949,-5.29518 6.14926,-4.34727 6.09081,-4.16622 1.47988,-4.58371 l -2.3402,-0.21189 -4.6804,5.41305 c -2.57422,2.97717 -4.7344,5.55767 -4.8004,5.73445 -0.26798,0.71766 1.0146,0.24238 2.85163,-1.05672 z m 0.0893,-6.11878 c 2.54158,-2.9063 4.74776,-5.52721 4.90262,-5.82423 0.40574,-0.77823 0.77685,-9.54598 0.3872,-9.1479 -0.17612,0.17993 -2.82307,4.53951 -5.88211,9.68794 -5.10742,8.59588 -5.51677,9.41228 -5.00956,9.99085 0.30379,0.34653 0.64874,0.61823 0.76656,0.60379 0.11782,-0.0144 2.2937,-2.40415 4.83529,-5.31045 z m -2.11388,-7.53592 c 11.63536,-19.49385 15.71583,-26.44922 15.5904,-26.57465 -0.0707,-0.0707 -2.99056,1.769 -6.48869,4.0881 -5.82393,3.86099 -6.41824,4.35316 -7.04799,5.83668 -0.37825,0.89108 -2.75371,6.85082 -5.27881,13.24387 -4.4427,11.24808 -4.57039,11.64658 -3.95096,12.33104 0.35206,0.38902 0.81752,0.70662 1.03435,0.70577 0.21683,-7.2e-4 2.98059,-4.33471 6.1417,-9.63081 z m -31.39289,5.18483 3.45306,-4.08749 -3.22933,-14.54408 c -1.77613,-7.99925 -3.36391,-15.19214 -3.52841,-15.98421 -0.16449,-0.79206 -1.22528,-5.57147 -2.357311,-10.62089 -1.132029,-5.04943 -2.368496,-10.6389 -2.747702,-12.42105 -0.379209,-1.78215 -1.149747,-5.2083 -1.712309,-7.61366 l -1.022835,-4.37337 -5.853765,-7.44078 c -3.219573,-4.09242 -5.917436,-7.3771 -5.995253,-7.29929 -0.07782,0.0778 0.518415,3.53103 1.324959,7.6738 1.509647,7.75423 2.527969,13.08161 3.40115,17.79319 2.016121,10.87873 2.314701,11.96393 3.710507,13.48594 1.326705,1.44666 1.345056,1.50994 3.084515,10.6361 0.96243,5.04943 2.201953,11.52997 2.754499,14.40122 0.552546,2.87124 1.670437,8.70373 2.484204,12.96109 2.183771,11.42479 2.204681,11.52097 2.504471,11.52097 0.15206,0 1.83036,-1.83937 3.72955,-4.08749 z m 23.30068,-3.11311 c 0.8446,-2.07918 3.11615,-7.70116 5.0479,-12.4933 l 3.51227,-8.71297 -1.41351,-5.86826 c -0.77744,-3.22754 -2.22733,-9.27055 -3.22198,-13.4289 -0.99466,-4.15835 -1.93594,-7.88466 -2.09174,-8.2807 -0.34431,-0.87523 -0.41615,-0.23246 -1.83092,16.38139 -3.12872,36.74112 -3.07863,36.01639 -2.51361,36.36559 0.70988,0.43873 0.74807,0.37847 2.51159,-3.96285 z m -4.68132,-4.6804 c 0.43604,-5.57319 0.99806,-12.34186 2.15241,-25.92219 0.39554,-4.65339 1.04259,-12.2795 1.43789,-16.9469 0.39529,-4.6674 1.03716,-12.03902 1.42636,-16.38138 0.3892,-4.34236 0.88712,-10.2444 1.10649,-13.11565 0.21938,-2.87124 0.48884,-5.70648 0.59881,-6.30053 0.40763,-2.201919 -0.58506,-0.23528 -3.9981,7.92067 -3.78628,9.04785 -3.67733,8.59223 -4.69175,19.62166 -0.3005,3.26728 -1.0247,11.04393 -1.60931,17.28146 -0.58462,6.23753 -1.55654,16.6064 -2.15982,23.04195 -0.60328,6.43554 -1.13765,12.32774 -1.18749,13.09378 l -0.0906,1.39279 3.06026,1.55547 c 3.67729,1.86909 3.36632,2.28119 3.95486,-5.24113 z m 32.87754,-2.35893 c 1.28882,-3.87163 2.22604,-6.99039 2.08272,-6.93059 -0.53405,0.22286 -11.32274,12.87987 -11.13699,13.06562 0.18228,0.18228 4.24859,0.80984 5.57778,0.86083 l 1.13319,0.0435 z M 115.244,171.23865 c 0.40398,-4.35637 0.89046,-9.62182 1.08109,-11.70099 0.54165,-5.908 1.37284,-14.77322 1.95783,-20.88177 1.19732,-12.50262 1.63911,-17.52013 1.6405,-18.63157 l 0.001,-1.1701 h -11.70099 c -7.00717,0 -11.700992,0.13485 -11.700992,0.33618 0,0.18489 2.113566,9.86521 4.696812,21.51181 6.94493,31.3113 8.25128,37.19806 8.67661,39.09911 0.29855,1.33441 0.5184,1.68298 0.97657,1.54834 0.3252,-0.0956 1.15832,0.12905 1.85138,0.49915 l 1.26011,0.67292 0.26256,-1.68121 c 0.14442,-0.92466 0.59309,-5.24551 0.99706,-9.60187 z m 41.90489,-2.80483 c 0.77054,-0.94261 1.33246,-1.78235 1.24873,-1.86609 -0.20115,-0.20114 -10.17521,1.43519 -10.69096,1.75394 -0.6872,0.42472 -1.07728,2.7365 -1.34054,7.94454 l -0.25412,5.02756 4.81796,-5.57305 c 2.64987,-3.06518 5.44839,-6.34428 6.21893,-7.2869 z m -79.931457,0.82466 c 2.078506,-1.68314 3.789238,-3.25556 3.801626,-3.49426 0.02113,-0.40735 -4.100686,-16.72928 -6.436614,-25.48819 -0.580902,-2.17819 -1.07405,-3.63631 -1.095886,-3.24028 -0.02185,0.39604 -0.09814,1.44913 -0.169574,2.3402 -0.07143,0.89108 -0.244216,8.72789 -0.383969,17.41514 -0.177344,11.0239 -0.139404,15.75461 0.125607,15.66132 0.208839,-0.0735 2.080303,-1.51079 4.15881,-3.19393 z m -6.459992,-19.6152 c 0.137712,-9.10522 0.16456,-16.46912 0.05966,-16.36422 -0.178061,0.17806 -7.561962,18.3365 -9.984485,24.55378 -0.599102,1.53756 -1.036074,2.95294 -0.971045,3.14528 0.06503,0.19234 2.386426,2.81488 5.158661,5.82788 l 5.040426,5.47817 0.223198,-3.04297 c 0.122759,-1.67364 0.335872,-10.49271 0.473587,-19.59792 z m 15.284973,3.46768 c 1.605912,-4.42575 2.919843,-8.252 2.919843,-8.50276 0,-0.41393 -13.332728,-13.56366 -13.980805,-13.78891 -0.151835,-0.0528 1.306702,6.18475 3.241193,13.86117 4.376297,17.36595 4.307621,17.11735 4.631799,16.76706 0.147469,-0.15935 1.582054,-3.9108 3.18797,-8.33656 z m 61.064766,3.0743 c 2.97025,-1.9612 5.9259,-3.91289 6.5681,-4.33707 1.4952,-0.98761 1.483,0.0154 0.23382,-19.22281 -0.13179,-2.02967 -0.35234,-3.69031 -0.49011,-3.69031 -0.13777,0 -0.42427,0.52654 -0.63667,1.1701 -0.21239,0.64355 -2.5984,6.59756 -5.30223,13.23112 -4.83242,11.85583 -6.67344,16.49202 -6.67344,16.80553 0,0.20473 -0.0356,0.22711 6.30053,-3.95656 z M 146.058,140.5666 c 3.44829,-8.55292 6.26962,-15.70002 6.26962,-15.88244 0,-0.18241 -1.90366,0.10822 -4.23035,0.64585 -2.3267,0.53763 -6.9846,1.59033 -10.35088,2.33935 -3.36629,0.74902 -6.24291,1.47072 -6.39251,1.60378 -0.1496,0.13306 0.1179,1.54456 0.59444,3.13667 0.47654,1.59212 1.95334,7.65864 3.28178,13.48117 1.32844,5.82253 2.58043,11.23447 2.78221,12.02654 l 0.36686,1.44012 0.7046,-1.62014 c 0.38753,-0.89107 3.52593,-8.61798 6.97423,-17.1709 z m -26.49315,-24.05889 c 0,-0.10248 -2.12446,-5.24641 -4.72103,-11.43097 -2.59657,-6.184549 -5.57061,-13.269808 -6.60897,-15.745017 -7.7343,-18.436697 -9.334386,-22.182292 -9.604964,-22.4839 -0.178737,-0.199237 -0.308272,0.02621 -0.310278,0.540045 -0.0018,0.485141 -0.155972,3.960335 -0.342396,7.722653 -0.186424,3.762318 -0.431054,9.432797 -0.543621,12.601065 -0.112563,3.168268 -0.286062,6.97559 -0.385546,8.460715 -0.408501,6.098139 -0.877743,19.882459 -0.687323,20.190569 0.211223,0.34177 23.204128,0.48529 23.204128,0.14484 z M 94.344426,104.26604 c 0.213329,-5.342631 0.538721,-12.95415 0.7231,-16.914484 0.184375,-3.960335 0.426063,-10.278869 0.537082,-14.041187 l 0.201852,-6.840578 -2.028045,4.14035 C 90.598464,77.102163 81.732799,95.88567 81.33692,96.969689 c -0.317568,0.869589 -0.166795,1.227013 1.366881,3.240271 3.711738,4.87242 11.028537,13.99418 11.137605,13.88511 0.06334,-0.0633 0.289695,-4.4864 0.50302,-9.82903 z m 28.073544,8.01762 c 0.45533,-1.03959 1.84151,-4.32036 3.0804,-7.29061 1.23888,-2.97025 2.94125,-7.017364 3.78303,-8.993578 l 1.53051,-3.593114 -1.41722,-1.267297 c -0.77947,-0.697011 -7.37781,-6.775758 -14.66298,-13.508327 -7.28517,-6.732569 -13.37867,-12.29114 -13.54112,-12.352381 -0.16245,-0.06124 0.16033,0.991848 0.71729,2.340198 2.00295,4.848972 12.42223,29.971352 15.50073,37.374499 1.72919,4.15835 3.25669,7.92517 3.39443,8.3707 0.37656,1.21801 0.70442,0.99873 1.61493,-1.08009 z m -85.146233,68.01747 c -0.11359,-0.29601 0.395058,-1.77192 1.130329,-3.27979 0.735271,-1.50788 1.273661,-2.80359 1.196423,-2.87936 -0.07724,-0.0758 -1.559667,0.0349 -3.294283,0.24601 -3.238784,0.39413 -3.737496,0.31156 -3.401813,-0.56322 0.128947,-0.33603 1.349366,-0.65812 3.644783,-0.96193 1.898008,-0.25122 3.450924,-0.56558 3.450924,-0.69858 0,-0.13301 -0.810068,-1.15071 -1.800152,-2.26156 -1.791443,-2.00995 -2.262189,-3.16443 -1.290315,-3.16443 0.280411,0 1.392632,0.97552 2.471604,2.16782 l 1.961765,2.16782 1.328348,-2.52785 c 0.730592,-1.39032 1.562535,-2.52786 1.848763,-2.52786 0.785014,0 0.633655,0.8763 -0.559677,3.24028 -0.594051,1.1768 -1.080092,2.24214 -1.080092,2.3674 0,0.12527 1.311499,0.11166 2.914443,-0.0302 2.72067,-0.24084 2.906094,-0.21341 2.788879,0.41256 -0.09798,0.52323 -0.619653,0.74377 -2.374397,1.00377 -1.236858,0.18328 -2.248833,0.44928 -2.248833,0.59113 0,0.14184 0.729061,1.06879 1.620137,2.05988 1.611422,1.79229 2.059164,2.95629 1.137159,2.95629 -0.265638,0 -1.514277,-1.07399 -2.774754,-2.38665 -1.260476,-1.31265 -2.342935,-2.24423 -2.405464,-2.07017 -0.47599,1.325 -3.327298,6.43356 -3.651086,6.54149 -0.223389,0.0745 -0.4991,-0.1068 -0.612691,-0.40281 z M 53.91928,112.85371 c -0.132012,-0.13201 -0.240021,-1.60747 -0.240021,-3.27879 0,-2.28993 -0.110904,-2.99307 -0.450038,-2.85329 -0.247521,0.10202 -1.859284,0.78796 -3.581696,1.52431 -2.908359,1.24335 -4.639441,1.4505 -4.04191,0.48367 0.138983,-0.22488 1.607375,-1.03473 3.263094,-1.79968 1.655718,-0.76494 3.010397,-1.46182 3.010397,-1.54862 0,-0.0868 -1.215102,-0.82856 -2.700228,-1.64837 -2.526474,-1.39464 -3.467359,-2.52021 -2.106695,-2.52021 0.326444,0 1.948093,0.73837 3.603666,1.64082 2.15898,1.17686 3.057951,1.50772 3.179245,1.1701 0.09301,-0.2589 0.213009,-1.68583 0.26666,-3.17095 0.07647,-2.116831 0.214229,-2.700232 0.637596,-2.700232 0.427627,0 0.561745,0.614187 0.644297,2.950502 l 0.104246,2.9505 2.880208,-1.23278 c 2.321596,-0.99369 2.918559,-1.13285 3.077923,-0.71755 0.306148,0.79781 0.01667,1.03003 -2.716204,2.17892 -1.401191,0.58906 -2.548234,1.18618 -2.548983,1.32693 -7.2e-4,0.14075 0.968795,0.7888 2.154545,1.44012 1.185753,0.65132 2.157835,1.39181 2.160183,1.64555 0.0085,0.91952 -1.041115,0.82451 -2.980019,-0.26974 l -1.978962,-1.11686 -0.256072,2.89284 c -0.240187,2.71333 -0.610154,3.42389 -1.381232,2.65281 z M 140.2148,75.465407 c -0.1125,-0.293177 -0.14567,-1.829574 -0.0737,-3.414219 0.072,-1.584642 -0.0135,-2.881169 -0.18989,-2.881169 -0.17641,0 -1.43341,0.567048 -2.79334,1.260107 -2.77029,1.411812 -3.5543,1.551101 -3.54647,0.630053 0.004,-0.425571 0.95005,-1.103616 2.91615,-2.089192 1.60094,-0.802526 2.92118,-1.612594 2.93386,-1.800152 0.0127,-0.187558 -1.09708,-0.937275 -2.46612,-1.666037 -2.44948,-1.303894 -3.41027,-2.455296 -2.04882,-2.455296 0.37024,0 1.71873,0.563368 2.99665,1.25193 1.27791,0.688562 2.44499,1.25561 2.59351,1.260106 0.14851,0.0045 0.27223,-0.923402 0.27493,-2.061998 0.006,-2.567964 0.29112,-3.690312 0.93716,-3.690312 0.38499,0 0.49805,0.694718 0.49805,3.060259 0,1.683142 0.077,3.060258 0.171,3.060258 0.0941,0 1.25164,-0.494944 2.57243,-1.099878 1.54774,-0.708879 2.52531,-0.976007 2.74988,-0.751431 0.52828,0.52828 0.0342,1.054724 -1.91848,2.044235 -0.97608,0.494614 -1.77468,1.028791 -1.77468,1.187064 0,0.158269 0.98018,0.756247 2.17818,1.32884 2.5524,1.219934 3.17078,1.80705 2.55347,2.424362 -0.32302,0.323019 -1.14158,0.06555 -3.48233,-1.09535 -1.68303,-0.834694 -3.11781,-1.517629 -3.1884,-1.517629 -0.0706,0 -0.2423,1.607442 -0.38159,3.572089 -0.18644,2.629803 -0.39222,3.62542 -0.78007,3.774249 -0.28975,0.111188 -0.61887,-0.03771 -0.73137,-0.330889 z M 98.32304,47.878032 c 0,-0.225623 0.907003,-1.532805 2.01557,-2.90485 1.10856,-1.372045 1.95913,-2.544472 1.89016,-2.605394 -0.069,-0.06092 -1.58353,-0.252366 -3.365684,-0.425432 -2.500372,-0.242812 -3.240274,-0.437982 -3.240274,-0.85471 0,-0.453287 0.621135,-0.522523 3.866345,-0.430969 4.420843,0.12472 4.254293,0.376086 2.182403,-3.293822 -0.65352,-1.157559 -1.09767,-2.251152 -0.98701,-2.430205 0.46582,-0.753724 1.28282,-0.216101 2.10409,1.384592 0.48258,0.94058 1.13447,2.034172 1.44864,2.430206 0.55613,0.701037 0.6211,0.665239 2.45893,-1.35501 3.18053,-3.496217 3.98231,-2.387293 0.92603,1.280774 l -1.86174,2.234418 2.7489,0.197096 c 2.96436,0.212543 3.34055,0.367485 3.0064,1.23826 -0.18063,0.470734 -0.61357,0.525737 -2.56469,0.32584 -1.29105,-0.132273 -2.34737,-0.132495 -2.34737,-4.95e-4 0,0.132 0.48604,1.202842 1.08009,2.379649 1.19874,2.374679 1.34478,3.240274 0.54671,3.240274 -0.29336,0 -1.22494,-1.213382 -2.07018,-2.696404 -0.84523,-1.483023 -1.65325,-2.698126 -1.79559,-2.700229 -0.14234,-0.0021 -1.27283,1.21128 -2.51219,2.696405 -2.030171,2.432746 -3.52954,3.405555 -3.52954,2.290006 z"
       id="path330"
       sodipodi:nodetypes="ssscssssscssssssssssssssssssssscsssssssscssssscssscsscssssssscsssssssssssssssssscssssscccsssssssscsscssssssscsscsssssssscsscsssssssssssssscccssssssssssscsssssscssssssssssssscsssssssssscccscssssssscsssscsssssscssssscsscsscssssssssssscsscsssccccssssssssscsssssssssssssssscsscssssscsssssssssssscssssssssssssssssscssssssscscssccsssssscsccsssscssssssssssssssscssssscssssssssssssssssssscsssscscsssssssscssscsssscsssssssssscsssssscsssscssssssscsssssssssssssssscssscssscssscsscsssssscssssssssssssssssscssssssssscssssssssss" /></g></svg>
