<?xml version="1.0" encoding="UTF-8" standalone="no"?>
<!-- Created with Inkscape (http://www.inkscape.org/) -->

<svg
   width="80.032967mm"
   height="109.63728mm"
   viewBox="0 0 80.032967 109.63727"
   version="1.1"
   id="svg5"
   xml:space="preserve"
   inkscape:version="1.2.2 (732a01da63, 2022-12-09)"
   sodipodi:docname="ever_grim_skull.svg"
   xmlns:inkscape="http://www.inkscape.org/namespaces/inkscape"
   xmlns:sodipodi="http://sodipodi.sourceforge.net/DTD/sodipodi-0.dtd"
   xmlns="http://www.w3.org/2000/svg"
   xmlns:svg="http://www.w3.org/2000/svg"><sodipodi:namedview
     id="namedview7"
     pagecolor="#505050"
     bordercolor="#eeeeee"
     borderopacity="1"
     inkscape:showpageshadow="0"
     inkscape:pageopacity="0"
     inkscape:pagecheckerboard="0"
     inkscape:deskcolor="#505050"
     inkscape:document-units="mm"
     showgrid="false"
     inkscape:zoom="1.4770342"
     inkscape:cx="175.01287"
     inkscape:cy="234.2532"
     inkscape:window-width="1920"
     inkscape:window-height="1009"
     inkscape:window-x="-8"
     inkscape:window-y="-8"
     inkscape:window-maximized="1"
     inkscape:current-layer="layer1" /><defs
     id="defs2" /><g
     inkscape:label="Layer 1"
     inkscape:groupmode="layer"
     id="layer1"
     transform="translate(-8.9592417,-121.68634)"><path
       style="fill:#000000;stroke-width:0.146044"
       d="m 42.550153,230.72096 c 0,-0.35545 0.05491,-0.66818 0.122028,-0.69496 0.111762,-0.0446 0.441256,-3.90557 0.976293,-11.4401 0.11408,-1.60649 0.273395,-3.67666 0.354034,-4.60039 0.08064,-0.92373 0.244676,-2.89532 0.364524,-4.38132 0.119848,-1.48599 0.318515,-3.95049 0.441481,-5.47664 0.122966,-1.52616 0.320853,-4.18781 0.439745,-5.91478 0.118895,-1.72697 0.253476,-3.51515 0.299069,-3.97372 0.0829,-0.83377 0.0829,-0.83377 -0.544364,-1.23763 -0.344994,-0.22212 -0.758701,-0.47617 -0.919349,-0.56455 -3.326399,-1.83003 -8.377567,-4.67655 -8.54357,-4.81461 -0.120486,-0.10021 -0.383365,-0.23038 -0.584175,-0.28928 -0.200811,-0.0589 -0.49655,-0.2154 -0.657198,-0.34778 -0.160648,-0.13239 -0.522107,-0.3676 -0.803242,-0.52269 -0.281134,-0.15509 -0.597997,-0.36782 -0.70414,-0.47273 -0.106142,-0.10491 -0.278824,-0.19075 -0.383738,-0.19075 -0.104913,0 -0.276553,-0.10338 -0.38142,-0.22974 -0.104867,-0.12636 -0.425082,-0.35811 -0.71159,-0.51501 -1.054739,-0.5776 -1.833603,-1.05822 -2.024905,-1.24952 -0.108014,-0.10801 -0.25872,-0.19639 -0.334902,-0.19639 -0.07618,0 -0.416517,-0.17767 -0.756299,-0.39483 -0.774793,-0.49519 -3.612882,-1.90372 -4.384152,-2.17584 -1.087531,-0.38371 -2.334778,-0.18315 -2.521597,0.40546 -0.11888,0.37456 0.06051,1.11461 0.351545,1.45022 1.331836,1.53585 3.152037,2.89902 5.244902,3.92796 0.571826,0.28113 1.043497,0.56278 1.048155,0.62588 0.04489,0.60786 -4.531285,1.06286 -6.198394,0.61629 -0.481945,-0.12909 -1.021821,-0.32996 -1.199725,-0.44636 -0.177903,-0.1164 -0.402168,-0.21163 -0.498367,-0.21163 -0.220156,0 -1.434432,-0.76564 -2.391138,-1.50769 -0.79225,-0.61449 -2.9939,-2.70697 -2.9939,-2.84545 0,-0.0469 -0.158061,-0.25312 -0.351246,-0.45832 -1.152884,-1.22462 -4.176116,-6.60821 -4.176116,-7.43658 0,-0.0991 -0.105471,-0.38416 -0.2343806,-0.63345 -0.1289094,-0.24928 -0.25139,-0.59105 -0.272179,-0.75948 -0.1367661,-1.10806 -0.4396314,-2.66506 -0.5410877,-2.78168 -0.1775212,-0.20405 -0.1532365,-4.89977 0.02534,-4.89977 0.080324,0 0.1460439,-0.16022 0.1460439,-0.35605 0,-0.19582 0.1067539,-0.80373 0.237231,-1.3509 0.1304769,-0.54718 0.2400098,-1.07701 0.2434064,-1.17742 0.0034,-0.1004 0.060942,-0.18255 0.127879,-0.18255 0.066937,0 0.1217032,-0.11974 0.1217032,-0.26607 0,-0.28057 0.3406758,-1.40529 0.6493108,-2.14366 0.100726,-0.24097 0.266495,-0.66815 0.368377,-0.94928 0.377154,-1.04073 1.383873,-3.27349 1.986031,-4.40474 0.942677,-1.77097 1.125324,-2.09465 1.222954,-2.16724 0.05401,-0.0402 0.184598,-0.28661 0.290187,-0.54766 0.10559,-0.26106 0.245118,-0.47465 0.310062,-0.47465 0.06494,0 0.26578,-0.29574 0.446301,-0.6572 0.180521,-0.36145 0.383917,-0.65719 0.451992,-0.65719 0.06807,0 0.191814,-0.17897 0.274978,-0.39771 0.08316,-0.21873 0.244967,-0.49804 0.359564,-0.62068 0.201284,-0.21542 1.054414,-1.25351 1.71651,-2.08865 0.420256,-0.5301 4.466914,-4.57495 5.84124,-5.83862 0.898034,-0.82574 2.088162,-1.80302 4.005668,-3.28928 0.178684,-0.1385 0.573003,-0.46536 0.876263,-0.72635 0.30326,-0.26099 0.633531,-0.47458 0.733937,-0.47464 0.100405,-6e-5 0.182555,-0.0641 0.182555,-0.14241 0,-0.0783 0.213589,-0.25146 0.474642,-0.38489 0.261054,-0.13344 0.527198,-0.33228 0.591433,-0.44189 0.06423,-0.1096 0.19713,-0.19928 0.295324,-0.19928 0.09819,0 0.407096,-0.18786 0.686452,-0.41748 0.279354,-0.22961 0.655787,-0.46406 0.836516,-0.52099 0.180729,-0.0569 0.328599,-0.15817 0.328599,-0.22497 0,-0.0668 0.279309,-0.26672 0.620686,-0.44427 0.341378,-0.17754 0.653547,-0.37041 0.693709,-0.42859 0.04016,-0.0582 0.53306,-0.35492 1.095329,-0.6594 0.56227,-0.30449 1.094183,-0.61067 1.18203,-0.68042 0.272358,-0.21622 5.431223,-2.75772 5.597763,-2.75772 0.08651,0 0.157294,-0.0568 0.157294,-0.1262 0,-0.0694 0.312169,-0.24412 0.693708,-0.38823 0.38154,-0.14412 0.726569,-0.30765 0.766731,-0.36342 0.04016,-0.0558 0.418051,-0.21494 0.839752,-0.35373 0.421702,-0.13878 0.766731,-0.29957 0.766731,-0.3573 0,-0.11598 0.86196,-0.45574 1.156176,-0.45574 0.102382,0 0.360597,-0.12138 0.573806,-0.26973 0.21321,-0.14835 0.699824,-0.35986 1.081363,-0.47002 0.38154,-0.11015 0.693709,-0.24409 0.693709,-0.29763 0,-0.0535 0.345029,-0.20723 0.766731,-0.34153 0.421702,-0.13429 1.325348,-0.46458 2.008104,-0.73395 1.733588,-0.68399 5.312429,-1.82272 7.375218,-2.34669 0.40162,-0.10201 1.617436,-0.414 2.701812,-0.6933 1.084376,-0.2793 2.464491,-0.59142 3.066922,-0.6936 0.602432,-0.10218 1.157764,-0.24151 1.234072,-0.30961 0.23092,-0.20609 2.01868,-0.1387 2.417026,0.0911 0.200811,0.11585 0.51298,0.27756 0.693709,0.35934 0.180729,0.0818 0.328599,0.21605 0.328599,0.29836 0,0.0823 0.09381,0.14966 0.208466,0.14966 0.114656,0 0.337703,0.1643 0.495661,0.36511 0.157958,0.20081 0.33425,0.36511 0.391759,0.36511 0.135323,0 2.599584,2.5038 3.358453,3.41233 1.033691,1.23756 2.089671,2.60425 2.555769,3.30776 0.120486,0.18186 0.366935,0.51173 0.547665,0.73304 0.180729,0.22131 0.328599,0.4432 0.328599,0.49308 0,0.11541 1.035239,1.70219 1.277884,1.9587 0.100405,0.10614 0.182555,0.25532 0.182555,0.3315 0,0.0762 0.164834,0.39963 0.366297,0.71877 0.487556,0.77234 2.850381,5.40174 2.757023,5.40174 -0.04029,0 0.09346,0.31217 0.297215,0.69371 0.505375,0.94634 1.106826,2.34147 1.106826,2.5674 0,0.10204 0.05547,0.24796 0.123273,0.32427 0.0678,0.0763 0.271366,0.53306 0.452368,1.01501 0.181004,0.48194 0.384547,1.0077 0.452317,1.16835 1.172071,2.77835 2.750612,8.29537 3.510056,12.26769 0.390225,2.04109 0.42744,2.33174 0.710581,5.54967 0.09895,1.12454 0.240026,2.15873 0.313511,2.29821 0.185987,0.35301 0.174286,7.80946 -0.01244,7.92486 -0.08032,0.0496 -0.146043,0.30448 -0.146043,0.56629 0,0.26182 -0.09823,0.80012 -0.218284,1.19624 -0.226981,0.74892 -0.545341,1.07842 -2.043448,2.11492 -0.400548,0.27713 -0.814634,0.58466 -0.920192,0.68341 -0.329834,0.30856 -3.959665,2.66832 -4.10446,2.66832 -0.07563,0 -0.159416,0.0588 -0.186192,0.13063 -0.02677,0.0719 -0.253332,0.25258 -0.50346,0.40162 -0.250129,0.14905 -1.581942,0.96105 -2.959583,1.80445 -1.377641,0.8434 -2.684546,1.63218 -2.904231,1.75283 -0.219685,0.12065 -0.606732,0.3671 -0.860103,0.54766 -0.253372,0.18057 -0.519914,0.3283 -0.592314,0.3283 -0.0724,0 -0.357994,0.16997 -0.634653,0.37772 -0.276658,0.20774 -0.650885,0.43613 -0.831614,0.50753 -0.18073,0.0714 -0.328599,0.18951 -0.328599,0.26246 0,0.0729 -0.121764,0.16446 -0.270588,0.20338 -0.148823,0.0389 -1.621156,0.90056 -3.271851,1.91476 -1.650695,1.01421 -3.119786,1.88949 -3.264645,1.94508 -0.14486,0.0556 -0.415596,0.23341 -0.601637,0.39517 -0.338256,0.29411 -0.338256,0.29411 0.577843,1.2223 0.503855,0.5105 1.129688,1.03059 1.390742,1.15576 0.261053,0.12517 0.474642,0.28581 0.474642,0.35699 0,0.0712 0.08941,0.1294 0.198686,0.1294 0.109277,0 0.446899,0.16844 0.75027,0.37432 0.303371,0.20587 0.80267,0.47477 1.109552,0.59756 0.557971,0.22326 0.557971,0.22326 1.562348,-0.4506 1.168758,-0.78416 1.928425,-1.53637 4.602067,-4.55692 1.075945,-1.21556 2.196159,-2.44999 2.489362,-2.7432 0.293204,-0.2932 0.533097,-0.58576 0.533097,-0.65013 0,-0.0644 0.18073,-0.28387 0.401621,-0.48779 0.220891,-0.20392 0.595109,-0.62158 0.831593,-0.92814 0.429974,-0.55737 0.429974,-0.55737 0.528329,-0.18961 0.0541,0.20227 0.146708,1.97276 0.205806,3.93441 0.0591,1.96165 0.161866,3.63366 0.228376,3.71557 0.06651,0.0819 0.197988,3.30217 0.292174,7.15615 0.09419,3.85397 0.231585,8.02588 0.30533,9.27091 0.07375,1.24502 0.198252,3.97239 0.276679,6.06082 0.455274,12.12327 0.565552,14.65042 0.658005,15.07904 0.102381,0.47464 0.102381,0.47464 -2.214387,0.47457 -3.976888,-1.1e-4 -29.59212,0.27759 -33.314589,0.36117 -3.541565,0.0795 -3.541565,0.0795 -3.541565,-0.56675 z m 16.868072,-1.0124 c 5.703015,-0.12076 12.589223,-0.2247 15.302684,-0.23098 4.537836,-0.0105 4.941351,-0.0317 5.030614,-0.26431 0.0874,-0.22776 -0.569497,-32.45817 -0.79033,-38.77734 -0.09952,-2.84782 -0.20767,-3.11541 -0.767319,-1.89857 -0.29318,0.63745 -1.397753,2.58579 -1.75943,3.10343 -0.08418,0.12049 -0.429367,0.64624 -0.76707,1.16835 -0.638171,0.98665 -0.767794,1.16792 -1.133603,1.58526 -0.120486,0.13746 -0.396178,0.48508 -0.612647,0.77249 -0.381951,0.50712 -0.751879,0.92706 -2.29716,2.60774 -1.121579,1.21986 -3.156146,3.25428 -3.540012,3.53976 -0.187673,0.13957 -0.636962,0.475 -0.998421,0.7454 -0.361459,0.2704 -0.805067,0.53852 -0.985796,0.59583 -0.18073,0.0573 -0.328599,0.15102 -0.328599,0.20824 0,0.0572 -0.328599,0.23157 -0.73022,0.38742 -0.40162,0.15585 -0.730219,0.33462 -0.730219,0.39726 0,0.0626 -0.127561,0.1139 -0.283469,0.1139 -0.155907,0 -0.319481,0.0583 -0.363497,0.12948 -0.04402,0.0712 -0.327203,0.17387 -0.629305,0.22811 -1.283032,0.23035 -1.350856,0.31038 -1.367078,1.61314 -0.008,0.64307 -0.06181,1.33351 -0.119563,1.53432 -0.09843,0.34226 -0.111592,0.33112 -0.210245,-0.17786 -0.05788,-0.29863 -0.205932,-0.64366 -0.329,-0.76673 -0.123068,-0.12307 -0.193951,-0.22376 -0.157517,-0.22376 0.03644,0 -0.01802,-0.24645 -0.121011,-0.54767 -0.22668,-0.66297 -0.358013,-0.69008 -2.654658,-0.54798 -1.634958,0.10115 -1.634958,0.10115 -1.996997,0.79354 -0.199121,0.38081 -0.410087,0.9485 -0.468813,1.26154 -0.0879,0.46854 -0.126776,0.51795 -0.219908,0.27951 -0.06222,-0.15931 -0.118475,-0.55253 -0.125005,-0.87383 -0.02767,-1.36138 -0.140611,-1.62905 -0.766498,-1.81657 -0.628234,-0.18822 -1.735702,-0.76764 -2.292266,-1.19929 -0.536065,-0.41576 -0.692833,-0.3404 -1.336972,0.64264 -0.570111,0.87007 -0.594555,0.88886 -0.522474,0.40163 0.241868,-1.6349 0.238231,-2.79286 -0.01179,-3.75294 -0.142293,-0.54642 -0.325448,-1.04036 -0.407012,-1.09764 -0.09741,-0.0684 -0.164221,-3.86067 -0.194703,-11.05166 -0.0464,-10.94752 -0.0464,-10.94752 -0.615327,-11.04364 -0.786983,-0.13296 -0.861808,-0.0446 -0.853729,1.00811 0.0099,1.28937 -0.17906,3.63662 -0.306878,3.81211 -0.106948,0.14683 -0.359447,3.31281 -0.524141,6.57198 -0.04871,0.96389 -0.139848,1.81824 -0.202535,1.89857 -0.06269,0.0803 -0.157458,1.09898 -0.210602,2.26368 -0.102886,2.25487 -0.496761,7.22868 -0.601388,7.59428 -0.03448,0.12049 -0.132085,1.27059 -0.216899,2.55577 -0.08481,1.28519 -0.279579,3.61824 -0.432812,5.18456 -0.153234,1.56632 -0.320603,3.53792 -0.371933,4.38132 -0.05133,0.8434 -0.187064,2.45354 -0.301629,3.57808 -0.114566,1.12453 -0.307944,3.39187 -0.42973,5.03851 -0.121786,1.64665 -0.318921,3.89471 -0.438078,4.9957 -0.119157,1.10099 -0.216649,2.36902 -0.216649,2.81786 0,0.81606 0,0.81606 2.519258,0.74844 1.385592,-0.0372 7.185361,-0.16643 12.888376,-0.28719 z m 0.09707,-27.40553 c 0.827292,-0.001 0.827292,-0.001 0.919862,-1.13287 0.05091,-0.62252 0.131365,-1.39472 0.178781,-1.71602 0.08527,-0.5778 0.08995,-0.57062 0.428776,0.6572 0.188411,0.68275 0.343586,1.38924 0.344833,1.56997 0.0015,0.2197 0.09045,0.3286 0.26834,0.3286 0.320595,0 1.485637,-0.36908 2.289697,-0.72536 0.321297,-0.14236 0.748475,-0.3089 0.949285,-0.37008 0.200811,-0.0612 0.539555,-0.23405 0.752765,-0.38416 0.213209,-0.15011 0.424878,-0.27293 0.470372,-0.27293 0.390062,0 4.15714,-3.43104 3.971216,-3.61696 -0.07452,-0.0745 -1.010647,-0.29955 -1.689299,-0.40609 -0.670581,-0.10527 -1.898571,-0.53434 -1.898571,-0.66337 0,-0.0558 -0.151273,-0.13933 -0.336162,-0.18574 -0.489549,-0.12286 -2.324441,-1.95672 -2.732867,-2.73132 -0.103215,-0.19575 -0.227115,-0.38877 -0.275332,-0.42894 -0.338137,-0.28164 -1.57183,-2.94402 -2.027235,-4.37489 -0.371232,-1.1664 -0.397138,-1.41928 -0.397138,-3.87659 0,-2.50932 0.07448,-3.68206 0.264332,-4.16225 0.04764,-0.12049 0.21801,-0.63083 0.378604,-1.13409 0.445576,-1.39632 1.045904,-2.64651 1.310252,-2.72862 0.130609,-0.0406 2.570326,-0.24265 5.421594,-0.44909 4.810075,-0.34826 5.842857,-0.49448 5.209416,-0.73755 -0.133918,-0.0514 -0.244125,-0.16856 -0.244905,-0.26037 -7.79e-4,-0.0918 -0.238696,-0.46267 -0.528704,-0.82413 -1.259578,-1.5699 -2.682844,-3.5031 -2.682844,-3.64405 0,-0.0842 -0.05816,-0.15309 -0.129248,-0.15309 -0.07108,0 -0.238,-0.16598 -0.370921,-0.36884 -0.230413,-0.35165 -0.223577,-0.40439 0.146703,-1.13184 0.555053,-1.09045 1.963598,-4.32738 2.127328,-4.88874 0.07614,-0.26105 0.190116,-0.47464 0.253277,-0.47464 0.06316,0 0.114839,-0.0832 0.114839,-0.1849 0,-0.25653 0.521623,-1.91631 0.630356,-2.00576 0.04882,-0.0402 0.213141,-0.86166 0.365161,-1.82555 0.15202,-0.96389 0.346065,-1.79934 0.431213,-1.85655 0.224594,-0.15091 0.210089,-6.38305 -0.01593,-6.84669 -0.09424,-0.19332 -0.282314,-0.84438 -0.41794,-1.44681 -0.135627,-0.60244 -0.403549,-1.43629 -0.595385,-1.85302 -0.191834,-0.41673 -0.348907,-0.81105 -0.349052,-0.87626 -2.92e-4,-0.15769 -1.249016,-2.577 -1.693289,-3.28077 -0.193086,-0.30587 -0.351064,-0.61768 -0.351064,-0.6929 0,-0.0752 -0.04929,-0.15868 -0.109533,-0.18546 -0.06024,-0.0268 -0.37926,-0.41014 -0.708927,-0.85192 -0.612712,-0.82109 -1.770972,-2.04408 -1.937046,-2.04529 -0.05079,-4.4e-4 -0.293367,-0.18912 -0.539054,-0.41943 -0.245687,-0.23031 -0.590715,-0.46445 -0.766731,-0.52032 -0.176015,-0.0559 -0.320027,-0.16286 -0.320027,-0.23777 0,-0.0749 -0.06979,-0.1362 -0.155088,-0.1362 -0.0853,0 -0.496046,-0.15664 -0.912775,-0.34809 -0.416728,-0.19145 -1.217724,-0.45993 -1.779993,-0.59661 -0.56227,-0.13669 -1.136425,-0.30865 -1.275903,-0.38214 -0.321863,-0.16957 -4.533282,-0.17642 -4.7192,-0.008 -0.07631,0.0693 -0.59878,0.23634 -1.16105,0.37129 -2.159848,0.51836 -4.861533,1.69807 -6.71802,2.93345 -1.349945,0.89832 -3.576036,3.13977 -4.299456,4.32914 -0.115624,0.1901 -0.460802,0.75544 -0.76706,1.25631 -0.30626,0.50088 -0.750502,1.32237 -0.987206,1.82555 -0.669689,1.42361 -1.175452,2.56811 -1.175452,2.65995 0,0.046 -0.126131,0.36225 -0.280292,0.70275 -0.154159,0.3405 -0.390815,1.14485 -0.525901,1.78745 -0.135086,0.64259 -0.304694,1.28247 -0.376906,1.42194 -0.178485,0.34474 -0.167229,5.01795 0.01344,5.5778 0.0796,0.24667 0.271458,1.1057 0.426348,1.90894 0.276651,1.43468 1.075014,3.95527 1.339152,4.22797 0.07391,0.0763 0.134386,0.23176 0.134386,0.34545 0,0.11368 0.230019,0.69787 0.511153,1.2982 0.281135,0.60032 0.511154,1.11934 0.511154,1.15337 0,0.034 0.293924,0.66224 0.653164,1.39603 0.653164,1.33418 0.653164,1.33418 -0.401621,2.49224 -1.559168,1.71183 -2.048263,2.3082 -1.962962,2.3935 0.04204,0.042 1.95513,0.16841 4.251318,0.28083 4.53263,0.2219 4.902466,0.29786 5.168712,1.06162 0.09579,0.27477 0.101018,1.59469 0.01521,3.83809 -0.175738,4.59449 -0.230297,17.54001 -0.07796,18.49833 0.149796,0.94234 0.554912,1.07301 0.821578,0.26501 0.09107,-0.27595 0.211178,-0.5224 0.266904,-0.54767 0.05573,-0.0253 0.286972,-0.33128 0.51388,-0.68003 0.226909,-0.34875 0.439326,-0.60732 0.47204,-0.57461 0.03271,0.0327 -0.07202,0.51521 -0.232745,1.07222 -0.597357,2.07022 -0.740943,2.86203 -0.558797,3.0815 0.241608,0.29112 1.931549,1.21723 2.221168,1.21723 0.132847,0 0.241542,0.0657 0.241542,0.14604 0,0.34651 0.556905,0.12842 0.652628,-0.25557 0.05506,-0.2209 0.187923,-0.59878 0.295242,-0.83976 0.10732,-0.24097 0.328847,-0.79959 0.492282,-1.24137 0.297156,-0.80324 0.297156,-0.80324 0.304764,0.81541 0.0042,0.89026 0.0569,1.6696 0.117144,1.73187 0.06024,0.0623 0.536711,0.0737 1.058818,0.0254 0.522107,-0.0483 1.321568,-0.0883 1.776578,-0.0889 z m -3.231464,-26.17941 c 0.285875,-0.58032 0.552551,-1.1925 0.731623,-1.6795 0.09599,-0.26106 0.224957,-0.47465 0.286596,-0.47465 0.06164,0 0.157244,-0.24078 0.212455,-0.53508 0.05521,-0.2943 0.255978,-0.83648 0.446152,-1.20486 0.190173,-0.36838 0.392356,-0.86694 0.449296,-1.10791 0.05694,-0.24098 0.223767,-0.59337 0.370731,-0.78311 0.267206,-0.34498 0.267206,-0.34498 0.415861,0.046 0.08176,0.21504 0.148655,0.47215 0.148655,0.57134 0,0.0992 0.05622,0.24278 0.124934,0.31909 0.06871,0.0763 0.23555,0.5002 0.370747,0.94199 0.135197,0.44178 0.304706,0.93468 0.376686,1.09533 0.07198,0.16064 0.308989,0.81784 0.526683,1.46043 0.217693,0.6426 0.454315,1.28337 0.525824,1.42393 0.12147,0.23878 -0.04348,0.25558 -2.509049,0.25558 -2.639068,0 -2.639068,0 -2.477194,-0.3286 z m -5.040275,-7.12939 c -0.890113,-0.14881 -2.340547,-0.72992 -3.362803,-1.34731 -0.351566,-0.21232 -1.823626,-1.68129 -1.830194,-1.82635 -0.01897,-0.41899 -0.485588,-0.65181 -1.544329,-0.77054 -0.6213,-0.0697 -1.176029,-0.17791 -1.232731,-0.24052 -0.0567,-0.0626 -0.147146,-0.62683 -0.200987,-1.25384 -0.09789,-1.14001 -0.09789,-1.14001 1.186823,-1.03974 0.706593,0.0551 1.350435,0.14816 1.430759,0.20669 0.131136,0.0956 2.455235,0.28527 6.349058,0.51828 0.76096,0.0455 1.418158,0.13367 1.460439,0.19585 0.04228,0.0622 0.766932,0.19343 1.610336,0.29167 0.843403,0.0982 2.011797,0.27391 2.59643,0.39038 0.584633,0.11648 1.227464,0.21177 1.428512,0.21177 0.603956,0 0.582212,0.38803 -0.09563,1.7065 -0.753909,1.46642 -1.15115,1.91671 -2.034079,2.30568 -0.359622,0.15843 -0.689573,0.33751 -0.733226,0.39794 -0.240017,0.33231 -3.556815,0.49955 -5.028376,0.25354 z m 12.402898,-0.63152 c -1.066371,-0.21069 -2.07842,-0.88986 -2.534067,-1.70057 -0.176523,-0.31408 -0.325628,-0.62214 -0.331346,-0.68458 -0.0057,-0.0624 -0.05862,-0.24497 -0.117556,-0.40561 -0.355832,-0.96987 -0.332665,-1.07068 0.322903,-1.40513 0.342371,-0.17466 0.655353,-0.30974 0.695515,-0.30018 0.175367,0.0418 1.259058,-0.31326 1.525198,-0.49967 0.160777,-0.11261 0.415881,-0.20475 0.5669,-0.20475 0.151018,0 0.580003,-0.16369 0.9533,-0.36375 0.373298,-0.20007 0.908741,-0.46532 1.189876,-0.58944 0.635614,-0.28063 1.276057,-0.59956 1.752527,-0.87272 0.20081,-0.11512 0.594241,-0.32644 0.874289,-0.46959 0.280048,-0.14314 0.608647,-0.33836 0.730219,-0.4338 0.121573,-0.0954 0.588901,-0.46877 1.038507,-0.82962 0.817465,-0.65609 0.817465,-0.65609 0.989299,0.0275 0.09451,0.37597 0.206233,0.94976 0.248274,1.2751 0.07635,0.59086 0.07561,0.5919 -0.660699,0.92467 -0.427229,0.19308 -0.737143,0.42875 -0.737143,0.56054 0,0.36385 -0.85971,3.27753 -1.132455,3.83804 -0.136799,0.28114 -0.569495,0.8197 -0.961547,1.1968 -0.602057,0.5791 -0.867996,0.72093 -1.711452,0.91277 -1.14868,0.26126 -1.484564,0.26425 -2.700542,0.024 z M 55.10993,160.0953 c -0.166134,-0.10736 -0.1039,-0.14211 0.257558,-0.14381 0.262143,-0.001 0.590742,-0.0671 0.73022,-0.14628 0.139478,-0.0792 1.140812,-0.27692 2.225188,-0.43932 1.084376,-0.16241 2.706118,-0.41435 3.60387,-0.55988 1.632279,-0.2646 1.632279,-0.2646 1.786407,0.3475 0.08477,0.33665 0.195203,0.71913 0.245407,0.84996 0.0831,0.21656 -0.299466,0.23767 -4.269153,0.23564 -2.562975,-0.001 -4.450735,-0.0606 -4.579497,-0.14381 z m 2.546754,-1.84714 c -0.05548,-0.30942 -0.221878,-0.8336 -0.369775,-1.16483 -0.147898,-0.33123 -0.340121,-0.92002 -0.427163,-1.30842 -0.08704,-0.3884 -0.211581,-0.77459 -0.276753,-0.8582 -0.06517,-0.0836 -0.232686,-0.54633 -0.372254,-1.02828 -0.139569,-0.48194 -0.312994,-1.0077 -0.385388,-1.16835 -0.16135,-0.35804 -0.570546,-1.72836 -0.527511,-1.76653 0.08891,-0.0789 1.145259,-0.6432 1.20395,-0.6432 0.03772,0 0.06858,0.18402 0.06858,0.40893 0,0.22491 0.0577,0.47135 0.128231,0.54766 0.156807,0.16966 0.455945,2.17528 0.455945,3.05697 0,0.35344 0.0696,0.68563 0.154667,0.7382 0.08507,0.0526 0.136385,0.23718 0.114039,0.41024 -0.02235,0.17306 -0.0013,0.38037 0.04682,0.4607 0.132472,0.22124 0.45875,2.70644 0.367328,2.79786 -0.04391,0.0439 -0.125231,-0.17333 -0.180711,-0.48275 z m 1.619261,-0.67212 c -0.218073,-1.1194 -0.431814,-1.86206 -0.53591,-1.86206 -0.0615,0 -0.161118,-0.24645 -0.221379,-0.54766 -0.06026,-0.30122 -0.119775,-0.58053 -0.132257,-0.62069 -0.01249,-0.0402 -0.07295,-0.28661 -0.134377,-0.54767 -0.06142,-0.26105 -0.163581,-0.47464 -0.227015,-0.47464 -0.06343,0 -0.231533,-0.4929 -0.373557,-1.09533 -0.142023,-0.60243 -0.323383,-1.09533 -0.403023,-1.09533 -0.07964,0 0.0096,-0.1643 0.198205,-0.36511 0.188653,-0.20081 0.426862,-0.36511 0.529354,-0.36511 0.102494,0 0.238908,-0.089 0.303142,-0.19774 0.06423,-0.10876 0.264659,-0.27538 0.445389,-0.37025 0.300189,-0.15759 0.328599,-0.14012 0.328599,0.20201 0,0.52129 0.414795,6.27408 0.513413,7.12051 0.09134,0.78395 -0.145722,0.96267 -0.290584,0.21907 z m 5.551598,31.80107 c 0.488824,-0.40162 1.109468,-0.89452 1.379211,-1.09533 0.269742,-0.20081 1.054537,-0.82515 1.743988,-1.38742 0.689452,-0.56227 1.581894,-1.26905 1.983206,-1.57062 1.187539,-0.8924 1.385689,-1.04676 1.648162,-1.28393 0.137417,-0.12417 0.611307,-0.51849 1.05309,-0.87627 0.441783,-0.35777 0.929837,-0.76475 1.084565,-0.9044 0.154726,-0.13965 0.401175,-0.29195 0.547664,-0.33844 0.146488,-0.0465 0.266342,-0.14414 0.266342,-0.21699 0,-0.0728 0.213589,-0.24197 0.474643,-0.37581 0.463632,-0.23772 1.118284,-0.7145 1.582224,-1.15233 0.127224,-0.12006 0.274359,-0.2183 0.326967,-0.2183 0.128009,0 1.911239,-1.3497 1.973143,-1.49344 0.02678,-0.0622 0.131598,-0.11304 0.232943,-0.11304 0.101342,0 0.29358,-0.1208 0.427194,-0.26844 0.133613,-0.14764 0.611198,-0.45981 1.0613,-0.69371 0.966945,-0.50248 1.591166,-1.29838 2.541894,-3.24099 0.976609,-1.99549 0.955865,-6.49165 -0.05843,-12.66493 -0.590931,-3.59657 -2.578445,-11.08866 -3.133544,-11.81213 -0.06898,-0.0899 -0.21134,-0.49208 -0.316341,-0.8937 -0.105003,-0.40162 -0.278719,-0.83311 -0.386038,-0.95887 -0.107319,-0.12575 -0.238519,-0.45435 -0.291558,-0.73022 -0.05304,-0.27586 -0.205926,-0.66586 -0.339752,-0.86668 -0.133824,-0.20081 -0.686097,-1.25232 -1.227271,-2.3367 -0.541176,-1.08437 -1.101168,-2.16875 -1.24443,-2.40972 -0.143262,-0.24098 -0.470409,-0.81599 -0.726994,-1.27781 -0.479807,-0.8636 -1.070743,-1.80036 -1.332025,-2.11155 -0.08146,-0.097 -0.148101,-0.22225 -0.148101,-0.2783 0,-0.056 -0.180434,-0.33814 -0.400963,-0.62685 -0.220531,-0.28872 -0.626012,-0.85354 -0.901068,-1.25516 -1.322354,-1.93082 -5.208881,-6.34865 -6.629209,-7.53545 -0.63888,-0.53383 -0.977393,-0.71604 -1.330319,-0.71604 -0.523929,0 -4.072966,1.14522 -4.976337,1.60578 -0.315865,0.16104 -0.662392,0.2928 -0.770062,0.2928 -0.107671,0 -0.438803,0.12693 -0.735851,0.28207 -0.297049,0.15514 -1.378015,0.69451 -2.402148,1.1986 -1.024133,0.50408 -1.86206,0.9615 -1.86206,1.01648 0,0.055 -0.147869,0.1377 -0.328598,0.18382 -0.357015,0.0911 -1.359735,0.70447 -2.947593,1.80306 -4.975373,3.44231 -11.094008,10.12278 -14.140361,15.43878 -0.872754,1.52299 -1.145122,2.03183 -1.921756,3.59026 -2.295216,4.60567 -3.549755,7.95784 -4.618481,12.34071 -0.176276,0.72292 -0.382574,1.39167 -0.458436,1.48612 -0.07586,0.0944 -0.120683,0.25874 -0.0996,0.36511 0.02108,0.10636 -0.05706,0.75201 -0.173665,1.43476 -0.124842,0.73102 -0.211999,2.20357 -0.211999,3.58177 0,2.34039 0,2.34039 0.582771,3.06692 2.688613,3.35185 6.733997,7.37614 9.624052,9.57386 0.731855,0.55654 1.396366,1.06396 1.476691,1.12761 0.08032,0.0636 0.571461,0.40839 1.091416,0.7661 0.519955,0.35771 1.029673,0.72823 1.132705,0.82337 0.103033,0.0951 0.32976,0.2182 0.503839,0.27345 0.17408,0.0553 0.449361,0.22422 0.611735,0.3755 0.162376,0.15128 0.512457,0.3536 0.777959,0.4496 0.2655,0.096 0.482729,0.22708 0.482729,0.29127 0,0.0642 0.122951,0.1167 0.273223,0.1167 0.30967,0 0.378066,-0.42551 0.539906,-3.35901 0.152762,-2.76891 0.192499,-3.32801 0.414724,-5.83503 0.117152,-1.32166 0.180671,-2.45532 0.141154,-2.51926 -0.03952,-0.0639 -2.094331,-0.11626 -4.566252,-0.11626 -2.47192,0 -4.52808,-0.0337 -4.569242,-0.0748 -0.09736,-0.0974 0.624443,-0.92613 2.468608,-2.83441 2.295809,-2.37564 2.669088,-2.77409 2.669088,-2.84908 0,-0.0382 -0.286038,-0.48333 -0.635641,-0.9892 -2.06375,-2.98624 -2.801578,-5.12607 -3.380839,-9.80499 -0.502862,-4.0618 -0.04439,-8.37371 1.252539,-11.78 0.429204,-1.12728 1.900708,-4.06428 2.132802,-4.2569 0.106155,-0.0881 0.193008,-0.23606 0.193008,-0.3288 0,-0.2396 2.150964,-2.86657 3.164304,-3.86456 2.870764,-2.82726 6.288451,-4.56547 10.271736,-5.22411 1.752523,-0.28979 4.708087,-0.32373 6.133845,-0.0704 1.278152,0.22707 3.746928,0.98564 3.87332,1.19015 0.04791,0.0775 0.180818,0.14093 0.295356,0.14093 0.535299,0 2.518963,1.4418 3.817693,2.77484 2.395594,2.45888 3.852367,5.30095 4.931539,9.62112 1.22166,4.89058 1.07002,8.37769 -0.576456,13.25611 -0.375573,1.11279 -0.734927,2.08898 -0.798568,2.1693 -0.06364,0.0803 -0.163409,0.31035 -0.221708,0.51116 -0.187963,0.64744 -1.25347,3.14216 -1.835514,4.29757 -0.288879,0.57345 -0.288879,0.57345 0.114734,1.16344 0.221987,0.32449 0.488917,0.69078 0.593176,0.81396 0.513191,0.60637 1.734879,2.30019 1.821106,2.52489 0.05379,0.14018 0.161154,0.25486 0.238587,0.25486 0.07743,0 0.178826,0.11986 0.225319,0.26634 0.04649,0.14649 0.200883,0.39294 0.343091,0.54767 0.142206,0.15473 0.409692,0.52777 0.594416,0.82899 0.184724,0.30121 0.385671,0.54766 0.44655,0.54766 0.06088,0 0.188088,0.14787 0.282684,0.3286 0.09459,0.18073 0.36584,0.59148 0.602766,0.91278 0.236925,0.32129 0.432957,0.62435 0.435625,0.67345 0.0027,0.0491 -1.687432,0.13186 -3.755779,0.18391 -9.979695,0.25115 -9.473672,0.20521 -9.671928,0.87805 -0.09744,0.33071 -0.265127,0.79845 -0.372627,1.03942 -0.107501,0.24097 -0.304604,0.86531 -0.438006,1.38742 -0.133401,0.5221 -0.318535,1.10719 -0.411407,1.30018 -0.21545,0.44772 -0.234786,5.52796 -0.02161,5.67878 0.08098,0.0573 0.27274,0.46563 0.426123,0.90741 0.424979,1.22405 0.485004,1.22192 2.061116,-0.073 z"
       id="path440" /></g></svg>
