<?xml version="1.0" encoding="UTF-8" standalone="no"?>
<!-- Created with Inkscape (http://www.inkscape.org/) -->

<svg
   version="1.1"
   id="svg1099"
   width="257.50687"
   height="126.84541"
   viewBox="0 0 257.50687 126.84541"
   sodipodi:docname="FRCC Black.svg"
   xml:space="preserve"
   inkscape:version="1.2.2 (732a01da63, 2022-12-09)"
   xmlns:inkscape="http://www.inkscape.org/namespaces/inkscape"
   xmlns:sodipodi="http://sodipodi.sourceforge.net/DTD/sodipodi-0.dtd"
   xmlns="http://www.w3.org/2000/svg"
   xmlns:svg="http://www.w3.org/2000/svg"><defs
     id="defs1103" /><sodipodi:namedview
     id="namedview1101"
     pagecolor="#505050"
     bordercolor="#eeeeee"
     borderopacity="1"
     inkscape:showpageshadow="0"
     inkscape:pageopacity="0"
     inkscape:pagecheckerboard="0"
     inkscape:deskcolor="#505050"
     showgrid="false"
     inkscape:zoom="4"
     inkscape:cx="132.375"
     inkscape:cy="45.25"
     inkscape:window-width="1920"
     inkscape:window-height="1009"
     inkscape:window-x="-8"
     inkscape:window-y="-8"
     inkscape:window-maximized="1"
     inkscape:current-layer="g1105" /><g
     inkscape:groupmode="layer"
     inkscape:label="Image"
     id="g1105"
     transform="translate(-16.16,-33.150912)"><path
       style="font-variation-settings:normal;display:inline;opacity:1;vector-effect:none;fill:#000000;fill-opacity:1;stroke-width:0.32;stroke-linecap:butt;stroke-linejoin:miter;stroke-miterlimit:4;stroke-dasharray:none;stroke-dashoffset:0;stroke-opacity:1;-inkscape-stroke:none;stop-color:#000000;stop-opacity:1"
       d="m 21.917529,159.44701 c -2.246811,-0.80783 -3.741515,-2.04847 -4.825918,-4.00562 C 16.280546,153.97757 16.16,153.42876 16.16,151.20001 c 0,-2.26619 0.113269,-2.762 0.986924,-4.32 2.195552,-3.91537 6.428554,-5.22667 12.213076,-3.78336 l 1.36,0.33934 v 1.562 c 0,1.78897 -0.548702,2.0774 -1.420584,0.74674 -0.891109,-1.36001 -2.378876,-2.0622 -4.372093,-2.06353 -2.310491,-0.002 -3.685444,0.87525 -4.766069,3.03927 -0.672963,1.34765 -0.794713,2.02787 -0.773131,4.31954 0.0278,2.9526 0.475934,4.36193 1.862811,5.85839 0.983058,1.06074 3.195941,2.12476 4.439344,2.13458 1.218065,0.01 3.090492,-0.81525 4.146384,-1.82662 1.048734,-1.00451 1.31471,-0.84543 1.039474,0.6217 -0.347147,1.85045 -0.455929,1.90588 -4.035029,2.0559 -2.650559,0.11111 -3.644654,0.0229 -4.923578,-0.43695 z m 16.067329,0.11006 c -2.310458,-0.85954 -3.638055,-1.99498 -4.577338,-3.9148 -0.764909,-1.56342 -0.892374,-2.20754 -0.873952,-4.41632 0.02403,-2.88075 0.50744,-4.32702 2.023421,-6.05362 2.340509,-2.6657 7.688816,-3.46395 11.316582,-1.68906 3.058835,1.49656 4.333456,3.80703 4.345357,7.87674 0.01082,3.69998 -1.403811,6.25571 -4.298928,7.76662 -1.645382,0.8587 -6.130058,1.10197 -7.935142,0.43044 z m 6.131699,-1.3913 c 2.085168,-1.54417 3.04928,-4.09909 2.871949,-7.61073 -0.213373,-4.2254 -2.314461,-6.87503 -5.451719,-6.87503 -3.308406,0 -5.204099,2.13789 -5.816835,6.56 -0.242957,1.75342 0.477034,4.98509 1.420237,6.37473 1.574003,2.31902 4.931376,3.06545 6.976368,1.55103 z m 51.87383,1.11424 c -2.551536,-1.289 -2.740041,-1.85427 -2.964669,-8.89019 -0.156281,-4.89512 -0.296988,-6.25817 -0.690982,-6.69353 C 92.06263,143.39562 91.84,143.06945 91.84,142.97146 c 0,-0.098 1.08,-0.17118 2.4,-0.16268 1.32,0.009 2.4,0.0887 2.4,0.17815 0,0.0895 -0.252,0.44131 -0.56,0.78186 -0.48464,0.53586 -0.56,1.3144 -0.56,5.7852 0,4.36906 0.08879,5.32864 0.575536,6.22017 0.830461,1.52107 2.292896,2.30322 4.309164,2.30465 1.4745,9.6e-4 1.83383,-0.13587 2.88,-1.0974 l 1.1953,-1.09859 -0.0397,-5.84184 c -0.0377,-5.54627 -0.0741,-5.86971 -0.72,-6.3927 -0.37416,-0.30297 -0.68029,-0.61683 -0.68029,-0.69746 0,-0.0806 1.152,-0.1466 2.56,-0.1466 2.58803,0 2.95108,0.15286 2.08,0.87579 -0.40111,0.33289 -0.48,1.60329 -0.48,7.72922 0,6.22113 0.0727,7.35875 0.48,7.51506 1.05569,0.4051 0.3758,0.75572 -1.46543,0.75572 h -1.94542 l 0.21085,-0.96 c 0.23028,-1.04843 -0.15163,-1.26124 -0.81941,-0.45661 -1.46913,1.77019 -5.199745,2.26465 -7.670203,1.01661 z m 22.089613,-5.7183 -5.6,-6.43093 -0.0972,4.11461 c -0.12451,5.27244 0.074,6.64407 1.07545,7.43183 0.42995,0.33819 0.78172,0.70217 0.78172,0.80884 0,0.10667 -1.0928,0.19395 -2.42844,0.19395 h -2.42845 l 0.82845,-0.98456 0.82844,-0.98455 v -7.67891 c 0,-7.07339 0.0432,-7.6706 0.54735,-7.5735 0.45067,0.0868 5.28048,5.4231 10.51846,11.62152 l 1.08167,1.28 0.006,-5.37455 c 0.006,-5.31001 -0.003,-5.38415 -0.79374,-6.17454 -0.44,-0.44 -0.8,-0.84428 -0.8,-0.8984 0,-0.0541 1.008,-0.0984 2.24,-0.0984 1.232,0 2.24,0.0566 2.24,0.12589 0,0.0692 -0.28117,0.51607 -0.62483,0.99294 -0.56061,0.77795 -0.64763,1.64803 -0.84677,8.46705 -0.15185,5.19962 -0.33351,7.59884 -0.57517,7.59632 -0.19428,-0.002 -2.87323,-2.89761 -5.95323,-6.43462 z m 57.76,6.13804 c -4.0973,-1.00191 -6.54595,-4.18141 -6.54595,-8.49974 0,-5.11418 3.34736,-8.51813 8.45977,-8.6028 2.83034,-0.0469 5.13695,0.33928 5.76236,0.96469 0.26755,0.26756 0.48382,1.04576 0.48382,1.74097 0,0.98471 -0.12135,1.2567 -0.56,1.25512 -0.308,-9.6e-4 -0.78986,-0.4062 -1.07079,-0.90019 -0.7758,-1.36417 -2.56617,-2.07519 -4.81565,-1.91247 -1.60674,0.11622 -2.04225,0.29263 -2.98994,1.21117 -1.55641,1.50853 -2.1976,3.63462 -2.01546,6.68299 0.23906,4.00114 1.85259,6.24965 5.10992,7.12086 1.90035,0.50826 3.66125,0.0311 5.06481,-1.37246 1.26332,-1.26333 1.78322,-0.88638 1.20629,0.87461 -0.32527,0.99286 -0.60819,1.29375 -1.36957,1.45657 -1.3111,0.28038 -5.54375,0.26821 -6.71961,-0.0193 z m 15.09444,-0.21917 c -3.49405,-1.07348 -5.5757,-4.67053 -5.2596,-9.08845 0.25392,-3.54895 2.07905,-6.13586 5.20516,-7.37772 1.31349,-0.52178 5.8046,-0.52376 7.32183,-0.003 1.57535,0.54049 3.57825,2.34004 4.40234,3.95541 0.91984,1.80302 1.12579,5.10739 0.46088,7.39459 -0.7135,2.45437 -2.64579,4.43449 -5.01352,5.13763 -2.08295,0.61857 -5.06928,0.61092 -7.11709,-0.0182 z m 5.73722,-1.05031 c 1.62193,-0.73659 2.46657,-1.88889 3.17774,-4.33522 0.97623,-3.35814 0.11012,-7.24952 -2.06881,-9.29504 -0.93528,-0.87801 -1.21409,-0.96 -3.26457,-0.96 -2.2168,0 -2.25584,0.0149 -3.48077,1.32807 -1.63754,1.75553 -2.38832,4.26377 -2.12389,7.09553 0.48697,5.21482 3.89427,7.9224 7.7603,6.16666 z m 13.96834,1.32647 c -3.31496,-0.0552 -5.52,-0.21665 -5.52,-0.40429 0,-0.17184 0.21093,-0.31244 0.46874,-0.31244 1.00616,0 1.16819,-1.22065 1.06912,-8.0538 -0.0956,-6.59213 -0.11461,-6.76024 -0.81786,-7.2267 -0.396,-0.26266 -0.72,-0.5832 -0.72,-0.71232 0,-0.12911 1.224,-0.24038 2.72,-0.24726 1.496,-0.007 2.72,0.0572 2.72,0.14249 0,0.0853 -0.29331,0.39408 -0.65179,0.68629 -0.61581,0.50196 -0.65556,0.92 -0.72,7.5713 l -0.0682,7.04 2.24,0.10134 c 2.81242,0.12725 4.55134,-0.35664 5.02609,-1.3986 0.38899,-0.85375 0.82671,-1.01075 1.06714,-0.38274 0.21048,0.54977 -0.59384,3.22464 -0.98026,3.25996 -0.17213,0.0157 -2.79697,-0.0127 -5.83297,-0.0632 z m 12.96,0.004 c -2.948,-0.0528 -5.36,-0.2019 -5.36,-0.33131 0,-0.12941 0.288,-0.41515 0.64,-0.63498 0.60826,-0.37986 0.64,-0.74624 0.64,-7.38738 0,-6.58129 -0.0372,-7.02137 -0.64,-7.56688 -0.352,-0.31856 -0.64,-0.68193 -0.64,-0.80749 0,-0.12556 1.152,-0.2283 2.56,-0.2283 1.408,0 2.56,0.0777 2.56,0.1727 0,0.095 -0.252,0.45082 -0.56,0.79075 -0.4908,0.54168 -0.57206,1.48878 -0.65762,7.66414 l -0.0976,7.04608 3.10684,-0.13588 c 3.02237,-0.13219 3.12967,-0.16323 3.94656,-1.14174 1.23305,-1.47698 1.72094,-0.97742 1.10327,1.12967 -0.26927,0.91854 -0.65874,1.6378 -0.8655,1.59835 -0.20676,-0.0394 -2.78793,-0.11492 -5.73593,-0.16773 z m 12.64,2e-5 c -2.86,-0.053 -5.2,-0.20222 -5.2,-0.33152 0,-0.1293 0.288,-0.41496 0.64,-0.63479 0.60803,-0.37971 0.64,-0.74624 0.64,-7.33634 0,-6.68162 -0.0256,-6.9639 -0.69578,-7.67729 l -0.69578,-0.74062 h 4.45789 c 2.45184,0 4.92494,-0.13395 5.49578,-0.29766 l 1.03789,-0.29767 v 1.89767 c 0,1.47347 -0.1073,1.89766 -0.48,1.89766 -0.264,0 -0.48,-0.20555 -0.48,-0.45678 0,-0.25122 -0.37942,-0.75522 -0.84316,-1.12 -0.66702,-0.52468 -1.30205,-0.66322 -3.04,-0.66322 H 234.88 v 3.2 3.2 h 2.54874 c 2.22124,0 2.59275,-0.0822 2.89126,-0.64 0.63653,-1.18937 0.96,-0.65025 0.96,1.6 0,1.28 -0.13714,2.24 -0.32,2.24 -0.176,0 -0.32,-0.144 -0.32,-0.32 0,-0.176 -0.288,-0.608 -0.64,-0.96 -0.5181,-0.5181 -1.06667,-0.64 -2.88,-0.64 h -2.24 v 3.36 3.36 h 2.69545 c 2.40828,0 2.79674,-0.0852 3.64619,-0.8 0.88591,-0.74545 1.65836,-1.03503 1.65836,-0.6217 0,0.83826 -0.79231,3.00662 -1.07799,2.9502 -0.1991,-0.0393 -2.70201,-0.11489 -5.56201,-0.16793 z m 15.12,-0.18772 c -2.89262,-0.96108 -4.94795,-2.63424 -5.9613,-4.85285 -0.68835,-1.50704 -0.78836,-4.7271 -0.20756,-6.68287 0.55814,-1.87945 2.88872,-4.11515 5.06754,-4.86122 2.05075,-0.70222 6.52978,-0.79311 8.38132,-0.17007 1.11408,0.37488 1.2,0.49366 1.2,1.65898 0,1.53589 -0.41996,1.59399 -1.80667,0.24995 -1.86001,-1.8028 -5.65691,-1.68683 -7.78729,0.23785 -2.73563,2.47147 -3.03852,7.96746 -0.62583,11.35577 1.0529,1.47866 3.00364,2.33435 5.36739,2.35441 1.78489,0.0151 2.10487,-0.0781 2.67303,-0.77903 0.50599,-0.62423 0.61052,-1.10585 0.48387,-2.22951 -0.0889,-0.7883 -0.31972,-1.486 -0.51303,-1.55043 -0.19331,-0.0644 -0.35147,-0.24916 -0.35147,-0.41049 0,-0.16133 0.936,-0.29333 2.08,-0.29333 1.87,0 2.73163,0.36931 1.68,0.72008 -0.26678,0.089 -0.40324,0.86404 -0.40975,2.3272 l -0.01,2.19378 -1.11025,0.46121 c -1.54143,0.64033 -6.53814,0.80621 -8.15026,0.27058 z m 15.6,0.18772 c -2.86,-0.053 -5.2,-0.20222 -5.2,-0.33152 0,-0.1293 0.288,-0.41496 0.64,-0.63479 0.60775,-0.37954 0.64,-0.74624 0.64,-7.27697 0,-6.45062 -0.0397,-6.91699 -0.64,-7.51729 -0.352,-0.352 -0.64,-0.712 -0.64,-0.8 0,-0.088 1.98095,-0.16 4.40211,-0.16 2.42116,0 4.86916,-0.13395 5.44,-0.29766 l 1.03789,-0.29766 v 1.89766 c 0,1.47348 -0.1073,1.89766 -0.48,1.89766 -0.264,0 -0.48,-0.15054 -0.48,-0.33454 0,-0.184 -0.35346,-0.688 -0.78546,-1.12 -0.68529,-0.68529 -1.07295,-0.78545 -3.04,-0.78545 H 265.6 v 3.2 3.2 h 2.40313 c 2.00714,0 2.49343,-0.10546 2.95112,-0.64 0.30139,-0.352 0.65998,-0.64 0.79687,-0.64 0.13688,0 0.24888,1.008 0.24888,2.24 0,2.27952 -0.40103,2.9102 -0.94341,1.48364 -0.37247,-0.97969 -0.9104,-1.16364 -3.40276,-1.16364 H 265.6 v 3.36 3.36 h 2.69545 c 2.40828,0 2.79674,-0.0852 3.64619,-0.8 1.2033,-1.01251 1.80245,-1.04388 1.52798,-0.08 -0.11277,0.396 -0.29156,1.116 -0.39732,1.6 -0.10577,0.484 -0.3543,0.84782 -0.5523,0.8085 -0.198,-0.0393 -2.7,-0.11489 -5.56,-0.16793 z M 51.170198,158.91173 c 0.825904,-0.87914 1.034004,-2.19631 1.659527,-10.50404 0.404432,-5.37138 0.627408,-6.44943 1.208934,-5.84501 0.16792,0.17452 1.780989,3.08932 3.584595,6.47732 1.80361,3.388 3.375338,6.16 3.49273,6.16 0.117389,0 1.559197,-2.88 3.204016,-6.4 1.644819,-3.52 3.156224,-6.4 3.358678,-6.4 0.251037,0 0.499511,2.00555 0.781312,6.30631 0.527495,8.05049 0.756333,9.69872 1.413248,10.17907 C 70.780579,159.54884 70.471386,159.68 68,159.68 c -1.32,0 -2.4,-0.0823 -2.4,-0.18286 0,-0.10057 0.233546,-0.4164 0.518989,-0.70184 0.433485,-0.43349 0.484851,-0.97009 0.311779,-3.25714 -0.357325,-4.72194 -0.590259,-6.46773 -0.827043,-6.19852 -0.125949,0.1432 -1.286691,2.54143 -2.579424,5.3294 -1.970067,4.24873 -2.411703,4.98523 -2.729088,4.55118 -0.208266,-0.28482 -1.650711,-2.77833 -3.205437,-5.54113 -2.790435,-4.9587 -2.829715,-5.00898 -3.055616,-3.91118 -0.125866,0.61165 -0.275043,2.81549 -0.331504,4.89742 -0.08974,3.30918 -0.03221,3.8369 0.457344,4.19528 0.927946,0.6793 0.658538,0.81939 -1.575779,0.81939 H 50.448438 Z M 71.04,159.36001 c 0,-0.176 0.147565,-0.32 0.32792,-0.32 0.656928,0 0.979344,-1.82436 1.600192,-9.05447 0.348237,-4.05541 0.69529,-7.4356 0.771232,-7.51154 0.35672,-0.35673 1.030157,0.71342 4.222979,6.71065 l 3.430986,6.44458 0.582,-1.25461 C 86.947546,143.65601 88.32,141.17158 88.32,142.88936 c 0,1.15484 0.974272,13.84612 1.136723,14.80747 0.09822,0.58125 0.386643,1.13665 0.640931,1.23423 1.113152,0.42716 0.280624,0.74895 -1.937654,0.74895 -2.264918,0 -3.048154,-0.32281 -1.875267,-0.77289 0.465789,-0.17874 0.499165,-0.67167 0.297136,-4.38817 -0.125181,-2.30274 -0.33233,-4.46992 -0.460333,-4.81595 -0.1788,-0.48335 -0.784592,0.56937 -2.614042,4.54258 -1.309718,2.84444 -2.465392,5.22369 -2.568163,5.2872 -0.102771,0.0635 -1.104256,-1.49737 -2.22552,-3.46864 -1.121264,-1.97127 -2.550573,-4.44813 -3.176237,-5.50413 l -1.137574,-1.92 -0.202598,2.08 c -0.111428,1.144 -0.219428,3.33878 -0.24,4.87729 -0.03308,2.47368 0.03664,2.84352 0.602598,3.19697 1.076736,0.67244 0.729955,0.88574 -1.44,0.88574 -1.173334,0 -2.08,-0.13949 -2.08,-0.32 z m 56.64,0.16 c 0,-0.088 0.3064,-0.4664 0.68089,-0.84089 0.66767,-0.66767 0.67641,-0.81526 0.45,-7.6 -0.17464,-5.23343 -0.34053,-7.04219 -0.68089,-7.42431 -0.2475,-0.27786 -0.45,-0.5784 -0.45,-0.66788 0,-0.0895 1.08,-0.16964 2.4,-0.17815 2.48184,-0.016 2.7351,0.0732 1.91887,0.67595 -0.39951,0.29501 -0.49451,1.59417 -0.56,7.65785 -0.0717,6.63897 -0.028,7.34007 0.48113,7.71528 0.308,0.22699 0.56,0.50483 0.56,0.61743 0,0.11259 -1.08,0.20472 -2.4,0.20472 -1.32,0 -2.4,-0.072 -2.4,-0.16 z m 10.88,-0.083 c 0,-0.13366 0.27505,-0.41479 0.61122,-0.62474 0.94871,-0.59248 1.08067,-1.96232 0.83085,-8.62506 l -0.23199,-6.18717 h -1.91665 c -1.717,0 -2.01007,0.1 -2.81343,0.96 -1.28505,1.37564 -1.6,1.22662 -1.6,-0.75704 v -1.71703 l 1.36,0.2631 c 1.81405,0.35093 11.28548,0.34874 12.8,-0.003 l 1.2,-0.27867 v 1.7263 c 0,1.99327 -0.31356,2.14345 -1.6,0.7663 -0.78604,-0.84145 -1.11396,-0.96 -2.65561,-0.96 h -1.75883 l -0.22811,4.25916 c -0.12547,2.34253 -0.17621,5.52327 -0.11276,7.0683 0.10061,2.44979 0.20747,2.88372 0.83534,3.39214 0.39598,0.32064 0.71997,0.66791 0.71997,0.7717 0,0.10379 -1.224,0.1887 -2.72,0.1887 -1.496,0 -2.72,-0.10936 -2.72,-0.24302 z m 14.72,-0.077 c 0,-0.176 0.21093,-0.32 0.46874,-0.32 0.79022,0 1.13126,-1.12516 1.13126,-3.73228 v -2.49435 l -2.61289,-4.56669 c -1.43708,-2.51167 -2.73308,-4.56668 -2.88,-4.56668 -0.14691,0 -0.26711,-0.2 -0.26711,-0.44445 0,-0.33975 0.56533,-0.44444 2.4,-0.44444 2.21486,0 2.88142,0.23358 2.08,0.72889 -0.176,0.10877 -0.32,0.49676 -0.32,0.86219 0,0.83835 2.93526,6.37272 3.3131,6.24677 0.15417,-0.0514 1.00845,-1.48934 1.8984,-3.19545 1.527,-2.92739 1.58798,-3.13529 1.08329,-3.69297 -0.29413,-0.32501 -0.53479,-0.6696 -0.53479,-0.76574 0,-0.0961 0.936,-0.1748 2.08,-0.1748 1.144,0 2.08,0.0821 2.08,0.18249 0,0.10037 -0.34759,0.55037 -0.77242,1 -0.42483,0.44963 -1.8096,2.59912 -3.07727,4.77665 l -2.30485,3.95914 0.13742,2.87434 c 0.12361,2.58543 0.21581,2.93459 0.91727,3.47374 l 0.77985,0.59941 -2.8,0.007 c -1.65808,0.004 -2.8,-0.12338 -2.8,-0.31287 z M 70.940125,133.41318 c -4.234016,-0.62633 -7.663763,-3.14833 -9.442506,-6.94339 C 60.695434,124.75828 60.64,124.35044 60.64,120.16001 c 0,-4.3531 0.02819,-4.53893 0.99471,-6.56 1.852928,-3.87459 4.970141,-6.07741 9.567856,-6.76123 6.114704,-0.90945 11.62298,1.55908 13.914256,6.23566 2.341037,4.77815 2.019818,11.42266 -0.74719,15.45578 -2.590634,3.77604 -7.889075,5.70255 -13.429507,4.88296 z m 5.905491,-2.24048 c 4.759635,-2.4117 6.60351,-11.72855 3.586314,-18.12115 -2.610695,-5.53133 -9.239165,-6.43575 -12.814298,-1.74844 -3.184688,4.1754 -3.299235,12.94786 -0.226957,17.38116 2.190944,3.16153 6.097427,4.18967 9.454941,2.48843 z m 25.390474,-7.40245 -8.31609,-9.98976 -0.10128,1.74976 c -0.0557,0.96237 -0.0557,4.55776 0,7.98976 0.108326,6.67422 0.402541,8.01701 1.85777,8.47888 0.353929,0.11234 0.64351,0.41054 0.64351,0.66268 0,0.36881 -0.656912,0.45844 -3.36,0.45844 -3.595965,0 -3.928784,-0.17999 -2.543248,-1.37535 0.449216,-0.38756 0.949779,-1.28065 1.112368,-1.98465 0.162586,-0.704 0.299046,-6.212 0.303245,-12.24 l 0.0076,-10.96 0.72,0.0136 c 0.548896,0.0103 2.659187,2.36935 8.879995,9.92657 l 8.16,9.913 0.10108,-1.68657 c 0.0556,-0.92761 0.0525,-4.56656 -0.007,-8.08656 -0.11545,-6.84031 -0.31036,-7.79129 -1.72943,-8.43786 -1.5509,-0.70664 -0.78562,-1.00214 2.59529,-1.00214 3.59596,0 3.92878,0.17998 2.54325,1.37535 -0.44922,0.38755 -0.94978,1.28065 -1.11237,1.98465 -0.16259,0.704 -0.29905,6.212 -0.30324,12.24 -0.007,10.25081 -0.0441,10.96 -0.57155,10.96 -0.34891,0 -3.73453,-3.80873 -8.88,-9.98976 z m 111.63766,0.0698 c -4.55056,-5.45599 -8.36163,-9.91999 -8.46903,-9.92001 -0.32131,-4e-5 0.0594,15.11268 0.4094,16.25157 0.17775,0.57838 0.74228,1.36146 1.25452,1.74018 0.51225,0.37872 0.93136,0.8055 0.93136,0.94841 0,0.1429 -1.512,0.25982 -3.36,0.25982 -2.12919,0 -3.36,-0.12284 -3.36,-0.33535 0,-0.18445 0.396,-0.67574 0.88,-1.09178 l 0.88,-0.75643 0.20238,-11.94822 c 0.1113,-6.57153 0.2193,-12.05622 0.24,-12.18822 0.0207,-0.132 0.31882,-0.24 0.66252,-0.24 0.43017,0 3.19733,3.11199 8.88,9.98656 l 8.2551,9.98655 0.0879,-7.02655 c 0.0512,-4.09673 -0.0534,-7.68826 -0.25098,-8.6135 -0.35252,-1.65093 -1.06779,-2.73306 -1.8065,-2.73306 -0.23672,0 -0.4304,-0.216 -0.4304,-0.48 0,-0.3962 0.58667,-0.48 3.36,-0.48 2.49293,0 3.36,0.10428 3.36,0.40411 0,0.22227 -0.324,0.54627 -0.72,0.72 -1.34776,0.5913 -1.48276,1.84927 -1.50194,13.99589 -0.0174,11.00801 -0.041,11.44 -0.62431,11.44 -0.40403,0 -3.36602,-3.30889 -8.88,-9.91997 z m 26.44382,9.61158 c -5.49679,-0.71975 -9.49695,-3.45731 -11.62272,-7.95414 -0.94417,-1.9973 -1.01021,-2.36831 -1.007,-5.65747 0.003,-3.17099 0.0914,-3.70904 0.89053,-5.4265 1.24517,-2.67604 2.26506,-3.90042 4.39662,-5.27811 2.68525,-1.73556 5.22271,-2.38426 9.265,-2.36859 2.79864,0.0108 6.75723,0.63339 7.19137,1.13093 0.0491,0.0563 0.15494,0.93027 0.23526,1.94227 0.13179,1.66065 0.0852,1.84 -0.47775,1.84 -0.34308,0 -1.17726,-0.57034 -1.85375,-1.26741 -2.14904,-2.21444 -5.11797,-2.69376 -8.93513,-1.44252 -4.68151,1.53456 -7.25534,8.30302 -5.58947,14.69874 1.42607,5.47505 4.89379,8.33306 10.06947,8.29901 2.74848,-0.0181 4.05603,-0.68818 4.34463,-2.2266 0.31177,-1.66186 -0.0115,-4.21949 -0.61797,-4.88966 -1.03329,-1.14178 -0.67507,-1.33156 2.51334,-1.33156 3.10012,0 3.67554,0.26434 2.48,1.13927 -0.47195,0.34539 -0.56,0.93979 -0.56,3.78043 0,3.8405 0.15681,3.62581 -3.27033,4.47735 -2.4679,0.6132 -5.29999,0.81635 -7.4521,0.53456 z m 31.20243,-0.0116 c -0.352,-0.15126 -4.42,-0.28514 -9.04,-0.29751 -7.3041,-0.0196 -8.4,-0.0862 -8.4,-0.51041 0,-0.26836 0.35124,-0.62147 0.78054,-0.78468 1.53649,-0.58418 1.5686,-0.90387 1.37611,-13.69992 -0.16194,-10.76494 -0.23535,-12.01566 -0.73784,-12.5709 -0.3069,-0.33912 -0.75168,-0.61658 -0.98841,-0.61658 -0.23672,0 -0.4304,-0.2054 -0.4304,-0.45645 0,-0.38032 1.40081,-0.47837 8.4,-0.58795 4.62,-0.0723 8.724,-0.24373 9.12,-0.38088 0.71404,-0.2473 0.72,-0.2239 0.72,2.82795 0,3.02729 -0.0124,3.07733 -0.76118,3.07733 -0.54518,0 -0.87477,-0.27425 -1.1615,-0.96648 -0.22018,-0.53157 -0.8247,-1.32357 -1.34338,-1.76 -0.88847,-0.7476 -1.16385,-0.79352 -4.75849,-0.79352 H 260.48 v 5.6 5.6 h 3.88221 3.88222 l 1.0563,-1.12 c 1.82808,-1.93834 2.05927,-1.65094 2.05927,2.56 0,3.45838 -0.0383,3.68 -0.63571,3.68 -0.41469,0 -0.78684,-0.36157 -1.07043,-1.04 -0.75423,-1.80436 -1.22438,-1.98898 -5.38291,-2.11371 L 260.48,118.9726 v 5.9537 5.95371 h 4.33589 c 4.79589,0 5.60367,-0.22649 6.95189,-1.94921 0.58051,-0.74175 0.95008,-0.94921 1.42332,-0.79901 0.6379,0.20246 0.63785,0.20851 -0.0214,2.91555 -0.36334,1.49197 -0.73917,2.70255 -0.83516,2.69017 -0.096,-0.0124 -0.46253,-0.14624 -0.81453,-0.2975 z M 18.56,132.69137 c 0,-0.23575 0.356028,-0.59085 0.791172,-0.78912 0.435144,-0.19826 0.888949,-0.75005 1.008455,-1.2262 0.119505,-0.47615 0.136335,-6.2467 0.0374,-12.82345 C 20.204839,105.07708 20.149741,104.66457 18.568525,104.16271 18.211836,104.0495 17.92,103.67858 17.92,103.33844 c 0,-0.59543 0.312473,-0.6186 8.4,-0.6228 4.62,-0.003 8.724,-0.0912 9.12,-0.19733 0.705888,-0.18917 0.72,-0.13891 0.72,2.56437 0,2.64977 -0.0281,2.75685 -0.72,2.745 -0.453648,-0.008 -0.956989,-0.38912 -1.360624,-1.03086 -1.000122,-1.5901 -1.823334,-1.84851 -5.599376,-1.75766 l -3.36,0.0808 -0.08738,5.68 -0.08738,5.68 h 3.54193 c 3.3339,0 3.58806,-0.0461 4.327382,-0.78546 0.432,-0.432 0.785456,-0.936 0.785456,-1.12 0,-0.184 0.288,-0.33454 0.64,-0.33454 0.601213,0 0.64,0.21333 0.64,3.52 0,3.26575 -0.04467,3.52 -0.618435,3.52 -0.340141,0 -0.708653,-0.28425 -0.818915,-0.63165 -0.110263,-0.34742 -0.571386,-0.92342 -1.02472,-1.28 -0.707367,-0.55642 -1.294548,-0.64835 -4.141085,-0.64835 H 24.96 v 6.02422 c 0,5.88329 0.01732,6.04049 0.740624,6.72 0.407344,0.38268 0.911344,0.69578 1.12,0.69578 0.208657,0 0.379376,0.216 0.379376,0.48 0,0.40296 -0.693333,0.48 -4.32,0.48 -3.396587,0 -4.32,-0.0916 -4.32,-0.42864 z m 21.44,0.0747 c 0,-0.19467 0.368611,-0.64389 0.819136,-0.99828 l 0.819133,-0.64433 -0.09913,-10.76172 c -0.101677,-11.03755 -0.234336,-12.20172 -1.390394,-12.20172 -0.257808,0 -0.468742,-0.22767 -0.468742,-0.50592 0,-0.44619 0.670474,-0.49341 5.68,-0.4 5.618883,0.10478 5.698832,0.11625 7.430131,1.06592 2.460919,1.34989 3.651559,3.31701 3.645277,6.02255 -0.007,3.01149 -1.31335,4.95646 -4.369085,6.50492 l -1.538605,0.77967 1.050372,1.34643 c 5.086028,6.51958 7.045321,8.84343 7.606204,9.02144 0.360637,0.11447 0.655706,0.41441 0.655706,0.66655 0,0.36885 -0.657581,0.45844 -3.365082,0.45844 h -3.365084 l 0.07072,-0.92813 c 0.0389,-0.51047 -0.07761,-1.12247 -0.258903,-1.36 -6.122349,-8.02155 -6.8764,-8.91187 -7.547789,-8.91187 -0.197302,0 -0.273827,1.68653 -0.20455,4.50804 0.109546,4.46159 0.119757,4.51585 0.990688,5.26465 0.484,0.41614 0.88,0.90751 0.88,1.09196 0,0.21347 -1.279258,0.33535 -3.52,0.33535 -2.358394,0 -3.52,-0.11681 -3.52,-0.35395 z m 9.028864,-12.43842 c 0.125878,-0.004 0.738298,-0.45492 1.360938,-1.0016 1.56623,-1.37517 2.278995,-3.81298 1.7864,-6.10987 -0.465111,-2.16875 -1.377079,-3.58977 -2.709607,-4.2221 -1.291808,-0.613 -3.180617,-0.67234 -3.630733,-0.11406 -0.177379,0.22 -0.383126,2.94963 -0.457219,6.06586 -0.131289,5.52188 -0.11799,5.66851 0.523322,5.76988 0.36192,0.0572 1.162035,-0.005 1.778035,-0.13823 0.616,-0.13324 1.222989,-0.24568 1.348864,-0.24988 z M 124.16,132.78466 c 0,-0.18445 0.396,-0.67563 0.88,-1.09152 0.87558,-0.75237 0.88055,-0.78004 0.99046,-5.50465 0.0608,-2.61167 0.009,-7.52048 -0.11496,-10.90848 l -0.22542,-6.16 H 122.824 c -3.29086,0 -3.98078,0.26694 -4.61539,1.78575 -0.30293,0.72502 -0.6717,1.09425 -1.0929,1.09425 -0.58379,0 -0.63571,-0.21939 -0.63571,-2.68631 v -2.6863 l 1.2,0.27867 c 1.61462,0.37495 18.85285,0.37177 20.16211,-0.004 L 138.88,106.6044 v 2.69767 c 0,2.66417 -0.01,2.69766 -0.8,2.69766 -0.59259,0 -0.8,-0.1697 -0.8,-0.65455 0,-0.36 -0.35346,-1.008 -0.78546,-1.44 -0.71612,-0.71614 -1.03652,-0.78546 -3.63003,-0.78546 h -2.84459 l -0.20996,4.85087 c -0.31301,7.23166 -0.25082,14.98914 0.1312,16.36481 0.21644,0.77943 0.61772,1.34333 1.11821,1.57137 0.42935,0.19562 0.78063,0.54856 0.78063,0.78431 0,0.33437 -0.84452,0.42864 -3.84,0.42864 -2.46384,0 -3.84,-0.12019 -3.84,-0.33535 z m 29.76,-0.14465 c 0,-0.264 0.144,-0.48 0.32,-0.48 0.176,0 0.608,-0.288 0.96,-0.64 0.61559,-0.61559 0.63987,-1.06419 0.63648,-11.76 -0.002,-6.116 -0.0959,-11.67931 -0.20884,-12.36291 -0.15077,-0.91277 -0.44679,-1.38026 -1.11445,-1.76 -1.95947,-1.11449 -1.21955,-1.31709 4.81006,-1.31709 6.80142,0 8.23176,0.33443 10.62222,2.48366 1.61689,1.45373 2.53453,3.48749 2.53453,5.61729 0,2.78672 -2.01956,5.67444 -4.9822,7.12392 -1.56271,0.76457 -1.70991,0.91864 -1.31642,1.37797 0.24366,0.28444 2.09267,2.60516 4.1089,5.15716 2.01623,2.552 4.12574,5.0267 4.6878,5.49934 0.56205,0.47263 1.02192,1.01263 1.02192,1.2 0,0.22134 -1.30293,0.34066 -3.72,0.34066 h -3.72 l 0.18895,-0.94475 c 0.16007,-0.80038 -0.0996,-1.32601 -1.69917,-3.44 -3.22668,-4.26424 -6.23201,-7.88972 -6.64978,-8.02197 -0.30836,-0.0976 -0.4,1.02144 -0.4,4.88467 v 5.01128 l 0.96,0.96 c 0.528,0.528 0.96,1.09292 0.96,1.25538 0,0.16476 -1.76889,0.29539 -4,0.29539 -3.34222,0 -4,-0.0789 -4,-0.48 z m 10.01028,-13.71109 c 1.44568,-0.60521 3.35073,-2.82245 3.60931,-4.20078 0.5661,-3.01759 -0.41382,-6.63774 -2.14701,-7.93175 -1.21821,-0.90953 -3.33664,-1.29641 -4.3751,-0.799 l -0.85748,0.41072 -0.0866,6.47595 -0.0866,6.47595 h 1.4569 c 0.8013,0 1.92028,-0.19399 2.48663,-0.43109 z M 177.6,132.67424 c 0,-0.24517 0.20949,-0.52615 0.46554,-0.62441 0.81362,-0.31221 1.80257,-2.65855 5.95553,-14.12982 2.23011,-6.16 4.17833,-11.2 4.32938,-11.2 0.15104,0 1.67686,3.96 3.39071,8.8 1.71384,4.84 3.65316,10.3105 4.30959,12.15667 0.65643,1.84617 1.52555,3.68872 1.93138,4.09455 0.40583,0.40583 0.73787,0.87532 0.73787,1.04332 0,0.17455 -1.44,0.30546 -3.36,0.30546 -2.77333,0 -3.36,-0.0838 -3.36,-0.48 0,-0.264 0.14126,-0.48 0.3139,-0.48 0.73463,0 0.67318,-1.6765 -0.1523,-4.15521 l -0.86056,-2.58402 -3.89052,0.0896 -3.89052,0.0896 -0.53435,1.6 c -0.69938,2.09419 -0.75393,4.59551 -0.10565,4.84428 0.264,0.1013 0.48,0.38478 0.48,0.62995 0,0.348 -0.63164,0.44577 -2.88,0.44577 -2.24836,0 -2.88,-0.0978 -2.88,-0.44577 z m 11.4692,-13.55423 c -0.89996,-2.596 -1.67374,-4.76505 -1.71951,-4.8201 -0.11622,-0.13979 -3.02969,8.65007 -3.02969,9.14047 0,0.2928 0.8535,0.39963 3.19275,0.39963 h 3.19274 z"
       id="path1580"
       sodipodi:nodetypes="ssssscsscssscsssssssssssssssssssssscsssscscsssssscscssssccsssscccssscccssssssccssssscsssssssssscsscsssccssssssssssssscssscsssssssssssssssscssssssssssscsscssssscccssssssscccsssssscsssssssssssssssccsccsssssssscssssscccsssssscccsssssssssssssssssssssssssssscsssssscsssssssssssscssssssssssssssssscsscssscsscssscssssscccsscsssssssssssssscssccccsssssssssssssccssssssscccscscsssscsccsssssssscssssccsssssssssssscsssssssssssssssssssssssssssssssscccccssssscccssssssscssssscsscsccccssssssssscsssssccsscssssssscsssscscssssssscsssssssccscccsssscsccssssscsssssccssscssssssssssscscsscsssscssscccsccsssssssssssscccsssssssssscs" /><path
       d="m 109.27872,94.0808 c 2.464,-0.708269 6.136,-1.71512 8.16,-2.237447 2.024,-0.522326 4.8544,-1.44767 6.28978,-2.056323 1.43537,-0.608653 4.81937,-1.699399 7.52,-2.423882 5.70867,-1.531437 6.67899,-2.040397 15.04801,-7.893018 l 5.6578,-3.956608 h 2.76889 c 1.73658,0 3.7432,-0.245747 5.3822,-0.659152 l 2.61332,-0.659152 4.48,-4.430154 4.48,-4.430154 4.96,-1.162685 4.96,-1.162688 3.68,-5.313904 c 3.62662,-5.236826 3.75895,-5.381706 9.1226,-9.98801 2.99343,-2.570755 5.9628,-4.948816 6.5986,-5.284573 0.85747,-0.452826 1.55921,-1.309594 2.7174,-3.317738 1.08065,-1.873715 1.97057,-2.989379 2.89034,-3.623534 0.73092,-0.503949 1.59492,-1.266317 1.92,-1.694154 0.57405,-0.755488 0.64712,-0.767174 2.53841,-0.405993 2.90266,0.554323 5.14429,2.620737 7.65265,7.054459 1.26384,2.233939 2.10691,3.394384 2.46693,3.395593 0.30081,9.6e-4 1.63213,0.163239 2.95848,0.360509 l 2.41155,0.358676 1.84152,2.484633 c 1.01284,1.366548 2.56302,2.989674 3.44486,3.606944 0.88183,0.617274 4.19383,2.227895 7.36,3.579159 3.16616,1.351261 8.13046,3.614135 11.03178,5.028605 l 5.27511,2.571767 -0.92193,0.735126 c -0.50706,0.404317 -2.95865,1.667667 -5.44797,2.80744 l -4.52604,2.072317 -3.75592,-0.580704 c -2.78128,-0.430016 -4.49263,-0.521843 -6.5949,-0.353875 -1.56143,0.124755 -4.18548,0.127206 -5.83122,0.0054 l -2.99225,-0.221386 -2.40245,2.368996 c -2.21341,2.182576 -2.68944,2.484352 -6.0494,3.834912 l -3.64693,1.465917 -4.59398,-0.501511 c -4.43365,-0.484006 -4.67482,-0.479331 -6.91061,0.133981 -2.13011,0.58433 -2.47121,0.802301 -4.23663,2.707331 -1.43783,1.551546 -3.26832,2.918861 -7.28905,5.444701 -2.95298,1.855076 -5.54953,3.372861 -5.77011,3.372861 -0.22058,0 -2.19651,-0.52095 -4.39095,-1.157667 l -3.98989,-1.157627 -3.52,0.382832 -3.52,0.382832 -4.36512,2.817776 -4.36511,2.817776 -3.89588,0.418877 c -3.68157,0.395834 -4.09727,0.379629 -7.55683,-0.294605 l -3.66095,-0.713485 -4.47779,2.413047 -4.47779,2.413043 -5.52026,0.471027 c -7.07806,0.603946 -14.41749,1.054359 -20.88027,1.281393 l -5.12,0.179865 z M 82.878717,90.161356 c 0.616,-0.188643 4.144,-1.322768 7.84,-2.520275 3.696,-1.197507 7.44,-2.335091 8.320002,-2.527964 0.88,-0.19287 2.136911,-0.703683 2.793141,-1.135137 0.65623,-0.431453 1.54968,-0.784458 1.98544,-0.784458 1.16304,0 4.92762,-1.438239 5.72929,-2.188845 0.87762,-0.821724 2.90363,-1.688351 7.69203,-3.290272 2.44884,-0.819238 4.49681,-1.746877 5.76,-2.609008 1.07806,-0.735778 3.9637,-2.152957 6.41254,-3.149283 3.57193,-1.453267 4.54261,-1.983613 4.90842,-2.681805 0.33519,-0.639722 1.46246,-1.35239 4.25481,-2.68992 3.09012,-1.480157 3.97454,-2.062199 4.74072,-3.119881 0.53318,-0.736032 2.45562,-2.34688 4.43026,-3.712195 1.91859,-1.32657 3.97227,-2.966983 4.56371,-3.645367 0.59144,-0.678385 1.90276,-2.140273 2.91403,-3.248641 l 1.83868,-2.015216 1.07945,0.947769 c 0.59369,0.521271 1.6505,1.052068 2.34846,1.179546 0.69796,0.127479 1.62902,0.474688 2.06902,0.771578 1.55764,1.051014 2.78249,1.253548 8.48,1.402208 5.48954,0.143235 7.2,0.33826 7.2,0.820941 0,0.119331 -2.196,1.53217 -4.88,3.139638 -24.92379,14.927066 -54.93467,25.794929 -83.600003,30.274133 -2.816,0.440025 -5.768,0.873261 -6.56,0.962745 -1.4269,0.161223 -1.42981,0.159581 -0.32,-0.180291 z m -15.52,-5.817507 c 6.64481,-2.178407 12.71965,-4.363527 13.104,-4.713511 0.1672,-0.152249 0.77205,-0.276816 1.3441,-0.276816 0.61756,0 1.15566,-0.206502 1.32457,-0.508317 0.15645,-0.279571 0.73311,-0.539376 1.28146,-0.577337 0.54835,-0.03796 1.2555,-0.295642 1.57144,-0.572621 0.31594,-0.276976 1.49568,-0.661722 2.62166,-0.854989 1.12598,-0.193267 2.29282,-0.534845 2.59299,-0.759066 0.30017,-0.224217 1.16452,-0.87567 1.92078,-1.44767 1.14594,-0.866733 1.65498,-1.04 3.0554,-1.04 1.57786,0 1.72028,-0.06762 2.33431,-1.108317 0.380472,-0.644851 1.137492,-1.310362 1.810313,-1.591485 0.63601,-0.265744 1.51221,-0.763059 1.9471,-1.105149 0.4349,-0.342086 1.3512,-0.716672 2.03623,-0.832406 0.68503,-0.115735 1.32427,-0.415677 1.42054,-0.666535 0.0963,-0.25086 0.40571,-0.456108 0.68766,-0.456108 0.28195,0 1.19573,-0.576001 2.03063,-1.280001 0.93935,-0.79207 1.84248,-1.28 2.3692,-1.28 0.61962,0 0.98449,-0.257776 1.34118,-0.947555 0.26951,-0.521155 1.1372,-1.326838 1.92822,-1.790406 0.79102,-0.463568 1.43822,-1.040103 1.43822,-1.281188 0,-0.896115 1.11017,-1.101161 2.24044,-0.413801 0.72386,0.440205 1.3691,0.591043 1.99382,0.466099 0.63839,-0.12768 1.42169,0.06766 2.53638,0.632512 1.47409,0.746979 1.7407,0.785741 3.10105,0.450883 1.26088,-0.310371 1.87202,-0.268173 3.99925,0.276157 2.4234,0.620115 3.02521,0.868359 2.74239,1.131232 -0.42799,0.397824 -11.07861,5.544032 -14.88467,7.192036 -12.27491,5.314973 -26.337613,9.818362 -39.101193,12.521629 -5.33548,1.130029 -13.926682,2.573712 -15.096384,2.536826 -0.446096,-0.01408 1.492914,-0.780909 4.308914,-1.704096 z M 48.638719,81.911445 c 1.848,-0.521176 3.984554,-1.077673 4.747898,-1.236655 0.763344,-0.158985 1.548144,-0.449309 1.744,-0.645164 0.195856,-0.195856 0.651302,-0.360682 1.012101,-0.366279 0.3608,-0.0056 0.935524,-0.2216 1.277162,-0.480001 0.341638,-0.258403 1.150217,-0.469824 1.796844,-0.469824 0.702621,0 1.512944,-0.265289 2.013863,-0.659312 0.460999,-0.362621 1.3397,-0.740694 1.952672,-0.840166 0.659043,-0.10695 1.306228,-0.473495 1.583688,-0.896947 0.36402,-0.555564 0.898111,-0.764617 2.3825,-0.932557 1.45974,-0.165152 2.20439,-0.450806 3.14128,-1.205025 1.22534,-0.986425 5.37368,-3.145993 6.04318,-3.145993 0.19429,0 0.69145,-0.36 1.10481,-0.8 0.41336,-0.44 0.97846,-0.800436 1.25578,-0.800967 0.27732,-6.4e-4 1.44022,-0.567277 2.58422,-1.259437 1.892481,-1.145014 2.1377,-1.21664 2.72,-0.794512 0.352001,0.255178 0.856,0.549504 1.120001,0.654061 1.995639,0.790362 3.17049,1.477475 3.97382,2.324087 l 0.933809,0.984131 -2.45372,1.118199 C 76.889668,77.327461 59.707321,81.712482 47.518718,82.681039 l -2.24,0.177998 z"
       style="font-variation-settings:normal;display:inline;vector-effect:none;fill:#004990;fill-opacity:1;stroke-width:0.32;stroke-linecap:butt;stroke-linejoin:miter;stroke-miterlimit:4;stroke-dasharray:none;stroke-dashoffset:0;stroke-opacity:1;-inkscape-stroke:none;stop-color:#000000"
       id="path1927"
       inkscape:label="path1927"
       sodipodi:nodetypes="ssssscsscccccsssssssscscsssscsscssccsscsssssscccccsscccsscsssssssssssssssscssssssssssssssssssssssscssssssssssssssssssssssssssssscsssscsscs" /><path
       style="fill:#000000;stroke-width:0.0189154"
       d="m 73.472291,94.046938 c -0.106228,-0.07003 -0.103915,-0.04609 -0.10464,-1.081898 -5.88e-4,-0.855663 -0.0039,-0.959157 -0.03059,-0.969413 -0.01646,-0.0063 -0.12507,-0.01148 -0.241364,-0.01148 -0.200229,0 -0.214193,-0.0025 -0.263268,-0.04806 -0.0692,-0.06417 -0.07383,-0.202319 -0.0092,-0.2737 0.02347,-0.0259 0.123399,-0.144983 0.222074,-0.264622 0.09868,-0.11964 0.188002,-0.226982 0.198506,-0.238538 0.106162,-0.116799 0.17206,-0.193288 0.291604,-0.338472 0.204011,-0.247768 0.285086,-0.327832 0.345383,-0.341076 0.118893,-0.02611 0.154029,-4.1e-4 0.409974,0.299906 0.134602,0.157938 0.260571,0.305263 0.279929,0.327388 0.01936,0.02213 0.06925,0.0814 0.11086,0.131725 0.04161,0.05032 0.14701,0.175497 0.234212,0.278162 0.132248,0.155698 0.160042,0.199887 0.167535,0.266369 0.0075,0.06651 5.39e-4,0.08973 -0.04201,0.140308 l -0.051,0.0606 H 74.7562 c -0.212084,0 -0.235936,0.0034 -0.253676,0.03659 -0.01275,0.02383 -0.01958,0.368802 -0.01958,0.98949 0,0.941309 -4.82e-4,0.953421 -0.03965,0.995461 -0.02181,0.02339 -0.06066,0.05055 -0.08635,0.06031 -0.02569,0.0098 -0.222772,0.0177 -0.437966,0.01765 -0.354891,-1.13e-4 -0.39642,-0.0034 -0.446733,-0.03668 z m 2.82195,-3.668108 c -0.0416,-0.0096 -0.432284,-0.321632 -0.630669,-0.503748 -0.02266,-0.02081 -0.07839,-0.06894 -0.123826,-0.106967 -0.04544,-0.03802 -0.103896,-0.08748 -0.129905,-0.109909 -0.02601,-0.02243 -0.06857,-0.0586 -0.09458,-0.08038 -0.21928,-0.183642 -0.281979,-0.247541 -0.293251,-0.298863 -0.01383,-0.06296 0.01838,-0.180922 0.05541,-0.202913 0.01327,-0.0079 0.07009,-0.05441 0.126259,-0.103387 0.05617,-0.04898 0.127664,-0.111277 0.158875,-0.138435 0.03121,-0.02716 0.09505,-0.08072 0.141865,-0.119015 0.04682,-0.0383 0.08938,-0.07464 0.09458,-0.08077 0.0052,-0.0061 0.152989,-0.132828 0.328415,-0.281565 0.280262,-0.237622 0.328698,-0.271529 0.399242,-0.27948 0.06941,-0.0078 0.08898,-0.0013 0.144469,0.04829 l 0.06419,0.05734 0.0066,0.236427 c 0.0065,0.232736 0.0074,0.236608 0.05297,0.248057 0.02549,0.0064 0.457039,0.01077 0.959005,0.0097 0.653392,-0.0014 0.926284,0.0043 0.960605,0.01993 0.101223,0.04612 0.110937,0.09241 0.110937,0.528463 0,0.431626 -0.0083,0.475524 -0.102135,0.536976 -0.04202,0.02754 -0.154982,0.03156 -1.008211,0.03591 l -0.960886,0.0049 -0.01009,0.226984 c -0.01128,0.253646 -0.03448,0.313186 -0.135844,0.348519 -0.03207,0.01118 -0.05918,0.01933 -0.06023,0.0181 -10e-4,-0.0012 -0.02526,-0.0076 -0.05382,-0.01419 z m -2.491037,-0.505317 c -0.139792,-0.03786 -0.252247,-0.127414 -0.315461,-0.251232 -0.183525,-0.35948 0.07607,-0.761901 0.475072,-0.736454 0.213617,0.01362 0.368928,0.129751 0.444895,0.332651 0.04607,0.123028 0.04693,0.188051 0.0044,0.323465 -0.07867,0.250132 -0.354629,0.400413 -0.608852,0.33157 z"
       id="path424"
       sodipodi:nodetypes="cscscssssssssssscsssscccccssscscssscscccssscscscsscccsssscss" /><path
       style="fill:#000000;stroke-width:0.0299254"
       d="m 212.79318,84.15496 c 0.16806,0.110745 0.16441,0.07293 0.16555,1.711639 9.3e-4,1.353717 0.006,1.517451 0.0484,1.533677 0.0261,0.01 0.19787,0.01816 0.38186,0.01816 0.31678,0 0.33886,0.004 0.4165,0.07603 0.10948,0.101522 0.11675,0.320083 0.0142,0.433012 -0.0372,0.04098 -0.19522,0.229373 -0.35133,0.41865 -0.15615,0.189279 -0.29743,0.359101 -0.31406,0.377383 -0.16795,0.184784 -0.27221,0.305795 -0.46133,0.535486 -0.32276,0.391986 -0.45103,0.518652 -0.54642,0.539605 -0.1881,0.04131 -0.24368,6.49e-4 -0.64861,-0.474471 -0.21295,-0.249869 -0.41224,-0.482947 -0.44287,-0.51795 -0.0307,-0.03501 -0.10964,-0.128781 -0.17539,-0.208398 -0.0658,-0.07961 -0.23258,-0.277648 -0.37053,-0.440071 -0.20923,-0.246325 -0.2532,-0.316235 -0.26505,-0.421414 -0.0111,-0.105223 -8.5e-4,-0.141959 0.0665,-0.221977 l 0.0807,-0.09587 h 0.37035 c 0.33554,0 0.37327,-0.0054 0.40134,-0.05789 0.0201,-0.0377 0.031,-0.58347 0.031,-1.56544 0,-1.489221 7.6e-4,-1.50838 0.0626,-1.57489 0.0345,-0.03702 0.096,-0.07989 0.13669,-0.0954 0.0407,-0.01582 0.35244,-0.028 0.6929,-0.028 0.56146,1.74e-4 0.62716,0.0047 0.70675,0.05806 z m -4.46452,5.803198 c 0.0658,0.01519 0.68392,0.508844 0.99777,0.796963 0.0359,0.03292 0.12403,0.109068 0.1959,0.169229 0.0718,0.06015 0.16436,0.1384 0.20551,0.173884 0.0411,0.03549 0.10853,0.09271 0.14967,0.127167 0.34691,0.290534 0.44611,0.391626 0.46394,0.472821 0.0218,0.09961 -0.0291,0.286231 -0.0876,0.321022 -0.021,0.0125 -0.1109,0.08608 -0.19975,0.163565 -0.0889,0.07749 -0.20197,0.176048 -0.25134,0.219014 -0.0494,0.04297 -0.1503,0.127704 -0.22445,0.18829 -0.074,0.06059 -0.14144,0.118085 -0.14966,0.127783 -0.008,0.0097 -0.24203,0.210143 -0.51957,0.445455 -0.44339,0.375934 -0.52003,0.429577 -0.63163,0.442156 -0.10979,0.01234 -0.1408,0.0021 -0.22856,-0.0764 l -0.10157,-0.09072 -0.0111,-0.374043 c -0.0111,-0.368204 -0.0111,-0.37433 -0.0839,-0.392443 -0.0403,-0.01013 -0.72307,-0.01704 -1.51722,-0.01535 -1.03371,0.0022 -1.46544,-0.0068 -1.51973,-0.03153 -0.16016,-0.07296 -0.17552,-0.146198 -0.17552,-0.836064 0,-0.682861 0.0127,-0.752311 0.1616,-0.849532 0.0664,-0.04357 0.24518,-0.04993 1.59505,-0.05681 l 1.52018,-0.0078 0.016,-0.359104 c 0.0179,-0.401285 0.0546,-0.495482 0.21492,-0.551381 0.0508,-0.01769 0.0937,-0.03058 0.0952,-0.02863 0.002,0.0019 0.04,0.01202 0.0851,0.02245 z m 3.941,0.799446 c 0.22115,0.0599 0.39907,0.201577 0.49908,0.397466 0.29035,0.568721 -0.1204,1.205379 -0.7516,1.16512 -0.33796,-0.02155 -0.58367,-0.205275 -0.70386,-0.526277 -0.0729,-0.194638 -0.0742,-0.297509 -0.006,-0.511743 0.12451,-0.395726 0.56105,-0.633481 0.96326,-0.524566 z"
       id="path424-1"
       sodipodi:nodetypes="cscscssssssssssscsssscccccssscscssscscccssscscscsscccsssscss" /></g></svg>
