<?xml version="1.0" encoding="UTF-8" standalone="no"?>
<!-- Created with Inkscape (http://www.inkscape.org/) -->

<svg
   version="1.1"
   id="svg1099"
   width="75.949432"
   height="105.66325"
   viewBox="0 0 75.949434 105.66324"
   sodipodi:docname="FRCC Finals.svg"
   xml:space="preserve"
   inkscape:version="1.2.2 (732a01da63, 2022-12-09)"
   xmlns:inkscape="http://www.inkscape.org/namespaces/inkscape"
   xmlns:sodipodi="http://sodipodi.sourceforge.net/DTD/sodipodi-0.dtd"
   xmlns="http://www.w3.org/2000/svg"
   xmlns:svg="http://www.w3.org/2000/svg"><defs
     id="defs1103"><rect
       x="239.35565"
       y="26.162951"
       width="133.64317"
       height="63.993164"
       id="rect513" /><rect
       x="209.3036"
       y="32.173359"
       width="116.75355"
       height="72.581543"
       id="rect560" /><rect
       x="209.3036"
       y="32.173359"
       width="80.810455"
       height="54.17868"
       id="rect560-7" /><rect
       x="239.35565"
       y="26.162951"
       width="133.64317"
       height="63.993164"
       id="rect513-5" /></defs><sodipodi:namedview
     id="namedview1101"
     pagecolor="#505050"
     bordercolor="#eeeeee"
     borderopacity="1"
     inkscape:showpageshadow="0"
     inkscape:pageopacity="0"
     inkscape:pagecheckerboard="0"
     inkscape:deskcolor="#505050"
     showgrid="false"
     inkscape:zoom="4"
     inkscape:cx="8.8750001"
     inkscape:cy="60.500001"
     inkscape:window-width="1920"
     inkscape:window-height="1009"
     inkscape:window-x="-8"
     inkscape:window-y="-8"
     inkscape:window-maximized="1"
     inkscape:current-layer="g1105" /><g
     inkscape:groupmode="layer"
     inkscape:label="Image"
     id="g1105"
     transform="translate(-224.69553,-0.67712335)"><path
       style="fill:#000000;stroke-width:0.510618"
       d="m 260.55564,106.08127 c 0.16156,-0.16156 0.085,-1.02171 -0.1702,-1.91145 -0.58306,-2.033 -0.58157,-8.161791 0.003,-10.676901 0.2432,-1.04709 1.74664,-4.089827 3.34098,-6.761667 3.82972,-6.41796 5.39339,-10.40158 5.74931,-14.64696 0.16116,-1.92225 0.44625,-3.494996 0.63354,-3.494996 0.49721,0 2.27177,2.509896 3.56024,5.035516 1.33431,2.61546 3.09976,9.24567 3.09976,11.64125 0,2.79158 1.3368,2.06732 3.27009,-1.77169 2.9909,-5.93914 3.53272,-8.60394 3.23187,-15.895164 -0.14555,-3.527629 -0.54571,-7.172378 -0.88925,-8.099446 -1.85653,-5.01006 2.70014,-0.119954 5.85285,6.281136 1.24488,2.527558 2.67852,6.031324 3.18586,7.786144 0.50733,1.75482 1.15221,3.11473 1.43305,3.02202 0.80197,-0.26475 1.35065,-6.29434 1.00624,-11.057903 -0.53168,-7.353657 -2.98138,-16.883338 -5.2172,-20.295632 -0.75355,-1.150061 -0.74356,-1.156083 1.9821,-1.194631 1.50671,-0.0213 4.29175,-0.0059 6.18899,0.03435 2.71897,0.05761 3.51508,-0.09777 3.7591,-0.733686 0.17028,-0.443727 0.0143,-1.162576 -0.34659,-1.597441 -1.26898,-1.529024 -10.47622,-7.283681 -14.01068,-8.756881 -2.96619,-1.23634 -3.87838,-1.918062 -5.36149,-4.006863 -5.53839,-7.8003 -11.93895,-12.123166 -18.89286,-12.760022 -4.93876,-0.452305 -5.65912,-0.752537 -9.76493,-4.069885 C 245.52743,6.7597486 236.72948,0.67712335 235.6043,0.67712335 c -1.21705,0 -2.73477,1.21290525 -2.76113,2.20659825 -0.009,0.330985 -0.58113,1.750685 -1.27188,3.154884 -2.17208,4.4155364 -1.48229,8.6421814 1.79075,10.9727964 1.65042,1.175198 2.03598,2.910751 0.75578,3.402011 -0.43108,0.165421 -1.76862,-0.221689 -2.97232,-0.860246 -2.6653,-1.413942 -4.33186,-1.124154 -5.56782,0.968156 -1.23437,2.089627 -1.16216,5.91056 0.14645,7.748322 0.56918,0.799346 2.34996,2.196243 3.95728,3.104215 3.70212,2.091314 9.64481,8.051315 11.94602,11.980787 4.7126,8.047136 7.97101,20.996103 9.36514,37.217255 0.43366,5.0458 1.12223,10.61331 1.53015,12.372247 0.98363,4.24132 3.26816,9.186991 5.3267,11.531531 1.65374,1.8835 2.14015,2.17205 2.70661,1.60558 z m -4.9329,-16.727068 c -0.4534,-1.3575 -1.06388,-5.37862 -1.35664,-8.9358 -0.29275,-3.55719 -0.89308,-9.11007 -1.33406,-12.339723 -0.44097,-3.229658 -0.77121,-6.430809 -0.73385,-7.113663 0.0374,-0.682859 -0.3683,-1.716861 -0.90148,-2.29778 -1.83834,-2.002975 -3.11943,-5.076706 -3.11943,-7.484479 0,-1.832587 -0.29624,-2.678073 -1.32861,-3.792033 -1.123,-1.21173 -1.27957,-1.740344 -1.01168,-3.415637 0.30253,-1.891932 0.23599,-2.015864 -1.46381,-2.726083 -1.0619,-0.44369 -2.59329,-1.843937 -3.79358,-3.468721 -2.5187,-3.409439 -5.88529,-6.397327 -9.03129,-8.015373 l -2.42458,-1.247005 2.25047,-0.413237 c 1.23776,-0.227281 3.49498,-0.322825 5.01604,-0.212319 3.21474,0.233549 4.35611,1.261113 4.88626,4.399047 0.49872,2.951929 1.72162,3.827341 4.77983,3.421655 2.48767,-0.330002 2.50199,-0.323545 2.82127,1.272882 0.1765,0.88251 0.32091,2.716648 0.32091,4.075861 0,2.686496 0.77577,3.528463 3.25104,3.528463 1.3986,0 2.13731,1.370274 1.61903,3.003238 -0.4377,1.379053 0.77855,1.65879 3.8021,0.874492 2.5327,-0.656972 2.57801,-0.648797 2.25305,0.40665 -0.70868,2.301794 -1.8179,3.904725 -3.80967,5.50536 -1.89781,1.525123 -1.99749,1.721547 -1.1778,2.320921 1.17066,0.856004 2.20303,0.825909 5.07111,-0.147829 1.30022,-0.441434 2.50451,-0.662144 2.67619,-0.490459 0.71322,0.713215 -1.66446,3.803246 -3.85221,5.006347 l -2.3249,1.278526 1.56479,0.343682 c 2.03586,0.447153 5.06206,-0.389683 7.25204,-2.005396 0.95989,-0.708186 1.8892,-1.287614 2.06513,-1.287614 0.56912,0 -0.30271,4.802769 -1.17076,6.449553 -0.99978,1.896715 -3.56224,4.158384 -5.16806,4.561414 -1.0363,0.2601 -1.14441,0.59079 -1.12675,3.44652 0.0143,2.30696 -0.4394,4.46656 -1.68226,8.00805 -1.43171,4.07964 -1.65866,5.32482 -1.43005,7.84597 0.30758,3.392007 -0.17769,3.267707 -1.38779,-0.35548 z m 27.811,-42.381427 c -1.32094,-1.251711 -2.14964,-2.562819 -2.37325,-3.754718 -0.18896,-1.007273 -0.78424,-2.272081 -1.32285,-2.810685 -1.42741,-1.427411 -1.0977,-4.862534 0.57268,-5.966535 1.205,-0.796415 1.23171,-0.785735 0.92909,0.371463 -0.29011,1.109417 -0.24971,1.135481 0.58671,0.378528 0.49405,-0.447111 1.56951,-0.80562 2.38992,-0.796688 1.44949,0.01578 1.46278,0.03892 0.47041,0.818738 -0.99145,0.779092 -0.984,0.791469 0.25531,0.424308 0.7021,-0.208005 1.54052,-0.477214 1.86316,-0.59824 0.32265,-0.121028 0.73832,0.0254 0.92372,0.325379 0.1854,0.299986 0.0938,0.545429 -0.20366,0.545429 -0.29741,0 -0.54075,0.229778 -0.54075,0.510617 0,0.28084 0.44288,0.510619 0.98418,0.510619 0.54129,0 1.43201,0.569337 1.97938,1.265194 1.14005,1.449348 3.30597,2.418486 4.43597,1.984868 1.37767,-0.528666 0.81217,0.589989 -0.77101,1.525204 -1.35881,0.802667 -1.86769,0.837484 -4.29643,0.293955 -1.51528,-0.339105 -3.11944,-0.476727 -3.56481,-0.305825 -1.13892,0.437046 -1.03423,3.260871 0.21149,5.70427 0.56168,1.101703 1.02123,2.080819 1.02123,2.175809 0,0.40494 -1.66555,-0.815519 -3.55049,-2.60169 z M 266.22543,36.738341 c -0.32416,-0.599712 -0.83557,-2.422096 -1.13646,-4.049746 -0.39066,-2.113282 -1.06157,-3.587242 -2.34666,-5.155524 -0.98977,-1.207889 -1.79959,-2.352915 -1.79959,-2.544502 0,-0.497761 2.08358,0.644105 3.50623,1.921527 l 1.20845,1.085081 -0.37637,-1.787162 c -0.6275,-2.979697 -1.6472,-4.433137 -4.32964,-6.1713 -1.40897,-0.912979 -2.56176,-1.766368 -2.56176,-1.896424 0,-0.130054 1.66589,-0.128408 3.70198,0.0037 3.89565,0.252684 5.34961,0.814009 9.00607,3.476928 1.66122,1.209831 2.06247,1.741579 1.55216,2.056971 -0.55943,0.345747 -0.51969,0.611574 0.21234,1.420458 0.49531,0.547311 1.35771,2.198215 1.91644,3.668676 1.0611,2.792609 1.00453,4.010157 -0.0907,1.95267 -0.93909,-1.764109 -3.55428,-4.921232 -4.31983,-5.215 -0.54799,-0.210286 -0.54882,0.03434 -0.005,1.372625 1.00374,2.468338 1.40904,5.331878 0.80732,5.703758 -0.28946,0.178895 -0.52628,0.125841 -0.52628,-0.117896 0,-0.243737 -0.33311,-0.889188 -0.74025,-1.434335 -0.66348,-0.888373 -0.72669,-0.541017 -0.60948,3.349076 0.0719,2.387139 0.33593,4.799808 0.58667,5.361488 0.36759,0.823399 0.11471,0.737249 -1.30534,-0.444713 -0.96868,-0.806273 -2.02646,-1.956622 -2.35063,-2.556334 z m -39.72342,-13.21107 c 0.44916,-1.473913 1.73287,-2.936053 2.57776,-2.936053 0.36208,0 1.30156,0.553289 2.08773,1.22953 l 1.42942,1.229532 -1.91955,-0.05441 c -1.18551,-0.0336 -2.25123,0.277267 -2.78691,0.81294 -1.20454,1.204542 -1.80427,1.082935 -1.38845,-0.281537 z m 12.88715,-2.078442 c 0.29621,-2.537208 -1.04148,-5.135606 -3.63477,-7.060385 -2.51632,-1.867654 -3.40627,-3.296226 -3.40627,-5.4678684 0,-2.665772 1.00095,-3.338247 4.43465,-2.979355 1.67964,0.175557 3.26463,0.115997 3.52221,-0.132355 0.27616,-0.266254 2.45832,1.007709 5.31777,3.104557 5.39331,3.9549264 6.43931,4.8840484 4.85231,4.3101364 -0.56168,-0.203123 -2.77866,-0.842159 -4.92661,-1.420082 -6.52805,-1.756415 -8.1433,-0.493513 -4.78009,3.737357 2.18826,2.75279 2.45803,5.547293 0.65727,6.808592 -1.73504,1.215271 -2.25656,0.984636 -2.03647,-0.900597 z M 233.85657,2.2527086 c 0.62035,-1.1591332 1.38582,-1.32382825 2.5765,-0.554351 0.62646,0.404853 0.56812,0.496404 -0.32045,0.502799 -0.5975,0.0043 -1.37702,0.358039 -1.73227,0.786085 -0.87996,1.060295 -1.22522,0.576121 -0.52378,-0.734533 z m 15.1342,79.8679634 c -0.34356,-6.22304 -1.58145,-14.190946 -3.41116,-21.95657 l -1.2031,-5.106179 -0.37727,3.636866 c -0.62992,6.072267 -3.9364,13.549703 -9.19369,20.791113 -1.39463,1.92096 -2.41146,3.61686 -2.25965,3.76868 0.44782,0.44782 7.06038,-1.368 8.89488,-2.44254 2.16819,-1.27002 2.27143,-1.25692 3.27015,0.41505 0.46133,0.77231 1.68279,2.55309 2.71436,3.95729 l 1.87558,2.55308 z"
       id="path352"
       sodipodi:nodetypes="ssssssssssssssssssscssssssssscssscssssssscsscsssscsccsssssssssssscsssssssssssssssssssssssssssssssssssscssscsssssscsssssssssscssscssssssssccsscsssscsscssscs" /></g></svg>
