<?xml version="1.0" encoding="UTF-8" standalone="no"?>
<!-- Created with Inkscape (http://www.inkscape.org/) -->

<svg
   width="64.164085mm"
   height="104.16905mm"
   viewBox="0 0 64.164086 104.16905"
   version="1.1"
   id="svg5"
   xml:space="preserve"
   inkscape:version="1.2.2 (732a01da63, 2022-12-09)"
   sodipodi:docname="grim.svg"
   xmlns:inkscape="http://www.inkscape.org/namespaces/inkscape"
   xmlns:sodipodi="http://sodipodi.sourceforge.net/DTD/sodipodi-0.dtd"
   xmlns="http://www.w3.org/2000/svg"
   xmlns:svg="http://www.w3.org/2000/svg"><sodipodi:namedview
     id="namedview7"
     pagecolor="#505050"
     bordercolor="#eeeeee"
     borderopacity="1"
     inkscape:showpageshadow="0"
     inkscape:pageopacity="0"
     inkscape:pagecheckerboard="0"
     inkscape:deskcolor="#505050"
     inkscape:document-units="mm"
     showgrid="false"
     inkscape:zoom="1.4770342"
     inkscape:cx="131.00577"
     inkscape:cy="158.42558"
     inkscape:window-width="1920"
     inkscape:window-height="1009"
     inkscape:window-x="-8"
     inkscape:window-y="-8"
     inkscape:window-maximized="1"
     inkscape:current-layer="layer1" /><defs
     id="defs2" /><g
     inkscape:label="Layer 1"
     inkscape:groupmode="layer"
     id="layer1"
     transform="translate(-16.997792,-130.22106)"><path
       style="fill:#000000;stroke-width:0.192012"
       d="m 45.106471,234.29162 c -0.475231,-0.0366 -1.641706,-0.15251 -2.592168,-0.25756 -0.950462,-0.10505 -2.960228,-0.31819 -4.466147,-0.47363 -4.921277,-0.50799 -6.213888,-1.12574 -6.78622,-3.24318 -0.366931,-1.35752 0.09255,-3.18111 2.231506,-8.85633 0.557963,-1.48044 1.166808,-3.40057 1.352987,-4.26696 0.338507,-1.57525 0.338507,-1.57525 -0.435907,-2.68465 -2.06153,-2.95328 -2.45347,-5.12465 -1.759909,-9.74996 0.366692,-2.44545 0.900135,-4.10176 3.014745,-9.36061 0.838686,-2.08573 1.494042,-3.79224 1.45635,-3.79224 -0.03769,0 -0.450245,0.26905 -0.916783,0.5979 -0.656155,0.4625 -1.059644,0.60084 -1.781728,0.61088 -2.618823,0.0364 -3.695576,-1.98767 -4.099497,-7.7062 -0.114067,-1.61493 -0.497702,-4.68031 -0.85252,-6.81197 -0.598983,-3.59852 -0.884238,-5.93188 -1.166292,-9.5401 -0.250124,-3.19977 1.106334,-7.0268 3.856719,-10.88112 1.571553,-2.20233 6.184679,-6.48971 10.32972,-9.6003 3.177464,-2.38448 3.365684,-2.48856 4.961583,-2.74351 1.726752,-0.27585 3.048749,0.007 4.953566,1.06092 2.286114,1.26453 2.780373,1.5967 6.197682,4.16518 5.021192,3.77397 8.016214,7.06665 9.174707,10.08652 0.327249,0.85305 0.441078,1.64897 0.513718,3.59203 0.100928,2.69973 0.02638,3.32293 -0.987666,8.25654 -1.255577,6.10873 -1.499149,9.15157 -0.983689,12.2888 0.95411,5.80698 -0.67065,7.63211 -4.636804,5.20862 -0.806139,-0.49258 -1.502142,-0.85917 -1.546674,-0.81464 -0.160703,0.1607 1.161213,3.04939 1.883426,4.11572 1.197964,1.76876 3.091147,3.62847 4.236628,4.16172 1.049834,0.48873 1.698151,0.6097 1.698151,0.31686 0,-0.0905 0.46985,-4.86442 1.044113,-10.60869 0.574262,-5.74426 1.222296,-12.30184 1.440073,-14.57239 0.217778,-2.27054 0.479952,-4.86271 0.58261,-5.76037 0.102657,-0.89766 0.362252,-3.53303 0.576876,-5.85638 0.214626,-2.32335 0.475527,-4.91552 0.579784,-5.76037 0.21751,-1.76262 0.637863,-6.10744 0.658774,-6.80915 0.0154,-0.51684 -0.662538,-0.92255 -3.538143,-2.11738 -0.792052,-0.3291 -1.612905,-0.67991 -1.824119,-0.77959 -1.870003,-0.88248 -7.392956,-2.34239 -10.987855,-2.90448 -3.829956,-0.59885 -10.825859,-0.5981 -14.231715,0.002 -9.892933,1.7417 -17.399413,5.8873 -22.831368,12.60908 -1.358098,1.68058 -1.597003,1.88086 -2.040504,1.71067 -0.577786,-0.22171 -0.524182,-0.85711 0.269732,-3.19727 3.958351,-11.66768 13.729759,-20.12087 26.348281,-22.79375 11.30949,-2.39559 24.247651,-0.008 34.994177,6.45893 2.055494,1.23685 2.271587,1.65185 2.131041,4.09252 -0.133961,2.32636 -0.836341,6.9565 -1.215072,8.00987 -0.345861,0.96194 -0.994707,1.44265 -1.837984,1.36169 -0.614084,-0.0589 -0.614084,-0.0589 -0.735233,1.38114 -0.06663,0.79205 -0.261655,2.86579 -0.433385,4.6083 -0.406343,4.12308 -0.82845,8.55822 -1.178705,12.38481 -0.154662,1.68971 -0.32631,3.37462 -0.381437,3.74424 -0.05513,0.36962 -0.183007,1.66571 -0.284176,2.88019 -0.10117,1.21448 -0.312368,3.54743 -0.469329,5.18433 -0.628434,6.55376 -0.900193,9.45314 -1.169828,12.48081 -0.155183,1.74252 -0.303218,3.30287 -0.328967,3.46744 -0.02575,0.16458 0.331519,0.65914 0.793931,1.09902 0.776016,0.73821 0.831859,0.85562 0.725283,1.52489 -0.07046,0.44249 -0.31276,0.89649 -0.621675,1.16486 -0.50621,0.43976 -0.50621,0.43976 -0.02962,0.88144 1.085539,1.00605 1.120502,1.87768 0.117161,2.92088 -0.569248,0.59186 -0.570024,0.59582 -0.232182,1.18447 0.459161,0.80004 0.197638,1.49452 -0.846372,2.24756 -0.974371,0.70282 -0.949951,0.62076 -1.287593,4.32667 -0.846886,9.29529 -1.27786,13.6664 -1.450447,14.71109 -0.106692,0.64582 -0.193986,1.53577 -0.193986,1.97766 0,2.91339 -3.804827,4.453 -12.366603,5.00409 -2.811165,0.18095 -10.560465,0.21966 -12.595018,0.0629 z m 24.26344,-9.41465 c 0.06627,-0.504 0.205158,-1.91003 0.308643,-3.12451 0.240146,-2.81832 0.699928,-7.66953 0.98426,-10.38506 0.121624,-1.16158 0.162732,-2.17036 0.09135,-2.24174 -0.07138,-0.0714 -0.643797,-0.17892 -1.272035,-0.23899 -1.314746,-0.1257 -1.250429,-0.208 -1.426172,1.82507 -0.0639,0.73925 -0.242919,2.68337 -0.397818,4.32028 -0.770887,8.14645 -0.810555,7.06933 0.335139,9.10041 0.56031,0.99332 1.072159,1.77338 1.137443,1.73347 0.06529,-0.0399 0.172921,-0.48493 0.239188,-0.98893 z m -2.964678,-8.78888 c 0.344966,-3.51667 0.410285,-3.27858 -1.08945,-3.97112 -0.712846,-0.32918 -1.579254,-0.81367 -1.925351,-1.07665 -1.019045,-0.77431 -1.018738,-0.76905 0.194299,3.31966 0.606854,2.04548 1.765096,5.00728 2.132948,5.45427 0.252126,0.30637 0.337233,-0.15486 0.687554,-3.72616 z m 5.822999,-8.65482 c 1.474153,-0.70609 0.381139,-1.72636 -1.810645,-1.69014 -2.309052,0.0382 -3.387042,1.09225 -1.852217,1.81114 0.993522,0.46535 2.545766,0.41407 3.662862,-0.121 z m 0.04716,-2.98175 c 1.564288,-0.39389 1.856709,-1.37613 0.58881,-1.97779 -0.740281,-0.35129 -2.694848,-0.40854 -3.499746,-0.10252 -1.391516,0.52905 -0.972708,1.69487 0.756453,2.1057 0.901475,0.21419 1.217841,0.21046 2.154483,-0.0254 z m -6.63405,-0.1666 c 0.771163,-0.41271 1.215558,-2.52195 0.747695,-3.5488 -0.76276,-1.67408 -2.34774,1.30626 -1.62042,3.04699 0.313794,0.75101 0.35877,0.77687 0.872725,0.50181 z m 6.930233,-3.70184 c 2.192885,-1.10581 -0.232982,-2.64475 -2.906387,-1.84378 -0.873,0.26156 -1.575577,0.94024 -1.41271,1.36467 0.356859,0.92995 2.871809,1.20893 4.319097,0.47911 z m -0.763023,-3.31984 c 0.06693,-0.0414 0.177568,-0.79103 0.245851,-1.6659 0.137556,-1.76242 0.457038,-5.10856 1.581835,-16.56766 0.155494,-1.5841 0.40777,-4.30588 0.560615,-6.04839 0.152846,-1.74252 0.405285,-4.46429 0.560976,-6.0484 0.155692,-1.5841 0.544811,-5.64516 0.864711,-9.02458 0.319899,-3.37942 0.630606,-6.5023 0.690458,-6.93972 0.108821,-0.79532 0.108821,-0.79532 -0.998922,-1.47284 -0.609257,-0.37264 -1.161754,-0.64414 -1.22777,-0.60334 -0.06602,0.0408 -0.175098,0.74678 -0.242404,1.56884 -0.06731,0.82207 -0.251711,2.79076 -0.409787,4.37486 -0.158077,1.5841 -0.420536,4.21947 -0.583242,5.85638 -0.162708,1.6369 -0.425481,4.27228 -0.583937,5.85638 -0.158458,1.5841 -0.41549,4.17627 -0.571183,5.76037 -0.26733,2.71995 -0.440782,4.40818 -1.134352,11.04072 -0.42248,4.04011 -0.665368,6.4671 -0.778261,7.77651 -0.05463,0.63364 -0.183447,2.01613 -0.286258,3.0722 -0.10281,1.05606 -0.189158,2.2553 -0.191882,2.66497 -0.005,0.74485 -0.005,0.74485 1.188449,0.60983 0.656372,-0.0743 1.248168,-0.16887 1.315103,-0.21023 z M 51.634895,186.03188 c 1.926066,-0.30148 2.662961,-1.3805 1.640833,-2.40263 -0.577416,-0.57742 -0.781541,-0.5878 -1.210685,-0.0616 -1.198242,1.46933 -1.125957,1.41789 -1.706246,1.21407 -0.34283,-0.12042 -0.671813,-0.45495 -0.878647,-0.89348 -0.181845,-0.38555 -0.417675,-0.7548 -0.524067,-0.82055 -0.319785,-0.19764 -0.871954,0.21353 -1.26374,0.94103 -0.583272,1.08307 -1.199461,0.92518 -2.439983,-0.62521 -0.500954,-0.6261 -1.057885,-0.53144 -1.426961,0.24252 -0.772492,1.61994 1.052476,2.45937 5.601353,2.57646 0.528034,0.0136 1.521698,-0.0632 2.208143,-0.17065 z m -0.498731,-4.71744 c 0.165399,-0.0635 0.567633,-0.58191 0.893852,-1.15208 0.785598,-1.37308 1.23181,-1.38864 1.960039,-0.0684 0.651442,1.18107 1.309592,1.55418 1.861105,1.05506 0.373737,-0.33822 0.563271,-0.80008 0.957885,-2.3342 0.189645,-0.73726 0.256971,-0.79803 0.993532,-0.89682 2.631913,-0.35302 4.776908,-4.96458 4.776996,-10.27015 3.3e-5,-1.97318 3.3e-5,-1.97318 -0.81602,-2.78652 -2.664711,-2.65584 -10.76104,-6.97491 -12.922516,-6.89365 -0.528223,0.0199 -8.608416,3.7143 -8.918902,4.07792 -0.0528,0.0618 -1.158179,0.69863 -2.456389,1.41509 -1.31384,0.72509 -2.502502,1.51955 -2.680918,1.79185 -0.398624,0.60838 -0.440692,3.9617 -0.07167,5.71258 0.800492,3.798 2.805793,6.62395 5.144179,7.24937 0.798271,0.21351 0.862589,0.28233 1.132956,1.21236 0.597218,2.05436 1.698675,2.33749 2.749947,0.70686 0.796239,-1.23504 1.259365,-1.31429 1.683164,-0.28802 0.35968,0.87101 0.798267,1.39209 1.171689,1.39209 0.152369,0 0.68497,-0.44137 1.183559,-0.98083 0.588576,-0.63683 1.029354,-0.95672 1.256729,-0.91206 0.363094,0.0713 0.426946,0.16392 0.940999,1.36486 0.301752,0.70496 0.554703,0.83684 1.159779,0.60465 z m -1.98155,-3.76115 c -0.781293,-0.38656 -0.844461,-0.38999 -1.492127,-0.0811 -0.807101,0.38488 -1.361641,0.25369 -1.6022,-0.37903 -0.484756,-1.275 1.530251,-3.00854 3.066747,-2.63837 0.270451,0.0652 0.815751,0.44474 1.211777,0.84352 1.016493,1.02357 0.960462,1.91268 -0.160181,2.54179 -0.114501,0.0643 -0.575308,-0.0648 -1.024016,-0.28677 z m -9.036149,-2.47425 c -1.545247,-0.70093 -2.667731,-2.3117 -3.12279,-4.48121 -0.153701,-0.73277 -0.166193,-1.18943 -0.03809,-1.39251 0.414545,-0.65719 8.144635,-2.21987 9.410001,-1.90229 0.378597,0.095 0.454067,0.27457 0.569835,1.35559 0.166794,1.55749 0.01302,2.61578 -0.558537,3.84395 -0.471031,1.01217 -1.900749,2.47424 -2.726477,2.78818 -0.83479,0.31739 -2.600732,0.21159 -3.53394,-0.21171 z m 13.663823,-0.075 c -1.365962,-0.61524 -2.394427,-1.86659 -2.999934,-3.65007 -0.339334,-0.99949 -0.40036,-3.39386 -0.100766,-3.95366 0.286989,-0.53624 1.052581,-0.48094 5.363298,0.38744 4.25753,0.85766 4.304401,0.88505 4.107621,2.40008 -0.259814,2.00033 -1.079452,3.529 -2.37272,4.42523 -0.988789,0.68523 -2.923969,0.87451 -3.997499,0.39098 z M 24.086844,149.14951 c 7.449419,-6.00195 19.365163,-9.03025 30.525421,-7.75783 5.331322,0.60784 8.824853,1.49957 14.111739,3.60203 3.409412,1.35584 3.164746,1.35745 3.436263,-0.0227 0.19136,-0.97266 0.182378,-1.25197 -0.05503,-1.71106 -0.399774,-0.77308 -0.60064,-0.90442 -2.428673,-1.58808 -4.910352,-1.83638 -9.497632,-2.88371 -14.249107,-3.25323 -11.015686,-0.85668 -20.544159,1.53366 -28.17815,7.06883 -1.433391,1.03931 -4.813589,4.33556 -5.214867,5.08535 -0.241269,0.45082 -0.474703,0.61271 2.052399,-1.42336 z"
       id="path421" /></g></svg>
