<?xml version="1.0" encoding="UTF-8" standalone="no"?>
<!-- Created with Inkscape (http://www.inkscape.org/) -->

<svg
   width="199.03534mm"
   height="194.52446mm"
   viewBox="0 0 199.03534 194.52446"
   version="1.1"
   id="svg595"
   xml:space="preserve"
   inkscape:version="1.2.2 (732a01da63, 2022-12-09)"
   sodipodi:docname="Mad Cad Lab.svg"
   xmlns:inkscape="http://www.inkscape.org/namespaces/inkscape"
   xmlns:sodipodi="http://sodipodi.sourceforge.net/DTD/sodipodi-0.dtd"
   xmlns="http://www.w3.org/2000/svg"
   xmlns:svg="http://www.w3.org/2000/svg"><sodipodi:namedview
     id="namedview597"
     pagecolor="#505050"
     bordercolor="#eeeeee"
     borderopacity="1"
     inkscape:showpageshadow="0"
     inkscape:pageopacity="0"
     inkscape:pagecheckerboard="0"
     inkscape:deskcolor="#505050"
     inkscape:document-units="mm"
     showgrid="false"
     inkscape:zoom="0.52221046"
     inkscape:cx="489.26634"
     inkscape:cy="233.62228"
     inkscape:window-width="1920"
     inkscape:window-height="1009"
     inkscape:window-x="-8"
     inkscape:window-y="-8"
     inkscape:window-maximized="1"
     inkscape:current-layer="layer1" /><defs
     id="defs592" /><g
     inkscape:label="Layer 1"
     inkscape:groupmode="layer"
     id="layer1"
     transform="translate(-3.1670632,-71.798577)"><path
       id="path843"
       style="fill:#000000;stroke-width:0.264583"
       d="m 103.25068,125.82608 c -0.12815,-0.17471 -0.63647,-6.07846 -1.1296,-13.11944 -0.8686,-12.402 -1.67334,-20.497828 -2.632325,-26.48211 -1.12865,-7.04308 -1.108854,-8.532216 0.135613,-10.199854 l 0.629732,-0.843874 3.12891,-0.182982 c 1.7209,-0.100641 3.45564,-0.337011 3.85499,-0.525257 0.9452,-0.445551 3.89352,-1.164624 7.66028,-1.868293 1.65824,-0.309768 3.29067,-0.647308 3.62764,-0.750086 0.77351,-0.23593 4.78571,0.327741 5.50936,0.774006 0.29877,0.184241 0.70448,0.325558 0.90156,0.31403 0.63232,-0.03698 4.04527,2.478922 5.25133,3.871075 1.47957,1.707873 1.69364,2.775786 1.61563,8.059943 -0.058,3.931067 -0.38041,6.771291 -0.99081,8.729397 -0.17359,0.556779 -0.47772,1.528699 -0.6759,2.159805 -0.19824,0.631108 -0.51156,1.63338 -0.69639,2.227273 -0.46996,1.510064 -2.59595,6.425867 -3.00798,6.955177 -0.18769,0.24111 -0.33693,0.51221 -0.33164,0.60243 0.005,0.0902 -0.28739,0.6943 -0.65035,1.34235 -0.36297,0.64806 -0.76772,1.37485 -0.89943,1.6151 -0.13173,0.24026 -0.99667,1.72203 -1.92211,3.29283 -1.91559,3.25145 -2.18459,3.73752 -2.48648,4.49323 -0.11925,0.29851 -1.43278,1.88828 -2.91895,3.53282 -3.48587,3.85735 -3.94436,4.32358 -5.11265,5.19891 -0.91949,0.68892 -1.04354,0.7146 -2.28413,0.47282 -1.00626,-0.19605 -1.51076,-0.17299 -2.16573,0.0992 -1.16208,0.4829 -4.11259,0.63779 -4.41057,0.23148 z m 11.1251,-17.54067 c 2.54622,-4.33363 3.16496,-5.56117 4.9583,-9.837166 1.85644,-4.426412 2.00816,-4.854007 2.68888,-7.578247 1.00659,-4.028309 1.26833,-6.176813 1.101,-9.037925 -0.14463,-2.473224 -0.19789,-2.679807 -0.75683,-2.938195 -0.79492,-0.367438 -7.5583,0.324206 -9.16648,0.937389 -1.25733,0.479414 -3.11097,1.085664 -4.16099,1.360896 -1.99269,0.522337 -1.83762,0.305704 -1.71246,2.392467 0.0634,1.050348 0.32568,2.482882 0.58372,3.18336 0.25805,0.700492 0.50391,1.819134 0.54638,2.485892 0.042,0.666779 0.22072,1.680953 0.39612,2.253772 0.37638,1.229281 1.33337,10.024387 1.76233,16.196607 0.16654,2.39545 0.36231,4.44794 0.43515,4.56109 0.38681,0.60075 1.21822,-0.39446 3.32488,-3.97994 z" /><path
       id="path839"
       style="fill:#000000;stroke-width:0.264583"
       d="m 57.570974,137.64161 c -0.476161,-0.24085 -0.783022,-0.66022 -0.897528,-1.22657 -0.302281,-1.49515 -0.510496,-3.63567 -0.462499,-4.7546 0.02548,-0.594 0.0046,-1.43629 -0.04632,-1.87176 -0.120693,-1.03141 3.463334,-15.19232 4.393819,-17.36092 0.377682,-0.88011 1.6087,-4.80572 2.735599,-8.72357 1.126894,-3.917846 2.308962,-7.671614 2.626815,-8.341717 0.317851,-0.670092 1.131559,-3.376745 1.808244,-6.014783 0.944959,-3.683873 1.397631,-5.057017 1.951568,-5.919821 0.963868,-1.501317 1.867431,-2.061435 2.902695,-1.79939 0.454072,0.114938 1.750554,0.249676 2.881073,0.299431 1.665705,0.0733 2.216967,0.193205 2.90702,0.632295 1.309541,0.833259 2.33735,2.623238 3.188638,5.553184 0.426735,1.468704 0.915065,3.135468 1.085192,3.703913 0.170117,0.568442 0.359482,1.353283 0.420823,1.744083 0.114704,0.730881 1.291514,6.146075 1.506334,6.931545 0.06615,0.2419 0.399771,1.86157 0.741364,3.59924 1.474101,7.49873 2.333936,11.12464 3.230573,13.6232 0.837363,2.33335 0.818436,2.26284 1.745439,6.50332 0.351831,1.60941 0.595981,3.09887 0.542559,3.30993 -0.05342,0.21104 -0.490287,0.60265 -0.970811,0.8702 -2.985392,1.66232 -3.595429,2.07412 -3.70319,2.49986 -0.277065,1.09461 -1.224467,0.46071 -3.170404,-2.12131 -0.121766,-0.16157 -0.565462,-0.46599 -0.985994,-0.6765 -0.839712,-0.42037 -2.486223,-3.30646 -2.301835,-4.03493 0.05873,-0.23202 -0.02998,-0.60938 -0.197131,-0.83856 -0.167153,-0.22919 -0.252648,-0.61927 -0.189977,-0.86687 0.06267,-0.24759 -0.01387,-0.62542 -0.170088,-0.8396 -0.156218,-0.2142 -0.283436,-0.68942 -0.282707,-1.05607 0.0026,-1.26838 -0.969202,-1.40178 -2.979823,-0.40912 -1.678286,0.82861 -4.520463,1.92925 -4.799503,1.85862 -0.06706,-0.0172 -0.79433,0.24812 -1.615996,0.58913 -1.413216,0.58652 -1.533121,0.70735 -2.218874,2.23586 -0.477712,1.06483 -0.976444,2.86557 -1.462497,5.28053 l -0.737574,3.66466 -1.283268,0.58703 c -1.652175,0.7558 -2.638898,1.72347 -2.929972,2.87342 -0.127582,0.50404 -0.333088,0.94835 -0.456691,0.98735 -0.468578,0.14786 -2.110376,-0.13938 -2.805067,-0.49073 z m 15.296193,-25.7677 c 3.975449,-1.87121 3.852802,-1.78589 3.756855,-2.61361 -0.04649,-0.40097 -0.205716,-1.3985 -0.353837,-2.21673 -0.148132,-0.81823 -0.362484,-2.18677 -0.476347,-3.04119 -0.113861,-0.85443 -0.274986,-1.93916 -0.358065,-2.41052 -0.08308,-0.47136 -0.213983,-1.42562 -0.290906,-2.120584 -0.07691,-0.694969 -0.206777,-1.648973 -0.288575,-2.120006 -0.0818,-0.471032 -0.156408,-1.13471 -0.165795,-1.474832 -0.01975,-0.715563 -0.503587,-0.923875 -1.113182,-0.479265 -0.325608,0.237483 -0.610307,1.226378 -1.226715,4.261032 -0.441483,2.173465 -1.223753,5.994495 -1.738359,8.491175 -0.514614,2.49667 -0.92695,4.5723 -0.916304,4.61253 0.09623,0.36346 1.123683,0.0758 3.17123,-0.888 z" /><path
       id="path843-7"
       style="fill:#000000;stroke-width:0.264583"
       d="m 135.88006,190.79408 c -0.1055,-0.18925 0.12178,-6.11047 0.50509,-13.15829 0.67515,-12.41403 0.87999,-20.54718 0.67007,-26.60417 -0.24705,-7.12866 -0.0428,-8.60387 1.3987,-10.10441 l 0.72947,-0.75932 3.12746,0.20621 c 1.7201,0.11342 3.47077,0.0939 3.89037,-0.0434 0.99313,-0.32497 4.00783,-0.6731 7.83277,-0.9045 1.68385,-0.10187 3.34553,-0.23449 3.69264,-0.29471 0.79678,-0.13825 4.7082,0.91834 5.37096,1.45085 0.27362,0.21985 0.65868,0.41036 0.85569,0.42334 0.63201,0.0417 3.70684,2.96117 4.73107,4.49206 1.2565,1.87808 1.33656,2.96429 0.60426,8.19804 -0.54479,3.89356 -1.21669,6.67194 -2.06507,8.5393 -0.24124,0.53098 -0.6635,1.4577 -0.93837,2.05938 -0.27488,0.60169 -0.71005,1.55739 -0.96705,2.1238 -0.65349,1.44017 -3.37234,6.05459 -3.8468,6.52876 -0.21612,0.21599 -0.3978,0.46649 -0.40375,0.55668 -0.006,0.0902 -0.37121,0.65332 -0.81169,1.2514 -0.4405,0.59807 -0.93219,1.2691 -1.09267,1.49118 -0.16048,0.22208 -1.2024,1.58523 -2.31539,3.02922 -2.3038,2.98897 -2.63096,3.43796 -3.02419,4.15042 -0.15533,0.28143 -1.65576,1.69615 -3.33428,3.14382 -3.93707,3.39557 -4.44981,3.80139 -5.71758,4.52517 -0.99778,0.56966 -1.12406,0.57976 -2.32512,0.1861 -0.97419,-0.31931 -1.47767,-0.35892 -2.16132,-0.16997 -1.21298,0.33516 -4.15994,0.12318 -4.40527,-0.31693 z m 13.21326,-16.02663 c 3.0637,-3.98464 3.8298,-5.12604 6.13927,-9.14681 2.39072,-4.1622 2.59426,-4.5677 3.60737,-7.18657 1.49808,-3.87249 2.02407,-5.97199 2.21264,-8.83178 0.163,-2.47209 0.13576,-2.68368 -0.38685,-3.00935 -0.74325,-0.46312 -7.54022,-0.61504 -9.212,-0.20589 -1.30706,0.31988 -3.22153,0.69173 -4.29757,0.8347 -2.04207,0.27134 -1.86135,0.0756 -1.99577,2.16179 -0.0672,1.05011 0.0154,2.5041 0.18469,3.23116 0.16924,0.72707 0.27457,1.86756 0.23407,2.53444 -0.041,0.66684 0.0107,1.69535 0.11374,2.28549 0.22113,1.26645 0.0807,10.11235 -0.2586,16.29016 -0.13164,2.39762 -0.19175,4.45855 -0.1335,4.57985 0.30938,0.64406 1.25772,-0.24043 3.79251,-3.53719 z" /><path
       id="path839-7"
       style="fill:#000000;stroke-width:0.264583"
       d="m 90.986849,196.49033 c -0.446793,-0.29174 -0.70569,-0.7423 -0.757236,-1.3178 -0.136066,-1.51934 -0.107686,-3.66977 0.06304,-4.77664 0.09063,-0.58759 0.162513,-1.42707 0.15974,-1.8655 -0.0066,-1.03843 5.112613,-14.71946 6.275876,-16.7726 0.472156,-0.83327 2.127299,-4.59973 3.678101,-8.36994 1.5508,-3.7702 3.1384,-7.37125 3.528,-8.00235 0.38959,-0.63108 1.49594,-3.23187 2.45856,-5.77952 1.34424,-3.55765 1.94513,-4.8727 2.59057,-5.66937 1.12308,-1.38625 2.08275,-1.84363 3.08293,-1.46936 0.43868,0.16416 1.71249,0.44062 2.83069,0.61437 1.64754,0.25599 2.18228,0.43577 2.81988,0.94807 1.20999,0.97218 2.03478,2.8643 2.55878,5.87008 0.26267,1.50672 0.56479,3.21707 0.67139,3.80077 0.10659,0.5837 0.20852,1.3846 0.22653,1.77978 0.0336,0.73906 0.60797,6.2508 0.73513,7.05513 0.0392,0.24771 0.19268,1.89423 0.34116,3.65893 0.64074,7.61534 1.09673,11.31379 1.71323,13.89578 0.57576,2.41128 0.5647,2.33911 1.01987,6.65581 0.17276,1.63832 0.25168,3.1456 0.17538,3.3495 -0.0763,0.20389 -0.55358,0.54509 -1.0606,0.7582 -3.15006,1.32402 -3.80167,1.66625 -3.95558,2.07756 -0.39574,1.05752 -1.2677,0.3233 -2.91797,-2.45701 -0.10326,-0.17398 -0.5108,-0.52533 -0.90564,-0.78081 -0.7884,-0.51014 -2.10763,-3.55975 -1.84427,-4.26353 0.0839,-0.22416 0.0372,-0.60898 -0.10375,-0.85515 -0.14094,-0.24617 -0.18303,-0.64329 -0.0935,-0.8825 0.0895,-0.23919 0.055,-0.62315 -0.0768,-0.8532 -0.13172,-0.23007 -0.20592,-0.7164 -0.16488,-1.08075 0.14198,-1.2604 -0.80922,-1.49984 -2.91679,-0.73422 -1.75921,0.63907 -4.70516,1.42057 -4.97475,1.31969 -0.0648,-0.0243 -0.81679,0.15928 -1.67097,0.40789 -1.46913,0.42759 -1.60159,0.5345 -2.45124,1.97837 -0.59188,1.00584 -1.28556,2.74083 -2.034177,5.08772 l -1.136003,3.56136 -1.340028,0.44238 c -1.725255,0.56958 -2.812384,1.4229 -3.228119,2.53387 -0.182225,0.48696 -0.435334,0.90598 -0.562475,0.93116 -0.481993,0.0954 -2.08226,-0.37055 -2.734106,-0.79617 z m 18.036421,-23.92979 c 4.15707,-1.4228 4.02579,-1.35148 4.02142,-2.18473 -0.002,-0.40366 -0.0507,-1.41264 -0.10797,-2.2422 -0.0573,-0.82955 -0.11988,-2.21336 -0.13911,-3.07512 -0.0192,-0.86177 -0.0601,-1.95764 -0.0909,-2.43527 -0.0307,-0.47764 -0.0559,-1.44051 -0.056,-2.13972 -4e-5,-0.69921 -0.0242,-1.66171 -0.0537,-2.13888 -0.0295,-0.47717 -0.0307,-1.14502 -0.003,-1.48412 0.059,-0.71339 -0.39896,-0.97364 -1.05375,-0.59874 -0.34974,0.20024 -0.74143,1.15184 -1.68774,4.10033 -0.67776,2.11176 -1.87538,5.82362 -2.66136,8.24858 -0.78598,2.42496 -1.42402,4.44268 -1.41786,4.48383 0.0557,0.37184 1.10854,0.19884 3.24964,-0.53396 z" /><path
       id="path833"
       style="fill:#000000;stroke-width:0.264583"
       d="m 172.59163,262.33964 c -0.92641,-1.35061 -1.59087,-1.77361 -2.79613,-1.78005 -0.90078,-0.005 -1.22551,-0.15392 -1.78601,-0.82003 -0.91254,-1.08449 -1.07239,-1.85808 -0.69397,-3.35847 0.17359,-0.68824 0.37243,-2.32291 0.44187,-3.6326 0.0694,-1.30968 0.29215,-3.15515 0.49489,-4.10104 0.51621,-2.40836 0.94646,-4.88106 1.1792,-6.77697 0.10921,-0.88967 0.28769,-1.76179 0.39662,-1.93804 0.10892,-0.17625 0.36624,-1.53193 0.5718,-3.01262 0.8681,-6.25294 1.0664,-7.48924 1.24851,-7.78389 0.10559,-0.17085 0.30185,-1.05964 0.43613,-1.97508 0.28259,-1.92651 0.6957,-4.22203 1.13282,-6.29465 0.1688,-0.80036 0.31096,-1.57427 0.31592,-1.71979 0.005,-0.14552 -0.7976,-0.34433 -1.78347,-0.44179 -1.42343,-0.14072 -1.89827,-0.30415 -2.3063,-0.79375 -1.09503,-1.31395 -0.33072,-4.58459 1.36426,-5.83796 2.03074,-1.50165 4.0749,-2.11565 9.4814,-2.84795 6.78578,-0.91912 13.91723,-0.55559 17.19792,0.87668 1.61362,0.70447 3.08404,2.20166 3.99129,4.06396 0.80285,1.64801 0.83675,1.82887 0.53248,2.84126 -0.17873,0.59467 -0.41462,1.56903 -0.5242,2.16525 -0.10958,0.59621 -0.58986,1.78684 -1.06729,2.64583 -0.84524,1.52075 -4.01231,4.88789 -5.49971,5.84715 -0.40692,0.26243 -1.06501,0.7627 -1.46241,1.11169 -0.75196,0.66038 -1.50561,1.13811 -2.5186,1.59651 -1.32575,0.59994 -0.52268,1.21305 2.05868,1.5717 2.90422,0.40351 5.84698,1.66707 7.25214,3.11392 2.62927,2.70727 2.5982,8.54225 -0.0601,11.29695 -1.38708,1.43735 -13.91347,10.96042 -15.66682,11.91055 -0.80036,0.43371 -1.88906,1.12578 -2.41932,1.53793 -0.53027,0.41215 -1.09177,0.74936 -1.2478,0.74936 -0.26073,0 -0.95644,0.27096 -3.07975,1.19947 -1.01863,0.44543 -4.02803,1.44637 -4.34866,1.44637 -0.13504,0 -0.51094,-0.38696 -0.83534,-0.8599 z m 6.50691,-11.50052 c 2.00131,-0.78622 5.46068,-2.58908 6.35,-3.30933 0.14553,-0.11785 1.03849,-0.78999 1.98438,-1.49363 1.96531,-1.462 5.29167,-4.88653 5.29167,-5.44784 0,-0.20697 -0.12553,-0.45388 -0.27896,-0.54871 -0.15342,-0.0948 -3.33834,-0.2754 -7.0776,-0.40129 -7.76571,-0.26146 -7.45154,-0.3448 -7.47172,1.9821 -0.006,0.73617 -0.18319,1.81474 -0.3929,2.39682 -0.2097,0.58209 -0.38306,1.38958 -0.38526,1.79444 -0.002,0.40486 -0.18257,1.16354 -0.40086,1.68596 -0.21828,0.52242 -0.3976,1.14367 -0.3985,1.38056 -7.9e-4,0.23689 -0.18381,0.78007 -0.40648,1.20706 -0.60612,1.16234 -0.3447,1.50994 0.99673,1.32531 0.62214,-0.0856 1.60742,-0.34278 2.1895,-0.57145 z m 3.82402,-24.80517 c 1.97851,-1.33144 4.02287,-3.08419 7.0239,-6.02201 2.13741,-2.09239 2.56957,-2.63971 2.24896,-2.84825 -0.21828,-0.14197 -2.32314,-0.25996 -4.67746,-0.26219 -4.89169,-0.005 -4.98516,0.032 -5.23731,2.04963 -0.0862,0.68949 -0.28635,1.90846 -0.44485,2.70882 -0.6049,3.05445 -0.76005,5.29167 -0.36698,5.29167 0.0495,0 0.70374,-0.41295 1.45374,-0.91767 z" /><path
       id="path829"
       style="fill:#000000;stroke-width:0.264583"
       d="m 148.19017,262.98961 c -0.37338,-0.58943 -0.69633,-1.22433 -0.71766,-1.41089 -0.0213,-0.18656 -0.45323,-0.75509 -0.95979,-1.26338 -1.34063,-1.34525 -1.58398,-2.16117 -1.85219,-6.21026 l -0.23972,-3.61912 -0.64933,-0.086 c -0.35711,-0.0473 -1.14603,0.15588 -1.75313,0.45155 -0.79013,0.38479 -2.13025,0.65491 -4.71552,0.95047 -3.21372,0.36739 -3.67874,0.47923 -4.22,1.01507 -0.74481,0.73733 -2.70773,4.58935 -3.65238,7.16744 -0.77382,2.11187 -0.8255,2.16325 -2.92284,2.90594 -1.18127,0.41829 -1.67849,0.78073 -2.45458,1.78925 -1.08651,1.41188 -1.32476,1.50673 -2.42291,0.9645 -1.82775,-0.90247 -2.15738,-1.7381 -1.76797,-4.48198 0.12168,-0.85741 0.19657,-1.7747 0.16642,-2.03842 -0.0776,-0.67883 1.05179,-4.24905 2.52724,-7.98902 0.35304,-0.89491 3.73847,-7.37126 6.24263,-11.94219 2.55328,-4.66061 4.603,-8.61597 4.84092,-9.34154 0.16731,-0.51027 0.94369,-1.96515 1.32827,-2.48909 0.15613,-0.21271 0.62221,-1.04818 1.03574,-1.85658 0.41353,-0.80841 0.94747,-1.73371 1.18655,-2.05622 0.23908,-0.32251 0.71603,-1.19653 1.05988,-1.94227 0.34386,-0.74573 0.77121,-1.65099 0.94968,-2.01168 0.17847,-0.36069 0.60185,-1.25696 0.94086,-1.99172 1.63937,-3.55323 3.66922,-5.59258 4.95642,-4.97963 0.28432,0.13539 0.64333,0.23172 0.7978,0.21406 0.29604,-0.0338 2.23601,0.53372 3.80313,1.11264 0.5115,0.18896 1.34282,0.75526 1.84739,1.25845 l 0.9174,0.91489 0.69791,6.48689 c 0.43155,4.01087 0.6651,7.45757 0.61187,9.02994 -0.0473,1.39868 -0.0103,3.84955 0.0823,5.44639 0.0926,1.59683 0.1074,3.45262 0.0329,4.12399 -0.0745,0.67136 0.18577,4.89891 0.57837,9.39456 0.42218,4.83418 0.64343,8.74489 0.54153,9.57138 -0.18533,1.50301 -0.42499,1.71764 -2.15936,1.93382 -0.96977,0.12093 -2.87478,1.13285 -3.1221,1.65851 -0.29342,0.62371 -0.87242,0.36746 -1.53577,-0.6797 z m -6.61292,-20.91327 2.54262,-0.43609 0.1642,-0.98662 c 0.0903,-0.54263 0.17685,-1.94675 0.19232,-3.12027 0.0155,-1.17352 0.1102,-2.93915 0.21054,-3.92362 0.10034,-0.98448 0.13154,-2.24635 0.0694,-2.80415 -0.0618,-0.55786 -1.8e-4,-1.6263 0.13778,-2.37441 0.31114,-1.68722 0.054,-2.54491 -0.67795,-2.26135 -0.28554,0.11065 -0.62268,0.46763 -0.7492,0.79335 -0.12652,0.32573 -0.3056,0.66079 -0.39795,0.74458 -0.0923,0.0838 -0.29745,0.49141 -0.45576,0.90583 -1.03017,2.69652 -2.04859,5.23796 -2.43745,6.08259 -0.24912,0.54111 -0.51041,1.17018 -0.58063,1.39791 -0.0702,0.22773 -0.59149,1.44243 -1.15838,2.69932 -0.5669,1.2569 -1.01636,2.41083 -0.99882,2.56429 0.0175,0.15346 -0.14404,0.4057 -0.35909,0.56054 -0.64432,0.46391 0.43625,1.16912 1.29409,0.84456 0.36393,-0.13773 1.80587,-0.4466 3.20432,-0.68646 z" /><path
       style="fill:#000000;stroke-width:0.264583"
       d="m 5.9545337,155.15351 c -0.2350638,-0.42747 -0.409767,-0.88387 -0.3882263,-1.01425 0.021541,-0.13037 -0.3347314,-0.95008 -0.7917169,-1.82158 -0.8675152,-1.6544 -1.1108969,-3.03538 -1.1691515,-6.63393 -0.06448,-3.98316 -0.1001919,-5.10665 -0.2013745,-6.33528 -0.055417,-0.67288 -0.086448,-1.88478 -0.068963,-2.6931 0.031497,-1.456 -0.018698,-3.30476 -0.1535941,-5.65696 -0.038426,-0.67007 0.0025,-2.30483 0.09094,-3.63281 0.088445,-1.32797 0.092313,-2.75314 0.00859,-3.16704 -0.083717,-0.4139 -0.058584,-1.36277 0.055853,-2.1086 0.1144127,-0.74583 0.1971929,-1.96124 0.1839025,-2.70091 -0.013293,-0.73966 0.038529,-2.84295 0.1151592,-4.67396 0.076629,-1.83101 0.1215291,-4.3578 0.099777,-5.61509 -0.064423,-3.72369 0.020718,-4.51699 0.653922,-6.0929 0.7437586,-1.85106 1.4173186,-2.4145 2.6440637,-2.21182 0.5814242,0.0961 1.2779843,-0.0373 1.8895575,-0.36184 0.9503777,-0.504309 0.9990218,-0.50214 2.5777287,0.11524 1.917767,0.74998 2.738103,1.43259 3.889356,3.23635 1.065441,1.66933 3.139369,5.65051 3.744955,7.18894 0.248391,0.63102 0.516648,1.21839 0.59613,1.30527 0.567454,0.62028 4.763497,12.36829 5.013132,14.03569 0.05594,0.37365 1.052126,0.88522 1.154893,0.59307 0.01225,-0.0349 0.562424,-2.26698 1.222592,-4.96028 0.660168,-2.6933 1.606063,-6.33834 2.101984,-8.10007 0.495925,-1.76173 1.252176,-4.47268 1.680563,-6.02434 0.428385,-1.55165 1.124079,-3.85718 1.545984,-5.1234 0.421905,-1.26622 0.876637,-2.965176 1.010516,-3.775461 0.133881,-0.810296 0.531397,-2.120633 0.883371,-2.91188 0.351974,-0.791247 0.729537,-1.98082 0.839027,-2.643496 0.219234,-1.326881 0.519867,-1.605378 2.849717,-2.639927 2.018472,-0.896277 2.254404,-0.893084 3.839865,0.05191 2.093858,1.248014 2.99195,3.082576 3.614822,7.384113 0.26257,1.813308 0.534452,3.547711 0.604183,3.854221 0.06973,0.3065 0.23507,1.48025 0.367413,2.60832 0.132345,1.12807 0.303918,2.42352 0.381271,2.87878 0.07735,0.45527 0.15529,1.31287 0.173192,1.90581 0.0179,0.59293 0.09492,1.4504 0.17114,1.90547 0.07622,0.45507 0.182674,1.37774 0.236555,2.05037 0.354626,4.42675 0.584866,6.78526 0.784946,8.04071 0.183078,1.14881 0.335098,3.04122 0.364229,4.53421 0.01352,0.69302 0.111536,1.51585 0.217811,1.8285 0.106271,0.31267 0.13616,0.91384 0.06642,1.33595 -0.06974,0.42211 -0.02299,1.31267 0.103888,1.97903 0.263369,1.38317 -0.651884,7.90239 -1.584713,11.28768 -0.673332,2.44356 -0.980608,2.52001 -2.699316,0.67154 -1.106013,-1.18951 -1.433264,-1.38636 -2.799933,-1.68419 l -1.54754,-0.33728 -0.155623,-1.69826 c -0.08559,-0.93405 -0.0966,-2.52736 -0.02446,-3.54072 0.07214,-1.01334 0.05053,-2.1951 -0.04804,-2.62612 -0.09856,-0.43101 -0.172969,-1.38601 -0.165348,-2.12223 0.0165,-1.59481 -0.09219,-3.53346 -0.304858,-5.43735 -0.0854,-0.76454 -0.10046,-1.72183 -0.03346,-2.12732 0.067,-0.40548 0.0546,-1.36234 -0.02755,-2.12634 -0.146845,-1.36576 -0.273165,-2.77494 -0.441356,-4.92357 -0.04679,-0.5977 -0.265986,-1.41832 -0.487111,-1.82359 -0.640426,-1.17376 -0.979564,-0.4543 -1.641864,3.48312 -0.325871,1.93732 -0.784878,3.97332 -1.020014,4.52444 -0.235138,0.55113 -0.757682,2.27495 -1.161208,3.8307 -0.403525,1.55576 -0.941926,3.39763 -1.196442,4.09305 -0.254517,0.69541 -0.625726,2.20287 -0.824905,3.34992 -0.19915,1.14704 -0.711815,3.17418 -1.139184,4.50476 -0.427368,1.33058 -0.994826,3.83137 -1.26102,5.55731 l -0.483987,3.13808 -1.152999,-0.26987 c -0.634143,-0.14846 -1.830158,-0.73825 -2.657807,-1.31069 -0.82765,-0.57244 -1.944718,-1.11533 -2.482374,-1.20642 -0.537693,-0.0909 -1.091833,-0.27314 -1.231494,-0.40461 -0.378937,-0.35661 -3.807659,-6.82852 -3.76249,-7.10191 0.02143,-0.1297 -0.04501,-0.28991 -0.147655,-0.35603 -0.465225,-0.29972 -3.714563,-8.42638 -5.458464,-13.65175 -0.271455,-0.81337 -0.727397,-1.78465 -1.013207,-2.15838 l -0.519651,-0.67953 -0.130476,0.78968 c -0.07176,0.43433 -0.072,1.14922 -5.25e-4,1.58865 0.07147,0.43942 -0.02139,2.46342 -0.206362,4.49777 -0.346236,3.80798 -0.44762,6.49498 -0.328809,8.71457 0.03743,0.69925 0.06533,1.91063 0.062,2.69195 -0.0033,0.78131 0.03447,1.90998 0.08401,2.50814 0.04954,0.59817 0.115793,1.81588 0.147233,2.70604 0.07501,2.12372 -1.012745,10.72214 -1.4039985,11.09822 -0.1636695,0.15732 -0.5483275,0.24973 -0.854796,0.20534 -0.3064407,-0.0446 -0.9027818,0.21912 -1.3251434,0.58557 -0.9385988,0.81435 -1.0362259,0.80359 -1.5734862,-0.17342 z"
       id="path827" /><path
       style="fill:#000000;stroke-width:0.264583"
       d="m 88.865482,266.08464 c -0.181898,-0.18406 -0.330728,-0.48231 -0.330728,-0.66279 0,-0.18048 -0.57561,-1.0794 -1.27913,-1.99761 -0.70352,-0.9182 -1.39724,-2.02421 -1.54159,-2.45779 -0.28923,-0.86868 -0.30095,-0.8189 1.21706,-5.16479 0.79999,-2.29025 2.010108,-7.19727 2.936208,-11.90625 0.15741,-0.80037 0.45776,-2.00697 0.66745,-2.68135 0.20969,-0.67437 0.38125,-1.53353 0.38125,-1.90925 0,-0.37571 0.16548,-1.07411 0.36774,-1.55199 0.20226,-0.47788 0.56967,-1.82137 0.81648,-2.98554 0.2468,-1.16417 0.56901,-2.59292 0.71602,-3.175 0.28189,-1.11615 0.80317,-3.52302 1.28933,-5.95312 0.16012,-0.80037 0.46106,-1.99099 0.66875,-2.64584 0.2077,-0.65484 0.37704,-1.50307 0.37632,-1.88496 -7.9e-4,-0.38189 0.17729,-1.20053 0.39557,-1.8192 0.21828,-0.61868 0.39687,-1.50013 0.39687,-1.95877 0,-0.45865 0.16256,-1.06876 0.36124,-1.3558 0.19868,-0.28704 0.45242,-0.81955 0.56388,-1.18335 0.32393,-1.05735 1.16926,-2.09596 2.27306,-2.79276 1.446348,-0.91303 2.378798,-0.84127 3.561428,0.27408 l 0.97644,0.92091 -0.17594,2.05566 c -0.0968,1.13061 -0.28949,2.94862 -0.42825,4.04003 -0.13877,1.0914 -0.3729,3.9489 -0.52029,6.35 -0.52946,8.62502 -1.04161,13.11158 -1.90278,16.66875 -0.15854,0.65484 -0.37249,1.78593 -0.47545,2.51354 -0.212168,1.49934 -0.653298,3.39482 -1.208988,5.19488 -0.20818,0.67438 -0.37851,1.43029 -0.37851,1.67981 0,0.24952 -0.17442,0.82885 -0.38759,1.28741 -0.21316,0.45855 -0.4984,1.34078 -0.63385,1.96051 -0.30443,1.3929 0.0533,1.68105 1.64382,1.32414 0.60358,-0.13544 2.312898,-0.38511 3.798498,-0.55483 1.4856,-0.16972 2.84887,-0.45742 3.02948,-0.63932 0.18061,-0.1819 0.51994,-0.33073 0.75407,-0.33073 0.23412,0 0.65679,-0.1748 0.93927,-0.38846 0.28247,-0.21365 0.75171,-0.39603 1.04276,-0.40529 0.29104,-0.009 0.76028,-0.19163 1.04275,-0.40529 0.28248,-0.21365 0.97003,-0.38846 1.52791,-0.38846 0.85205,0 1.05666,0.11141 1.27908,0.69641 0.32166,0.84602 0.14528,1.48026 -0.80871,2.90807 -0.82414,1.23348 -1.20186,2.31162 -1.44817,4.13358 -0.14591,1.07925 -0.26955,1.2808 -0.8796,1.43391 -0.39041,0.098 -1.28139,0.51516 -1.97996,0.92705 -0.69857,0.4119 -1.43646,0.7489 -1.63975,0.7489 -0.20329,0 -0.4412,0.11583 -0.5287,0.2574 -0.28682,0.4641 -2.14314,0.80431 -7.462568,1.3677 -7.4834,0.79257 -8.62243,0.85018 -9.01218,0.4558 z"
       id="path728" /><path
       style="fill:#000000;stroke-width:0.577571"
       d="m 60.145304,199.99977 c -3.072415,-0.22416 -9.195731,-2.77324 -12.144491,-5.05562 -3.923719,-3.03701 -5.667597,-6.16014 -6.688815,-11.97904 -0.785918,-4.47817 -0.758891,-5.25484 0.294849,-8.47329 1.360215,-4.1545 3.417918,-7.58022 7.873203,-13.10757 4.469562,-5.54504 7.090652,-7.20572 11.35805,-7.19625 5.551837,0.0123 8.455721,1.68368 8.874624,5.10791 0.354836,2.90053 -0.192397,4.35855 -5.225413,4.51607 -3.866458,0.12101 -3.983601,0.16741 -6.385451,2.52954 -3.886958,3.82267 -7.605701,10.41801 -7.428439,14.22408 0.182653,3.92196 1.197016,5.27901 3.91869,7.54604 4.215978,3.51166 3.151344,3.30772 12.133549,2.20802 4.969623,-0.60843 7.024512,-1.19136 9.638833,-2.19014 8.77334,-3.35181 10.389969,-1.88078 2.579849,5.80823 -2.643529,2.60252 -3.667498,3.20631 -6.950366,4.09831 -4.300551,1.16852 -8.685318,2.1945 -11.848668,1.96374 z"
       id="path754"
       sodipodi:nodetypes="sssssssssssssssss" /></g></svg>
