<?xml version="1.0" encoding="UTF-8" standalone="no"?>
<!-- Created with Inkscape (http://www.inkscape.org/) -->

<svg
   width="218.5253mm"
   height="205.31993mm"
   viewBox="0 0 218.5253 205.31993"
   version="1.1"
   id="svg676"
   xml:space="preserve"
   inkscape:version="1.2.2 (732a01da63, 2022-12-09)"
   sodipodi:docname="no_touchy.svg"
   xmlns:inkscape="http://www.inkscape.org/namespaces/inkscape"
   xmlns:sodipodi="http://sodipodi.sourceforge.net/DTD/sodipodi-0.dtd"
   xmlns="http://www.w3.org/2000/svg"
   xmlns:svg="http://www.w3.org/2000/svg"><sodipodi:namedview
     id="namedview678"
     pagecolor="#505050"
     bordercolor="#eeeeee"
     borderopacity="1"
     inkscape:showpageshadow="0"
     inkscape:pageopacity="0"
     inkscape:pagecheckerboard="0"
     inkscape:deskcolor="#505050"
     inkscape:document-units="mm"
     showgrid="false"
     inkscape:zoom="0.73851712"
     inkscape:cx="336.48509"
     inkscape:cy="519.96087"
     inkscape:window-width="1920"
     inkscape:window-height="1009"
     inkscape:window-x="-8"
     inkscape:window-y="-8"
     inkscape:window-maximized="1"
     inkscape:current-layer="layer1" /><defs
     id="defs673" /><g
     inkscape:label="Layer 1"
     inkscape:groupmode="layer"
     id="layer1"
     transform="translate(7.4160956,-11.070537)"><path
       style="fill:#000000;stroke-width:0.264583"
       d="m 24.630474,215.86559 c -2.753907,-0.93749 -4.856609,-3.04156 -5.650788,-5.65448 -0.253955,-0.83554 -0.334324,-5.04341 -0.334324,-17.50413 0,-18.29861 -0.0604,-17.64502 1.877541,-20.31547 2.118445,-2.91917 7.752625,-4.1391 12.117456,-2.62371 1.760693,0.61128 3.752138,2.45173 4.617122,4.26704 l 0.702463,1.47423 0.07756,16.3734 c 0.05235,11.05048 -0.01587,16.82351 -0.209863,17.75791 -0.639712,3.08147 -2.843778,5.43464 -5.930862,6.33209 -1.938536,0.56354 -5.448557,0.51192 -7.266303,-0.10688 z m 5.385176,-6.34443 c 0.348877,-0.67465 0.40314,-2.9462 0.39977,-16.73489 -0.003,-12.2761 -0.08055,-16.10577 -0.336355,-16.61135 -0.622884,-1.23108 -2.759778,-1.39781 -3.367256,-0.26273 -0.192948,0.36053 -0.278122,5.73127 -0.267259,16.85194 0.01807,18.49412 -0.09045,17.53765 1.989699,17.53765 1.036582,0 1.226111,-0.0936 1.581401,-0.78062 z m 59.059292,6.23845 c -2.166363,-0.73819 -4.066264,-2.45205 -4.996767,-4.50748 l -0.609899,-1.34723 -0.07782,-16.53646 c -0.05765,-12.25191 0.0045,-16.84494 0.24008,-17.72708 0.732549,-2.74364 2.606169,-4.83851 5.2407,-5.85956 2.139955,-0.82936 6.399805,-0.81694 8.575492,0.025 2.490187,0.96365 3.845822,2.40847 4.853802,5.17309 0.44746,1.22728 0.48233,2.51834 0.48233,17.85937 v 16.53646 l -0.62901,1.5875 c -0.92111,2.3247 -2.876936,4.16055 -5.195331,4.87663 -2.467055,0.762 -5.502516,0.7311 -7.883581,-0.0803 z m 5.530972,-6.0146 c 0.481468,-0.53184 0.507624,-1.24541 0.584335,-15.94115 0.04417,-8.4614 0.0097,-15.87297 -0.07655,-16.47013 -0.304758,-2.10953 -2.100789,-2.92668 -3.455363,-1.5721 l -0.649433,0.64943 v 16.33299 16.333 l 0.575286,0.61236 c 0.760992,0.81004 2.3129,0.83859 3.021727,0.0556 z m 22.185476,6.25093 c -3.47019,-1.09643 -5.31081,-3.07994 -5.92097,-6.38063 -0.18329,-0.99146 -0.28236,-8.19449 -0.28236,-20.52879 v -19.00141 h 3.83646 3.83646 l 5.3e-4,19.11614 c 2.6e-4,17.66941 0.0354,19.18624 0.46302,20.04219 0.41563,0.832 0.58588,0.93405 1.67641,1.00493 0.89015,0.0579 1.31344,-0.0411 1.5875,-0.37126 0.31176,-0.37553 0.39563,-3.69961 0.50599,-20.05493 l 0.13229,-19.60478 3.64599,-0.0737 3.64598,-0.0737 -0.0741,20.04971 -0.0742,20.0497 -0.79375,1.56925 c -1.05597,2.08765 -3.02405,3.65277 -5.31772,4.22892 -1.96593,0.49383 -5.34997,0.50777 -6.8675,0.0283 z m 26.86959,-0.0224 c -2.84907,-0.9017 -4.55195,-2.53938 -5.38093,-5.17491 -0.41401,-1.31627 -0.44844,-2.97417 -0.38135,-18.3682 l 0.0737,-16.92133 0.68531,-1.45521 c 0.99889,-2.12106 1.91421,-3.06263 3.89905,-4.01085 1.60608,-0.76727 2.00474,-0.84533 4.41147,-0.86372 4.58841,-0.0351 6.56973,0.93562 8.05959,3.94853 0.89154,1.80294 0.91833,1.95036 1.00982,5.55625 0.0517,2.03729 -0.007,4.35901 -0.12932,5.15937 -0.25404,1.65552 0.12291,1.54197 -3.91686,1.1799 l -2.12052,-0.19005 0.2344,-2.65388 c 0.29162,-3.30181 -0.0683,-5.91944 -0.90809,-6.6042 -0.8023,-0.65419 -2.4159,-0.60444 -3.04791,0.094 -0.48437,0.53528 -0.50403,1.20429 -0.50403,17.1573 0,18.17887 -0.0782,17.31256 1.59109,17.62572 1.20837,0.22669 1.9175,-0.0543 2.37637,-0.94167 0.52195,-1.00935 0.75189,-4.42399 0.46728,-6.9392 -0.16778,-1.4827 -0.14771,-2.07389 0.0733,-2.15869 0.16738,-0.0642 1.50311,-0.20176 2.9683,-0.30564 l 2.66398,-0.18887 0.18449,1.47662 c 0.10147,0.81214 0.13609,3.23775 0.0769,5.39026 -0.0993,3.61521 -0.16331,4.02911 -0.83875,5.42799 -0.90405,1.87231 -2.45677,3.23844 -4.28476,3.76985 -1.73676,0.50489 -5.65369,0.49986 -7.26256,-0.009 z M -7.4160956,192.96342 v -22.8946 l 3.241146,0.0743 3.24114541,0.0743 2.40402979,9.60197 c 1.3222163,5.28109 2.5051443,9.59732 2.6287287,9.59163 0.1235843,-0.006 0.2662066,-4.32659 0.3169383,-9.60198 l 0.09224,-9.59162 3.033719,-0.0745 3.0337194,-0.0745 v 22.9038 22.90381 l -2.8240281,-0.0751 -2.824028,-0.0751 -1.1273668,-4.49791 c -2.85220379,-11.37959 -4.62201809,-18.23251 -4.73884429,-18.34934 -0.07007,-0.0701 -0.12985301,0.0413 -0.13285151,0.24743 -0.003,0.20615 -5.821e-4,5.40521 0.00536,11.55347 l 0.010805,11.17864 h -3.1803539 -3.180354 z m 69.5854146,3.05793 V 176.17053 H 59.12661 56.083902 v -3.04271 -3.04271 h 10.037143 10.037143 l 0.08317,2.78369 c 0.04574,1.53103 0.04348,2.90024 -0.005,3.04271 -0.05063,0.14868 -1.374193,0.25902 -3.107168,0.25902 h -3.018976 l -0.06783,19.7776 -0.06783,19.7776 -3.902604,0.0732 -3.902604,0.0732 z m 113.972411,9.71636 -0.0693,-10.12031 -2.28395,-0.076 -2.28395,-0.076 -0.18319,0.72986 c -0.10075,0.40143 -0.15355,4.90047 -0.11734,9.99787 l 0.0659,9.268 -3.75027,0.0734 -3.75028,0.0734 V 192.8465 170.08507 h 3.70083 3.70082 l 0.0695,9.45885 0.0695,9.45886 2.44739,0.0761 2.4474,0.0761 v -9.53493 -9.53493 h 3.83646 3.83646 v 22.88646 22.88645 h -3.83332 -3.83331 z m 20.7005,1.22679 c 0,-8.01709 -0.053,-9.11872 -0.53807,-11.17865 -0.29594,-1.25681 -0.7047,-2.99949 -0.90837,-3.87262 -0.20366,-0.87312 -0.73543,-3.10554 -1.18172,-4.96093 -1.77085,-7.36219 -2.38202,-9.93831 -2.80899,-11.84011 -0.24503,-1.0914 -0.61019,-2.57153 -0.81147,-3.28916 -0.20128,-0.71764 -0.36596,-1.40225 -0.36596,-1.52136 0,-0.27135 8.199,-0.28945 8.21047,-0.0181 0.009,0.2181 0.51939,3.68747 1.17694,8.00364 0.23278,1.52797 0.53896,3.61157 0.68039,4.63021 0.4289,3.08912 0.53071,3.57188 0.75332,3.57188 0.20343,0 0.3909,-0.92832 1.22895,-6.08542 0.201,-1.23693 0.55354,-3.38005 0.78342,-4.7625 0.22988,-1.38245 0.51206,-3.13852 0.62708,-3.90239 0.11502,-0.76386 0.28203,-1.46174 0.37113,-1.55084 0.1809,-0.18091 6.85542,-0.14159 7.03846,0.0415 0.064,0.064 -0.14835,1.21849 -0.47184,2.5656 -0.32349,1.34711 -0.75343,3.16367 -0.95543,4.03679 -0.35824,1.54847 -0.99497,4.2191 -2.87018,12.03855 -0.50603,2.11005 -1.11953,4.72942 -1.36334,5.82083 -0.24382,1.09141 -0.55098,2.32956 -0.68259,2.75146 -0.13161,0.4219 -0.23929,4.73791 -0.23929,9.59114 v 8.82406 h -3.83645 -3.83646 z M 94.316193,161.85253 c -1.309688,-0.12296 -2.917032,-0.33947 -3.571875,-0.48114 -0.654844,-0.14167 -1.726406,-0.33425 -2.38125,-0.42797 -3.134252,-0.44855 -10.783491,-2.68339 -15.345833,-4.48351 -3.575026,-1.41057 -10.065507,-4.61732 -10.233956,-5.05629 -0.07818,-0.20375 0.111866,-0.91086 0.422336,-1.57136 1.180637,-2.5117 1.430006,-3.31585 1.123344,-3.62251 -0.291182,-0.29118 -1.771338,1.15271 -3.085682,3.01009 -0.291042,0.41129 -0.68036,0.74985 -0.865153,0.75236 -0.344826,0.005 -2.442139,-1.23269 -2.442139,-1.44082 0,-0.0637 0.401775,-1.22577 0.892837,-2.58235 0.991097,-2.73795 2.536206,-5.92907 4.137662,-8.54554 0.580205,-0.94794 1.054918,-1.77918 1.054918,-1.84719 0,-0.068 0.367212,-0.72045 0.816025,-1.44987 1.177822,-1.9142 0.829344,-2.15041 -0.741434,-0.50256 -1.716796,1.80102 -2.623164,3.01721 -5.243806,7.03626 -1.158753,1.77708 -2.196123,3.23559 -2.305264,3.24114 -0.410038,0.0208 -0.175739,-2.10853 0.439142,-3.99103 0.642469,-1.96698 1.606431,-4.19113 3.458371,-7.97951 0.985171,-2.0153 3.997907,-5.83725 7.588028,-9.62616 0.849855,-0.89691 1.545188,-1.69684 1.545188,-1.77763 0,-0.25149 -0.785757,0.13686 -3.16371,1.56363 -1.262664,0.7576 -2.564667,1.52138 -2.893341,1.69728 -1.134806,0.60733 -0.160237,-0.61936 2.12425,-2.67378 6.593943,-5.9299 8.473953,-8.17648 11.034484,-13.18604 1.67362,-3.27435 2.732135,-6.08376 3.504618,-9.301575 0.961049,-4.003309 1.253657,-3.382668 -4.020904,-8.528621 -2.552131,-2.489901 -5.107665,-5.122407 -5.678964,-5.850011 -0.571299,-0.727605 -1.149207,-1.40257 -1.284242,-1.499921 -0.135036,-0.09735 -1.028005,0.536967 -1.984375,1.4096 -1.278798,1.166828 -2.578886,1.992439 -4.913858,3.120514 -5.689848,2.748891 -10.2188,3.826415 -16.139583,3.839922 -4.165883,0.0095 -5.454517,-0.249915 -5.963237,-1.200468 -0.749231,-1.399952 0.199046,-2.600851 4.189436,-5.305483 3.075959,-2.084848 7.278389,-5.349819 8.123801,-6.31159 0.291042,-0.331097 2.136511,-1.824482 4.101042,-3.318634 1.964531,-1.494153 3.962939,-3.203588 4.440909,-3.79875 l 0.869032,-1.082109 -0.591219,-1.37433 c -0.65455,-1.521542 -0.764744,-2.958354 -0.265198,-3.457901 0.496899,-0.496898 2.274618,-0.339637 3.295923,0.291563 0.501584,0.309997 1.034814,0.563629 1.184955,0.563629 0.299074,0 2.874288,-2.613139 4.432638,-4.497917 1.093301,-1.322318 4.00956,-4.50265 5.850679,-6.380472 0.955801,-0.974854 1.179652,-1.375015 1.110067,-1.984374 -0.08512,-0.745374 -0.130548,-0.766382 -1.936814,-0.89557 -1.468604,-0.105037 -1.86732,-0.225322 -1.935424,-0.583875 -0.07391,-0.389088 0.197829,-0.462317 1.963629,-0.529166 l 2.049404,-0.07758 0.426501,-1.984375 c 0.234574,-1.091406 0.916352,-3.055937 1.515062,-4.365625 0.59871,-1.309687 1.278228,-3.23819 1.51004,-4.285564 0.488895,-2.208893 0.487736,-2.196727 0.209164,-2.196727 -0.116774,0 -0.426553,0.595781 -0.688403,1.323954 -0.759122,2.111049 -1.019787,1.928775 -0.913734,-0.638937 0.103278,-2.500473 0.275508,-2.787324 1.682163,-2.801684 1.048067,-0.0107 1.11542,-0.06803 2.843223,-2.42041 0.817449,-1.112944 1.970651,-2.412793 2.562669,-2.888553 0.592019,-0.475759 1.076399,-0.970645 1.076399,-1.099746 0,-0.302977 -3.327862,1.444891 -4.95895,2.604552 -0.692139,0.492092 -1.298159,0.775536 -1.346713,0.629875 -0.166592,-0.499776 0.839393,-2.780105 2.042969,-4.630926 0.662419,-1.018646 2.108957,-2.760351 3.214529,-3.870455 1.786467,-1.793791 2.407187,-2.212004 5.578578,-3.758594 1.962645,-0.957121 3.800031,-1.998016 4.083079,-2.313099 l 0.514633,-0.572878 -1.455208,0.18751 c -1.458746,0.187966 -3.380071,0.662013 -5.499351,1.356849 -1.483508,0.48639 -1.553623,0.473138 -0.961049,-0.181646 1.764427,-1.949673 8.665805,-4.595781 13.028389,-4.995312 4.32174,-0.39579 9.13788,0.625507 13.60649,2.885351 1.12778,0.570339 2.05052,0.937203 2.05052,0.815254 0,-0.38872 -3.51102,-3.455557 -5.22552,-4.564436 -0.90951,-0.588236 -1.65365,-1.152159 -1.65365,-1.253163 0,-0.880303 1.79285,0.0081 6.81179,3.375454 2.073,1.390829 3.8478,2.450065 3.944,2.353858 0.26515,-0.26515 -0.67325,-2.166184 -1.48466,-3.007648 -0.98469,-1.021163 -2.71463,-3.787253 -2.36858,-3.787253 0.49769,0 3.31729,2.32179 4.40612,3.628199 0.5806,0.696626 1.31101,1.742843 1.62313,2.324926 0.73827,1.376815 1.04668,1.861383 2.07802,3.264878 l 0.85461,1.162998 0.26987,-0.709808 c 0.14843,-0.390394 0.26683,-0.791354 0.26312,-0.891022 -0.0134,-0.359604 1.73062,-4.543182 1.89467,-4.544987 0.0925,-10e-4 0.25161,2.051977 0.35364,4.562212 0.10894,2.680265 0.35117,5.164693 0.58686,6.01927 0.81336,2.949092 2.02011,6.515113 2.59652,7.672917 0.86202,1.731482 1.39012,3.81028 1.57956,6.217708 0.24845,3.157268 0.79939,5.066998 2.97688,10.31875 1.08604,2.619375 2.21266,5.357812 2.5036,6.085416 0.91324,2.283955 3.48311,7.245593 6.02979,11.641666 1.34882,2.328334 2.65804,4.590521 2.90938,5.027084 2.23508,3.882207 4.94093,7.429076 9.79288,12.836659 4.915,5.477854 9.77972,10.049666 17.14997,16.117357 2.76528,2.27655 2.98489,2.52486 2.91042,3.29062 l -0.0806,0.82827 -2.51354,0.21363 c -3.35063,0.28477 -13.25504,0.0528 -15.08125,-0.35324 -0.80037,-0.17795 -2.14349,-0.66939 -2.98472,-1.09208 -2.03529,-1.02267 -5.72378,-3.66285 -6.74983,-4.831455 -1.79434,-2.043652 -4.5621,-6.73513 -7.19335,-12.193095 -2.43467,-5.050192 -2.91696,-6.154018 -3.09057,-7.073442 -0.21103,-1.117619 -0.90403,-2.319266 -1.33754,-2.319266 -0.65683,0 -0.28668,5.593447 1.10308,16.668749 1.83558,14.628139 2.68063,20.496519 3.94336,27.384369 0.46017,2.51016 1.65994,8.08181 2.02256,9.39271 0.14089,0.50932 0.54495,1.9976 0.89792,3.30729 0.9981,3.7035 1.99082,7.04718 2.4171,8.14129 0.39466,1.01294 0.52469,2.00481 0.22332,1.70344 -0.0909,-0.0909 -0.54626,-1.09304 -1.01182,-2.22691 -0.46556,-1.13387 -1.03723,-2.47829 -1.27038,-2.98761 -0.23316,-0.50933 -0.87248,-1.99761 -1.42073,-3.30729 -0.89753,-2.14408 -1.37153,-2.9182 -1.62909,-2.66063 -0.10349,0.10348 0.19909,1.09744 2.48245,8.15473 0.93059,2.87623 1.69199,5.39967 1.69199,5.60764 0,0.61565 -1.10531,1.61287 -2.38125,2.14837 -0.65484,0.27483 -2.11796,1.12669 -3.25137,1.89302 -1.13341,0.76633 -2.15893,1.39332 -2.27895,1.39332 -0.12001,0 -0.36981,-0.71437 -0.5551,-1.5875 -0.18529,-0.87312 -0.43446,-1.5875 -0.55372,-1.5875 -0.11927,0 -0.25183,0.85073 -0.29458,1.89051 -0.0551,1.34013 -0.19328,1.95697 -0.47461,2.11881 -0.76999,0.44292 -5.97462,2.82722 -7.65239,3.50565 -1.80654,0.73049 -2.40178,0.83948 -2.40178,0.43976 0,-0.13605 -0.12349,-0.57216 -0.27442,-0.96913 -0.33308,-0.87608 -0.75465,-0.57627 -1.02102,0.72613 -0.16496,0.80655 -0.34834,0.94673 -2.15441,1.6469 -2.89386,1.12188 -5.40993,1.6971 -9.33271,2.13363 -7.83783,0.8722 -16.356364,1.12921 -21.480977,0.64808 z m 80.777657,-56.75366 c 0.96388,-0.14786 1.12587,-0.26008 1.05833,-0.73323 -0.0697,-0.48815 -0.28008,-0.56749 -1.66724,-0.62867 -2.03747,-0.0899 -6.02362,-0.75096 -8.58195,-1.42329 -1.10076,-0.28928 -2.47764,-0.64134 -3.05972,-0.78235 -2.32587,-0.56345 -5.99726,-2.662575 -8.02394,-4.587717 -1.71772,-1.631665 -4.27918,-4.792308 -4.27918,-5.280168 0,-0.09355 -0.2775,-0.614214 -0.61666,-1.157026 -0.83737,-1.340167 -2.06994,-3.617454 -4.75872,-8.792138 -2.48152,-4.775822 -4.19496,-8.812249 -5.72218,-13.480044 -0.54507,-1.665952 -1.14666,-3.080875 -1.33687,-3.144277 -0.24916,-0.08306 -0.29759,0.06102 -0.17325,0.515462 0.0949,0.346903 0.29425,2.714328 0.44298,5.260943 0.24142,4.133516 0.32701,4.673248 0.79787,5.031438 0.29009,0.220678 0.65335,0.857231 0.80724,1.414563 0.15388,0.557334 0.80681,2.133692 1.45094,3.50302 0.64413,1.369329 1.17115,2.554673 1.17115,2.634099 0,0.369287 3.95767,7.986183 5.57821,10.735783 2.07221,3.515937 4.59466,6.266982 7.54408,8.227752 2.38584,1.5861 4.18643,2.24316 7.41196,2.70471 2.6059,0.37288 9.4738,0.36205 11.95695,-0.0189 z M 89.392421,96.995849 c 0.866463,-0.4216 3.556241,-2.939565 9.289396,-8.696026 4.755783,-4.775112 8.667393,-8.478903 9.524993,-9.018923 0.80037,-0.503978 2.21161,-1.769983 3.13611,-2.813346 0.92449,-1.043363 1.84722,-1.897023 2.05052,-1.897023 0.53335,0 0.45312,0.267076 -0.43149,1.436196 -0.71344,0.942914 -1.00881,1.738804 -0.6453,1.738804 0.0776,0 0.70268,-0.283803 1.38906,-0.630674 2.31892,-1.171884 5.26487,-1.736315 11.85574,-2.271509 5.19527,-0.42187 6.95233,-1.030165 7.80535,-2.702229 0.44094,-0.864311 0.57227,-1.920978 0.80153,-6.449107 0.1508,-2.978486 0.22438,-5.562806 0.1635,-5.742935 -0.0609,-0.180128 -0.64915,0.51121 -1.30727,1.536301 -1.35844,2.115899 -1.94885,2.58622 -3.72109,2.964201 -2.00108,0.426789 -3.4809,-0.01934 -4.95554,-1.493988 -2.13226,-2.132256 -3.3774,-4.695786 -3.6741,-7.564343 l -0.16389,-1.584488 -1.43803,-0.206317 c -1.59166,-0.22836 -1.73693,-0.297715 -1.48327,-0.708142 0.0959,-0.155202 0.76269,-0.282186 1.48171,-0.282186 h 1.3073 l 0.002,-2.050521 c 0.002,-2.525894 0.38791,-4.993242 1.08258,-6.929865 0.29014,-0.808861 0.59541,-1.679014 0.67838,-1.933676 0.13929,-0.427543 -0.16334,-0.463021 -3.94964,-0.463021 h -4.10049 l -0.28058,-1.124479 c -0.15431,-0.618463 -0.36543,-1.772602 -0.46916,-2.564754 l -0.18859,-1.440274 1.27293,1.0434 1.27294,1.043399 6.63274,0.09053 c 6.6323,0.09052 6.63284,0.09058 8.28875,0.841404 0.91081,0.41298 1.71338,0.658069 1.78348,0.544642 0.24029,-0.3888 -1.45171,-2.353686 -2.70371,-3.139757 -0.90426,-0.567744 -1.72182,-0.831648 -2.94455,-0.950484 -1.73624,-0.168733 -2.40844,-0.482151 -2.40844,-1.122898 0,-0.248836 0.33579,-0.364478 1.05833,-0.364478 0.58208,0 1.05833,-0.09274 1.05833,-0.206081 0,-0.628367 -6.13238,-5.871915 -7.99179,-6.833453 -1.87006,-0.967048 -1.89903,-0.963451 -3.82288,0.474648 -3.34107,2.497506 -8.19003,6.779135 -8.91072,7.868176 -0.66516,1.00513 -2.61287,2.665459 -3.1268,2.665459 -0.6793,0 0.40029,-4.104856 2.14541,-8.157339 1.274,-2.958459 1.0423,-3.072046 -1.70884,-0.837737 -3.024,2.455913 -5.35509,4.70351 -7.096141,6.841985 -1.222912,1.50206 -4.077343,3.90009 -4.335306,3.642127 -0.209521,-0.209521 0.72114,-5.49026 1.237961,-7.024415 0.298487,-0.88605 0.891609,-2.178041 1.318049,-2.871091 0.705919,-1.147266 1.454779,-3.468009 1.200962,-3.721826 -0.05726,-0.05726 -0.823955,0.376597 -1.703774,0.964118 -0.879821,0.587521 -2.046671,1.214965 -2.593004,1.394318 -1.51294,0.496681 -2.676355,1.340727 -4.587377,3.328094 -2.12162,2.206381 -3.461512,3.928218 -3.233936,4.155794 0.09312,0.09312 1.186238,0.169306 2.429155,0.169306 2.24154,0 2.267831,-0.0078 3.24453,-0.961512 0.636434,-0.621461 1.134298,-0.904097 1.407737,-0.799169 0.354774,0.13614 0.25405,0.430127 -0.624036,1.821408 -0.5759,0.912485 -1.248005,2.25158 -1.493565,2.975763 -0.24556,0.724186 -0.892815,1.974342 -1.438346,2.778125 -1.010584,1.488988 -1.531308,2.530634 -4.301773,8.605176 -1.993045,4.369964 -2.13958,4.894747 -1.995152,7.145234 0.141209,2.200336 0.764644,3.342553 3.226869,5.912072 2.772926,2.893759 2.44139,2.905834 7.120879,-0.25935 2.207803,-1.493348 4.728562,-3.22794 5.601687,-3.854651 2.073706,-1.488461 4.454381,-2.725597 5.244991,-2.725597 0.68801,0 2.22154,0.938385 2.64365,1.617684 0.14595,0.234881 0.19062,0.621834 0.0993,0.859896 -0.13981,0.364344 -0.62557,0.432837 -3.0697,0.432837 -3.445113,0 -4.002619,0.246009 -9.019256,3.979923 -1.091407,0.81234 -2.998282,2.133327 -4.237501,2.935528 -2.392068,1.548493 -4.229166,3.038748 -4.229166,3.430707 0,0.130447 1.815703,0.241358 4.034896,0.24647 4.109577,0.0095 6.55615,0.35062 8.003646,1.116038 1.013872,0.536123 2.859711,2.461551 3.410812,3.557882 0.553215,1.100537 0.545314,1.137618 -0.242361,1.137618 -0.451268,0 -0.742183,-0.195096 -0.89662,-0.6013 -0.348578,-0.917125 -1.746623,-2.159855 -3.27629,-2.912406 -1.254165,-0.617014 -1.847588,-0.702877 -6.668344,-0.964843 -6.245468,-0.339389 -8.272171,-0.683091 -17.330208,-2.938971 -0.654843,-0.163086 -2.619375,-0.774959 -4.365625,-1.359717 -4.336962,-1.452295 -4.567697,-1.485818 -4.766796,-0.692547 -0.156528,0.623649 0.08399,1.21848 2.759223,6.823951 1.749303,3.665349 1.991508,4.045434 5.643702,8.85649 2.577653,3.395551 13.593776,14.262377 15.221511,15.015217 1.341059,0.620247 2.547927,0.582994 3.999838,-0.123473 z M 126.4081,68.351902 c -2.51806,-0.925364 -4.84437,-3.126586 -4.66231,-4.411612 0.079,-0.557466 0.27646,-0.436168 2.12608,1.305851 2.0568,1.93716 2.89789,2.445224 4.04801,2.445224 0.75529,0 1.13615,0.497173 0.6276,0.819279 -0.48646,0.308121 -0.96574,0.272558 -2.13938,-0.158742 z m -75.351281,21.57032 c 4.044521,-0.349441 9.34589,-2.087872 12.391427,-4.06341 2.213649,-1.435917 4.806891,-3.794024 4.805224,-4.369517 -0.0017,-0.571508 -1.706731,-2.420847 -2.232003,-2.420847 -0.224489,0 -1.808139,0.703371 -3.519218,1.563044 -3.296687,1.65631 -4.402272,1.972659 -10.665608,3.051829 -4.207372,0.724929 -5.16686,1.006271 -7.571509,2.220134 -1.698705,0.857502 -2.997896,2.139953 -2.997896,2.959262 0,0.631473 0.302561,0.807407 2.101247,1.22184 1.441449,0.332126 2.134766,0.317487 7.688336,-0.162335 z M 83.203693,68.340359 c 0.582083,-0.463995 1.34689,-0.993677 1.699575,-1.177073 l 0.641241,-0.333449 -1.3027,-1.229845 C 83.525323,64.92358 82.609897,63.975067 82.207526,63.492187 l -0.731581,-0.877962 -1.385085,0.872548 c -0.761797,0.479899 -2.053463,1.378601 -2.87037,1.997115 -0.816909,0.618511 -1.977768,1.321617 -2.579687,1.562457 -0.601922,0.240842 -1.094401,0.535585 -1.094401,0.654989 0,0.119404 0.684609,0.351632 1.521354,0.516065 0.836744,0.16443 1.699948,0.37026 1.918229,0.457396 0.668319,0.266792 4.613301,0.784801 4.894791,0.642728 0.145521,-0.07345 0.740834,-0.51317 1.322917,-0.977164 z M 78.342617,63.38919 c 0.219356,-0.336045 0.02297,-1.136693 -0.615495,-2.50938 -0.692271,-1.488358 -0.973981,-1.612985 -1.710515,-0.756714 -0.499494,0.580697 -0.618122,1.023784 -0.618122,2.308752 0,0.874575 0.12279,1.819576 0.27287,2.1 0.263853,0.493014 0.309748,0.486762 1.389062,-0.18924 0.613905,-0.384503 1.190895,-0.813541 1.2822,-0.953418 z m 50.920793,0.20951 c 1.23613,-0.247565 2.80188,-2.090362 4.17457,-4.913217 1.24771,-2.565842 1.65223,-4.721302 0.89644,-4.77669 -0.1819,-0.01333 -0.97053,-0.0431 -1.75249,-0.06614 -1.39657,-0.04116 -1.43581,-0.02151 -2.21369,1.108971 -0.80221,1.165831 -2.03134,1.891829 -3.20291,1.891829 -1.43999,0 -3.09445,-1.107564 -3.85351,-2.579687 -0.21159,-0.410358 -0.54582,-0.595312 -1.07578,-0.595312 -0.42286,0 -0.82907,0.09747 -0.9027,0.216601 -0.19004,0.307493 0.72006,3.70614 1.28817,4.810482 1.61953,3.148197 4.09398,5.503023 5.42905,5.166598 0.21828,-0.05501 0.76406,-0.173548 1.21285,-0.26343 z M 80.690151,61.517265 c 0,-0.329578 -0.105881,-0.712343 -0.235291,-0.850587 -0.129408,-0.138245 -0.432432,-0.96573 -0.673386,-1.838855 -0.240953,-0.873125 -0.682842,-2.173226 -0.98198,-2.889112 -0.381992,-0.91418 -0.496405,-1.59853 -0.384373,-2.299136 0.166,-1.038098 -0.123296,-1.526657 -0.568693,-0.960401 -0.486693,0.618757 -0.573553,2.383637 -0.203406,4.133003 0.317656,1.501304 1.486064,4.988134 1.89107,5.643449 0.246112,0.398219 1.156059,-0.340376 1.156059,-0.938361 z m 53.829599,-9.150532 c 0.20299,-0.328435 -0.83168,-6.715553 -1.34374,-8.295153 -0.2251,-0.69437 -0.81618,-1.693931 -1.3135,-2.221248 l -0.90422,-0.958752 -3.36222,0.145203 c -3.11533,0.134541 -3.39898,0.190606 -3.86289,0.763513 -1.57682,1.947286 -2.56178,5.228056 -2.56178,8.532905 v 2.276914 h 6.59896 c 3.73068,0 6.66435,-0.105788 6.74939,-0.243382 z M 82.191876,48.905949 c 2.066295,-4.659183 2.432947,-5.417587 3.642431,-7.534219 0.663215,-1.160643 1.205844,-2.381033 1.205844,-2.71198 0,-0.532526 -0.129302,-0.600977 -1.124479,-0.595264 -1.049168,0.006 -1.21857,0.116771 -2.529356,1.653645 -2.183196,2.559757 -5.077415,8.850855 -5.077415,11.036657 0,0.403887 1.049647,0.785847 1.979438,0.720304 0.727747,-0.0513 0.875104,-0.250182 1.903537,-2.569143 z m 0.328779,-9.357791 c 0.68326,-1.105538 0.695508,-1.490126 0.04746,-1.490126 -0.326626,0 -0.605242,0.292473 -0.79375,0.833231 -0.599895,1.720856 -0.1539,2.113426 0.746286,0.656895 z"
       id="path809" /></g></svg>
