<?xml version="1.0" encoding="UTF-8" standalone="no"?>
<!-- Created with Inkscape (http://www.inkscape.org/) -->

<svg
   width="264.58334mm"
   height="264.31876mm"
   viewBox="0 0 264.58334 264.31875"
   version="1.1"
   id="svg391"
   xml:space="preserve"
   inkscape:version="1.2.2 (732a01da63, 2022-12-09)"
   sodipodi:docname="Town 2.svg"
   xmlns:inkscape="http://www.inkscape.org/namespaces/inkscape"
   xmlns:sodipodi="http://sodipodi.sourceforge.net/DTD/sodipodi-0.dtd"
   xmlns="http://www.w3.org/2000/svg"
   xmlns:svg="http://www.w3.org/2000/svg"><sodipodi:namedview
     id="namedview393"
     pagecolor="#505050"
     bordercolor="#eeeeee"
     borderopacity="1"
     inkscape:showpageshadow="0"
     inkscape:pageopacity="0"
     inkscape:pagecheckerboard="0"
     inkscape:deskcolor="#505050"
     inkscape:document-units="mm"
     showgrid="false"
     inkscape:zoom="0.73851712"
     inkscape:cx="444.81027"
     inkscape:cy="468.50641"
     inkscape:window-width="1920"
     inkscape:window-height="1009"
     inkscape:window-x="-8"
     inkscape:window-y="-8"
     inkscape:window-maximized="1"
     inkscape:current-layer="layer1" /><defs
     id="defs388"><filter
       style="color-interpolation-filters:sRGB"
       inkscape:label="Lightness-Contrast"
       id="filter553"
       x="0"
       y="0"
       width="1"
       height="1"><feColorMatrix
         values="3.14058 0 0 0.615133 -1.07029 0 3.14058 0 0.615133 -1.07029 0 0 3.14058 0.615133 -1.07029 0 0 0 1 0"
         id="feColorMatrix551" /></filter></defs><g
     inkscape:label="Layer 1"
     inkscape:groupmode="layer"
     id="layer1"
     transform="translate(111.6858,-53.177738)"><path
       style="fill:#000000;stroke-width:0.264583"
       d="m -93.958716,236.3035 v -25.36592 l 1.348978,-0.17895 c 0.741938,-0.0984 1.81029,-0.36352 2.374115,-0.58912 1.344924,-0.53813 1.460681,-1.18991 1.074748,-6.05148 -0.367302,-4.62686 -0.378327,-6.2132 -0.04318,-6.2132 0.141208,0 0.907485,0.29765 1.702838,0.66146 1.711879,0.78302 2.154298,0.81959 2.401134,0.19843 0.362014,-0.91099 0.920059,-7.67203 0.925457,-11.21239 0.0074,-4.8291 -0.239527,-5.00552 -3.510644,-2.50862 -1.458261,1.11312 -2.825631,1.84504 -3.042232,1.62844 -0.126513,-0.12651 0.413885,-1.35622 1.4619,-3.32664 0.04081,-0.0767 -0.30035,-0.2809 -0.758143,-0.4537 l -0.832351,-0.31417 1.16067,-0.95492 c 1.551589,-1.27654 2.476305,-2.26147 3.130207,-3.33404 0.694182,-1.13864 0.685753,-1.68581 -0.03373,-2.18976 -0.520925,-0.36487 -0.542782,-0.46998 -0.222265,-1.06887 0.195511,-0.36532 0.570876,-0.89542 0.834145,-1.178 0.750201,-0.80525 1.551283,-2.22593 1.552367,-2.75307 5.3e-4,-0.26389 -0.764516,-1.9903 -1.700133,-3.83646 -2.935031,-5.7914 -2.971467,-5.966 -1.646827,-7.89169 1.200366,-1.74502 1.656355,-2.68902 1.870761,-3.8729 0.212714,-1.17454 0.938127,-3.47487 1.698119,-5.38483 l 0.540104,-1.35736 -0.547648,-1.02179 c -0.301204,-0.56198 -1.206638,-1.8779 -2.012075,-2.92426 l -1.464429,-1.90246 -1.298053,0.65777 c -1.103224,0.55905 -1.425305,0.61578 -2.145877,0.37797 -1.171033,-0.38648 -2.817952,-1.79711 -2.817952,-2.41366 0,-0.63843 0.113105,-0.63666 1.002901,0.0156 1.142931,0.83789 2.195006,0.93133 3.03617,0.26967 1.448255,-1.1392 0.67781,-2.89906 -1.514159,-3.45867 -1.858603,-0.4745 -1.936764,-0.54232 -1.069704,-0.92819 1.87392,-0.83396 3.81098,-0.19397 4.76289,1.57362 0.373282,0.69315 0.679668,0.95713 1.048464,0.90336 0.340869,-0.0497 0.889118,0.33577 1.585362,1.11465 0.585364,0.65485 1.720413,1.90771 2.522334,2.78414 0.801917,0.87643 1.906667,2.14146 2.454994,2.8112 l 0.996961,1.21769 -0.508778,1.18694 c -0.279829,0.65281 -0.651613,2.12621 -0.826185,3.27421 -0.223274,1.46826 -0.557602,2.47962 -1.127324,3.4102 -1.330245,2.17282 -2.042895,3.66858 -2.044067,4.29023 -0.0028,1.49812 1.754282,5.10248 2.487446,5.10248 0.560175,0 0.684839,-0.65029 0.275804,-1.43871 -0.3521,-0.67868 -0.331327,-0.73099 0.459629,-1.1574 1.482674,-0.79933 2.313382,-1.73266 3.458892,-3.88618 0.94619,-1.7788 1.231207,-2.11667 1.785578,-2.11667 0.626959,0 0.669467,0.0984 0.857335,1.98438 0.12229,1.22769 0.442399,2.47904 0.83947,3.28162 0.571616,1.15538 0.600929,1.35964 0.268047,1.86768 -0.337691,0.51538 -0.287105,0.73663 0.52415,2.29255 0.493853,0.94716 1.14704,2.13077 1.451528,2.63023 0.736211,1.20764 0.70181,1.46685 -0.238154,1.79452 -0.436563,0.15219 -0.79375,0.35074 -0.79375,0.44123 0,0.32222 1.592204,2.47139 2.865511,3.8679 1.640933,1.79971 1.892562,2.48702 0.993156,2.71276 -0.646922,0.16237 -0.650166,0.17734 -0.250375,1.15519 0.943004,2.30651 1.746766,3.70763 2.766285,4.82223 0.891103,0.97421 1.033153,1.26804 0.79634,1.64724 -0.229139,0.36691 -0.125867,0.71754 0.503762,1.71036 0.695391,1.09652 1.031327,2.20357 0.668673,2.20357 -0.371263,0 -2.440104,-1.12217 -4.754261,-2.57879 -1.445736,-0.91 -2.715948,-1.65454 -2.822691,-1.65454 -0.106741,0 -0.263319,1.48828 -0.347946,3.30729 -0.08463,1.81901 -0.222149,4.76581 -0.305602,6.54844 -0.185682,3.96642 -0.01019,4.56111 1.463032,4.95781 1.202082,0.32368 1.312485,0.68094 0.678977,2.19715 l -0.390975,0.93573 1.505098,1.48128 c 0.827805,0.81471 1.62882,1.4429 1.780035,1.39598 0.151217,-0.0469 0.445254,-0.46519 0.653418,-0.92949 0.590645,-1.31743 1.134414,-1.05772 2.66423,1.27247 0.764296,1.16417 1.464894,2.11667 1.556882,2.11667 0.09199,0 0.985168,-0.7825 1.984843,-1.73888 0.999676,-0.95639 1.915293,-1.641 2.034704,-1.52136 0.220443,0.22087 0.988211,2.79224 1.230202,4.12014 0.164211,0.90109 1.003265,0.99118 1.232138,0.13229 0.379645,-1.42469 0.576342,-1.40406 2.140905,0.22454 l 1.499997,1.5614 -0.152323,-2.64584 c -0.08378,-1.45521 -0.448371,-4.37224 -0.810207,-6.48229 -0.361839,-2.11005 -0.659032,-4.16388 -0.660432,-4.56406 -0.0013,-0.40018 -0.117057,-0.72761 -0.257019,-0.72761 -0.139962,0 -1.003165,0.77725 -1.918229,1.72721 -1.608095,1.66942 -1.683541,1.71327 -2.255261,1.31058 -0.348943,-0.24578 -0.76523,-1.01421 -1.015135,-1.87385 -0.352798,-1.21359 -0.371017,-1.67652 -0.108968,-2.76886 0.395523,-1.64872 0.228608,-2.09923 -0.777769,-2.09923 h -0.790197 l 0.6496,-1.72583 c 0.903263,-2.39975 0.869182,-3.25223 -0.144148,-3.60548 -0.436563,-0.15219 -0.791721,-0.35436 -0.789239,-0.44926 0.0024,-0.0949 0.35764,-0.76787 0.789239,-1.49547 1.415367,-2.38607 1.044885,-4.15083 -1.792806,-8.53987 -0.59054,-0.91339 -1.918875,-3.35417 -2.951856,-5.42396 -1.094801,-2.19366 -2.4282,-4.4199 -3.19695,-5.33763 -0.725342,-0.86591 -1.318805,-1.67256 -1.318805,-1.79255 0,-0.12 0.357188,-0.28962 0.79375,-0.37693 0.436563,-0.0873 0.79375,-0.25937 0.79375,-0.38235 0,-0.12298 -0.357187,-0.92649 -0.79375,-1.78559 -0.436562,-0.8591 -0.79375,-1.86736 -0.79375,-2.24058 0,-0.60538 1.296575,-3.35645 1.887665,-4.00523 0.125952,-0.13825 0.229002,-0.58473 0.229002,-0.99219 0,-0.68064 0.0812,-0.74083 0.999461,-0.74083 0.549706,0 1.274844,0.19288 1.611421,0.42863 l 0.61196,0.42863 -1.1484,1.17108 c -1.077974,1.09926 -1.146376,1.25703 -1.115394,2.57281 0.04521,1.92 0.598271,2.68274 2.252697,3.10675 1.137455,0.29152 1.379866,0.47227 1.712394,1.27679 0.917636,2.22013 1.798505,3.97989 1.99218,3.97989 0.239065,0 0.756598,-0.88783 0.756598,-1.29796 0,-0.15092 -0.3585,-0.3673 -0.796666,-0.48084 l -0.796668,-0.20644 0.618897,-0.92561 c 0.953931,-1.42667 1.3378,-3.19392 1.144807,-5.27044 -0.118615,-1.27624 -0.05615,-2.13007 0.211278,-2.88805 0.356521,-1.01049 0.348393,-1.08605 -0.133276,-1.23893 -0.643948,-0.20438 -0.64367,-0.57208 0.0016,-2.07736 0.985012,-2.29794 1.422816,-3.74789 1.587715,-5.2583 l 0.165944,-1.51997 -0.869508,-0.16312 c -0.478248,-0.0897 -0.869527,-0.21982 -0.869527,-0.28912 0,-0.0693 0.415422,-0.86884 0.923158,-1.77676 1.110408,-1.9856 2.168377,-5.20577 2.408957,-7.33224 0.174024,-1.53815 0.168873,-1.55403 -0.504201,-1.55403 -0.374009,0 -0.744548,-0.10441 -0.82342,-0.23202 -0.07887,-0.12762 0.145349,-1.05036 0.498266,-2.05053 0.816909,-2.31512 1.201407,-4.47919 1.201407,-6.76187 0,-0.99192 0.10061,-1.80349 0.223575,-1.80349 0.467003,0 1.060866,0.96652 1.219266,1.98437 0.481799,3.09597 0.756177,4.40097 1.270617,6.04329 0.504166,1.60953 0.767969,1.99608 2.382285,3.49069 1.796994,1.66374 1.810998,1.68735 1.385884,2.33615 -0.407699,0.62223 -0.394094,0.71145 0.268574,1.76118 0.658534,1.04319 1.17163,1.94595 2.703814,4.75723 0.356896,0.65485 0.756997,1.30374 0.889111,1.44198 0.462592,0.48406 0.231436,0.67469 -0.818126,0.67469 -0.582083,0 -1.058974,0.0893 -1.059757,0.19844 -0.0044,0.61236 1.832327,4.65449 2.707077,5.95756 1.001739,1.49225 1.088747,2.04609 0.321439,2.04609 -0.81121,0 -0.514194,0.63206 1.817675,3.86805 0.536837,0.74499 0.976066,1.4296 0.976066,1.52136 0,0.0918 -0.357187,0.16684 -0.79375,0.16684 -0.436562,0 -0.79375,0.0715 -0.79375,0.15895 0,0.29049 1.612426,5.76898 2.172573,7.38167 0.303268,0.87313 0.911937,2.34398 1.352598,3.26857 0.659167,1.38305 0.746051,1.76938 0.490098,2.17922 -0.466648,0.74722 -0.37915,1.65903 0.307981,3.20947 0.340497,0.7683 0.826124,1.96122 1.079171,2.65094 0.253048,0.68972 0.548712,1.30881 0.65703,1.37575 0.10832,0.0669 0.326787,-0.98785 0.485484,-2.34401 0.161295,-1.37836 0.525176,-2.9555 0.825145,-3.57636 0.295132,-0.61086 0.671409,-1.99997 0.836173,-3.08693 0.210818,-1.39076 0.684594,-2.7769 1.599108,-4.67855 0.714743,-1.48625 1.301244,-2.85109 1.303335,-3.033 0.0071,-0.61928 -0.720617,-0.33306 -1.513613,0.59532 -0.435052,0.50932 -1.038029,0.92604 -1.33995,0.92604 -0.484222,0 -0.531522,-0.11699 -0.401162,-0.99219 0.170564,-1.1451 0.614852,-1.58043 1.849287,-1.81202 0.484042,-0.0908 0.875699,-0.18161 0.870352,-0.2018 -0.985194,-3.71828 -0.846566,-3.46513 -1.981202,-3.61785 -1.255099,-0.16893 -1.713241,-0.41826 -1.713241,-0.93238 0,-0.26732 0.310917,-0.38126 1.040318,-0.38126 0.846307,0 1.14236,-0.14331 1.5875,-0.76845 0.769252,-1.08031 0.684953,-2.00156 -0.294698,-3.2206 -0.975067,-1.21335 -0.778812,-1.71167 0.465918,-1.18302 0.497691,0.21137 0.994807,0.72561 1.277662,1.32169 0.408443,0.86072 0.426051,1.19476 0.149426,2.83478 -0.332473,1.97112 -0.249227,2.82839 0.45421,4.67746 l 0.436851,1.14833 0.615051,-1.01603 c 0.338277,-0.55882 0.615661,-1.39497 0.616407,-1.8581 0.0016,-0.96734 0.588979,-1.28774 1.852232,-1.01028 1.54491,0.33932 2.650956,2.58515 1.875941,3.80913 -0.415555,0.65628 -1.080985,0.11794 -1.080985,-0.87453 0,-0.50531 -0.11422,-0.98933 -0.25382,-1.0756 -0.697235,-0.43092 -2.391431,1.78748 -3.429979,4.49126 -0.335378,0.87313 -0.763473,1.94469 -0.951322,2.38125 -1.321404,3.07092 -1.715268,4.17609 -1.718019,4.82067 -0.0019,0.40457 -0.190873,1.39042 -0.420328,2.19079 -0.229452,0.80036 -0.625668,2.5863 -0.88048,3.96875 -0.254815,1.38245 -0.673717,2.98979 -0.930895,3.57187 -0.25718,0.58209 -0.458964,1.43262 -0.44841,1.89008 0.02093,0.9071 0.85525,2.87878 2.139135,5.05524 l 0.819407,1.38906 h -0.783487 c -0.430919,0 -0.842066,0.0948 -0.913657,0.21062 -0.180014,0.29127 0.746191,3.0302 1.684142,4.98026 0.428292,0.89045 0.857364,2.11084 0.95349,2.71198 l 0.174773,1.09297 h -0.937924 c -0.515856,0 -1.493444,-0.23812 -2.172417,-0.52916 -1.617599,-0.69339 -1.666881,-0.6834 -1.866038,0.37821 -0.359346,1.91548 0.918657,24.57926 1.413743,25.07089 0.276019,0.2741 2.551631,-0.94707 4.815935,-2.58439 1.090314,-0.7884 2.173746,-1.43346 2.407624,-1.43346 0.351684,0 0.455142,0.46906 0.598152,2.71198 0.159781,2.50593 0.277333,3.33487 0.978392,6.89935 0.138133,0.70232 0.25115,2.39897 0.25115,3.77031 v 2.49336 h 2.488451 2.488452 l -0.120449,-1.65365 c -0.06625,-0.9095 -0.178864,-2.03765 -0.250256,-2.507 -0.127559,-0.83859 -0.149392,-0.85068 -1.26142,-0.69826 -1.587468,0.21759 -2.123152,-0.34387 -1.958909,-2.05317 0.179134,-1.86428 0.767406,-2.61292 2.053199,-2.61292 1.157083,0 1.087228,0.25204 0.664988,-2.39926 -0.114597,-0.71956 -0.06201,-0.8022 0.46302,-0.7276 0.480153,0.0682 0.658699,0.36363 0.942991,1.56025 0.276149,1.16233 0.516888,1.57428 1.132549,1.93796 1.398747,0.82626 1.824051,1.47997 1.824051,2.80365 0,1.40938 -0.779978,2.51576 -1.618906,2.29637 -0.435777,-0.11396 -0.497761,0.0266 -0.497761,1.1285 0,1.26408 0.431345,2.93326 0.753489,2.91575 0.608732,-0.0331 3.547896,-2.4555 6.588699,-5.43034 l 1.389063,-1.35892 v -4.53818 -4.53818 l -1.389063,-0.0186 c -0.763984,-0.0102 -1.626269,-0.1112 -1.916189,-0.22439 -0.56297,-0.21978 -0.503658,-0.29408 2.156431,-2.70134 0.597193,-0.54043 0.899316,-1.21837 1.355976,-3.04271 0.494263,-1.97454 1.106503,-5.26473 1.113764,-5.98536 0.0011,-0.10914 0.225679,-0.19844 0.4990646,-0.19844 0.5214144,0 0.5376255,0.0324 1.7465464,3.49417 0.3916283,1.12142 1.1788934,2.70539 1.7494753,3.51992 0.8905029,1.27124 0.9946508,1.56088 0.7354068,2.04528 -0.2607284,0.48718 -0.1976702,0.6499 0.461309,1.19037 0.4198249,0.34432 1.0787089,0.7952 1.4641857,1.00195 0.6315948,0.33876 0.7670641,0.32384 1.3707031,-0.15098 1.0236888,-0.80524 5.4189922,-6.17208 5.7345951,-7.00218 0.3155263,-0.8299 -0.1267989,-3.95895 -1.1029923,-7.8027 -0.8399595,-3.30733 -1.1497602,-3.89164 -3.16561005,-5.97059 -2.13070025,-2.1974 -2.17393315,-2.06501 1.12138886,-3.43405 1.20402879,-0.50022 2.28975449,-1.0101 2.41272229,-1.13307 0.4009522,-0.40095 0.537456,-2.09153 0.34975,-4.33156 L 2.84012,186.39545 0.14747388,185.07253 c -1.92325098,-0.9449 -2.78685898,-1.52161 -3.02236458,-2.01829 -0.1813454,-0.38245 -0.4405048,-1.87073 -0.5759106,-3.30729 -0.1354059,-1.43655 -0.3255301,-2.86906 -0.4224999,-3.18335 -0.1477354,-0.47883 0.052798,-0.71912 1.2373689,-1.48268 0.7775232,-0.50118 1.6051769,-1.137 1.83923259,-1.41294 0.62784569,-0.74019 1.02965253,-2.13289 1.02965253,-3.56889 0,-1.52322 -0.51735568,-2.00219 -2.43782592,-2.25695 -0.6964865,-0.0924 -1.2663408,-0.19718 -1.2663408,-0.23287 0,-0.21359 1.4091153,-2.53482 1.6166359,-2.66308 0.3122772,-0.19299 2.32563995,0.96925 3.5667686,2.05898 1.2461876,1.09416 1.6957623,2.04398 1.6957623,3.58263 0,1.28744 -0.8033465,2.94955 -2.0964684,4.33755 -0.2758361,0.29607 -0.77673734,1.0571 -1.11311008,1.69118 -0.56612368,1.06715 -0.58645162,1.24729 -0.27344423,2.42318 0.50291207,1.8893 0.82124816,2.23686 3.86306491,4.2177 l 2.7873485,1.81512 0.00381,2.4474 c 0.00212,1.34607 0.059201,2.4474 0.1269074,2.4474 0.067707,0 0.6863291,-0.35719 1.3747168,-0.79375 1.5545806,-0.98589 1.9984562,-1.01825 1.8145125,-0.1323 -0.075533,0.36381 -0.2072111,0.98889 -0.2926186,1.38907 -0.2651971,1.2426 -0.3728349,11.94181 -0.1217004,12.09702 0.1300639,0.0804 0.6884827,-0.42079 1.2409277,-1.11372 0.552445,-0.69292 3.060335,-3.36683 5.573088,-5.94201 2.512756,-2.57518 5.04643,-5.42137 5.630392,-6.32487 l 1.061741,-1.64273 -0.02856,-2.67096 c -0.01572,-1.46903 -0.164534,-3.44487 -0.330729,-4.39075 -0.283205,-1.61185 -0.3497,-1.72523 -1.059445,-1.80638 -0.526248,-0.0602 -1.05092,0.14677 -1.719792,0.67833 -0.529383,0.42069 -1.124656,0.86186 -1.322826,0.98037 -0.457428,0.27355 -0.820886,-0.27419 -0.826265,-1.2452 l -0.0041,-0.73141 -1.579954,0.79756 c -1.571794,0.79344 -2.653379,1.01908 -2.653379,0.55356 0,-0.44553 2.397808,-2.30198 4.102661,-3.1764 1.408869,-0.72261 1.753214,-1.03949 2.131862,-1.96185 l 0.451588,-1.10004 0.609235,1.36327 c 0.937606,2.09807 1.171321,2.01209 1.171321,-0.43093 0,-2.03533 -0.0254,-2.128 -0.511773,-1.86769 -1.386388,0.74197 -2.663227,-0.0367 -2.663227,-1.62417 0,-1.16965 0.666131,-1.80386 2.096129,-1.99566 0.932755,-0.12511 1.078871,-0.23346 1.078871,-0.80001 0,-0.56687 -0.08926,-0.6329 -0.661459,-0.48929 -0.774088,0.19428 -0.772922,0.19874 -0.286681,-1.09548 0.206129,-0.54865 0.450215,-1.82702 0.542412,-2.84082 0.0922,-1.0138 0.220472,-1.89612 0.285057,-1.96071 0.06458,-0.0646 0.356282,0.0987 0.648215,0.36294 0.469173,0.42459 0.530789,0.81345 0.530789,3.34976 v 2.86941 h 1.276797 c 2.01254,0 3.16719,1.56847 1.839331,2.49854 -0.714595,0.50052 -1.367822,0.52757 -1.745679,0.0723 -0.377312,-0.45464 0.04792,-1.10483 0.587224,-0.89788 0.600036,0.23025 0.527685,-0.27569 -0.08642,-0.60435 -1.004986,-0.53785 -1.265833,-0.11246 -1.461021,2.38262 -0.101606,1.29883 -0.102013,3.0236 -7.94e-4,3.83283 0.179848,1.43945 0.195032,1.46119 0.700913,1.00337 0.284393,-0.25737 0.712385,-0.79858 0.951095,-1.20268 0.829963,-1.40502 1.402054,-0.97194 2.451174,1.85559 0.406527,1.09564 2.036083,2.50755 3.421986,2.96494 0.836557,0.27609 1.061344,0.4814 1.061344,0.96938 0,0.34051 -0.07175,0.61911 -0.159451,0.61911 -0.2545,0 -4.372155,-2.02049 -5.476534,-2.68728 -0.86256,-0.52079 -1.042225,-0.55166 -1.261731,-0.21676 -0.140772,0.21478 -0.184542,0.94496 -0.09726,1.62264 0.140285,1.08922 0.09483,1.2524 -0.391917,1.40689 -0.496411,0.15756 -0.550606,0.38005 -0.550606,2.26057 0,3.68279 0.53354,5.54176 2.390659,8.32957 0.726241,1.0902 1.375529,2.45071 1.578361,3.30729 0.455695,1.92445 1.011807,3.18883 2.385632,5.42396 0.62611,1.01864 1.548307,2.62599 2.049322,3.57187 1.333328,2.51723 2.650122,4.64924 3.104346,5.02621 0.349496,0.29006 0.39793,0.0204 0.39793,-2.21569 0,-1.40026 0.04966,-2.54593 0.110356,-2.54593 0.0607,0 0.63968,0.22689 1.286631,0.50421 l 1.176274,0.50421 0.135239,-2.85327 c 0.120447,-2.54113 0.227968,-3.03575 0.982859,-4.52128 0.46619,-0.9174 1.174059,-2.15228 1.57304,-2.74417 0.777082,-1.15297 1.879238,-3.41165 1.879238,-3.8514 0,-0.36325 -0.408091,-0.3158 -2.116667,0.24614 -1.791835,0.58932 -7.14375,0.77143 -7.14375,0.24308 0,-0.17967 0.880475,-1.18182 1.956612,-2.227 2.351093,-2.28344 2.648091,-2.78276 2.437718,-4.09835 -0.15698,-0.9817 -0.129323,-1.02212 1.493176,-2.18232 2.407798,-1.72173 2.700549,-2.10347 2.360721,-3.0783 -0.316566,-0.9081 -0.145108,-1.09817 2.284166,-2.53218 1.055275,-0.62293 1.362028,-0.95733 1.425398,-1.55389 0.06719,-0.63253 0.280636,-0.8339 1.271376,-1.19951 1.08513,-0.40045 1.191882,-0.51893 1.204799,-1.33711 0.01278,-0.80917 0.123706,-0.93767 1.124479,-1.30256 0.856713,-0.31236 1.110305,-0.54129 1.110305,-1.0023 0,-0.32861 0.239993,-0.72591 0.533318,-0.88289 0.293325,-0.15699 1.140029,-0.82427 1.881564,-1.48286 0.741534,-0.65859 1.74508,-1.38667 2.230101,-1.61796 0.489416,-0.23339 1.022371,-0.75976 1.19761,-1.18282 0.173662,-0.41927 0.551138,-0.92717 0.83883,-1.12868 0.950426,-0.6657 1.192125,-0.26395 1.159711,1.92764 -0.02471,1.67057 0.0767,2.21924 0.562277,3.04223 0.77438,1.31248 0.748858,1.503 -0.201327,1.503 h -0.79375 l 0.0026,1.91823 c 0.0019,1.4688 0.152233,2.23964 0.641305,3.29007 l 0.638723,1.37183 -0.644025,0.42199 c -0.600533,0.39348 -0.618781,0.47058 -0.270201,1.1417 0.205605,0.39585 0.753867,1.19597 1.218361,1.77806 1.375778,1.72406 1.444012,1.95172 0.672857,2.24491 -0.868542,0.33022 -0.868677,1.07734 -5.29e-4,2.55884 0.509291,0.86904 0.60851,1.26406 0.410459,1.63412 -0.310076,0.57938 -0.118129,1.44129 0.587303,2.63718 0.514631,0.87242 0.514596,0.87333 -0.05696,1.48172 l -0.571905,0.60877 0.802642,2.4763 c 0.447593,1.3809 0.802646,3.04966 0.802646,3.77247 0,1.27274 -0.01278,1.29297 -0.707012,1.11873 -1.042162,-0.26156 -1.953771,-1.08161 -3.910722,-3.51794 -0.964326,-1.20054 -1.902438,-2.18281 -2.084694,-2.18281 -0.400746,0 -1.992463,2.73001 -2.817969,4.83319 -0.329403,0.83924 -1.045636,3.06888 -1.591627,4.95475 l -0.992706,3.42884 0.959135,0.72421 c 1.747637,1.31957 1.732487,1.27663 0.891154,2.52566 -2.908533,4.31798 -5.885132,10.83467 -5.885132,12.88438 0,0.39097 0.7885,1.92769 1.842923,3.59168 1.013606,1.59958 2.025383,3.25354 2.248392,3.67546 0.560073,1.05961 2.062134,3.02079 2.429021,3.17146 0.194749,0.08 0.369223,-0.40872 0.489442,-1.37094 0.238159,-1.90616 0.866746,-3.25089 3.055395,-6.5364 0.969391,-1.45521 2.260106,-3.58558 2.868253,-4.73417 l 1.105723,-2.08833 -1.397177,0.17539 c -2.61143,0.32781 -6.481676,0.50556 -7.181832,0.32984 -1.525805,-0.38296 -0.555527,-1.54874 5.092123,-6.11814 4.293685,-3.47394 8.233154,-8.05114 8.233154,-9.56595 0,-0.41415 0.180575,-1.5864 0.401277,-2.60499 0.958422,-4.42332 1.198182,-6.01708 1.035582,-6.88382 -0.211637,-1.12813 -0.487129,-1.15346 -1.387358,-0.12754 -0.772872,0.88079 -1.64179,1.05724 -1.628588,0.33073 0.01077,-0.59267 0.463595,-1.17322 1.380649,-1.7701 0.400183,-0.26046 0.727604,-0.62611 0.727604,-0.81255 0,-0.18644 -0.437829,-1.26093 -0.972955,-2.38775 -0.563252,-1.18605 -0.992195,-2.51068 -1.018651,-3.14571 -0.02513,-0.60332 -0.182615,-1.35278 -0.349961,-1.66547 -0.491424,-0.91823 -0.383022,-1.66165 0.242294,-1.66165 1.303954,0 1.570107,0.42145 1.570107,2.48626 0,1.58845 0.143325,2.25456 0.79375,3.68905 0.436562,0.96281 0.79375,1.97674 0.79375,2.25315 0,0.27642 0.177186,0.64963 0.393745,0.82936 0.454866,0.37751 0.438258,0.40894 1.036442,-1.96121 0.664231,-2.63184 1.902743,-3.19398 3.505602,-1.59112 1.24624,1.24624 0.197194,2.10333 -1.101617,0.90004 -0.526208,-0.48751 -0.539636,-0.47096 -1.360326,1.67657 -0.807537,2.11313 -1.059717,3.00391 -1.700122,6.0054 -0.170768,0.80037 -0.414716,1.8004 -0.542105,2.2223 -0.127392,0.4219 -0.226772,1.31487 -0.220845,1.98437 l 0.01077,1.21729 2.009233,-2.10831 c 1.105075,-1.15958 2.716398,-3.06458 3.580715,-4.23334 1.503664,-2.03331 1.566444,-2.18093 1.454692,-3.42055 -0.100862,-1.11885 -0.0044,-1.46165 0.706869,-2.51354 0.8606,-1.27264 0.878983,-1.43222 0.627308,-5.4452 -0.05224,-0.83303 0.0331,-1.07179 0.409745,-1.14632 0.261652,-0.0518 0.648605,0.0493 0.859896,0.22469 0.46211,0.38351 0.507449,2.20266 0.08509,3.41423 -0.223721,0.64176 -0.221755,1.11596 0.0078,1.88213 0.168778,0.56333 0.403487,2.07133 0.521579,3.35112 0.118091,1.2798 0.382473,2.60148 0.587517,2.93708 0.34116,0.55839 0.316659,0.65267 -0.288655,1.11076 -0.363802,0.27532 -0.964385,0.73259 -1.334629,1.01615 -0.612453,0.46906 -1.323774,1.68528 -2.045513,3.49742 -0.417925,1.04932 0.475065,3.30863 2.538241,6.42189 0.978545,1.47659 1.941391,3.00428 2.139659,3.39486 0.420163,0.82773 1.509784,1.35136 2.556166,1.2284 l 0.735806,-0.0865 -1.094208,-1.26127 c -0.630558,-0.72683 -1.032007,-1.42337 -0.947412,-1.64382 0.20909,-0.54488 2.820001,-1.46053 4.164595,-1.46053 0.625131,0 1.206042,-0.0694 1.290915,-0.15432 0.08487,-0.0849 -0.133411,-0.94756 -0.485071,-1.91708 -0.351669,-0.96952 -0.63939,-1.8669 -0.63939,-1.99418 0,-0.13003 1.454095,-0.14753 3.319193,-0.04 l 3.31919,0.19144 -0.144002,-0.62264 c -0.763503,-3.30123 -0.930839,-4.16618 -0.93422,-4.82886 l -0.0039,-0.76664 2.305201,0.1772 c 1.267862,0.0975 2.772267,0.25187 3.343127,0.34316 l 1.037924,0.16597 -0.167154,-0.89944 c -0.09193,-0.4947 -0.239934,-1.32457 -0.328887,-1.84417 l -0.161737,-0.94473 1.880555,-0.33607 1.880555,-0.33607 -0.01318,-1.89421 c -0.02703,-3.89032 -0.80055,-10.34434 -1.416921,-11.82244 -0.09248,-0.22179 -1.683787,-1.11457 -3.536225,-1.98395 -2.832878,-1.32953 -3.679645,-1.87508 -5.328909,-3.43322 -3.190095,-3.01384 -5.797286,-7.39615 -6.22413,-10.46186 -0.23113,-1.66002 0.0392,-1.92721 2.081442,-2.05725 1.809483,-0.11522 2.17949,-0.4397 1.199362,-1.0518 -0.531863,-0.33216 -0.528119,-0.35511 0.301815,-1.84959 0.694992,-1.25149 0.878033,-1.94411 1.058157,-4.00401 0.226499,-2.59026 0.439928,-3.11497 1.155361,-2.84043 0.444971,0.17075 1.23766,1.76435 4.362767,8.77077 1.038517,2.32833 2.108055,4.45565 2.376747,4.72736 0.475957,0.48131 0.498735,0.45746 0.884629,-0.92604 0.217853,-0.78104 0.468416,-1.91687 0.556808,-2.52408 0.157086,-1.07906 0.139504,-1.11101 -0.778145,-1.41386 -0.930359,-0.30705 -0.938146,-0.32221 -0.85975,-1.67412 0.0752,-1.29667 0.130582,-1.38938 1.117992,-1.87138 l 1.038878,-0.50711 -1.237083,-0.36072 c -1.000123,-0.29162 -1.307542,-0.52935 -1.604934,-1.24111 -0.327001,-0.78263 -0.506359,-0.89601 -1.615003,-1.02097 -0.685932,-0.0773 -1.423038,-0.31646 -1.638012,-0.53144 -0.214971,-0.21497 -0.489349,-1.18501 -0.609724,-2.15565 -0.120375,-0.97063 -0.332518,-1.90931 -0.471429,-2.08596 -0.138912,-0.17664 -0.338138,-0.67836 -0.442725,-1.11492 -0.10459,-0.43656 -0.437727,-1.36953 -0.74031,-2.07327 -0.495797,-1.15311 -0.617839,-1.26407 -1.235384,-1.12321 -0.376881,0.086 -1.310315,0.23192 -2.074299,0.32434 l -1.389063,0.16805 V 146.384 c 0,-0.74496 0.07697,-0.80535 1.227553,-0.96305 0.675169,-0.0925 2.220034,-0.16826 3.433049,-0.16826 h 2.205482 l -0.256813,-0.67547 c -0.235342,-0.61899 -0.175874,-0.70929 0.711195,-1.07993 0.775438,-0.324 1.085744,-0.34145 1.559853,-0.0877 0.486844,0.26055 0.735913,0.23165 1.40388,-0.16293 1.054819,-0.6231 1.271611,-0.36124 0.766177,0.92547 -0.557556,1.4194 0.01357,1.15863 0.829027,-0.37853 0.346258,-0.6527 0.713627,-1.18673 0.81637,-1.18673 0.102745,0 0.402309,0.23812 0.665699,0.52916 0.705136,0.77917 0.921404,0.71299 1.951242,-0.59709 0.322177,-0.40985 0.239035,-0.59801 -0.727605,-1.64669 -0.600239,-0.65119 -1.091345,-1.29218 -1.091345,-1.42443 0,-0.13225 0.549833,-0.3229 1.221854,-0.42368 l 1.221858,-0.18323 -0.152211,-0.93793 c -0.08371,-0.51586 -0.211693,-0.99742 -0.284404,-1.07012 -0.07271,-0.0727 -1.119597,0.11466 -2.326417,0.41639 -2.020293,0.5051 -3.484198,0.52736 -3.774663,0.0574 -0.06458,-0.10449 0.23,-0.59629 0.654616,-1.09288 0.424614,-0.4966 0.776867,-1.16088 0.782781,-1.47618 0.0059,-0.31529 0.130659,-0.61323 0.277212,-0.66208 0.146552,-0.0488 0.519771,-0.80291 0.829376,-1.6757 0.398005,-1.12198 0.947891,-1.97181 1.87701,-2.90085 0.722751,-0.72269 1.18456,-1.35716 1.026247,-1.40994 -0.158316,-0.0528 -0.557329,-0.3246 -0.886698,-0.60407 -0.591415,-0.50181 -0.5924,-0.5131 -0.07923,-0.90958 0.285795,-0.22081 1.227847,-1.02456 2.093451,-1.78612 0.8656,-0.76155 1.79831,-1.54421 2.07269,-1.73923 0.41234,-0.29307 0.46872,-0.5557 0.325,-1.51407 -0.1603,-1.06894 -0.10996,-1.21328 0.64447,-1.84809 0.52154,-0.43885 0.96911,-1.18518 1.23404,-2.0578 0.51581,-1.69891 1.18051,-5.9466 1.18051,-7.54383 v -1.19366 l 0.65064,0.61124 c 0.43499,0.40865 0.7019,1.01589 0.80529,1.83206 0.56597,4.46762 1.35519,7.20463 2.18209,7.56741 0.42384,0.18595 0.59803,0.49079 0.60474,1.05834 0.0101,0.85174 0.61752,3.62049 0.89162,4.064 0.0907,0.14681 -0.0749,0.34306 -0.36804,0.4361 -0.63935,0.20292 -0.66024,0.44291 -0.1281,1.47196 0.29744,0.57518 0.33255,0.91819 0.13229,1.29238 -0.3888,0.72649 -0.35102,0.89979 0.38226,1.75315 0.42543,0.4951 0.56447,0.85251 0.39687,1.02011 -0.4563,0.4563 -0.2759,2.02403 0.38412,3.33811 l 0.64212,1.27842 -0.75931,0.16677 c -0.83441,0.18327 -0.81826,0.6279 0.057,1.57031 0.92995,1.00127 0.63389,1.29873 -1.11112,1.11634 -1.30194,-0.13608 -1.5875,-0.0953 -1.5875,0.22689 0,0.21605 0.11906,0.39282 0.26459,0.39282 0.48946,0 0.27008,0.69638 -0.42307,1.34294 -1.11815,1.04301 -2.0387,3.09152 -1.82176,4.05401 0.23927,1.06156 0.23751,2.85257 -0.004,4.55481 -0.1855,1.30492 -0.16783,1.35895 0.49933,1.5264 0.38039,0.0955 0.69163,0.26648 0.69163,0.38002 0,0.11353 -0.62508,1.15306 -1.38906,2.31006 -1.00781,1.52626 -1.47285,2.53935 -1.69435,3.69114 -0.64128,3.33465 -1.11243,5.57868 -1.2945,6.16552 -0.17939,0.57823 -0.0963,0.55896 1.63142,-0.3783 4.43126,-2.40394 5.66238,-3.81027 6.97277,-7.96513 0.20297,-0.64356 0.56077,-1.18549 0.84154,-1.2746 0.5082,-0.1613 0.66054,-0.77552 0.25457,-1.02642 -0.35598,-0.22001 -1.35364,-2.45876 -1.35364,-3.03757 0,-0.28094 0.42424,-1.26451 0.94276,-2.1857 1.32983,-2.36258 2.76141,-5.40517 2.76141,-5.86894 0,-0.21576 -0.22037,-0.90817 -0.48971,-1.5387 -1.017,-2.3808 -3.21446,-8.35421 -3.21446,-8.73796 0,-0.21994 0.7232,-1.85258 1.6071,-3.62807 1.80321,-3.62211 2.24374,-4.00681 3.82952,-3.34423 0.50236,0.2099 0.91338,0.519 0.91338,0.68688 0,0.16788 -0.47625,1.32153 -1.05833,2.56367 -1.12187,2.39401 -1.23771,3.03702 -0.76081,4.22324 0.16364,0.40703 0.39446,0.97818 0.51292,1.26922 0.11847,0.29104 0.83013,1.83886 1.58146,3.43959 0.7537,1.60575 1.38102,3.33088 1.39941,3.84838 0.0308,0.86644 -0.33193,2.42488 -0.90845,3.90313 -0.13037,0.33427 -0.23703,1.19281 -0.23703,1.90787 0,1.22901 0.0872,1.39112 1.5936,2.96412 1.09085,1.13904 2.01045,2.48593 2.91495,4.26936 0.72675,1.43296 1.79429,3.09983 2.3723,3.70417 0.57802,0.60434 1.05223,1.17288 1.0538,1.26342 0.002,0.0905 -0.4734,0.24078 -1.05548,0.33386 -0.58209,0.0931 -1.05834,0.21282 -1.05834,0.26608 0,0.32447 0.91903,2.20444 1.3872,2.83768 0.52223,0.70635 0.52925,0.78289 0.11383,1.24192 -0.8435,0.93206 -0.55509,1.33467 2.44405,3.41175 0.0597,0.0414 -0.11885,0.32917 -0.39687,0.63956 -0.5015,0.55987 -0.49936,0.56877 0.27104,1.1261 1.48727,1.07592 2.78999,2.34073 2.64783,2.57076 -0.0787,0.12737 -0.52422,0.3315 -0.99,0.45363 -0.99441,0.26073 -1.01218,0.66157 -0.13121,2.96133 0.63279,1.65191 1.20338,2.49112 2.95185,4.34157 0.675,0.71437 1.22728,1.39898 1.22728,1.52135 0,0.12238 -0.59531,0.2225 -1.32291,0.2225 -1.78877,0 -1.70834,0.70502 0.32106,2.8142 l 1.05301,1.09441 -0.81933,0.48399 c -0.45063,0.2662 -0.81918,0.66668 -0.819,0.88997 5.2e-4,0.50442 0.95242,1.6184 1.9179,2.24419 0.40018,0.25938 0.72761,0.69603 0.72761,0.97034 0,0.43729 -0.21127,0.49873 -1.71476,0.49873 -1.56523,0 -1.72553,0.0519 -1.83838,0.59532 -0.91913,4.42561 -1.34805,12.13754 -0.97036,17.44727 0.60963,8.57058 2.14389,18.55145 3.06871,19.96289 0.22476,0.34303 0.64403,0.62369 0.93172,0.62369 0.51575,0 0.52307,0.24427 0.52307,17.4625 v 17.4625 H 20.60587 -93.958716 Z m 105.833336,0.44772 c 0,-1.19022 -0.11656,-2.52967 -0.259022,-2.97656 -0.142462,-0.4469 -0.52025,-1.68849 -0.839528,-2.75908 l -0.580504,-1.94655 -2.7294762,0.10104 c -3.8655096,0.14309 -3.9954227,0.30974 -2.4881734,3.19174 1.3745898,2.62835 2.3627265,4.09845 3.6989677,5.50313 0.8515614,0.89517 1.1615023,1.05031 2.0984339,1.05031 h 1.099302 z m 3.930653,1.73561 0.887941,-0.13525 -0.158498,-2.03327 c -0.08717,-1.1183 -0.233257,-3.07162 -0.324628,-4.3407 -0.188844,-2.62294 -0.02056,-2.46641 -2.946406,-2.74057 -1.540922,-0.1444 -1.918229,-0.10798 -1.918226,0.18516 0,0.20071 0.364564,1.47992 0.810138,2.8427 0.626224,1.91527 0.802021,2.90634 0.774391,4.36562 -0.01966,1.03832 -0.02704,1.96966 -0.01641,2.06965 0.01805,0.16959 0.715484,0.11813 2.891679,-0.21334 z m 7.74057,-2.08513 c 0.08902,-0.87312 0.255675,-2.68882 0.370348,-4.03489 l 0.208502,-2.4474 h -2.715484 -2.715483 l 0.187352,0.8599 c 0.103042,0.47294 0.245432,2.32324 0.31642,4.11178 l 0.129069,3.25188 2.028714,-0.0769 2.028714,-0.0769 z m 8.754695,0.70578 c 0.392952,-0.38818 1.66573,-1.83687 2.828394,-3.21932 3.04189,-3.61691 3.309519,-3.50096 -8.223632,-3.56306 l -1.63807,-0.009 -0.359359,1.85209 c -0.286875,1.47851 -0.29704,2.22565 -0.0504,3.70416 0.169931,1.01865 0.36966,1.95471 0.443841,2.08013 0.07418,0.12542 1.518603,0.14536 3.209822,0.0443 2.855278,-0.1706 3.125981,-0.23414 3.789402,-0.8895 z m 52.466792,-2.02994 c 3.933034,-1.33765 5.075341,-2.00818 10.581058,-6.21112 2.692099,-2.05509 3.183218,-3.24552 3.440602,-8.33972 0.08088,-1.60073 0.260692,-4.16057 0.399587,-5.68854 0.455999,-5.0164 0.601258,-8.63062 0.408781,-10.17113 -0.174058,-1.39312 -0.259934,-1.54529 -1.060984,-1.87999 -1.206304,-0.50402 -5.39758,-1.30333 -5.627672,-1.07324 -0.103624,0.10363 0.07639,1.22376 0.400037,2.4892 0.323646,1.26543 0.588055,2.57407 0.587581,2.90809 -7.93e-4,0.55652 -0.08383,0.59261 -0.993052,0.43163 -0.545703,-0.0966 -1.64228,-0.34014 -2.436839,-0.54116 -2.441171,-0.6176 -2.403944,-0.64226 -2.326844,1.54133 l 0.06733,1.9068 -1.786286,0.29841 c -0.982457,0.16412 -1.861789,0.3739 -1.95407,0.46618 -0.212238,0.21224 0.444193,1.21986 2.068155,3.1746 1.978443,2.38142 1.876404,2.45659 -2.587537,1.90636 -1.844898,-0.22741 -3.397563,-0.37026 -3.450366,-0.31746 -0.0528,0.0528 0.250719,1.09791 0.674492,2.32246 1.392727,4.02447 2.19315,7.40086 1.851943,7.81198 -0.167796,0.20219 -0.459057,0.36761 -0.64725,0.36761 -0.18819,0 -1.264407,-1.06709 -2.391593,-2.37132 -1.796732,-2.07893 -3.245218,-3.46235 -4.250785,-4.05984 -0.471286,-0.28003 -2.196886,3.96702 -3.258024,8.01866 -0.171505,0.65484 -0.422822,1.55626 -0.558482,2.00316 -0.503042,1.65713 -0.318178,2.67801 0.61324,3.38647 0.930344,0.70764 3.293298,1.94725 4.403773,2.31023 1.369502,0.44765 5.578938,0.077 7.833207,-0.68965 z m -45.90926,-6.15032 c -0.0057,-0.64805 -0.131001,-0.78554 -2.509491,-2.75309 -2.713099,-2.24433 -4.881661,-4.52668 -5.948659,-6.26077 l -0.843606,-1.37103 h -2.059352 -2.059356 l -0.163996,0.99219 c -0.258805,1.56575 -0.200602,2.69611 0.248634,4.82864 0.252277,1.19756 0.353859,2.47988 0.256196,3.23406 -0.148593,1.14745 -0.112467,1.26072 0.441653,1.38468 1.093512,0.24463 2.660293,0.31885 7.68109,0.36387 4.566639,0.0409 4.960615,0.008 4.956887,-0.41855 z m -61.643868,0.0208 c 0,-0.0977 -0.203626,-0.40261 -0.452501,-0.67761 -0.384945,-0.42536 -0.395962,-0.53495 -0.07381,-0.73406 0.20828,-0.12872 0.29001,-0.32272 0.181618,-0.43111 -0.28343,-0.28343 -0.913321,0.44247 -1.121788,1.29278 -0.165725,0.67595 -0.12001,0.7276 0.644046,0.7276 0.452339,0 0.822433,-0.0799 0.822433,-0.1776 z m 3.173257,-0.28542 c -0.0011,-0.10914 -0.251643,-0.55562 -0.557075,-0.99219 -0.30543,-0.43656 -0.483241,-0.57565 -0.395132,-0.30909 0.08811,0.26657 0.1602,0.71305 0.1602,0.99219 0,0.27914 0.178594,0.50753 0.396875,0.50753 0.218282,0 0.39609,-0.0893 0.395132,-0.19844 z m 26.8848024,-0.8303 c 1.1372268,-0.14119 2.1617358,-0.19858 2.2766867,-0.12754 0.3071257,0.18982 0.2522829,-0.13074 -0.3095943,-1.8096 -0.2780718,-0.83087 -0.5906479,-2.37391 -0.6946106,-3.42898 l -0.1890263,-1.91831 -0.9525291,1.07459 c -1.5685612,1.76957 -4.2598182,5.92072 -4.2598182,6.57059 0,0.58877 0.029451,0.59595 1.030605,0.25102 0.5668328,-0.19529 1.9610626,-0.47059 3.0982868,-0.61177 z m 17.3833876,-0.34953 c 0.153098,-0.65039 0.119298,-1.40891 -0.100222,-2.24896 -0.37724,-1.44361 -0.442732,-4.24713 -0.132344,-5.66521 l 0.2097,-0.95807 -1.470787,-0.18376 c -0.808934,-0.10108 -2.324348,-0.0997 -3.367587,0.003 l -1.896796,0.18691 0.156017,2.27784 c 0.08581,1.25282 0.232662,3.43317 0.326337,4.84524 l 0.170321,2.56739 1.490813,0.10015 c 0.819946,0.0551 2.141672,0.0904 2.937171,0.0784 1.444998,-0.0217 1.446575,-0.0226 1.677377,-1.0031 z m -8.665684,-0.80454 c -0.09298,-0.76399 -0.233177,-2.91615 -0.311544,-4.78259 -0.122473,-2.91694 -0.199925,-3.37148 -0.551487,-3.23658 -0.224952,0.0863 -1.637925,0.23215 -3.139943,0.32405 l -2.730942,0.16709 0.1333765,1.74656 c 0.1963976,2.57186 0.6158655,5.02959 1.0259065,6.01095 0.389551,0.93233 0.599056,0.98614 4.329094,1.11189 l 1.4146,0.0477 z m -74.823989,-0.46303 c 1.586807,0 1.334977,0.18692 3.921131,-2.91041 1.787705,-2.14107 2.169718,-3.04698 2.380543,-5.64528 l 0.186222,-2.29511 -0.965245,-1.45376 c -0.530886,-0.79957 -1.084387,-1.45377 -1.230003,-1.45377 -0.145616,0 -0.58824,0.65957 -0.983607,1.46571 -1.023805,2.0875 -1.573845,1.93794 -2.471298,-0.67196 -1.345613,-3.91319 -1.364264,-3.93026 -2.879524,-2.63508 -1.441133,1.23182 -2.191213,1.07612 -3.370192,-0.69955 l -0.98435,-1.48254 -0.298545,0.88723 c -0.164198,0.48798 -0.466598,0.91795 -0.671997,0.95548 -0.205399,0.0375 -1.238771,-0.70355 -2.296382,-1.64685 -2.078361,-1.85373 -2.84923,-2.36487 -3.220498,-2.13542 -0.130736,0.0808 -0.378749,0.77091 -0.551141,1.53359 -0.827386,3.66043 -1.051708,5.28836 -1.051993,7.63446 -2.65e-4,2.42053 0.0348,2.57871 0.725254,3.26917 0.399063,0.39906 1.313844,1.02367 2.03285,1.38802 1.245581,0.63118 1.323726,0.63996 1.655683,0.18598 0.191622,-0.26205 0.3484,-0.63392 0.3484,-0.82636 0,-0.89948 1.466459,-2.72396 2.18943,-2.72396 0.442352,0 0.493594,0.14855 0.387869,1.12448 -0.067,0.61846 -0.321363,1.83121 -0.565251,2.69499 -0.243887,0.86378 -0.370483,1.75675 -0.281321,1.98438 0.258752,0.66057 1.441355,-0.98831 1.442959,-2.0119 0.0019,-1.22869 0.248049,-1.67529 0.923266,-1.67529 0.979503,0 1.339059,0.66254 1.016135,1.87239 -0.15239,0.57091 -0.221502,1.03803 -0.153586,1.03803 0.06792,0 0.477229,-0.29766 0.909585,-0.66146 1.728999,-1.45485 1.951757,-0.59265 0.755531,2.92436 l -0.783717,2.30419 1.21752,-0.16687 c 0.669636,-0.0918 1.869458,-0.16689 2.666272,-0.16689 z m 53.8981217,-5.28204 c 1.3910363,-1.41227 1.3833501,-1.43471 -0.5858325,-1.71048 L -6.646214,219.0652 v 1.59063 c 0,0.87484 0.093774,1.59062 0.2083832,1.59062 0.1146122,0 0.7904797,-0.59098 1.5019285,-1.31329 z m -3.3776789,-3.09354 c 0.2263564,-0.58987 -0.9601809,-1.60272 -1.2824513,-1.09472 -0.1193932,0.1882 -0.218903,0.61007 -0.2211308,0.93749 -0.00315,0.46165 0.1463304,0.59531 0.6657102,0.59531 0.3792723,0 0.7426775,-0.19 0.8378719,-0.43808 z m 24.0099482,-0.60804 c 0.312457,-0.25932 0.411586,-0.87544 0.411586,-2.55815 0,-1.21911 -0.104931,-2.21656 -0.23318,-2.21656 -0.128249,0 -0.569182,0.44649 -0.97985,0.99219 -0.41067,0.5457 -1.466598,1.7515 -2.346507,2.67956 l -1.599838,1.68737 2.168102,-0.12141 c 1.205931,-0.0675 2.350757,-0.273 2.579687,-0.463 z m 6.177143,-0.72254 2.458268,-0.16246 -0.0389,-2.011 c -0.02138,-1.10605 0.04502,-2.44669 0.147569,-2.9792 0.164415,-0.85372 0.05384,-1.16658 -0.935104,-2.64584 -0.616863,-0.92269 -1.424726,-2.00496 -1.795248,-2.40503 l -0.673677,-0.7274 -0.640257,0.59511 c -2.03903,1.89525 -2.880717,4.49603 -2.631543,8.13137 0.165721,2.41783 0.311128,2.75705 1.085172,2.53161 0.311,-0.0906 1.671672,-0.2378 3.023717,-0.32716 z m 5.987579,-0.67873 c -0.251116,-0.79191 -1.255466,-2.36641 -1.795275,-2.81441 -0.393157,-0.32629 -0.432861,-0.20256 -0.432861,1.34885 0,0.93945 0.07937,1.78747 0.17639,1.88448 0.09701,0.097 0.640818,0.17639 1.208453,0.17639 0.949836,0 1.017026,-0.0474 0.843293,-0.59531 z m 18.314978,-11.18202 c 0.152492,-0.39739 -0.31436,-1.18725 -0.701731,-1.18725 -0.111186,0 -0.25458,0.35718 -0.318654,0.79375 -0.09378,0.63896 -0.02061,0.79375 0.37515,0.79375 0.270405,0 0.560761,-0.18011 0.645235,-0.40025 z m 64.696293,-2.11274 c -0.0488,-0.94619 -0.18444,-1.72035 -0.30142,-1.72035 -0.11698,0 -0.47189,0.20988 -0.78868,0.4664 l -0.57598,0.46641 0.53727,1.25338 c 0.78786,1.83802 1.23804,1.65223 1.12881,-0.46584 z m -66.326738,0.44083 c 0.162235,-0.53603 0.105759,-0.60544 -0.43058,-0.52917 -0.697617,0.0992 -0.998384,0.96447 -0.45252,1.30183 0.416237,0.25725 0.627269,0.0726 0.8831,-0.77266 z m 68.583988,-0.37524 c 0.78565,-0.82676 1.93251,-2.81154 1.93251,-3.34443 0,-0.25812 -0.57383,-0.13359 -2.3151,0.50243 -0.84789,0.3097 -0.8599,0.33773 -0.8599,2.00799 0,0.93165 0.0957,1.69391 0.21268,1.69391 0.11698,0 0.58039,-0.38696 1.02981,-0.8599 z m -66.594573,0.0818 c 0,-0.31217 -0.51603,-0.64611 -0.705556,-0.45659 -0.189524,0.18953 0.144417,0.70556 0.456589,0.70556 0.136932,0 0.248967,-0.11203 0.248967,-0.24897 z m 1.049026,-1.58572 c 0.451495,-0.84363 0.347794,-2.39864 -0.159962,-2.39864 -0.616892,0 -1.135401,0.78862 -1.145233,1.74184 -0.01291,1.25301 0.774141,1.64908 1.305195,0.6568 z m -2.371942,-0.14968 c 0,-0.22049 -0.235186,-0.39688 -0.529167,-0.39688 -0.293981,0 -0.529167,0.17639 -0.529167,0.39688 0,0.22048 0.235186,0.39687 0.529167,0.39687 0.293981,0 0.529167,-0.17639 0.529167,-0.39687 z M 6.2576742,200.003 c 1.0406539,-0.36277 1.2340326,-0.8958 0.670867,-1.84916 -0.5153052,-0.87235 -1.1413306,-1.20306 -1.4209316,-0.75066 -0.2825645,0.4572 -0.5478728,2.34647 -0.3699431,2.63437 0.1891929,0.30612 0.1382845,0.30769 1.1200077,-0.0346 z M 110.24075,199.8742 c 0.50453,-0.35339 0.58804,-0.65474 0.58804,-2.12205 v -1.71016 l -1.05833,0.53992 c -1.03418,0.5276 -1.05834,0.57201 -1.05834,1.94566 0,1.87261 0.34446,2.17605 1.52863,1.34663 z m -64.352923,-0.40493 c 0.272658,-0.44117 -0.340575,-0.94708 -0.70557,-0.58208 -0.305308,0.30531 -0.114226,0.86972 0.294447,0.86972 0.128344,0 0.313349,-0.12944 0.411123,-0.28764 z m 68.289793,-1.69313 c 1.67521,-0.7331 1.93176,-1.07552 1.93922,-2.58833 0.003,-0.66567 -0.0629,-0.7167 -0.72399,-0.55815 -0.40018,0.096 -1.35268,0.40446 -2.11667,0.68551 l -1.38906,0.51101 v 1.46451 c 0,1.06619 0.09,1.4283 0.33073,1.33142 0.1819,-0.0732 1.0638,-0.45389 1.95977,-0.84597 z m -65.525916,-0.56739 c 0,-0.64473 -0.06679,-0.68524 -0.905402,-0.54915 -0.667755,0.10836 -0.946366,0.0402 -1.061466,-0.25976 -0.125978,-0.3283 -0.23196,-0.3437 -0.549804,-0.0799 -0.216559,0.17973 -0.393745,0.54205 -0.393745,0.80515 0,0.49627 0.503524,0.6789 2.050521,0.74373 0.761368,0.0319 0.859896,-0.0437 0.859896,-0.66005 z m -125.677086,-0.89142 c 0,-0.14552 -0.178594,-0.26459 -0.396875,-0.26459 -0.218282,0 -0.396875,0.11907 -0.396875,0.26459 0,0.14552 0.178593,0.26458 0.396875,0.26458 0.218281,0 0.396875,-0.11906 0.396875,-0.26458 z m -1.5875,-0.50753 c 0,-0.64339 -0.379487,-1.07997 -0.938734,-1.07997 -0.926688,0 -1.023753,0.45268 -0.193596,0.90288 0.862947,0.46799 1.132329,0.51012 1.13233,0.17709 z m 188.528212,-0.67476 c 0.63406,-0.48362 0.88631,-0.91278 0.97197,-1.65364 0.0636,-0.5503 0.33453,-1.7855 0.60201,-2.74491 0.67202,-2.41044 0.54509,-2.62125 -1.57826,-2.62125 h -1.72809 l 0.002,2.05052 c 0.003,2.92275 0.294,5.6224 0.60671,5.6224 0.14713,0 0.65283,-0.2939 1.12378,-0.65312 z m -61.098261,0.12395 c 0.200091,0 0.363802,-0.23812 0.363802,-0.52916 0,-0.65388 -0.04154,-0.65371 -1.333458,0.005 -1.259626,0.64261 -1.346742,0.91431 -0.220969,0.68915 0.454752,-0.0909 0.990533,-0.16536 1.190625,-0.16536 z m -125.773186,-0.75677 c -0.03467,-0.31138 0.05463,-0.56614 0.198437,-0.56614 0.143807,0 0.261464,-0.41672 0.261464,-0.92605 0,-0.84493 -0.06704,-0.92604 -0.765442,-0.92604 -0.465526,0 -0.83072,0.17011 -0.932042,0.43415 -0.238456,0.62141 0.07449,1.41794 0.557085,1.41794 0.330227,0 0.348324,0.0761 0.09168,0.38528 -0.360465,0.43434 -0.122941,1.02326 0.345358,0.85629 0.168566,-0.0601 0.278123,-0.36405 0.243457,-0.67543 z m 31.380695,0.29375 c -0.167489,-0.25466 -0.686604,-0.78673 -1.153586,-1.18237 -0.758825,-0.6429 -0.902443,-0.67944 -1.351362,-0.34382 -0.486137,0.36344 -0.481086,0.39085 0.156951,0.85164 1.054288,0.76141 1.688693,1.08383 2.187258,1.11163 0.383942,0.0214 0.412038,-0.055 0.160739,-0.43708 z m 1.622957,-1.78594 c 0,-1.62118 -0.219607,-1.76569 -1.599126,-1.05232 -0.647832,0.33501 -0.730456,0.48078 -0.490397,0.86518 0.240369,0.38489 1.78671,1.64235 2.019652,1.64235 0.03843,0 0.06987,-0.65484 0.06987,-1.45521 z m -35.082735,0.84508 c 0.290489,-0.21241 0.437404,-0.59471 0.381299,-0.99219 -0.07236,-0.51266 -0.26943,-0.66381 -0.951169,-0.72954 -0.842661,-0.0812 -0.859896,-0.0614 -0.859896,0.99218 0,0.86085 0.09538,1.0751 0.478597,1.0751 0.263229,0 0.691256,-0.1555 0.951169,-0.34555 z m 127.486535,-0.88035 c 0.242515,-0.53226 0.226782,-0.71203 -0.07926,-0.90566 -0.210007,-0.13287 -0.474075,-0.24341 -0.586816,-0.24564 -0.260906,-0.005 -0.721056,1.19112 -0.721056,1.87457 0,0.44346 0.08093,0.47794 0.542277,0.23103 0.298254,-0.15962 0.678436,-0.58906 0.844855,-0.9543 z m 66.593215,-0.45932 c 1.14916,-0.37842 1.41144,-1.21635 1.18486,-3.78536 -0.18555,-2.10371 -0.0726,-2.04545 -2.15948,-1.11402 -0.9267,0.41362 -1.12483,0.62963 -1.1265,1.22814 -0.001,0.39944 -0.23832,1.50016 -0.52714,2.44604 -0.28882,0.94589 -0.52604,1.76002 -0.52715,1.8092 -0.003,0.14354 2.16422,-0.25761 3.15541,-0.584 z m -163.352337,-0.18353 c 0.179424,-0.29032 -0.58071,-1.30625 -0.977353,-1.30625 -0.122965,0 -0.223575,0.35719 -0.223575,0.79375 0,0.60932 0.119327,0.79375 0.513551,0.79375 0.282453,0 0.591775,-0.12657 0.687377,-0.28125 z m 1.921065,-0.89969 c 1.531766,-0.83012 1.517931,-0.78793 0.688769,-2.10035 -0.422431,-0.66862 -0.838219,-1.21589 -0.923978,-1.21615 -0.191402,-5.3e-4 -1.828451,1.77892 -1.828451,1.98756 0,0.18322 1.119696,1.71613 1.253522,1.71613 0.05262,0 0.417182,-0.17424 0.810138,-0.38719 z m -32.373483,-0.75125 c 0.290168,-0.82986 -0.02723,-1.58472 -0.724038,-1.72198 -0.2877,-0.0567 -0.504941,0.23164 -0.69777,0.92604 -0.424002,1.5269 -0.372879,1.71536 0.43978,1.62122 0.515612,-0.0597 0.797044,-0.29623 0.982028,-0.82528 z m 2.263989,0.64235 c 0,-0.12733 0.07441,-0.60358 0.165365,-1.05834 0.16088,-0.80439 0.139348,-0.82682 -0.79375,-0.82682 -0.942578,0 -0.959115,0.0183 -0.959115,1.05833 0,0.99954 0.0441,1.05834 0.79375,1.05834 0.436563,0 0.79375,-0.10418 0.79375,-0.23151 z m 32.543751,-3.74655 c 0,-2.11956 -0.0019,-2.12505 -0.595312,-1.81809 -1.221852,0.63193 -1.528596,1.05437 -1.207011,1.66226 0.352428,0.66619 1.557115,2.2818 1.701435,2.2818 0.05549,0 0.100888,-0.95669 0.100888,-2.12597 z m -4.13643,0.72003 0.789385,-0.97531 -0.789385,-0.97531 c -1.265407,-1.56345 -1.41982,-1.45738 -1.41982,0.97531 0,2.43269 0.154413,2.53876 1.41982,0.97531 z m -28.407321,0.1161 c 0,-0.85741 -0.321934,-2.14974 -0.535524,-2.14974 -0.112639,0 -0.462463,0.49434 -0.777386,1.09854 -0.622636,1.19455 -0.464238,1.5352 0.717598,1.54324 0.407135,0.003 0.595312,-0.15276 0.595312,-0.49204 z m -2.296223,-1.81901 c 0.341455,-0.5457 0.688451,-1.25801 0.771099,-1.58291 0.1305,-0.51302 0.08443,-0.55549 -0.350192,-0.32289 -0.595487,0.3187 -1.299684,1.59505 -1.299684,2.35568 0,0.76843 0.171344,0.68071 0.878777,-0.44988 z m 190.456399,-0.4997 c 0.10203,-0.60226 0.22375,-1.91195 0.27048,-2.91042 l 0.085,-1.8154 h -1.17807 c -1.16328,0 -1.18362,0.0155 -1.62064,1.23701 -0.37756,1.05531 -0.84797,3.18645 -0.89236,4.04273 -0.0179,0.34484 1.11355,0.64266 2.22997,0.58698 0.86189,-0.043 0.93189,-0.11521 1.10565,-1.1409 z m 4.46415,-1.43283 c 0.16069,-0.30025 0.21367,-0.90325 0.11775,-1.34 -0.17519,-0.79763 -0.73697,-1.16059 -2.27423,-1.46935 -0.75882,-0.15242 -0.70849,-0.30361 -1.18971,3.57378 l -0.1752,1.41158 1.61461,-0.81505 c 0.88804,-0.44828 1.74609,-1.06071 1.90678,-1.36096 z m -161.403492,0.52985 1.190625,-1.06369 -1.036269,-0.91656 c -0.56995,-0.5041 -1.115312,-0.91655 -1.211919,-0.91655 -0.09661,0 -0.553471,0.52611 -1.015257,1.16913 l -0.839605,1.16913 0.685983,0.81524 c 0.377291,0.44839 0.764696,0.81339 0.860899,0.81112 0.09621,-0.002 0.7107,-0.4828 1.365543,-1.06782 z m -2.642933,-2.43378 c 0.288359,-0.47294 0.524735,-1.0498 0.525277,-1.28191 0.0013,-0.59045 -0.922382,-1.36257 -1.49764,-1.25178 -0.588113,0.11326 -0.722188,0.71847 -0.494916,2.23403 0.211299,1.40905 0.726694,1.51431 1.467279,0.29966 z m 3.585136,-2.78401 c -0.280244,-0.28025 -1.471369,0.55708 -1.471369,1.03433 0,0.26181 0.327422,0.64842 0.727604,0.85915 l 0.727604,0.38314 0.0827,-1.06369 c 0.04549,-0.58503 0.01556,-1.13085 -0.06654,-1.21293 z m 161.207349,0.79964 c 0.55797,-1.06245 0.62409,-2.66971 0.14332,-3.4836 -0.67919,-1.14977 -1.64595,-1.48144 -2.85082,-0.97801 -1.18448,0.49491 -1.3293,0.84341 -1.10302,2.65442 0.18776,1.50282 0.51196,1.80217 2.26306,2.08958 1.21408,0.19927 1.30303,0.18303 1.54746,-0.28239 z M -44.950412,178.7482 c 0.467704,-0.50235 0.597339,-1.63629 0.309641,-2.70849 -0.140202,-0.52252 -1.814502,-1.68132 -2.032346,-1.40661 -0.05264,0.0664 -0.288195,0.89459 -0.52346,1.84048 -0.235265,0.94588 -0.500811,1.95851 -0.590105,2.25028 -0.106043,0.3465 0.03586,0.74325 0.409135,1.14391 l 0.571485,0.61342 0.693433,-0.61475 c 0.381389,-0.3381 0.904385,-0.84131 1.162217,-1.11824 z m 157.102122,0.37121 c 0,-1.27088 -0.25787,-1.32485 -1.16711,-0.24428 -0.90668,1.07752 -0.86502,1.30261 0.24106,1.30261 0.904,0 0.92605,-0.0252 0.92605,-1.05833 z m -159.954662,-2.92806 c 0.468424,-2.05951 0.404019,-2.36361 -0.500607,-2.36361 -0.771324,0 -1.469739,1.35138 -1.469739,2.84383 0,0.82569 0.124512,1.10099 0.595312,1.31625 0.327422,0.14971 0.675365,0.22612 0.773205,0.16981 0.09784,-0.0563 0.368665,-0.94114 0.601829,-1.96628 z m 2.52757,-2.4635 c 0,-0.20047 -0.178593,-0.5127 -0.396875,-0.69386 -0.218281,-0.18116 -0.396875,-0.60271 -0.396875,-0.9368 0,-0.9969 -0.285747,-1.44445 -0.92225,-1.44445 -0.417579,0 -0.700812,0.24085 -0.927865,0.789 -0.433731,1.04712 -0.187288,1.59225 0.719834,1.59225 0.451863,0 0.86665,0.20535 1.068879,0.52917 0.380051,0.60856 0.855152,0.70005 0.855152,0.16469 z m -4.233333,-0.16469 c 0,-0.14552 -0.171567,-0.26458 -0.381259,-0.26458 -0.209693,0 -0.454846,0.11906 -0.544783,0.26458 -0.08994,0.14552 0.08163,0.26458 0.38126,0.26458 0.29963,0 0.544782,-0.11906 0.544782,-0.26458 z m 0.468095,-1.78594 c 0.666338,-0.96172 0.884079,-1.60433 0.60256,-1.77832 -0.40059,-0.24758 -0.919353,0.10512 -1.58196,1.07555 -0.537046,0.78654 -0.580848,0.9823 -0.264583,1.18243 0.569629,0.36047 0.695529,0.31192 1.243983,-0.47966 z m 69.780742,-1.12448 c 0.200025,0 0.437269,0.11906 0.527206,0.26459 0.324827,0.52557 0.681808,0.26781 0.38839,-0.28044 -0.205219,-0.38346 -0.501438,-0.52072 -0.999236,-0.46302 -0.753531,0.0873 -1.039945,0.70971 -0.68408,1.48651 0.164245,0.35853 0.224832,0.30281 0.304535,-0.28003 0.05472,-0.40019 0.263158,-0.72761 0.463185,-0.72761 z m -70.778004,-0.79375 c 0,-0.14552 -0.178594,-0.26458 -0.396875,-0.26458 -0.218281,0 -0.396875,0.11906 -0.396875,0.26458 0,0.14552 0.178594,0.26459 0.396875,0.26459 0.218281,0 0.396875,-0.11907 0.396875,-0.26459 z m 2.645834,-1.05833 c 0,-0.35278 -0.17639,-0.52917 -0.529167,-0.52917 -0.579035,0 -0.729337,0.66888 -0.198438,0.88311 0.600874,0.24246 0.727605,0.18081 0.727605,-0.35394 z m -1.710484,-0.42731 c 1.060156,-0.69464 0.694018,-1.73413 -0.737341,-2.09338 -0.55644,-0.13966 -0.687536,-0.0545 -0.837785,0.54412 -0.115633,0.46073 -0.03252,0.9319 0.236927,1.34313 0.49245,0.75157 0.503227,0.75323 1.338199,0.20613 z M 104.5754,164.81271 c 0.38342,-0.30161 0.69714,-0.62966 0.69714,-0.72901 0,-0.18855 -1.91965,-0.85992 -2.05934,-0.72023 -0.044,0.044 -0.14997,0.51143 -0.23555,1.03878 -0.1353,0.83376 -0.0867,0.95883 0.37251,0.95883 0.29045,0 0.84181,-0.24677 1.22524,-0.54837 z m -7.240361,-4.08184 c 0,-1.01 -0.05626,-1.05616 -0.801291,-0.65743 -0.513972,0.27507 -0.451641,0.98919 0.120534,1.38098 0.530693,0.36339 0.680757,0.20389 0.680757,-0.72355 z m -0.06063,-3.62149 c -0.163531,-0.49059 -0.733115,-0.57196 -0.733115,-0.10473 0,0.23041 0.188515,0.41893 0.418922,0.41893 0.23041,0 0.371795,-0.14139 0.314193,-0.3142 z m -5.373135,-7.15478 c -0.389371,-1.64014 -0.751075,-3.13089 -0.803785,-3.3128 -0.07689,-0.26535 -1.435362,-0.51273 -1.435362,-0.26137 0,0.22153 1.32752,4.18213 1.661739,4.95773 0.219477,0.50932 0.550908,1.28323 0.73651,1.71979 0.648658,1.52571 0.568452,-0.0387 -0.159102,-3.10335 z m 2.422144,3.08895 c -0.169447,-0.44158 -0.66876,-3.20343 -0.92961,-5.14196 -0.11851,-0.88071 -0.289235,-1.21237 -0.660665,-1.28346 -0.410528,-0.0786 -0.470898,0.0163 -0.33474,0.52615 0.09137,0.3421 0.433829,1.90193 0.761034,3.46627 0.407207,1.94686 0.709589,2.84428 0.95836,2.84428 0.220017,0 0.301162,-0.16231 0.205621,-0.41128 z m 1.256266,-3.35904 0.170193,-3.10885 h -0.691573 c -0.630772,0 -0.680029,0.0756 -0.560303,0.85989 0.0722,0.47295 0.280144,1.90522 0.4621,3.18282 0.181959,1.27761 0.357508,2.28964 0.390112,2.24896 0.0326,-0.0407 0.135864,-1.47295 0.229471,-3.18282 z m 2.54911,0.59532 c 0,-0.50844 -0.517425,-0.7173 -0.87965,-0.35508 -0.200298,0.2003 0.300503,0.88424 0.647462,0.88424 0.127704,0 0.232188,-0.23812 0.232188,-0.52916 z m -5.118386,-5.17079 c 0.199638,-0.52025 -0.0366,-0.75912 -0.554284,-0.56046 -0.232539,0.0892 -0.337598,0.32755 -0.247687,0.56186 0.200575,0.52269 0.601128,0.52199 0.801971,-0.001 z"
       id="path646" /></g></svg>
