<?xml version="1.0" encoding="UTF-8" standalone="no"?>
<!-- Created with Inkscape (http://www.inkscape.org/) -->

<svg
   width="126.16319mm"
   height="117.13686mm"
   viewBox="0 0 126.16319 117.13685"
   version="1.1"
   id="svg941"
   xml:space="preserve"
   inkscape:version="1.2.2 (732a01da63, 2022-12-09)"
   sodipodi:docname="arrow.svg"
   xmlns:inkscape="http://www.inkscape.org/namespaces/inkscape"
   xmlns:sodipodi="http://sodipodi.sourceforge.net/DTD/sodipodi-0.dtd"
   xmlns="http://www.w3.org/2000/svg"
   xmlns:svg="http://www.w3.org/2000/svg"><sodipodi:namedview
     id="namedview943"
     pagecolor="#505050"
     bordercolor="#eeeeee"
     borderopacity="1"
     inkscape:showpageshadow="0"
     inkscape:pageopacity="0"
     inkscape:pagecheckerboard="0"
     inkscape:deskcolor="#505050"
     inkscape:document-units="mm"
     showgrid="false"
     inkscape:zoom="0.73851712"
     inkscape:cx="427.20743"
     inkscape:cy="235.60727"
     inkscape:window-width="1920"
     inkscape:window-height="1009"
     inkscape:window-x="-8"
     inkscape:window-y="-8"
     inkscape:window-maximized="1"
     inkscape:current-layer="layer1" /><defs
     id="defs938" /><g
     inkscape:label="Layer 1"
     inkscape:groupmode="layer"
     id="layer1"
     transform="translate(182.41238,-60.83168)"><path
       style="fill:#000000;stroke-width:0.246602"
       d="m -178.85594,177.7638 c -1.65216,-0.39871 -2.89127,-1.59733 -3.32801,-3.21926 -0.61343,-2.2781 -1.50855,-0.94958 19.64319,-29.15423 l 19.56494,-26.08874 -19.56494,-26.08875 c -21.16715,-28.225206 -20.25725,-26.873797 -19.6393,-29.168682 0.33809,-1.255584 1.51382,-2.587333 2.60096,-2.946122 2.17175,-0.716744 -0.87272,-2.04064 62.00374,26.962471 43.675561,20.146283 59.29549,27.458813 59.960687,28.070793 1.549821,1.42584 1.816563,3.89836 0.61409,5.69221 -0.297599,0.44396 -1.092821,1.10207 -1.767159,1.46247 -2.286331,1.22193 -116.874988,54.03637 -117.969628,54.37276 -0.59799,0.18376 -1.15284,0.32275 -1.23301,0.30886 -0.0802,-0.0139 -0.47867,-0.10558 -0.88556,-0.20378 z"
       id="path1074" /></g></svg>
