<?xml version="1.0" encoding="UTF-8" standalone="no"?>
<!-- Created with Inkscape (http://www.inkscape.org/) -->

<svg
   width="48.960045mm"
   height="68.850121mm"
   viewBox="0 0 48.960044 68.850112"
   version="1.1"
   id="svg941"
   xml:space="preserve"
   inkscape:version="1.2.2 (732a01da63, 2022-12-09)"
   sodipodi:docname="hour_glass.svg"
   xmlns:inkscape="http://www.inkscape.org/namespaces/inkscape"
   xmlns:sodipodi="http://sodipodi.sourceforge.net/DTD/sodipodi-0.dtd"
   xmlns="http://www.w3.org/2000/svg"
   xmlns:svg="http://www.w3.org/2000/svg"><sodipodi:namedview
     id="namedview943"
     pagecolor="#505050"
     bordercolor="#eeeeee"
     borderopacity="1"
     inkscape:showpageshadow="0"
     inkscape:pageopacity="0"
     inkscape:pagecheckerboard="0"
     inkscape:deskcolor="#505050"
     inkscape:document-units="mm"
     showgrid="false"
     inkscape:zoom="1.4770342"
     inkscape:cx="235.94578"
     inkscape:cy="158.42558"
     inkscape:window-width="1920"
     inkscape:window-height="1009"
     inkscape:window-x="-8"
     inkscape:window-y="-8"
     inkscape:window-maximized="1"
     inkscape:current-layer="layer1" /><defs
     id="defs938" /><g
     inkscape:label="Layer 1"
     inkscape:groupmode="layer"
     id="layer1"
     transform="translate(145.38441,-80.547151)"><path
       style="fill:#000000;stroke-width:0.612001"
       d="m -144.37155,148.27807 c -0.55707,-0.61555 -1.01286,-1.69749 -1.01286,-2.40429 0,-1.31429 1.47105,-3.20852 2.49172,-3.20852 0.31256,0 0.56829,-1.6234 0.56829,-3.60755 0,-1.98415 0.57852,-5.4955 1.2856,-7.80301 1.16801,-3.81166 1.74544,-4.64337 6.31203,-9.09147 2.76452,-2.69281 5.20767,-5.38037 5.42922,-5.97233 0.69886,-1.86726 -0.57187,-3.87509 -5.57821,-8.81395 -4.36782,-4.30896 -4.99499,-5.2252 -6.15596,-8.993234 -0.71098,-2.307509 -1.29268,-5.572678 -1.29268,-7.255932 0,-2.535559 -0.26242,-3.266876 -1.53,-4.263961 -1.71039,-1.345397 -1.96784,-3.341941 -0.66134,-5.128699 0.83291,-1.139067 1.80492,-1.187973 23.61137,-1.187973 21.806462,0 22.778474,0.0489 23.611382,1.187973 1.306512,1.786758 1.049062,3.783302 -0.661335,5.128699 -1.296064,1.019482 -1.530002,1.71111 -1.530002,4.523347 0,3.542363 -1.341855,8.86169 -2.888525,11.45058 -0.51832,0.86759 -3.01805,3.53067 -5.55495,5.91795 -6.28883,5.91792 -6.28307,6.7343 0.0901,12.80492 5.90465,5.62428 7.83647,9.45949 8.235322,16.34952 0.151402,2.61531 0.495617,4.75512 0.764928,4.75512 0.985591,0 2.413083,1.96095 2.413083,3.31486 0,0.76528 -0.503634,1.84722 -1.11919,2.40429 -0.998407,0.90354 -3.530973,1.01286 -23.467173,1.01286 -20.87315,0 -22.41485,-0.0738 -23.36086,-1.1192 z m 15.99296,-13.99149 c 3.46269,-2.79694 6.8205,-5.08535 7.46181,-5.08535 0.6413,0 4.28011,2.5119 8.08623,5.582 l 6.92022,5.58201 0.19368,-1.93559 c 0.40245,-4.02193 -1.54925,-7.81538 -6.42841,-12.4947 -5.38818,-5.16747 -6.37421,-6.82491 -6.40475,-10.7657 -0.0307,-3.96071 1.15037,-5.98855 5.93376,-10.18814 5.05522,-4.43822 6.50476,-7.167372 6.88294,-12.95894 l 0.28974,-4.437007 h -15.38051 -15.38051 l 0.006,3.519006 c 0.008,5.128678 1.98552,8.922051 6.9221,13.283071 4.60493,4.06803 6.06517,6.64899 6.06517,10.7201 0,3.89335 -1.18556,5.90536 -5.93853,10.07822 -4.66715,4.09753 -6.40544,7.08161 -6.89643,11.83889 -0.41564,4.02711 -0.93912,4.21403 7.66751,-2.73787 z"
       id="path1093"
       sodipodi:nodetypes="ssssssssssssssssssssssssscsscsscssccccsssscc" /></g></svg>
