<?xml version="1.0" encoding="UTF-8" standalone="no"?>
<!-- Created with Inkscape (http://www.inkscape.org/) -->

<svg
   width="51.034939mm"
   height="51.134518mm"
   viewBox="0 0 51.034938 51.134511"
   version="1.1"
   id="svg941"
   xml:space="preserve"
   inkscape:version="1.2.2 (732a01da63, 2022-12-09)"
   sodipodi:docname="no_flame.svg"
   xmlns:inkscape="http://www.inkscape.org/namespaces/inkscape"
   xmlns:sodipodi="http://sodipodi.sourceforge.net/DTD/sodipodi-0.dtd"
   xmlns="http://www.w3.org/2000/svg"
   xmlns:svg="http://www.w3.org/2000/svg"><sodipodi:namedview
     id="namedview943"
     pagecolor="#505050"
     bordercolor="#eeeeee"
     borderopacity="1"
     inkscape:showpageshadow="0"
     inkscape:pageopacity="0"
     inkscape:pagecheckerboard="0"
     inkscape:deskcolor="#505050"
     inkscape:document-units="mm"
     showgrid="false"
     inkscape:zoom="1.4770342"
     inkscape:cx="146.57751"
     inkscape:cy="174.67435"
     inkscape:window-width="1920"
     inkscape:window-height="1009"
     inkscape:window-x="-8"
     inkscape:window-y="-8"
     inkscape:window-maximized="1"
     inkscape:current-layer="layer1" /><defs
     id="defs938" /><g
     inkscape:label="Layer 1"
     inkscape:groupmode="layer"
     id="layer1"
     transform="translate(121.82584,-76.161216)"><path
       style="fill:#000000;stroke-width:0.264583"
       d="m -99.874261,127.17572 c -8.754899,-1.39641 -16.015969,-6.82355 -19.726249,-14.74398 -1.75011,-3.73601 -2.22533,-6.03107 -2.22533,-10.74707 0,-3.454084 0.0961,-4.455824 0.60953,-6.350004 2.05833,-7.59448 7.11615,-13.64526 14.16686,-16.94812 3.73601,-1.75011 6.03106,-2.22533 10.747059,-2.22533 3.45409,0 4.45583,0.0962 6.35,0.60953 7.48618,2.02898 13.57336,7.06988 16.82575,13.93372 1.85554,3.91593 2.33574,6.17333 2.33574,10.980204 0,4.92896 -0.49296,7.15685 -2.48814,11.2448 -3.25737,6.67404 -9.53504,11.81269 -16.67335,13.64815 -2.2115,0.56864 -7.94116,0.91403 -9.92187,0.5981 z m 9.64706,-3.7861 c 5.97238,-1.72782 11.04639,-5.88717 13.8839,-11.38112 2.149,-4.16085 2.95508,-8.89478 2.28957,-13.446194 -0.48076,-3.28796 -2.02821,-7.33111 -3.61234,-9.43828 -0.37258,-0.49559 -1.18483,0.27013 -15.99671,15.080414 -8.582299,8.58138 -15.604189,15.68357 -15.604189,15.78263 0,0.30682 2.95399,1.96809 4.7625,2.67833 3.01103,1.18251 5.080839,1.50873 8.863539,1.39697 2.49254,-0.0736 3.98314,-0.25888 5.41373,-0.67275 z m -5.3986,-1.99069 c -0.56656,-1.48352 -2.13653,-2.86097 -4.09518,-3.59298 -0.811909,-0.30344 -2.168169,-0.92022 -3.013919,-1.37062 l -1.53773,-0.81892 2.98862,-2.99712 c 1.643739,-1.64841 3.115929,-2.99712 3.271539,-2.99712 0.72923,0 2.52311,1.70792 3.14045,2.98997 1.05524,2.19142 1.14273,4.79627 0.28617,8.51941 -0.16752,0.72812 -0.108,0.69184 0.71988,-0.4388 2.61099,-3.56584 3.55046,-7.9012 2.328,-10.7429 -0.35039,-0.8145 -1.1219,-1.86624 -1.90922,-2.60269 l -1.32123,-1.23585 3.39639,-3.40394 c 1.86801,-1.87217 3.47719,-3.403954 3.57595,-3.403954 0.37718,0 1.8561,2.763214 2.52182,4.711794 0.55977,1.63843 0.695,2.525 0.69384,4.54863 -0.002,4.05989 -1.326,6.88891 -4.82804,10.31875 -1.61382,1.58055 -4.74573,3.70417 -5.4629,3.70417 -0.16544,0 -0.50494,-0.53452 -0.75444,-1.18783 z m 14.086,-36.725354 c -1.68387,-1.4872 -4.60116,-3.24538 -6.69604,-4.03554 -14.778059,-5.5741 -30.556129,5.29361 -30.556129,21.046634 0,5.41205 1.70604,10.13836 5.21411,14.44489 l 1.21057,1.4861 15.982009,-15.96914 15.98202,-15.969144 z m -26.401419,25.623684 c -0.51951,-2.50244 0.4997,-5.95733 2.38465,-8.08342 l 0.82101,-0.92604 -0.14964,1.10867 c -0.20262,1.50125 0.29244,3.6406 1.05111,4.54223 l 0.62323,0.74065 -2.04172,2.02975 c -1.12295,1.11636 -2.11994,2.02974 -2.21555,2.02974 -0.0956,0 -0.30849,-0.64871 -0.47309,-1.44158 z m 8.109209,-8.33608 c -2.043769,-2.262204 -2.846439,-5.082254 -2.183319,-7.670684 1.03345,-4.03395 5.119759,-10.00697 8.506579,-12.43419 0.98481,-0.70577 1.22301,-0.79506 1.0588,-0.39687 -1.54439,3.74493 -1.1864,8.08595 0.99706,12.09044 l 0.83015,1.52249 -3.96099,3.96761 c -2.17855,2.182194 -4.03793,3.967614 -4.13196,3.967614 -0.094,0 -0.59637,-0.47088 -1.11632,-1.04641 z"
       id="path1112" /></g></svg>
