<?xml version="1.0" encoding="UTF-8" standalone="no"?>
<!-- Created with Inkscape (http://www.inkscape.org/) -->

<svg
   width="100mm"
   height="100mm"
   viewBox="0 0 100 100"
   version="1.1"
   id="svg5"
   xml:space="preserve"
   inkscape:version="1.2.2 (732a01da63, 2022-12-09)"
   sodipodi:docname="reset.svg"
   xmlns:inkscape="http://www.inkscape.org/namespaces/inkscape"
   xmlns:sodipodi="http://sodipodi.sourceforge.net/DTD/sodipodi-0.dtd"
   xmlns="http://www.w3.org/2000/svg"
   xmlns:svg="http://www.w3.org/2000/svg"><sodipodi:namedview
     id="namedview7"
     pagecolor="#505050"
     bordercolor="#eeeeee"
     borderopacity="1"
     inkscape:showpageshadow="0"
     inkscape:pageopacity="0"
     inkscape:pagecheckerboard="0"
     inkscape:deskcolor="#505050"
     inkscape:document-units="mm"
     showgrid="false"
     inkscape:zoom="1.4770342"
     inkscape:cx="118.14215"
     inkscape:cy="121.1888"
     inkscape:window-width="1920"
     inkscape:window-height="1009"
     inkscape:window-x="-8"
     inkscape:window-y="-8"
     inkscape:window-maximized="1"
     inkscape:current-layer="layer1" /><defs
     id="defs2" /><g
     inkscape:label="Layer 1"
     inkscape:groupmode="layer"
     id="layer1"
     transform="translate(-1.0892884,-154.79994)"><path
       style="fill:#000000;fill-opacity:1;stroke:none;stroke-width:0.324158;stroke-opacity:1"
       d="m 44.553666,252.70963 c -2.113312,-0.40397 -4.374318,-0.96021 -5.024464,-1.23608 -0.650134,-0.27586 -1.546747,-0.60033 -1.992462,-0.72105 -0.76302,-0.20664 -1.883311,-0.67384 -4.53822,-1.8925 -0.624001,-0.28644 -1.790971,-0.95063 -2.593258,-1.47597 -0.802299,-0.52535 -1.932796,-1.19795 -2.512226,-1.49467 -0.579442,-0.29672 -1.053519,-0.6373 -1.053519,-0.75682 0,-0.11958 -0.437262,-0.47564 -0.971703,-0.79134 -2.965451,-1.75174 -9.429447,-9.1602 -11.520425,-13.20371 -0.278124,-0.53783 -0.953901,-1.25044 -1.501721,-1.5836 -1.161531,-0.70636 -2.416552,-0.41272 -4.6163614,1.08012 -0.689657,0.468 -1.404406,0.85092 -1.588353,0.85092 -0.183934,0 -0.594303,0.23517 -0.911927,0.52262 -0.538374,0.48722 -0.592012,0.46477 -0.791861,-0.33148 0.588158,-7.22049 2.217608,-17.14442 3.112103,-23.47074 0.369473,-3.72262 0.958557,-5.78946 1.735043,-6.08742 0.2358684,-0.0905 1.1794164,0.13464 2.0967834,0.50034 8.387551,3.40112 14.335963,5.82686 21.347977,8.89838 1.46395,0.64191 2.813261,1.16711 2.998457,1.16711 0.185208,0 0.336736,0.41549 0.336736,0.92331 0,0.75641 -0.219733,1.01931 -1.215596,1.45442 -1.818182,0.7944 -4.664376,2.63172 -5.307894,3.42643 -0.770984,0.95213 -0.303939,2.00768 1.99566,4.51034 5.891856,6.41208 13.423375,10.10747 20.599878,10.10747 4.633661,0 4.357827,-0.41044 5.010252,7.45565 0.199616,2.40687 0.570302,5.47017 0.823728,6.80732 0.563086,2.97096 0.591485,5.25044 0.07192,5.77002 -0.694118,0.69413 -9.530707,0.42307 -13.988532,-0.42907 z m 23.638435,-3.15287 c -1.289586,-6.05953 -2.686493,-21.51066 -3.128141,-28.91492 0.215188,-0.13299 0.637331,-0.0308 0.938097,0.22727 1.064509,0.9131 5.425999,3.11045 6.606764,3.32853 1.19755,0.22119 1.19755,0.22119 2.139702,-1.85668 0.518184,-1.14282 1.115464,-3.09033 1.327308,-4.32779 0.211843,-1.23745 0.537088,-3.05221 0.722761,-4.03279 0.962858,-5.08482 -0.816376,-13.70718 -3.629956,-17.59121 -1.343883,-1.85518 -1.2481,-2.7607 0.430719,-4.07162 6.781755,-5.29559 13.906226,-10.4397 14.431331,-10.41992 0.13026,0.005 0.569065,0.47899 0.975146,1.05352 3.763086,5.32414 7.132536,13.336 7.869116,18.71121 0.18323,1.33716 0.48497,3.52522 0.67052,4.86238 0.18555,1.33716 0.26848,3.08761 0.1843,3.8899 -0.46009,4.38485 -1.33669,9.20208 -2.06457,11.34554 -0.95645,2.81655 -2.69991,7.11468 -3.11807,7.68698 -0.49041,0.67117 -2.151677,4.12553 -2.162409,4.49641 -0.01568,0.54294 1.559489,1.81499 3.879719,3.13304 3.28054,1.86359 3.16857,1.69761 1.74814,2.5913 -6.589094,4.89443 -17.020914,7.5895 -25.233406,10.31991 -0.169367,0.16406 -0.786544,0.29829 -1.371499,0.29829 -0.841786,0 -1.095236,-0.15208 -1.215572,-0.72935 z m -39.08348,-49.10771 c -0.267429,-0.092 -1.215585,-0.4991 -2.107027,-0.90451 -3.976873,-1.59514 -8.067446,-3.39831 -11.665043,-4.96587 -3.807924,-1.65609 -3.881397,-1.91175 -1.737211,-6.04471 2.658217,-5.12373 9.478687,-12.8127 13.851167,-15.61495 1.001107,-0.6416 2.184873,-1.41354 2.630589,-1.71543 0.871582,-0.59033 4.03807,-2.13846 6.616075,-3.23464 1.400462,-0.59549 3.904124,-1.31637 8.089031,-2.32907 0.688886,-0.1667 3.298463,-0.41725 5.799038,-0.55677 5.704589,-0.3183 5.752677,-0.35678 5.752677,-4.60365 0,-1.57322 0.15023,-3.25552 0.333833,-3.73843 0.313459,-0.82445 0.367856,-0.84481 0.89143,-0.33364 6.716032,5.10604 13.24162,10.12487 19.810137,15.45179 0.999772,0.81294 2.054786,1.56718 2.344477,1.67608 0.289678,0.10892 0.592698,0.64768 0.673363,1.19726 0.123398,0.84077 -0.01103,1.09891 -0.850865,1.62785 -5.79519,4.6435 -14.478657,11.44481 -21.099482,16.60964 -2.207528,1.31647 -1.770144,-2.96902 -1.773765,-3.95872 -0.0061,-4.37646 -0.332987,-5.17762 -2.114414,-5.17762 -2.55496,0 -8.965894,1.89558 -11.505196,3.40185 -0.802299,0.4759 -1.993625,1.18522 -2.647398,1.57624 -3.028314,1.81128 -7.234711,6.42024 -8.860223,9.70818 -0.706528,1.4291 -1.667879,2.19191 -2.431193,1.92912 z"
       id="path353"
       sodipodi:nodetypes="sssssssssssssccsccssssssssssscccsssssssssssssssccsccccssssssssccsscccssssc" /></g></svg>
