<?xml version="1.0" encoding="UTF-8" standalone="no"?>
<!-- Created with Inkscape (http://www.inkscape.org/) -->

<svg
   width="81.814178mm"
   height="81.803017mm"
   viewBox="0 0 81.814177 81.803006"
   version="1.1"
   id="svg941"
   xml:space="preserve"
   inkscape:version="1.2.2 (732a01da63, 2022-12-09)"
   sodipodi:docname="save.svg"
   xmlns:inkscape="http://www.inkscape.org/namespaces/inkscape"
   xmlns:sodipodi="http://sodipodi.sourceforge.net/DTD/sodipodi-0.dtd"
   xmlns="http://www.w3.org/2000/svg"
   xmlns:svg="http://www.w3.org/2000/svg"><sodipodi:namedview
     id="namedview943"
     pagecolor="#505050"
     bordercolor="#eeeeee"
     borderopacity="1"
     inkscape:showpageshadow="0"
     inkscape:pageopacity="0"
     inkscape:pagecheckerboard="0"
     inkscape:deskcolor="#505050"
     inkscape:document-units="mm"
     showgrid="false"
     inkscape:zoom="2.0888418"
     inkscape:cx="170.66874"
     inkscape:cy="176.65291"
     inkscape:window-width="1920"
     inkscape:window-height="1009"
     inkscape:window-x="-8"
     inkscape:window-y="-8"
     inkscape:window-maximized="1"
     inkscape:current-layer="layer1" /><defs
     id="defs938" /><g
     inkscape:label="Layer 1"
     inkscape:groupmode="layer"
     id="layer1"
     transform="translate(146.59793,-58.840734)"><path
       style="fill:#000000;stroke-width:0.0399507"
       d="m -135.17105,140.63482 c -0.0769,-0.007 -0.33758,-0.0324 -0.57928,-0.0556 -2.77497,-0.26562 -5.44138,-1.55703 -7.43326,-3.6001 -2.00397,-2.05548 -3.18699,-4.7432 -3.37353,-7.66434 -0.0548,-0.85732 -0.0542,-58.277523 5.2e-4,-59.135952 0.13694,-2.146501 0.80846,-4.158079 1.97752,-5.923772 0.46256,-0.69864 0.79295,-1.109568 1.37297,-1.707668 2.10069,-2.166164 4.84395,-3.450342 7.83071,-3.665727 0.76532,-0.05519 49.870606,-0.05426 50.566404,9.57e-4 1.613313,0.12803 3.206036,0.56331 4.610119,1.259911 0.59066,0.293041 1.498172,0.888924 2.177314,1.429651 0.40017,0.31861 9.267541,9.128478 10.110049,10.04449 1.291091,1.403723 2.211903,3.106725 2.715989,5.023105 0.138617,0.526983 0.198459,0.832549 0.32468,1.657954 0.06637,0.43398 0.071,1.837221 0.08361,25.328751 0.0092,17.22623 3.99e-4,25.09164 -0.02909,25.59275 -0.22477,3.83133 -2.109497,7.19167 -5.235068,9.3338 -1.604684,1.09978 -3.290816,1.72247 -5.513198,2.03604 -0.261241,0.0369 -7.159626,0.0492 -29.903109,0.0536 -16.25994,0.003 -29.62644,-4.4e-4 -29.70335,-0.008 z m 7.84007,-23.07551 0.0102,-18.267465 0.10813,-0.29156 c 0.30033,-0.809749 0.89807,-1.363697 1.69009,-1.566262 0.30973,-0.07921 0.45205,-0.07979 19.83508,-0.07979 19.447915,0 19.524333,3.19e-4 19.838217,0.08059 0.864949,0.221216 1.508751,0.879279 1.735087,1.773523 0.07943,0.313821 0.07998,0.441683 0.07998,18.467214 v 18.15121 h 3.892301 c 2.493204,0 4.004639,-0.0151 4.204812,-0.042 2.219525,-0.29791 4.155093,-1.57061 5.330107,-3.50473 0.322518,-0.53087 0.6454,-1.32514 0.795347,-1.9565 0.213209,-0.89772 0.199638,0.87994 0.199638,-26.14856 0,-17.080031 -0.01319,-25.127875 -0.04155,-25.358972 -0.151957,-1.237989 -0.62898,-2.416823 -1.414123,-3.494639 -0.31023,-0.425873 -9.700695,-9.821045 -10.130029,-10.135108 -1.042158,-0.76235 -1.923723,-1.154305 -3.196057,-1.421008 -0.259551,-0.05441 -0.899414,-0.06479 -4.783649,-0.07762 l -4.48402,-0.01482 -0.01044,8.640804 -0.01043,8.640803 -0.08883,0.259679 c -0.209242,0.611674 -0.674947,1.169024 -1.18519,1.418421 -0.580148,0.283566 0.825086,0.261133 -15.647101,0.249785 l -14.87964,-0.01025 -0.32138,-0.132238 c -0.68668,-0.282551 -1.18617,-0.816348 -1.42671,-1.524703 l -0.0885,-0.260693 -0.0111,-8.63934 -0.0111,-8.639341 h -3.85182 c -2.4409,0 -3.96629,0.01523 -4.16432,0.04157 -1.0052,0.133704 -2.14463,0.505145 -2.78836,0.908969 -0.52754,0.330935 -0.87619,0.584396 -1.19673,0.869994 -1.29608,1.154818 -2.07914,2.615559 -2.35686,4.396572 -0.057,0.365521 -0.063,3.227185 -0.063,29.853427 0,25.709838 0.007,29.498808 0.0587,29.840268 0.24576,1.63621 0.92044,2.98893 2.0569,4.12402 1.09805,1.09673 2.53128,1.81662 4.09669,2.05771 0.23539,0.0363 1.35908,0.0504 4.26448,0.0538 l 3.94487,0.005 z m 38.492811,1.43822 -0.01004,-16.82923 h -16.839231 -16.83922 l -0.01,16.82923 -0.01,16.82924 h 16.85929 16.859302 z m -9.61818,-48.110637 V 63.67579 h -12.045141 -12.04513 v 7.184469 c 0,3.951458 0.012,7.196454 0.0266,7.211102 0.0147,0.01465 5.43496,0.02663 12.04514,0.02663 h 12.018501 z"
       id="path1131" /></g></svg>
