<?xml version="1.0" encoding="UTF-8" standalone="no"?>
<!-- Created with Inkscape (http://www.inkscape.org/) -->

<svg
   version="1.1"
   id="svg2"
   width="420"
   height="420"
   viewBox="0 0 420.00001 420"
   sodipodi:docname="so_below.svg"
   inkscape:version="1.2.2 (732a01da63, 2022-12-09)"
   xmlns:inkscape="http://www.inkscape.org/namespaces/inkscape"
   xmlns:sodipodi="http://sodipodi.sourceforge.net/DTD/sodipodi-0.dtd"
   xmlns="http://www.w3.org/2000/svg"
   xmlns:svg="http://www.w3.org/2000/svg">
  <defs
     id="defs6" />
  <sodipodi:namedview
     id="namedview4"
     pagecolor="#505050"
     bordercolor="#eeeeee"
     borderopacity="1"
     inkscape:showpageshadow="0"
     inkscape:pageopacity="0"
     inkscape:pagecheckerboard="0"
     inkscape:deskcolor="#505050"
     showgrid="false"
     inkscape:zoom="1.172383"
     inkscape:cx="130.92991"
     inkscape:cy="200.44643"
     inkscape:window-width="1920"
     inkscape:window-height="1009"
     inkscape:window-x="-8"
     inkscape:window-y="-8"
     inkscape:window-maximized="1"
     inkscape:current-layer="g8" />
  <g
     inkscape:groupmode="layer"
     inkscape:label="Image"
     id="g8"
     transform="translate(-609.73437,-129.40976)">
    <path
       d="m 859.05766,536.28543 c 8.89238,-5.31557 10.24795,-23.71523 3.00325,-40.7641 -1.3921,-3.27602 -3.39421,-9.37536 -4.44912,-13.55409 l -1.91803,-7.59767 10.0241,-3.98138 c 10.26897,-4.07863 12.88932,-5.5851 12.36649,-7.10959 -0.19377,-0.56497 -4.34263,0.76465 -11.85578,3.79949 -9.4236,3.80657 -11.71421,4.47549 -12.40521,3.62263 -0.83451,-1.02994 -24.86072,-64.4377 -29.57061,-78.03999 l -2.4161,-6.97765 5.16029,-10.30791 c 2.83817,-5.66934 5.53296,-10.4357 5.98842,-10.5919 0.45545,-0.1562 -0.41672,-0.94197 -1.93823,-1.74612 -2.31544,-1.22381 -2.65868,-1.74613 -2.10583,-3.20451 0.8564,-2.25923 -0.49925,-2.92776 -1.75661,-0.86625 -1.42599,2.338 -2.61738,1.22382 -1.49344,-1.39666 1.64111,-3.8263 5.77479,-6.39081 8.98278,-5.57287 1.49893,0.38218 2.86022,0.4192 3.02506,0.0823 0.59815,-1.2226 -3.93328,-5.12764 -5.37599,-4.63286 -0.81484,0.27946 -1.837,0.21662 -2.27146,-0.13965 -1.33571,-1.09531 -37.48099,-13.44254 -43.92797,-15.0058 -2.90132,-0.70351 -3.14384,-1.18946 -3.53071,-7.07443 -0.0742,-1.12923 -0.63123,-1.51608 -1.72016,-1.19472 -0.93995,0.27733 -1.21688,0.13455 -0.66524,-0.34308 0.51984,-0.4501 0.59882,-1.10235 0.17549,-1.44948 -0.45685,-0.37463 -1.33147,-0.0268 -2.15206,0.85575 -0.95168,1.0236 -1.47899,1.20526 -1.69221,0.58353 -0.30424,-0.88706 1.33735,-1.87978 4.04085,-2.4436 0.75129,-0.1567 2.51236,0.49705 3.91349,1.45274 9.06262,6.18151 52.48491,25.27654 54.20529,23.83687 1.61735,-1.35344 0.95953,-1.79156 -7.05562,-4.69898 -17.03981,-6.1811 -44.67722,-19.21451 -43.93994,-20.72148 1.0532,-2.15269 8.15382,-0.83555 14.62718,2.71329 3.76845,2.06595 9.90629,5.34328 13.63965,7.28298 3.73337,1.93969 10.45026,5.45418 14.92642,7.80999 7.91331,4.16473 10.59588,4.91033 9.1364,2.53934 -0.39183,-0.63653 -9.38426,-5.63719 -19.98318,-11.11258 -10.59892,-5.47538 -19.35001,-10.18631 -19.44688,-10.46874 -0.77446,-2.25818 5.17025,-0.19013 21.18842,7.37109 20.70213,9.77223 26.00065,10.76691 7.62225,1.4309 -16.02888,-8.14248 -27.94172,-12.93908 -29.30408,-11.79903 -0.75204,0.62935 -3.06517,-0.5755 -7.22948,-3.76558 -3.36797,-2.58006 -6.41692,-4.33331 -6.77544,-3.89613 -0.35851,0.4372 1.11164,2.01776 3.26697,3.51235 3.98016,2.76001 4.07442,5.34702 0.10416,2.85801 -1.09655,-0.68743 -4.42607,-2.77235 -7.39893,-4.63315 -6.79619,-4.2539 -5.93636,-4.88793 5.13017,-3.78294 4.86979,0.48625 10.98265,0.68869 13.58416,0.44986 2.6015,-0.23882 7.0944,-0.21116 9.98422,0.0615 6.04615,0.57038 13.8849,-1.10347 19.73258,-4.2136 6.27722,-3.33858 4.01648,-4.09241 -4.04986,-1.35042 -7.73229,2.6284 -11.38725,3.0388 -11.96857,1.34379 -0.41606,-1.21316 -12.15098,-5.96232 -15.57942,-6.30504 -1.25041,-0.12503 -2.53041,-0.97646 -2.84446,-1.89215 -0.44367,-1.29365 -0.93507,-1.39507 -2.20389,-0.45487 -1.43049,1.05999 -1.6394,0.92905 -1.68518,-1.05627 l -0.0523,-2.26626 -1.05344,1.72717 c -1.32212,2.16769 -3.34225,1.38384 -3.86803,-1.50089 l -0.37043,-2.03222 11.9358,3.50524 c 20.18086,5.92658 27.6109,7.78283 27.99664,6.9944 0.20357,-0.41609 -0.84527,-1.17746 -2.33075,-1.69192 -7.8259,-2.71031 -22.3184,-7.01757 -30.05591,-8.93275 -6.23989,-1.54449 -8.75273,-2.60093 -8.71443,-3.66368 0.0768,-2.13109 0.27032,-2.12362 9.75671,0.37784 30.16296,7.95337 43.11868,11.23792 43.63279,11.06161 2.76765,-0.94919 -8.09432,-4.68312 -26.16249,-8.99366 -24.51281,-5.84806 -32.87681,-8.58016 -33.71071,-11.01164 -0.65295,-1.90386 0.43635,-1.92846 7.35288,-0.16611 3.47331,0.88502 11.81604,2.92481 18.53938,4.53289 6.72335,1.60807 18.39311,4.51992 25.9328,6.47079 15.47159,4.0032 20.36656,3.08013 6.10876,-1.15197 l -2.6804,-0.79562 3.83209,0.15668 c 2.10766,0.0862 4.77869,-0.16796 5.93561,-0.56474 3.51833,-1.20664 4.02074,0.99619 3.4018,14.91536 l -0.59474,13.37464 -3.22833,-1.49466 c -4.42287,-2.04769 -4.75517,-0.49239 -0.5017,2.34821 4.0118,2.67918 4.02344,2.7391 3.72176,19.17372 -0.31197,16.99491 0.0741,18.50485 18.34862,71.76997 18.91342,55.12906 17.30065,50.09649 15.6421,48.79145 -0.77843,-0.6125 -1.1585,-0.60249 -0.95225,0.025 0.18951,0.57418 0.81941,1.1525 1.40141,1.28459 1.76311,0.40017 2.41353,3.5823 0.71974,3.52127 -2.1716,-0.0783 -1.03535,2.30066 1.64875,3.45189 2.17567,0.93315 2.87318,3.07295 0.85218,2.61423 -1.33285,-0.3025 -0.6628,1.41379 1.24411,3.18674 1.37537,1.27876 1.32166,1.45166 -0.4638,1.49283 -2.5318,0.0584 -2.32012,0.67769 1.22531,3.58509 3.20906,2.6315 2.81334,3.42254 -0.65879,1.31691 -3.20722,-1.94498 -2.25153,0.69152 1.02245,2.82064 2.54254,1.65349 4.45382,5.30302 3.0325,5.79047 -0.44534,0.15274 -1.96094,-0.46653 -3.36798,-1.37614 -4.39199,-2.83929 -4.43493,-0.59084 -0.0557,2.91604 5.37097,4.30109 6.08787,7.55969 0.77354,3.51607 -3.42794,-2.60829 -5.62118,-3.34148 -5.04275,-1.68578 0.12542,0.3595 2.00998,2.01846 4.18757,3.6867 6.06912,4.64951 6.34935,7.21652 0.41071,3.76228 -2.61197,-1.51927 -4.9273,-2.40993 -5.14517,-1.97927 -0.42821,0.84645 2.95158,3.86534 6.73785,6.01838 1.34636,0.7656 2.32935,2.02123 2.29647,2.93344 -0.0761,2.11113 -1.21381,1.75356 -5.91179,-1.85794 -2.15637,-1.65767 -4.07423,-2.70008 -4.26191,-2.31648 -0.44533,0.91023 3.60185,4.83488 6.76786,6.56294 1.98398,1.08289 2.33972,1.64925 1.765,2.80993 -0.7999,1.61538 -6.19191,-1.08577 -9.84356,-4.93114 -2.2912,-2.41275 -3.48724,-2.28622 -2.6085,0.27598 0.34849,1.01611 2.66779,3.26068 5.15399,4.98792 3.17289,2.20431 4.27618,3.43827 3.70114,4.13953 -0.87521,1.0673 -3.23102,-0.18046 -7.23813,-3.83367 -2.67057,-2.43468 -5.0508,-2.41383 -3.42803,0.03 0.59054,0.88936 0.57707,1.91012 -0.0321,2.41984 -1.43237,1.19864 -0.46749,3.61506 1.98445,4.97004 4.24477,2.34569 1.09205,3.7533 -3.75813,1.67791 -5.37963,-2.30194 -5.87878,-2.24608 -4.91968,0.55048 1.61328,4.70399 10.01438,5.32229 14.75699,1.08607 1.54409,-1.37925 3.80453,-3.10832 5.02317,-3.84237 1.37482,-0.82813 2.99725,-3.54077 4.27508,-7.14771 4.94471,-13.95762 3.09205,-22.56508 -17.64862,-81.99574 -22.02461,-63.10972 -23.3257,-67.21496 -24.20057,-76.35903 -0.83889,-8.76789 -0.79792,-40.30653 0.0662,-50.998 0.31232,-3.86388 0.4017,-7.54433 0.19863,-8.17877 -1.36649,-4.26862 1.87653,-17.41546 4.51947,-18.32186 2.21727,-0.76044 21.69918,4.64843 29.63107,8.22665 3.82178,1.72406 9.90381,4.41406 13.51562,5.97777 4.32451,1.87226 6.80018,3.52326 7.25006,4.83502 0.66598,1.94188 5.94002,6.18568 12.19345,9.81158 12.59071,7.30042 41.70244,10.25148 53.04498,5.37716 l 6.08163,-2.61349 5.15758,1.05445 c 15.24267,3.11633 11.6593,-2.48842 -14.31785,-22.39452 -3.84599,-2.94718 -11.58179,-9.13669 -17.19062,-13.75447 -5.60883,-4.61778 -11.90749,-9.40437 -13.99701,-10.63687 -2.08953,-1.23248 -7.56591,-5.12052 -12.16973,-8.64007 -4.60383,-3.51955 -10.17543,-7.5366 -12.38137,-8.92678 -5.46241,-3.44241 -13.1363,-9.31225 -16.73474,-12.80057 -9.22875,-8.94635 -21.82406,-16.53087 -36.5939,-22.03574 -13.70804,-5.10911 -24.94641,-12.97989 -39.8015,-27.87491 -9.37813,-9.40331 -23.22382,-25.01519 -23.87872,-26.92474 -0.66838,-1.94883 -13.90955,-1.74415 -33.48706,0.51763 -4.71237,0.54441 -12.88887,2.85017 -28.91639,8.15435 l -22.34624,7.3953 -10.65583,5.91725 c -22.44097,12.46162 -27.42594,17.61569 -25.91608,26.79522 1.08374,6.58881 -0.82975,23.67814 -3.70069,33.05134 -8.12426,26.52407 -5.20694,46.62231 11.81441,81.39326 2.58696,5.28462 6.23803,12.8145 8.11347,16.73311 1.87546,3.91859 5.06324,10.07051 7.08399,13.67093 2.02075,3.60042 5.48284,9.87781 7.69354,13.94976 8.8829,16.36159 12.83846,21.98553 17.64598,25.08872 1.55085,1.00107 2.93547,2.15757 3.07691,2.56999 0.14145,0.41243 2.29278,1.37182 4.78072,2.13196 l 4.52355,1.38208 7.55555,-2.59125 7.55556,-2.59126 3.77795,1.92207 c 2.07788,1.05714 3.92602,2.35377 4.10699,2.88141 1.25736,3.66618 12.10396,4.72464 17.70544,1.72778 3.73518,-1.99838 2.85041,-3.57635 12.30381,21.94341 15.47076,41.76386 22.57103,59.12766 27.81982,68.03381 1.44712,2.45546 5.75578,13.08835 9.57481,23.62866 3.81901,10.5403 7.72071,20.09858 8.67039,21.24059 0.9497,1.14202 2.13754,3.27423 2.63964,4.73824 2.74682,8.00919 14.52644,11.46385 22.61091,6.63118 z m -7.08621,-5.40863 c -2.75317,-1.79911 -5.67432,-3.62008 -6.49145,-4.0466 -1.7709,-0.92434 -2.468,-2.52955 -1.27606,-2.93833 1.10384,-0.37858 13.18455,7.29779 13.71349,8.71386 0.76041,2.03566 -0.94295,1.5404 -5.94598,-1.72893 z m -5.20076,3.56382 c -6.8808,-1.84591 -10.54461,-7.77571 -16.8315,-27.24139 l -4.36353,-13.51055 7.34174,-3.36366 7.34175,-3.36366 6.846,3.47697 c 3.7653,1.91232 7.86191,3.7421 9.10359,4.06615 2.491,0.65011 5.40447,3.90099 3.94478,4.4016 -0.49585,0.17005 -2.64822,-0.40907 -4.78303,-1.28697 -4.32745,-1.77954 -5.15177,-1.78346 -4.54753,-0.0216 0.22719,0.66244 2.67796,2.04685 5.44614,3.07645 4.56271,1.69705 6.66977,3.7732 5.74586,5.66161 -0.18975,0.38786 -3.78876,-0.91713 -7.99779,-2.89999 -4.20902,-1.98287 -7.93449,-3.26167 -8.27881,-2.84177 -0.60473,0.73746 1.33143,1.94835 12.66004,7.91773 2.91631,1.53669 5.14774,3.11007 4.95874,3.49639 -0.32912,0.67271 -10.13231,-4.1541 -11.28684,-5.55732 -0.73349,-0.89146 -3.11052,-0.0599 -2.75896,0.96525 0.32514,0.94802 9.07572,6.65374 11.73124,7.64921 1.68677,0.63233 3.62043,3.76175 2.551,4.12851 -0.24147,0.0828 -4.31487,-1.87176 -9.05198,-4.34352 -11.58016,-6.04234 -11.40895,-3.19392 0.18957,3.15407 4.92162,2.69365 8.36693,5.16003 8.33777,5.96876 -0.0623,1.72975 -3.43195,0.31213 -10.77379,-4.53261 -4.52225,-2.98418 -7.99774,-3.88252 -7.31463,-1.89071 0.12735,0.37131 3.82893,2.91846 8.22573,5.66032 4.3968,2.74187 7.8893,5.44729 7.76112,6.01206 -0.12822,0.56477 -1.32075,0.34063 -2.65014,-0.4981 -13.26033,-8.36604 -18.44489,-9.32158 -16.55168,-3.05057 0.59194,1.96056 1.17165,3.97105 1.2883,4.46771 0.11664,0.49668 0.53038,0.75105 0.91934,0.5653 0.87887,-0.41971 7.36098,2.52398 7.6936,3.49386 0.40915,1.19297 -1.074,1.26579 -4.8961,0.24046 z m 33.02124,-21.3718 c 0.54666,-1.11736 2.67693,-0.34178 2.40096,0.87414 -0.16404,0.72272 -0.65756,0.87515 -1.49965,0.46315 -0.69034,-0.33775 -1.09592,-0.93953 -0.90131,-1.3373 z m -35.79156,-26.82901 c -0.22766,-0.66383 2.19649,0.0397 7.85592,2.28004 2.94939,1.16752 5.47711,2.45623 5.61715,2.86382 0.14005,0.40758 -2.80309,-0.49266 -6.54034,-2.00056 -3.73723,-1.50789 -6.85696,-2.92237 -6.93273,-3.1433 z m 2.14914,-2.73429 c -6.86429,-2.90634 -11.30629,-3.55672 -7.20428,-1.05483 2.04272,1.2459 1.68283,1.51552 -7.00337,5.24686 l -7.91664,3.40078 -0.39874,-2.12781 c -0.29861,-1.59356 0.23323,-2.42827 2.11823,-3.32446 4.66721,-2.21894 6.25937,-3.49815 5.5182,-4.43356 -0.80142,-1.01145 -1.42348,-0.82646 -6.43244,1.91305 l -3.32861,1.82048 -3.86951,-7.59899 c -5.28928,-10.38717 -11.72566,-25.81829 -22.06236,-52.8941 -4.80095,-12.57554 -10.15742,-26.12357 -11.90327,-30.10674 l -3.17426,-7.24213 2.76644,-3.59559 c 3.50539,-4.55599 2.57806,-4.58981 10.2483,0.37369 4.46509,2.8894 6.53084,3.7756 6.38461,2.73896 -0.11889,-0.84287 -2.50538,-3.00469 -5.3033,-4.80405 -2.79793,-1.79937 -5.20979,-3.62918 -5.35969,-4.06625 -0.76134,-2.21989 2.90324,-1.01019 12.4587,4.11287 5.80152,3.1104 11.49839,5.8096 12.65975,5.99823 3.35213,0.54443 1.54879,-0.88054 -6.27505,-4.95844 -13.33133,-6.94847 -17.48641,-9.48078 -17.25188,-10.51414 0.12883,-0.56746 -0.28211,-0.86141 -0.91329,-0.65315 -0.83622,0.2759 -0.87273,0.022 -0.1346,-0.93583 0.76523,-0.99306 1.7567,-0.88471 4.05514,0.44277 1.67323,0.96663 7.3598,4.10398 12.63682,6.97188 5.27703,2.8679 10.09719,5.66187 10.71148,6.20883 1.17419,1.04551 6.6529,15.2688 18.4025,47.77474 3.88336,10.74351 8.18209,21.78366 9.55274,24.53368 l 2.4921,5.00001 -1.89014,-0.71054 c -2.91901,-1.0973 -2.95475,0.63472 -0.0448,2.17274 5.03691,2.6622 3.99341,4.73841 -1.17813,2.34411 -2.42194,-1.1213 -3.42765,-1.16924 -3.90853,-0.18635 -0.48088,0.98291 0.71891,1.914 4.66272,3.6186 2.9206,1.26234 5.4916,2.82407 5.71331,3.47052 0.63435,1.84963 -0.51012,1.75246 -5.11856,-0.43463 -2.79037,-1.32425 -4.38056,-1.61566 -4.55767,-0.83523 -0.15708,0.69191 2.22852,2.3735 5.643,3.97776 3.28803,1.54485 6.18513,3.56659 6.52315,4.5522 0.86991,2.53647 0.43268,2.47747 -8.10453,-1.09356 -7.74504,-3.23968 -9.09994,-3.5481 -8.55063,-1.9464 0.34398,1.00298 1.81957,1.73962 11.54374,5.76296 3.87474,1.60317 7.16222,3.25668 7.3055,3.67448 0.46014,1.34167 -1.44277,0.82279 -9.51208,-2.59376 z m -20.07895,-54.0096 c 0.36209,-1.5953 -2.09663,-2.06249 -5.29115,-1.00538 -1.44595,0.47846 -5.84054,1.10825 -9.76577,1.39948 -8.60801,0.63867 -9.45594,0.88033 -8.88899,2.53342 0.91984,2.68204 23.29356,-0.0533 23.94591,-2.92752 z m -5.56126,-8.07044 c 0.75587,-3.30362 -11.43578,-0.85673 -15.16676,3.04402 -1.29539,1.35433 -2.00784,2.63241 -1.58323,2.84015 1.1366,0.55608 16.51229,-4.84531 16.74999,-5.88417 z m -0.35661,-41.75143 c -0.51552,-1.53737 -0.38917,-1.75135 0.57661,-0.97618 0.68034,0.54607 1.15075,1.37272 1.04538,1.837 -0.33705,1.48504 -0.94313,1.16338 -1.62199,-0.86082 z m -15.88337,-5.44497 c -10.38041,-5.57289 -13.76896,-8.53613 -10.89028,-9.52341 1.97052,-0.6758 22.33832,10.61498 23.08708,12.79822 1.26271,3.68178 0.25897,3.41229 -12.1968,-3.27481 z m 18.13952,-1.06357 c 0.85702,-1.99814 3.0552,-3.56779 3.43708,-2.45431 0.64342,1.87607 -0.67703,4.32206 -2.40285,4.45107 l -1.95326,0.146 z m -55.54142,15.71108 c -7.03514,-0.35361 -16.36544,-14.36093 -13.89931,-20.86664 0.40954,-1.08039 -3.61868,-13.93232 -13.77152,-43.93775 -9.99933,-29.55168 -14.1584,-42.80313 -13.71716,-43.70499 0.46187,-0.94406 1.04361,-0.19399 2.14972,2.7718 0.8341,2.23633 1.74944,4.4253 2.03419,4.86432 0.28474,0.43903 0.67055,1.07513 0.85738,1.41358 0.69229,1.25413 7.85909,2.63228 8.94838,1.72072 0.62069,-0.51941 1.48961,-0.64829 1.93092,-0.28641 1.06432,0.87278 4.2744,-0.2633 3.89227,-1.3775 -0.16469,-0.4802 0.44117,-1.12709 1.34633,-1.43753 3.20623,-1.09961 3.48405,-5.8538 0.77097,-13.19356 l -2.48084,-6.7115 1.65926,-0.56907 c 4.24327,-1.45527 13.99951,19.82712 15.65509,34.15022 0.47068,4.07209 2.36929,10.22249 6.85649,22.21115 6.3434,16.94796 6.66756,18.33699 4.04738,17.34375 -0.91841,-0.34813 -1.38847,-0.23017 -1.20576,0.30252 0.16469,0.48019 1.05651,1.16008 1.98183,1.51084 0.92532,0.35076 1.89323,1.25249 2.15091,2.00383 0.34517,1.00644 -0.38799,0.96953 -2.78487,-0.14017 -3.65033,-1.69002 -4.66221,-1.6577 -4.04933,0.12934 0.22997,0.67055 2.2443,1.97015 4.4763,2.88801 2.232,0.91783 4.06253,2.17206 4.06784,2.78716 0.005,0.61509 -2.26828,0.0459 -5.05243,-1.26491 -3.57677,-1.68397 -5.24112,-2.01731 -5.67228,-1.13606 -0.43115,0.88123 1.32071,2.09824 5.9705,4.14763 5.89784,2.59947 8.49252,4.62493 6.62878,5.17456 -0.36553,0.10781 -3.02933,-0.95459 -5.91954,-2.36087 -5.03254,-2.44867 -6.84981,-2.86141 -6.36271,-1.4451 0.12383,0.36005 3.45783,2.40011 7.40889,4.53349 9.43523,5.09455 10.76033,8.03582 2.04358,4.53606 -3.42309,-1.37435 -6.32369,-2.79004 -6.44576,-3.14595 -0.12206,-0.35592 -1.71659,-1.09053 -3.54341,-1.63245 -6.49155,-1.92577 -3.8566,0.47012 5.89839,5.36321 9.191,4.61017 12.43141,6.93032 10.57053,7.56853 -0.41863,0.14358 -5.38602,-2.10473 -11.03866,-4.99625 -9.14864,-4.67982 -13.34176,-6.06936 -11.61638,-3.84949 0.32017,0.41192 5.77699,3.32633 12.12628,6.47646 6.4813,3.21562 11.22895,6.11188 10.82543,6.60397 -0.67326,0.82101 -13.73045,-4.30665 -18.34949,-7.20599 -1.15006,-0.72189 -2.26835,-0.95011 -2.48506,-0.50715 -0.47438,0.96959 9.82437,7.17824 15.34067,9.24818 l 3.94211,1.47927 -0.90473,1.84923 -0.90474,1.84922 -6.08825,-3.42494 c -3.53097,-1.98633 -6.19585,-2.9509 -6.34443,-2.29634 -0.1409,0.62073 2.26123,2.46612 5.33801,4.10085 3.26775,1.73619 5.06314,3.15438 4.31725,3.41018 -0.70231,0.24087 -2.52101,-0.21961 -4.04157,-1.02328 -1.52056,-0.80368 -3.05465,-1.10759 -3.40908,-0.67536 -0.35445,0.43224 0.77653,1.51919 2.51325,2.41548 4.55994,2.35326 1.50113,4.69572 -5.66162,4.3357 z m 58.9242,-21.16888 c -0.48271,-1.40749 1.38345,-3.53881 2.58419,-2.95135 0.83511,0.40856 -0.25891,3.64817 -1.35945,4.02561 -0.42141,0.14453 -0.97254,-0.33889 -1.22474,-1.07426 z m -17.83677,0.74121 c -3.71201,-1.87116 -4.45592,-2.58936 -3.67214,-3.54515 1.50541,-1.83581 -1.85595,-3.58649 -4.09378,-2.13214 -2.2654,1.47225 -9.32501,-1.92086 -9.2343,-4.43832 0.0513,-1.42455 -0.27666,-1.47877 -2.03457,-0.33634 -2.47393,1.60777 -3.51778,0.13594 -1.14866,-1.61959 1.74081,-1.28996 4.20498,-0.53258 16.08941,4.94526 8.10238,3.73459 10.09217,5.22662 10.01003,7.50601 -0.0816,2.26386 -0.7578,2.22045 -5.91599,-0.37973 z m -21.3436,7.35998 c -0.16469,-0.4802 -0.12619,-0.93252 0.0855,-1.00514 0.21175,-0.0726 0.76259,0.17753 1.22405,0.55597 0.46147,0.37842 0.42296,0.83073 -0.0855,1.00514 -0.50854,0.17441 -1.05936,-0.0758 -1.22405,-0.55597 z m 31.53946,-12.28046 c 0.0565,-1.56694 1.43885,-2.52392 1.8623,-1.28923 0.31665,0.92331 -0.3056,2.21901 -1.21552,2.53108 -0.3851,0.13208 -0.67614,-0.42676 -0.64678,-1.24185 z m 162.79477,-62.68469 c -1.89517,-0.65358 -2.06313,-0.94178 -1.18561,-2.03438 1.56527,-1.94891 2.10077,-1.90296 4.49348,0.38561 3.50707,3.35445 2.74279,3.73541 -3.30787,1.64877 z M 821.0479,358.14378 c 0.13206,-0.58199 0.82949,-1.26026 1.54979,-1.5073 0.7203,-0.24704 1.20157,0.027 1.06948,0.60899 -0.13206,0.58199 -0.8295,1.26028 -1.54979,1.50731 -0.72031,0.24703 -1.20157,-0.027 -1.06948,-0.609 z m -6.54818,2.24577 c -0.1647,-0.48021 -0.12618,-0.93251 0.0855,-1.00515 0.21176,-0.0726 0.76259,0.17754 1.22405,0.55599 0.46147,0.37842 0.42296,0.83072 -0.0855,1.00514 -0.50854,0.17441 -1.05936,-0.0758 -1.22405,-0.55598 z m -12.94664,4.92807 c -0.0824,-0.2401 0.0471,-0.50387 0.28682,-0.58626 0.2401,-0.0824 0.50388,0.0471 0.58627,0.28683 0.0824,0.24009 -0.0471,0.50388 -0.28684,0.58626 -0.24009,0.0823 -0.50387,-0.0471 -0.58625,-0.28683 z m -15.29171,3.78078 c -0.16468,-0.48021 0.11621,-1.01584 0.62519,-1.1902 0.50854,-0.17441 0.81654,0.15909 0.68445,0.74104 -0.13205,0.58198 -0.41342,1.11757 -0.62518,1.1902 -0.21175,0.0726 -0.51977,-0.26085 -0.68446,-0.74104 z m -34.05053,11.67798 c -0.16469,-0.4802 -0.12617,-0.93252 0.0855,-1.00514 0.21176,-0.0726 0.76259,0.17753 1.22406,0.55597 0.46147,0.37842 0.42297,0.83073 -0.0855,1.00515 -0.50855,0.17441 -1.05937,-0.0758 -1.22406,-0.55598 z m 53.01531,-21.66682 c -2.24299,-1.14732 -6.43409,-2.87388 -9.31359,-3.83682 -5.00492,-1.6737 -8.74828,-5.99972 -6.00559,-6.94035 1.74326,-0.59787 21.58965,9.30376 21.5377,10.74545 -0.0811,2.25174 -1.8607,2.26082 -6.21852,0.0317 z m -63.96872,19.60339 c -6.93271,-4.34043 -9.15118,-3.0914 -2.45359,1.38141 4.17018,2.78494 4.15956,2.87774 -0.51266,4.48011 -6.42783,2.2045 -10.86418,-0.45265 -14.60723,-8.74901 -3.52696,-7.8174 -17.66229,-51.96736 -19.81777,-61.89842 -2.10882,-9.71595 -3.50148,-17.93442 -3.39888,-20.05764 0.14291,-2.95763 1.50561,-2.39637 2.06105,0.8489 0.44243,2.58489 1.02295,3.25548 3.59635,4.15461 8.09049,2.82671 15.16114,-2.57694 12.71285,-9.71563 -1.18021,-3.44126 0.5139,-3.5926 4.00185,-0.35747 2.58251,2.39531 21.29049,55.76129 19.03368,54.29507 -0.94614,-0.6147 -1.97163,-1.03143 -2.27884,-0.92607 -1.04206,0.35739 0.13402,2.23192 2.07236,3.30306 1.06123,0.58644 1.93443,1.63697 1.94046,2.33453 0.007,0.83098 -1.25231,0.57774 -3.65276,-0.73444 -2.43067,-1.32869 -3.75728,-1.59056 -3.94169,-0.77804 -0.26772,1.17957 1.17567,2.25483 6.85546,5.10706 2.27697,1.14342 4.67968,4.62845 3.47573,5.04135 -0.22087,0.0757 -2.91282,-1.19653 -5.98211,-2.8273 -3.0693,-1.63076 -5.91968,-2.8487 -6.33417,-2.70656 -1.69095,0.57993 0.19894,2.17156 7.0981,5.97789 6.91454,3.81481 8.31153,5.2586 6.45781,6.67407 -0.75946,0.57992 -9.48192,-3.5148 -15.18531,-7.12866 -1.32568,-0.84001 -2.50724,-1.09342 -2.62569,-0.56317 -0.20715,0.92734 4.84371,4.44961 14.91846,10.40352 8.80766,5.20511 4.02206,4.57104 -6.06607,-0.80372 -17.12715,-9.12501 -13.91774,-5.18607 3.99014,4.89715 4.87208,2.74327 8.72932,5.25145 8.57166,5.57372 -0.64147,1.3111 -4.21124,0.53953 -7.12032,-1.53899 -3.50452,-2.50396 -13.10417,-7.80372 -13.74012,-7.58561 -1.58661,0.54414 1.58323,3.17367 8.99629,7.46282 7.46149,4.31716 9.81134,6.61695 7.51288,7.35281 -0.33409,0.10719 -2.84422,-1.20582 -5.57793,-2.91735 z m 214.78259,-76.74483 c -9.10357,-3.25386 -12.59678,-2.73203 -4.48908,0.67059 2.66438,1.11818 4.92287,2.26202 5.01884,2.54185 0.39391,1.14858 -3.60187,0.29182 -8.79768,-1.88634 -5.48885,-2.301 -8.91944,-1.88781 -4.64991,0.56005 3.60116,2.06467 0.22192,1.5596 -11.26328,-1.68343 -9.43743,-2.66481 -17.20258,-6.63323 -22.01669,-11.25173 -2.27518,-2.18273 -2.30888,-2.08146 1.62176,-4.87276 3.20235,-2.27409 4.06967,-4.35798 2.00612,-4.82001 -0.43598,-0.0977 -2.29769,0.98299 -4.13711,2.40136 l -3.34441,2.57886 -10.65451,-4.98676 c -15.00713,-7.02399 -34.19313,-13.33319 -41.26407,-13.56946 -1.27724,-0.0427 -5.12359,-1.01515 -8.54744,-2.16104 -3.42383,-1.14589 -9.41475,-3.06137 -13.3131,-4.25663 -7.36201,-2.25723 -35.14784,-14.12642 -34.80964,-14.86954 0.10604,-0.23286 6.95032,1.61119 15.20964,4.09793 50.51713,15.20982 54.67391,16.30348 53.95063,14.19454 -0.30947,-0.90234 -3.19354,-1.82562 -26.30717,-8.42173 -10.41088,-2.97103 -22.14746,-6.46288 -26.08131,-7.75966 -3.93385,-1.2968 -10.86469,-2.94085 -15.40186,-3.65343 -6.92118,-1.08702 -17.58138,-5.32058 -16.94279,-6.72863 0.091,-0.20072 5.18048,1.3028 11.30989,3.34116 6.12939,2.03835 11.33154,3.31402 11.5603,2.83482 0.47535,-0.99574 -2.87852,-2.40114 -18.82007,-7.88628 -6.23565,-2.14555 -12.83028,-4.89788 -14.65473,-6.11628 -1.82443,-1.21841 -3.80203,-2.049 -4.39466,-1.84575 -1.00331,0.3441 -6.90711,-1.39465 -36.36375,-10.70958 -17.38927,-5.49893 -17.84512,-3.65982 -1.16176,4.68699 5.95273,2.97819 11.15515,5.66409 11.56094,5.96871 1.05376,0.791 4.2247,0.76274 3.95104,-0.0352 -0.1261,-0.36765 -2.32714,-1.6641 -4.89119,-2.88095 -7.41773,-3.52029 -5.88148,-3.80852 4.35477,-0.81701 23.79951,6.95531 30.69968,10.02814 30.78457,13.70917 0.0701,3.04057 -7.57733,0.91437 -43.70318,-12.15061 -6.37583,-2.30583 -12.23223,-3.84072 -13.25149,-3.47303 l -1.82646,0.65885 2.77772,0.98628 c 6.50183,2.30859 7.98957,3.08539 7.76915,4.05654 -0.34581,1.52366 -2.89184,1.15112 -4.20025,-0.61461 -0.62924,-0.84917 -1.58763,-1.16717 -2.13561,-0.70862 -0.5537,0.46336 -1.44546,0.15208 -2.01305,-0.70271 -1.29699,-1.95324 -3.80202,-1.05812 -5.6759,2.02821 l -1.45754,2.40056 2.61716,1.69191 c 1.43942,0.9305 2.87607,2.44687 3.19255,3.36966 l 0.57542,1.6778 -3.11761,-0.64228 c -1.71469,-0.35326 -3.31195,-0.20926 -3.54946,0.31997 -0.23752,0.52923 0.11942,0.96919 0.79319,0.97772 1.60957,0.0203 4.07143,6.9963 2.47386,7.01011 -0.90913,0.008 -3.07646,-1.45668 -4.36006,-2.94624 -0.0992,-0.11515 -1.08154,0.54001 -2.18291,1.45589 -1.60986,1.33876 -3.5928,1.63107 -10.11373,1.49085 -11.73451,-0.25232 -12.35523,-0.19461 -10.16677,0.94504 0.98006,0.51036 6.19275,1.09945 11.58374,1.30907 9.24787,0.3596 13.20432,1.5167 12.20058,3.56835 -0.24264,0.49592 -0.8616,0.56642 -1.37544,0.15666 -0.51388,-0.40976 -2.37663,-0.46936 -4.13946,-0.13245 -1.76284,0.33692 -8.06148,0.4826 -13.99696,0.32376 -9.43146,-0.25241 -12.76463,0.0788 -10.74377,1.06748 0.31579,0.1545 6.33297,0.61566 13.37149,1.02488 7.03855,0.40917 13.09181,1.13593 13.45172,1.61503 1.22292,1.62788 -2.59103,3.03825 -7.77558,2.87534 -5.79773,-0.18216 -13.99243,-0.35339 -16.94219,-0.35403 l -1.95171,-4.1e-4 2.56748,1.06939 c 1.41211,0.58816 5.60916,1.1747 9.32675,1.30342 16.00766,0.55423 13.95004,2.94894 -3.03756,3.53513 -7.24903,0.25014 -13.31343,0.7274 -13.47645,1.06057 -0.57784,1.18109 1.52109,2.06415 3.41259,1.43571 1.05558,-0.35071 7.21762,-0.55269 13.69341,-0.44886 8.19999,0.13149 12.02036,-0.18914 12.58522,-1.05622 0.93232,-1.43118 5.43823,0.0252 5.07187,1.63933 -0.12019,0.52969 0.45239,1.37239 1.27262,1.87259 2.90866,1.77405 -0.85808,1.83987 -4.56106,0.0797 -6.20097,-2.94756 -4.58575,-0.24884 1.72974,2.89007 3.32702,1.65359 6.05338,3.49593 6.05854,4.09408 0.005,0.59816 -2.24111,-0.36061 -4.99173,-2.1306 -2.7826,-1.79054 -6.04412,-3.10387 -7.35226,-2.96055 -3.45825,0.37886 -15.15454,0.47883 -21.30709,0.1821 -2.94674,-0.14212 -5.93992,0.0927 -6.65154,0.52182 -1.36932,0.82572 3.89049,1.50881 15.31146,1.98848 4.36659,0.1834 7.03809,0.80672 7.69454,1.79532 1.21985,1.83709 0.0647,2.03284 -15.31932,2.59582 -5.70558,0.20879 -10.45635,0.74334 -10.55725,1.18787 -0.18444,0.81287 5.45994,1.0704 17.63413,0.80452 l 6.57393,-0.14357 0.0678,2.08052 c 0.0373,1.14428 -0.0279,2.30343 -0.14486,2.57589 -0.36739,0.85585 -17.64142,0.90464 -19.03649,0.0538 -1.50257,-0.91643 -3.87053,-0.38367 -3.47111,0.78093 0.45579,1.32898 3.17476,1.93554 8.58444,1.91501 4.39523,-0.0167 9.95695,3.55493 7.07493,4.54335 -0.82897,0.28431 -10.61458,-0.0261 -11.29344,-0.35821 -0.42793,-0.20937 -1.35003,-0.18453 -2.0491,0.0552 -2.5502,0.87462 1.62704,2.25982 7.28649,2.41625 7.12191,0.19685 12.83052,3.36962 8.64535,4.80497 -0.4802,0.16469 -1.07098,-0.27757 -1.31284,-0.9828 -0.2629,-0.76656 -0.88578,-0.90898 -1.54884,-0.35412 -5.92905,4.96159 -13.46208,0.33719 -16.3365,-10.02869 -6.52375,-23.52636 -6.80932,-35.31378 -1.28015,-52.84344 1.23377,-3.91158 2.81255,-11.47868 3.50837,-16.8158 1.14477,-8.78054 1.20246,-12.03425 0.34984,-19.73458 -0.95799,-8.65212 21.29696,-23.08539 55.57216,-36.04085 12.36589,-4.67409 25.9545,-7.50227 40.52945,-8.43534 3.67606,-0.23534 7.55612,-0.72846 8.62236,-1.09583 3.47315,-1.1975 13.00262,0.13309 13.6083,1.89912 0.58512,1.70609 13.38829,15.5557 27.86789,30.14562 10.6949,10.77639 22.02832,18.04512 38.51189,24.69977 12.90684,5.21069 20.0633,9.57501 29.73737,18.13516 7.2657,6.42908 11.78446,9.86581 19.73819,15.0118 2.96831,1.92047 8.09172,5.61017 11.38534,8.19933 3.29362,2.58917 8.04106,5.93757 10.54985,7.44091 8.37622,5.01926 32.24151,24.74133 30.54329,25.2407 -0.34905,0.10258 -1.59507,-0.12872 -2.76899,-0.51402 -2.45821,-0.80691 -3.67103,-0.57826 -3.26181,0.61493 0.15678,0.45713 2.58153,1.4456 5.38833,2.19661 6.67706,1.78655 12.50228,4.44567 13.01519,5.94122 0.51593,1.50435 -12.09741,-2.0403 -14.83991,-4.17037 -1.87863,-1.45912 -3.5174,-0.98753 -2.89317,0.83259 0.44827,1.30703 5.73726,3.42315 13.90809,5.56459 4.85281,1.27183 7.15196,2.31928 6.77631,3.0871 -0.63203,1.29185 -16.12492,-2.64071 -18.72566,-4.75312 -1.82862,-1.48528 -3.88279,-0.97315 -3.26948,0.81512 0.46771,1.36372 9.90612,5.02976 14.82129,5.75684 2.8785,0.4258 4.3619,1.83565 2.57589,2.44819 -1.22416,0.41983 -16.0822,-4.37082 -16.39629,-5.28663 -0.13493,-0.39346 -0.83468,-0.51326 -1.55498,-0.26623 -0.7203,0.24704 -1.14793,0.92062 -0.9503,1.49686 0.27947,0.81488 0.0466,0.89474 -1.04772,0.35933 -1.87122,-0.9155 -2.89953,-0.48792 -2.39119,0.99429 0.22702,0.66197 3.31877,2.31491 6.87054,3.67322 3.55176,1.35831 6.94161,2.66414 7.53297,2.90185 0.66567,0.26755 0.71904,0.55434 0.14011,0.75288 -0.5143,0.17639 -4.77445,-1.05156 -9.46695,-2.72879 z m -89.24154,-45.15297 c -0.2917,-0.85052 -10.86616,-4.51828 -15.57207,-5.40116 -1.97306,-0.37019 -8.77085,-1.81053 -15.1062,-3.20074 -6.33535,-1.39022 -12.12702,-2.31909 -12.87039,-2.06415 -2.30351,0.79001 0.97007,1.82823 16.06828,5.09606 7.70752,1.66821 15.86039,3.67463 18.11751,4.45872 6.14077,2.13324 9.86495,2.57525 9.36287,1.11123 z m 1.11715,-5.21488 c -0.94721,-2.52669 -10.21478,-5.35308 -11.16744,-3.40589 -0.42522,0.86914 0.11602,1.2619 1.81613,1.31789 1.33203,0.0439 3.18627,0.54601 4.12052,1.11583 2.06287,1.25819 5.58334,1.91249 5.23079,0.97217 z M 792.7222,231.45162 c -0.73846,-2.15318 -19.47589,-8.9787 -40.14342,-14.62311 -7.99396,-2.1832 -16.08694,-4.6306 -17.98442,-5.4387 -7.81224,-3.32709 -8.5295,-3.50502 -9.1355,-2.26639 -0.84288,1.72282 6.45687,4.53754 24.40423,9.41004 15.93732,4.32681 25.54906,7.45186 35.50845,11.54485 6.00042,2.46598 7.84348,2.81031 7.35066,1.37331 z m -13.47235,-12.0685 c 0.2862,-1.26096 -11.35764,-5.83438 -20.22526,-7.94404 -8.56719,-2.03817 -17.0313,-4.56183 -22.22928,-6.62789 -2.35568,-0.93631 -4.72654,-1.55027 -5.26859,-1.36438 -2.07363,0.71118 -0.0254,2.69111 3.82621,3.69861 13.74956,3.59658 26.59384,7.33753 33.33519,9.70898 4.27219,1.50288 8.34269,2.92283 9.04554,3.15546 0.75604,0.25024 1.37524,-0.006 1.51619,-0.62674 z m -12.17299,-10.8084 c -0.78781,-1.04548 -11.15426,-5.05599 -18.50342,-7.15848 -7.59101,-2.1717 -5.46445,0.40396 2.4295,2.94258 4.06094,1.30596 8.95463,3.195 10.87487,4.19789 3.49801,1.82691 6.57016,1.83755 5.19905,0.018 z m 47.67186,146.8505 c -0.16469,-0.48019 0.79445,-1.20447 2.13141,-1.6095 l 2.43085,-0.73643 -1.943,1.4476 c -1.06864,0.7962 -2.02777,1.52048 -2.13141,1.60952 -0.1036,0.0891 -0.32316,-0.231 -0.48786,-0.71121 z m -24.29682,8.82074 c -0.0823,-0.2401 0.0471,-0.50389 0.28682,-0.58626 0.24011,-0.0824 0.50389,0.0471 0.58627,0.28683 0.0823,0.24009 -0.0471,0.50387 -0.28683,0.58625 -0.24009,0.0823 -0.50387,-0.0471 -0.58626,-0.28682 z m 30.32462,-12.27546 c -0.49618,-0.59291 -0.74383,-2.05234 -0.5505,-3.24312 l 0.35164,-2.16507 3.80636,1.2665 c 2.0935,0.69658 3.92511,1.61278 4.07025,2.03598 0.45624,1.3303 -6.68716,3.28946 -7.67775,2.10571 z m -15.01818,0.12104 c -2.89451,-1.46333 -8.41232,-3.82408 -12.2618,-5.24614 -4.56554,-1.68657 -6.80384,-2.98464 -6.43754,-3.73335 1.16184,-2.37472 26.98246,7.0785 26.3957,9.66377 -0.49811,2.19455 -2.32278,2.03231 -7.69636,-0.68428 z m 0.46153,-6.54258 c -5.12481,-2.06302 -11.60381,-4.33476 -14.39776,-5.04829 -2.94194,-0.75134 -5.30654,-1.95813 -5.61838,-2.86739 -0.29615,-0.86352 -1.53937,-1.60774 -2.7627,-1.65381 -1.98237,-0.0747 -2.08053,-0.20836 -0.90257,-1.22982 0.91976,-0.79752 2.65111,-0.605 5.69327,0.63334 2.4044,0.97853 9.22994,3.40621 15.16787,5.39484 16.30244,5.45974 15.65745,5.16095 14.48092,6.70827 -1.57506,2.07148 -1.79353,2.03519 -11.66068,-1.93691 z m -91.02283,25.47862 -1.99218,-3.70779 2.42326,1.02778 c 1.88357,0.79885 2.75529,2.02118 3.91395,5.48816 l 1.49072,4.46038 -1.92176,-1.78038 c -1.05698,-0.9792 -2.81825,-3.44888 -3.91395,-5.48816 z m 67.5373,-16.00686 c 0.21034,-0.42992 0.73421,-0.60958 1.16413,-0.39925 0.42992,0.21035 0.2579,0.56207 -0.38244,0.78168 -0.64027,0.2196 -0.99202,0.0475 -0.78169,-0.38243 z m 0.43182,-6.32807 c -0.16468,-0.4802 0.31309,-1.08316 1.06174,-1.33991 0.74863,-0.25676 1.25308,0.009 1.12099,0.59132 -0.13206,0.582 -0.60986,1.18495 -1.06173,1.33992 -0.45185,0.15497 -0.95625,-0.11157 -1.121,-0.59133 z m -3.42618,-2.40284 c 0.21035,-0.42992 0.73421,-0.60958 1.16413,-0.39925 0.42992,0.21034 0.2579,0.56209 -0.38243,0.78169 -0.64027,0.21959 -0.99203,0.0475 -0.7817,-0.38244 z m 3.51286,-4.45738 c 0.13206,-0.58199 0.63305,-1.19291 1.11325,-1.35758 0.4802,-0.1647 0.76504,0.1767 0.63294,0.7587 -0.13206,0.582 -0.63306,1.19291 -1.11325,1.35759 -0.48021,0.16469 -0.76504,-0.1767 -0.63294,-0.75871 z m -5.55059,-0.53584 c -0.26898,-0.78431 0.34266,-1.56874 1.52483,-1.9556 l 1.97396,-0.64602 -1.25515,1.86311 c -1.55868,2.31368 -1.68874,2.35648 -2.24368,0.73841 z m -66.86552,21.2246 c -0.13014,-0.35788 0.15497,-0.78497 0.63514,-0.94968 0.48019,-0.16469 1.17025,0.58664 1.53345,1.66961 0.63006,1.87871 -1.47316,1.18047 -2.16859,-0.71993 z M 706.514,355.651 c -0.3683,-1.07389 -0.0373,-1.13298 1.83902,-0.32823 1.25847,0.53978 2.49027,1.57074 2.7373,2.29104 0.36831,1.0739 0.0373,1.13299 -1.839,0.32823 -1.25849,-0.53977 -2.49028,-1.57073 -2.73732,-2.29104 z m 69.067,-23.38475 c -0.0824,-0.24011 0.0471,-0.50389 0.28681,-0.58627 0.24011,-0.0824 0.50389,0.0471 0.58628,0.28683 0.0824,0.2401 -0.0471,0.50387 -0.28684,0.58626 -0.2401,0.0823 -0.50387,-0.0471 -0.58625,-0.28682 z m -62.92085,20.44092 c 0.21034,-0.42992 0.56208,-0.25788 0.78168,0.38244 0.21959,0.64028 0.0475,0.99202 -0.38243,0.78169 -0.42992,-0.21034 -0.60958,-0.73419 -0.39925,-1.16413 z m -6.53835,-0.68212 -1.69645,-1.04161 2.32344,0.37302 c 2.40292,0.38578 3.16927,0.99006 1.83563,1.44744 -0.4214,0.14453 -1.52959,-0.20594 -2.46262,-0.77885 z m 3.9093,-3.19013 c -0.25676,-0.74865 0.009,-1.25309 0.59132,-1.121 0.58199,0.13205 1.18495,0.60987 1.33992,1.06174 0.15496,0.45185 -0.11158,0.95625 -0.59133,1.12098 -0.4802,0.1647 -1.08316,-0.31309 -1.33991,-1.06172 z m -4.07357,-0.49694 c -0.0823,-0.24011 0.0471,-0.50388 0.28684,-0.58626 0.24009,-0.0823 0.50387,0.0471 0.58626,0.28682 0.0823,0.2401 -0.0471,0.50388 -0.28683,0.58627 -0.24011,0.0823 -0.50388,-0.0471 -0.58627,-0.28683 z m -3.66729,-2.15751 c -0.1647,-0.4802 -0.12618,-0.93252 0.0855,-1.00515 0.21176,-0.0726 0.7626,0.17754 1.22406,0.556 0.46148,0.37841 0.42297,0.83072 -0.0855,1.00514 -0.50854,0.17441 -1.05936,-0.0758 -1.22405,-0.55599 z m 73.9112,-34.98801 c -0.28659,-0.91302 1.28361,-0.43812 4.35195,1.31636 2.64013,1.5096 4.98731,3.33924 5.21594,4.06585 0.24221,0.76972 -1.57414,0.22032 -4.35195,-1.31636 -2.62222,-1.4506 -4.96939,-3.28024 -5.21594,-4.06585 z m 1.09239,6.15169 c -0.39357,-1.14758 1.83722,-1.10954 2.71988,0.0464 0.43148,0.56506 0.0992,0.89708 -0.86298,0.86241 -0.86051,-0.031 -1.69611,-0.43997 -1.8569,-0.90881 z m -70.51363,24.85697 c -0.0824,-0.24009 0.0471,-0.50387 0.28682,-0.58626 0.2401,-0.0823 0.50389,0.0471 0.58626,0.28683 0.0823,0.24011 -0.0471,0.50388 -0.28683,0.58627 -0.24008,0.0823 -0.50386,-0.0471 -0.58625,-0.28684 z m -4.7377,0.89301 c -1.86382,-0.67577 -4.20463,-3.19296 -3.26797,-3.51419 0.8507,-0.29175 5.87621,2.10251 6.16196,2.9357 0.35879,1.04615 -0.90655,1.29909 -2.89399,0.57849 z m 68.11556,-24.7433 c 0.21035,-0.42991 0.73421,-0.60958 1.16413,-0.39925 0.42992,0.21034 0.25789,0.56208 -0.38243,0.78168 -0.64028,0.21959 -0.99203,0.0475 -0.7817,-0.38243 z m 35.50544,-15.02298 c -0.26076,-0.76034 0.0458,-1.38689 0.68121,-1.39238 1.80398,-0.0156 2.71709,1.77188 1.17528,2.30066 -0.76032,0.26076 -1.59574,-0.14791 -1.85649,-0.90828 z m -31.73885,11.77963 c 0.21035,-0.42993 0.73419,-0.60958 1.16412,-0.39925 0.42992,0.21034 0.25789,0.56207 -0.38244,0.78168 -0.64026,0.21959 -0.99203,0.0475 -0.78168,-0.38243 z m -69.82757,20.94434 c 0.62666,-1.28086 1.80087,0.0116 1.65718,1.82411 l -0.14265,1.7986 -0.92606,-1.46639 c -0.50933,-0.80652 -0.77416,-1.77686 -0.58851,-2.15632 z m 97.39959,-34.36634 c -0.07,-0.92541 0.29156,-0.50888 0.80342,0.92562 0.51185,1.4345 0.56912,2.19164 0.12723,1.68256 -0.44189,-0.50909 -0.86068,-1.68277 -0.93065,-2.60818 z m -4.2003,0.007 c -0.69651,-2.03089 -0.60617,-2.62167 0.33078,-2.16326 0.70894,0.34686 1.31011,1.54581 1.33591,2.66436 0.0672,2.91249 -0.56073,2.72372 -1.66672,-0.50111 z m -97.6119,34.04488 c -0.24703,-0.72031 0.027,-1.20157 0.60901,-1.06947 0.58198,0.13206 1.26027,0.82949 1.5073,1.54978 0.24704,0.72031 -0.027,1.20157 -0.609,1.06948 -0.58198,-0.13206 -1.26027,-0.8295 -1.50731,-1.54979 z m 87.02787,-32.17663 c -0.45899,-0.3764 -0.41845,-0.82704 0.0901,-1.00145 0.50854,-0.17441 1.05936,0.0758 1.22405,0.55598 0.16469,0.4802 0.88878,0.67097 1.60907,0.42394 0.7203,-0.24704 1.44913,-0.0424 1.61961,0.45465 0.35565,1.03699 -3.15865,0.70192 -4.54282,-0.43311 z m 6.89184,-3.52933 c 0.53541,-1.09435 0.84808,-0.94138 1.40703,0.68838 0.55894,1.62978 0.40597,1.94245 -0.68838,1.40704 -1.09437,-0.53541 -1.25406,-1.00107 -0.71865,-2.09542 z m -90.45031,33.49285 c 0.21034,-0.42992 0.7342,-0.60959 1.16413,-0.39925 0.42991,0.21034 0.25789,0.56208 -0.38243,0.78169 -0.64027,0.21958 -0.99203,0.0475 -0.7817,-0.38244 z m 68.46564,-24.18976 c -0.0647,-0.18872 0.41182,-0.78622 1.05899,-1.3278 0.67472,-0.56461 1.07538,-0.53845 0.93924,0.0614 -0.22822,1.00547 -1.75571,1.97356 -1.99823,1.26642 z m -4.7076,-0.1975 c -0.008,-0.66804 0.89229,-1.67008 2.00105,-2.22673 l 2.01591,-1.01211 -1.28299,1.94944 c -1.56523,2.37831 -2.714,2.92009 -2.73397,1.2894 z m 22.84559,-8.81091 c -1.00644,-1.23751 -0.98516,-3.32132 0.0375,-3.67204 0.44019,-0.15098 1.1372,0.70774 1.54893,1.90823 0.78078,2.27663 -0.24332,3.41527 -1.58642,1.76381 z m -10.09986,1.14886 c -0.53792,-1.56844 0.73004,-1.96604 2.61105,-0.81884 2.03251,1.23966 1.51771,3.43024 -0.61605,2.62138 -0.8704,-0.32994 -1.76817,-1.14113 -1.99503,-1.80262 z m 68.0625,-22.94671 c 0.41163,-0.84136 0.80061,-1.03238 0.98823,-0.4853 0.39969,1.16539 -0.27831,2.55208 -1.06126,2.16917 -0.33319,-0.163 -0.30034,-0.92075 0.073,-1.68387 z m -4.62445,0.83159 c -0.59496,-3.18527 1.02018,-3.32694 2.09808,-0.18402 0.40767,1.18869 0.2186,2.30689 -0.42751,2.52849 -0.78963,0.2708 -1.32147,-0.47559 -1.67057,-2.34447 z m -4.67245,-2.47746 c 0.0736,-3.07508 1.76168,-1.27929 2.25354,2.39732 l 0.40982,3.06325 -1.35724,-1.66232 c -0.74648,-0.91427 -1.33424,-2.62349 -1.3068,-3.79801 z m -140.79948,52.8465 c -0.0823,-0.2401 0.0471,-0.50388 0.28683,-0.58627 0.24011,-0.0823 0.50388,0.0471 0.58627,0.28683 0.0823,0.2401 -0.0471,0.50388 -0.28684,0.58626 -0.24009,0.0823 -0.50387,-0.0471 -0.58626,-0.28682 z m -6.64615,-3.37084 c -1.3527,-2.68552 -1.66173,-4.02564 -0.98204,-4.25874 0.54547,-0.18708 1.43505,0.93493 1.97685,2.49333 0.54185,1.55837 1.56648,3.73181 2.27707,4.82981 0.94272,1.45667 0.9419,1.84197 -0.003,1.4253 -0.71226,-0.31409 -2.18324,-2.33445 -3.26885,-4.4897 z m 132.04655,-42.9115 c -2.5253,-0.66686 -9.24996,-2.31251 -14.94372,-3.65698 -28.13477,-6.64345 -30.58829,-7.38998 -31.32236,-9.53037 -0.94431,-2.75339 -0.1043,-2.88493 5.15811,-0.80773 2.43938,0.96289 6.0497,1.97692 8.02291,2.25342 1.97321,0.2765 11.30171,2.50994 20.73,4.96323 9.4283,2.45331 17.3203,4.50116 17.5378,4.55078 0.53623,0.12233 0.39784,3.1009 -0.15287,3.28977 -0.24113,0.0827 -2.50457,-0.39525 -5.02987,-1.06212 z m -123.6971,42.71331 c -0.23732,-0.69197 -0.0386,-1.39285 0.44161,-1.55755 0.4802,-0.16468 1.15053,0.50954 1.48963,1.49827 0.33911,0.98875 0.14037,1.68963 -0.44161,1.55755 -0.58199,-0.13206 -1.25231,-0.80632 -1.48963,-1.49827 z m 134.58045,-48.59527 c -0.73402,-2.14026 -0.79632,-3.44877 -0.15726,-3.30373 0.58198,0.13206 1.52181,1.5921 2.08851,3.24447 0.56669,1.65235 0.63745,3.13903 0.15726,3.30372 -0.48021,0.16469 -1.42004,-1.29532 -2.08851,-3.24446 z m -48.92909,18.60694 c 0.0399,-0.79207 0.31768,-0.65615 0.70839,0.34659 0.35358,0.90737 0.32407,1.49381 -0.0655,1.3032 -0.38962,-0.19062 -0.67888,-0.93303 -0.64278,-1.64981 z m -15.20019,6.3718 c -0.46148,-0.37842 -0.44614,-0.82277 0.0341,-0.98747 0.4802,-0.16468 1.25066,0.0102 1.71213,0.3886 0.46147,0.37841 0.44614,0.82278 -0.0341,0.98746 -0.4802,0.16469 -1.25066,-0.0102 -1.71213,-0.38859 z m 8.2361,-7.77496 c 0.45538,-0.93081 1.19192,-0.87401 2.67555,0.20635 2.80637,2.04357 2.16519,3.75374 -0.85363,2.2768 -1.77577,-0.86879 -2.27731,-1.55237 -1.82192,-2.48316 z m -2.86045,4.95555 c -0.16469,-0.48021 -0.12617,-0.93252 0.0855,-1.00514 0.21177,-0.0726 0.76259,0.17753 1.22407,0.55597 0.46146,0.37842 0.42296,0.83073 -0.0855,1.00514 -0.50856,0.17442 -1.05938,-0.0758 -1.22407,-0.55597 z m 70.54542,-27.60953 c -0.57642,-1.68071 -0.65514,-3.19057 -0.17494,-3.35526 0.4802,-0.16468 1.34471,1.07568 1.92112,2.75639 0.57641,1.6807 0.65513,3.19057 0.17493,3.35526 -0.4802,0.16468 -1.34469,-1.07568 -1.92111,-2.75639 z m -16.42564,4.06165 c -0.20229,-2.70621 0.42036,-2.36672 1.49487,0.81507 0.65218,1.93246 0.58842,2.54447 -0.20039,1.91225 -0.63809,-0.51142 -1.22063,-1.73871 -1.29452,-2.72733 z m -134.60644,49.20003 c -0.46147,-0.37842 -0.42296,-0.83072 0.0855,-1.00514 0.50853,-0.17441 1.05936,0.0758 1.22406,0.55599 0.16468,0.4802 0.12617,0.9325 -0.0855,1.00514 -0.21176,0.0726 -0.7626,-0.17754 -1.22406,-0.55599 z m 154.50676,-54.51096 c -0.25675,-0.74863 0.0171,-1.25131 0.60859,-1.11707 0.59148,0.13422 0.97481,0.68734 0.85185,1.22912 -0.33312,1.46769 -0.93447,1.42157 -1.46044,-0.11201 z m -8.93079,-0.43364 c -0.82994,-2.41995 -0.82706,-3.51856 0.009,-3.52953 1.34442,-0.0177 3.46192,3.78278 3.37968,6.06568 -0.094,2.6091 -2.1527,1.06847 -3.38894,-2.53615 z m -71.89835,26.50979 c -0.16704,-0.48704 0.44448,-0.59109 1.38296,-0.23535 0.92532,0.35077 1.81715,1.03065 1.98184,1.51085 0.16702,0.48703 -0.44448,0.59108 -1.38296,0.23534 -0.92533,-0.35076 -1.81716,-1.03065 -1.98184,-1.51084 z m -68.2967,21.74141 c -0.85393,-1.91102 -1.14104,-3.54278 -0.65291,-3.71019 0.47929,-0.16437 1.50024,1.53462 2.2688,3.77557 1.65938,4.83841 0.55536,4.79375 -1.61589,-0.0654 z m 83.04517,-27.10608 c -0.42144,-1.22884 -0.3325,-2.1358 0.1977,-2.01546 0.77178,0.17514 1.36703,1.71518 1.43364,3.7091 0.0396,1.1855 -1.02179,0.0835 -1.63129,-1.69363 z m 42.39913,-16.66057 c -0.07,-0.92541 0.29158,-0.50888 0.80344,0.92562 0.51185,1.4345 0.56912,2.19165 0.12722,1.68255 -0.44188,-0.50908 -0.86068,-1.68276 -0.93066,-2.60817 z m -127.70322,45.81145 c 0.21035,-0.42992 0.56208,-0.2579 0.7817,0.38243 0.21958,0.64027 0.0475,0.99203 -0.38245,0.7817 -0.42992,-0.21035 -0.60958,-0.73421 -0.39925,-1.16413 z m 138.40537,-50.72016 c -0.65876,-1.9208 -0.80485,-3.62711 -0.32465,-3.7918 0.4802,-0.16469 1.41207,1.27213 2.07082,3.19293 0.65876,1.9208 0.80486,3.6271 0.32466,3.7918 -0.48019,0.16468 -1.41208,-1.27213 -2.07083,-3.19293 z m -62.66993,24.96613 c -0.0726,-0.21175 0.17753,-0.76258 0.55598,-1.22405 0.37842,-0.46148 0.83074,-0.42296 1.00515,0.0855 0.17441,0.50853 -0.0758,1.05936 -0.55599,1.22405 -0.48019,0.16469 -0.93251,0.12618 -1.00514,-0.0855 z m 2.96366,-5.58452 c -0.6444,-1.87896 0.41576,-2.54314 2.15975,-1.35307 1.0482,0.71528 1.39562,1.47325 1.69001,3.68696 0.17365,1.30581 -3.32995,-0.81822 -3.84976,-2.33389 z m -8.81641,3.86372 c -0.76803,-0.6181 -1.21817,-1.48813 -1.00033,-1.93342 0.54575,-1.11549 3.71621,0.19812 4.25253,1.76195 0.54202,1.58039 -1.37592,1.68151 -3.2522,0.17147 z m 62.7731,-25.78396 c -1.41533,-4.12683 -1.82398,-4.67871 -2.56482,-3.46403 -1.05025,1.72194 -3.13304,0.58932 -2.24693,-1.22187 1.27145,-2.59876 6.40326,0.72352 7.57344,4.90303 1.69478,6.05303 -0.6752,5.86669 -2.76168,-0.21715 z m -12.33498,8.65862 c -1.57558,-0.77086 -1.95154,-4.33947 -0.45929,-4.35982 1.29024,-0.0176 3.58786,4.34493 2.48716,4.72241 -0.41605,0.1427 -1.32858,-0.0205 -2.02787,-0.36259 z m 3.96539,-1.76557 c -0.0823,-0.2401 0.0471,-0.50388 0.28682,-0.58626 0.24011,-0.0824 0.50389,0.0471 0.58627,0.28682 0.0824,0.2401 -0.0471,0.50388 -0.28684,0.58627 -0.24008,0.0823 -0.50387,-0.0471 -0.58625,-0.28683 z m -133.84961,44.50241 c -0.44284,-0.57996 -0.22773,-1.01966 0.50195,-1.02596 0.70231,-0.006 1.62567,0.44569 2.05192,1.00389 0.44285,0.57997 0.22773,1.01966 -0.50195,1.02597 -0.70231,0.006 -1.62567,-0.4457 -2.05192,-1.0039 z m 139.04526,-49.26925 c -0.25675,-0.74865 0.009,-1.2531 0.59133,-1.12101 0.58198,0.13206 1.18495,0.60987 1.33992,1.06173 0.15498,0.45186 -0.11158,0.95627 -0.59133,1.121 -0.4802,0.16469 -1.08316,-0.31309 -1.33992,-1.06172 z m -55.2162,17.28692 c 0.0364,-0.68331 0.40296,-0.26017 0.81469,0.94033 0.41172,1.2005 0.38198,1.75958 -0.0661,1.2424 -0.44806,-0.51719 -0.78493,-1.49942 -0.74859,-2.18273 z m 29.38678,-15.04831 c -18.15594,-4.60101 -18.73338,-4.7659 -33.36074,-9.52591 -11.65532,-3.79286 -13.76878,-4.79327 -14.63698,-6.92845 -1.45657,-3.58216 -0.0238,-4.57483 3.63817,-2.5207 1.74505,0.97884 7.56504,3.11321 12.93331,4.74301 5.36825,1.62983 12.90511,4.3013 16.74856,5.93662 3.84344,1.63532 9.75862,3.51877 13.14485,4.18542 12.80644,2.52123 13.93046,2.9186 14.0845,4.97931 0.18968,2.53756 1.15627,2.60451 -12.55167,-0.8693 z m -38.11715,18.10346 c 0.0399,-0.79207 0.31768,-0.65615 0.70841,0.3466 0.35348,0.90739 0.32405,1.49382 -0.0655,1.30321 -0.38961,-0.19063 -0.67889,-0.93304 -0.64278,-1.64982 z m 59.72329,-21.27553 c -0.32937,-0.96041 -0.20597,-1.88094 0.27421,-2.04562 0.48021,-0.1647 1.14258,0.48634 1.47197,1.44675 0.32937,0.96039 0.20598,1.88092 -0.27421,2.04562 -0.4802,0.16468 -1.14258,-0.48636 -1.47197,-1.44675 z m -131.9738,46.23755 c -1.46736,-1.20327 -0.51047,-2.97346 1.24717,-2.30719 0.8704,0.32994 1.70079,0.94467 1.84532,1.36607 0.36099,1.05259 -2.0586,1.78892 -3.09249,0.94112 z m 74.78689,-28.51746 c -0.66273,-1.28641 -0.55979,-1.89825 0.32113,-1.90884 0.71308,-0.009 1.73542,0.83638 2.27187,1.87767 0.66273,1.28641 0.5598,1.89826 -0.32113,1.90884 -0.71308,0.009 -1.73542,-0.83637 -2.27187,-1.87767 z m 14.49688,-3.72964 c 0.21034,-0.42992 0.73419,-0.60958 1.16413,-0.39924 0.42992,0.21034 0.25789,0.56208 -0.38245,0.78169 -0.64026,0.21959 -0.99202,0.0475 -0.78168,-0.38245 z m -94.98408,31.27472 c -0.84336,-0.78412 -1.29729,-1.50664 -1.00872,-1.60561 1.16141,-0.39832 4.54057,0.52302 4.81106,1.31168 0.52535,1.53182 -2.2409,1.74566 -3.80234,0.29393 z m 134.37706,-47.24473 c 0.0399,-0.79208 0.31768,-0.65616 0.70841,0.34658 0.35359,0.90737 0.32405,1.49382 -0.0655,1.30322 -0.38961,-0.19063 -0.67889,-0.93305 -0.64278,-1.64982 z m -4.15694,1.59988 c -1.18616,-0.97266 -1.14767,-4.62549 0.0459,-4.3546 1.28689,0.29208 2.68563,4.40233 1.62222,4.76703 -0.45186,0.15497 -1.20251,-0.0306 -1.66811,-0.41242 z m -39.89128,13.17964 c -1.30395,-0.79531 -1.29375,-0.9416 0.0622,-0.89273 0.89195,0.0322 1.74206,0.40928 1.88913,0.83811 0.38506,1.12276 -0.17443,1.13842 -1.95138,0.0546 z m -15.86712,2.04888 c -0.47463,-1.38393 -0.53224,-2.91952 -0.12803,-3.41244 0.40422,-0.49295 0.34469,-1.36258 -0.13227,-1.93256 -0.47697,-0.56997 -0.58172,-1.38446 -0.23279,-1.80998 0.47471,-0.57889 3.21988,7.27336 3.44663,9.85882 0.12741,1.45223 -2.28587,-0.75698 -2.95356,-2.70383 z m -66.32967,25.6758 c -0.16469,-0.48019 -0.12619,-0.93251 0.0855,-1.00515 0.21175,-0.0726 0.76258,0.17754 1.22405,0.55599 0.46147,0.37842 0.42296,0.83072 -0.0855,1.00514 -0.50854,0.17441 -1.05936,-0.0758 -1.22405,-0.55598 z m -7.36205,0.58401 c -3.01768,-0.66577 -5.49494,-3.0861 -3.66879,-3.5845 2.01367,-0.54958 7.89488,0.90843 8.59594,2.13109 1.07204,1.86956 -0.6878,2.38869 -4.92715,1.45341 z m 135.81321,-47.13471 c -0.25676,-0.74863 0.009,-1.25308 0.59132,-1.12099 0.58199,0.13206 1.18494,0.60986 1.33992,1.06173 0.15496,0.45185 -0.11158,0.95625 -0.59133,1.12099 -0.48019,0.16469 -1.08316,-0.31309 -1.33991,-1.06173 z m -11.94116,4.44567 c -2.59823,-1.27118 -2.58914,-3.36234 0.01,-2.24766 2.35039,1.00809 3.33286,2.27221 2.09573,2.69649 -0.38415,0.13176 -1.33163,-0.0702 -2.1055,-0.44883 z m -37.29557,8.47555 c -0.22686,-0.66151 0.17686,-1.40486 0.89715,-1.65189 0.83119,-0.28507 1.59651,0.38732 2.09489,1.84047 0.66404,1.93624 0.52558,2.19121 -0.89715,1.65189 -0.92532,-0.35077 -1.86801,-1.17898 -2.09489,-1.84047 z m -3.5802,3.7868 c -0.16469,-0.48021 -0.12617,-0.93251 0.0855,-1.00514 0.21175,-0.0726 0.76259,0.17754 1.22405,0.55598 0.46148,0.37842 0.42297,0.83072 -0.0855,1.00514 -0.50854,0.17441 -1.05936,-0.0758 -1.22405,-0.55598 z m -4.36545,1.49717 c -0.16469,-0.4802 -0.12618,-0.9325 0.0855,-1.00514 0.21176,-0.0726 0.76259,0.17754 1.22406,0.55599 0.46147,0.37842 0.42295,0.83072 -0.0855,1.00514 -0.50854,0.17441 -1.05937,-0.0758 -1.22406,-0.55599 z m 52.65966,-20.01173 c -0.16469,-0.48021 0.0935,-1.00784 0.57366,-1.17253 0.4802,-0.16469 1.00782,0.0935 1.17252,0.57366 0.16469,0.48019 -0.0935,1.00783 -0.57365,1.17252 -0.4802,0.1647 -1.00784,-0.0935 -1.17253,-0.57365 z m -13.07867,4.54308 c -0.15498,-0.45186 0.0278,-1.19914 0.40625,-1.66061 0.37841,-0.46147 0.89811,-0.2265 1.15486,0.52213 0.25675,0.74864 0.0739,1.49591 -0.40627,1.6606 -0.4802,0.1647 -0.99988,-0.0703 -1.15484,-0.52212 z m -69.30756,23.46822 c -3.1859,-1.04015 -7.49307,-14.73724 -5.96668,-18.97441 0.35925,-0.9973 0.13026,-1.62872 -0.74638,-2.05758 -1.58491,-0.77541 0.9019,-5.76869 3.81623,-7.66268 7.04613,-4.57917 18.69065,20.67357 12.03044,26.08967 -2.12503,1.72809 -7.2994,3.20386 -9.13362,2.605 z m -26.94064,8.58683 c -1.00232,-0.23896 -2.37964,-2.56013 -4.20224,-7.08199 l -2.7112,-6.72653 2.3827,-4.69926 c 3.8456,-7.58444 8.42101,-5.04018 11.26892,6.26631 2.17463,8.63356 -0.61482,13.70123 -6.73818,12.24147 z m -23.82147,6.63687 c -4.07668,-0.003 -7.107,-3.77495 -3.50728,-4.36562 4.49096,-0.73691 10.60625,0.45849 11.19986,2.18934 0.66945,1.95199 -0.14298,2.18184 -7.69258,2.17628 z m 123.99041,-42.83306 c 0.17662,-0.36101 0.97313,-0.33437 1.77002,0.0592 1.15158,0.56874 1.08568,0.70343 -0.32114,0.65637 -0.9735,-0.0326 -1.6255,-0.35458 -1.44888,-0.71558 z m -7.7647,1.81588 c 0.31216,-1.56954 0.4696,-1.66569 0.88076,-0.53789 0.53246,1.46068 0.0685,3.09942 -0.76254,2.69286 -0.27408,-0.1341 -0.32729,-1.10382 -0.11822,-2.15497 z m 12.38226,-4.07586 c -0.24703,-0.7203 -0.0563,-1.44439 0.42393,-1.60908 0.4802,-0.16468 1.07521,0.28991 1.32225,1.01021 0.24703,0.72029 0.0563,1.44438 -0.42394,1.60907 -0.4802,0.16469 -1.07521,-0.28991 -1.32224,-1.0102 z m -45.5754,15.06134 c -0.72973,-2.12776 1.41364,-2.52671 2.58965,-0.48202 0.46256,0.80422 0.22089,1.55101 -0.59217,1.82985 -0.80991,0.27776 -1.62968,-0.27536 -1.99748,-1.34783 z m 26.6418,-10.51927 c -0.84473,-0.51523 -7.53722,-2.90793 -14.87219,-5.31709 -7.33497,-2.40918 -15.70059,-5.35829 -18.59027,-6.55359 -2.88968,-1.1953 -7.20309,-2.88949 -9.58535,-3.76483 -3.16157,-1.16171 -4.16684,-1.94661 -3.7221,-2.90612 0.64445,-1.39043 13.19672,2.21233 26.96456,7.73937 3.73423,1.49908 10.61552,3.9589 15.29176,5.46625 4.67624,1.50737 8.59823,3.02046 8.71552,3.36245 0.69809,2.0355 -2.01281,3.30874 -4.20193,1.97356 z M 761.71855,271.93 c -0.90668,-2.64368 1.68315,-2.07415 2.99206,0.65799 1.0105,2.10928 0.93411,2.31977 -0.6271,1.72795 -0.97779,-0.37064 -2.04203,-1.44432 -2.36496,-2.38594 z m 45.93001,-15.67784 c 0.30655,-1.35074 2.09604,-0.77341 2.65507,0.8566 0.38064,1.10987 0.15598,1.24667 -1.2019,0.73195 -0.91852,-0.34819 -1.57246,-1.06306 -1.45319,-1.58859 z m -3.21146,3.66731 c -0.0824,-0.24011 0.0471,-0.50389 0.28682,-0.58626 0.2401,-0.0823 0.50388,0.0471 0.58627,0.28682 0.0824,0.2401 -0.0471,0.50387 -0.28683,0.58626 -0.2401,0.0823 -0.50387,-0.0471 -0.58626,-0.28682 z m -32.98592,9.60523 c -0.61658,-1.2094 -1.57377,-1.67186 -2.71289,-1.31068 -1.00925,0.32002 -1.8213,0.016 -1.90346,-0.7125 -0.29838,-2.64583 -1.79256,-3.46844 -3.18535,-1.75369 -1.80414,2.2212 -7.78274,0.50027 -8.82558,-2.54044 -1.00469,-2.92948 -0.64275,-2.91241 10.08997,0.47591 7.73556,2.44211 9.5178,3.35933 9.63743,4.95977 0.19628,2.62593 -1.90604,3.22379 -3.10012,0.88163 z m 30.0089,-10.69843 c 0.21034,-0.42993 0.7342,-0.60959 1.16412,-0.39926 0.42992,0.21035 0.25789,0.56208 -0.38243,0.78169 -0.64027,0.21958 -0.99203,0.0475 -0.78169,-0.38243 z m 0.19697,-4.16766 c -0.47463,-1.38394 0.5473,-2.22799 2.02111,-1.66931 2.51635,0.95388 2.74249,3.10103 0.28457,2.70183 -1.13668,-0.18461 -2.17423,-0.64925 -2.30568,-1.03252 z m -5.85985,2.83022 c -0.1498,-0.43679 0.39198,-0.77023 1.20396,-0.74097 0.81197,0.0293 1.37781,0.48724 1.2574,1.01773 -0.25183,1.10956 -2.05546,0.90675 -2.46141,-0.27626 z m -38.25799,13.63583 c -0.24703,-0.7203 -0.0563,-1.44438 0.42393,-1.60908 0.4802,-0.16469 1.07521,0.28991 1.32225,1.01021 0.24704,0.7203 0.0563,1.44437 -0.42394,1.60906 -0.4802,0.16469 -1.07521,-0.28989 -1.32224,-1.01019 z m -36.71019,10.6073 c 0.0463,-1.28603 1.41392,-2.5616 1.73685,-1.62001 0.44488,1.29717 -0.13761,3.44521 -0.88804,3.27488 -0.49559,-0.11247 -0.87755,-0.85717 -0.84881,-1.65487 z m -29.34733,6.8131 c -1.15244,-2.21941 -0.65045,-2.38615 3.3631,-1.11715 2.50393,0.79173 3.08883,1.35323 2.6408,2.53515 -0.77107,2.0341 -4.69228,1.10795 -6.00392,-1.41808 z m 62.61075,-19.83651 c 0.0399,-0.79207 0.31768,-0.65615 0.70839,0.34659 0.35359,0.90737 0.32408,1.49382 -0.0655,1.3032 -0.38962,-0.19062 -0.6789,-0.93302 -0.64278,-1.6498 z m 42.12968,-16.74961 c 0.0488,-1.35406 0.36972,-1.54221 1.74275,-1.02172 1.30625,0.49516 1.5488,0.99189 1.0836,2.21908 -0.76593,2.02057 -2.90959,1.11242 -2.82635,-1.19736 z m -3.84282,3.15116 c 0.21035,-0.42992 0.56208,-0.25788 0.78169,0.38246 0.21959,0.64026 0.0475,0.99201 -0.38243,0.78167 -0.42993,-0.21034 -0.60959,-0.73419 -0.39926,-1.16413 z m -76.33205,25.9112 c -0.31966,-0.93206 -0.27159,-2.07222 0.10683,-2.53368 0.39022,-0.47586 1.0197,0.128 1.45428,1.39521 0.42145,1.22885 0.37338,2.36901 -0.10682,2.53369 -0.4802,0.16469 -1.13463,-0.46316 -1.45429,-1.39522 z m 66.60786,-27.70984 c -2.74869,-0.97279 -8.30841,-3.04901 -12.35491,-4.61381 -4.0465,-1.56481 -11.12288,-3.95329 -15.72529,-5.30776 -8.42087,-2.4782 -9.58438,-3.44744 -9.38302,-7.8163 0.0689,-1.49497 2.0435,-1.10864 13.20328,2.58322 7.21724,2.38761 14.6968,4.69846 16.62127,5.13526 2.09642,0.47581 3.7421,1.503 4.10548,2.56253 0.43708,1.27444 0.95099,1.48009 1.83987,0.73625 1.56592,-1.31041 4.19648,-0.35824 4.12971,1.49481 -0.08,2.22042 -1.17213,2.11832 -7.80624,-0.72974 -3.41802,-1.46739 -8.90152,-3.32182 -12.18557,-4.12099 -3.28406,-0.79915 -8.29353,-2.47441 -11.13217,-3.72277 -5.49216,-2.41534 -7.87724,-1.79178 -3.01885,0.78927 1.58854,0.8439 6.49392,2.71126 10.90091,4.14967 4.40696,1.43842 10.81997,3.76428 14.25114,5.1686 3.43116,1.40432 7.91292,3.01213 9.95949,3.57292 2.04654,0.56078 3.83268,1.33654 3.9692,1.7239 0.31967,0.90745 -1.22547,0.57107 -7.3743,-1.60506 z m 9.71577,-1.93897 c 0.0565,-1.56694 1.43885,-2.52392 1.8623,-1.28921 0.31665,0.92331 -0.30561,2.219 -1.21551,2.53107 -0.3851,0.13208 -0.67615,-0.42676 -0.64679,-1.24186 z m -72.43762,25.33112 c -0.46146,-0.37841 -0.44613,-0.82278 0.0341,-0.98747 0.48021,-0.16469 1.25065,0.0102 1.71213,0.3886 0.46147,0.37841 0.44614,0.82278 -0.0341,0.98747 -0.4802,0.16469 -1.25065,-0.0102 -1.71213,-0.3886 z m 67.48961,-26.5615 c -0.56391,-1.64423 0.38002,-2.61423 2.15258,-2.21191 1.20991,0.2746 1.35143,0.64263 0.80319,2.08886 -0.73449,1.93755 -2.31102,2.00317 -2.95582,0.12306 z m -36.90737,14.7288 c -0.0622,-0.18129 0.30854,-1.02085 0.82382,-1.86569 0.76731,-1.25803 1.0248,-1.27966 1.42269,-0.11951 0.2672,0.7791 -0.10348,1.61867 -0.82382,1.8657 -0.7203,0.24703 -1.36052,0.30081 -1.42269,0.1195 z m -3.55425,-1.82786 c -0.24703,-0.7203 -0.0563,-1.44438 0.42394,-1.60907 0.4802,-0.16469 1.07521,0.2899 1.32225,1.0102 0.24703,0.7203 0.0563,1.44438 -0.42395,1.60907 -0.48019,0.16468 -1.0752,-0.2899 -1.32224,-1.0102 z m -48.07829,15.35053 c 0.21035,-0.42992 0.56208,-0.25789 0.78168,0.38244 0.21958,0.64026 0.0475,0.99202 -0.38244,0.78168 -0.42992,-0.21034 -0.60959,-0.73419 -0.39924,-1.16412 z m 42.94659,-16.08761 c -0.3391,-0.98874 -0.14039,-1.68964 0.44161,-1.55755 0.58197,0.13206 1.25231,0.80633 1.48963,1.49828 0.23731,0.69196 0.0386,1.39286 -0.44162,1.55755 -0.4802,0.16469 -1.15053,-0.50954 -1.48962,-1.49828 z m -24.44654,8.38419 c -0.3391,-0.98874 -0.14038,-1.68964 0.44161,-1.55755 0.58197,0.13206 1.25231,0.80633 1.48963,1.49828 0.23731,0.69197 0.0386,1.39286 -0.44161,1.55755 -0.4802,0.16469 -1.15054,-0.50954 -1.48963,-1.49828 z m 2.49804,-5.5133 c 0.38083,-0.77839 4.79414,1.16912 5.17661,2.28433 0.16787,0.48948 -0.99142,0.30504 -2.57622,-0.40996 -1.58478,-0.71495 -2.75496,-1.55843 -2.60039,-1.87437 z m 25.41563,-6.98734 c -0.15496,-0.45185 0.30758,-1.02367 1.02789,-1.27071 1.35014,-0.46304 2.08788,0.43532 1.44185,1.75581 -0.45831,0.93677 -2.09216,0.61583 -2.46974,-0.4851 z m -45.52498,14.97119 c -0.24668,-0.0672 0.40275,-0.41424 1.44317,-0.77106 1.16291,-0.39884 2.07887,-0.10304 2.37751,0.76775 0.41586,1.21255 0.20804,1.32359 -1.44316,0.77107 -1.06095,-0.35501 -2.13084,-0.7005 -2.37752,-0.76776 z m 82.11523,-30.62468 c -0.36104,-1.0527 0.21403,-0.96047 2.67956,0.42976 l 2.30451,1.29943 -2.37833,-0.53306 c -1.30809,-0.29317 -2.48067,-0.83143 -2.60574,-1.19613 z m -32.01209,10.97042 c 0.0364,-0.68332 0.40294,-0.26017 0.81466,0.94032 0.41173,1.20051 0.38198,1.75958 -0.0661,1.2424 -0.44808,-0.51718 -0.78494,-1.49941 -0.74859,-2.18272 z m -33.52209,14.17971 c -0.0823,-0.2401 0.0471,-0.50387 0.28682,-0.58626 0.24011,-0.0823 0.50389,0.0471 0.58628,0.28682 0.0823,0.24011 -0.0471,0.50389 -0.28684,0.58627 -0.2401,0.0823 -0.50387,-0.0471 -0.58626,-0.28683 z m 22.96351,-10.84502 c -0.5385,-0.64348 -0.82435,-1.48622 -0.63586,-1.87253 0.40857,-0.83512 3.64817,0.2589 4.02561,1.35944 0.45188,1.31757 -2.36097,1.74345 -3.39037,0.51331 z m -14.76904,5.17825 c -0.49805,-0.59517 -1.05954,-1.95244 -1.24774,-3.01615 l -0.34218,-1.93402 2.44325,0.71231 c 1.97481,0.57574 2.38079,1.09683 2.11752,2.71786 -0.38413,2.36511 -1.70017,3.03844 -2.97085,1.52 z m 19.86004,-8.40157 c -0.6906,-1.04004 -0.67104,-1.63868 0.0538,-1.64521 1.39918,-0.0126 3.02625,2.59617 1.86714,2.9937 -0.45941,0.15755 -1.32382,-0.44927 -1.92093,-1.34849 z m -29.83852,10.28915 c -0.46147,-0.37841 -0.44614,-0.82279 0.0341,-0.98746 0.4802,-0.1647 1.25065,0.0102 1.71212,0.38859 0.46147,0.37842 0.44614,0.82277 -0.0341,0.98746 -0.4802,0.16469 -1.25064,-0.0102 -1.71212,-0.38859 z m 62.94128,-23.29399 c -0.27675,-1.96188 1.31257,-2.37726 2.35785,-0.61623 0.43598,0.73451 0.14838,1.46432 -0.69041,1.752 -0.89926,0.30841 -1.52374,-0.11695 -1.66744,-1.13577 z m -44.31722,14.69988 c -0.76802,-0.6181 -1.21816,-1.48814 -1.00033,-1.93342 0.54576,-1.11549 3.71622,0.19812 4.25255,1.76194 0.54202,1.58039 -1.37592,1.68151 -3.25222,0.17148 z m 15.41388,-4.54322 c -0.0824,-0.24011 0.0471,-0.50389 0.28682,-0.58627 0.2401,-0.0823 0.50388,0.0471 0.58627,0.28683 0.0823,0.24009 -0.0471,0.50387 -0.28684,0.58626 -0.2401,0.0823 -0.50387,-0.0471 -0.58625,-0.28682 z m -31.3888,7.52576 c -0.97544,-2.13319 -0.90991,-2.65928 0.32302,-2.61464 0.92152,0.0332 1.90339,1.10335 2.43528,2.65425 1.2053,3.51442 -1.1486,3.4806 -2.75829,-0.0396 z m 20.98878,-6.93613 c -0.76437,-1.32945 -0.63922,-1.44404 0.92826,-0.84985 2.14367,0.8126 2.90658,2.36 1.17123,2.37558 -0.66879,0.006 -1.61356,-0.68057 -2.09949,-1.52573 z m -11.04063,2.85638 c -0.96032,-1.01461 -1.58128,-2.18154 -1.3799,-2.59315 0.58425,-1.19416 3.73061,0.3886 4.34737,2.18693 0.80298,2.34131 -0.91352,2.57628 -2.96747,0.40622 z m -19.14142,7.51363 c -1.17391,-0.38535 -1.74152,-0.83537 -1.26131,-1.00006 0.4802,-0.16469 1.83357,0.0158 3.0075,0.4012 1.17392,0.38535 1.74151,0.83538 1.26132,1.00006 -0.48021,0.1647 -1.83358,-0.0158 -3.00751,-0.4012 z m 34.67621,-12.41434 c -1.59194,-1.30544 -0.23894,-2.22631 1.80314,-1.22725 l 1.98212,0.96976 -1.4452,0.49565 c -0.79485,0.27261 -1.84788,0.16543 -2.34005,-0.23819 z m -30.81438,8.19356 c -0.41172,-1.20049 -0.3557,-2.31746 0.1245,-2.48216 0.4802,-0.16468 0.99681,0.0614 1.14803,0.50225 0.15123,0.44093 0.72657,1.34136 1.27855,2.00097 0.65857,0.78699 0.52122,1.36473 -0.39946,1.68049 -0.91451,0.31364 -1.66368,-0.27885 -2.15162,-1.70155 z m 9.00215,-5.5401 c -1.13874,-2.49941 -1.0822,-2.75577 0.47735,-2.1646 2.12395,0.80513 3.81521,4.9602 2.02859,4.98378 -0.66784,0.009 -1.79551,-1.25982 -2.50594,-2.81918 z m 15.71861,-4.8897 c -0.85686,-0.52261 -1.15001,-1.06928 -0.66298,-1.23631 0.48021,-0.1647 1.56432,0.12218 2.40915,0.63744 0.85686,0.5226 1.15001,1.06927 0.66298,1.2363 -0.48021,0.1647 -1.56433,-0.12217 -2.40915,-0.63743 z m -5.52537,2.38288 c -0.46148,-0.37843 -0.44616,-0.82277 0.034,-0.98747 0.4802,-0.16469 1.25065,0.0102 1.71212,0.3886 0.46147,0.37841 0.44614,0.82277 -0.034,0.98746 -0.4802,0.16469 -1.25066,-0.0102 -1.71212,-0.38859 z m 10.43972,-5.06768 c -0.85844,-0.52358 -1.40117,-1.27821 -1.20609,-1.67698 0.41664,-0.8516 3.65359,0.22075 4.03649,1.33722 0.41245,1.20264 -1.11504,1.386 -2.8304,0.33976 z m -26.20296,8.32711 c -0.77386,-0.37861 -1.65945,-1.42441 -1.96797,-2.32398 -0.91299,-2.6621 2.51125,-2.48624 3.79079,0.1947 1.1683,2.44787 0.47758,3.25473 -1.82282,2.12928 z m 14.82757,-7.35316 c -2.38433,-1.45426 -1.31189,-2.25022 1.17798,-0.8743 1.20221,0.66435 1.78015,1.34704 1.28433,1.51709 -0.49583,0.17005 -1.60387,-0.11924 -2.46231,-0.64279 z m -5.55645,2.3522 c -1.46113,-1.19816 -0.50134,-1.8872 1.19098,-0.85502 0.97325,0.59359 1.21129,1.07184 0.63235,1.27039 -0.51066,0.17514 -1.33115,-0.0118 -1.82333,-0.41537 z m 10.49556,-5.02189 c -0.85844,-0.52359 -1.40118,-1.27823 -1.2061,-1.67698 0.41664,-0.8516 3.65359,0.22074 4.0365,1.33721 0.41246,1.20264 -1.11505,1.38599 -2.8304,0.33977 z m 4.94457,-4.11766 c -1.20222,-0.66434 -2.03742,-1.51124 -1.85604,-1.88198 0.54521,-1.11439 4.60698,-0.0708 5.07879,1.30491 0.61021,1.77925 -0.64163,2.00341 -3.22275,0.57707 z m -22.51699,6.19025 c 0.56458,-1.15397 2.56483,-0.3657 3.11068,1.22589 l 0.49565,1.44521 -1.98214,-0.96975 c -1.09016,-0.53337 -1.82105,-1.29897 -1.62419,-1.70135 z m 4.18519,-2.61385 c 0.55233,-1.12896 3.33589,-0.37156 3.81977,1.03934 l 0.50496,1.47237 -2.29516,-0.98443 c -1.26234,-0.54142 -2.17564,-1.22869 -2.02957,-1.52728 z m 5.96495,-1.61439 c -0.75585,-0.461 -1.20665,-1.1808 -1.00177,-1.59952 0.43052,-0.87998 3.25534,0.008 3.64563,1.14599 0.39423,1.1495 -1.08637,1.40348 -2.64386,0.45353 z m 4.0182,-4.98182 c -0.1589,-0.4633 0.30044,-1.04449 1.02073,-1.29153 0.72031,-0.24704 1.36599,-0.28484 1.43487,-0.084 0.0689,0.20082 0.61005,0.94451 1.20263,1.65263 0.93024,1.11161 0.77369,1.23817 -1.14596,0.92639 -1.22286,-0.19864 -2.35337,-0.74017 -2.51227,-1.20348 z m 7.55598,-1.98939 c -1.16494,-0.36162 -1.91771,-1.06703 -1.67281,-1.5676 0.2449,-0.50057 1.60315,-0.34364 3.01832,0.34867 2.86824,1.40328 1.94446,2.24012 -1.3455,1.21888 z m -23.12609,6.63899 c 0.39783,-0.81313 2.47618,-0.15101 2.83806,0.90418 0.19855,0.57893 -0.32513,0.6845 -1.39109,0.28044 -0.94023,-0.35642 -1.59136,-0.88949 -1.44697,-1.18462 z m 4.24786,-2.33553 c -1.56233,-1.86697 -0.89652,-2.24652 1.55978,-0.88914 1.84754,1.02096 1.97666,1.27962 0.83427,1.67141 -0.74334,0.25495 -1.82067,-0.0971 -2.39405,-0.78227 z m 5.33305,-4.12882 c -2.55794,-1.41353 -1.14965,-2.27513 1.55549,-0.95166 2.0721,1.01377 2.44285,1.53195 1.36142,1.90284 -0.40578,0.13917 -1.71838,-0.28886 -2.91691,-0.95118 z m 6.05739,-2.40649 c -3.02195,-0.93804 -2.62,-3.08671 0.41386,-2.21227 2.39976,0.69169 3.66172,2.11933 2.28941,2.58998 -0.38842,0.13321 -1.60489,-0.0368 -2.70327,-0.37767 z m -14.75967,-1.62862 c -0.15629,-0.4557 0.50729,-0.44133 1.47462,0.0319 0.96733,0.47326 1.85229,1.13312 1.96656,1.46631 0.11427,0.33319 -0.54931,0.31882 -1.47463,-0.0319 -0.92532,-0.35076 -1.81026,-1.0106 -1.96655,-1.46629 z m 154.18084,233.32488 c -0.35231,-1.02727 -6.18432,-0.14498 -7.76054,1.17404 -2.42991,2.03343 -0.63462,2.57236 3.66119,1.09906 2.401,-0.82345 4.24571,-1.84635 4.09935,-2.2731 z m -7.61843,-0.76211 c 1.65769,-2.37664 0.20731,-2.35641 -5.54554,0.0774 -3.48176,1.47299 -4.77786,2.42856 -4.47839,3.30175 0.56085,1.63535 8.36026,-0.99392 10.02394,-3.37914 z m -15.71885,-44.52304 c -0.44723,-1.30402 -1.5779,-1.34193 -3.94853,-0.13233 -1.8853,0.96195 -1.96423,1.67901 -0.23001,2.0915 2.39887,0.57062 4.67963,-0.49869 4.17875,-1.95915 z m 10.73207,-8.54014 c 2.10711,-1.4069 3.399,-2.89256 3.14903,-3.6214 -0.47884,-1.3962 -1.55114,-1.02177 -9.14996,3.19506 -2.97819,1.65267 -7.63054,3.46069 -10.54756,4.09906 -5.27987,1.15548 -6.58303,2.69093 -2.77982,3.27536 2.55355,0.3924 15.07685,-4.10941 19.32831,-6.94806 z m -2.51108,-4.47659 c -0.1565,-0.45633 -1.10947,-0.99437 -2.11767,-1.19562 -1.01735,-0.2031 -1.3515,-0.5443 -0.75086,-0.76676 0.59525,-0.22043 0.87895,-0.99361 0.63048,-1.71811 -0.7884,-2.29881 -17.03591,6.48366 -17.74087,9.58969 -0.41224,1.81634 2.48008,1.10564 4.60535,-1.13163 2.75316,-2.89826 6.75732,-4.29409 7.35117,-2.5625 0.33272,0.9701 1.46777,0.9603 4.37808,-0.0378 2.16089,-0.7411 3.80085,-1.72083 3.64435,-2.17717 z m -20.7894,-46.39158 c -0.54639,-1.59318 -2.81198,-3.13389 -4.00609,-2.72436 -0.35918,0.12319 0.16206,1.26172 1.15832,2.53009 1.99762,2.54323 3.69304,2.65889 2.84777,0.19427 z m 8.47553,-29.34562 c -0.36752,-1.07163 -0.19174,-1.83339 0.39249,-1.70079 2.33016,0.52887 2.39049,-1.51136 0.0887,-2.99941 -6.61726,-4.27785 -10.18761,-5.9128 -10.68629,-4.89351 -0.33042,0.67536 1.14103,2.08015 3.85212,3.67759 5.86424,3.45536 4.35544,3.71002 -2.49721,0.42148 -3.89003,-1.86681 -5.87975,-2.31936 -6.80248,-1.5472 -0.7173,0.60026 -1.11402,1.14253 -0.8816,1.20504 0.23243,0.0625 4.19751,1.83808 8.81127,3.94571 7.05496,3.22277 8.28285,3.52344 7.72301,1.89109 z m 1.5323,-9.75807 c -0.65391,-1.90668 -6.31728,-4.49489 -7.27634,-3.32536 -0.42122,0.51367 0.38263,1.25499 1.96359,1.81096 1.4722,0.51771 3.387,1.41183 4.25509,1.98695 l 1.57834,1.04565 z m -21.01541,1.8675 c -0.92871,-0.66314 -4.50045,-2.36274 -7.93721,-3.77691 -3.43676,-1.41417 -6.66487,-2.89421 -7.1736,-3.28902 -1.39008,-1.07875 -1.84756,0.63788 -0.48924,1.83416 1.69519,1.49359 15.34267,7.10484 16.39902,6.74256 0.51248,-0.17577 0.17375,-0.81621 -0.79897,-1.51079 z"
       style="fill:#000000;stroke-width:0.923011"
       id="path904" />
  </g>
</svg>
