<?xml version="1.0" encoding="UTF-8" standalone="no"?>
<!-- Created with Inkscape (http://www.inkscape.org/) -->

<svg
   width="80.870285mm"
   height="94.904778mm"
   viewBox="0 0 80.870284 94.904765"
   version="1.1"
   id="svg941"
   xml:space="preserve"
   inkscape:version="1.2.2 (732a01da63, 2022-12-09)"
   sodipodi:docname="stop_watch.svg"
   xmlns:inkscape="http://www.inkscape.org/namespaces/inkscape"
   xmlns:sodipodi="http://sodipodi.sourceforge.net/DTD/sodipodi-0.dtd"
   xmlns="http://www.w3.org/2000/svg"
   xmlns:svg="http://www.w3.org/2000/svg"><sodipodi:namedview
     id="namedview943"
     pagecolor="#505050"
     bordercolor="#eeeeee"
     borderopacity="1"
     inkscape:showpageshadow="0"
     inkscape:pageopacity="0"
     inkscape:pagecheckerboard="0"
     inkscape:deskcolor="#505050"
     inkscape:document-units="mm"
     showgrid="false"
     inkscape:zoom="2.0888418"
     inkscape:cx="161.57279"
     inkscape:cy="213.99418"
     inkscape:window-width="1920"
     inkscape:window-height="1009"
     inkscape:window-x="-8"
     inkscape:window-y="-8"
     inkscape:window-maximized="1"
     inkscape:current-layer="layer1" /><defs
     id="defs938" /><g
     inkscape:label="Layer 1"
     inkscape:groupmode="layer"
     id="layer1"
     transform="translate(144.15194,-48.956826)"><path
       style="fill:#000000;stroke-width:0.264583"
       d="m -109.0768,143.6492 c -13.15817,-1.36592 -25.06022,-9.64219 -30.95402,-21.52435 -1.7673,-3.56296 -2.67277,-6.11407 -3.50441,-9.87352 -0.77076,-3.48428 -0.83124,-11.66988 -0.11263,-15.244734 2.42628,-12.069878 10.34307,-22.533643 21.16579,-27.975201 2.73041,-1.372822 7.58973,-2.980749 10.75944,-3.560248 3.50884,-0.641501 10.36452,-0.633744 13.75833,0.01557 15.57006,2.978902 27.684322,14.418801 31.364819,29.618829 2.252488,9.302524 1.095105,18.753224 -3.359367,27.431214 -7.391148,14.39909 -22.941303,22.7917 -39.117952,21.11244 z m 11.1125,-6.81119 c 3.183051,-0.72088 5.312677,-1.49138 8.202083,-2.96751 16.005358,-8.17678 22.530893,-27.88263 14.578685,-44.024824 -3.345284,-6.790592 -8.37923,-11.871836 -15.067905,-15.209473 -4.840282,-2.415294 -8.847438,-3.314361 -14.724323,-3.303633 -4.68419,0.0086 -7.06707,0.393299 -10.98021,1.772908 -11.43332,4.030903 -19.9557,14.38747 -21.7095,26.381818 -0.51346,3.511534 -0.19984,9.884864 0.64121,13.030674 1.50464,5.62789 4.14157,10.38338 8.04806,14.51404 5.42976,5.74133 11.3252,8.86714 19.23794,10.2001 2.84628,0.47948 8.79603,0.28033 11.77396,-0.3941 z m -7.9375,-2.93921 c -0.4456,-0.4456 -0.52917,-0.88194 -0.52917,-2.76312 0,-2.00857 0.0593,-2.27551 0.58804,-2.64583 0.79144,-0.55435 1.4221,-0.5184 2.0578,0.11729 0.44097,0.44097 0.52916,0.88194 0.52916,2.64583 0,1.76389 -0.0882,2.20486 -0.52916,2.64583 -0.29105,0.29105 -0.7673,0.52917 -1.05834,0.52917 -0.29104,0 -0.76729,-0.23812 -1.05833,-0.52917 z m -14.46741,-4.13658 c -0.44617,-0.68095 -0.43565,-0.73651 0.45692,-2.41219 0.90951,-1.70749 1.84892,-2.71164 2.5368,-2.71164 0.53414,0 1.41952,0.98131 1.41952,1.57332 0,0.54793 -1.74544,3.71804 -2.22717,4.04502 -0.65249,0.44291 -1.73183,0.19875 -2.18607,-0.49451 z m 28.136552,-0.29519 c -1.71101,-2.71624 -1.903645,-3.75711 -0.826013,-4.4632 0.982805,-0.64396 1.747229,-0.17916 2.877751,1.74978 1.420167,2.42315 1.227418,3.70561 -0.556937,3.70561 -0.717608,0 -0.979165,-0.17361 -1.494801,-0.99219 z m -38.366672,-9.81041 c -0.52075,-0.57542 -0.56413,-1.36853 -0.10716,-1.95907 0.1819,-0.23506 1.14254,-0.86853 2.13476,-1.40771 1.53638,-0.83488 1.8984,-0.93732 2.4401,-0.69051 0.7213,0.32865 1.12347,1.50262 0.73129,2.1347 -0.36844,0.59382 -3.53627,2.40644 -4.20563,2.40644 -0.30551,0 -0.75253,-0.21773 -0.99336,-0.48385 z m 48.113155,-0.48229 c -1.806541,-1.07684 -1.974713,-1.26951 -1.980324,-2.26891 -0.0028,-0.49021 0.219384,-0.8679 0.692951,-1.17819 0.680945,-0.44618 0.736508,-0.43565 2.412193,0.45692 2.590803,1.38002 3.26153,2.61261 1.972895,3.62559 -0.66993,0.52662 -1.399185,0.37704 -3.097715,-0.63541 z M -107.09243,109.1175 c -1.77164,-0.93399 -3.02355,-2.77 -3.03779,-4.45515 -0.004,-0.43657 0.89731,-5.258604 2.00223,-10.715634 1.97271,-9.742867 2.22304,-10.583332 3.15223,-10.583332 0.98563,0 1.2058,0.724876 3.29516,10.848952 2.202608,10.672834 2.232842,10.977874 1.27182,12.831884 -0.8333,1.60761 -2.46529,2.5176 -4.48769,2.50232 -0.77122,-0.006 -1.75939,-0.19889 -2.19596,-0.42904 z m -27.23318,-3.6803 c -0.49204,-0.49204 -0.54781,-1.72761 -0.0983,-2.17715 0.20042,-0.20042 1.20532,-0.3175 2.7252,-0.3175 2.6224,0 3.04271,0.18745 3.04271,1.35694 0,1.25582 -0.583,1.55348 -3.04271,1.55348 -1.65736,0 -2.31529,-0.10413 -2.62693,-0.41577 z m 53.382628,-0.27617 c -0.406458,-0.62034 -0.412965,-0.7641 -0.06286,-1.38907 0.371549,-0.66325 0.507564,-0.70079 2.80008,-0.77281 2.625397,-0.0825 3.260215,0.18555 3.260215,1.3765 0,1.13445 -0.755653,1.47732 -3.255881,1.47732 -2.175637,0 -2.310468,-0.034 -2.741551,-0.69194 z M -128.75249,92.384332 c -0.99897,-0.56002 -1.91988,-1.181725 -2.04647,-1.381562 -0.62135,-0.980906 0.13101,-2.347719 1.29229,-2.347719 0.56629,0 2.96573,1.286377 3.82726,2.051865 0.54177,0.481367 0.60171,1.37474 0.1323,1.971892 -0.64205,0.816758 -1.33704,0.752911 -3.20538,-0.294476 z m 45.049599,0.674629 c -0.466555,-0.231333 -0.65686,-0.571572 -0.716258,-1.280565 -0.07856,-0.937675 -0.0285,-0.996651 1.735182,-2.044435 2.112174,-1.254821 3.041314,-1.364287 3.653218,-0.430406 0.620655,0.947237 0.269537,1.64139 -1.356346,2.681454 -1.978023,1.265325 -2.553748,1.451798 -3.315796,1.073952 z m -34.568799,-9.309045 c -0.88073,-0.616886 -2.52091,-3.704894 -2.31404,-4.356692 0.23919,-0.753618 1.21652,-1.334268 1.93121,-1.147371 0.65332,0.170847 2.69855,3.394363 2.69855,4.253227 0,1.182579 -1.36247,1.918518 -2.31572,1.250836 z m 25.306581,0.04778 c -1.009573,-0.500489 -0.9413,-1.616067 0.219281,-3.583056 1.08471,-1.838399 1.756418,-2.274517 2.74692,-1.783483 1.009574,0.500489 0.941301,1.616068 -0.219281,3.583057 -1.08471,1.838399 -1.756418,2.274517 -2.74692,1.783482 z M -105.9018,80.188385 c -0.4456,-0.445603 -0.52917,-0.881944 -0.52917,-2.763123 0,-2.008569 0.0593,-2.275509 0.58804,-2.645833 0.79144,-0.554348 1.4221,-0.518401 2.0578,0.117289 0.77892,0.778923 0.76638,4.124987 -0.0192,5.123694 -0.65451,0.83208 -1.37561,0.889828 -2.09746,0.167973 z m 30.996215,-6.002991 -3.267326,-3.320057 1.349097,-1.366067 c 1.148236,-1.16268 1.349097,-1.516444 1.349097,-2.376094 0,-2.876846 2.584159,-4.516399 4.863563,-3.085749 0.76269,0.478699 3.484832,3.194503 6.182791,6.168398 1.251318,1.379297 1.45651,2.487597 0.723125,3.905803 -0.615892,1.191004 -1.734005,1.6377 -3.854141,1.539753 -1.782733,-0.08236 -1.831509,-0.06676 -2.825329,0.903682 -0.556202,0.543118 -1.065789,0.979141 -1.132414,0.968936 -0.06663,-0.01021 -1.591434,-1.512575 -3.388463,-3.338605 z M -109.73814,61.176971 c -0.44289,-1.764651 -1.88578,-2.68442 -4.21118,-2.68442 -1.32222,0 -1.59374,-0.09942 -2.47356,-0.905712 l -0.9883,-0.905711 v -2.779053 c 0,-3.166949 0.37129,-4.014963 2.00916,-4.588862 1.38877,-0.486616 19.803442,-0.469802 20.97367,0.01915 1.675858,0.700218 2.0203,1.477908 2.0203,4.561486 0,2.624177 -0.03082,2.772759 -0.739611,3.566038 -0.661236,0.740051 -0.951648,0.848529 -2.740575,1.023686 -1.100532,0.107755 -2.166692,0.290631 -2.369243,0.406392 -0.887921,0.507454 -1.562158,1.335244 -1.704181,2.092296 l -0.15338,0.817581 h -4.73338 -4.73339 z"
       id="path1150" /></g></svg>
