<?xml version="1.0" encoding="UTF-8" standalone="no"?>
<!-- Created with Inkscape (http://www.inkscape.org/) -->

<svg
   width="135.33366mm"
   height="137.36145mm"
   viewBox="0 0 135.33366 137.36143"
   version="1.1"
   id="svg941"
   xml:space="preserve"
   inkscape:version="1.2.2 (732a01da63, 2022-12-09)"
   sodipodi:docname="time_card.svg"
   xmlns:inkscape="http://www.inkscape.org/namespaces/inkscape"
   xmlns:sodipodi="http://sodipodi.sourceforge.net/DTD/sodipodi-0.dtd"
   xmlns="http://www.w3.org/2000/svg"
   xmlns:svg="http://www.w3.org/2000/svg"><sodipodi:namedview
     id="namedview943"
     pagecolor="#505050"
     bordercolor="#eeeeee"
     borderopacity="1"
     inkscape:showpageshadow="0"
     inkscape:pageopacity="0"
     inkscape:pagecheckerboard="0"
     inkscape:deskcolor="#505050"
     inkscape:document-units="mm"
     showgrid="false"
     inkscape:zoom="0.73851712"
     inkscape:cx="83.274983"
     inkscape:cy="350.70277"
     inkscape:window-width="1920"
     inkscape:window-height="1009"
     inkscape:window-x="-8"
     inkscape:window-y="-8"
     inkscape:window-maximized="1"
     inkscape:current-layer="layer1" /><defs
     id="defs938" /><g
     inkscape:label="Layer 1"
     inkscape:groupmode="layer"
     id="layer1"
     transform="translate(170.58704,-10.911417)"><path
       style="fill:#000000;stroke-width:0.184127"
       d="m -68.764602,148.22487 c -9.729326,-1.19911 -16.066157,-4.54179 -22.127982,-11.67254 -3.309346,-3.8929 -5.576638,-8.62375 -6.633548,-13.84131 -0.371352,-1.83322 -0.42155,-2.6095 -0.414694,-6.4127 0.0072,-3.99932 0.04599,-4.50656 0.512132,-6.69831 1.025658,-4.82257 3.223688,-9.46135 6.205082,-13.095381 1.70997,-2.084289 5.30398,-5.460855 6.99231,-6.569269 4.356738,-2.860258 9.149704,-4.690295 13.924692,-5.316685 2.497382,-0.327609 7.954757,-0.138173 10.323595,0.358352 10.465141,2.19357 19.079989,9.261687 23.251452,19.076823 1.508454,3.54928 1.478143,3.29706 1.478143,12.2998 v 8.02516 l -0.645099,1.98993 c -2.090303,6.44792 -6.742301,12.55533 -12.582807,16.51944 -3.626307,2.46127 -8.203937,4.26466 -12.719797,5.01105 -1.602545,0.26488 -6.385603,0.4708 -7.563479,0.32564 z m 6.139028,-9.18592 c 4.911137,-0.74025 9.395526,-3.09091 12.974156,-6.8009 4.245472,-4.40131 6.296394,-9.59335 6.296394,-15.93973 0,-4.90765 -1.110042,-8.78973 -3.553826,-12.4286 -3.809064,-5.671796 -9.40611,-9.315245 -15.687485,-10.21191 -1.70337,-0.243155 -5.596332,-0.240509 -7.397803,0.005 -3.077233,0.419422 -6.917892,2.041965 -9.719324,4.106072 -4.735988,3.489488 -7.831799,8.312228 -9.057715,14.110348 -0.449354,2.12527 -0.447489,6.66447 0.0036,8.78196 1.255481,5.89331 4.366733,10.82068 9.003,14.25826 2.729734,2.02397 6.794817,3.69587 10.191455,4.19156 1.751757,0.25564 4.996564,0.22197 6.947537,-0.0721 z m -5.147016,-18.56574 c -1.032776,-0.38954 -1.91138,-1.12299 -2.300662,-1.92057 -0.526281,-1.07826 -0.690833,-3.89978 -0.641548,-11.00037 0.03673,-5.29257 0.06682,-5.76824 0.413405,-6.53652 0.205581,-0.45572 0.604455,-1.101492 0.886387,-1.435061 1.765855,-2.089281 5.235452,-1.798236 6.849905,0.574601 0.695508,1.02222 0.740251,1.38523 0.906046,7.35095 l 0.116417,4.1889 0.66998,0.008 c 0.368489,0.005 2.717439,0.0776 5.219888,0.16239 4.442222,0.15055 4.569369,0.16561 5.372259,0.63613 1.44899,0.84916 2.154546,2.09808 2.16282,3.82846 0.0031,0.64082 -0.1317,1.3527 -0.348578,1.8413 -0.441799,0.99533 -1.638257,2.09158 -2.563039,2.34837 -1.017791,0.28263 -15.98079,0.24084 -16.74328,-0.0468 z m -73.81439,14.04611 c -9.87137,-0.0798 -15.05121,-0.18814 -15.70342,-0.32841 -2.97038,-0.63885 -6.07246,-2.40806 -8.6119,-4.91161 -2.09471,-2.06511 -2.64179,-2.80592 -3.84636,-5.20837 l -0.83838,-1.67212 V 77.311751 32.224695 l 0.70883,-1.463281 c 2.22695,-4.597215 6.82758,-8.567976 11.48255,-9.910473 1.45794,-0.420472 4.70846,-0.952495 4.86473,-0.796226 0.0409,0.04088 0.13558,2.681448 0.21045,5.867934 l 0.13613,5.793609 0.67763,1.368722 c 1.77719,3.589667 4.72388,5.259621 9.02121,5.112505 1.71268,-0.05863 2.0247,-0.126234 3.18742,-0.690572 1.52943,-0.742324 3.59985,-2.724273 4.38333,-4.196038 0.69395,-1.303583 0.8612,-2.982414 0.86291,-8.661956 l 0.001,-4.649216 h 6.87636 6.87636 l 0.10953,5.661917 c 0.12047,6.228077 0.1859,6.656652 1.27337,8.3413 0.92875,1.438775 2.08696,2.511573 3.46125,3.206002 1.53447,0.775369 2.71603,1.019426 4.93447,1.019246 1.61152,-1.31e-4 1.90321,-0.05547 2.98301,-0.565973 2.29024,-1.082766 3.75806,-2.514493 4.90536,-4.784734 0.50039,-0.990156 0.50766,-1.055972 0.63973,-5.788854 0.0735,-2.633022 0.14017,-5.30517 0.14822,-5.938108 l 0.0146,-1.150796 h 6.812717 6.812712 l 0.0036,4.74128 c 0.002,2.607704 0.08607,5.311458 0.186807,6.008343 0.389083,2.69162 2.461948,5.447464 5.006264,6.655754 2.844096,1.350655 6.458773,1.152908 9.02482,-0.493721 1.862726,-1.195307 3.618738,-3.756107 4.006788,-5.843113 0.101428,-0.54549 0.184413,-3.266843 0.184413,-6.04745 v -5.05565 l 0.966669,0.119924 c 5.24081,0.650169 9.025417,2.472968 12.301557,5.924861 1.715562,1.807597 3.382313,4.564815 4.102545,6.786625 0.705925,2.177678 0.688976,1.453588 0.919172,39.265164 0.04605,7.563477 0.0083,9.98891 -0.155562,9.98891 -0.119007,0 -0.705777,-0.170084 -1.303933,-0.377966 -1.672225,-0.581159 -4.806454,-1.40099 -6.289156,-1.645077 L -61.583635,79.80783 V 68.224441 56.641051 h -50.454005 -50.45401 l 0.0491,31.25954 0.0491,31.259539 0.81622,1.37704 c 1.01028,1.70444 2.36645,3.05259 4.10897,4.08467 l 1.33514,0.79079 27.1327,0.0921 27.1327,0.0921 0.87851,2.51504 c 0.48318,1.38327 1.302775,3.40321 1.821328,4.48875 0.51855,1.08554 0.94282,2.00449 0.94282,2.04211 0,0.0939 -25.450138,0.0215 -43.361998,-0.12334 z m -4.41906,-18.75247 c -1.01557,-0.4678 -1.69922,-1.15584 -2.17182,-2.18577 -0.36395,-0.79314 -0.40095,-1.17727 -0.40333,-4.18753 -0.003,-3.69769 0.0611,-3.94902 1.35258,-5.30884 1.22569,-1.29055 1.25439,-1.29665 6.4702,-1.3759 2.66396,-0.0405 5.28307,0.0109 6.05396,0.11871 1.72171,0.24082 2.87967,0.91917 3.52067,2.06245 0.43397,0.77404 0.46396,1.00718 0.52396,4.07366 0.0799,4.08212 -0.11003,4.91364 -1.37678,6.02868 -0.46817,0.41209 -1.15138,0.83265 -1.51825,0.93455 -0.38051,0.1057 -3.03975,0.18399 -6.19085,0.18226 -4.97327,-0.003 -5.59723,-0.0368 -6.26034,-0.34227 z m 27.73826,0.13644 c -0.33954,-0.0977 -1.01099,-0.57134 -1.49212,-1.05246 -1.16628,-1.16628 -1.37152,-2.02451 -1.37113,-5.73348 1.8e-4,-2.61982 0.0352,-2.92195 0.42579,-3.68254 0.54793,-1.06702 1.21336,-1.77555 2.13418,-2.27243 0.70934,-0.38276 0.9471,-0.39742 6.44446,-0.39742 5.59695,0 5.7248,0.008 6.57446,0.42679 1.08653,0.53517 1.90496,1.45459 2.19941,2.4708 0.30676,1.05871 0.31201,6.60434 0.007,7.63533 -0.30968,1.04754 -0.96121,1.77374 -2.10093,2.34168 l -0.95247,0.47464 -5.62576,-0.0166 c -3.09418,-0.009 -5.90358,-0.0966 -6.24313,-0.1943 z m -26.66926,-18.203442 c -1.11835,-0.163466 -2.09848,-0.719143 -2.70729,-1.534895 -0.80407,-1.077361 -0.93949,-1.837877 -0.93949,-5.276209 0,-2.734396 0.0493,-3.31245 0.32567,-3.818157 0.51853,-0.948858 1.41925,-1.879144 2.23468,-2.308052 0.72579,-0.381756 0.96363,-0.396093 6.36983,-0.38394 6.2515,0.01405 6.34402,0.02925 7.71449,1.267382 1.16324,1.050923 1.35846,1.96224 1.27432,5.94887 -0.0618,2.9262 -0.10961,3.330201 -0.47674,4.025514 -0.59835,1.133214 -1.81599,1.900049 -3.32644,2.094902 -1.48352,0.191378 -9.13129,0.180117 -10.46903,-0.01541 z m 27.5386,0.02794 c -1.28352,-0.196378 -2.53784,-1.056168 -3.08122,-2.112054 -0.60435,-1.174364 -0.89156,-4.188382 -0.62587,-6.568057 0.21768,-1.949712 0.76792,-3.016861 2.01927,-3.9162 0.6815,-0.48979 0.99962,-0.576479 2.66985,-0.727552 1.04288,-0.09433 3.71902,-0.119771 5.94696,-0.05654 3.81968,0.108409 4.10547,0.141254 5.00902,0.575662 1.14149,0.54881 1.80491,1.283563 2.11061,2.337556 0.30597,1.054941 0.307,6.600375 10e-4,7.635331 -0.30177,1.022034 -1.12297,1.940184 -2.20374,2.463881 -0.8305,0.402432 -1.07693,0.421513 -5.93001,0.459164 -2.78493,0.0216 -5.44726,-0.01943 -5.91629,-0.09119 z m -27.87109,-18.421072 c -1.35664,-0.345101 -2.43129,-1.252882 -2.96394,-2.503712 -0.48031,-1.127911 -0.598,-6.091205 -0.17864,-7.533742 0.39332,-1.352986 1.69155,-2.737232 2.86298,-3.052662 0.52321,-0.140887 2.58745,-0.190158 6.32807,-0.15104 l 5.55156,0.05806 0.8552,0.502739 c 1.85296,1.089288 2.1829,2.015188 2.1829,6.125846 0,4.110659 -0.32994,5.036558 -2.1829,6.125846 l -0.8552,0.50274 -5.52382,0.03322 c -3.0381,0.01826 -5.7724,-0.03001 -6.07621,-0.107293 z m 27.3863,-0.01412 c -0.93959,-0.222861 -2.00449,-1.025409 -2.51381,-1.894504 -0.59901,-1.022135 -0.93176,-3.751678 -0.75635,-6.204365 0.1475,-2.062473 0.36511,-2.652885 1.38599,-3.760413 1.28984,-1.399313 1.49721,-1.434655 8.02624,-1.367938 l 5.70011,0.05825 0.91597,0.598935 c 1.78055,1.164276 2.01433,1.873487 2.01797,6.121714 0.003,3.148684 -0.009,3.245872 -0.50592,4.258031 -0.57351,1.16783 -1.48022,1.885941 -2.75149,2.179179 -0.92072,0.21238 -10.63068,0.221748 -11.51871,0.01112 z m 27.3526,-0.03952 c -0.986988,-0.262435 -2.261291,-1.458514 -2.662943,-2.499472 -0.280744,-0.727611 -0.336161,-1.417592 -0.336161,-4.185525 0,-3.283737 0.0047,-3.322231 0.506168,-4.175343 0.626551,-1.065836 1.662615,-1.941221 2.59626,-2.19362 0.441542,-0.119364 2.801896,-0.169717 6.260331,-0.133551 l 5.551558,0.05806 0.828574,0.488828 c 1.930082,1.138679 2.117464,1.690155 2.117464,6.231821 0,3.488324 -0.01309,3.613826 -0.460318,4.410882 -0.534378,0.952389 -1.651037,1.801821 -2.683417,2.041253 -0.965474,0.223915 -10.849908,0.187358 -11.717516,-0.04333 z m -54.92302,-45.874383 c -2.04985,-0.67046 -2.76724,-1.662636 -3.0341,-4.19623 -0.23858,-2.265151 -0.24063,-13.270773 -0.003,-14.543346 0.22384,-1.197223 0.93003,-2.260882 1.99979,-3.012059 0.71631,-0.50299 0.93193,-0.557524 2.20439,-0.557524 1.20461,0 1.53519,0.07336 2.26561,0.502739 1.07763,0.633502 1.74967,1.42614 2.00123,2.360369 0.12896,0.478911 0.17798,3.501094 0.14294,8.811872 l -0.0533,8.082972 -0.57616,0.800411 c -1.05116,1.460283 -3.34941,2.27355 -4.94766,1.750796 z m 32.07747,-0.006 c -1.09393,-0.305902 -2.1428,-1.123026 -2.58609,-2.014696 -0.47221,-0.949825 -0.73397,-5.915796 -0.63268,-12.00276 0.0722,-4.339826 0.11506,-4.864761 0.45837,-5.615885 1.04381,-2.283756 3.52143,-3.404358 5.59459,-2.530378 0.83737,0.353007 2.0809,1.636344 2.57539,2.657833 0.36782,0.759825 0.37733,1.017249 0.31647,8.567654 -0.0563,6.987129 -0.0964,7.859458 -0.39109,8.518288 -0.43878,0.980872 -0.96331,1.514444 -2.01508,2.049818 -1.1068,0.56338 -2.19495,0.684696 -3.31988,0.370126 z m 32.036172,-0.004 c -1.063758,-0.39337 -2.112726,-1.153553 -2.424969,-1.757365 -0.154251,-0.298287 -0.36611,-1.14628 -0.470799,-1.88443 -0.219141,-1.545143 -0.287397,-14.330465 -0.08093,-15.158964 0.594256,-2.384574 2.929385,-4.046625 5.025423,-3.576893 0.466474,0.104539 1.120067,0.358135 1.452432,0.563548 0.677574,0.418763 1.69286,1.624648 2.071989,2.460963 0.58521,1.290902 0.392206,15.947471 -0.225495,17.123846 -0.951035,1.811191 -3.549265,2.894326 -5.347652,2.229297 z"
       id="path1169" /></g></svg>
