<?xml version="1.0" encoding="UTF-8" standalone="no"?>
<!-- Created with Inkscape (http://www.inkscape.org/) -->

<svg
   width="71.566528mm"
   height="63.873478mm"
   viewBox="0 0 71.566526 63.873469"
   version="1.1"
   id="svg941"
   xml:space="preserve"
   inkscape:version="1.2.2 (732a01da63, 2022-12-09)"
   sodipodi:docname="warning.svg"
   xmlns:inkscape="http://www.inkscape.org/namespaces/inkscape"
   xmlns:sodipodi="http://sodipodi.sourceforge.net/DTD/sodipodi-0.dtd"
   xmlns="http://www.w3.org/2000/svg"
   xmlns:svg="http://www.w3.org/2000/svg"><sodipodi:namedview
     id="namedview943"
     pagecolor="#505050"
     bordercolor="#eeeeee"
     borderopacity="1"
     inkscape:showpageshadow="0"
     inkscape:pageopacity="0"
     inkscape:pagecheckerboard="0"
     inkscape:deskcolor="#505050"
     inkscape:document-units="mm"
     showgrid="false"
     inkscape:zoom="0.73851712"
     inkscape:cx="4.7392267"
     inkscape:cy="224.77475"
     inkscape:window-width="1920"
     inkscape:window-height="1009"
     inkscape:window-x="-8"
     inkscape:window-y="-8"
     inkscape:window-maximized="1"
     inkscape:current-layer="layer1" /><defs
     id="defs938" /><g
     inkscape:label="Layer 1"
     inkscape:groupmode="layer"
     id="layer1"
     transform="translate(149.69345,-44.231489)"><path
       style="fill:#000000;stroke-width:0.264583"
       d="m -144.57867,107.71632 c -3.74991,-1.25852 -6.01897,-5.70055 -4.76972,-9.33743 0.41521,-1.20876 10.02691,-18.042345 26.48033,-46.376694 3.28711,-5.660709 3.96652,-6.441176 6.41162,-7.365283 2.55075,-0.964035 6.14908,-0.148723 7.9819,1.808541 0.37935,0.40511 4.70655,7.701718 9.615993,16.214687 4.90945,8.512968 10.20379,17.68078 11.76522,20.372915 9.30943,16.050884 9.15559,15.735534 8.88291,18.209684 -0.2864,2.59871 -1.82037,4.79812 -4.24706,6.08946 l -1.32292,0.70398 -29.765623,0.0527 c -26.72885,0.0473 -29.89489,0.009 -31.03265,-0.37255 z m 60.457363,-5.3416 c 1.58353,-1.41489 1.48307,-1.68331 -4.46603,-11.93333 -2.91388,-5.020469 -9.31619,-16.093281 -14.227353,-24.60625 -4.91116,-8.512968 -9.15953,-15.716249 -9.44083,-16.00729 -0.60396,-0.624884 -2.55384,-0.730696 -3.2235,-0.174926 -0.46763,0.388093 -1.00674,1.302961 -12.49819,21.2093 -4.3263,7.494322 -9.82592,17.01517 -12.2214,21.157446 -2.39547,4.14227 -4.41836,7.91934 -4.4953,8.3935 -0.11822,0.72847 0.005,1.00672 0.79316,1.79516 l 0.93306,0.93306 h 28.99416 28.994163 z M -115.5304,96.21971 c -1.0058,-0.55313 -1.44323,-1.36679 -1.44932,-2.69592 -0.005,-1.11049 0.11521,-1.40433 0.8937,-2.18282 0.76786,-0.76785 1.08168,-0.89958 2.14313,-0.89958 1.06144,0 1.37526,0.13173 2.14312,0.89958 0.78299,0.783 0.89958,1.07092 0.89958,2.22155 0,1.18204 -0.099,1.40889 -0.93525,2.14313 -0.73537,0.64566 -1.17359,0.81944 -2.05052,0.81311 -0.6134,-0.004 -1.35339,-0.139 -1.64444,-0.29905 z m 0.0387,-10.474675 c -0.2045,-0.400182 -0.446,-1.084791 -0.53667,-1.521354 -0.27203,-1.309653 -0.95584,-11.967955 -0.95654,-14.90927 l -6.6e-4,-2.738437 0.89958,-0.899584 c 0.76598,-0.76598 1.08292,-0.899583 2.13406,-0.899583 2.43547,0 3.05177,0.983108 3.05177,4.868079 0,2.481747 -0.90797,13.572236 -1.22236,14.930662 -0.32573,1.407403 -0.82958,1.897092 -1.95194,1.897092 -0.87396,0 -1.10643,-0.119349 -1.41724,-0.727605 z"
       id="path1188" /></g></svg>
