<?xml version="1.0" encoding="UTF-8" standalone="no"?>
<!-- Created with Inkscape (http://www.inkscape.org/) -->

<svg
   width="98.591797mm"
   height="80.312943mm"
   viewBox="0 0 98.591794 80.312931"
   version="1.1"
   id="svg941"
   xml:space="preserve"
   inkscape:version="1.2.2 (732a01da63, 2022-12-09)"
   sodipodi:docname="web_page.svg"
   xmlns:inkscape="http://www.inkscape.org/namespaces/inkscape"
   xmlns:sodipodi="http://sodipodi.sourceforge.net/DTD/sodipodi-0.dtd"
   xmlns="http://www.w3.org/2000/svg"
   xmlns:svg="http://www.w3.org/2000/svg"><sodipodi:namedview
     id="namedview943"
     pagecolor="#505050"
     bordercolor="#eeeeee"
     borderopacity="1"
     inkscape:showpageshadow="0"
     inkscape:pageopacity="0"
     inkscape:pagecheckerboard="0"
     inkscape:deskcolor="#505050"
     inkscape:document-units="mm"
     showgrid="false"
     inkscape:zoom="0.73851712"
     inkscape:cx="85.983112"
     inkscape:cy="222.06662"
     inkscape:window-width="1920"
     inkscape:window-height="1009"
     inkscape:window-x="-8"
     inkscape:window-y="-8"
     inkscape:window-maximized="1"
     inkscape:current-layer="layer1" /><defs
     id="defs938" /><g
     inkscape:label="Layer 1"
     inkscape:groupmode="layer"
     id="layer1"
     transform="translate(171.17096,-44.837795)"><path
       style="fill:#000000;stroke-width:0.439734"
       d="m -104.81917,125.03457 c -6.50173,-1.25742 -13.17233,-5.12712 -17.07686,-9.90653 l -2.45977,-3.01092 h -21.0711 c -20.43359,0 -21.11497,-0.0271 -22.52094,-0.89605 -0.79742,-0.49283 -1.86388,-1.75133 -2.36992,-2.79668 -0.90868,-1.87707 -0.9186,-2.25516 -0.80073,-30.512945 0.11782,-28.249045 0.13102,-28.628083 1.03924,-29.853585 0.50594,-0.682694 1.57408,-1.686493 2.37363,-2.230664 l 1.45373,-0.989401 h 40.32548 40.325484 l 1.453735,0.989401 c 0.799551,0.544171 1.867687,1.547728 2.373632,2.230127 0.881755,1.189275 0.925205,1.827392 1.047772,15.388266 l 0.12787,14.147541 1.272855,1.321631 c 2.018841,2.096205 4.341569,6.300428 5.589011,10.116313 0.954435,2.91958 1.151167,4.340528 1.156747,8.354948 0.0058,4.179968 -0.164913,5.343408 -1.256716,8.564258 -3.848416,11.35295 -13.750934,18.79818 -25.484945,19.16091 -2.419375,0.0748 -4.893565,0.0403 -5.498205,-0.0766 z m 2.98359,-7.31084 -0.12532,-4.50728 -4.2874,-0.12586 c -4.91496,-0.14428 -5.00916,-0.0501 -3.0083,3.00798 1.83655,2.80695 3.12436,4.18538 4.87717,5.22036 2.60088,1.53575 2.68327,1.41931 2.54385,-3.5952 z m 5.87527,3.24189 c 1.920284,-1.21781 5.652369,-6.12468 5.652369,-7.43162 0,-0.43554 -1.007128,-0.5397 -4.287408,-0.44341 l -4.287408,0.12586 -0.125315,4.50728 c -0.143397,5.15747 -0.07967,5.22526 3.047762,3.24189 z m -14.81474,-2.091 c -0.63925,-0.93531 -1.64176,-2.64049 -2.22781,-3.7893 l -1.06554,-2.08874 h -2.60504 c -1.43278,0 -2.71529,0.17837 -2.85003,0.39638 -0.38061,0.61585 4.12883,4.50404 7.02778,6.05958 1.43373,0.76932 2.66891,1.33664 2.74485,1.2607 0.0759,-0.0759 -0.38496,-0.90332 -1.02421,-1.83862 z m 27.235624,-2.87109 c 1.356246,-1.2088 2.465902,-2.37988 2.465902,-2.60239 0,-0.2225 -1.28289,-0.40456 -2.850863,-0.40456 h -2.850866 l -1.16913,2.30861 c -0.643024,1.26973 -1.635759,2.92092 -2.206081,3.66931 -0.570317,0.74839 -1.036945,1.50204 -1.036945,1.67479 0,0.66606 5.301364,-2.55425 7.647983,-4.64576 z m -31.393624,-6.03114 c 0,-0.21219 -0.28714,-1.74576 -0.6381,-3.40794 -0.35095,-1.66218 -0.76095,-4.15996 -0.91111,-5.55062 l -0.27301,-2.528472 h -4.42678 -4.42677 l 0.23118,2.549432 c 0.12714,1.40218 0.86567,4.07357 1.64117,5.93641 l 1.41001,3.38698 h 3.6967 c 2.03319,0 3.69671,-0.17361 3.69671,-0.38579 z m 13.09485,-5.44069 -0.1227,-5.826475 -5.82647,-0.122699 -5.82648,-0.122695 v 2.229969 c 0,2.04284 1.11826,8.54777 1.60477,9.33495 0.11334,0.18339 2.47576,0.33343 5.24982,0.33343 h 5.04376 z m 13.226212,4.39734 c 0.620236,-1.99211 1.316415,-5.89276 1.471549,-8.24501 l 0.130504,-1.978805 -6.046344,-0.122343 -6.046345,-0.122343 v 5.948821 5.94882 h 5.022841 5.022842 z m 10.630041,0 c 1.137763,-1.84779 2.171833,-5.22175 2.493283,-8.13508 l 0.254725,-2.308602 h -4.427221 -4.427221 l -0.266479,2.528472 c -0.283312,2.68817 -0.955432,6.71788 -1.393535,8.35495 -0.258687,0.96663 -0.182507,0.9894 3.310846,0.9894 3.560369,0 3.579374,-0.006 4.455602,-1.42914 z m -48.823923,-1.83335 c 0,-0.10139 -0.32706,-1.43709 -0.72679,-2.9682 -0.93131,-3.56721 -0.92373,-9.801076 0.0167,-13.7274 1.40718,-5.875139 5.1573,-11.529265 10.16438,-15.325035 5.35235,-4.057507 9.95867,-5.594662 16.79819,-5.60565 4.866464,-0.0078 7.773309,0.558991 11.515552,2.245428 1.545036,0.69627 2.886819,1.265946 2.981736,1.265946 0.09492,0 0.117022,-2.424035 0.04911,-5.386743 l -0.123469,-5.386743 h -39.795939 -39.79593 l -0.11408,21.93666 c -0.0823,15.833005 0.0244,22.103527 0.38365,22.536377 0.40632,0.48959 4.00017,0.59971 19.57231,0.59971 10.49102,0 19.07459,-0.083 19.07459,-0.18435 z m -34.29927,-7.510997 c -0.43673,-0.526239 -0.43673,-0.792964 0,-1.319202 0.4398,-0.529924 1.78113,-0.659601 6.82268,-0.659601 5.38966,0 6.31399,0.100949 6.54976,0.715337 0.61919,1.613587 -0.47134,1.923063 -6.77642,1.923063 -4.84007,0 -6.15797,-0.13178 -6.59602,-0.659597 z m -0.35178,-10.421699 c -0.69542,-0.695422 -0.66603,-1.030094 0.16333,-1.859446 1.02212,-1.022123 14.74473,-1.022879 15.76673,-8.8e-4 0.52095,0.520945 0.57876,0.898258 0.23581,1.53907 -0.42195,0.788434 -0.99541,0.848937 -8.04626,0.848937 -5.31852,0 -7.74995,-0.158014 -8.11961,-0.527681 z m -0.0773,-10.23302 c -0.3018,-0.363653 -0.43262,-0.963768 -0.29071,-1.33359 0.22423,-0.584325 1.80031,-0.657061 12.03195,-0.555268 l 11.77393,0.117137 v 1.099335 1.099335 l -11.48322,0.117118 c -9.78181,0.09977 -11.56452,0.01915 -12.03195,-0.544067 z m -0.006,-10.560804 c -0.29853,-0.3597 -0.42791,-0.953342 -0.28751,-1.319202 0.22371,-0.582999 3.34854,-0.665201 25.28686,-0.665201 21.6258,0 25.06537,0.08801 25.27983,0.646875 0.13653,0.355782 -0.0543,0.949423 -0.4241,1.319203 -0.58707,0.587071 -3.75628,0.672326 -24.99232,0.672326 -20.98876,0 -24.39433,-0.08958 -24.86276,-0.654001 z m 44.85083,26.928115 c 0.005,-1.073694 1.26833,-8.926743 1.55699,-9.678987 0.26472,-0.689851 -0.0761,-0.764698 -3.48241,-0.764698 h -3.77585 l -0.8399,1.649003 c -1.15055,2.258932 -2.25611,6.12284 -2.25611,7.885092 v 1.459258 h 4.39734 c 3.22333,0 4.39803,-0.146752 4.39994,-0.549668 z m 14.94836,-4.947009 V 84.8536 h -5.24037 -5.24037 l -0.50698,2.308604 c -0.27884,1.269732 -0.62062,3.743237 -0.75951,5.496677 l -0.25253,3.188072 h 5.99988 5.99988 z m 14.675011,3.627807 c -0.105747,-1.027878 -0.507906,-3.501383 -0.893685,-5.496677 l -0.70142,-3.627806 h -5.220752 -5.220748 v 5.496676 5.496677 h 6.114433 6.114437 z m 11.709038,0.642056 c 0,-1.750608 -1.161395,-5.974378 -2.205513,-8.021014 L -78.452995,84.8536 h -3.775847 c -3.419597,0 -3.746948,0.0726 -3.469507,0.769535 0.300158,0.753994 0.833006,3.979703 1.34381,8.135081 l 0.256765,2.088737 h 4.370394 4.370399 z M -113.35083,80.358853 c 0.45997,-1.020989 1.46499,-2.900853 2.23337,-4.177475 0.76838,-1.276622 1.30467,-2.321131 1.19175,-2.321131 -0.60413,0 -4.16702,2.068151 -5.88681,3.417115 -2.05956,1.615476 -4.36507,4.037961 -4.38551,4.608033 -0.007,0.18139 1.34328,0.3298 2.99952,0.3298 h 3.01136 z m 11.51459,-3.344839 0.12466,-4.981315 -1.00413,0.311864 c -2.42688,0.753748 -5.39054,3.739575 -7.14149,7.194903 -0.59333,1.170884 -0.94905,2.258611 -0.7905,2.417166 0.15856,0.158554 2.17795,0.232126 4.48755,0.163488 l 4.19925,-0.124792 z m 11.655145,4.927759 c 0.150384,-0.150385 -0.212027,-1.231423 -0.80536,-2.402307 -1.746457,-3.446467 -4.714966,-6.44141 -7.126767,-7.19023 -0.984323,-0.305614 -0.989402,-0.282589 -0.989402,4.486228 0,2.63638 0.131921,4.925341 0.293158,5.086574 0.370375,0.370379 8.259684,0.388421 8.628371,0.01974 z m 9.530793,-0.05638 c -0.0281,-0.561193 -2.751487,-3.411075 -4.600697,-4.814379 -1.603855,-1.217113 -5.136587,-3.210769 -5.689434,-3.210769 -0.125289,0 0.559408,1.21796 1.521551,2.706579 0.962138,1.488619 1.749346,2.928692 1.749346,3.200163 0,0.27147 0.308042,0.933375 0.684534,1.470893 0.586944,0.837983 1.088474,0.977313 3.517873,0.977313 1.558338,0 2.825907,-0.14841 2.816827,-0.3298 z M -159.32162,55.899672 c 2.00531,-1.623803 0.78426,-5.345334 -1.75382,-5.345334 -1.86107,0 -3.10783,1.149783 -3.10783,2.866077 0,2.780496 2.75475,4.185317 4.86165,2.479257 z m 9.20984,-0.06852 c 1.2323,-1.232301 1.17978,-3.697392 -0.0978,-4.592274 -2.23393,-1.564706 -4.88581,-0.225252 -4.88581,2.467803 0,2.59325 3.16548,3.942652 4.98366,2.124471 z m 9.09614,-0.07665 c 2.01299,-1.891104 0.72219,-5.200158 -2.02848,-5.200158 -1.42372,0 -3.11005,1.712021 -3.11005,3.157429 0,1.147199 1.93864,2.998849 3.13974,2.998849 0.53957,0 1.43903,-0.430254 1.99879,-0.95612 z m 52.449503,-0.445999 c 1.118873,-1.200965 1.134488,-2.164028 0.0567,-3.496174 -0.832263,-1.028672 -0.931489,-1.039321 -10.905631,-1.170406 -9.698622,-0.127465 -10.109022,-0.09824 -11.252792,0.80145 -1.33773,1.052262 -1.51436,2.40559 -0.50252,3.850203 0.67492,0.963579 0.83224,0.977312 11.196093,0.977312 10.247164,0 10.534104,-0.02421 11.40815,-0.962385 z"
       id="path1207" /></g></svg>
