<?xml version="1.0" encoding="UTF-8" standalone="no"?>
<!-- Created with Inkscape (http://www.inkscape.org/) -->

<svg
   width="1282.8282mm"
   height="1282.8282mm"
   viewBox="0 0 1282.8282 1282.8282"
   version="1.1"
   id="svg241"
   xml:space="preserve"
   inkscape:version="1.2.2 (732a01da63, 2022-12-09)"
   sodipodi:docname="Ring Master.svg"
   xmlns:inkscape="http://www.inkscape.org/namespaces/inkscape"
   xmlns:sodipodi="http://sodipodi.sourceforge.net/DTD/sodipodi-0.dtd"
   xmlns="http://www.w3.org/2000/svg"
   xmlns:svg="http://www.w3.org/2000/svg"><sodipodi:namedview
     id="namedview243"
     pagecolor="#505050"
     bordercolor="#eeeeee"
     borderopacity="1"
     inkscape:showpageshadow="0"
     inkscape:pageopacity="0"
     inkscape:pagecheckerboard="0"
     inkscape:deskcolor="#505050"
     inkscape:document-units="mm"
     showgrid="false"
     inkscape:zoom="0.13055262"
     inkscape:cx="2600.4841"
     inkscape:cy="2703.8907"
     inkscape:window-width="1920"
     inkscape:window-height="1009"
     inkscape:window-x="-8"
     inkscape:window-y="-8"
     inkscape:window-maximized="1"
     inkscape:current-layer="layer1" /><defs
     id="defs238" /><g
     inkscape:label="Layer 1"
     inkscape:groupmode="layer"
     id="layer1"
     transform="translate(1565.7446,511.73495)"><path
       style="fill:#000000;stroke-width:0.256566"
       d="m -595.047,739.09567 c -0.49101,-0.49099 -0.4992,0.0105 0.26575,-16.23676 0.83689,-17.77477 1.38902,-23.10143 3.61029,-34.83033 2.75818,-14.56397 4.84175,-33.23464 5.75898,-51.60576 0.33848,-6.77977 0.33612,-24.84638 -0.004,-30.72181 -0.47857,-8.26619 -1.78454,-17.95862 -2.94101,-21.82702 -0.45322,-1.51599 -0.77491,-1.79945 -6.79976,-5.99139 -7.00122,-4.87129 -10.96798,-9.73588 -13.69157,-16.79061 -4.53886,-11.75656 -4.49852,-29.69775 0.10878,-48.39028 0.56244,-2.282 0.95265,-4.21902 0.86714,-4.30451 -0.27088,-0.2708 -23.62857,-0.0991 -28.84798,0.21208 -5.50416,0.32815 -10.81799,0.87009 -13.98283,1.42612 -6.23339,1.09513 -18.41282,1.36172 -24.88687,0.54477 -9.9655,-1.25756 -17.53177,-3.5481 -26.50444,-8.02366 -2.64352,-1.31862 -4.53356,-2.12079 -4.67157,-1.98279 -0.32489,0.32489 -0.95558,5.5978 -1.27008,10.61854 -0.34048,5.43557 -0.34133,22.12393 -0.003,29.24848 0.98457,20.64063 3.37807,38.90731 7.04303,53.7505 2.42234,9.81048 4.09874,14.73749 7.76935,22.83434 3.42982,7.56566 3.95496,8.88982 3.78855,9.55289 -0.18891,0.75264 -1.23877,1.01513 -2.01804,0.50451 -0.58589,-0.38387 -6.22572,-8.37212 -9.45552,-13.39275 -11.35519,-17.65136 -19.13539,-42.57437 -23.02638,-73.76262 -1.44452,-11.57845 -2.21021,-22.84704 -2.53654,-37.32976 l -0.17341,-7.69641 -1.28283,-0.70286 c -1.8807,-1.03044 -4.33193,-1.95159 -14.88081,-5.5921 -11.83955,-4.08597 -13.80721,-4.80127 -20.65353,-7.50824 -26.55704,-10.50044 -55.69502,-19.09472 -73.19456,-21.5888 -6.79196,-0.96802 -10.22599,-1.16896 -20.14518,-1.17876 -10.21654,-0.01 -18.95088,-0.31627 -21.85823,-0.76629 -8.08857,-1.25193 -12.59196,-4.66005 -14.10799,-10.67672 -0.41199,-1.63512 -0.50912,-2.89137 -0.51231,-6.62629 l -0.004,-4.60869 1.39579,-1.3199 c 0.7677,-0.72598 2.3552,-1.81464 3.52778,-2.41929 5.23555,-2.69969 7.69899,-4.37621 11.77156,-8.01126 5.74618,-5.12888 12.58326,-13.07259 65.53518,-76.1423 36.34688,-43.29186 58.36365,-68.58192 82.86603,-95.18585 2.40433,-2.61055 5.51896,-6.01646 6.9214,-7.56868 10.07002,-11.14552 22.94236,-23.25791 36.8291,-34.65476 4.88419,-4.00848 7.16726,-5.70079 10.28736,-7.62542 11.37797,-7.01858 25.48612,-11.07835 44.48699,-12.80162 4.70837,-0.42703 20.79654,-0.42133 26.29798,0.009 3.30769,0.25892 5.24636,0.57578 8.86634,1.4491 5.67075,1.36809 12.39392,3.56103 15.57202,5.07921 1.30503,0.6234 7.79911,4.62588 14.43133,8.89436 6.63223,4.26848 13.08534,8.27783 14.34025,8.90968 11.48475,5.78255 23.5379,17.02126 32.167,29.99339 5.32535,8.00565 8.66176,15.15213 11.5034,24.64003 2.69448,8.99658 6.85161,18.16523 11.32722,24.98246 3.4407,5.24084 5.06453,9.09418 5.71923,13.57179 0.61571,4.21083 -0.17169,8.60159 -1.96352,10.94901 -0.62641,0.8206 -0.86817,1.36606 -0.77324,1.74437 0.21287,0.84815 4.05864,6.60879 6.70186,10.03887 15.44512,20.04296 46.9895,48.12515 68.8608,61.30285 5.14768,3.10157 7.30969,5.34885 9.43746,9.80981 1.92355,4.03275 2.75398,9.60807 2.17858,14.62611 -0.43355,3.78088 -1.54827,5.76578 -5.95381,10.60163 -4.93253,5.4143 -9.01044,13.16956 -10.68358,20.31774 -0.75017,3.20502 -1.35992,4.06241 -3.41822,4.80647 l -1.15455,0.41739 -0.28637,3.58524 c -0.31681,3.96576 -0.55696,4.73046 -2.13314,6.79235 -1.40678,1.84027 -1.34767,2.27999 0.95914,7.13396 2.01538,4.24075 2.63552,5.94252 3.51939,9.65741 1.30238,5.47411 1.53034,7.91877 1.52038,16.3056 -0.0115,9.61271 -0.50766,14.50976 -2.79495,27.5808 -0.96712,5.52671 -2.25462,14.73931 -4.36459,31.2302 -4.09086,31.97308 -6.05928,43.75509 -9.785,58.56778 -3.84228,15.27622 -8.01152,26.74909 -14.07863,38.74141 -3.47901,6.87665 -4.88424,9.21681 -10.47642,17.44646 -5.85865,8.62176 -8.96741,12.3258 -10.19289,12.14461 -0.89093,-0.13169 -1.16851,-0.7739 -0.76041,-1.75914 0.19042,-0.45971 1.33098,-2.29177 2.53458,-4.07126 2.17858,-3.22087 4.43697,-7.86887 9.03427,-18.59324 10.82143,-25.2438 17.3747,-60.56301 19.50066,-105.09975 0.2931,-6.14038 0.1449,-34.79009 -0.2528,-48.87575 l -0.15938,-5.64445 -1.41111,-0.73288 c -10.38075,-5.39149 -15.68701,-11.86665 -20.00396,-24.41055 -1.78978,-5.20061 -4.47091,-14.54288 -5.28056,-18.39989 -0.90619,-4.31682 -1.14089,-10.44648 -0.51893,-13.55215 0.84187,-4.20373 4.43874,-12.08219 7.99179,-17.50499 1.9361,-2.95489 4.42761,-6.32927 5.5859,-7.56517 0.46777,-0.49912 0.68421,-0.91958 0.53871,-1.04651 -0.1338,-0.11668 -1.22461,-0.85895 -2.42406,-1.64948 -6.44226,-4.24598 -13.99714,-11.85836 -23.86886,-24.05049 -4.55535,-5.6261 -6.4095,-7.68484 -8.71497,-9.67653 -3.36604,-2.90794 -5.89188,-4.0756 -9.54527,-4.41272 -1.84635,-0.17036 -2.62577,-0.38539 -4.12663,-1.13838 -2.88482,-1.44734 -6.06996,-3.8813 -11.11222,-8.49153 -11.19437,-10.23523 -13.70612,-11.73526 -16.11252,-9.62242 -1.23491,1.08427 -1.5853,2.26371 -2.20688,7.42845 -1.17776,9.78618 -6.83486,44.22719 -8.99499,54.76245 -4.39065,21.41407 -8.17664,34.8111 -12.21044,43.20793 -1.31947,2.74659 -1.37617,2.94425 -0.99353,3.46364 3.98921,5.41482 5.19425,9.37742 4.92683,16.20132 -0.30441,7.76848 -2.80605,15.09584 -8.0763,23.65574 -3.29066,5.34467 -5.18157,9.38579 -7.33893,15.68419 -3.91914,11.44183 -6.07663,26.8391 -6.15355,43.91562 -0.0223,4.93458 0.0642,6.75469 0.40202,8.46667 2.34,11.85931 2.3925,12.53865 2.3889,30.91616 -0.003,15.46036 -0.138,19.36519 -1.16627,33.73838 -2.38444,33.32952 -7.47981,64.91054 -13.73396,85.12248 -1.58519,5.12297 -6.01659,16.90434 -6.58976,17.51956 -0.57273,0.61475 -1.29352,0.63682 -1.87298,0.0573 z m -0.11474,-182.65958 c 0.91702,-3.34995 3.13744,-5.76823 7.03904,-7.66623 1.29481,-0.62992 2.49102,-1.14528 2.65822,-1.14528 0.36651,0 0.4678,-0.4365 0.83343,-3.59192 2.36613,-20.41955 9.48944,-38.52356 22.49806,-57.17925 1.98415,-2.84546 2.96865,-5.02645 2.84421,-6.30086 -0.0637,-0.65224 -0.20263,-0.80398 -0.79884,-0.87233 -0.39696,-0.0455 -1.25456,0.0988 -1.9058,0.32071 -2.29213,0.78101 -4.17145,0.3449 -4.17145,-0.96802 0,-0.31455 0.96939,-1.50892 2.43738,-3.00308 3.43236,-3.49357 3.50312,-2.92703 -1.34061,-10.73314 -3.43523,-5.5362 -3.43747,-5.54354 -4.02436,-13.11453 -0.65255,-8.41838 -0.98585,-17.61457 -1.01826,-28.09394 -0.0336,-10.87397 0.11086,-12.79318 1.64159,-21.80808 2.37985,-14.01561 6.12427,-28.39956 11.78834,-45.28383 3.19178,-9.51453 4.1139,-12.69585 4.1139,-14.1928 0,-0.71495 -0.35426,-1.34926 -1.76725,-3.16433 -0.97197,-1.24858 -2.23209,-2.71688 -2.80026,-3.2629 -1.21017,-1.16299 -1.46522,-1.16011 -4.92542,0.0554 -3.12355,1.09723 -6.54617,1.59324 -12.69823,1.84032 -3.44721,0.13844 -5.89752,0.35903 -6.79881,0.61206 -2.61802,0.73498 -4.62947,1.95305 -6.8268,4.13409 -1.75262,1.73962 -2.28636,2.48402 -3.40526,4.74937 -2.73135,5.52991 -3.34836,10.03223 -2.89494,21.12371 0.47337,11.57958 1.01441,17.06041 2.26484,22.94326 0.61134,2.87615 0.63384,3.17956 0.25667,3.46363 -0.59395,0.44733 -2.07087,3.78984 -2.82225,6.38715 -1.32873,4.59309 -1.57031,6.25725 -1.57621,10.85753 -0.007,5.86268 0.25484,6.6138 3.31598,9.49293 1.20026,1.12889 2.30016,2.37754 2.44425,2.77478 0.68534,1.88943 -0.0601,3.61388 -2.78004,6.43161 -3.11656,3.22857 -4.50732,5.58143 -6.08359,10.29203 -2.80852,8.39316 -1.96952,16.94747 2.56679,26.17026 2.39481,4.8689 5.16477,8.79215 9.84542,13.94465 l 1.8755,2.06456 -0.98496,0.50251 c -1.27251,0.64919 -4.57433,4.14089 -5.67561,6.00204 -3.44009,5.81365 -5.54195,13.98773 -7.46704,29.03895 -0.88179,6.89438 -1.15198,8.41309 -1.70442,9.58083 -1.1344,2.39796 -1.4832,4.61797 -1.4803,9.42201 0.004,6.31334 1.08599,11.57257 3.19575,15.53089 0.8849,1.66027 3.22993,4.4224 3.63885,4.28611 0.14727,-0.0491 0.45892,-0.78747 0.69249,-1.64084 z m -13.89582,-56.78675 c 2.12516,-0.99044 4.19123,-2.95851 5.21613,-4.96875 1.37804,-2.70287 1.78901,-4.89127 1.94436,-10.35378 0.20104,-7.06839 -0.41284,-9.57126 -2.91926,-11.90213 -2.26624,-2.10756 -4.78659,-2.2642 -9.78369,-0.60801 -4.64679,1.54006 -6.5257,1.77987 -13.9103,1.77551 -9.85558,-0.006 -14.77551,-0.7921 -19.23752,-3.07448 -5.8996,-3.01773 -11.66812,-7.35876 -17.33837,-13.04783 -5.86961,-5.88907 -9.78798,-11.53937 -12.02934,-17.3463 -0.51741,-1.34055 -1.02298,-2.64683 -1.12345,-2.9028 -0.14681,-0.37403 -0.64688,0.13467 -2.54562,2.58946 -2.7894,3.60624 -6.9498,8.04277 -9.83878,10.49177 -1.13663,0.96353 -4.6826,3.7146 -7.8799,6.11349 l -5.81329,4.36162 0.0861,6.79899 c 0.0474,3.73944 0.17136,10.08944 0.27555,14.11111 0.21847,8.43234 0.30737,8.81208 2.53113,10.81142 1.63901,1.47361 2.66305,1.774 8.94482,2.62377 2.70559,0.36601 9.62725,1.4851 15.38147,2.48686 5.75423,1.00179 12.19965,2.09858 14.32319,2.43737 l 3.86095,0.61597 24.07094,-0.10725 24.07094,-0.10724 z m 164.42463,-18.02627 c -0.0836,-0.74084 -0.53022,-2.27061 -0.99252,-3.3995 -0.7442,-1.81725 -0.84118,-2.3319 -0.84605,-4.4899 -0.005,-2.0713 0.0887,-2.63003 0.62178,-3.7202 0.9379,-1.91808 3.14886,-3.99414 5.41395,-5.08362 l 1.92414,-0.92545 0.33381,-2.12678 c 0.44997,-2.86679 2.0847,-9.16065 3.31789,-12.77425 3.95047,-11.57603 9.51327,-21.23958 17.84711,-31.00357 3.68606,-4.31862 4.28842,-6.24417 2.79895,-8.94732 -6.15506,-11.17058 -6.37247,-11.4381 -11.52249,-14.17743 -11.80079,-6.2769 -21.28378,-13.12597 -32.91768,-23.7747 -10.91109,-9.98713 -22.52456,-22.70937 -35.21561,-38.57778 -1.79542,-2.2449 -4.94574,-5.66635 -7.94412,-8.62776 -5.25867,-5.19389 -6.23913,-6.50309 -6.53577,-8.72729 -0.14201,-1.06472 -0.39119,-1.4878 -1.71304,-2.90863 -3.48268,-3.74337 -8.11753,-10.76793 -10.57592,-16.02873 -0.6458,-1.382 -1.84427,-4.54771 -2.66323,-7.03491 -2.51077,-7.62526 -4.07896,-11.00227 -6.32942,-13.63025 -1.9988,-2.33408 -2.71806,-4.56459 -2.15454,-6.68148 0.9698,-3.643 3.95791,-4.27926 6.78534,-1.44478 2.78597,2.7929 5.13765,7.20952 8.22042,15.43838 2.25801,6.02737 3.19375,8.03381 4.3368,9.29904 2.09332,2.31705 3.70207,1.41937 4.55109,-2.53948 0.39193,-1.82752 -0.0614,-4.39272 -1.23885,-7.01069 -1.79262,-3.98559 -12.75762,-23.84056 -14.90816,-26.99509 -3.48885,-5.11756 -15.88351,-18.96336 -22.71811,-25.37783 -1.72592,-1.61985 -7.85984,-6.21245 -20.24249,-15.156 -9.77143,-7.05756 -18.1161,-13.01247 -18.54377,-13.23319 -1.1225,-0.57935 -4.96298,-1.65493 -8.00549,-2.24208 -14.9283,-2.88087 -29.25867,-1.41293 -41.28483,4.22902 -3.48003,1.63261 -7.61091,4.1607 -9.67968,5.9239 -3.71692,3.16794 -7.47861,8.21028 -12.80994,17.17109 -2.76893,4.65397 -3.73495,6.04199 -5.5051,7.91 -5.80423,6.12509 -8.52832,11.73349 -8.52832,17.55814 0,4.95536 1.80104,8.96913 5.9815,13.3301 l 1.03824,1.08307 -2.68701,2.63713 c -4.90515,4.81402 -8.07384,10.71139 -10.73517,19.97954 -1.46276,5.09408 -1.92147,7.62734 -6.30769,34.83453 -4.85853,30.13677 -5.59398,33.88822 -7.29868,37.22968 -0.81403,1.59566 -2.98794,3.79968 -4.49269,4.55496 -8.38968,4.21106 -13.56001,14.39344 -15.66857,30.85759 -0.44666,3.48749 -0.82386,20.6807 -0.509,23.20066 l 0.17485,1.39941 1.33039,0.42898 c 2.02959,0.65448 4.52069,2.12434 5.81237,3.42959 2.46752,2.49344 3.47267,5.58916 3.87732,11.94172 0.14353,2.25296 0.30691,4.14228 0.36309,4.19844 0.23794,0.23794 1.98816,-1.11295 3.40691,-2.62962 1.69796,-1.8151 3.66551,-5.41941 5.96372,-10.92474 1.76132,-4.21922 3.84735,-8.27627 5.10011,-9.91898 0.55534,-0.72821 1.1371,-1.56203 1.29279,-1.85294 0.8716,-1.62861 1.41026,-11.68331 0.76351,-14.25179 -0.25821,-1.02536 -0.3906,-1.15567 -1.78524,-1.75745 -2.69909,-1.1646 -3.19488,-2.94676 -1.66557,-5.98688 1.13007,-2.24649 3.04428,-4.60228 5.08308,-6.25571 2.3555,-1.91029 3.24915,-2.26461 6.21528,-2.46432 l 2.56565,-0.17272 1.02627,-1.0649 c 2.80033,-2.90573 7.87769,-11.09446 12.02228,-19.38946 2.81078,-5.62553 7.09186,-15.15294 7.09186,-15.78268 0,-0.1797 -0.66636,-0.4453 -1.55672,-0.62046 -2.04777,-0.40288 -3.5746,-1.68753 -3.5746,-3.00764 0,-2.05299 1.82644,-4.04686 8.30898,-9.07078 7.88134,-6.10795 9.5277,-8.06742 14.76389,-17.57197 1.16609,-2.11667 2.58613,-4.33026 3.15566,-4.91911 1.41044,-1.45834 3.74301,-2.48963 5.67143,-2.50747 1.33055,-0.0123 1.56585,0.0662 2.11667,0.70605 0.34085,0.3959 0.61973,0.97944 0.61973,1.29673 0,0.68765 -1.18618,2.60147 -2.16903,3.49956 -1.54783,1.41434 -1.89722,3.39747 -0.79314,4.50157 0.53722,0.5372 0.87065,0.62974 2.26893,0.62974 2.90759,0 4.4095,-0.67792 14.62527,-6.60151 3.78206,-2.19302 7.30342,-4.13976 7.82525,-4.32608 1.36337,-0.48681 4.9363,-0.45551 6.21066,0.0544 2.49626,0.99878 1.9322,3.37176 -1.17037,4.9239 -0.57191,0.28612 -2.33349,0.94586 -3.9146,1.46612 -2.43984,0.80277 -2.89812,1.03881 -3.02892,1.55997 -0.40578,1.6168 0.89688,3.18924 3.19571,3.85754 2.93616,0.85354 8.88102,-0.0438 13.51693,-2.04044 1.12555,-0.48476 3.27288,-1.41652 4.77186,-2.07059 4.38361,-1.91277 6.1048,-2.28176 10.78831,-2.31283 3.70565,-0.0246 4.07765,0.0156 4.74646,0.51184 1.77064,1.31395 0.78001,2.87944 -2.93039,4.63096 -1.48931,0.70304 -2.37323,1.26831 -2.37323,1.51764 0,0.22072 0.4846,0.61163 1.0904,0.87956 3.2855,1.45311 11.08854,0.56796 18.04144,-2.04655 5.44858,-2.04883 9.13612,-2.67367 12.21004,-2.06889 2.06604,0.40645 3.31077,1.04994 4.89191,2.52891 1.59915,1.49581 2.32169,2.73096 3.42174,5.84944 0.4817,1.36552 1.18459,3.01475 1.56194,3.66497 2.11226,3.63953 6.80936,8.89415 13.19471,14.76094 2.59942,2.38826 6.6312,6.26938 8.95953,8.62468 3.93669,3.98228 4.38614,4.35464 6.41414,5.31378 2.76362,1.30708 3.78714,1.54327 7.99685,1.84543 5.60565,0.40234 8.36329,1.61582 10.61124,4.66944 1.07045,1.45411 2.43029,4.87159 2.43029,6.10765 0,0.79592 2.20839,4.88681 3.91438,7.25111 3.12581,4.33203 5.75707,7.31856 11.73092,13.31488 6.28581,6.30944 10.06884,9.69087 15.27086,13.64973 4.08532,3.10901 6.28586,5.33487 6.28586,6.35816 0,1.58742 -1.19872,3.17284 -3.64061,4.81499 -3.06745,2.06284 -7.29917,7.65661 -10.21711,13.50577 -3.42929,6.87417 -4.54622,11.84012 -4.2846,19.04974 0.21439,5.9074 1.33797,10.08406 4.29663,15.97147 3.67263,7.3082 10.64157,15.5799 13.17603,15.63917 0.43408,0.0103 0.46895,-0.1298 0.33292,-1.33563 z m -114.8952,-42.46162 c 0.89293,-1.75478 2.10692,-5.52439 3.24307,-10.0702 1.16483,-4.66054 1.57028,-6.51723 4.37018,-20.01212 2.06985,-9.97632 3.40614,-15.4629 4.90359,-20.13319 1.33304,-4.15757 1.96804,-6.71976 2.51337,-10.14155 0.49876,-3.12949 1.68096,-13.12041 1.67909,-14.19024 -0.004,-2.18199 -1.31618,-4.37342 -2.53443,-4.23207 -0.52745,0.0612 -0.82063,0.3801 -1.36888,1.48897 -0.58649,1.18618 -0.84336,2.47448 -1.61139,8.08182 -2.09273,15.27854 -2.51388,18.14668 -3.22118,21.93636 -0.94462,5.06127 -2.41687,11.01337 -4.07703,16.48294 -2.17127,7.15335 -3.22532,12.04255 -3.9966,18.53827 -0.42172,3.55151 -0.82566,13.21313 -0.55244,13.21313 0.0897,0 0.38336,-0.43295 0.65265,-0.96212 z M -722.1657,426.26903 c 0.008,-2.61056 0.13097,-7.34419 0.2737,-10.51919 1.04209,-23.18268 4.95852,-38.95996 12.38183,-49.88021 1.853,-2.72588 6.05264,-7.06341 8.28984,-8.56198 1.96925,-1.31913 2.25355,-1.95883 2.10743,-4.74228 -0.0904,-1.72158 -0.24725,-2.35953 -0.8394,-3.41292 -0.57353,-1.02031 -0.69283,-1.483 -0.56157,-2.17788 0.0917,-0.48527 1.2057,-2.7873 2.4756,-5.11564 3.64952,-6.69128 3.64041,-6.64204 4.24329,-22.96262 1.04507,-28.2908 2.36841,-40.99845 5.62412,-54.00707 2.56622,-10.25362 5.59064,-17.31002 12.00466,-28.00852 6.64284,-11.0802 11.36303,-17.55864 22.07993,-30.30459 2.10995,-2.50942 3.78265,-4.6162 3.7171,-4.68176 -0.20053,-0.20053 -3.55905,1.03419 -5.57002,2.04778 -5.76615,2.90633 -13.82362,9.03581 -19.28857,14.67325 -1.8033,1.8602 -2.56805,2.92492 -4.2124,5.86475 -2.59455,4.63853 -4.34515,7.27041 -6.29735,9.46743 -4.25627,4.79005 -12.92345,20.3583 -18.04093,32.40565 -10.09068,23.75503 -16.58451,50.6576 -19.7741,81.91985 -2.02223,19.82051 -2.46665,45.20491 -1.16117,66.32221 0.70984,11.48265 1.23814,16.86576 1.73644,17.69367 0.0818,0.13595 0.29471,-0.095 0.47305,-0.51313 0.22026,-0.51642 0.32887,-2.28305 0.33852,-5.5068 z m 114.05235,-71.07828 c 2.96349,-0.42243 4.10385,-0.91199 5.25249,-2.25488 1.26997,-1.48477 3.74527,-6.25589 5.00385,-9.64489 1.688,-4.54534 2.98309,-10.41184 2.29852,-10.41184 -0.37425,0 -1.41591,0.72875 -3.04189,2.12811 -1.99039,1.71296 -3.4473,2.47609 -4.74316,2.48442 -0.78817,0.005 -1.21933,-0.34615 -4.36161,-3.5534 -3.76857,-3.84649 -5.19369,-4.78449 -7.7245,-5.08421 -1.15255,-0.13652 -1.41301,-0.0577 -3.02299,0.91509 -0.96897,0.58548 -2.83687,1.41296 -4.15087,1.83888 -3.14011,1.0178 -5.40825,2.30466 -7.41729,4.20824 -2.09334,1.98349 -2.84741,3.51842 -2.84254,5.7861 0.007,3.06437 1.78537,6.16109 5.69119,9.90802 2.64165,2.53418 3.83443,3.05437 8.66789,3.78032 1.40429,0.2109 8.70261,0.1407 10.39091,-0.1 z m -622.29995,333.42963 c -4.2852,-0.77706 -7.1965,-1.64151 -9.9306,-2.94866 -4.1336,-1.9763 -6.4869,-3.89174 -9.9474,-8.09665 -1.1613,-1.41111 -3.1616,-3.56464 -4.4451,-4.78566 -3.5951,-3.41995 -5.6068,-4.65446 -13.4631,-8.26216 -9.6516,-4.43212 -15.6225,-13.40409 -18.2567,-27.43308 -1.107,-5.89531 -1.5809,-10.89098 -2.3177,-24.4302 -0.9483,-17.42609 -0.9976,-27.49319 -0.2241,-45.73873 0.1648,-3.88933 0.1615,-3.92348 -0.4504,-4.582 -0.339,-0.36494 -2.5791,-2.13735 -4.978,-3.9387 -2.3989,-1.80137 -5.8626,-4.52392 -7.697,-6.05012 -4.5172,-3.75818 -15.211,-14.5033 -19.134,-19.2258 -14.5534,-17.51923 -23.9084,-35.24494 -29.8646,-56.58737 -0.2405,-0.86186 -1.3184,-2.89137 -2.7252,-5.13132 -3.6714,-5.84556 -4.7442,-8.25528 -5.3849,-12.0956 -0.3814,-2.28621 -0.098,-4.8337 0.8146,-7.31869 0.9522,-2.59345 1.0087,-2.36998 -1.3628,-5.39001 -2.9485,-3.75481 -3.5194,-4.67106 -4.2857,-6.87824 -0.6334,-1.82416 -0.8415,-2.09219 -5.2706,-6.78901 -12.9754,-13.75959 -29.1658,-28.12232 -54.5492,-48.39141 -6.6851,-5.33824 -11.3652,-9.27069 -12.5326,-10.53066 -2.5378,-2.73912 -5.1738,-6.78527 -6.203,-9.52169 -0.7757,-2.06215 -0.8432,-2.48156 -0.8559,-5.31751 -0.016,-3.57434 0.2818,-4.61997 2.1062,-7.39447 0.8314,-1.26446 2.0614,-2.52815 4.4327,-4.5543 5.1615,-4.41016 6.421,-6.39885 8.8254,-13.93416 0.8052,-2.52337 2.3229,-6.612 3.3727,-9.08583 2.7981,-6.59382 2.692,-6.00733 2.9326,-16.21608 0.3398,-14.42089 2.0889,-29.14321 6.0505,-50.92828 9.4363,-51.88994 24.742,-101.12773 39.3404,-126.55562 2.1627,-3.76705 8.8058,-13.90588 9.9992,-15.26104 1.2242,-1.39004 2.5966,-1.22664 2.5854,0.30788 0,0.35983 -0.9389,2.61697 -2.0806,5.01586 -3.1574,6.63404 -3.69,7.95428 -6.0042,14.88081 -8.7786,26.27535 -18.9282,72.51266 -26.2729,119.68787 -1.4345,9.21376 -3.0963,21.08153 -3.095,22.10192 0,0.82704 0.094,0.90799 2.3733,2.06931 11.5237,5.87155 20.5298,23.03028 22.0193,41.95199 0.6521,8.28294 -0.8554,16.34388 -3.9655,21.20582 -0.497,0.77701 -1.6785,2.2565 -2.6255,3.28779 -6.7639,7.3662 -8.2034,12.69243 -4.4968,16.63807 1.4195,1.51105 3.4927,2.78159 6.3075,3.86552 2.587,0.99622 3.7483,1.84984 6.827,5.01825 4.0018,4.11836 7.5391,8.79101 9.2551,12.22563 2.1391,4.28134 7.848,10.191 13.2404,13.70594 4.1732,2.72019 9.3294,4.75832 13.4535,5.31782 1.6203,0.2198 3.4808,1.46706 7.9171,5.30777 2.0125,1.74229 4.7103,4.07794 5.995,5.19035 3.3033,2.8603 5.8903,4.74072 7.1179,5.17383 1.3882,0.48981 5.5124,0.47819 7.6321,-0.0216 11.7581,-2.77166 19.4176,-19.6926 21.8301,-48.22539 0.7875,-9.31395 1.0022,-22.44213 0.5117,-31.28964 -0.6588,-11.88376 -3.8767,-30.69613 -6.1021,-35.67399 -1.7341,-3.87889 -0.427,-7.74089 7.9021,-23.34747 4.308,-8.07225 8.7818,-17.12548 10.5577,-21.36453 l 1.3681,-3.26578 -0.023,-3.33535 c -0.017,-2.3876 -0.2494,-4.75696 -0.8189,-8.33838 -1.55,-9.74709 -1.6101,-10.50603 -1.8408,-23.21919 -0.1203,-6.63223 -0.3675,-15.75313 -0.5493,-20.26869 -0.4497,-11.16848 -0.4647,-54.60669 -0.022,-63.62828 1.4185,-28.90286 3.6856,-47.648624 7.7655,-64.209551 1.963,-7.967826 5.4041,-17.991178 7.0271,-20.468089 0.7019,-1.07129 2.1972,-0.703143 2.1972,0.540943 0,0.305596 -0.2834,1.812277 -0.6298,3.348182 -1.3192,5.849414 -2.433,16.556899 -3.373,32.425894 -0.5484,9.258582 -0.7724,37.431101 -0.3795,47.721211 0.7298,19.10924 2.1424,34.23737 4.54,48.61919 0.9972,5.98208 2.1512,11.49214 2.5291,12.0767 0.189,0.29217 2.1447,2.40933 4.3462,4.70477 6.1313,6.39308 9.5076,10.54744 12.1606,14.96309 9.0481,15.05924 10.1083,31.09475 3.3757,51.05959 -2.0307,6.0221 -3.9669,10.33279 -9.4718,21.08808 -0.7795,1.52299 -0.9234,2.07974 -0.9992,3.86749 -0.084,1.97397 -0.01,2.32297 1.3616,6.3716 2.5016,7.38891 3.9083,14.98785 4.1631,22.48988 0.3824,11.26236 -1.9948,19.5892 -7.1484,25.03827 -1.0565,1.11719 -1.3609,1.63973 -1.5208,2.61104 -0.3156,1.91675 -0.2454,9.48605 0.1695,18.27594 0.2098,4.445 0.4533,15.66464 0.5412,24.93256 l 0.1597,16.85075 0.5399,0.13372 c 0.297,0.0735 3.0799,0.43588 6.1844,0.80518 13.1006,1.55853 19.0668,3.65621 23.0734,8.11253 1.6946,1.8848 2.5857,3.95129 3.3592,7.79051 1.064,5.28063 2.051,6.47251 3.8955,4.70403 2.4631,-2.36154 5.8349,-8.48329 11.4848,-20.85158 6.362,-13.92697 12.2011,-21.22829 22.2002,-27.75925 1.3173,-0.86036 1.1525,-0.16045 1.9252,-8.17603 0.5455,-5.65765 1.4596,-11.05115 2.7395,-16.16363 3.8189,-15.2537 11.7803,-27.74257 22.4504,-35.21771 1.155,-0.80916 2.1648,-1.62373 2.244,-1.8102 0.3823,-0.90045 1.8249,-25.83226 2.4966,-43.14885 0.4053,-10.45108 0.4063,-38.53316 0,-46.82323 -0.6368,-13.04501 -1.4713,-23.52623 -2.7473,-34.50808 -1.4066,-12.1051 -3.9791,-28.33439 -5.1092,-32.23242 -0.9318,-3.21433 -0.8247,-4.45647 0.3845,-4.45647 0.7537,0 1.224,0.8412 3.5938,6.42805 8.633,20.35291 12.535,33.70577 15.1038,51.68561 2.7253,19.07581 3.4466,36.0438 2.8683,67.47522 -0.527,28.64184 -1.1264,39.75911 -3.1054,57.59899 -1.0987,9.90395 -1.5322,15.91228 -1.5365,21.29495 0,3.79183 -0.6182,15.48225 -1.0396,19.75555 -1.1368,11.5286 -3.8868,19.98126 -8.4723,26.04141 -0.961,1.27 -3.383,4.21409 -5.3823,6.54243 -1.9992,2.32833 -4.4762,5.38788 -5.5042,6.79899 -3.5793,4.91295 -6.5033,10.95481 -7.7603,16.03535 -1.1249,4.54634 -0.8863,10.23261 0.5093,12.13981 0.3544,0.48432 5.3182,1.61116 29.4432,6.68395 45.8704,9.6452 72.9473,13.87391 101.6,15.86725 6.4331,0.44753 35.44859,0.44073 41.43532,-0.01 18.18172,-1.36803 29.78845,-4.80799 37.74755,-11.18742 4.66759,-3.74121 7.35912,-7.99138 8.95819,-14.1459 0.78997,-3.0404 1.32904,-4.11731 2.66531,-5.32456 0.88749,-0.80181 1.22513,-0.94462 2.23315,-0.94462 1.05512,0 1.30907,0.12159 2.27733,1.09041 2.19163,2.19291 3.05615,7.47042 3.05754,18.66515 0,7.5781 -0.21577,10.28517 -1.40231,17.51514 -1.26787,7.7255 -2.53259,12.76424 -5.45615,21.73801 -1.53355,4.70719 -1.55736,4.75652 -2.97891,6.176 -1.12481,1.12314 -1.84686,1.58619 -3.35726,2.153 -14.00174,5.25438 -29.16608,15.19756 -45.07936,29.55831 -5.2724,4.75798 -20.2113,19.89746 -28.8192,29.20599 -4.5671,4.93889 -9.6377,10.37016 -11.2678,12.06947 -1.6302,1.69933 -4.2259,4.70115 -5.7682,6.6707 -23.8608,30.46982 -49.2985,55.87092 -70.3352,70.2341 -5.663,3.86652 -17.123,10.48238 -24.8973,14.37322 -10.3043,5.157 -17.3027,7.35943 -23.392,7.36154 -2.7013,0 -2.867,0.0367 -9.548,2.0635 -19.7324,5.98606 -33.5013,8.33364 -50.4151,8.59567 -7.0561,0.10932 -7.6194,0.0828 -10.9041,-0.5128 z m 22.1929,-11.54935 c 8.0945,-0.91936 15.8163,-2.60733 25.2717,-5.5243 8.0628,-2.48733 11.5563,-3.18103 17.3203,-3.43913 6.0588,-0.27135 8.7688,-1.388 12.3484,-5.08821 2.0159,-2.08373 2.491,-2.76026 3.7451,-5.33259 2.9927,-6.13846 4.6736,-13.64098 5.7185,-25.52384 0.2233,-2.54 0.5732,-11.25682 0.7774,-19.37071 0.2043,-8.11389 0.4901,-15.42755 0.6353,-16.25261 0.1451,-0.82504 0.4781,-1.92186 0.74,-2.43738 0.2618,-0.51549 0.7982,-1.91864 1.192,-3.11809 0.5812,-1.77064 0.7195,-2.66497 0.7351,-4.75503 0.021,-2.80275 0.1939,-2.27715 -2.3608,-7.17527 l -0.8029,-1.5394 -0.7895,-22.57777 c -1.0002,-28.60132 -1.1785,-32.33941 -1.8076,-37.88815 -1.6809,-14.82693 -5.7374,-27.19429 -11.6271,-35.44796 -2.6866,-3.76495 -7.0836,-7.71695 -10.5106,-9.44687 -1.8501,-0.93393 -1.6968,-1.04551 -3.404,2.47793 -1.7286,3.5676 -3.1863,9.30746 -3.1863,12.54634 0,1.97959 0.8616,4.70783 2.5512,8.07849 0.8339,1.66341 1.6997,3.70696 1.924,4.54121 0.527,1.9598 0.5147,1.56148 1.5887,51.41881 1.1767,54.63011 1.1118,60.08998 -0.8305,69.78585 -1.374,6.85869 -3.1605,10.73543 -6.5163,14.1401 -3.1857,3.23219 -5.7957,4.37532 -11.9677,5.24172 -1.5093,0.21187 -5.4664,0.96584 -8.7937,1.6755 -23.8716,5.09152 -29.8694,6.03719 -40.0446,6.31395 -15.646,0.42554 -26.5633,-3.07915 -34.2723,-11.00202 -1.8243,-1.87496 -2.5738,-2.88131 -3.4966,-4.69551 -2.0119,-3.95494 -3.4009,-9.1714 -4.0307,-15.13738 -0.149,-1.41111 -0.6739,-13.01429 -1.1664,-25.78484 -1.1074,-28.71421 -0.9433,-26.03069 -1.6376,-26.76973 -0.643,-0.68451 -2.109,-1.19785 -3.404,-1.192 -1.6725,0.007 -1.6105,-0.53399 -1.153,10.06404 0.238,5.51314 0.543,9.98764 0.7147,10.48597 0.1648,0.47811 0.6792,1.56307 1.1432,2.41105 2.0011,3.65767 2.1013,4.62272 2.4101,23.20895 0.3054,18.37967 0.7138,23.43265 2.4374,30.15434 1.5091,5.88521 3.2658,9.35592 6.1991,12.24719 1.5838,1.56107 2.618,2.20059 10.7063,6.62065 9.2643,5.06278 15.261,8.6702 19.9043,11.97392 5.2899,3.76374 10.9601,5.75071 18.4882,6.47871 3.1457,0.30421 11.0129,0.11546 15.2512,-0.36593 z m -30.8142,-109.81048 c 4.1105,-1.10495 12.1546,-4.475 16.9597,-7.10515 4.0453,-2.21432 6.0738,-3.83943 11.3087,-9.06005 7.5737,-7.55289 12.5318,-14.02678 22.7004,-29.64047 4.7656,-7.31748 7.3522,-11.52503 7.5115,-12.21889 0.252,-1.09738 0.075,-2.40535 -0.3246,-2.40535 -0.1262,0 -1.0018,0.92592 -1.9457,2.05763 -1.8579,2.22745 -2.293,2.56055 -3.3445,2.56055 -0.8502,0 -2.6806,-1.73992 -2.6806,-2.54821 0,-0.94665 0.7204,-2.01137 1.9186,-2.83577 1.2768,-0.87843 2.443,-2.63639 2.443,-3.68251 0,-0.37564 -0.066,-0.683 -0.1462,-0.683 -0.2036,0 -2.0422,1.31172 -3.574,2.54967 -1.6693,1.34915 -2.9878,1.43864 -4.0996,0.27822 -1.3546,-1.41393 -1.1469,-4.77045 0.4046,-6.5375 0.4252,-0.48434 1.8924,-1.68299 3.2604,-2.66366 3.5777,-2.56484 3.801,-2.8525 4.0139,-5.17219 0.257,-2.80005 1.2978,-8.64223 2.1712,-12.18686 1.2064,-4.8961 2.6485,-9.33971 6.3363,-19.52314 1.8955,-5.2344 3.6124,-10.3144 3.8153,-11.28888 1.4569,-6.99742 1.7433,-16.56971 0.6807,-22.74906 -0.5055,-2.93942 -0.5547,-3.6574 -0.2941,-4.28668 0.217,-0.5238 1.1913,-1.34458 3.1728,-2.67305 13.2039,-8.85193 20.6334,-22.77508 22.2458,-41.68966 0.3148,-3.69295 0.2023,-16.71682 -0.1547,-17.9081 -0.1239,-0.41341 -0.4448,-0.60426 -1.2328,-0.73293 -1.7829,-0.29115 -3.4365,-1.14464 -4.5425,-2.34458 -1.7209,-1.86692 -2.115,-3.31036 -2.5372,-9.29329 -0.1433,-2.03139 -0.3174,-3.7502 -0.3868,-3.8196 -0.069,-0.0694 -0.946,0.54462 -1.9481,1.36447 -5.7788,4.72774 -9.6978,11.34479 -11.7875,19.90241 -1.0046,4.11403 -1.4931,8.60411 -1.7042,15.66357 l -0.1739,5.81336 -0.9228,0.36592 c -0.5075,0.20125 -1.8465,1.09818 -2.9753,1.9932 -2.6914,2.13384 -12.5664,11.8889 -14.6115,14.43405 -2.9212,3.63564 -5.1395,8.56422 -7.3153,16.25367 -1.0247,3.62124 -1.6746,5.34326 -3.0868,8.17893 -0.9838,1.97555 -2.3472,4.34237 -3.0297,5.25959 -1.9448,2.6134 -24.5364,27.59233 -25.6232,28.33088 -1.3273,0.90188 -2.6843,0.8959 -3.4008,-0.0149 -0.7764,-0.98704 -0.6735,-1.52287 0.7575,-3.94275 1.8406,-3.11258 1.9397,-3.81323 0.6245,-4.41249 -0.5131,-0.23381 -0.9996,-0.23368 -2.1161,0 -1.9072,0.40003 -3.8878,1.36577 -10.83,5.28055 -3.175,1.79042 -6.3985,3.43832 -7.1634,3.66199 -1.7245,0.50426 -4.6443,0.36361 -5.9214,-0.28525 -3.1656,-1.60831 -2.6681,-3.94631 1.1711,-5.504 2.2975,-0.9322 5.4996,-2.56709 5.4996,-2.80796 0,-0.34551 -11.1304,-0.56885 -14.4761,-0.29048 -5.5148,0.45882 -9.328,1.71832 -12.6281,4.17099 -2.2287,1.65646 -2.9644,1.98271 -4.4708,1.98271 -1.1979,0 -1.4218,-0.096 -2.3218,-0.99609 -0.8805,-0.88048 -0.9961,-1.13905 -0.9961,-2.22807 0,-1.61369 0.7465,-3.11514 2.4795,-4.98696 1.6073,-1.73616 1.7859,-1.56865 -2.3512,-2.20593 -1.9899,-0.30652 -4.4113,-0.43365 -8.2101,-0.43108 -6.3141,0.004 -9.3185,0.44011 -14.6046,2.11867 -4.1423,1.31533 -5.8682,1.51655 -6.9814,0.81398 -1.4054,-0.887 -2.1585,-2.22553 -3.6622,-6.50902 -1.6818,-4.79078 -3.1621,-8.01619 -5.2727,-11.48863 -5.3727,-8.83933 -14.3155,-18.24166 -20.0226,-21.05136 l -2.0525,-1.01049 -9.3646,-0.1986 c -11.9466,-0.25336 -11.3773,0.003 -11.8135,-5.30668 -0.3678,-4.47758 -1.5072,-8.23419 -3.8433,-12.67165 -4.4143,-8.38513 -12.9612,-16.09418 -23.5142,-21.20938 -4.7849,-2.31928 -7.0709,-3.80292 -8.8947,-5.77288 -4.5812,-4.9482 -1.8655,-10.19261 8.0936,-15.63006 1.087,-0.59349 2.3206,-1.47109 2.7412,-1.95026 2.5244,-2.87504 4.4498,-8.3791 5.2905,-15.12328 0.4376,-3.51118 0.5001,-10.71436 0.1224,-14.11878 -1.0989,-9.90518 -4.1973,-17.71907 -8.761,-22.09503 -1.2793,-1.22671 -3.2075,-2.66356 -3.5744,-2.66356 -0.089,0 -0.2234,1.93386 -0.299,4.29748 -0.1479,4.62382 -0.4171,5.84672 -1.6404,7.45046 -0.8313,1.08991 -3.2964,2.70733 -4.977,3.26554 -0.695,0.23083 -1.3213,0.513 -1.3917,0.62702 -0.071,0.11402 -0.4677,1.51951 -0.8827,3.1233 -1.1753,4.54178 -2.2241,7.26589 -4.1354,10.74125 -2.7705,5.03772 -5.004,9.89663 -5.8967,12.82828 -3.3329,10.94599 -4.396,12.95567 -10.5606,19.96337 -3.8202,4.34261 -4.5674,5.56786 -4.5674,7.48915 0,2.91495 2.21,5.33824 9.8323,10.78118 34.7905,24.84317 74.4335,67.5252 87.04,93.71237 1.7655,3.66747 1.8742,5.94529 0.322,6.74795 -0.9537,0.49317 -1.7377,0.37557 -3.867,-0.58001 -1.8484,-0.82951 -2.1964,-0.6943 -2.8174,1.09458 -0.5503,1.58527 -0.5659,3.02283 -0.064,5.90981 0.6208,3.57247 2.2366,8.03554 4.7264,13.05432 5.4074,10.89988 13.0786,20.92031 25.6496,33.50478 8.6991,8.7084 15.1995,14.43222 25.4406,22.40156 l 4.388,3.41456 2.3477,0.16099 c 3.8749,0.26576 4.468,0.57825 6.1579,3.24451 0.7593,1.19806 1.9554,1.83036 6.0676,3.20761 2.4245,0.812 4.7723,1.86336 7.8253,3.50417 6.5654,3.52852 8.6288,4.4117 12.2159,5.22868 2.0391,0.46441 6.8858,0.32835 9.0527,-0.25413 z m 10.9304,-129.34472 c 0.9172,-0.43817 2.3315,-1.34708 3.1429,-2.01982 1.3698,-1.13571 1.4753,-1.3006 1.4753,-2.30611 0,-2.4257 -1.888,-6.3335 -4.3002,-8.90057 -6.3766,-6.78596 -17.4143,-8.44866 -22.4714,-3.38505 -1.2501,1.25171 -1.8763,2.34873 -3.3463,5.86273 -0.6494,1.55222 -1.8097,3.80359 -2.5785,5.00303 l -1.3977,2.18081 1.5889,0.0581 c 5.2023,0.19032 9.2212,0.97797 18.0092,3.52962 2.7286,0.79225 3.3707,0.8871 5.6444,0.83389 2.2718,-0.0532 2.7568,-0.1513 4.2334,-0.85667 z m -52.4677,-3.9504 c 8.117,-1.71078 15.8328,-5.55936 20.7916,-10.37071 l 2.1357,-2.07215 0.1733,-2.20942 c 0.095,-1.21517 0.1162,-7.10335 0.046,-13.08485 -0.1475,-12.62829 -0.3908,-15.02582 -2.0146,-19.84997 -1.1985,-3.56085 -1.1958,-4.25817 0.027,-7.04465 1.1377,-2.59224 1.5486,-4.62264 1.721,-8.50346 0.1448,-3.26097 0.1122,-3.62268 -0.5095,-5.64444 -1.0561,-3.43467 -1.4937,-6.23029 -1.6456,-10.51391 -0.2319,-6.53616 0.3683,-8.71933 3.1304,-11.38789 1.9838,-1.91668 3.335,-4.52859 4.3255,-8.36135 3.4176,-13.2256 -0.6005,-30.47056 -9.1242,-39.15869 l -1.5509,-1.58085 1.1196,-0.5712 c 2.7304,-1.39292 6.9169,-6.73885 8.8219,-11.26497 0.3403,-0.80852 1.1477,-3.9993 1.7941,-7.09063 2.7068,-12.94399 3.5823,-16.90334 4.7601,-21.52765 0.6829,-2.68111 1.3922,-5.91384 1.5763,-7.18384 0.4532,-3.12784 0.4463,-13.16328 -0.011,-16.16364 -0.9683,-6.35048 -3.2963,-11.15796 -6.5416,-13.50884 -0.5547,-0.40181 -1.0788,-0.73055 -1.1648,-0.73055 -0.086,0 -0.1603,1.35659 -0.1653,3.01465 -0.019,6.42281 -2.1556,10.47573 -6.657,12.6279 -1.6373,0.78281 -4.8434,1.54735 -6.4888,1.54735 -0.5469,0 -1.0597,0.0654 -1.1396,0.14532 -0.08,0.0799 0.123,0.83014 0.4511,1.66721 1.7788,4.53911 2.4159,11.15199 1.5532,16.12238 -1.4827,8.54282 -5.0295,16.10848 -16.5374,35.27696 -6.487,10.80521 -7.2136,12.98206 -4.3335,12.98206 1.3043,0 2.5593,0.54941 3.0839,1.35003 0.659,1.00576 0.9135,3.10341 1.7351,14.30048 1.4987,20.4247 1.7918,26.56719 1.7877,37.45858 -0.01,17.58463 -1.5146,30.93004 -4.8836,43.21715 -2.8085,10.24292 -6.1889,17.53721 -12.1809,26.28435 -2.1208,3.0959 -2.7651,4.77289 -2.6355,6.86013 0.076,1.22985 0.2528,1.77623 0.8096,2.50621 0.8411,1.10267 3.064,2.28754 5.0403,2.6866 0.7761,0.15671 1.6421,0.33836 1.9243,0.40363 1.2914,0.29867 8.3249,-0.11078 10.7757,-0.62733 z m 365.39356,84.85935 c -13.58823,-59.80158 -20.69833,-97.68206 -24.93315,-132.83656 -0.63744,-5.29166 -1.32999,-10.55008 -1.53896,-11.68538 -1.13561,-6.16945 -12.79249,-37.83887 -19.5041,-52.98871 -2.72757,-6.15685 -3.62373,-7.89306 -8.1537,-15.79672 -9.8423,-17.17235 -27.94893,-51.25247 -48.03015,-90.4019 -7.4466,-14.51738 -7.873,-15.16829 -14.0946,-21.51401 -7.1829,-7.32628 -12.4074,-11.52664 -43.7581,-35.1802 -34.7789,-26.2401 -35.5872,-26.88777 -37.8979,-30.36347 -1.7501,-2.63246 -2.423,-4.659 -2.5753,-7.75577 -0.1631,-3.31567 0.4544,-5.93177 2.2379,-9.48048 1.9234,-3.82719 3.794,-6.22416 15.5175,-19.883842 14.1829,-16.52529 26.3408,-28.352478 38.8269,-37.770746 l 3.4181,-2.578331 -0.078,-5.300005 -0.078,-5.30003 -1.8427,-3.709786 c -2.9228,-5.884307 -7.1707,-11.926889 -14.8955,-21.188345 -4.9166,-5.8947748 -11.6175,-13.6672513 -12.2812,-14.24539628 -0.5248,-0.45702037 -63.1065,-12.48202072 -145.2463,-27.90885072 -14.4213,-2.708513 -22.1954,-4.277052 -22.8343,-4.60715 -4.4411,-2.294723 -7.3548,-11.288015 -7.3662,-22.735795 -0.01,-5.453636 0.3764,-7.40256 1.7261,-8.809309 0.901,-0.939159 6.9185,-5.553133 12.0129,-9.210938 26.5367,-19.05377 57.7124,-35.490216 92.8474,-48.950906 16.3787,-6.2749 36.2701,-12.70531 55.9574,-18.08967 6.5109,-1.78069 28.4853,-7.38103 31.7239,-8.08508 0.7205,-0.15663 0.7188,0.13113 0.064,-10.50662 -0.5732,-9.31443 -0.6361,-13.4015 -0.2287,-14.86877 0.4383,-1.57878 1.6417,-2.60481 3.4789,-2.96626 0.8527,-0.16777 1.6932,-0.39331 1.8679,-0.50125 0.6956,-0.4299 -6.2513,-42.37636 -11.0489,-66.71522 -7.2183,-36.61935 -13.2079,-60.23397 -29.2297,-115.24123 -8.3811,-28.77442 -11.5411,-39.96379 -17.5585,-62.17391 l -1.1817,-4.36162 0.5415,-0.44006 c 0.7693,-0.62527 11.774,-7.19749 15.9164,-9.50566 42.5965,-23.73489 89.347,-38.14014 140.45387,-43.27813 58.10845,-5.84188 122.06742,1.07723 183.701,19.87286 19.04833,5.80893 39.5686,13.66825 52.11556,19.96039 3.65678,1.83384 7.79252,4.20411 7.79252,4.46605 0,0.09 -1.14275,3.05851 -2.53944,6.59664 -22.79863,57.75431 -36.84873,125.01576 -40.6813,194.75214 -0.44417,8.08143 -0.82076,19.48162 -1.05541,31.9476 l -0.16672,8.8567 2.38568,0.45099 c 3.17992,0.60116 5.07936,1.48562 6.53696,3.04392 1.41029,1.50771 2.04282,2.85383 2.39165,5.08967 0.14311,0.91723 0.32799,6.28386 0.41086,11.92587 0.0829,5.64201 0.23674,10.34426 0.34195,10.44948 0.10522,0.10522 4.40211,0.93803 9.54869,1.85074 45.29258,8.03225 83.71303,17.70829 115.74273,29.14932 12.87968,4.60063 22.16199,8.34533 39.85707,16.07925 5.64444,2.46701 11.32906,4.94812 12.63252,5.51359 3.56367,1.54602 4.37162,2.75662 5.3596,8.03074 0.67043,3.57909 0.6925,13.417125 0.0367,16.359009 -0.58043,2.603731 -0.86155,3.100391 -2.8015,4.949793 -5.47295,5.217468 -15.23068,12.234461 -24.97679,17.961314 -4.59971,2.702816 -15.63152,8.301207 -21.16666,10.741633 -26.94645,11.880478 -58.57122,21.021552 -110.19495,31.851624 -2.64108,0.554079 -3.48685,0.838559 -4.06318,1.366648 -0.40032,0.366812 -5.58682,7.8828513 -11.52557,16.70229516 l -10.79774,16.03535284 -1.51676,3.848484 c -5.26011,13.346494 -6.98267,22.289987 -5.0458,26.197969 0.74486,1.50291 -0.0674,0.99255 14.86118,9.337347 18.09685,10.115793 24.33332,13.98837 27.94867,17.354844 4.09304,3.811309 6.91659,8.429439 7.98763,13.064271 0.76741,3.321037 0.6167,8.523291 -0.35406,12.221325 -2.24726,8.560771 -9.35254,19.449441 -19.5266,29.924201 -4.64499,4.78228 -8.29297,7.80683 -21.70009,17.99172 -15.27461,11.60351 -21.75238,17.09596 -30.54722,25.90073 -6.67055,6.6781 -9.2469,9.737 -13.20074,15.67324 -4.48333,6.7312 -7.71102,12.89016 -12.0621,23.01645 -2.34796,5.46439 -4.21799,9.08933 -17.17858,33.29971 -10.85909,20.28479 -12.48969,23.35158 -16.23327,30.53131 -16.88889,32.39087 -28.11577,58.71166 -43.17235,101.21514 -1.52461,4.30389 -3.24763,9.14467 -3.82891,10.75729 -5.96571,16.55017 -11.5123,46.16496 -16.05303,85.71139 -1.2946,11.27504 -4.61315,30.83691 -7.19099,42.38868 -0.91202,4.08696 -2.63414,9.95102 -2.92216,9.95041 -0.0797,-1.8e-4 -0.70242,-2.45359 -1.38373,-5.45202 z m -13.6712,-143.88104 c 0.72551,-0.86221 1.44025,-2.963 1.44025,-4.23323 0,-0.61748 -0.85754,-2.12498 -3.51271,-6.17515 -4.59812,-7.01391 -4.78567,-7.46996 -4.89407,-11.90067 -0.0971,-3.96881 0.16982,-4.85479 1.73608,-5.76262 1.25535,-0.72764 3.61288,-0.68331 9.74949,0.18327 10.61309,1.49873 19.63646,2.13868 26.64965,1.89004 l 4.71327,-0.1671 -0.16875,0.58125 c -0.93659,3.22582 -2.24063,8.82452 -2.58551,11.10041 -0.51211,3.37956 -0.84023,11.67374 -0.46182,11.67374 0.14055,0 0.92638,-1.76068 1.74629,-3.91263 2.40925,-6.32344 5.04218,-12.55288 7.50947,-17.76717 1.26862,-2.68111 4.90402,-10.93611 8.07864,-18.34444 29.15591,-68.03877 51.09102,-111.67658 71.38264,-142.00908 7.837,-11.71497 11.07014,-15.66174 21.40961,-26.13509 10.79199,-10.93175 16.92047,-16.30677 39.20656,-34.38636 7.63152,-6.19106 11.76395,-9.85507 15.84216,-14.04646 4.19097,-4.30727 6.31269,-7.09824 8.50928,-11.19334 4.99736,-9.316564 5.82607,-16.485701 2.42719,-20.997459 -1.63094,-2.164952 -12.92042,-10.482477 -23.3799,-17.225125 -29.55098,-19.049844 -52.8126,-28.057556 -63.7402,-24.682358 -1.19998,0.370635 -4.13517,2.128699 -11.58748,6.940485 -5.48922,3.544249 -10.64098,6.777695 -11.44834,7.185403 -1.6238,0.820035 -2.61371,0.918787 -3.8851,0.387568 -1.35212,-0.564957 -1.95908,-1.541728 -1.95908,-3.15273 0,-1.787339 0.4514,-2.828277 1.69256,-3.903184 2.30696,-1.997928 23.46955,-17.029544 25.11855,-17.841523 2.55793,-1.259507 4.73389,-1.78249 7.4404,-1.788212 3.73521,-0.008 5.72111,0.654936 13.34142,4.453313 7.97098,3.973175 9.91333,4.623031 14.36767,4.807039 3.62561,0.149758 4.48921,-0.06873 4.49129,-1.136303 0.004,-2.047368 1.56674,-11.042406 3.24383,-18.671513 1.61885,-7.364101 3.135,-9.9204186 20.99918,-35.406059 13.75182,-19.618804 18.56458,-26.935364 22.95218,-34.892927 4.17086,-7.564478 5.26694,-9.345942 13.18078,-21.423231 6.21425,-9.483538 10.40579,-16.419431 13.33418,-22.064645 2.56912,-4.952619 4.90397,-9.985149 4.71863,-10.170489 -0.23969,-0.23971 -9.66209,5.06509 -15.69987,8.839016 -29.893,18.684675 -56.74801,44.834718 -69.60931,67.781974 -0.9886,1.763889 -2.14358,3.613265 -2.56658,4.10972 -0.46682,0.547844 -2.06117,1.606691 -4.05638,2.693939 -2.7628,1.505502 -3.66235,2.159693 -5.63811,4.100381 -2.0849,2.047855 -2.49859,2.613865 -3.65673,5.00303 -1.42116,2.9317754 -2.40101,6.2683859 -2.90078,9.8777769 -0.33202,2.39799079 -0.43785,10.3537321 -0.21554,16.2042751 0.11923,3.137901 0.0903,3.427409 -0.4105,4.10505 -0.80647,1.091302 -2.21796,1.127786 -3.64472,0.09424 -1.46271,-1.05959 -3.49279,-3.866034 -4.27334,-5.907603 -1.31359,-3.4357735 -1.53531,-4.9110003 -1.54249,-10.262626 -0.007,-5.5446914 0.46358,-8.6279433 1.93371,-12.657255 1.46157,-4.005862 3.02236,-6.2054 6.61718,-9.325135 1.9742,-1.71332 14.0733,-12.679987 16.67913,-15.118053 l 1.39964,-1.309537 0.1933,-2.707974 c 0.23399,-3.278421 0.66143,-4.349454 2.71097,-6.792857 2.76973,-3.301974 5.27853,-8.398163 7.6405,-15.520348 6.89164,-20.78074 8.95427,-46.601404 5.1191,-64.081964 -1.08537,-4.94705 -2.21503,-6.81031 -4.96996,-8.1973 -1.83105,-0.92189 -5.50315,-2.11993 -9.36464,-3.05534 -3.78342,-0.91648 -13.31386,-2.66992 -13.89539,-2.55652 -0.69473,0.13547 -1.652,3.32796 -1.81279,6.04566 l -0.14027,2.37082 2.62359,2.72391 c 12.27531,12.74466 16.80805,28.60219 13.58934,47.541459 -3.04682,17.927652 -13.01037,37.760972 -28.94476,57.617125 -4.27706,5.32969 -5.03736,5.92092 -6.22832,4.843139 -0.80872,-0.73188 -0.7905,-0.799023 3.12007,-11.505687 6.79579,-18.605986 9.93405,-28.87931 11.28594,-36.945452 0.6564,-3.916372 0.65111,-4.250984 -0.1348,-8.51372 -2.84156,-15.412847 -12.26366,-26.051244 -24.73829,-27.931764 -3.11737,-0.46995 -4.84075,-0.46562 -9.19264,0.0231 -9.8729,1.1087 -17.01569,4.391046 -23.14279,10.634879 -6.78695,6.916291 -11.28948,16.283785 -15.37226,31.982036 -2.40248,9.237492 -4.30619,15.239897 -7.84069,24.721639 -3.26934,8.770414 -8.00844,19.17764 -10.30796,22.636607 -2.48677,3.7405985 -5.89314,6.7077288 -9.11293,7.9378328 -2.9051,1.1098773 -6.96373,0.8800714 -10.17537,-0.5761438 -3.07091,-1.3924074 -6.78229,-4.556529 -8.62877,-7.356378 -0.39549,-0.599723 -0.75055,-1.090404 -0.78899,-1.090404 -0.0385,0 -0.64772,0.779318 -1.35394,1.731818 -2.80067,3.7773644 -6.63523,6.8057112 -9.9145,7.8299982 -5.15481,1.6101034 -10.02802,0.024374 -15.10289,-4.9143092 -4.76216,-4.634422 -8.65616,-11.646952 -11.21238,-20.191947 -1.82728,-6.108289 -4.92403,-13.536301 -9.61738,-23.068689 -14.69285,-29.841817 -29.89829,-46.911359 -42.54606,-47.761979 -1.651,-0.11104 -2.7718,-0.003 -5.3024,0.51611 -5.435,1.112647 -9.566,2.762005 -12.9749,5.180418 -2.223,1.577058 -5.178,4.831388 -6.5081,7.167393 -1.2915,2.268142 -2.6123,6.008202 -3.1278,8.856645 -0.5156,2.849393 -0.4446,10.230863 0.1321,13.726262 2.1335,12.931601 8.6434,26.509157 17.2219,35.91919 2.4574,2.695632 2.9495,3.543248 2.9495,5.080641 0,2.227118 -1.7919,3.775466 -4.3576,3.765229 -2.5648,-0.01026 -4.3331,-1.231259 -10.3521,-7.148458 -8.4787,-8.335381 -14.8464,-17.627958 -19.3596,-28.251956 -4.8464,-11.408627 -7.1953,-25.321412 -5.8261,-34.508079 0.8361,-5.609859 1.9529,-7.999716 7.0856,-15.163985 2.3658,-3.3022 3.5879,-5.75956 3.7493,-7.53879 0.2763,-3.04787 -0.7321,-6.04364 -2.799,-8.31483 -0.9021,-0.99122 -1.3132,-1.24563 -2.2017,-1.36244 -4.2512,-0.55893 -8.1243,5.30134 -9.7,14.67701 -0.5911,3.51688 -0.7178,8.98278 -0.3987,17.189904 0.7821,20.109461 2.9049,30.548681 8.4185,41.398636 4.0193,7.909457 12.0321,18.184142 23.0384,29.541764 7.9043,8.156478 11.9086,15.108637 13.3468,23.1719819 0.3522,1.9748114 0.4209,3.3870257 0.3184,6.5424239 -0.119,3.6624492 -0.2268,4.3914292 -1.1991,8.1139142 -1.2375,4.737382 -1.5959,5.594696 -2.6856,6.423762 -1.004,0.763873 -1.9614,1.006994 -3.114,0.790761 -1.7772,-0.333407 -3.6938,-2.742661 -3.7074,-4.660335 0,-0.437958 0.4479,-2.169776 1.0022,-3.848485 1.2905,-3.908367 1.67,-6.5575354 1.4814,-10.3430075 -0.5024,-10.0833632 -6.8346,-19.2984055 -18.5879,-27.0503315 -1.7996,-1.186898 -7.8902,-5.073585 -13.5346,-8.637077 -20.0088,-12.632086 -20.8231,-13.244406 -25.229,-18.971797 -4.7536,-6.179461 -6.9737,-8.174643 -14.9317,-13.418589 -6.6052,-4.352559 -9.2708,-5.934902 -13.4615,-7.991147 -6.3737,-3.12733 -11.8412,-4.786976 -17.4365,-5.292769 -1.7907,-0.161868 -3.3129,-0.237247 -3.3826,-0.167486 -0.3975,0.397522 1.8263,3.748167 7.6815,11.573727 7.0153,9.375909 13.0036,18.847774 18.6499,29.498994 1.9191,3.620218 3.2786,5.343723 12.4665,15.804853 15.9101,18.11499705 23.3102,27.1345878 30.3113,36.945453 6.9324,9.714498 11.3769,17.588883 13.5926,24.081866 0.5122,1.501089 0.9634,2.770576 1.0027,2.821093 0.039,0.05052 0.7674,-0.330995 1.6182,-0.847795 10.899,-6.620779 24.6471,-7.753157 38.8923,-3.203402 6.23455,1.991232 15.41277,6.482234 17.04356,8.33959 1.91074,2.176215 0.41532,4.633909 -3.44558,5.662737 -2.6249,0.699449 -4.27579,0.35483 -6.45447,-1.347406 -1.92784,-1.506246 -6.53341,-3.755557 -9.32431,-4.553861 -13.8537,-3.962784 -32.9443,1.911209 -54.4568,16.755866 -2.6481,1.827389 -4.1928,3.219104 -9.8242,8.851515 -16.8027,16.805742 -31.4228,35.439687 -34.2476,43.650077 -0.5944,1.72761 -0.6595,4.19662 -0.1374,5.20633 0.4361,0.84333 8.6821,8.70337 13.1932,12.57579 6.7475,5.79213 13.9766,10.95405 21.0748,15.04843 6.7062,3.86824 9.1445,5.35793 12.9193,7.89308 21.164,14.21356 40.5718,36.5096 57.1035,65.60143 3.36205,5.91645 8.66082,15.81994 15.92373,29.76161 12.40369,23.80978 18.86389,35.5982 25.60602,46.72538 1.40065,2.31158 2.80437,4.70959 3.11938,5.32886 1.52798,3.00377 4.52954,11.43608 10.92372,30.68818 7.52969,22.67086 9.16091,27.38441 11.30413,32.66401 2.31542,5.70374 3.56192,6.97161 5.08018,5.16726 z m 0.60754,-50.28276 c -3.31229,-0.25166 -5.60265,-0.70107 -6.56944,-1.28904 -3.57429,-2.17365 -8.53063,-18.77709 -18.64496,-62.45947 -6.42065,-27.72999 -8.50048,-35.69048 -11.93179,-45.66868 -6.22882,-18.1133 -16.80443,-39.16154 -28.07844,-55.88338 -1.98012,-2.93699 -4.63932,-6.92912 -5.90932,-8.87145 -3.20185,-4.89686 -5.46535,-8.08331 -7.62055,-10.72793 -9.9067,-12.15639 -20.617,-19.31573 -32.7885,-21.91761 -2.2733,-0.48596 -3.5153,-0.57835 -7.9536,-0.5918 -5.4879,-0.0167 -7.0347,0.15556 -11.5919,1.29002 -1.3662,0.34007 -2.6243,0.61832 -2.7959,0.61832 -0.4445,0 -0.1548,-3.29002 0.7759,-8.81118 2.65,-15.720909 7.8221,-28.982864 15.4364,-39.581052 4.0649,-5.657709 10.9814,-9.879419 19.1951,-11.716301 2.0566,-0.459894 3.2701,-0.548486 7.4592,-0.544458 4.4228,0.0044 5.3756,0.08372 8.2156,0.685184 12.45185,2.637059 25.37596,10.650553 35.8626,22.236313 6.62473,7.319074 14.54293,18.723904 20.31817,29.264824 4.2533,7.76311 6.12122,10.46865 9.95634,14.42092 5.00457,5.15745 9.83149,8.28191 16.59982,10.74504 l 2.30909,0.84033 7.05556,0.11143 c 10.23928,0.16169 14.10716,-0.31707 19.43467,-2.40564 9.84811,-3.86077 18.96343,-10.27183 28.70174,-20.18674 5.15173,-5.24515 7.2714,-7.74949 12.66015,-14.957646 4.74852,-6.35177 8.23966,-10.569683 12.02097,-14.523411 11.25521,-11.768332 22.82762,-18.871275 34.93455,-21.442191 2.86763,-0.608959 3.76351,-0.682105 8.34387,-0.681464 4.35346,0 5.53969,0.08836 7.82525,0.578812 10.3681,2.224835 18.72652,7.423265 26.66556,16.584403 8.25205,9.522305 13.71356,19.217536 16.21577,28.786127 1.0464,4.00158 1.7585,9.13045 1.75991,12.67586 v 2.97711 l -11.48131,0.15943 c -14.46935,0.20089 -16.47585,0.43013 -23.15505,2.64537 -6.60728,2.1914 -14.18926,6.27457 -20.65353,11.12266 -6.29843,4.72373 -7.86056,6.49721 -14.10247,16.01062 -8.27939,12.61877 -19.78251,32.26679 -25.02495,42.74414 -3.2415,6.47838 -11.16294,25.76196 -16.86334,41.0514 -3.1792,8.52714 -8.11812,23.40566 -9.92193,29.8899 -0.78509,2.82222 -2.18014,8.42176 -3.10011,12.44343 -4.94435,21.6146 -6.73156,27.54481 -9.93591,32.96869 -3.06989,5.19627 -7.45885,9.17355 -11.02858,9.99413 -5.17729,1.19007 -24.51031,2.02933 -32.59582,1.41498 z m 43.07694,-87.86516 c 2.1279,-2.22081 4.56289,-8.21813 5.20184,-12.81194 0.51531,-3.70509 0.1769,-15.25583 -0.48391,-16.51605 -0.11504,-0.21939 -0.51644,0.22464 -1.15965,1.28282 -2.29667,3.77852 -4.07519,5.3386 -6.08607,5.3386 -0.69139,0 -1.57041,-0.16205 -1.95339,-0.36007 -1.03935,-0.53748 -3.16627,-2.90399 -4.12868,-4.59378 -1.16781,-2.0504 -3.5071,-4.53908 -4.26661,-4.53908 -0.86747,0 -1.56707,1.06097 -2.02384,3.06919 -0.22049,0.96943 -0.52452,2.08975 -0.67559,2.48964 -0.38533,1.01982 -1.51838,2.13814 -2.16631,2.13814 -0.56101,0 -1.49788,-0.87425 -2.26827,-2.11667 -1.05387,-1.69959 -2.73386,-0.007 -3.49335,3.52039 -0.42225,1.96103 -1.55784,3.21446 -2.91217,3.21446 -0.75741,0 -1.08617,-0.20723 -2.0768,-1.30903 -0.64729,-0.71994 -1.77271,-2.29541 -2.50095,-3.50101 -1.59309,-2.63747 -4.21881,-5.49146 -5.98349,-6.50366 -0.96951,-0.55611 -1.62486,-0.74068 -2.63645,-0.74248 -1.1959,-0.003 -1.46578,0.10504 -2.41684,0.95971 -0.72278,0.64955 -1.40024,1.67066 -2.08524,3.14293 -1.44436,3.10445 -2.05117,3.84849 -3.13862,3.84849 -1.28904,0 -1.70924,-0.8058 -1.92791,-3.69714 -0.19461,-2.5732 -0.51983,-3.4867 -1.24129,-3.4867 -0.72282,0 -1.16373,0.72688 -1.78975,2.9505 -0.6917,2.45685 -2.76655,6.72592 -5.0087,10.30543 -0.89862,1.43466 -1.76397,2.98165 -1.92299,3.4378 -0.70671,2.02727 -0.085,5.4142 1.40981,7.68001 0.94698,1.4354 1.85599,2.43165 2.04567,2.24194 0.0965,-0.0965 -0.0292,-1.4468 -0.27919,-3.00076 -0.60042,-3.73185 -0.45282,-6.214 0.46235,-7.77564 1.1019,-1.88021 3.26375,-2.5257 4.97155,-1.48438 1.4242,0.8684 1.49162,1.18254 1.49162,6.9498 0,4.65104 0.0544,5.3526 0.46408,5.97916 0.40083,0.61306 0.60719,0.69916 1.51376,0.63166 0.80287,-0.0598 1.17633,-0.24884 1.58843,-0.80415 0.50217,-0.67664 0.53878,-1.05149 0.53878,-5.51616 0,-4.5798 0.0264,-4.83267 0.60203,-5.75849 0.73258,-1.17828 1.72161,-1.72561 3.11817,-1.72561 1.27113,0 2.28408,0.48927 3.15445,1.52367 1.47623,1.75439 1.55387,4.08781 0.22121,6.64843 -0.68569,1.31752 -0.81,1.8346 -0.81,3.36925 0,3.05649 1.48487,6.16168 2.94643,6.16168 1.33786,0 3.60677,-3.642 4.63529,-7.4404 0.6644,-2.45377 1.73705,-4.70052 2.54908,-5.33926 1.13464,-0.89249 2.46678,-0.76398 3.42795,0.33073 0.852,0.97039 0.97408,1.46792 1.16586,4.75196 0.15638,2.67795 0.74189,4.33042 2.07051,5.84346 2.37606,2.70592 5.68578,2.76629 8.0995,0.14771 1.03054,-1.11801 1.43651,-1.88471 2.92708,-5.52789 1.50029,-3.66707 3.35434,-5.59549 5.3779,-5.59364 3.27295,0.003 4.47896,3.48603 2.3829,6.88191 -1.08404,1.75629 -1.6121,3.50558 -1.36067,4.50742 0.28604,1.13966 1.27215,1.95113 2.3711,1.95113 0.79523,0 1.13728,-0.19168 2.05938,-1.15403 z m 0.87368,-39.3192 c 2.04185,-2.21044 3.88394,-5.03069 5.8234,-8.91566 3.43611,-6.88296 5.31814,-13.3676 5.97246,-20.57841 0.56765,-6.25571 2.03146,-10.89837 4.41973,-14.01785 2.42437,-3.16661 2.4989,-3.29345 2.49641,-4.24723 -0.005,-1.99388 -2.27327,-4.73236 -5.04092,-6.08646 -2.90564,-1.42158 -4.60069,-0.90968 -5.6561,1.70811 -0.55569,1.37832 -0.56267,1.55115 -0.41943,10.38144 0.1368,8.43447 0.11314,9.13559 -0.38962,11.54525 -1.45794,6.98762 -6.29779,11.95752 -9.23652,9.48475 -1.16011,-0.97616 -1.40749,-2.06287 -1.2487,-5.48492 0.15468,-3.33343 0.44445,-4.34727 2.82969,-9.90063 1.71624,-3.99583 2.59803,-7.04319 2.39681,-8.28317 -0.31209,-1.92312 -1.73549,-2.4733 -4.10513,-1.58671 -1.25543,0.46972 -1.66203,0.79335 -2.60345,2.07215 -0.6136,0.83351 -1.8318,2.92898 -2.70713,4.65662 -1.98184,3.91155 -2.09131,4.03909 -3.46738,4.03909 -0.90439,0 -1.20606,-0.1356 -1.75619,-0.78938 -1.08261,-1.2866 -0.9193,-2.30699 0.63164,-3.94688 l 1.29583,-1.37016 -2.77108,-0.218 c -1.52413,-0.1199 -5.25339,-0.20597 -8.28728,-0.19127 -7.90635,0.0383 -13.32515,0.84666 -19.09459,2.84849 -4.28721,1.48754 -5.63167,2.30976 -8.48139,5.18683 -2.65689,2.68237 -3.43749,3.08895 -3.9809,2.07357 -0.15068,-0.28153 -0.62012,-2.30286 -1.0432,-4.49182 -1.31097,-6.78286 -2.97747,-10.68766 -5.8941,-13.81078 -2.32508,-2.48966 -3.60024,-3.12192 -6.29648,-3.12192 -1.87599,0 -2.16208,0.0683 -3.01704,0.72041 -1.62878,1.24235 -2.0967,2.46601 -2.07915,5.43717 0.0182,3.07189 0.33038,4.08057 3.08543,9.96783 2.20074,4.70272 2.56386,5.83166 2.92849,9.10469 0.14678,1.31767 0.428,2.70313 0.62492,3.07879 0.19691,0.37567 1.17479,1.41086 2.17306,2.30042 0.99827,0.88959 2.13375,2.15959 2.52327,2.82222 0.69437,1.18121 0.71115,1.30795 0.85565,6.46443 0.12517,4.46619 0.2326,5.51906 0.71225,6.97966 1.17024,3.56378 2.59849,4.18508 4.67303,2.0328 2.00932,-2.08465 2.80126,-4.88306 2.80462,-9.91044 0.003,-2.17165 0.1053,-3.02858 0.45048,-3.71745 1.27357,-2.5416 4.14451,-1.15009 6.61116,3.20432 1.70785,3.0149 2.43358,5.53874 2.6935,9.36724 0.26132,3.84902 0.49535,4.61559 1.40922,4.61559 1.00055,0 1.77553,-0.63723 3.57016,-2.9355 0.9622,-1.23226 2.24767,-2.51965 3.10644,-3.11109 1.25505,-0.86439 1.66065,-1.00897 2.83061,-1.00897 1.2072,0 1.47072,0.10183 2.27107,0.87759 0.55765,0.54045 1.08782,1.42745 1.38017,2.30909 0.32735,0.98706 0.67023,1.52695 1.10436,1.7389 1.64959,0.80535 12.67227,1.03352 15.1803,0.31424 0.48265,-0.13845 1.65962,-1.07378 2.88485,-2.29265 l 2.06959,-2.05883 0.56993,2.33695 c 0.31347,1.28534 0.96523,3.1925 1.44834,4.23816 1.16419,2.5197 1.56128,2.53764 3.74891,0.16938 z m 20.39784,-10.26263 c 9.74501,-20.32669 14.00625,-34.9742 15.13794,-52.03484 0.14781,-2.22827 0.11199,-2.64109 -0.26157,-3.01465 -0.55577,-0.55577 -1.22792,-0.55005 -1.89289,0.0162 -0.43472,0.37018 -0.62138,1.13662 -1.06321,4.36596 -1.51897,11.10254 -3.76323,20.37108 -9.36413,38.67293 -2.37698,7.76717 -4.23808,14.27203 -4.23918,14.81667 0,0.54127 0.36414,-0.0712 1.68304,-2.82223 z m -90.09043,-3.40919 c -0.51306,-3.95314 -1.86044,-9.90772 -3.54179,-15.6525 -0.76218,-2.60412 -2.50218,-8.53309 -3.8667,-13.17552 -1.36452,-4.6424 -2.98894,-10.41513 -3.60983,-12.82828 -1.16406,-4.52436 -2.59064,-11.88233 -2.35037,-12.12263 0.0748,-0.0748 1.5015,0.89285 3.17049,2.15028 1.66898,1.25743 3.96632,2.93696 5.10524,3.73229 2.98327,2.08326 6.26764,3.55751 6.26764,2.81334 0,-0.10658 -4.20924,-4.40182 -9.35387,-9.54501 l -9.35389,-9.35123 -0.51826,1.14246 c -0.94019,2.07254 -0.69419,7.03606 0.62876,12.68792 0.9144,3.90644 10.01289,32.07529 14.41943,44.64242 2.64103,7.53207 3.09972,8.73231 3.27154,8.56049 0.0623,-0.0623 -0.0585,-1.43659 -0.26839,-3.05403 z m 106.22264,-56.75966 c 0.58461,-0.89223 1.07555,-2.4465 1.81717,-5.75327 0.69248,-3.08749 1.16243,-8.54605 0.73578,-8.54605 -0.12843,0 -2.3105,2.0907 -4.84904,4.64602 l -4.61551,4.64602 2.24495,-0.16952 2.24495,-0.16948 v 0.64431 c 0,0.35437 -0.12903,1.51179 -0.28671,2.57202 -0.37066,2.49215 -0.27599,2.71143 1.17073,2.71143 0.91887,0 1.23501,-0.11953 1.53768,-0.58148 z m -68.23079,5.09922 c -3.97558,-1.25001 -5.6593,-3.78365 -15.2283,-22.91539 -5.71892,-11.434053 -9.35133,-19.31598 -12.98227,-28.170009 -2.84118,-6.928222 -4.74739,-8.891796 -12.91531,-13.303981 -9.07755,-4.903559 -11.00972,-10.337876 -6.11357,-17.194747 1.62088,-2.269964 3.49783,-3.91337 5.61681,-4.917876 5.78466,-2.742276 14.9411,-2.680366 20.64017,0.139546 3.80828,1.884321 8.12076,6.598946 9.57359,10.466288 1.41067,3.755172 1.55166,7.381932 0.51867,13.343004 -0.74335,4.2897 -1.80091,5.819293 -3.69475,5.34398 -1.4106,-0.354035 -1.56482,-1.008893 -1.7271,-7.333262 -0.13939,-5.432495 -0.19126,-5.909091 -0.85272,-7.834437 -1.38312,-4.025874 -4.22938,-7.624566 -7.17881,-9.076574 -4.44441,-2.187966 -11.09433,-2.480117 -13.94449,-0.612602 -1.65272,1.082913 -4.16078,5.374307 -4.16181,7.121057 0,2.026894 1.74881,4.036008 4.81074,5.52296 0.94598,0.459406 2.38557,1.160344 3.19909,1.557636 5.25223,2.565066 9.16994,6.853791 12.4449,13.62343 1.59568,3.298459 2.47267,5.541587 5.44696,13.932335 4.22143,11.908882 6.18916,16.650062 9.1576,22.064642 1.65151,3.01249 5.49073,8.8995 6.5836,10.09517 0.78119,0.8547 2.30568,1.57857 3.3245,1.57857 1.81051,0 2.39599,-0.72041 5.31709,-6.54242 4.14074,-8.25287 8.51367,-18.8544 13.44025,-32.58384 3.32242,-9.258967 4.2312,-11.616831 5.29059,-13.726262 2.52519,-5.028225 4.55496,-6.349589 10.85403,-7.066023 7.17637,-0.816187 9.9169,-2.407766 9.9169,-5.759232 0,-2.072255 -1.10336,-4.165625 -3.43154,-6.510507 -2.08464,-2.099579 -3.71104,-3.241527 -5.7778,-4.056764 -1.21274,-0.478341 -1.94079,-0.567267 -4.6452,-0.567267 -2.75834,0 -3.42246,0.08436 -4.74647,0.602852 -2.06491,0.808618 -3.1273,1.507272 -4.40754,2.898422 -2.00516,2.178935 -2.85354,4.533746 -3.94669,10.954763 -0.41939,2.463492 -0.96261,4.887447 -1.20717,5.386544 -0.83199,1.697978 -2.77204,1.703519 -3.76646,0.01078 -0.44383,-0.755534 -0.54079,-1.433483 -0.61632,-4.309661 -0.20759,-7.903813 1.72632,-16.018548 4.39132,-18.426236 1.30869,-1.182281 3.64593,-2.277996 6.07812,-2.849418 1.47433,-0.346364 2.97431,-0.450709 6.29697,-0.437958 3.87658,0.01488 4.64132,0.09206 6.87688,0.694267 4.58665,1.235517 8.49799,3.597281 10.84947,6.551172 1.75981,2.210672 4.10028,7.171138 4.63434,9.822205 0.42146,2.09196 0.42128,2.286821 -0.003,3.848485 -1.11896,4.114851 -4.24604,6.252915 -10.88341,7.44125 -5.8574,1.048687 -8.66097,2.338288 -11.24633,5.173107 -2.03331,2.229505 -3.43408,5.281943 -6.22913,13.573862 -4.71147,13.977389 -8.50415,23.422289 -13.73734,34.210229 -2.32475,4.79229 -2.76098,5.51998 -3.94645,6.58296 -0.73306,0.6573 -1.87223,1.37889 -2.53156,1.60354 -1.41342,0.48159 -3.89656,0.50551 -5.34069,0.0514 z m 11.8999,-84.182162 c -1.06321,-0.577786 -1.50873,-1.837266 -1.51094,-4.271304 -0.003,-3.179234 -0.41866,-5.216852 -1.58075,-7.746205 -0.83497,-1.817434 -1.01225,-2.454281 -0.89108,-3.201066 0.1818,-1.120243 0.81406,-2.025766 1.95803,-2.804366 1.07673,-0.732802 2.00671,-0.731673 3.09808,0.0038 1.39298,0.938722 2.2371,2.412692 2.97324,5.191657 0.5763,2.175523 0.68349,3.131332 0.70497,6.285858 0.0228,3.359086 -0.0302,3.832809 -0.54651,4.88034 -0.91122,1.848761 -2.61874,2.523349 -4.20504,1.661289 z M -1037.9891,36.161949 c -2.6831,-0.987367 -4.2557,-3.161556 -5.4389,-7.519246 -0.7278,-2.680521 -0.8012,-8.391108 -0.1387,-10.791279 l 0.4507,-1.632784 -5.1977,-5.305572 c -10.8702,-11.09600214 -20.7738,-22.618365 -34.642,-40.304615 -3.2641,-4.162777 -7.5539,-9.58814 -9.5328,-12.056378 -5.701,-7.110666 -6.5988,-8.587201 -5.7422,-9.443822 0.9799,-0.97985 2.3551,0.1446 8.2956,6.782877 1.4064,1.571593 4.2312,4.63278 6.2773,6.802632 2.0461,2.169853 8.9702,9.716269 15.3867,16.769823 17.0304,18.7210307 27.3445,28.9185656 33.8877,33.504702 1.2879,0.902649 2.5332,1.782362 2.7675,1.954902 0.381,0.280708 0.3313,0.386388 -0.4722,1.004044 -1.7205,1.322621 -4.7766,4.592166 -5.483,5.866065 -1.1726,2.114743 -1.7008,4.026388 -1.7008,6.155882 0,2.416361 0.5873,4.16891 2.2975,6.855793 0.6993,1.098589 1.1322,1.991412 0.9622,1.984048 -0.1701,-0.0074 -1.0597,-0.289534 -1.9769,-0.627072 z m 252.11037,-4.252935 c -0.55238,-0.434493 -0.67602,-0.744091 -0.67602,-1.692691 0,-1.118986 0.0882,-1.251964 2.44081,-3.680101 3.11586,-3.215896 4.05253,-5.026275 4.18754,-8.093491 0.076,-1.727277 -0.003,-2.268041 -0.48094,-3.284451 -0.92794,-1.974119 -2.63747,-2.974648 -5.73865,-3.358649 -1.97779,-0.244892 -2.15441,-0.325454 -2.59906,-1.185282 -0.62051,-1.1999579 -0.47786,-2.412718 0.4016,-3.4143503 0.66019,-0.7519426 1.0453,-0.9328727 2.56258,-1.2040112 0.98208,-0.1755166 1.94964,-0.50292 2.15012,-0.7275689 0.20048,-0.2246488 2.45672,-3.5637224 5.01388,-7.4201605 10.84516,-16.3555461 20.37368,-28.6919151 33.72271,-43.6600061 11.45822,-12.84796 21.71674,-23.347473 22.81161,-23.347473 0.71579,0 1.2086,0.445552 1.2086,1.092713 0,0.262338 -0.71689,1.422657 -1.59312,2.578485 -4.98686,6.578368 -12.28554,15.817528 -20.62549,26.10912 -20.42747,25.207779 -26.633,33.8223042 -31.81865,44.1708792 l -1.67009,3.3328134 0.89718,1.8312116 c 1.27508,2.6025248 1.79558,4.7643468 1.79989,7.4756808 0.006,3.777647 -1.37489,7.727706 -3.80597,10.887107 -2.54703,3.310056 -6.39813,4.998566 -8.18853,3.590225 z m -187.77911,-0.387388 c -9.45608,-1.709676 -17.34352,-8.61491 -23.40866,-20.493668 -3.1724,-6.2132244 -4.7205,-12.608123 -5.1577,-21.305365 -0.2138,-4.252396 0.1272,-7.543466 1.4936,-14.414961 0.84013,-4.225251 1.0245,-5.594978 0.82825,-6.153008 -0.34415,-0.978593 -1.32115,-1.291628 -2.73115,-0.875043 -1.1355,0.335485 -3.3195,2.349269 -6.6992,6.177357 l -1.4723,1.667676 0.07,-3.469922 c 0.067,-3.326578 0.1042,-3.538553 0.8968,-5.131312 1.1169,-2.244667 2.5403,-3.825394 4.8135,-5.345853 3.6092,-2.413975 7.63886,-3.449577 13.4739,-3.462738 4.55263,-0.01026 6.84889,0.508307 10.64748,2.404456 9.05322,4.519173 18.17801,15.57143 25.83913,31.2972876 4.53601,9.3109723 7.75798,14.0343458 12.95092,18.9858574 2.66549,2.541565 4.3511,3.695597 7.06367,4.83598 1.37693,0.578889 1.98361,0.677462 4.17658,0.678719 2.34406,0.0026 2.70969,-0.06745 4.23333,-0.79656 0.91722,-0.438906 2.20495,-1.275952 2.86158,-1.8601 0.65665,-0.584149 1.25832,-1.06208 1.33704,-1.06208 0.31103,0 0.93238,2.73948 0.92705,4.087476 -0.0208,5.247101 -5.61009,7.170163 -14.2708,4.909922 -0.96741,-0.252486 -2.78053,-0.72762 -4.02921,-1.055896 -2.06781,-0.543637 -2.42934,-0.569575 -4.05389,-0.290996 -2.34493,0.402115 -3.36522,0.963455 -5.22126,2.872637 -5.84796,6.015386 -16.22255,9.309125 -24.56876,7.800134 z m 98.91855,-4.988457 c -2.82168,-0.427105 -5.12869,-0.984058 -12.51748,-3.021907 -3.27064,-0.902059 -10.18958,-1.077524 -15.81778,-0.401115 -5.46867,0.657219 -7.00447,0.624404 -8.57373,-0.183162 -1.82116,-0.937183 -2.75272,-2.370846 -2.88439,-4.43897 -0.0795,-1.249116 0.0187,-1.903461 0.42272,-2.816963 0.55133,-1.246319 0.81565,-1.418628 1.29332,-0.843075 0.1583,0.190731 1.08479,0.714125 2.05886,1.163115 6.09336,2.808598 13.61784,1.652899 17.42917,-2.677006 0.53664,-0.609677 1.82462,-2.703535 2.86217,-4.6530229 14.22988,-26.7369111 28.25296,-47.2934371 34.92372,-51.1949021 3.3889,-1.982047 8.22747,-2.87097 14.59604,-2.681522 8.73342,0.259773 13.91948,2.214033 18.4041,6.935149 3.38338,3.561849 5.50364,8.284197 5.8911,13.121152 l 0.16436,2.051652 -2.2605,-2.114921 c -1.24326,-1.163218 -2.87753,-2.416823 -3.63171,-2.785816 -3.05257,-1.493494 -3.64113,-0.322554 -4.46322,8.879224 -0.75173,8.414506 -3.16437,17.6077918 -6.31048,24.0458704 -6.0384,12.3567916 -15.1129,19.5625146 -27.24879,21.6372576 -3.81849,0.652806 -9.94505,0.643801 -14.33748,-0.02104 z m -40.79747,-52.01209 c 0.98901,-1.895225 1.93794,-4.730147 2.6243,-7.840107 0.51986,-2.355529 1.32398,-3.512922 2.44069,-3.512922 0.48119,0 0.90868,0.229369 1.26002,0.676024 0.47126,0.599107 0.53193,1.029573 0.53329,3.784344 0,1.709573 0.0757,4.060818 0.16631,5.224985 0.18326,2.354246 0.30482,2.462055 1.98487,1.760091 1.05112,-0.439189 1.67129,-1.089762 3.09438,-3.246171 3.55662,-5.389315 5.99402,-12.213294 9.49855,-26.592823 0.922,-3.782984 2.07528,-8.379075 2.56291,-10.213519 1.01244,-3.808897 1.5445,-6.143439 3.88859,-17.061615 3.94939,-18.395266 6.63848,-27.204146 11.00423,-36.047476 2.30175,-4.66241 4.13861,-7.59336 7.07456,-11.28827 l 1.83432,-2.30845 -0.13246,-1.46083 c -0.15959,-1.76002 -1.1936,-4.12707 -2.31441,-5.29818 -1.00414,-1.0492 -2.66102,-1.91919 -4.68242,-2.45865 -3.78163,-1.00922 -19.40334,-1.15488 -30.13248,-0.28096 -2.75167,0.22413 -10.3544,0.92415 -16.89495,1.55558 -24.57083,2.3721 -35.04851,3.14611 -48.85,3.60865 -3.5883,0.12025 -5.32201,0.27014 -5.31847,0.45981 0.0334,1.78583 0.81857,7.9961 1.09438,8.65599 0.19812,0.47398 1.37683,1.9586 2.61935,3.29915 5.47203,5.90373 10.46893,12.90808 13.63616,19.11437 2.08493,4.08543 3.28427,7.16506 4.67983,12.016614 1.06442,3.700318 2.3525,6.878525 4.63453,11.435131 4.25447,8.495016 6.5014,15.625566 8.35103,26.501537 0.51115,3.005564 1.22007,6.619214 1.57539,8.030325 2.62364,10.41931 7.327,19.861003 9.75488,19.582244 0.95558,-0.109707 1.35282,-0.975026 1.60754,-3.501762 0.24274,-2.407843 0.7863,-3.631609 2.12021,-4.773378 2.60111,-2.226476 6.43461,-1.498523 8.01095,1.521178 0.47547,0.910808 0.54474,1.553017 0.61573,5.708585 0.0924,5.407891 0.23935,5.669331 1.65819,2.950505 z M -1248.85,-48.408987 c 33.1056,-19.663781 56.7789,-32.147547 83.9695,-44.2801 53.2237,-23.748613 113.2736,-41.754643 178.5894,-53.550303 11.05728,-1.99688 35.09143,-4.96226 53.10909,-6.55271 35.02754,-3.09193 72.22374,-3.76305 106.7313,-1.92576 73.27879,3.90162 143.18587,18.33026 207.5616,42.84018 12.954,4.93198 28.85063,11.60338 38.54943,16.178206 1.62875,0.768234 3.00505,1.39682 3.05844,1.39682 0.0534,0 0.0653,-1.818409 0.0264,-4.040909 l -0.0707,-4.040907 -2.56566,-1.33555 c -16.63002,-8.65679 -52.29074,-21.69776 -85.51094,-31.27097 -87.08153,-25.09468 -177.22864,-35.52451 -257.00419,-29.73485 -23.41877,1.69962 -44.19474,4.46752 -65.42424,8.7162 -5.22111,1.04491 -15.66973,3.11938 -23.21923,4.60992 -20.3954,4.02682 -36.0127,7.57962 -53.2374,12.111 -57.5783,15.14753 -111.8374,36.36805 -161.151,63.025581 -9.8443,5.321505 -25.0242,14.037887 -26.9757,15.489561 l -0.8339,0.620273 v 7.042496 c 0,3.947288 0.1005,7.042496 0.2285,7.042496 0.1257,0 2.0018,-1.053305 4.1692,-2.340674 z m 183.9215,-54.745183 c 0,-5.85611 -0.095,-10.64747 -0.2114,-10.64747 -0.5776,0 -16.4161,6.79073 -16.9143,7.25201 -0.691,0.63969 -0.7448,1.49898 -0.1283,2.04826 0.8367,0.74538 16.8119,11.994676 17.0337,11.994676 0.1212,0 0.2203,-4.791364 0.2203,-10.647476 z m 318.47488,-7.99422 c 2.8095,-0.88605 5.8273,-2.21347 8.47052,-3.72588 2.57694,-1.47448 6.3334,-4.18579 6.3334,-4.57128 0,-0.47988 -3.06501,-2.5185 -6.09526,-4.05409 -4.7763,-2.42042 -9.54278,-3.99453 -13.06117,-4.31336 l -1.90597,-0.17269 -1.2602,1.30743 c -0.93765,0.97279 -1.36991,1.68481 -1.68882,2.78181 -0.98657,3.39367 0.34011,8.21806 3.43539,12.49262 l 0.90026,1.24326 1.43536,-0.17836 c 0.78945,-0.0981 2.33588,-0.46236 3.43649,-0.80946 z m -282.45138,-12.78703 c 8.5648,-3.19596 13.2899,-4.62021 18.8816,-5.69127 3.4888,-0.66827 11.47921,-0.65829 14.88876,0.0185 l 2.44538,0.48545 4.54604,-3.51841 c 2.50033,-1.93512 4.54606,-3.58507 4.54606,-3.66655 0,-0.26368 -9.26556,0.14914 -12.7,0.56585 -12.97664,1.57444 -28.52614,5.50346 -39.12624,9.88632 -1.5669,0.64788 -1.6655,0.73771 -1.631,1.48634 0.053,1.14502 1.0267,2.61391 1.7332,2.61391 0.3154,0 3.2027,-0.9811 6.4162,-2.18024 z m 228.09695,-14.83516 c 0.58299,-2.14128 0.68264,-2.82125 0.43583,-2.97381 -0.7159,-0.44244 -12.88445,-1.76081 -21.58859,-2.33893 -4.19616,-0.2787 -33.35353,-0.68195 -33.35353,-0.46127 0,0.30269 1.52425,6.69615 1.619,6.79093 0.0597,0.0597 0.96105,-0.12359 2.00288,-0.40735 9.11524,-2.48268 18.64755,-3.51669 26.26801,-2.84939 6.51446,0.57047 14.98782,2.35417 20.65354,4.34768 1.19944,0.42203 2.41172,0.74502 2.69394,0.71774 0.42508,-0.0411 0.64282,-0.52598 1.26892,-2.8256 z m -244.07095,-14.6467 c 16.2749,-4.65761 25.4816,-6.92293 39.2172,-9.64938 29.65626,-5.88664 61.28891,-9.40698 99.03433,-11.02137 19.5776,-0.83735 50.25949,-0.95183 71.32525,-0.26611 4.30389,0.14009 9.32616,0.28466 11.1606,0.32128 l 3.33536,0.0666 0.0671,-10.24683 c 0.0382,-5.82655 -0.0324,-10.34634 -0.16363,-10.47757 -0.26124,-0.26124 -4.44375,-0.66851 -16.32369,-1.58948 -43.09568,-3.34094 -82.61036,-2.70384 -119.37832,1.92478 -31.5174,3.96764 -60.1989,11.11861 -84.8479,21.15453 -4.6013,1.87345 -11.6705,4.99008 -14.0263,6.18388 l -1.2394,0.62802 v 8.07748 c 0,6.7398 0.059,8.07751 0.358,8.07751 0.1969,0 5.3635,-1.43249 11.4814,-3.18332 z m 282.63772,-21.39113 0.068,-7.50601 -0.70946,-0.27185 c -1.48451,-0.56886 -12.50036,-3.66625 -18.15589,-5.10499 -10.20156,-2.59522 -27.83645,-6.34828 -28.34691,-6.03279 -0.1689,0.10438 -0.26016,3.80351 -0.26016,10.5446 0,9.12473 0.048,10.40224 0.39611,10.53581 0.45997,0.17652 45.98011,5.43617 46.5554,5.37926 0.33074,-0.0327 0.39442,-1.09341 0.45287,-7.54403 z"
       id="path490" /></g></svg>
