<?xml version="1.0" encoding="UTF-8" standalone="no"?>
<!-- Created with Inkscape (http://www.inkscape.org/) -->

<svg
   width="1282.8282mm"
   height="1282.8282mm"
   viewBox="0 0 1282.8282 1282.8282"
   version="1.1"
   id="svg241"
   xml:space="preserve"
   inkscape:version="1.2.2 (732a01da63, 2022-12-09)"
   sodipodi:docname="Riddle Box.svg"
   xmlns:inkscape="http://www.inkscape.org/namespaces/inkscape"
   xmlns:sodipodi="http://sodipodi.sourceforge.net/DTD/sodipodi-0.dtd"
   xmlns="http://www.w3.org/2000/svg"
   xmlns:svg="http://www.w3.org/2000/svg"><sodipodi:namedview
     id="namedview243"
     pagecolor="#505050"
     bordercolor="#eeeeee"
     borderopacity="1"
     inkscape:showpageshadow="0"
     inkscape:pageopacity="0"
     inkscape:pagecheckerboard="0"
     inkscape:deskcolor="#505050"
     inkscape:document-units="mm"
     showgrid="false"
     inkscape:zoom="0.09231464"
     inkscape:cx="2431.9003"
     inkscape:cy="1939.0207"
     inkscape:window-width="1920"
     inkscape:window-height="1009"
     inkscape:window-x="-8"
     inkscape:window-y="-8"
     inkscape:window-maximized="1"
     inkscape:current-layer="layer1" /><defs
     id="defs238" /><g
     inkscape:label="Layer 1"
     inkscape:groupmode="layer"
     id="layer1"
     transform="translate(646.91144,510.05502)"><path
       style="fill:#000000;stroke-width:0.256566"
       d="m -187.65894,735.42184 c -0.49389,-0.0577 -1.9948,-0.23242 -3.33536,-0.38829 -9.6024,-1.11642 -15.13001,-5.02078 -16.21084,-11.45037 -0.48563,-2.8889 0.37169,-6.8923 2.29521,-10.71808 2.21875,-4.413 7.1549,-10.04734 9.90549,-11.30659 0.81898,-0.37497 1.57536,-0.58209 1.68081,-0.4603 0.10545,0.12179 0.37931,1.31826 0.60857,2.65881 0.63018,3.68506 1.58976,6.77739 2.98702,9.62617 1.56199,3.18464 3.63081,5.33815 6.04586,6.29342 2.08793,0.82589 6.18205,0.83931 10.39091,0.0341 1.62278,-0.31047 16.79651,-2.06432 33.7194,-3.89746 l 30.76886,-3.33297 8.48568,-0.003 c 15.679496,-0.005 30.201214,-0.74266 45.302821,-2.30211 21.239248,-2.19325 71.120458,-2.72396 120.585851,-1.28299 55.240508,1.60921 129.348748,6.20702 145.087868,9.00148 6.3206,1.12222 7.24757,1.25448 8.72323,1.24463 2.66572,-0.0177 4.4899,-0.97013 4.4899,-2.34393 0,-0.8665 -1.2711,-3.49548 -2.39617,-4.95596 -0.43482,-0.56444 -1.68376,-2.03153 -2.77542,-3.26023 -2.7862,-3.13584 -2.84945,-3.74303 -0.98344,-9.43976 0.83176,-2.53929 1.5174,-5.88541 1.5349,-7.49072 0.004,-0.37066 2.85794,0.82383 4.28706,1.79432 3.64708,2.47668 7.5379,8.33707 9.57344,14.41963 2.84795,8.51028 3.26485,14.50817 1.29558,18.64016 -0.93039,1.95218 -3.30865,4.21724 -5.50921,5.24702 -2.9345,1.37319 -5.99822,1.86077 -11.56916,1.84109 -4.49572,-0.0159 -9.16365,-0.46949 -60.03636,-5.83425 -30.33889,-3.19937 -57.817068,-6.09207 -61.062624,-6.4282 -13.46164,-1.39418 -25.677705,-2.22673 -44.001007,-2.99871 -9.86713,-0.41572 -51.0637462,-0.41472 -64.14141,0.003 -15.247516,0.48535 -30.226562,1.05346 -32.070705,1.21635 -0.917222,0.081 -29.723129,3.49445 -64.013124,7.58544 -34.29,4.09097 -63.90409,7.60328 -65.80909,7.80512 -3.51236,0.37214 -12.21132,0.67615 -13.85454,0.48419 z m 17.06161,-23.10045 c -2.48771,-0.51749 -4.73269,-1.67122 -6.59233,-3.38787 -2.02663,-1.87085 -3.37527,-3.96746 -4.22443,-6.56749 -0.64859,-1.9859 -0.68528,-2.40559 -0.87658,-10.02738 -0.37348,-14.8812 -1.38889,-24.55113 -5.64411,-53.7493 -2.60499,-17.87495 -3.83368,-24.33243 -6.15103,-32.32727 -2.87998,-9.93581 -3.96625,-13.8353 -7.9334,-28.47879 -15.84734,-58.49563 -24.32462,-85.18528 -31.43539,-98.97019 -1.15873,-2.24629 -1.75537,-3.65606 -1.54732,-3.65606 0.18624,0 5.27565,-0.63382 11.30982,-1.40847 35.00186,-4.49349 61.39587,-7.24511 79.90588,-8.33025 6.17448,-0.36199 17.79473,-0.725 29.1202,-0.90971 11.46823,-0.18703 16.005514,-0.40868 28.863635,-1.40995 5.432777,-0.42303 11.551868,-0.89744 13.597979,-1.05423 2.192456,-0.168 16.416326,-0.36666 34.636361,-0.48375 28.158002,-0.18096 32.060622,-0.25816 43.7444416,-0.86522 18.4201814,-0.95707 36.3700524,-1.27985 60.9343394,-1.09574 41.505114,0.31108 66.659064,1.55907 89.028274,4.41698 43.55264,5.56437 69.07889,8.11137 90.76682,9.05672 2.72006,0.11856 5.01984,0.28979 5.11056,0.38053 0.21461,0.2146 -1.84045,7.98546 -4.0465,15.30107 -2.9972,9.93917 -7.45018,22.2945 -13.26932,36.81717 -3.2708,8.16284 -3.6114,9.34258 -5.18504,17.95959 -1.34222,7.34976 -2.52212,12.50945 -4.0072,17.52351 -4.0347,13.62235 -5.82937,23.00504 -7.92495,41.43186 -5.41461,47.6124 -6.83009,62.8241 -7.83569,84.20826 -0.23615,5.02147 -0.41264,6.57021 -1.18418,10.39091 -0.84326,4.17586 -0.89698,4.72316 -0.76839,7.82525 0.0834,2.01168 0.3402,4.14949 0.64708,5.38677 0.27984,1.12828 0.48907,2.0691 0.46492,2.09073 -0.0241,0.0216 -2.75705,-0.28661 -6.07316,-0.68493 -34.88687,-4.19069 -84.55388,-7.28695 -144.831304,-9.02885 -15.381803,-0.4445 -82.508713,-0.44655 -96.468681,-0.003 -38.153081,1.2124 -63.666175,2.74215 -91.080805,5.46121 -8.99732,0.89238 -21.48696,2.35276 -26.2737,3.07211 -1.84779,0.27771 -4.8894,0.73527 -6.75912,1.01685 -3.94852,0.59462 -5.54015,0.61427 -8.01768,0.0989 z M 14.258214,687.9659 c 8.792992,-1.00672 18.253696,-3.60193 24.502019,-6.7212 5.538405,-2.76488 9.886141,-6.45535 11.720354,-9.94859 3.499043,-6.66383 2.444507,-12.55017 -3.33779,-18.63147 -4.173861,-4.38965 -8.561467,-7.49574 -14.968912,-10.59677 -14.677427,-7.10351 -30.354717,-9.21546 -46.672779,-6.28748 -12.344015,2.21493 -22.873982,7.01584 -28.441122,12.96714 -3.202042,3.42299 -4.65777,6.53337 -4.83988,10.34116 -0.195965,4.09761 0.951448,7.45367 3.379688,9.88522 2.344625,2.3478 7.846316,7.15435 10.385597,9.07339 6.758375,5.10748 18.139576,8.82103 31.0829274,10.14201 2.78802184,0.28456 14.0293936,0.13845 17.1898976,-0.22341 z m -20.5252509,-8.22612 c -4.1570821,-0.48903 -5.7343451,-0.7319 -8.9797971,-1.38265 -6.233186,-1.24981 -11.250198,-2.98763 -16.535348,-5.7276 -6.301278,-3.26672 -9.816176,-6.19267 -11.451576,-9.53277 -0.746504,-1.52462 -0.876711,-2.0601 -0.876711,-3.60521 0,-1.5788 0.124665,-2.0669 0.959068,-3.75523 3.369297,-6.8173 13.180496,-12.28572 26.810879,-14.94343 5.640954,-1.0999 9.2404934,-1.43384 15.45528291,-1.43384 12.22568609,0 22.16421809,2.11187 31.98352409,6.79624 7.15346,3.41263 10.439014,6.29633 12.058277,10.58341 0.901674,2.38727 0.772725,3.98331 -0.537479,6.65262 -0.771929,1.57267 -1.493289,2.51745 -3.320473,4.34892 -6.015438,6.02947 -14.491802,9.67344 -26.836355,11.53693 -2.5776126,0.38911 -16.4429585,0.73157 -18.7292919,0.46261 z M 28.283785,630.82824 c -0.07995,-0.3175 -0.718717,-2.25136 -1.4195,-4.29747 -2.005651,-5.85591 -2.474627,-8.50126 -2.456231,-13.85455 0.01308,-3.80079 0.102061,-4.80491 0.579838,-6.54242 3.097389,-11.2639 13.083257,-18.29919 31.289617,-22.0443 2.359942,-0.48545 8.15853,-1.47182 12.885752,-2.19192 11.194729,-1.70529 15.296008,-2.39204 20.9101,-3.50133 17.139589,-3.38661 30.586399,-7.95307 40.097799,-13.61693 7.13383,-4.24809 13.04936,-10.16326 15.9465,-15.94553 2.02669,-4.04502 3.28676,-10.03359 3.00508,-14.28181 C 147.81012,514.7571 133.99617,500.89085 106.53805,491.80607 71.311998,480.15122 5.9829718,477.4279 -43.259133,485.56162 c -35.665985,5.89126 -59.480687,16.31327 -70.514197,30.8591 -2.72154,3.58787 -5.44696,10.18897 -5.8176,14.09035 l -0.15232,1.60354 h 2.08963 2.08962 v 1.74583 1.74582 l 47.471135,0.32225 c 40.44647,0.27458 47.574582,0.26955 48.170199,-0.0339 0.384489,-0.19586 2.777246,-1.60972 5.317246,-3.14195 8.6796667,-5.23584 13.93497767,-7.19744 22.4494933,-8.37944 3.7894747,-0.52606 16.7723377,-0.44447 20.5252507,0.12895 5.894545,0.9007 9.498112,2.15903 11.678022,4.07786 1.430122,1.25884 1.919957,2.16128 1.919957,3.53717 0,2.52807 -4.267456,5.29756 -12.237129,7.94173 -4.856993,1.61144 -13.945625,3.94285 -22.0143835,5.64711 -13.5101309,2.8536 -20.0867035,4.52949 -27.7032905,7.05956 -14.144182,4.69838 -25.47625,11.01657 -30.706289,17.12029 -4.204778,4.90718 -7.537642,11.73116 -8.541737,17.48918 -1.244369,7.13561 0.335818,13.65304 5.018475,20.69856 2.802287,4.21633 10.286717,11.24343 15.283487,14.34959 l 1.272437,0.79099 32.437953,4.06493 c 17.840882,2.23571 32.711196,4.07875 33.045141,4.09563 0.506923,0.0257 0.583174,-0.0646 0.461818,-0.54656 z m -40.83668,-11.25048 -29.505049,-4.3268 -2.437373,-2.52784 c -9.83411,-10.19915 -13.207589,-19.78747 -10.216855,-29.03882 3.63533,-11.24517 17.357641,-21.56672 37.28453,-28.04444 5.189733,-1.68705 8.5990281,-2.5437 16.54848352,-4.15803 23.25172248,-4.72184 35.84506748,-8.25136 42.27904148,-11.84944 2.041877,-1.14187 4.53159,-3.41961 5.249923,-4.80293 0.835301,-1.60851 0.934463,-5.18655 0.19794,-7.14115 -2.139962,-5.67908 -10.220497,-9.65982 -22.531876,-11.09995 -4.45693,-0.52137 -16.9290993,-0.52019 -20.8844178,0.003 -8.3622183,1.10387 -17.5492692,4.73107 -28.3021402,11.1742 l -2.055168,1.23146 -43.857869,-0.75894 c -24.121814,-0.41741 -43.898615,-0.79969 -43.948415,-0.84949 -0.19101,-0.19099 1.51649,-4.20645 2.51101,-5.90507 1.72281,-2.94255 3.43295,-5.06209 6.34928,-7.86922 16.011289,-15.41203 50.210283,-24.81501 102.1704695,-28.09166 8.5376322,-0.53837 34.0913905,-0.76962 42.4655135,-0.38428 42.442781,1.9531 74.338967,10.01352 90.307207,22.82133 9.46021,7.58788 13.66281,17.24865 12.07082,27.74788 -0.70984,4.68153 -2.22596,8.31573 -5.01111,12.01192 -4.89042,6.49006 -14.5424,12.26376 -27.96981,16.73124 -10.588825,3.523 -20.70277,5.8783 -38.997979,9.08162 -12.03162,2.10664 -18.620379,3.66615 -26.055267,6.1671 -10.280713,3.45819 -16.356213,6.84168 -21.409376,11.92299 -4.018383,4.04078 -5.43914,6.57624 -6.471714,11.54925 -0.853286,4.10956 -0.337205,8.53406 1.832879,15.71352 0.695395,2.30062 1.343249,4.38501 1.439667,4.63195 0.146858,0.37621 0.03569,0.44409 -0.686006,0.41872 -0.473722,-0.0167 -14.1385624,-1.97733 -30.366339,-4.35707 z M -299.84332,581.35322 c -6.95911,-1.64014 -12.03529,-11.74308 -13.04888,-25.9708 -0.40309,-5.65812 -0.15386,-24.21774 0.3917,-29.16882 1.20393,-10.92605 4.1795,-18.72062 8.84566,-23.17139 1.89715,-1.80956 3.27937,-2.47204 5.17344,-2.47953 2.96046,-0.0118 4.86893,2.17683 6.04164,6.92832 0.8469,3.43124 1.49429,4.66393 3.40678,6.48675 3.28689,3.13282 8.81808,4.87516 17.28465,5.44474 2.08454,0.14024 2.503,0.23914 2.51049,0.59333 0.011,0.51919 -3.15024,24.24784 -3.24786,24.37907 -0.0382,0.0514 -0.4767,-0.15827 -0.97441,-0.46587 -1.40211,-0.86657 -4.36249,-4.20272 -7.72827,-8.70927 -1.68713,-2.25899 -3.15412,-4.11267 -3.25995,-4.11932 -0.10584,-0.007 -0.19243,0.25231 -0.19243,0.57543 0,2.03125 -2.1504,7.14371 -3.57955,8.51023 l -0.79417,0.75936 -0.87835,-0.88765 c -2.08252,-2.10455 -3.95625,-6.67878 -5.27959,-12.88872 -0.34964,-1.64077 -0.70152,-2.72758 -0.8656,-2.67337 -0.50004,0.16521 -1.651,2.07192 -2.30529,3.81911 -1.2525,3.34444 -1.50638,5.63018 -1.36239,12.26646 0.1347,6.20999 0.55972,9.74539 1.7417,14.48808 0.67823,2.72134 0.75309,2.91215 3.07386,7.83313 1.09807,2.32833 2.15461,4.71429 2.34785,5.30216 l 0.35137,1.0688 1.3961,-0.88025 c 3.85831,-2.43273 11.49733,-4.20789 18.10782,-4.20789 h 2.2245 l -0.16438,-0.96212 c -0.0904,-0.52916 -0.23615,-1.65484 -0.32384,-2.50151 l -0.15951,-1.5394 0.99586,0.8927 c 2.43199,2.18014 7.28169,7.08134 7.28169,7.35902 0,0.56706 -1.86492,1.84874 -3.65613,2.51268 -2.71775,1.00738 -7.59601,1.89122 -11.89834,2.15576 -4.71847,0.29013 -5.22639,0.49374 -7.66472,3.07248 -4.75144,5.02507 -9.55471,7.17683 -13.79145,6.1783 z m 70.18871,-5.35139 c -1.2536,-0.56914 -2.24659,-1.93186 -2.62787,-3.60641 -0.65445,-2.8741 -0.24677,-10.15533 1.16252,-20.7635 0.71354,-5.37097 0.68673,-6.76723 -0.17762,-9.24278 -0.96451,-2.76244 -3.09138,-4.11695 -6.46448,-4.11695 -2.36463,0 -4.3522,0.54563 -7.75244,2.12826 -5.58422,2.59914 -8.59143,1.69441 -8.594,-2.58549 -0.003,-3.52411 0.96215,-4.39292 7.02331,-6.32817 3.22131,-1.02852 5.65281,-2.01778 8.66838,-3.5267 3.98418,-1.99361 4.27769,-2.09804 5.94211,-2.11428 1.69833,-0.0164 1.77695,0.0113 2.61704,0.92739 0.5791,0.63143 1.05292,1.56671 1.42977,2.82222 0.30998,1.03278 1.51517,4.12914 2.67816,6.88081 1.16301,2.75166 2.49949,6.15757 2.96995,7.56868 l 0.85537,2.56566 0.007,7.22784 c 0.007,6.93989 0.0285,7.25675 0.54672,7.95353 0.47408,0.63741 0.75676,0.7454 2.32353,0.88757 2.74284,0.24886 4.68972,1.4862 5.13596,3.26415 0.23204,0.92459 -0.31314,2.72504 -1.22764,4.05423 -1.66113,2.41433 -6.0207,5.08885 -9.75388,5.9838 -2.65358,0.63613 -3.39816,0.63928 -4.76186,0.02 z m -25.35281,-10.07887 c -3.08418,-1.09936 -5.47478,-4.27831 -7.39448,-9.83298 -2.14551,-6.20802 -3.23617,-12.24419 -3.43501,-19.01083 -0.22146,-7.53723 0.61715,-12.54139 2.87431,-17.15141 2.79018,-5.69863 5.57507,-7.4854 9.4146,-6.0404 2.68396,1.01012 5.06329,3.90732 5.07735,6.18246 0.008,1.26908 -1.12355,3.40666 -2.36602,4.47017 -0.57394,0.49127 -2.04867,1.41237 -3.27719,2.04686 -3.80289,1.96411 -5.10871,4.08124 -5.32366,8.6312 -0.2454,5.19432 2.08809,10.55991 5.56191,12.78908 1.44449,0.92692 1.99174,0.96201 3.86975,0.24825 2.08529,-0.79258 4.32395,-0.28879 5.29375,1.19131 0.39213,0.59849 0.39213,0.71289 -2.1e-4,1.5982 -0.23242,0.52447 -0.82637,2.7394 -1.3199,4.92206 -0.49363,2.18322 -1.24906,4.72242 -1.67927,5.64444 -1.6888,3.61942 -4.529,5.29788 -7.29593,4.31159 z m -65.29596,-10.95736 c -4.03229,-1.23102 -7.46006,-5.65383 -8.6068,-11.10531 -0.50669,-2.40872 -0.46893,-4.10469 0.14483,-6.50448 0.67325,-2.63239 1.75983,-4.39928 3.96661,-6.45021 1.74908,-1.62555 3.30497,-2.58934 5.33815,-3.30667 l 1.00764,-0.35553 -0.17234,4.16742 c -0.15465,3.73999 0.11287,14.14752 0.54402,21.1649 l 0.16159,2.6298 -0.87114,-0.0221 c -0.47914,-0.0121 -1.15978,-0.11017 -1.51256,-0.21785 z m 72.09494,-89.22121 c -5.46174,-0.40984 -13.17382,-1.6628 -17.83136,-2.89701 -12.5713,-3.33125 -19.75963,-8.44229 -21.52986,-15.30817 -1.38748,-5.38141 1.17754,-11.81434 7.81127,-19.59025 3.33813,-3.91286 12.35979,-13.132 15.47201,-15.81065 1.57565,-1.35616 4.77171,-3.89185 7.10238,-5.63488 4.09787,-3.0647 4.56823,-3.51828 14.26928,-13.7603 15.13827,-15.98245 15.12411,-15.96557 17.14767,-20.47384 10.77548,-24.0068 24.44488,-33.40056 53.37376,-36.67909 11.6888,-1.32467 22.2866,-1.72124 58.84779,-2.202 l 12.66596,-0.16656 -0.10994,2.6571 c -0.0837,2.02233 -0.2481,2.97059 -0.68821,3.9694 l -0.57825,1.31231 -4.92221,0.17121 c -13.92479,0.48437 -28.4235,1.58344 -44.43332,3.36834 -3.10445,0.34611 -8.12672,0.86614 -11.16061,1.15568 -7.17057,0.68428 -10.50536,1.15811 -13.50405,1.9188 -4.9082,1.24506 -6.23408,2.2421 -11.0854,8.3361 -3.83068,4.81189 -4.67088,5.69145 -10.04691,10.51734 -11.09816,9.9625 -20.46093,20.65274 -44.94286,51.31498 -5.12644,6.42056 -9.42376,11.67374 -9.54965,11.67374 -0.12587,0 -0.47224,-0.32638 -0.7697,-0.72529 -0.43791,-0.58728 -0.5373,-1.0755 -0.52234,-2.56566 0.021,-2.09254 0.52614,-3.70298 2.46316,-7.85308 0.68728,-1.47254 1.21371,-2.78513 1.16978,-2.91687 -0.14106,-0.42321 -4.77853,4.704 -6.23629,6.89489 -2.32918,3.50053 -3.43636,6.67712 -3.44136,9.87372 -0.004,2.47943 0.72928,4.0395 2.7991,5.95576 6.69426,6.19773 24.40006,9.16676 54.66855,9.16722 20.11366,0 21.03674,-0.0505 128.282815,-7.0555 66.1341557,-4.31972 94.023123,-6.0099 116.352518,-7.05145 17.523793,-0.81742 82.363347,-0.99625 101.984847,-0.2813 34.43816,1.25481 53.78182,2.93729 72.86464,6.33768 16.19396,2.88562 18.52111,3.17644 25.41801,3.17644 10.39244,0 16.34279,-1.3141 19.82349,-4.37796 1.52497,-1.34232 2.30827,-2.68696 2.9766,-5.10981 1.5692,-5.6887 -0.65401,-10.84051 -6.3109,-14.62409 -2.00296,-1.33963 -5.61725,-3.16769 -5.99858,-3.03394 -0.12254,0.043 0.28535,0.86671 0.90637,1.83052 1.0961,1.70111 1.72058,3.24153 2.02953,5.00631 l 0.15017,0.85768 -1.34533,-0.17 c -4.03331,-0.50972 -7.94935,-2.24295 -14.9433,-6.61391 -8.09909,-5.06162 -11.42993,-7.63585 -17.15332,-13.25692 -9.43232,-9.26369 -17.65133,-20.74474 -26.64565,-37.22101 -5.47588,-10.03102 -6.96149,-13.43575 -7.78043,-17.83131 -0.93987,-5.04464 -2.20744,-5.92854 -10.28117,-7.16921 -14.10313,-2.16716 -33.14482,-3.5444 -53.85054,-3.8949 -7.63649,-0.12926 -9.92519,-0.0826 -13.21313,0.26924 -2.18722,0.23407 -4.61256,0.49197 -5.38962,0.57309 l -1.41286,0.1475 -1.69446,-4.71236 -1.69446,-4.71235 3.33707,-0.29482 c 10.30963,-0.91078 25.23274,-1.24465 39.1816,-0.87653 33.16691,0.87528 44.81512,1.90993 50.42729,4.47926 1.88242,0.8618 4.02702,2.93005 4.72812,4.55976 0.3077,0.7153 0.89567,3.04633 1.30658,5.18008 1.1194,5.81245 2.92131,10.86533 6.12948,17.18805 6.02653,11.8772 14.50348,23.3884 24.88877,33.79745 9.30035,9.32162 14.98143,13.4836 23.86925,17.48671 17.93214,8.07672 27.31157,16.36084 29.31968,25.89584 0.4874,2.31428 0.50908,2.76919 0.22544,4.73079 -0.4271,2.95399 -1.40338,5.44845 -3.1607,8.07566 -3.3,4.93358 -10.70988,10.60532 -15.86566,12.14407 -3.67279,1.09618 -8.0251,1.42243 -11.03189,0.82699 -1.87429,-0.37117 -4.98004,-1.83301 -4.36162,-2.05296 0.21167,-0.0753 2.23212,-0.66917 4.4899,-1.31977 5.45528,-1.57201 11.08956,-4.03245 12.44344,-5.43396 0.34669,-0.35891 0.25769,-0.38287 -0.89798,-0.24163 -7.85417,0.95978 -12.38761,1.34661 -19.88384,1.69661 -12.57649,0.58723 -27.14152,0.0886 -37.84343,-1.29545 -13.00752,-1.68225 -34.33983,-3.5796 -54.5202,-4.84914 -40.65924,-2.55788 -86.684398,-3.35462 -133.6707,-2.31399 -78.220989,1.73241 -159.32626,7.92187 -247.16431,18.86206 -8.58407,1.06916 -9.5712,1.14282 -14.75252,1.101 -3.05405,-0.0246 -6.0724,-0.0838 -6.7074,-0.13146 z m 30.53132,-26.14804 c -7.45318,-0.17185 -21.01884,-0.63462 -23.0514,-0.78635 -2.48232,-0.18529 -3.63143,-0.85629 -3.63143,-2.12044 0,-3.70873 6.76592,-13.7218 19.60179,-29.00929 14.99093,-17.85414 35.02917,-38.64999 46.51148,-48.27 3.34082,-2.79898 7.22404,-5.70338 8.48681,-6.34761 5.09431,-2.59891 28.9904,-4.63671 54.47786,-4.64574 5.16454,-0.003 10.25719,0.07 11.31696,0.15956 l 1.92688,0.16289 0.29575,1.28132 c 0.38631,1.67352 1.28072,3.42692 2.598416,5.09395 2.014528,2.54857 2.812652,5.01368 2.814474,8.69291 0.0026,3.28055 0.54433,2.98119 -5.72082,3.1554 -17.03796,0.47367 -36.33557,4.91405 -50.34218,11.58368 -1.84071,0.87648 -3.91048,1.73559 -4.59953,1.90908 -0.79379,0.19989 -1.96543,0.85044 -3.19774,1.77556 -1.06969,0.80308 -2.7522,1.92086 -3.73885,2.48399 -2.58913,1.47772 -5.56881,4.50509 -6.6041,6.70979 -0.75061,1.5984 -0.82576,1.98214 -0.82201,4.19664 0.007,4.0505 1.33889,6.82172 5.11905,10.65006 6.09453,6.1722 14.39967,9.82919 28.86045,12.70811 31.15741,6.20296 69.820978,10.82071 100.833478,12.04296 3.598333,0.14183 7.408332,0.33459 8.466666,0.42836 l 1.924242,0.17052 -0.847975,0.35095 c -2.265706,0.93767 -6.687409,1.44752 -16.341923,1.88432 -7.231072,0.32718 -12.617975,0.73173 -27.195958,2.04242 -23.533817,2.1159 -17.727274,1.86675 -77.99595,3.34677 -10.51748,0.25829 -61.85388,0.51829 -69.14444,0.35019 z m 453.86461,-5.64083 c -13.41356,-0.61065 -17.38363,-0.90947 -28.60707,-2.15315 -3.66888,-0.40655 -8.17161,-0.86393 -10.00606,-1.01641 -4.08193,-0.33926 -22.72304,-1.39957 -33.86666,-1.92637 -24.11617,-1.14003 -34.4414,-1.41465 -60.16464,-1.60023 -19.896591,-0.14355 -22.847404,-0.21302 -22.099669,-0.52034 1.33899,-0.55033 9.167988,-1.7183 25.563299,-3.81367 27.78319,-3.55071 49.37216,-8.54676 59.40465,-13.74719 5.4709,-2.8359 10.26316,-7.34507 12.79215,-12.0365 3.62407,-6.72287 1.78693,-12.84573 -5.29279,-17.64002 -9.57398,-6.48338 -39.07636,-15.12454 -68.4434,-20.04688 -2.54,-0.42575 -4.70611,-0.77508 -4.81356,-0.77629 -0.10745,0 0.30334,-0.61453 0.91291,-1.3629 1.50938,-1.85313 2.74721,-3.94 4.2651,-7.19061 l 1.27834,-2.73761 4.30992,0.0167 c 2.37046,0.009 18.46187,0.32914 35.7587,0.71094 35.57468,0.78524 31.93291,0.45953 33.95572,3.03684 0.62215,0.79266 3.06199,4.68607 5.42185,8.65198 15.39776,25.87701 16.48514,27.6099 20.86438,33.25045 3.9095,5.03548 8.60598,10.37266 12.98764,14.75937 10.57153,10.58372 19.91221,17.07306 32.13307,22.32409 2.7306,1.17327 2.86199,1.26376 2.4676,1.69956 -0.71602,0.7912 -2.45105,1.45673 -4.53595,1.73993 -2.12714,0.28894 -11.05485,0.52534 -14.28553,0.37825 z M -22.430672,427.7932 c -11.128099,-0.50248 -14.649334,-0.69981 -20.396969,-1.143 -17.666622,-1.36219 -34.285815,-3.82119 -46.053532,-6.81413 -1.956416,-0.49758 -5.529067,-1.71396 -8.2101,-2.79531 -2.610556,-1.05292 -6.709187,-2.54936 -9.108077,-3.32547 -5.51357,-1.78377 -7.4927,-2.87715 -10.53469,-5.82001 -6.0275,-5.83105 -6.298,-11.76487 -0.80123,-17.57588 3.01382,-3.18611 7.00265,-5.64691 14.22772,-8.77734 7.077183,-3.06637 11.119451,-5.76644 13.525062,-9.03427 1.759835,-2.39057 2.297109,-4.00978 2.290849,-6.90428 -0.0046,-2.10969 -0.1104,-2.70094 -0.787349,-4.39777 -0.953783,-2.39065 -2.56132,-4.84999 -4.839751,-7.40425 -3.562979,-3.99427 -4.556324,-6.1869 -4.591243,-10.13434 -0.02676,-3.02427 0.396548,-4.49688 1.8405,-6.4027 1.312436,-1.73228 2.794384,-2.80516 4.793595,-3.47046 1.649435,-0.5489 1.714526,-0.55108 3.541042,-0.11907 2.715901,0.64236 8.567984,0.79063 10.772268,0.27293 5.477291,-1.28637 13.407402,-7.1217 15.365896,-11.30692 2.14689,-4.58781 0.881662,-8.57094 -4.524279,-14.24314 -3.265696,-3.42654 -3.461635,-3.8196 -3.965863,-7.95523 -0.296103,-2.42875 -0.358679,-9.99362 -0.09362,-11.31891 0.105936,-0.52975 0.620401,-1.30415 1.346969,-2.02756 1.842758,-1.83475 4.091863,-2.27843 6.18626,-1.22035 1.869029,0.94418 2.197048,1.68722 2.371103,5.37081 0.202456,4.28473 1.137227,8.67587 3.02342,14.20281 4.177017,12.23952 6.332066,16.02524 12.784333,22.45804 3.328862,3.3188 9.694461,8.87437 9.915261,8.65355 0.05729,-0.0573 -0.122715,-0.84865 -0.400011,-1.75858 -1.356668,-4.45162 -1.633451,-9.36354 -0.784116,-13.91507 0.25772,-1.38112 0.537992,-2.58054 0.622813,-2.66536 0.08482,-0.0848 0.280015,0.17926 0.433724,0.5869 2.539358,6.73351 6.069445,12.07118 11.78955,17.82636 5.422695,5.45597 11.305924,9.75544 18.1391654,13.25613 3.57180423,1.82985 7.2192183,3.39703 7.9061728,3.39703 0.2712412,0 0.1599431,-0.35881 -0.4124292,-1.32955 -1.4978815,-2.54044 -3.06141822,-5.86837 -3.44008344,-7.32215 -0.23049857,-0.885 -0.37627917,-2.58026 -0.36927493,-4.29463 l 0.0115454,-2.83246 3.64446367,3.77606 c 2.0044704,2.07682 4.6639015,4.63935 5.9098356,5.69452 9.9624697,8.43696 22.8803957,13.34786 36.6242317,13.92313 5.809082,0.24315 10.371384,-0.52404 15.755003,-2.64935 2.746613,-1.0843 6.63466,-3.19086 6.357363,-3.44445 -0.107731,-0.0985 -1.792418,-0.71651 -3.743703,-1.37329 -12.3298,-4.15013 -21.541123,-9.33817 -25.473555,-14.34738 -1.281751,-1.63273 -3.104855,-4.94458 -2.857859,-5.19161 0.05973,-0.0597 1.888348,0.14617 4.063614,0.45751 3.113886,0.44568 5.128132,0.56499 9.471172,0.56096 5.145655,-0.005 5.684854,-0.0505 8.027631,-0.68172 4.08609,-1.10087 8.764898,-3.62733 19.040044,-10.28126 l 5.131313,-3.32293 2.899166,0.97497 c 6.001763,2.01833 9.574902,4.34761 11.172741,7.28336 2.054398,3.7746 2.687782,11.49276 1.360209,16.57502 -0.439959,1.68432 -1.284394,3.80066 -2.458258,6.16091 -2.676185,5.3809 -3.137029,7.77583 -1.976018,10.26906 0.79384,1.70478 2.576971,3.23612 4.888859,4.19857 1.028494,0.42816 4.151848,1.36226 6.940768,2.07577 14.21486,3.63664 22.32613,7.57818 28.7648,13.97772 2.17863,2.16539 2.7646,2.92924 3.70255,4.82659 0.98183,1.98615 1.12758,2.50742 1.22613,4.38507 0.19684,3.74994 -0.79835,6.08517 -4.04116,9.48292 -4.09987,4.29571 -11.8578,8.49694 -22.33333,12.0944 -22.108332,7.59237 -51.99805,12.27754 -92.62019,14.51805 -4.72381,0.26054 -36.911021,0.52794 -41.050503,0.34103 z m 78.387217,-27.00253 c 19.438311,-2.19533 37.131077,-6.45658 47.508645,-11.44229 3.03797,-1.45955 5.49512,-2.99602 5.03605,-3.14904 -0.15104,-0.0504 -1.99228,0.19804 -4.09166,0.552 -8.850307,1.49214 -20.804342,3.11386 -29.430104,3.9926 -4.922494,0.50148 -6.1175,0.73403 -15.137373,2.94589 -10.565527,2.59085 -18.396372,4.41962 -25.700052,6.00184 -2.539999,0.55025 -4.444999,1.06841 -4.233333,1.15149 2.08965,0.82003 18.616968,0.78671 26.047827,-0.0525 z M 45.559222,390.73855 c 15.174857,-1.35369 33.048349,-6.33902 45.155553,-12.59496 1.622778,-0.83851 3.239141,-1.74911 3.591919,-2.02358 l 0.641414,-0.49902 -2.182373,-0.006 c -2.746792,-0.007 -7.756544,0.56912 -12.570151,1.44598 -3.230418,0.58846 -3.903159,0.63946 -5.10989,0.38729 -2.045623,-0.42747 -3.363191,-1.87681 -3.351132,-3.68631 0.0085,-1.27798 0.806694,-2.79516 3.116836,-5.92431 1.152006,-1.56041 2.450485,-3.53855 2.885543,-4.39587 0.709532,-1.39825 0.790966,-1.79647 0.790966,-3.86783 0,-2.24631 -0.413404,-3.97676 -0.950062,-3.97676 -0.135518,0 -0.727646,0.39229 -1.315849,0.87173 -3.821699,3.11517 -10.114382,6.03689 -17.413392,8.0851 -11.75358,3.29823 -27.292426,5.19407 -48.567157,5.92554 -6.517768,0.22408 -47.623612,1.24365 -52.339391,1.29819 -2.799849,0.0324 -0.759203,0.44987 4.874747,0.99733 2.963334,0.28794 7.292879,0.64105 9.621212,0.78465 2.328333,0.14363 6.369242,0.5617 8.979797,0.92905 4.129014,0.58102 5.297157,0.64927 8.9797978,0.52455 2.3283331,-0.0788 5.9651511,-0.37892 8.0818176,-0.66684 3.6814347,-0.50076 5.0846948,-0.52345 32.3272706,-0.52206 18.736116,0 28.873769,0.0924 29.633331,0.26739 3.06673,0.70641 3.117504,3.24289 0.100343,5.01106 -1.844117,1.08074 -3.766948,1.55359 -12.893424,3.17069 -21.643595,3.83499 -23.436014,3.99532 -50.1937831,4.4898 -4.5155553,0.0834 -8.8451009,0.22008 -9.6212119,0.30367 l -1.411111,0.15194 0.984776,0.34716 c 4.1824563,1.47438 15.9181279,2.34534 32.625323,2.42131 3.052413,0.0138 7.445304,0.22442 10.134343,0.48573 5.537507,0.53812 11.233701,0.63623 15.393938,0.26511 z m -8.295254,-35.79986 c -6.064057,-0.94331 -11.247094,-3.15581 -17.746158,-7.57538 -8.385027,-5.70207 -16.8159792,-14.15927 -27.1891846,-27.27383 -1.5182528,-1.91952 -2.8224534,-3.49001 -2.8982164,-3.49001 -0.231063,0 0.189986,8.03317 0.5956167,11.36388 0.5022786,4.12422 1.2489359,8.3019 2.1832967,12.21586 0.4178941,1.75053 0.705145,3.2374 0.6383609,3.30418 -0.066758,0.0668 -1.3092288,-0.6627 -2.7610054,-1.62105 -1.8100959,-1.19493 -3.6119569,-2.71701 -5.7338829,-4.84358 -8.029504,-8.0471 -12.338062,-17.88624 -17.1724,-39.21536 -0.380307,-1.67792 -0.791608,-2.95069 -0.926587,-2.86728 -0.361937,0.2237 -1.8962,3.36391 -3.22893,6.6087 -1.573055,3.82993 -2.920281,7.83815 -4.446898,13.23019 -0.694703,2.45379 -1.310281,4.5086 -1.367931,4.56625 -0.197864,0.19784 -2.50326,-2.61422 -3.677894,-4.4862 -5.201509,-8.28956 -6.663523,-20.20716 -4.407157,-35.92494 0.290125,-2.02094 0.483524,-3.71838 0.429774,-3.77213 -0.05373,-0.0537 -1.248115,0.46338 -2.654198,1.14918 -3.251302,1.58578 -6.954186,2.87133 -10.668281,3.70381 -3.011978,0.6751 -6.64074,1.12873 -6.64074,0.83014 0,-0.26908 2.65253,-5.45384 4.085731,-7.98609 1.693667,-2.9925 3.074298,-6.54281 4.396663,-11.30595 0.585046,-2.10728 1.233773,-4.43984 1.441642,-5.18347 l 0.377947,-1.35205 4.790927,4.85045 c 8.065654,8.16589 14.551633,12.69889 22.105542,15.44936 5.461641,1.98866 12.631932,2.83856 16.148882,1.91415 3.295047,-0.86608 5.469236,-2.4426 6.529262,-4.7344 0.7893759,-1.70668 0.7642838,-7.36033 -0.04718,-10.62654 -0.737395,-2.96818 -0.724901,-3.77888 0.06984,-4.52548 0.6943181,-0.65227 0.8610088,-0.65204 5.9098357,0.008 2.1961763,0.28728 5.48355181,0.23104 10.1749058,-0.1741 1.8798052,-0.16233 1.9935407,-0.14091 2.6297979,0.49535 0.6209145,0.62091 0.6649924,0.82419 0.6649924,3.06745 0,5.33918 2.0634802,8.23601 7.1420692,10.02643 2.056091,0.72485 2.482016,0.78365 5.686213,0.78478 4.342861,0.003 5.728264,-0.35575 10.00606,-2.58049 9.121447,-4.74371 19.403007,-12.8244 32.296893,-25.38342 l 4.972627,-4.8435 0.859931,0.99478 c 1.969141,2.27797 2.789382,6.61755 2.574174,13.61925 -0.262825,8.55098 -2.201666,17.53311 -4.871411,22.56785 -1.146207,2.16159 -3.256639,4.36257 -4.718448,4.92083 -0.866704,0.33099 -1.216249,0.37158 -1.290166,0.14983 -0.05575,-0.16728 -0.59418,-1.31667 -1.196494,-2.55416 -1.238031,-2.54367 -3.188546,-4.85443 -4.993075,-5.91528 -1.051431,-0.61809 -1.444003,-0.69634 -3.493628,-0.69634 -2.032129,0 -2.492074,0.0899 -3.834733,0.74909 -3.168252,1.55556 -6.094255,5.51973 -7.311351,9.90541 -1.610771,5.80431 -0.454968,14.13559 2.947836,21.24844 2.429395,5.07815 5.269576,8.69616 9.16024,11.66893 4.046605,3.0919 10.031589,5.30388 14.350794,5.30388 1.438795,0 1.475971,0.10827 0.72567,2.11364 -0.328044,0.87674 -0.946034,1.78624 -1.731818,2.54875 -2.507749,2.43342 -4.642529,3.01634 -11.77449,3.21518 -9.395074,0.26193 -16.832861,-1.07247 -23.154895,-4.15421 -2.430831,-1.18492 -5.749713,-3.32653 -6.584218,-4.24865 -0.847488,-0.93646 -0.971511,-0.60803 -0.80382,2.12883 0.693548,11.31937 9.187051,22.88953 22.083092,30.08232 1.770996,0.98778 3.22308,1.86133 3.226877,1.94125 0.01155,0.24582 -6.178639,1.01382 -7.946659,0.98588 -0.917222,-0.0144 -2.687371,-0.18496 -3.933638,-0.37882 z m 23.977521,-39.77024 c -7.215395,-1.94066 -12.863893,-9.90171 -14.774281,-20.82302 -1.172479,-6.70283 0.222494,-16.40224 2.631491,-18.29716 1.574441,-1.23844 3.678869,-0.0814 4.951743,2.7226 1.367238,3.01188 1.606486,4.43479 1.758449,10.45774 l 0.14124,5.59783 1.924242,-1.3462 c 1.058333,-0.74042 3.771515,-3.15799 6.029293,-5.37236 4.323413,-4.24028 4.855633,-4.57797 6.676915,-4.23628 1.052176,0.19738 2.804057,2.07259 3.040431,3.25448 0.304492,1.52249 0.147808,4.72161 -0.339051,6.92299 -0.491939,2.22432 -1.210477,4.19659 -2.970081,8.1523 -1.711395,3.84733 -1.392253,6.79055 1.140793,10.52065 0.600569,0.88436 1.052715,1.64328 1.004788,1.68648 -0.04793,0.0432 -1.061617,0.32297 -2.252646,0.62164 -2.580511,0.64713 -6.827827,0.71269 -8.963326,0.13831 z m -87.777211,-44.16046 c -1.554557,-0.26532 -5.86114,-1.48403 -7.27651,-2.05915 -11.864467,-4.82097 -22.092277,-15.00293 -31.899396,-31.75643 -4.089195,-6.98554 -4.409491,-7.91752 -3.438929,-10.00606 1.137484,-2.44777 3.864802,-4.0805 6.841605,-4.09574 1.978532,-0.0103 1.576827,-0.20246 5.626767,2.69366 4.228638,3.0239 13.475392,6.8365 17.959595,7.40502 1.128888,0.14311 4.650252,0.43852 7.825252,0.65645 18.16967,1.24714 29.2975123,1.24781 39.1262597,0.003 12.5775663,-1.59373 27.4040583,-6.45724 33.3535333,-10.94085 4.91177,-3.7016 12.45816,-12.43053 18.259623,-21.12092 5.145013,-7.70705 7.400866,-12.11005 10.75187,-20.98556 5.628896,-14.90882 6.586913,-17.05628 10.496562,-23.52858 4.205727,-6.96247 9.052739,-15.575 17.832339,-31.68586 C 110.30148,104.70643 114.61176,97.551733 123.03512,85.562293 129.33083,76.60125 135.39601,68.6901 145.45883,56.31381 157.10416,41.991213 159.80087,39.02144 177.71793,20.788372 195.2662,2.9306077 198.4588,-0.12942505 207.00315,-7.2806791 c 1.65806,-1.3877123 3.01465,-2.5876184 3.01465,-2.6664611 0,-0.078843 -2.74205,-0.068298 -6.09344,0.023347 -10.90029,0.2983602 -18.89146,1.3123846 -27.90151,3.5405802 -21.1964,5.2418669 -42.38464,16.610187 -61.83232,33.175502 -2.25778,1.923165 -5.77914,4.848218 -7.82525,6.500142 -3.34159,2.697814 -8.17213,6.709885 -22.321212,18.539177 -27.245706,22.778667 -43.132789,32.248249 -59.354921,35.378786 -8.861059,1.71001 -23.8970369,2.987091 -38.396587,3.261205 -23.157666,0.437778 -41.866818,-2.057938 -53.237371,-7.101634 -2.29539,-1.018181 -4.809092,-2.58672 -8.338383,-5.203151 C -84.965648,70.988826 -92.530152,64.169311 -107.3539,49.254766 -118.55686,37.98317 -126.81179,31.147235 -139.16804,22.909297 -158.55763,9.9822117 -175.45486,2.521719 -191.63571,-0.25634807 c -6.64939,-1.14161443 -10.7159,-1.35446133 -22.96263,-1.20183043 -12.95246,0.1614568 -18.80485,0.53588866 -31.49343,2.0149126 -2.57528,0.30020746 -4.68232,0.6189903 -4.68232,0.7084547 0,0.089464 1.18341,0.5466644 2.6298,1.0159999 9.98758,3.2408089 20.93406,9.2827503 32.51343,17.9458683 9.7017,7.258345 18.43078,15.142376 32.46505,29.32222 11.66686,11.787883 18.52014,19.431332 27.6892,30.881626 17.28311,21.583147 34.36115,47.733317 48.75902,74.660597 11.456374,21.42608 18.329613,33.37476 21.150989,36.76966 2.678776,3.22331 3.099569,3.89156 3.099569,4.92224 0,2.62287 -3.680331,4.29031 -7.312121,3.31287 -1.734255,-0.46672 -5.762413,-4.80291 -10.950607,-11.78796 -2.46652,-3.32078 -5.95561,-7.88123 -7.75352,-10.13434 -4.46534,-5.59598 -7.1435,-9.69769 -9.97614,-15.27897 -4.1362,-8.14978 -8.31193,-15.01994 -14.3334,-23.58228 -1.70067,-2.41829 -2.92051,-4.45642 -7.17922,-11.99514 -5.10979,-9.04527 -8.88928,-14.66183 -14.97676,-22.25638 -15.26681,-19.046325 -35.96871,-37.098207 -59.64954,-52.013907 -13.86201,-8.731211 -32.4721,-18.568528 -44.12929,-23.32682 -5.9036,-2.409792 -7.32602,-3.644027 -8.47164,-7.350887 -0.74951,-2.425187 -1.53147,-8.278501 -1.53303,-11.475643 -0.004,-8.9947292 4.06523,-26.18319 8.88946,-37.545379 2.34514,-5.52332 5.94955,-11.081635 9.42907,-14.540396 2.58413,-2.56871 4.46696,-3.719201 7.10397,-4.340783 3.73236,-0.879789 6.36475,-0.347544 11.90641,2.407381 9.70578,4.825025 19.1269,10.551801 37.58687,22.847709 6.19778,4.12827 5.99548,4.002065 5.87015,3.661885 -0.0536,-0.145422 -2.77122,-3.192164 -6.0392,-6.770537 -3.26798,-3.578398 -7.23364,-8.007054 -8.81262,-9.841498 -3.38936,-3.93777 -9.79606,-12.384244 -10.52158,-13.871401 -0.99096,-2.031333 -0.50625,-4.576336 1.02213,-5.366686 1.55164,-0.802384 2.95143,-0.280375 5.74418,2.142092 1.64425,1.426274 6.11821,3.659832 6.522,3.256049 0.0655,-0.06553 -1.25882,-1.94446 -2.94299,-4.175427 -6.65188,-8.811413 -11.5874,-17.139944 -13.44761,-22.692204 -0.42713,-1.274926 -0.73803,-2.356581 -0.69093,-2.403687 0.0471,-0.04713 1.60923,0.485859 3.47141,1.184384 3.67579,1.378861 9.10203,2.944399 11.14452,3.215358 l 1.28096,0.169923 -1.60364,-2.183245 c -4.4743,-6.091458 -9.64589,-15.346961 -9.91644,-17.747338 -0.16982,-1.506554 0.4671,-3.243888 1.51132,-4.122548 0.65286,-0.549358 1.02824,-0.648701 2.45085,-0.648701 2.2167,0 7.57148,1.099538 10.09601,2.073102 2.21454,0.85403 4.31361,2.505235 4.85925,3.822494 0.33725,0.814263 0.28946,1.845246 -0.26196,5.647677 -0.4114,2.837052 -0.18365,14.034859 0.37839,18.60319 2.25285,18.311577 7.8869,34.414355 15.64224,44.707281 2.27864,3.024242 7.05584,7.711953 9.51528,9.337014 2.21121,1.461064 6.02929,3.3940298 6.02929,3.0524126 0,-0.1382632 -0.53166,-1.0732906 -1.18149,-2.0777966 -8.65452,-13.378539 -9.32716,-40.999061 -1.40233,-57.584567 1.57031,-3.286452 2.96513,-5.144706 5.77744,-7.69697 1.24389,-1.128888 3.38036,-3.111371 4.7477,-4.405514 2.97403,-2.814858 3.54651,-3.017725 6.1487,-2.178961 2.22406,0.716871 7.26517,3.768308 24.65139,14.92173 33.516504,21.50115 43.329857,26.697656 62.24131,32.958909 9.673013,3.202555 17.740847,4.829746 24.093028,4.859302 3.851922,0.01796 4.239516,-0.02579 6.285858,-0.708608 3.063522,-1.022209 5.015089,-2.118027 6.687306,-3.754941 4.721988,-4.622364 2.139809,-11.07345 -7.688964,-19.209352 -1.044812,-0.864857 -1.980302,-1.572465 -2.078849,-1.572465 -0.09857,0 -0.167383,1.298864 -0.152887,2.886364 0.02232,2.443402 -0.0547,3.043869 -0.501663,3.912626 -0.591332,1.149337 -2.270811,2.180807 -3.550894,2.180807 -3.684077,0 -14.351948,-5.037384 -27.35,-12.914744 -2.328102,-1.410932 -8.447193,-5.235094 -13.597979,-8.498173 -5.150786,-3.263053 -10.418027,-6.59271 -11.70496,-7.39925 -2.676493,-1.677323 -4.715651,-3.683333 -4.715651,-4.638963 0,-0.890206 1.08617,-2.077027 2.372283,-2.592083 2.199409,-0.880867 13.435034,-2.224321 22.514584,-2.692092 17.007736,-0.876249 34.715127,0.752122 44.715953,4.112106 2.691117,0.904112 3.40968,0.891206 5.699195,-0.102524 2.127494,-0.923405 3.41453,-0.899185 4.354535,0.08197 0.718076,0.749505 0.733931,0.831581 0.943443,4.87898 0.187729,3.626684 0.732751,7.53051 1.103027,7.900785 0.07012,0.07012 1.176995,-0.871245 2.45972,-2.091933 6.6041025,-6.284653 16.9902902,-11.165583 29.830631,-14.018747 9.662595,-2.147044 17.225124,-2.983294 37.267878,-4.121008 7.294905,-0.414097 10.456769,0.160764 11.650133,2.118129 1.383786,2.269708 0.666121,3.054747 -10.896241,11.919372 -5.626612,4.313818 -11.539527,8.60965 -17.959594,13.048031 -2.822222,1.951079 -6.747677,4.70703 -8.723232,6.124324 -4.467475,3.205044 -8.205046,5.484219 -10.819168,6.59756 -1.67776,0.714535 -2.333798,0.857442 -3.977768,0.866396 -2.192584,0.01206 -2.926182,-0.338281 -3.993803,-1.906898 -0.7650021,-1.123963 -1.0466342,-2.190352 -1.4077247,-5.330331 -0.1663315,-1.446389 -0.4007299,-2.629798 -0.5209052,-2.629798 -0.1201753,0 -1.3496379,1.097614 -2.7321418,2.439144 -2.1539712,2.090087 -2.6840358,2.778452 -3.7042691,4.810606 -3.03504324,6.045174 -2.92566931,11.948955 0.2892008,15.610505 2.2949796,2.61384 6.9400749,3.634253 12.093555,2.656661 4.730942,-0.897441 6.966604,-1.891582 21.187165,-9.421168 35.281547,-18.681108 50.708711,-27.182847 57.653583,-31.772267 5.977364,-3.950085 9.281776,-5.209976 16.412916,-6.257919 3.05241,-0.448553 4.69028,-0.947856 7.10086,-2.164721 5.48935,-2.771011 11.72395,-2.297032 17.01092,1.293296 3.3889,2.301368 5.32361,4.727222 7.47874,9.377423 5.26334,11.356929 6.61223,22.892454 4.03033,34.466823 -1.58716,7.115206 -5.32697,15.436502 -10.77019,23.964513 -1.70272,2.667719 -3.05615,4.8900902 -3.00764,4.9386324 0.12882,0.1288216 5.74512,-3.7348004 9.06382,-6.2352894 4.24047,-3.19496 7.99297,-6.513457 12.03614,-10.644036 6.10272,-6.234622 9.59248,-11.014106 12.92316,-17.69918 3.28117,-6.585681 4.86669,-12.195669 5.45448,-19.299484 0.76893,-9.292551 -1.49539,-20.242336 -5.95717,-28.807728 -1.90844,-3.663681 -2.17388,-4.819766 -1.37016,-5.96723 0.68062,-0.971717 1.88966,-1.313077 4.64055,-1.310178 4.88452,0.0051 10.19312,0.654422 13.56807,1.659467 2.91984,0.869501 5.5216,3.162787 5.90465,5.204562 0.35539,1.894404 -0.25528,3.394953 -5.21036,12.803087 -2.65394,5.038975 -4.96088,9.515353 -5.12652,9.947512 -0.38151,0.995321 -0.4211,2.849213 -0.0746,3.496553 0.15532,0.290253 0.53553,0.496275 0.91581,0.496275 1.68399,0 6.81146,-2.756156 13.82768,-7.432783 1.83445,-1.222741 3.49738,-2.319687 3.69542,-2.437682 0.30136,-0.179544 0.33664,0.116173 0.21639,1.813329 -0.17077,2.409793 -0.70333,4.079086 -1.91437,6.000634 -1.21609,1.929502 -4.27092,5.001568 -7.53356,7.576025 -3.90673,3.082713 -8.26585,8.000794 -11.11786,12.543545 -0.78866,1.256145 -1.4339,2.441042 -1.4339,2.633056 0,0.55041 1.20799,-0.04898 8.638,-4.286083 3.70191,-2.111073 6.79414,-3.838324 6.87163,-3.838324 0.0775,0 0.14088,0.573244 0.14088,1.273874 0,4.939042 -4.72794,9.941431 -22.4495,23.75259 -13.54664,10.557497 -17.85658,14.185104 -22.73338,19.1343577 -2.94845,2.9922481 -6.07665,6.77828458 -5.81596,7.03898092 0.0743,0.0743014 2.18984,-1.43602352 4.70123,-3.35626342 16.90352,-12.9247502 33.97461,-24.5039942 43.29086,-29.3640142 4.62339,-2.411871 5.55521,-2.743585 10.57543,-3.764485 2.66103,-0.541149 5.96218,-1.440231 8.46667,-2.30591 9.70698,-3.355237 11.96009,-3.91591 16.55798,-4.120239 2.74299,-0.121894 3.53211,-0.06317 5.35983,0.399037 3.55249,0.898339 5.08172,2.013117 8.31948,6.064596 6.81584,8.528883 8.88735,14.450957 8.88481,25.399998 -0.003,13.2529241 -1.74526,19.3677043 -7.02599,24.660423 -1.97102,1.975504 -5.06695,4.215245 -7.58403,5.486681 -0.62949,0.317962 -3.28494,1.439462 -5.90101,2.492253 -11.87614,4.779228 -22.10544,11.14026 -34.50393,21.455969 -11.95226,9.944484 -25.94974,24.216487 -39.6536,40.431358 -10.97213,12.982555 -25.26125,31.162441 -31.67411,40.298561 -3.79309,5.40384 -12.74346,18.88878 -15.32618,23.09091 -10.106117,16.44293 -29.99819,52.82348 -36.894777,67.47676 -6.937355,14.73985 -8.951446,18.72675 -12.711313,25.16222 -6.95393,11.90238 -14.177202,20.02156 -21.550616,24.22346 -5.379027,3.0654 -12.631701,4.28216 -16.176849,2.71395 -2.073897,-0.91737 -3.4222,-3.75173 -3.095772,-6.50786 0.452223,-3.81831 3.425074,-6.93754 11.26259,-11.81708 2.471651,-1.53883 3.400367,-2.25334 3.400367,-2.61607 0,-0.86399 -1.19752,-0.72365 -4.14415,0.4857 -7.604709,3.1211 -15.0481397,4.53144 -23.91592054,4.53144 -8.87073136,0 -13.77382946,-1.00746 -21.20053246,-4.35613 -4.784538,-2.15733 -8.385514,-3.59741 -8.995473,-3.59741 -0.692779,0 0.500765,1.17082 3.735878,3.66466 7.979653,6.15126 10.764853,11.40621 9.770071,18.4335 -0.517288,3.65418 -2.177473,6.12604 -4.602429,6.85256 -0.952833,0.28548 -3.563465,0.34841 -4.911076,0.1184 z M 5.0218512,81.581318 C 23.791321,80.552002 35.385651,77.631259 44.53296,71.628059 51.224602,67.236476 55.605974,62.008515 57.61206,56.021838 58.340271,53.848676 58.47761,53.03408 58.584906,50.252293 58.765272,45.576358 57.940285,42.300169 55.470199,37.883212 52.059518,31.78439 43.802338,24.789333 35.422724,20.900106 24.25709,15.717788 10.706833,13.246573 -6.5236026,13.250268 c -25.2278174,0.0054 -44.0893424,4.649405 -57.4552324,14.146516 -2.995686,2.128571 -6.510687,5.436908 -8.205457,7.723062 -1.550169,2.091036 -3.194396,5.461846 -3.764485,7.717469 -0.660117,2.611838 -0.397984,6.960549 0.582353,9.660568 3.625247,9.98456 15.601243,19.223745 30.99939,23.915228 13.372329,4.074262 32.616343,6.08802 49.3888852,5.168207 z m -24.2454532,-9.76884 c -14.90182,-0.918017 -27.098437,-3.719149 -36.688886,-8.426128 -5.179393,-2.542053 -7.507547,-4.076238 -9.656669,-6.363495 -4.941429,-5.25898 -5.360323,-12.303298 -1.111468,-18.690756 3.149882,-4.735329 8.199581,-8.289892 16.284298,-11.462814 8.669276,-3.402342 18.054524,-5.751842 28.478786,-7.129395 5.285098,-0.698397 17.7267872,-0.98357 22.77530625,-0.522008 C 14.164029,20.434414 25.0732,23.901693 34.37568,29.870975 c 9.020053,5.788044 13.712766,11.431077 14.184411,17.056894 0.450324,5.371484 -2.9933,10.40815 -10.569555,15.459055 -8.300129,5.533531 -19.570699,8.455274 -36.4323209,9.444617 -4.9981809,0.293255 -15.8738701,0.283274 -20.7818171,-0.01899 z M -79.901376,20.027577 c 2.348756,-0.684953 6.534035,-2.669078 8.533579,-4.045527 4.212936,-2.900141 8.041434,-6.8102522 14.315747,-14.62088 4.175375,-5.1977633 7.819915,-8.9940111 9.405978,-9.7974977 2.983859,-1.5116335 7.501236,-1.7379243 13.302877,-0.666378 1.933582,0.3571137 3.55913,0.6057772 3.612316,0.5525654 0.05319,-0.053186 -1.43551,-1.256094 -3.30826,-2.6731057 -3.68636,-2.789305 -5.497226,-4.551962 -6.306819,-6.138872 -0.826809,-1.620725 -3.945954,-4.377189 -6.122965,-5.411046 l -1.900253,-0.902419 -1.975684,0.916299 c -3.398699,1.576288 -4.641067,1.841243 -8.646416,1.844091 -2.521527,0.0026 -4.239978,-0.137057 -5.766595,-0.465975 -5.298542,-1.14164 -11.991185,-3.747731 -21.30108,-8.294561 -10.30832,-5.03446 -14.089759,-7.311557 -31.027069,-18.683649 -18.12216,-12.167677 -27.48457,-17.617336 -35.2198,-20.500724 -5.20245,-1.939251 -6.88306,-0.768568 -3.76741,2.624308 2.86756,3.122711 5.72786,7.981577 7.80145,13.252462 0.38859,0.987777 1.60107,4.335959 2.69435,7.440403 2.64355,7.506392 6.87945,18.657556 8.74706,23.02692 11.01247,25.7642706 25.5007,39.910966 43.97243,42.935952 1.317541,0.215746 3.660319,0.30616 6.542423,0.252435 3.687978,-0.06873 4.833569,-0.18388 6.414141,-0.644801 z M 72.498615,13.996104 c 17.55263,-2.339263 31.387415,-13.01547215 39.001265,-30.097022 1.79198,-4.020307 2.77645,-7.169907 5.11276,-16.357163 2.44468,-9.613515 4.47869,-16.689338 6.08453,-21.166665 2.22625,-6.207093 6.1379,-13.349162 10.36048,-18.916508 l 1.31744,-1.737026 -0.79789,-0.08084 c -1.6782,-0.170078 -7.07059,1.570541 -12.71596,4.104537 -5.78653,2.597368 -14.35534,7.306784 -30.274748,16.638974 -16.746116,9.816817 -22.524949,12.95069 -30.403028,16.487704 -8.960042,4.022769 -19.05336,7.774503 -23.604039,8.773749 -1.295349,0.284429 -4.06246,0.49158 -8.466666,0.633769 -9.76494,0.315293 -10.379645,0.63482 -12.565174,6.531212 -1.01151,2.72896 -2.331181,4.952255 -5.532299,9.32049 -0.6463148,0.881945 -1.0782174,1.603536 -0.9598124,1.603536 0.118405,0 1.1431534,-0.391314 2.2772254,-0.869604 5.124129,-2.161104 8.951575,-2.462773 12.028362,-0.948061 1.973349,0.97146 4.40908,3.1794638 6.565617,5.9517838 6.420966,8.2544094 8.73216,10.7597472 12.574538,13.6309477 4.675576,3.4938335 10.558498,5.7300345 17.297399,6.5751105 2.84362,0.3566 9.754369,0.313651 12.7,-0.07892 z M -147.50642,268.00715 c -5.36977,-1.31578 -10.69802,-6.83466 -14.88815,-15.42081 -1.71296,-3.5101 -3.24342,-7.68714 -4.2302,-11.54545 -0.32481,-1.27 -0.66953,-2.40066 -0.76605,-2.51255 -0.0965,-0.11191 -0.62654,0.57256 -1.17784,1.521 -0.60899,1.04766 -2.34294,3.13282 -4.41791,5.31276 -3.08582,3.24188 -3.53712,3.83807 -4.67532,6.17594 -1.35151,2.77607 -2.25901,6.06193 -2.94299,10.656 -0.21949,1.47422 -0.43949,2.72082 -0.48888,2.77024 -0.25018,0.25015 -3.43983,-4.17735 -4.29645,-5.96379 -1.7555,-3.66109 -2.56168,-8.91512 -2.02741,-13.21313 1.26885,-10.20778 5.69627,-19.41153 12.91346,-26.84472 4.81715,-4.96132 9.62801,-7.97309 15.19572,-9.51307 2.33965,-0.64714 2.93855,-0.70836 6.79899,-0.69504 5.48075,0.019 6.97715,0.24446 27.70909,4.17648 17.31017,3.28304 25.381626,3.62129 31.912863,1.33745 1.990436,-0.69601 7.591393,-3.61652 10.805313,-5.63421 7.227916,-4.53762 11.437184,-8.28761 14.489417,-12.90838 0.866884,-1.31241 2.909044,-5.09937 4.538133,-8.41548 7.25211,-14.76209 8.668609,-17.55291 10.823991,-21.32579 5.660043,-9.90761 9.981224,-15.87469 15.405432,-21.27324 5.402914,-5.37736 10.139372,-8.45689 13.007801,-8.45733 1.525283,-2.3e-4 2.156435,0.50392 2.156435,1.72258 0,1.0989 -1.412394,3.0956 -5.405607,7.64186 -1.859178,2.11667 -3.884071,4.5535 -4.499777,5.41521 -1.142666,1.59922 -2.82389,4.90368 -2.605809,5.12176 0.06643,0.0664 0.974744,-0.64703 2.018505,-1.58542 8.680282,-7.80398 18.997941,-12.70151 28.1229292,-13.34921 6.1295584,-0.43508 12.863842,1.99444 17.6301388,6.36042 3.138747,2.87512 7.329516,8.78383 7.329516,10.3341 0,2.61048 -4.390582,6.17253 -9.774484,7.93001 -7.3232556,2.39055 -13.7659267,1.60541 -17.2318976,-2.10002 -1.5868841,-1.69651 -2.1981774,-2.93724 -1.7269176,-3.50507 0.5572605,-0.67146 2.4589764,-1.68315 3.9069815,-2.07849 1.0782684,-0.29438 7.1843254,-0.81249 10.1379347,-0.86021 1.0086878,-0.0164 0.6288424,-0.423 -1.1545454,-1.23611 -3.090641,-1.40913 -4.52119966,-1.72022 -7.8893934,-1.71553 -3.6746614,0.005 -5.5795843,0.50452 -9.4069022,2.46619 -5.952297,3.0508 -12.00504,8.82963 -19.072525,18.20936 -2.782506,3.69283 -7.836746,11.19327 -13.98057,20.74695 -4.748953,7.38468 -6.889608,10.24644 -10.245949,13.6974 -9.243085,9.5037 -19.682535,14.52318 -34.269806,16.47757 -4.580184,0.61365 -13.414427,0.6096 -19.242427,-0.009 -6.19282,-0.65715 -13.03053,-0.46429 -16.75286,0.47251 -6.29789,1.58499 -10.83654,4.18885 -16.22367,9.30772 -4.3015,4.08729 -6.96265,7.89406 -7.85145,11.23152 -0.46297,1.73843 -0.44037,4.71696 0.0504,6.64525 0.79187,3.11117 4.55245,9.94621 7.60774,13.82743 l 0.75738,0.96212 -2.39481,-0.0218 c -1.31713,-0.0121 -2.97206,-0.16328 -3.67761,-0.33618 z M -23.7135,223.45147 c -14.840065,-0.57717 -25.203752,-1.94084 -29.233449,-3.84659 l -1.603355,-0.75828 2.36828,-2.50082 c 5.4239,-5.72749 10.897292,-13.41736 15.200693,-21.35629 1.22836,-2.26612 2.70528,-2.47235 9.932477,-1.38694 3.628146,0.54486 15.305141,0.62607 21.1666655,0.14719 12.3830893,-1.01172 26.9752085,-3.95191 31.8659145,-6.42074 5.725339,-2.89013 13.461794,-11.02229 22.348432,-23.49148 1.819179,-2.5526 6.37481,-9.20152 10.123593,-14.77541 6.417887,-9.54245 9.368109,-13.68778 12.964364,-18.21616 0.840484,-1.05833 2.59411,-3.82924 3.896976,-6.15758 2.900115,-5.1828 6.32737,-10.95343 10.133162,-17.06161 1.582574,-2.54 4.35846,-7.10046 6.168659,-10.134344 16.481058,-27.622473 30.441438,-46.26579 47.069378,-62.858582 7.86348,-7.846855 15.29316,-14.331603 23.73658,-20.717701 1.97556,-1.494187 3.64003,-2.754874 3.69883,-2.801518 0.0588,-0.04664 0.042,-0.149731 -0.0374,-0.229087 -0.23963,-0.239632 -4.39597,0.843357 -6.80055,1.772022 -9.23272,3.565672 -21.23127,12.065204 -38.6811,27.400825 -3.37389,2.965104 -7.23456,6.777951 -12.53936,12.383936 -28.70418,30.333961 -48.003381,45.367861 -62.57849,48.748059 -10.798438,2.50431 -29.5129,3.68318 -53.9346649,3.39747 -28.3109921,-0.33123 -52.9613311,-2.07913 -62.4737331,-4.42991 -8.356138,-2.065048 -18.928489,-7.387785 -29.727672,-14.966631 -9.53033,-6.68841 -16.26803,-12.392531 -39.41677,-33.370287 -16.76015,-15.188327 -23.11533,-20.284028 -31.68585,-25.40631 -5.47165,-3.270186 -16.41302,-8.417277 -17.27919,-8.128538 -0.14021,0.04672 3.77685,3.713403 8.70456,8.148165 14.1234,12.710519 22.99364,21.665378 29.57224,29.854337 3.72649,4.638656 5.99507,7.949841 9.24555,13.49466 4.65192,7.935447 9.18905,14.723328 15.77737,23.604039 4.42658,5.966819 5.56109,7.742075 8.73529,13.669095 6.89905,12.88214 10.0271,17.24073 29.133827,40.59454 8.827424,10.78958 13.197506,16.28986 19.365421,24.37373 l 3.523621,4.61819 -0.113325,1.67042 c -0.304672,4.49069 -5.490197,12.90204 -9.002118,14.60212 -1.854098,0.89755 -3.980616,0.57861 -5.209848,-0.78139 -1.281622,-1.41799 -5.781963,-8.37803 -8.606392,-13.31035 -3.249455,-5.67454 -4.707825,-8.45925 -13.033356,-24.88686 -8.84859,-17.45976 -12.10194,-23.61618 -16.84756,-31.88123 -16.52229,-28.775484 -35.73539,-53.280658 -60.76891,-77.507074 -24.7213,-23.924284 -35.08355,-32.550765 -44.18512,-36.7836102 -1.44874,-0.6737927 -2.63413,-1.2958618 -2.63418,-1.382427 -2.1e-4,-0.3112911 2.98204,-1.4759965 4.47278,-1.7468528 1.93099,-0.3508279 10.7791,-0.3581144 15.29552,-0.012572 25.37027,1.9408935 45.37418,9.497419 67.21594,25.391044 8.93872,6.504478 18.52574,14.565104 30.651,25.770941 19.941079,18.429033 27.153909,24.079635 37.364067,29.27142 7.315764,3.719997 12.557605,5.292334 21.311907,6.392667 18.831687,2.366997 43.0764219,2.835384 66.271495,1.280314 7.234766,-0.485063 13.946216,-1.082836 15.90707,-1.416858 C 39.837937,90.167543 48.520939,86.18762 57.874373,79.964338 67.342877,73.664523 75.523729,67.077534 92.510734,52.076192 102.29766,43.433265 105.22982,40.958074 113.86705,34.048094 136.48637,15.952135 149.49676,7.5780633 163.7116,1.9659465 c 8.6711,-3.4234066 18.67492,-5.7123826 28.73145,-6.574084 5.1561,-0.441806 4.93209,-0.6002096 2.55963,1.8097627 -1.12558,1.1433848 -4.80027,4.3929169 -8.166,7.2211682 -8.45486,7.1047136 -11.12779,9.5547606 -18.51347,16.9697646 -10.17123,10.211697 -21.32584,22.801502 -34.00936,38.385247 -16.02545,19.689848 -24.69683,31.963256 -30.90582,43.743925 -8.678054,16.46533 -14.085714,25.75296 -21.637261,37.16195 -1.272156,1.92198 -2.826405,4.44908 -3.453887,5.61578 -0.627508,1.16668 -3.134155,5.81581 -5.570348,10.33136 -2.436193,4.51556 -6.562744,12.36647 -9.170118,17.44646 -9.116341,17.76161 -12.559196,23.49095 -18.285895,30.42997 -7.333108,8.88551 -16.908599,14.72233 -28.369207,17.29276 -7.2731481,1.63122 -8.6040054,1.73836 -22.418654,1.80489 -6.985,0.0336 -15.182272,-0.0354 -18.21616,-0.15341 z m -3.032144,-33.88011 c -2.476962,-0.28771 -3.682667,-0.62889 -4.503061,-1.27421 -1.070546,-0.8421 -0.900468,-1.70408 0.630792,-3.19722 1.883705,-1.83677 5.179163,-5.98352 7.230661,-9.09843 l 1.774229,-2.69394 1.451263,-0.20918 c 0.798227,-0.11504 8.147653,-0.24245 16.3320967,-0.28314 10.3824161,-0.0516 15.3849333,-0.16908 16.5484833,-0.38854 2.023893,-0.38177 3.997858,-1.30282 7.055556,-3.29215 3.870395,-2.51807 6.625653,-5.43175 8.79117,-9.29668 0.86342,-1.54099 2.813576,-6.22598 3.524314,-8.46667 0.246175,-0.77611 0.532322,-1.50424 0.635846,-1.61808 0.10355,-0.11384 1.119832,0.66935 2.258394,1.74041 2.91184,2.73927 5.134084,6.308 6.993132,11.23042 l 0.847745,2.24466 -0.621248,1.34035 c -2.129752,4.59479 -7.979346,10.0516 -14.607462,13.62659 -9.203703,4.96421 -23.5364856,8.54825 -38.609768,9.65475 -4.181764,0.30695 -13.018166,0.29633 -15.732143,-0.019 z m -35.887709,-19.34241 c -1.241701,-0.86973 -2.352476,-3.62671 -3.182338,-7.89868 -0.79443,-4.0896 -0.539558,-6.36991 0.92692,-8.29253 l 0.688161,-0.90227 1.105079,1.87596 c 1.411265,2.39568 2.58082,3.74055 4.776534,5.49248 2.572763,2.05276 2.625513,2.76881 0.406169,5.51208 -0.751198,0.92851 -1.616877,2.22237 -1.923755,2.87523 -0.780883,1.66126 -1.704288,2.10294 -2.79677,1.33773 z m 2.992863,-21.60508 c -5.396293,-3.00474 -13.510105,-14.40244 -30.890503,-43.39279 -1.382144,-2.3054 -2.604628,-4.09494 -2.716671,-3.97677 -0.112016,0.11817 -0.448964,1.0179 -0.748761,1.99939 -0.922892,3.02155 -1.791033,3.42007 -3.518233,1.61498 -3.078252,-3.2171 -6.503892,-10.403072 -6.503892,-13.643214 0,-0.786502 0.0728,-1.43002 0.16174,-1.43002 0.0889,0 1.96509,1.020849 4.169195,2.268579 6.964166,3.942311 9.036755,5.065042 13.049929,7.069 9.907103,4.947125 18.265755,7.849525 25.905843,8.995375 6.859744,1.02877 26.03877,1.5495 56.2607656,1.52748 27.0362974,-0.0198 40.5542274,-0.31159 45.4121184,-0.98061 11.483211,-1.58142 22.74031,-6.38782 33.795904,-14.429693 5.099883,-3.709657 9.783617,-7.580539 17.836648,-14.741158 2.362893,-2.101042 4.369672,-3.820083 4.459496,-3.820083 0.08982,0 0.10768,0.866807 0.03969,1.926218 -0.108091,1.684251 -0.30226,2.29208 -1.545756,4.838597 -3.167791,6.487262 -10.094114,16.512821 -12.364796,17.897479 -1.176149,0.71723 -1.721094,0.59572 -2.951762,-0.658244 -1.452803,-1.480306 -2.323485,-1.851582 -3.347464,-1.427428 -1.867977,0.773751 -3.699189,3.703682 -7.183145,11.492982 -4.049709,9.05421 -7.414388,14.64179 -13.318938,22.11827 -2.491996,3.15543 -9.154134,9.81628 -11.391053,11.3889 -1.611617,1.13299 -5.326046,3.04992 -5.524756,2.85119 -0.04739,-0.0474 0.05729,-2.02964 0.232628,-4.40503 0.276168,-3.74168 0.263442,-4.79896 -0.09508,-7.91082 -0.785835,-6.82077 -2.531995,-11.15781 -5.9104,-14.68002 -2.297391,-2.39516 -3.392003,-3.1145 -6.146056,-4.03901 -2.44176,-0.81967 -5.055985,-0.85505 -11.129073,-0.1506 -8.4207665,0.97675 -13.6571429,1.32634 -22.0227478,1.47025 -9.1535952,0.15748 -14.3619542,-0.0771 -21.8820472,-0.98537 -10.235994,-1.23633 -17.783309,-0.45299 -22.768148,2.36313 -1.535417,0.86742 -4.641683,4.00845 -5.568372,5.63072 -0.972872,1.70308 -1.946179,4.62126 -2.427214,7.2774 -0.580505,3.20543 -0.570063,10.44435 0.02181,15.13286 0.246688,1.95398 0.408093,3.5931 0.358704,3.64249 -0.04939,0.0494 -0.836737,-0.3261 -1.749649,-0.83443 z M -283.94423,53.62159 c -2.63429,-0.555285 -5.36094,-1.756859 -6.51438,-2.870765 l -0.81486,-0.786861 1.60351,-1.956492 c 5.46539,-6.668475 8.68526,-13.504512 9.99721,-21.22488 l 0.13521,-0.795662 -7.3622,0.123665 c -9.98356,0.167717 -17.04971,-0.377229 -27.63091,-2.130855 -23.38383,-3.875424 -39.95825,-11.264283 -46.31449,-20.6469144 -1.00717,-1.4866952 -2.91066,-5.3805663 -2.72234,-5.5688855 0.0401,-0.040153 1.41511,0.093493 3.05547,0.2970004 8.12905,1.00840562 14.89943,1.0888646 20.66115,0.2455077 7.90758,-1.1574189 14.18205,-4.5431617 20.79654,-11.2219502 l 2.14705,-2.167903 -1.24907,-0.146627 c -0.68698,-0.08066 -4.0777,-0.217029 -7.53492,-0.30303 -10.84544,-0.269778 -14.13564,-0.527576 -17.57475,-1.377039 -13.47441,-3.328169 -31.14727,-13.601596 -40.23454,-23.38878 -1.86398,-2.007549 -5.42678,-6.876318 -5.19874,-7.10438 0.0553,-0.05532 2.1032,0.163715 4.55078,0.486757 5.6563,0.746554 16.48606,0.812338 22.769,0.138289 2.17311,-0.233116 3.99842,-0.471158 4.05622,-0.528987 0.0578,-0.05781 -0.45019,-0.569884 -1.12891,-1.137946 -5.73273,-4.798265 -7.37057,-6.271593 -10.86802,-9.776485 -8.9234,-8.94239 -16.87286,-20.005629 -20.01379,-27.853099 -0.73901,-1.846426 -1.76954,-5.977698 -1.77812,-7.128343 -0.003,-0.332766 0.52146,-0.03312 1.98502,1.135251 7.99433,6.381891 18.10945,10.789355 28.54292,12.436969 4.15796,0.656602 14.77598,0.661246 18.98586,0.0082 13.0048,-2.017017 25.19837,-7.407256 35.4029,-15.650017 2.62806,-2.122824 8.24461,-7.778558 10.36274,-10.435008 0.95638,-1.19945 2.61754,-3.50854 3.69144,-5.13132 2.64712,-3.99998 3.5228,-5.05496 4.69023,-5.65055 1.13425,-0.57866 3.0695,-0.66206 5.17087,-0.22285 1.99077,0.41607 48.50738,12.2116 50.61373,12.83447 3.41717,1.01045 5.6808,2.55154 6.96399,4.741149 0.3538,0.603724 1.25455,2.691553 2.00167,4.639656 1.55333,4.050299 2.56322,6.143002 4.15845,8.617142 0.61696,0.956887 1.12175,1.793932 1.12175,1.8601 0,0.06614 -0.67179,0.120278 -1.49288,0.120278 -1.98245,0 -3.57201,-0.967483 -8.06314,-4.907536 -5.28068,-4.632754 -8.40037,-7.0319 -8.9057,-6.848763 -0.1253,0.04541 0.29146,1.756654 0.92618,3.802765 3.95945,12.764217 10.71282,26.195967 17.1421,34.093853 l 1.75137,2.151431 -1.12797,-0.153837 c -0.62035,-0.08461 -2.20195,-0.231063 -3.51464,-0.325479 l -2.38668,-0.171642 0.17403,0.739704 c 0.0957,0.406836 0.58954,1.836523 1.09738,3.177078 0.80744,2.131368 0.93506,2.78266 1.01647,5.18768 l 0.0931,2.750307 -3.67853,-1.751086 c -9.87426,-4.700437 -17.19739,-6.973352 -22.37732,-6.945335 -3.57073,0.01924 -4.51487,0.565317 -9.74072,5.633181 -5.36346,5.201356 -8.61268,9.213375 -10.4931,12.956565 -1.62519,3.235139 -5.28959,13.760821 -6.83304,19.627272 -3.03165,11.5230295 -3.45832,23.5218348 -1.17571,33.064614 0.97102,4.059459 1.98551,5.771983 5.49456,9.275207 3.58833,3.582324 7.00711,5.997889 17.69582,12.50306 0.29726,0.180904 0.17834,0.505947 -0.6311,1.725455 -4.07426,6.138128 -11.73565,10.646961 -20.50929,12.070002 -3.20325,0.519546 -8.17362,0.459176 -10.98486,-0.133414 z M 241.31881,48.2186 c -11.70466,-0.855313 -21.4493,-3.474541 -26.26424,-7.059455 -1.03561,-0.771031 -1.18911,-0.985135 -0.89798,-1.252554 0.19311,-0.177389 6.93201,-3.877759 14.97535,-8.223031 15.8469,-8.561031 16.43664,-8.902494 19.51756,-11.301075 6.12063,-4.765066 9.81312,-10.7969495 10.90838,-17.8193563 0.59359,-3.8059203 -0.10748,-11.4191978 -1.57598,-17.1146467 -2.21424,-8.587689 -7.01063,-17.750494 -12.86528,-24.57727 -5.30037,-6.180461 -9.33855,-9.044067 -15.21499,-10.789483 -1.80188,-0.535196 -3.051,-0.714843 -5.68664,-0.817777 -5.5293,-0.215977 -9.14775,0.514696 -19.84456,4.007196 -6.439,2.10235 -10.33228,3.195781 -10.89219,3.059109 -0.19532,-0.0477 1.05346,-2.65879 3.26498,-6.82675 1.96968,-3.712222 3.51564,-6.815153 3.43541,-6.895355 -0.0802,-0.0802 -1.78285,-0.01257 -3.78365,0.150347 -2.0008,0.162919 -3.67776,0.256232 -3.72661,0.207382 -0.0489,-0.04885 1.17761,-2.036182 2.72547,-4.416316 4.49608,-6.913571 5.54474,-9.422937 7.82086,-18.714744 1.49416,-6.099643 2.14179,-10.485094 1.75927,-11.913061 l -0.23214,-0.866653 -1.2593,2.132599 c -2.67308,4.526793 -6.49683,9.031188 -8.58171,10.109328 -1.16062,0.600184 -3.75738,0.872349 -3.5452,0.371584 0.0842,-0.198582 0.69463,-1.573312 1.35665,-3.054979 0.66201,-1.481666 1.81397,-4.570357 2.55988,-6.863746 1.59607,-4.907331 2.09437,-5.831481 4.26474,-7.909329 1.36762,-1.309331 2.41256,-1.951254 6.50414,-3.995674 20.89481,-10.4404 40.44306,-12.6685 56.97163,-6.4936 5.96161,2.22719 10.55201,5.03908 17.17584,10.521217 8.81293,7.29393 19.02763,11.837297 30.65959,13.636976 4.49298,0.695165 14.25774,0.633153 19.24243,-0.12215 10.94401,-1.658338 22.71575,-5.959533 33.86666,-12.37429 3.6596,-2.105249 10.94509,-6.895043 13.98283,-9.192923 1.52313,-1.15216 2.07526,-1.45001 2.14063,-1.1548 0.0485,0.21879 -0.0441,1.53521 -0.20572,2.92533 -0.80135,6.89297 -4.19664,13.037692 -11.17127,20.217527 -4.36742,4.495902 -8.72688,8.042563 -15.00909,12.210806 -5.47735,3.634175 -8.96492,5.652936 -14.8373,8.588509 -4.06738,2.033282 -11.6118,5.354884 -14.34751,6.316877 -0.74109,0.260593 -1.26063,0.555516 -1.15454,0.655397 0.53673,0.505383 6.73649,1.418192 12.12319,1.784927 12.01189,0.817828 27.62845,-1.51012 40.39074,-6.021057 1.82436,-0.644826 3.37166,-1.117754 3.43847,-1.05097 0.0668,0.06681 -0.61769,1.347098 -1.52105,2.845108 -6.28553,10.422799 -15.70562,18.890312 -27.93169,25.10718 -19.13082,9.72784 -43.71712,12.951433 -62.59652,8.207252 -1.89715,-0.47675 -3.49402,-0.822138 -3.54859,-0.767593 -0.35645,0.356473 2.50675,3.274035 5.14042,5.23807 6.04153,4.505344 16.88643,8.170718 28.54034,9.646047 8.69909,1.101283 12.13737,1.15452 17.31818,0.268137 5.08839,-0.870553 8.49299,-0.787734 9.89961,0.240812 0.4376,0.319963 0.41448,0.421897 -0.41815,1.844887 -0.5,0.8545432 -2.2145,2.8457748 -3.96271,4.6023258 -4.81189,4.83490252 -10.41089,8.337434 -17.7499,11.1036478 -1.85879,0.7006294 -7.34289,3.2818337 -12.18687,5.7360124 -7.49256,3.796094 -9.41999,4.660284 -12.91228,5.789404 -12.43151,4.01928 -23.40158,5.887847 -36.30404,6.183719 l -7.05556,0.161816 -0.44832,1.795703 c -1.0485,4.199774 -0.77932,7.666566 0.86224,11.104725 0.67631,1.416448 1.43523,2.327615 4.25643,5.110223 3.40503,3.358445 3.42851,3.389566 2.84516,3.771156 -1.16302,0.760768 -2.57536,1.202831 -5.02456,1.572773 -3.17349,0.479342 -11.03743,0.668046 -15.19094,0.364529 z m -418.85673,-78.847881 c -5.53099,-2.575534 -9.44828,-15.823558 -10.02373,-33.899505 -0.55388,-17.397998 3.0364,-33.929934 9.54316,-43.942694 2.84888,-4.38393 8.50651,-9.27454 12.55247,-10.8507 1.28132,-0.49912 2.01256,-0.59954 4.36162,-0.59892 2.41672,0 3.07307,0.0963 4.568,0.6662 2.3916,0.91168 5.30957,2.721 7.92126,4.91171 1.20426,1.01015 3.15865,2.65166 4.34309,3.6478 3.00225,2.52499 6.62657,5.23443 11.1333,8.32294 4.9109,3.365475 6.94316,4.911463 12.31515,9.368316 23.881853,19.813564 48.758791,37.680615 62.986869,45.238321 6.101491,3.241014 13.170002,4.992048 20.140403,4.989252 2.965745,0 3.882659,-0.09652 5.259596,-0.546767 0.917222,-0.299925 1.770174,-0.546793 1.89543,-0.548614 0.325017,-0.0046 -0.02768,2.62913 -0.515287,3.84774 -0.226137,0.565214 -0.986725,1.545115 -1.690151,2.177575 -1.854303,1.667164 -3.770438,2.224117 -8.169435,2.374567 -9.480332,0.324222 -18.831944,-2.600858 -36.419544,-11.391566 -15.800518,-7.897501 -31.045391,-17.471581 -48.490911,-30.453238 -6.45591,-4.803987 -9.65754,-6.972351 -13.2787,-8.993216 -5.05935,-2.823454 -9.76823,-4.726735 -15.0718,-6.091869 -3.26223,-0.839688 -3.45065,-0.858289 -8.59495,-0.849053 -6.06634,0.01103 -7.55367,0.299977 -11.63633,2.261447 -4.15313,1.995337 -4.22276,1.941252 2.51142,1.950591 4.64176,0.0064 6.19922,0.09655 7.37626,0.426823 0.82065,0.230268 1.49209,0.529988 1.49209,0.66607 0,0.136083 -1.16722,1.477459 -2.5938,2.980831 -3.64616,3.84243 -5.66677,6.612235 -7.42188,10.173828 -3.64106,7.388526 -4.78744,13.708585 -4.5297,24.971842 0.14199,6.204886 0.40066,8.834761 1.48052,15.052398 0.2941,1.693333 0.59818,3.454015 0.67579,3.912626 0.17665,1.044248 -0.26147,1.090815 -2.12021,0.225265 z m 328.54562,0.146935 c 0,-0.13149 0.29562,-1.548682 0.65694,-3.149292 4.914,-21.768748 2.1698,-37.892821 -8.35391,-49.084855 -1.86828,-1.986947 -4.8895,-4.503625 -7.3426,-6.116448 l -1.63212,-1.07306 0.70302,-0.748556 c 1.68138,-1.790264 4.26666,-1.866952 9.36211,-0.277681 0.96012,0.299463 0.36401,-0.469131 -1.5394,-1.984946 -3.75124,-2.987322 -6.7117,-3.950418 -11.48131,-3.735031 -5.07323,0.229113 -9.14829,1.607383 -18.30863,6.192365 -9.79814,4.904227 -16.412194,8.688673 -48.655003,27.839399 -20.45662,12.150282 -34.647573,20.171601 -42.073892,23.781942 -7.946068,3.863006 -12.873591,4.39307 -15.350604,1.651333 -1.4154983,-1.566821 -1.5616894,-3.702191 -0.4081959,-5.963201 0.3917501,-0.76785 0.6307153,-0.982005 0.9553221,-0.856108 2.7024058,1.048019 5.2400198,1.129196 8.6061608,0.275294 5.268678,-1.336501 8.937105,-3.271648 19.279292,-10.170056 11.11178,-7.411745 22.419449,-16.028913 37.3303,-28.44805 3.316111,-2.761954 10.251696,-8.541326 15.412411,-12.843034 5.160741,-4.301708 10.928799,-9.091299 12.817939,-10.643519 1.88915,-1.55223 6.16687,-5.49959 9.50607,-8.77193 6.41763,-6.28912 8.52129,-7.93124 12.45998,-9.72615 6.14434,-2.80005 11.9623,-3.15147 16.41402,-0.99139 1.68594,0.81808 4.90443,4.15048 6.95737,7.20361 2.92554,4.35092 4.80075,8.78933 5.94945,14.08182 1.52618,7.031715 1.96213,8.749063 3.09371,12.186863 1.19835,3.640615 2.34874,6.439875 5.242,12.755418 3.18642,6.955468 3.85049,10.268757 3.66563,18.289025 -0.31334,13.593566 -4.26037,23.490098 -11.6995,29.334612 -0.86162,0.676897 -1.56656,1.123141 -1.56656,0.991626 z M -67.714508,-93.911761 c -9.285367,-0.204534 -13.79302,-0.481086 -29.500892,-1.810019 -9.61241,-0.813236 -11.20042,-0.80731 -12.60615,0.04716 -1.06923,0.649906 -1.5701,0.615141 -3.20478,-0.222443 -0.76072,-0.3898 -9.5804,-6.703067 -19.59928,-14.029497 -19.50523,-14.26344 -20.30825,-14.77849 -24.66186,-15.81789 -3.03492,-0.72459 -8.47822,-0.5873 -11.25733,0.28389 -7.18164,2.25126 -13.96572,8.27527 -19.06701,16.93077 -2.72696,4.6269 -3.6244,5.17865 -8.68367,5.33897 -3.74853,0.11879 -8.02671,-0.35044 -12.58432,-1.38027 -1.49046,-0.33679 -8.43803,-2.45536 -15.43899,-4.70795 -22.17212,-7.13394 -34.36563,-10.81296 -48.5883,-14.66006 -10.46821,-2.83156 -32.87809,-10.36397 -44.44579,-14.9391 -24.83083,-9.82087 -38.33798,-22.54129 -41.87659,-39.43745 -0.65229,-3.11447 -0.64349,-12.89334 0.0159,-17.57474 1.86323,-13.23061 5.37318,-21.13537 10.62849,-23.93642 4.21388,-2.24598 11.75948,-2.04765 22.60156,0.59405 5.82681,1.4197 10.17262,2.73011 21.79858,6.57303 13.2481,4.37914 16.46772,5.09178 26.47157,5.85927 1.905,0.14616 3.90478,0.38816 4.44393,0.53781 1.51702,0.42102 2.93411,1.85784 3.36568,3.41255 0.20081,0.72339 0.9068,3.24243 1.56889,5.59786 1.22454,4.35643 1.28881,5.15384 0.48058,5.96209 -0.58238,0.58236 -1.3091,0.50729 -4.53824,-0.46892 -2.96759,-0.89713 -7.15033,-1.79127 -12.76124,-2.72794 -1.76389,-0.29446 -4.29575,-0.77033 -5.62636,-1.05748 -5.07674,-1.09559 -16.97928,-4.92057 -25.52343,-8.2022 -2.52737,-0.97069 -4.71791,-1.76492 -4.86784,-1.76492 -0.14997,0 0.53245,0.8146 1.51643,1.8102 9.63527,9.74909 31.35907,18.45564 75.16685,30.12574 3.52778,0.93977 8.37687,2.27058 10.77576,2.95735 8.7893,2.51624 14.49586,3.74863 20.78182,4.488 18.47786,2.17347 33.97575,4.56602 62.34545,9.62486 34.52547,6.15649 39.59942,7.02951 46.94274,8.07707 7.61584,1.08645 18.277835,1.68268 39.51988,2.21008 13.35301,0.33153 59.3758567,0.16412 71.8383787,-0.26131 29.1358253,-0.99463 47.5544923,-1.9146 67.3484803,-3.36394 113.923741,-8.34161 194.209621,-27.9764 234.722331,-57.40389 1.46227,-1.06216 4.63381,-3.54174 7.04781,-5.51016 11.27883,-9.19693 15.96121,-11.62635 25.5457,-13.25421 11.99193,-2.03674 21.34213,1.36547 25.25966,9.19111 1.6411,3.27829 2.09037,5.46205 2.08908,10.15456 -0.003,5.04852 -0.37789,6.50948 -4.76368,18.48471 -1.24275,3.39326 -2.6261,7.49189 -3.07411,9.10808 -3.44196,12.41647 -10.97737,21.84697 -22.71568,28.4285 -4.54724,2.54957 -6.83897,3.39226 -19.21921,7.06707 -9.79139,2.90638 -16.39113,5.18948 -22.70606,7.85486 -5.61814,2.37128 -19.9403,6.07524 -44.001,11.37946 -31.10654,6.85746 -58.00588,11.778 -80.86618,14.79242 -8.67713,1.14418 -9.63815,1.19644 -11.11728,0.60459 -1.32013,-0.52819 -1.72519,-1.30802 -2.081,-4.00622 -0.34762,-2.63621 -1.44046,-5.49781 -2.86312,-7.49713 -1.25306,-1.76099 -4.30589,-4.48541 -7.10127,-6.33735 -2.404,-1.59268 -8.47621,-4.58521 -11.04084,-5.44122 -2.56309,-0.85546 -6.80918,-1.70246 -8.50698,-1.69695 -1.87115,0.006 -4.58369,0.61196 -6.05348,1.35213 -1.42361,0.71692 -16.70725,11.79409 -19.64344,14.23706 -1.1831,0.98434 -3.75058,3.73041 -6.263612,6.69934 -6.599638,7.79685 -7.725242,8.84369 -10.204205,9.49036 -0.564445,0.14724 -4.25899,0.39185 -8.210101,0.54359 -11.169303,0.42887 -19.975533,1.22581 -31.175034,2.821194 -7.292904,1.03886 -18.429213,2.447508 -24.243144,3.06655 -2.681111,0.285455 -5.856111,0.693779 -7.055555,0.90737 -2.859014,0.509129 -5.130851,0.49122 -7.6053753,-0.05993 -3.1656095,-0.705094 -12.4040507,-0.579787 -23.4390667,0.317885 -8.429388,0.685723 -9.701876,0.722822 -26.682827,0.777932 -9.807222,0.03184 -21.872221,-0.03112 -26.811109,-0.139905 z m 19.242423,-62.347429 c -62.220165,-1.87187 -105.742095,-7.44948 -165.356555,-21.1915 -13.30511,-3.06703 -25.96991,-6.17307 -28.13776,-6.90079 -4.62534,-1.55269 -8.14868,-4.08856 -9.96916,-7.17522 -1.14542,-1.942 -2.09666,-4.92442 -3.4376,-10.77783 -1.24601,-5.43907 -2.98991,-11.87653 -5.13955,-18.97234 -0.85274,-2.81478 -1.73407,-5.98978 -1.95854,-7.05556 -2.73545,-12.98799 4.19782,-24.21471 19.8785,-32.18821 6.37573,-3.242 12.0985,-5.31387 22.83903,-8.26863 13.79405,-3.7948 24.90799,-8.02358 35.54948,-13.52633 7.39346,-3.82317 11.68487,-6.66294 15.37149,-10.17176 4.1634,-3.9626 5.18301,-6.37667 3.50192,-8.29132 -1.54794,-1.76302 -6.08541,-3.16657 -9.38107,-2.90182 -3.06247,0.24602 -3.66029,0.58584 -7.46683,4.24451 -5.44068,5.22931 -8.56393,7.62254 -14.58829,11.1784 -5.00073,2.95166 -5.14704,3.01744 -11.38421,5.11806 -3.06378,1.03184 -6.08522,2.13767 -6.71435,2.4574 -0.62912,0.31972 -2.29841,1.47334 -3.70952,2.5636 -7.57549,5.85299 -10.96819,7.13865 -14.49596,5.49325 -2.7892,-1.30091 -5.56835,-2.37522 -8.55572,-3.30729 -9.00343,-2.80911 -12.48097,-5.638 -12.46576,-10.14065 0.01,-2.99123 1.25751,-5.31886 4.85784,-9.06454 2.73689,-2.84737 5.30575,-4.96706 10.00606,-8.2565 4.56184,-3.19253 6.3256,-4.65412 10.36053,-8.58554 5.22235,-5.08838 11.07155,-11.73099 18.81953,-21.37221 3.18908,-3.96834 4.29606,-5.92175 6.34766,-11.20116 3.49309,-8.98878 7.59478,-15.16647 15.01315,-22.61182 4.88065,-4.8984 6.82236,-6.45859 13.85711,-11.13426 5.37366,-3.57162 11.45619,-8.01923 16.75594,-12.25209 5.69681,-4.55 14.48205,-9.92096 23.39658,-14.3038 6.18539,-3.04105 9.52582,-4.47901 22.13761,-9.52956 11.06696,-4.43192 14.986566,-6.25007 21.478549,-9.96308 16.453093,-9.41015 28.761496,-19.11883 39.375257,-31.05864 4.002758,-4.50283 5.562369,-5.84599 9.434304,-8.12494 7.908507,-4.65479 19.490624,-7.82845 32.226081,-8.8304 4.9791691,-0.39173 18.4842969,-0.16438 23.643139,0.39803 18.527246,2.01978 36.957254,6.73552 58.330583,14.92519 35.866697,13.74313 65.436067,26.82522 100.098697,44.28567 11.62181,5.85421 15.81291,7.75525 23.34748,10.59018 9.37693,3.52814 18.37089,6.27654 35.66262,10.89791 16.87876,4.511 23.05011,6.4099 31.04444,9.55226 4.65454,1.82958 13.30093,6.13154 16.42056,8.16995 2.11061,1.3791 3.79569,2.17097 4.05913,1.90752 0.26993,-0.26992 -0.51698,-2.19913 -1.49342,-3.66138 -3.00305,-4.49707 -10.33718,-10.86471 -18.00657,-15.6336 -8.37169,-5.20561 -16.11604,-8.27312 -22.24255,-8.8102 -4.71126,-0.41301 -6.18967,-1.03803 -6.18967,-2.61681 0,-1.38713 1.39179,-2.29387 11.41717,-7.43815 5.22111,-2.67908 11.22475,-5.86584 13.34141,-7.08169 7.64661,-4.39231 11.56121,-6.15604 16.38641,-7.3829 3.69686,-0.93995 5.68686,-1.03259 8.54918,-0.39798 5.4579,1.21006 8.48119,2.88726 18.03916,10.00741 8.61067,6.41446 13.71453,10.61299 21.03838,17.30656 18.16649,16.6031 27.44398,28.38599 32.76112,41.60831 2.8779,7.15662 4.36244,14.541 5.33847,26.55493 0.4855,5.97603 0.48455,8.69185 -0.005,13.57114 -1.19326,11.89892 -4.13501,21.88166 -9.77977,33.1872 -4.15013,8.31212 -10.83161,18.79097 -17.22107,27.00859 -14.38409,18.49966 -35.35325,35.55679 -57.9172,47.11204 -9.89661,5.0682 -25.8209,12.20049 -35.14949,15.74308 -2.11667,0.80382 -5.29167,2.01801 -7.05556,2.69822 -4.04753,1.56087 -6.49409,2.30827 -7.55593,2.30827 -1.62409,0 -2.17463,-1.61993 -1.13354,-3.33535 0.63198,-1.04128 1.91521,-2.63019 4.46109,-5.52371 2.51098,-2.85383 3.85328,-4.80221 6.18128,-8.97225 3.23229,-5.78992 8.16238,-16.671 10.37947,-22.90826 0.9546,-2.68555 0.91832,-3.22565 -0.50138,-7.46624 -1.20355,-3.59487 -2.76378,-7.03075 -4.18154,-9.2084 -0.57694,-0.88615 -1.00432,-1.64966 -0.94973,-1.69672 0.0546,-0.0471 1.08063,-0.52052 2.28008,-1.05217 6.7937,-3.01119 12.11877,-6.21588 19.28142,-11.60377 8.16263,-6.1401 14.45239,-12.14904 21.17028,-20.22514 5.74574,-6.9074 7.52053,-10.1245 11.87417,-21.52395 2.43817,-6.38406 3.01318,-9.48072 2.29216,-12.34416 -0.52981,-2.104 -1.40858,-1.2701 -3.05601,2.89998 -3.24727,8.21968 -7.91844,15.48367 -13.57122,21.10428 -9.94646,9.8898 -20.29016,16.43368 -37.69134,23.84519 -6.45794,2.75057 -9.50381,3.84102 -14.02572,5.02136 -7.83524,2.0452 -13.37723,2.1868 -19.91784,0.50893 -10.60519,-2.72056 -17.29552,-7.39273 -20.94042,-14.62366 -2.80532,-5.56533 -3.14475,-13.58741 -0.95889,-22.66245 0.35108,-1.45769 0.63836,-2.72042 0.63836,-2.80608 0,-0.0857 -0.35647,0.18335 -0.7922,0.59781 -1.23769,1.17735 -3.52965,4.77988 -4.49064,7.05852 -4.62116,10.95718 -1.65013,22.25089 8.39924,31.92761 5.31484,5.11777 9.34646,7.73955 20.63706,13.4203 8.42772,4.24036 13.09586,7.12329 15.61787,9.6453 2.01602,2.01604 2.70544,3.40678 2.70544,5.45764 0,2.00873 -0.3847,3.04895 -2.28313,6.17381 -2.16341,3.56096 -3.54338,6.54399 -4.00537,8.65825 -1.27378,5.82904 -1.39708,6.08525 -5.22484,10.85644 -3.49624,4.35803 -4.87774,5.92046 -8.7495,9.89546 -12.74208,13.08182 -25.38709,20.77974 -39.90181,24.29104 -7.35979,1.78044 -41.27104,6.6868 -64.52625,9.33584 -26.899835,3.06419 -48.838147,4.75008 -82.357575,6.32886 -7.317996,0.34469 -62.230792,0.51143 -71.966662,0.21851 z M 326.37737,-279.18327 c 4.83688,-4.98033 8.44709,-9.80275 11.84548,-15.82295 8.67741,-15.37182 12.05097,-32.76322 9.30908,-47.99035 -2.16201,-12.00674 -8.31209,-22.80353 -17.16689,-30.13731 -1.39441,-1.15488 -2.25513,-1.20569 -4.30812,-0.25431 -1.21974,0.56525 -1.98287,0.71307 -4.30479,0.83384 l -2.82222,0.1468 -0.0847,0.74152 c -0.0698,0.61196 0.17672,1.00813 1.41111,2.26721 0.82267,0.83912 2.20382,2.03567 3.06921,2.65902 4.04966,2.91693 8.01204,8.50491 12.74016,17.96685 4.51088,9.02727 6.51448,18.86154 5.58684,27.42196 -1.36357,12.58325 -5.62707,22.84871 -17.20244,41.41914 -1.83668,2.9466 -3.33941,5.43643 -3.33941,5.53295 0,0.33938 2.46703,-1.90175 5.26665,-4.78437 z m -474.54868,-64.24034 c 7.55724,-1.05405 16.49945,-4.61708 22.63974,-9.02082 2.23078,-1.5999 6.88878,-6.21561 6.88878,-6.82625 0,-0.33072 -0.31657,-0.26069 -1.73182,0.38307 -11.94644,5.43412 -26.64118,8.88697 -35.34191,8.30435 -1.90287,-0.12742 -3.25051,-0.40025 -5.21673,-1.05613 -2.75448,-0.91882 -5.05803,-1.15442 -5.636,-0.57645 -0.86496,0.86496 0.17675,3.44774 2.1725,5.3864 3.27067,3.17712 9.09692,4.40009 16.22544,3.40583 z m 7.33559,-17.80696 c 7.94879,-1.39288 17.09821,-4.51756 23.25278,-7.9412 1.46319,-0.81394 4.62308,-2.73561 7.02197,-4.27038 8.92659,-5.71107 14.090508,-7.80801 30.567128,-12.41254 6.427662,-1.79627 9.851428,-3.3191 14.938586,-6.64443 2.341418,-1.53052 5.27327,-3.87556 5.08313,-4.06573 -0.06566,-0.0656 -4.95182,1.50224 -10.85814,3.48417 -7.939219,2.66409 -12.410927,4.00867 -17.152927,5.15764 -15.026767,3.64093 -27.111007,7.84974 -37.638287,13.109 -4.30991,2.15316 -10.94911,5.13175 -13.93141,6.25016 -4.49539,1.68584 -6.94056,2.18562 -10.69311,2.18562 -3.67867,0 -4.69975,0.29321 -4.98548,1.43166 -0.31584,1.25845 0.86485,3.10761 2.59375,4.06226 1.06846,0.58998 7.54331,0.40003 11.80201,-0.34623 z m -17.8175,-8.62688 c 4.01633,-4.1497 15.89439,-8.7197 40.267,-15.49246 8.25387,-2.29361 9.59953,-2.79304 16.74437,-6.21447 16.537811,-7.91942 40.521054,-21.70088 59.122473,-33.97349 7.036851,-4.64268 8.835864,-5.70141 13.428055,-7.90246 7.746897,-3.71313 13.589051,-5.18245 26.6692804,-6.70738 3.17307554,-0.36992 6.9858719,-0.89166 8.472875,-1.15942 2.8816683,-0.51889 7.9179496,-1.92023 8.3228356,-2.31581 0.414379,-0.40486 -8.1825712,-0.26188 -16.7922213,0.27927 -4.4449997,0.27939 -10.9104537,0.57033 -14.3676757,0.64654 -8.100137,0.17854 -10.486685,0.45004 -13.928795,1.58458 -4.64353,1.53054 -8.159454,3.45415 -24.299486,13.2946 -4.444999,2.71008 -9.92909,5.99793 -12.186867,7.30634 -2.257778,1.30841 -8.145959,4.75055 -13.084848,7.64921 -12.082138,7.09107 -18.047007,10.40653 -23.860606,13.26251 -6.699,3.29095 -9.76507,4.49636 -15.69145,6.16907 -14.45801,4.08074 -19.56711,6.11297 -23.81966,9.47466 -4.75008,3.755 -4.48366,3.58496 -12.44343,7.94237 -1.48167,0.8111 -2.96895,1.72341 -3.30505,2.02735 -1.2493,1.1297 -1.90647,3.42072 -1.3041,4.54626 0.39624,0.74038 1.06893,0.60394 2.0573,-0.41727 z"
       id="path447" /></g></svg>
