<?xml version="1.0" encoding="UTF-8" standalone="no"?>
<!-- Created with Inkscape (http://www.inkscape.org/) -->

<svg
   width="1282.8282mm"
   height="1282.8282mm"
   viewBox="0 0 1282.8282 1282.8282"
   version="1.1"
   id="svg241"
   xml:space="preserve"
   inkscape:version="1.2.2 (732a01da63, 2022-12-09)"
   sodipodi:docname="Jake Jeckle.svg"
   xmlns:inkscape="http://www.inkscape.org/namespaces/inkscape"
   xmlns:sodipodi="http://sodipodi.sourceforge.net/DTD/sodipodi-0.dtd"
   xmlns="http://www.w3.org/2000/svg"
   xmlns:svg="http://www.w3.org/2000/svg"><sodipodi:namedview
     id="namedview243"
     pagecolor="#505050"
     bordercolor="#eeeeee"
     borderopacity="1"
     inkscape:showpageshadow="0"
     inkscape:pageopacity="0"
     inkscape:pagecheckerboard="0"
     inkscape:deskcolor="#505050"
     inkscape:document-units="mm"
     showgrid="false"
     inkscape:zoom="0.13055262"
     inkscape:cx="3856.6826"
     inkscape:cy="2175.3681"
     inkscape:window-width="1920"
     inkscape:window-height="1009"
     inkscape:window-x="-8"
     inkscape:window-y="-8"
     inkscape:window-maximized="1"
     inkscape:current-layer="layer1" /><defs
     id="defs238" /><g
     inkscape:label="Layer 1"
     inkscape:groupmode="layer"
     id="layer1"
     transform="translate(1900.1047,819.74872)"><path
       style="fill:#000000;stroke-width:0.256566"
       d="m -1341.3047,436.15322 c -3.57,-0.54864 -5.7291,-1.08255 -9.0886,-2.24749 -3.923,-1.36036 -5.7135,-2.36974 -7.4888,-4.22176 -1.8427,-1.92242 -2.5169,-3.14511 -3.194,-5.79256 -0.9411,-3.67966 -0.547,-7.96349 1.5308,-16.64123 0.7889,-3.29448 1.0507,-4.91351 1.0507,-6.49732 v -2.10946 l -1.4052,-1.47317 c -2.7142,-2.84552 -9.3055,-5.29349 -13.7366,-5.10171 -2.926,0.12667 -4.6206,0.94355 -8.5906,4.141 -3.8099,3.06858 -6.288,4.35731 -9.7494,5.0702 -5.2458,1.08037 -8.272,0.2931 -11.3565,-2.95448 -5.7664,-6.07119 -9.2991,-17.92727 -10.711,-35.94777 -0.6648,-8.48417 -0.389,-16.12708 0.8979,-24.88687 4.5847,-31.20721 22.0203,-56.02706 49.0069,-69.76174 7.3594,-3.7455 14.6614,-6.39038 23.7965,-8.61932 l 4.4257,-1.07989 v -12.86548 c 0,-10.28646 -0.079,-13.35409 -0.3921,-15.30286 -0.8236,-5.13264 -2.3282,-9.54016 -6.5053,-19.05628 -2.9032,-6.61411 -3.3658,-8.18096 -3.5472,-12.01641 -0.2623,-5.543 1.0132,-9.02472 4.5357,-12.38085 2.5096,-2.39107 4.7797,-3.56116 8.3308,-4.29409 2.9622,-0.61135 4.7677,-0.60878 8.3988,0.0121 3.3768,0.57729 5.7496,1.29211 11.1092,3.34666 7.5924,2.91049 15.7354,5.37 22.1461,6.68903 2.4789,0.51008 8.0651,1.26764 9.3472,1.26764 h 0.7132 v -4.96975 -4.96978 l -1.9884,-0.70469 c -4.4225,-1.56738 -7.6293,-3.59977 -10.5526,-6.68807 -5.9929,-6.33107 -6.9675,-15.00778 -2.6517,-23.60797 2.4577,-4.89758 6.2923,-8.87104 12.6151,-13.07196 4.9774,-3.30701 8.4668,-6.10047 12.6941,-10.16229 4.0008,-3.84422 7.5161,-7.88436 10.0847,-11.59038 1.0566,-1.52459 1.9683,-2.7249 2.0258,-2.66741 0.057,0.0575 0.2754,0.99758 0.4842,2.08899 0.5692,2.97457 0.4577,6.79293 -0.39,13.35644 -1.2113,9.37951 -1.1248,10.38745 1.6626,19.37071 2.4979,8.05041 3.9868,14.80481 3.9785,18.04924 -0.01,2.13855 -0.8971,5.88836 -1.8053,7.59237 -1.0963,2.05693 -4.1767,4.98748 -6.5297,6.21209 -2.0148,1.04859 -5.1551,2.09571 -7.6804,2.56101 l -1.6843,0.31035 v 4.73812 4.7381 l 9.942,-0.14893 c 7.1121,-0.10656 13.1186,-0.37113 21.1025,-0.92954 6.1383,-0.42931 12.4883,-0.78212 14.1111,-0.78399 3.5733,-0.004 7.3566,0.57194 9.153,1.39369 4.1291,1.88884 6.2385,6.51885 5.9083,12.9685 -0.2834,5.5353 -2.1671,10.28389 -6.1389,15.47545 -5.74,7.50259 -5.3305,5.80561 -5.3305,22.0894 0,9.90782 0.074,12.97809 0.3207,13.30336 0.1764,0.23258 2.3412,1.07473 4.8106,1.87145 16.9642,5.47311 29.3044,12.88282 40.4126,24.26585 11.8635,12.15697 20.5503,27.63204 25.9036,46.14599 4.2428,14.67356 6.4782,31.56617 6.2267,47.05576 -0.123,7.58264 -0.4157,9.9481 -1.7491,14.13723 -0.9527,2.99296 -2.1402,4.94312 -4.4217,7.26152 -2.0424,2.07547 -3.8785,3.10884 -7.5676,4.25915 -2.2686,0.70735 -5.0799,0.88543 -6.3507,0.40229 -0.3787,-0.14401 -1.4279,-0.93923 -2.3314,-1.76717 -1.872,-1.71537 -4.4489,-3.16366 -6.6479,-3.73644 -1.9328,-0.50344 -6.1398,-0.50705 -8.7506,-0.007 -2.8365,0.54268 -6.8316,1.82467 -8.802,2.8244 -2.0704,1.05048 -3.3659,2.36489 -4.2595,4.32172 -0.6097,1.33535 -0.673,1.73269 -0.5718,3.59192 0.1579,2.89904 0.7877,4.18653 3.2818,6.70865 2.2902,2.31592 3.0662,3.74409 3.0745,5.65822 0.014,3.32104 -3.9994,7.75924 -9.2535,10.23166 -5.9337,2.79228 -14.8145,3.81208 -24.6357,2.82902 -4.487,-0.44912 -6.4966,-0.89941 -8.2457,-1.84766 -1.724,-0.93464 -3.8529,-3.25545 -4.4146,-4.81265 -1.6154,-4.47815 -3.2164,-6.79899 -4.6902,-6.79899 -1.0567,0 -3.2754,2.49879 -4.9081,5.52775 -2.9629,5.49662 -4.7163,7.53934 -7.6476,8.9094 -2.4006,1.12206 -3.6905,1.33219 -11.3578,1.85043 -10.1395,0.68534 -19.7732,0.39331 -25.7997,-0.78204 -5.4409,-1.06113 -7.8488,-3.5276 -9.8774,-10.11767 -1.5129,-4.91454 -2.4504,-6.15757 -4.6443,-6.15757 -2.0693,0 -3.3953,1.54486 -5.0117,5.83938 -1.5628,4.15195 -4.0272,7.39848 -6.7347,8.87209 -1.548,0.84251 -5.2146,1.81826 -8.7861,2.33809 -3.7418,0.54463 -11.2219,0.49358 -15.1044,-0.10309 z m 20.6535,-10.22875 c 2.4014,-1.09333 3.5432,-2.52361 5.9247,-7.42188 1.9221,-3.95337 2.3389,-4.61552 3.9152,-6.22023 2.0006,-2.0366 3.0298,-2.56861 4.9685,-2.56833 3.6108,0 7.2595,3.18321 10.1517,8.85498 0.9939,1.9491 3.3554,4.27164 5.1864,5.10091 0.7761,0.35152 2.6233,0.88718 4.105,1.19039 2.4272,0.49671 3.2656,0.53894 8.4667,0.42662 9.8279,-0.21229 17.4569,-1.86454 24.2378,-5.24934 3.1866,-1.59063 5.6968,-3.75994 7.1894,-6.21299 1.9744,-3.24489 3.915,-4.03763 6.6728,-2.72588 1.4658,0.69724 3.4694,2.69432 6.4797,6.45875 3.64,4.55192 5.7112,5.98232 10.2266,7.06256 1.8904,0.45228 2.7832,0.5225 5.23,0.41141 3.7206,-0.16893 6.2557,-0.82489 9.825,-2.54223 3.0897,-1.48662 4.9793,-3.16325 5.5649,-4.93776 0.6181,-1.87293 0.2009,-5.85137 -1.1584,-11.04469 -0.8378,-3.20128 -1.2485,-5.33221 -1.3385,-6.94542 l -0.1298,-2.32723 0.8624,-0.98221 c 0.4743,-0.54019 1.2357,-1.13817 1.692,-1.32883 1.0236,-0.42766 2.8905,-0.44652 4.238,-0.0428 1.5312,0.45876 2.9182,-0.026 6.7808,-2.36964 5.6327,-3.41779 9.1274,-4.60615 13.5365,-4.6031 3.778,0.003 6.1607,0.64978 10.9747,2.98076 3.4026,1.64758 4.2838,1.96945 5.704,2.08344 l 1.6797,0.13485 1.007,-1.00707 c 0.7528,-0.75274 1.1589,-1.49044 1.6082,-2.92113 0.5916,-1.88419 0.6009,-2.08416 0.591,-12.8181 -0.01,-8.73526 -0.1,-11.6695 -0.462,-14.75252 -1.9857,-16.90891 -6.297,-31.67275 -13.3554,-45.73429 -4.8738,-9.70937 -10.5847,-17.69895 -17.8455,-24.96591 -6.4833,-6.48886 -12.7985,-11.15784 -20.1556,-14.90154 -3.8646,-1.96658 -9.6643,-4.32452 -10.6368,-4.32452 -0.65,0 -0.6591,0.38177 -0.1319,5.54713 0.9565,9.37086 2.4489,13.90227 5.4111,16.43031 3.5379,3.01947 3.9592,3.49389 5.0405,5.67598 0.9979,2.01381 1.0803,2.34262 1.1743,4.68332 0.097,2.41126 0.065,2.59673 -0.7556,4.39692 -2.0659,4.53169 -5.8657,6.8843 -11.1141,6.88106 -2.9815,-0.003 -3.6383,-0.18775 -7.9628,-2.25413 -3.5822,-1.71168 -3.5847,-1.7124 -6.1731,-1.80822 -3.0242,-0.11194 -4.9272,0.28568 -7.7524,1.61993 -2.8596,1.35046 -3.9752,2.2186 -8.404,6.5395 -3.2251,3.14652 -4.49,4.20395 -5.901,4.93301 -3.56,1.83945 -6.3321,2.19161 -9.5145,1.20868 -1.4436,-0.44589 -2.0264,-0.80977 -3.3905,-2.11667 -1.3871,-1.32901 -1.9103,-2.10496 -3.3134,-4.91359 -0.9164,-1.83444 -1.914,-3.60636 -2.2168,-3.93759 -0.9368,-1.02457 -2.3223,-1.5788 -3.94,-1.57606 -4.1779,0.007 -7.3972,3.77013 -9.8022,11.4582 -1.5252,4.87549 -2.7565,7.17891 -5.1955,9.7195 -2.2325,2.32544 -3.5785,3.08482 -7.0339,3.96856 -2.882,0.73709 -8.3453,0.71977 -10.792,-0.0343 -3.4328,-1.05792 -4.9113,-2.27022 -6.2228,-5.1024 -1.5763,-3.40422 -1.6359,-7.28321 -0.2408,-15.66895 0.3039,-1.82672 0.491,-3.38287 0.4158,-3.45809 -0.075,-0.0753 -1.2769,0.31583 -2.6704,0.86906 -3.6753,1.45922 -8.5662,3.00315 -11.5133,3.63456 -3.7384,0.80092 -9.5729,0.97577 -12.8732,0.38577 -3.2268,-0.57683 -6.3922,-1.60969 -9.1006,-2.96957 -5.6523,-2.83787 -7.923,-5.48445 -7.9098,-9.21904 0.015,-4.38902 3.1441,-8.22188 13.7199,-16.80815 10.1247,-8.21996 11.9297,-10.34778 11.9301,-14.0636 2e-4,-1.59399 -0.067,-1.81902 -0.7497,-2.50151 -0.663,-0.66302 -0.9293,-0.74997 -2.2965,-0.74997 -2.3532,0 -3.9238,0.41751 -7.9859,2.12285 -12.4847,5.24133 -21.1273,11.01618 -29.9058,19.98246 -18.1826,18.57173 -29.3665,43.88914 -29.3597,66.46289 0,11.93054 4.2612,23.8524 9.458,26.48397 4.9997,2.53168 10.098,1.71065 14.5274,-2.3395 2.4576,-2.24718 4.8242,-3.41571 6.9175,-3.41571 2.9342,0 5.2845,0.97452 9.6801,4.01364 1.5075,1.04222 3.3547,2.18075 4.1051,2.53007 2.405,1.11963 4.668,0.76998 6.6591,-1.02888 1.0185,-0.92007 1.892,-1.11906 2.7939,-0.63641 0.3012,0.1612 0.7228,1.01556 1.1079,2.24495 1.0139,3.23711 1.2776,5.31986 1.1323,8.94336 -0.1167,2.90774 -0.2929,3.91938 -1.4697,8.43529 -1.5108,5.79823 -1.5575,6.87817 -0.3997,9.24465 1.878,3.83848 8.8353,7.77027 17.9667,10.15351 3.7129,0.96902 3.9751,1.00189 7.4405,0.93231 3.0947,-0.0622 3.7694,-0.15299 4.8747,-0.65619 z m 54.2929,-28.90564 c -3.1412,-1.01685 -3.864,-2.03138 -6.8516,-9.61685 -1.4674,-3.72554 -2.5521,-5.14068 -3.9404,-5.14068 -0.7097,0 -1.2299,0.38003 -3.4393,2.51232 -3.4352,3.31552 -6.0962,4.54688 -8.7498,4.04904 -1.1166,-0.20946 -2.6558,-1.50689 -3.1278,-2.63649 -0.7369,-1.76358 -0.4769,-3.08254 1.3296,-6.74501 1.9817,-4.01766 3.7601,-6.47136 6.6077,-9.11691 4.7856,-4.44589 8.1542,-4.71611 13.7056,-1.09941 5.2178,3.39937 10.5566,10.0359 14.47,17.98749 1.1915,2.42095 1.511,3.32368 1.5065,4.25624 -0.022,4.65428 -5.7486,7.41552 -11.5105,5.55026 z m -76.7976,-28.34996 c -3.0861,-0.65076 -4.5514,-1.16294 -7.4117,-2.59091 -5.7796,-2.88533 -10.1254,-7.68034 -11.9572,-13.19342 -0.6071,-1.82688 -0.6824,-2.44741 -0.6855,-5.64445 0,-1.97555 0.091,-4.35071 0.2067,-5.27812 0.1612,-1.29247 0.1131,-2.0206 -0.206,-3.11827 -0.229,-0.78766 -0.4163,-1.85097 -0.4163,-2.36294 0,-1.94457 1.3572,-3.73663 2.8299,-3.73663 0.3895,0 2.5415,0.90822 4.782,2.01825 4.7742,2.36528 9.5218,3.98924 19.9689,6.83068 9.0376,2.45805 14.1267,3.99124 17.1393,5.16346 7.7012,2.99658 14.0053,7.11195 17.7642,11.59648 2.2308,2.66162 3.251,4.44921 3.3951,5.94938 0.1094,1.13886 0.047,1.33296 -0.6605,2.04008 -1.2497,1.24968 -2.1973,1.10336 -6.4439,-0.99496 -4.3689,-2.15872 -6.5309,-2.71611 -9.742,-2.51165 -2.9664,0.18885 -4.2675,0.63746 -7.5844,2.61476 -3.2798,1.95523 -4.8084,2.57615 -7.9668,3.23642 -3.1678,0.6622 -9.8293,0.65291 -13.0118,-0.0182 z m 121.4108,-0.23917 c -3.0654,-0.67505 -4.6191,-1.31637 -7.8386,-3.23566 -3.3169,-1.9773 -4.618,-2.4259 -7.5844,-2.61476 -3.2111,-0.20446 -5.3731,0.35293 -9.742,2.51165 -4.2466,2.09832 -5.1942,2.24464 -6.4439,0.99496 -0.7071,-0.70712 -0.7699,-0.90121 -0.6605,-2.04008 0.1442,-1.50016 1.1643,-3.28776 3.3951,-5.94937 3.7589,-4.48454 10.063,-8.5999 17.7642,-11.59649 3.0126,-1.17222 8.1017,-2.7054 17.1393,-5.16346 10.4471,-2.84144 15.1947,-4.46539 19.9689,-6.83067 2.2405,-1.11003 4.3925,-2.01825 4.782,-2.01825 1.4727,0 2.83,1.79206 2.83,3.73662 0,0.51198 -0.1874,1.57529 -0.4164,2.36295 -0.3191,1.09766 -0.3672,1.82579 -0.206,3.11827 0.1156,0.92741 0.2087,3.30256 0.2067,5.27812 0,3.19704 -0.078,3.81757 -0.6855,5.64444 -2.4075,7.24552 -9.2389,13.18363 -17.7564,15.43463 -2.2694,0.59975 -3.1434,0.68783 -7.5687,0.76269 -4.1639,0.0705 -5.3688,0.004 -7.1838,-0.39559 z m -76.6956,-41.4869 c 3.1816,-0.94398 4.8549,-2.27271 5.7782,-4.58832 2.6412,-6.62355 5.6032,-12.12975 8.4869,-15.77665 1.8772,-2.37395 5.0829,-5.02287 7.624,-6.29972 1.4829,-0.74511 2.0386,-0.88746 3.4637,-0.8871 1.1018,0 2.0124,0.15779 2.5953,0.44899 1.8171,0.90776 2.2609,3.37705 1.2526,6.97033 -1.654,5.89472 1.6876,11.05356 7.1595,11.05279 2.6719,0 4.1737,-0.95627 9.0343,-5.75061 4.6745,-4.61064 5.9923,-5.47162 10.1344,-6.62126 1.8839,-0.52291 2.6321,-0.57089 9.1081,-0.58408 5.1461,-0.0105 7.2638,-0.10352 7.8252,-0.34382 1.2774,-0.54679 2.4213,-1.85027 2.8293,-3.22393 0.73,-2.4582 0.4915,-4.50416 -1.3037,-11.18518 -4.8339,-17.99005 -7.8653,-46.41547 -6.3832,-59.85502 0.7838,-7.10782 1.5027,-9.28878 3.8725,-11.74781 1.7589,-1.82513 2.5951,-3.48349 3.3253,-6.59484 0.4888,-2.08282 0.3571,-3.99175 -0.4167,-6.04104 -0.7469,-1.9781 -1.8397,-3.17161 -3.7171,-4.05979 -1.2899,-0.61022 -1.8738,-0.72942 -3.574,-0.72957 -1.8064,-1.8e-4 -2.5051,0.16294 -6.2859,1.46742 l -4.2536,1.46766 -6.2014,0.0916 c -8.7192,0.12877 -22.0132,-0.67515 -35.6187,-2.15397 -14.6729,-1.59481 -24.6868,-3.54474 -32.2046,-6.27093 -6.6299,-2.40422 -7.9177,-2.80185 -10.0673,-3.10832 -1.792,-0.25548 -2.6238,-0.25589 -4.1037,-0.003 -5.0715,0.86965 -7.6236,3.48632 -7.629,7.82184 0,3.10801 1.2054,6.23932 4.8726,12.61695 2.2569,3.92494 4.2215,7.9785 5.036,10.39091 l 0.7364,2.1808 0.072,27.32424 c 0.066,24.94629 0.036,27.42171 -0.3532,28.44436 -0.6283,1.65256 -3.3344,4.36231 -7.4163,7.42645 -4.1398,3.10754 -8.8276,7.64696 -10.3641,10.03595 -3.4382,5.3459 -2.4992,11.34263 2.0957,13.38464 1.9805,0.8801 6.4685,0.97346 11.7387,0.24415 9.4027,-1.30115 14.7761,-3.06086 20.0328,-6.56041 4.2661,-2.84 7.1426,-6.42015 9.6097,-11.96032 2.3679,-5.31722 4.069,-7.40472 6.0339,-7.40472 0.8232,0 1.2116,0.16631 1.8281,0.78286 0.7579,0.75785 0.779,0.84187 0.6613,2.6298 -0.2074,3.15129 -1.8501,6.41335 -6.0351,11.98454 -6.296,8.38136 -7.6816,10.56145 -8.7743,13.80495 -1.0251,3.04292 -0.5386,7.74772 0.9699,9.37907 0.3752,0.40578 1.3749,1.06954 2.2216,1.47504 1.8218,0.87258 4.0662,0.98801 6.3034,0.32422 z m -1.3306,-10.58869 c -0.922,-0.92197 -0.9961,-1.10388 -0.9961,-2.44561 0,-0.79723 0.1629,-1.83937 0.362,-2.31584 0.6007,-1.4378 10.7423,-15.97609 12.7956,-18.34285 1.2964,-1.49437 1.9745,-3.26616 1.9773,-5.16672 0,-1.47064 -0.1405,-1.98 -1.1152,-3.9828 -0.9194,-1.88896 -1.4467,-2.60106 -2.9714,-4.01269 -3.3696,-3.11976 -6.4672,-4.04781 -9.1597,-2.74435 -1.8781,0.90914 -4.8626,4.37147 -6.8671,7.96631 -5.5614,9.97412 -9.3867,14.81546 -14.2726,18.06358 -4.6942,3.12074 -10.0218,4.22605 -14.1796,2.94186 -3.4178,-1.05566 -4.1534,-3.26918 -2.3108,-6.95406 1.273,-2.5459 3.7532,-4.96621 8.8577,-8.64398 7.6064,-5.48029 7.6455,-5.54515 7.1392,-11.83878 -0.2192,-2.72509 -0.2719,-6.59179 -0.1662,-12.1997 0.085,-4.51555 0.2203,-15.50382 0.3004,-24.41835 0.127,-14.15036 0.093,-16.51056 -0.2654,-18.58921 -0.5408,-3.13356 -1.9625,-7.36089 -3.2259,-9.59188 -0.5583,-0.98586 -1.4872,-2.73612 -2.0641,-3.88946 -1.6845,-3.3676 -1.6626,-6.19527 0.059,-7.64412 1.0639,-0.89518 1.9541,-0.84661 7.3493,0.40104 23.7621,5.49492 49.7217,8.94596 64.8371,8.61937 6.8891,-0.14886 9.0333,-0.45183 13.111,-1.85261 1.4255,-0.48968 2.9589,-0.89033 3.4077,-0.89033 1.6697,0 3.5124,1.29889 4.1185,2.90307 0.3938,1.04211 0.3354,3.26944 -0.1194,4.55853 -0.2158,0.6116 -0.9851,1.92444 -1.7096,2.91746 -3.7148,5.09131 -3.9513,7.95887 -2.1336,25.86333 0.6338,6.2428 1.5013,15.44917 1.9276,20.45862 1.1178,13.13185 1.5555,16.28943 3.0745,22.18089 1.1358,4.40498 1.0233,6.36132 -0.455,7.91084 -0.8719,0.91381 -2.3031,1.30849 -7.2388,1.99609 -8.8883,1.23828 -11.2647,2.42916 -14.3014,7.16672 -2.4528,3.82668 -4.9796,5.892 -7.2162,5.8985 -1.2976,0.004 -2.8571,-1.62584 -2.8537,-2.98196 0.01,-2.00337 1.4394,-4.09389 4.1885,-6.10475 1.2865,-0.94098 1.9644,-2.0894 1.9656,-3.32979 0,-0.82637 -0.1692,-1.16381 -0.9709,-1.92642 -2.2286,-2.11995 -6.814,-3.60924 -11.1225,-3.61237 -5.7274,-0.004 -12.2178,2.21021 -14.908,5.08624 -2.7592,2.94983 -5.5715,8.09628 -7.2667,13.29805 -1.3059,4.00722 -1.6329,4.68545 -2.6868,5.57225 -0.6687,0.56262 -1.0508,0.67197 -2.3485,0.67197 -1.4583,0 -1.6088,-0.0589 -2.546,-0.99609 z m 49.3123,-42.28518 c 1.2561,-1.13479 2.8478,-4.17581 3.5613,-6.80407 1.4716,-5.42054 2.0593,-12.10969 2.0606,-23.45651 0,-9.29838 -0.1883,-11.35039 -1.3291,-14.39952 -1.3391,-3.57901 -4.5362,-4.94391 -6.9073,-2.94878 -1.6671,1.40277 -1.8632,3.30467 -0.9989,9.68712 0.4357,3.21785 0.5132,5.2254 0.5136,13.31183 0,7.58583 0.1047,10.59221 0.5126,14.78211 0.2817,2.89278 0.5124,6.42376 0.5127,7.84662 0,3.38439 0.2538,3.62615 2.0745,1.9812 z m -19.7993,-96.94245 c 2.2079,-0.52042 3.9457,-1.50794 5.2955,-3.00926 3.3886,-3.769 3.5292,-7.85655 0.4929,-14.33035 -1.9576,-4.17363 -2.5268,-6.71265 -2.3512,-10.48717 0.076,-1.62378 0.4962,-4.85407 0.9354,-7.18384 0.731,-3.87719 1.3167,-9.74949 0.9725,-9.74949 -0.079,0 -1.1645,1.46771 -2.4125,3.26159 -2.6932,3.87152 -5.6594,7.05119 -10.2774,11.01713 -4.6671,4.00807 -9.7464,9.92607 -11.4594,13.35155 -1.9368,3.87281 -2.4649,7.51938 -1.4233,9.82831 1.4068,3.11846 5.8397,5.77288 12.1679,7.28611 2.0459,0.48922 6.0173,0.49681 8.0596,0.0154 z m 65.9596,-39.50182 c 0,-0.10268 0.6173,-0.85342 1.3717,-1.66832 2.0553,-2.21994 5.9635,-7.15608 8.5643,-10.81683 6.1668,-8.68026 10.9973,-18.78271 12.4049,-25.943357 0.7095,-3.609699 0.6546,-9.070006 -0.1643,-16.346951 -0.8273,-7.351299 -1.0507,-13.570963 -0.6419,-17.873877 1.1879,-12.501648 3.4553,-22.773099 7.9764,-36.133191 5.6502,-16.69624 7.9213,-21.6236854 11.6442,-25.2629407 l 1.4346,-1.4023621 v 4.9942811 c 0,8.9175547 0.704,18.8715057 1.9346,27.4437487 0.8226,5.730189 2.0156,11.599307 4.2243,20.781817 3.7322,15.516064 4.936,24.867342 4.0965,31.820861 -0.4105,3.399675 -1.2172,7.222785 -2.0702,9.810275 -1.0006,3.035656 -3.5946,8.423516 -5.4025,11.221386 -7.9877,12.36151 -21.9968,22.24947 -39.5958,27.94775 -4.0805,1.32116 -5.7781,1.74064 -5.7781,1.42771 z m 25.4712,-23.06099 c 7.593,-4.76699 13.3074,-10.80091 16.7166,-17.651208 2.4584,-4.939735 2.839,-6.550377 2.8379,-12.010735 0,-5.066351 0.1371,-4.24511 -3.214,-19.114141 -2.7921,-12.388836 -3.806,-18.14894 -4.7896,-27.211223 -0.2518,-2.319944 -0.5412,-4.218067 -0.6432,-4.218067 -0.2343,0 -1.8285,5.087748 -2.8114,8.972126 -0.967,3.821647 -2.1102,10.562833 -2.6989,15.914741 -0.7072,6.430433 -0.6431,19.773616 0.1249,25.987277 0.6954,5.626715 0.703,7.272686 0.051,11.0881 -0.8731,5.10696 -2.849,10.05696 -6.6252,16.59746 -0.8716,1.50951 -1.5846,2.80837 -1.5846,2.88637 0,0.32778 0.553,0.0676 2.6368,-1.2407 z m -55.4894,17.61879 c 0,-4.08986 0.074,-4.91805 0.6424,-7.15728 1.2145,-4.7878 2.7575,-7.38794 8.9197,-15.03108 9.021,-11.188979 15.9793,-21.496939 20.1013,-29.777826 0.8245,-1.656337 1.5719,-3.011517 1.6609,-3.011517 0.4677,0 1.063,3.229905 1.1823,6.414141 0.2744,7.324872 -1.8924,17.184592 -5.331,24.257542 -3.1223,6.42227 -6.3606,10.07715 -13.9624,15.75836 -5.1795,3.87088 -8.9098,7.40818 -10.8312,10.27096 -0.7103,1.05834 -1.5369,2.14417 -1.8367,2.413 l -0.5453,0.48876 z m -92.8767,3.3721 c -16.1391,-1.73218 -28.6042,-6.33987 -38.4849,-14.22582 -2.8619,-2.28421 -8.23,-7.78302 -10.2086,-10.45736 -5.1257,-6.92781 -9.1664,-15.713698 -11.4718,-24.943391 -1.1661,-4.668981 -1.7965,-8.316626 -2.5716,-14.880807 -0.8486,-7.186455 -1.7305,-12.286826 -2.9686,-17.167269 -1.0212,-4.02554 -5.1952,-16.92856 -6.7922,-20.996331 -0.484,-1.23308 -0.8801,-2.329334 -0.8801,-2.436142 0,-0.354009 0.6788,-0.202559 2.5494,0.568806 4.1007,1.690973 10.6984,6.762968 16.8245,12.933833 8.9233,8.988546 14.8549,18.538202 19.9964,32.193164 2.4455,6.495036 3.6638,9.253758 6.5308,14.787776 9.0747,17.516941 20.4937,31.078081 33.1632,39.384771 1.646,1.07915 4.0334,2.47268 5.3053,3.09673 1.272,0.62407 2.321,1.21199 2.3311,1.30651 0.01,0.0945 -0.8186,0.37076 -1.8416,0.61388 -2.4807,0.58949 -7.2045,0.68067 -11.4813,0.22165 z m -8.989,-9.68246 c -0.2066,-0.18516 -1.7034,-1.50001 -3.3262,-2.92189 -4.0503,-3.54887 -11.4655,-11.16051 -14.1967,-14.57273 -4.3265,-5.4054 -7.5494,-10.713768 -9.7747,-16.099799 -0.5103,-1.234902 -2.0637,-5.275811 -3.4521,-8.979797 -4.7592,-12.696639 -8.3552,-19.854102 -13.1199,-26.113123 -1.7352,-2.279483 -5.5184,-6.34492 -5.7214,-6.148159 -0.074,0.07138 0.3083,1.924652 0.8488,4.118366 0.5404,2.193738 1.8103,7.792591 2.8221,12.441919 3.2813,15.078799 5.2167,22.742441 6.6628,26.382876 2.677,6.739007 6.4667,12.272917 12.2327,17.862737 7.0426,6.82742 15.4638,11.8157 23.1715,13.72555 2.8661,0.71015 4.4453,0.83479 3.8531,0.30405 z m 37.9535,-5.56432 c -5.4991,-6.58267 -10.2639,-10.16695 -22.1655,-16.67384 -5.4505,-2.9799 -8.1841,-4.836875 -11.0043,-7.475473 -5.5083,-5.153608 -9.2848,-12.388631 -11.0958,-21.25731 -0.5386,-2.637751 -0.6346,-3.694571 -0.5364,-5.9065 0.1112,-2.507006 0.8125,-6.162784 1.1803,-6.153496 0.089,0.0026 1.0838,1.811764 2.2115,4.021205 2.9337,5.748199 5.1077,8.964172 8.1781,12.098096 2.9464,3.007334 5.2868,4.821587 11.708,9.076035 5.7882,3.835066 7.8291,5.504026 12.0586,9.861075 4.9218,5.070328 8.5327,10.411328 10.2728,15.195078 1.0132,2.78545 1.8301,6.91375 1.7324,8.75453 l -0.075,1.41111 z m -98.109,-8.3665 c -9.7156,-7.05471 -11.0296,-7.84036 -18.6183,-11.13218 -8.3382,-3.616904 -11.3397,-6.060307 -14.0257,-11.417475 -0.8519,-1.699183 -2.296,-5.939443 -2.0922,-6.143259 0.071,-0.07109 1.5451,0.445552 3.2755,1.148106 3.8742,1.57285 5.9553,2.127673 10.63,2.833973 2.0025,0.302568 4.5067,0.770107 5.5651,1.039014 3.9223,0.996577 7.8805,3.417043 10.8722,6.648411 3.8434,4.151334 7.7932,12.03816 8.6316,17.23526 0.5406,3.35154 0.6788,3.35844 -4.2382,-0.21185 z m 118.1743,-15.558241 c -0.1199,-0.3175 -0.3004,-1.096818 -0.401,-1.731818 -0.3521,-2.223347 -1.2341,-5.532684 -1.9715,-7.397839 -2.3848,-6.032012 -6.5841,-9.454752 -15.4846,-12.621131 -10.9409,-3.892229 -15.9845,-6.548145 -19.9071,-10.48299 -2.6838,-2.692092 -3.8727,-5.082976 -4.0314,-8.106807 -0.089,-1.692615 0,-2.525017 0.4351,-3.94793 0.3012,-0.991729 0.6688,-1.878009 0.8169,-1.969551 0.1482,-0.09154 0.9837,0.519237 1.8567,1.357309 1.7804,1.709035 2.9911,2.233865 4.7602,2.063455 4.0332,-0.388543 8.4997,-4.795854 8.9551,-8.836378 0.2586,-2.29403 -1.1772,-4.413006 -3.6231,-5.34711 -0.8972,-0.342618 -1.5773,-0.409709 -2.9134,-0.287328 -6.3995,0.58615 -7.2504,0.483293 -10.5945,-1.28075 -9.6995,-5.116663 -14.5718,-17.52936 -14.6175,-37.23963003 -0.01,-2.73971057 -0.061,-3.03537677 -1.0669,-5.77272687 -7.5181,-20.4587751 -28.7075,-60.3748981 -53.2865,-100.3800741 -11.7324,-19.09575 -18.005,-28.37778 -28.8683,-42.71818 -2.4052,-3.175 -5.9488,-7.85524 -7.8748,-10.40053 -6.3834,-8.43606 -10.8522,-15.52017 -14.3444,-22.73918 -6.6115,-13.66746 -8.9913,-27.68482 -8.9935,-52.97365 v -6.70632 l -3.0146,-2.00226 c -5.6991,-3.78519 -9.9056,-8.67346 -11.9024,-13.83138 -1.9559,-5.05244 -2.7922,-10.0947 -3.4259,-20.65576 -0.6955,-11.59305 -1.3875,-15.64845 -3.318,-19.44468 -0.9419,-1.85222 -3.4104,-4.46465 -5.6176,-5.94519 -1.7765,-1.19167 -5.4682,-2.87558 -9.0255,-4.11693 -4.1911,-1.4625 -6.9539,-2.78563 -9.8698,-4.72683 -4.6932,-3.12441 -8.123,-6.90347 -10.4247,-11.48632 -1.6358,-3.25715 -3.1832,-8.92853 -2.4361,-8.92853 0.1598,0 1.4398,0.57678 2.8446,1.28175 1.4048,0.70494 3.452,1.54198 4.5494,1.8601 1.8145,0.52598 2.3902,0.56793 6.3568,0.46336 2.3989,-0.0632 7.7098,-0.11559 11.802,-0.11631 10.7185,-0.003 13.367,0.48617 20.1404,3.71169 6.1297,2.91894 9.9044,3.52323 12.9566,2.07425 1.9439,-0.92289 3.481,-2.57902 4.2221,-4.54921 0.4927,-1.30959 0.5568,-1.88928 0.4658,-4.2125 -0.2059,-5.25865 -1.9405,-8.1935 -9.0317,-15.28126 -2.5498,-2.54857 -7.4611,-7.05129 -10.9139,-10.00606 -6.8941,-5.89965 -8.9165,-8.0695 -10.6265,-11.40157 -1.0586,-2.06279 -2.1122,-4.80889 -1.9152,-4.99184 0.05,-0.0461 1.4757,0.39388 3.1691,0.97779 3.0745,1.06018 3.0841,1.06165 6.9272,1.0626 4.8988,0 6.2697,-0.36735 8.217,-2.20903 2.3941,-2.26427 3.1863,-5.40677 2.3297,-9.24168 -1.2692,-5.68167 -5.1211,-11.2319 -14.3963,-20.74356 -2.8229,-2.89486 -6.0825,-6.31826 -7.2435,-7.60761 l -2.1109,-2.34424 1.4205,-0.17746 c 6.8284,-0.85316 11.1204,-4.23947 11.1365,-8.78656 0.01,-2.63895 -0.7414,-4.20837 -3.1756,-6.63853 -2.0637,-2.06025 -2.1327,-2.10225 -9.7753,-5.95563 -10.0613,-5.07279 -14.7743,-7.70472 -19.6273,-10.96067 -13.7447,-9.22143 -20.3556,-18.76598 -22.19,-32.03678 -0.1448,-1.04815 -0.1108,-1.23021 0.2074,-1.10811 1.0069,0.38636 4.8148,0.74886 6.5891,0.62725 3.3724,-0.23114 5.6109,-1.59702 6.8275,-4.16593 1.4706,-3.10565 0.3465,-8.42864 -2.7438,-12.99177 -1.6274,-2.40309 -3.1728,-3.94464 -8.4458,-8.42482 -7.0213,-5.96566 -9.1412,-8.38692 -11.3035,-12.91043 -1.5549,-3.25269 -2.0667,-5.58274 -2.2263,-10.1355 -0.2252,-6.42422 0.5893,-10.6319 3.9088,-20.19202 5.154,-14.84366 6.085,-18.0428 6.916,-23.76525 1.3334,-9.18259 -0.7522,-24.8801 -4.7056,-35.41826 -1.6798,-4.47774 -5.547,-12.6849 -7.3179,-15.53051 -2.1461,-3.44855 -8.053,-9.15096 -16.3159,-15.75114 -2.0461,-1.63437 -3.8696,-3.15213 -4.0521,-3.3728 -0.4337,-0.52423 0.037,-0.67575 9.6965,-3.12349 12.8099,-3.24593 19.9115,-4.59887 28.3505,-5.40109 5.4063,-0.51392 8.9444,-0.48716 13.4697,0.10189 10.3118,1.34226 16.225,4.35665 24.1327,12.30223 9.5526,9.5984 12.921,19.40473 14.7488,42.93779 0.9998,12.87162 1.5222,16.78903 2.9683,22.25803 2.2154,8.37819 6.5188,15.98269 11.846,20.93269 2.1053,1.95621 3.9451,3.15286 6.3974,4.161 2.1454,0.882 5.8337,1.08535 8.054,0.44402 8.1329,-2.34919 14.4562,-11.67518 16.53,-24.37915 0.6376,-3.90643 0.6335,-5.94786 -0.018,-9.14729 -0.6393,-3.13681 -1.1212,-4.43237 -4.4022,-11.8331 -1.4247,-3.21366 -2.5281,-5.90527 -2.452,-5.98136 0.2111,-0.21104 4.1844,1.85165 6.349,3.29592 6.768,4.51578 13.2356,12.06926 16.5776,19.36085 2.9635,6.46571 4.2899,13.17504 4.7061,23.80397 0.2281,5.82655 0.531,7.89742 1.4013,9.58049 0.2,0.38667 1.2779,1.86972 2.3954,3.29564 3.9119,4.99151 5.5302,7.88241 7.3706,13.1669 2.9822,8.56298 5.8761,12.52422 11.1211,15.22311 2.7549,1.41755 4.5698,1.96517 6.513,1.96517 2.0367,0 2.906,-0.42305 4.5634,-2.22086 3.9756,-4.31233 6.6722,-13.35145 6.67,-22.35844 0,-8.97143 -1.5884,-13.34429 -9.3948,-25.89817 -4.2751,-6.87515 -5.018,-8.55033 -5.8893,-13.27909 -0.8424,-4.57219 -0.01,-11.50518 2.2358,-18.52729 0.576,-1.80444 3.0403,-8.41852 5.4763,-14.69796 2.436,-6.27945 4.8654,-12.60058 5.3989,-14.04697 0.5334,-1.44639 1.0593,-2.6298 1.1686,-2.6298 0.3713,0 4.1909,6.26975 6.0178,9.87778 2.9635,5.85296 4.5391,11.33655 4.9078,17.08114 0.1947,3.03141 -0.1033,5.20767 -1.6481,12.03906 -1.0741,4.74976 -1.1907,5.5829 -1.203,8.59494 -0.016,3.83621 0.3528,5.5697 1.8275,8.59495 0.6484,1.33036 1.4611,2.449 2.6332,3.62448 2.273,2.27974 6.3551,4.29414 12.4589,6.14811 5.3198,1.61582 7.6598,2.65612 9.2297,4.10318 1.4612,1.34689 2.2779,2.69753 2.8572,4.72524 0.3753,1.3139 0.4678,3.41864 0.6312,14.36768 0.2024,13.55477 0.2937,14.62352 1.5355,17.95959 0.8081,2.17111 2.4575,3.78596 4.4624,4.3688 1.2203,0.35476 2.1592,0.41602 4.7441,0.3096 8.1754,-0.33656 13.8423,-3.81459 20.4004,-12.52061 5.8826,-7.80914 9.5566,-17.30096 10.7886,-27.87193 0.3131,-2.68688 0.3766,-6.16245 0.3229,-17.68171 -0.059,-12.58966 -0.011,-14.74407 0.3909,-17.67283 1.3901,-10.12771 3.8919,-16.79249 9.0047,-23.98889 1.4331,-2.01716 10.2386,-11.28888 10.7212,-11.28888 0.1173,0 0.2142,0.9525 0.2155,2.11666 0,2.99533 0.6836,12.33294 1.2881,17.67671 0.837,7.39829 1.3881,10.08823 4.0806,19.92049 1.7765,6.48724 2.1635,9.36163 1.9937,14.80633 -0.1482,4.75234 -0.6293,7.57862 -1.9986,11.74078 -1.061,3.22501 -4.7716,10.68234 -7.9456,15.96831 -4.8246,8.035 -5.8871,10.90356 -5.8871,15.89422 0,1.73413 0.154,3.44678 0.3921,4.36105 0.9002,3.45625 3.6621,7.25278 6.852,9.41899 2.2747,1.54473 6.4668,3.46902 9.1761,4.21209 4.7005,1.28916 10.63,1.11585 14.7661,-0.43165 3.5911,-1.34358 7.4577,-4.78444 8.9665,-7.97904 1.9143,-4.05332 1.9989,-5.13967 1.5645,-20.0888 -0.2389,-8.22114 -0.1065,-10.575 0.7694,-13.68083 0.4832,-1.71311 1.2512,-2.55852 7.0304,-7.73956 8.4935,-7.61425 12.0466,-11.985 12.9415,-15.91933 0.3102,-1.36407 0.3999,-3.35122 0.3999,-8.85879 0,-10.03009 0.6581,-13.90393 3.1094,-18.30458 1.0933,-1.96276 5.1154,-6.43629 5.7868,-6.43629 0.4347,0 0.3471,-0.29467 1.488,5.00303 1.3445,6.24356 3.7245,13.16658 6.7704,19.6944 3.2293,6.92058 3.3985,7.43083 3.5579,10.7228 0.1072,2.21257 0.032,3.10458 -0.4105,4.87475 -0.8519,3.40798 -3.1327,7.72179 -7.5987,14.37228 -2.22,3.30578 -4.3567,6.64552 -4.7484,7.42163 -1.8478,3.66152 -2.4193,7.64363 -1.7014,11.8551 0.8879,5.20913 2.3806,8.60011 4.9633,11.27532 2.8595,2.96194 6.2155,4.31094 10.7427,4.3183 5.8323,0.01 11.3527,-2.74404 17.1879,-8.57324 3.5437,-3.54009 5.2295,-5.81139 7.1542,-9.63912 3.3116,-6.58578 5.0373,-13.16136 8.0799,-30.78788 1.6591,-9.61155 2.5983,-12.7013 5.152,-16.95042 2.3536,-3.91589 5.46,-7.23115 11.5322,-12.30741 2.7115,-2.26678 4.0166,-3.16017 6.0293,-4.12731 2.8521,-1.37052 3.9798,-1.72882 3.9798,-1.26453 0,0.16438 -1.3728,2.46428 -3.0508,5.11089 -3.5492,5.59823 -4.3868,7.18385 -5.4128,10.24632 -2.8666,8.55618 -1.616,19.63517 3.1154,27.59929 1.5511,2.61089 5.2025,6.29958 7.3507,7.42578 4.311,2.25998 8.348,2.27789 13.0556,0.0579 2.7034,-1.27487 4.5673,-2.63944 6.8994,-5.05111 4.4761,-4.62875 7.739,-11.10775 9.6078,-19.07778 0.7517,-3.20562 1.2351,-7.1885 1.6588,-13.66556 0.8856,-13.54038 2.6761,-21.68285 6.4168,-29.1809 0.9151,-1.83445 2.4438,-4.4257 3.3968,-5.75834 2.048,-2.86339 8.3713,-9.45695 11.9956,-12.50814 11.466,-9.65292 24.7153,-14.43336 40.0301,-14.44317 6.3965,-0.004 16.0072,0.91046 21.5479,2.05052 5.0725,1.04369 16.87497,4.33843 17.39913,4.85705 0.11628,0.11507 -1.00661,0.85389 -2.4953,1.64183 -5.78053,3.05946 -10.83023,6.94048 -16.71313,12.84505 -7.0112,7.03705 -11.9998,13.9082 -16.1315,22.21924 -2.7896,5.6112 -4.456,9.99748 -5.7997,15.26565 -1.4668,5.75053 -1.8205,8.47231 -1.9744,15.18939 -0.2778,12.13101 0.823,17.10171 6.9251,31.26965 4.3947,10.20382 5.4666,13.7121 5.7552,18.83692 0.2197,3.90136 -0.9002,8.67325 -2.8565,12.17142 -2.2098,3.95145 -5.0114,7.03426 -11.4354,12.58313 -7.4017,6.39347 -9.3007,8.75354 -10.373,12.89156 -1.162,4.48435 0.4981,8.09092 4.6003,9.99423 2.4615,1.1421 6.4025,1.103 9.523,-0.0945 0.3935,-0.15099 0.418,0.0807 0.2786,2.6347 -0.1855,3.40001 -0.6376,5.16549 -2.0965,8.18811 -3.5296,7.3124 -11.8798,15.28752 -22.9707,21.93898 -1.4817,0.88859 -6.504,3.48488 -11.1607,5.76957 -9.2882,4.55702 -11.2602,5.81404 -14.3903,9.17287 -3.9053,4.19058 -5.4726,9.43964 -3.8554,12.91256 0.7584,1.62888 1.577,2.28012 3.6839,2.93088 2.8965,0.89464 6.419,0.52011 10.1322,-1.07727 0.681,-0.29295 1.319,-0.45186 1.4177,-0.35314 0.099,0.0987 -0.2568,1.02709 -0.7901,2.06302 -1.2224,2.37462 -3.9193,5.02127 -9.2828,9.10993 -11.811,9.00355 -17.0362,14.75575 -18.7313,20.6202 -0.6459,2.23451 -0.451,5.23682 0.4687,7.22351 0.9291,2.0068 2.9695,4.09312 4.9212,5.03186 1.3312,0.64034 1.8393,0.74048 3.7573,0.74066 3.7082,0 7.0311,-1.31498 12.4063,-4.91082 1.5522,-1.03837 2.9088,-1.92645 3.0147,-1.97348 0.3195,-0.14203 0.2166,1.32183 -0.189,2.68768 -0.559,1.8825 -2.4662,4.42224 -6.3284,8.42751 -3.9658,4.11273 -7.4834,7.25227 -13.9437,12.44521 -7.7738,6.24871 -11.7555,10.45695 -13.8735,14.6626 -2.2555,4.47891 -2.5067,9.14192 -0.682,12.66251 0.6698,1.29242 2.9459,3.50797 4.2928,4.17876 1.6021,0.79784 3.6863,1.3374 5.1662,1.3374 1.8741,0 4.0359,-0.84828 7.6839,-3.01505 3.9286,-2.33342 4.9998,-2.79049 8.3166,-3.54849 4.6272,-1.05746 7.1151,-0.79273 11.0304,1.17361 7.0978,3.5647 11.9137,3.11461 22.6371,-2.11559 2.6421,-1.28865 4.8789,-2.26799 4.9706,-2.17626 0.2651,0.2651 -1.1141,3.484 -2.3403,5.46202 -0.6536,1.05438 -2.1177,2.77022 -3.5083,4.11154 -4.147,4.00014 -7.729,6.23098 -18.4218,11.47277 -8.1309,3.98588 -9.6431,4.91175 -12.4003,7.59214 -3.8901,3.7817 -4.8413,5.87035 -7.1243,15.64419 -3.6649,15.68994 -6.8191,25.19921 -11.477,34.60111 l -2.0101,4.05741 -0.1727,11.1907 c -0.3558,23.06212 -1.493,32.67104 -5.1721,43.70444 -3.2593,9.77433 -6.8402,16.1321 -15.849,28.14002 -16.5399,22.04599 -40.7908,59.323 -59.891,92.060982 -13.3007,22.797525 -26.1943,47.781451 -29.3809,56.931684 -0.7214,2.071358 -0.7815,2.545003 -0.9803,7.7228572 -0.3443,8.9659172 -1.4871,17.1921298 -3.0914,22.2522968 -0.9645,3.042073 -3.0186,7.073515 -5.0215,9.855277 -1.913,2.656865 -6.0103,6.590966 -8.9427,8.586405 -1.2672,0.86224 -3.5921,2.268425 -5.1667,3.124816 -4.1985,2.283665 -4.8855,2.757413 -7.1118,4.904072 -2.5931,2.500335 -4.0082,5.165693 -4.0082,7.549341 0,1.449648 0.052,1.574646 1.0904,2.60994 1.2485,1.24501 2.6625,1.670319 5.5288,1.662879 3.4961,-0.009 7.6542,-1.459756 11.3186,-3.948879 1.9283,-1.309793 2.1819,-1.141563 2.0045,1.329395 -0.3892,5.420668 -1.6085,8.305363 -4.8713,11.52539 -3.9768,3.924608 -8.6605,6.680226 -16.4821,9.697027 -9.8084,3.783086 -11.6949,4.579286 -13.8344,5.838844 -1.2736,0.749787 -3.2132,2.219601 -4.3726,3.313468 -1.8202,1.717476 -2.2238,2.268759 -3.1929,4.361616 -3.3872,7.314481 -3.7717,7.996561 -5.365,9.515378 -1.719,1.638659 -2.7109,1.926064 -3.0992,0.89798 z m 32.1731,-74.170433 c 6.6819,-3.173229 13.1554,-10.51252 18.4405,-20.9070461 1.8695,-3.6767395 2.9071,-6.202577 5.803,-14.1263499 4.0586,-11.105136 6.9931,-17.809325 13.3765,-30.560303 6.8183,-13.619736 14.1673,-26.689292 26.8336,-47.721209 20.8823,-34.674208 36.1984,-57.649428 52.6791,-79.022218 4.3422,-5.6312 6.054,-8.30631 8.455,-13.21313 5.3994,-11.03476 8.7138,-23.87064 9.7705,-37.83881 0.3474,-4.59261 0.1781,-21.65856 -0.2571,-25.91775 -1.1169,-10.92944 -3.0397,-19.43262 -5.8408,-25.82852 -2.0648,-4.71465 -4.179,-6.26682 -6.2092,-4.55847 -0.4298,0.3616 -1.4902,1.83364 -2.3565,3.27121 -4.0533,6.7262 -7.216,9.64846 -11.6911,10.80226 -4.5236,1.16629 -9.2924,-0.45415 -13.711,-4.659 -4.4464,-4.23134 -7.022,-9.58681 -8.4838,-17.64061 -0.4692,-2.58523 -0.561,-4.06587 -0.5725,-9.23636 -0.044,-19.96679 6.2846,-41.16617 18.1155,-60.67778 1.754,-2.89277 4.312,-7.10687 5.6843,-9.36464 7.258,-11.94059 11.0387,-22.00115 12.3472,-32.85582 1.7559,-14.5659 4.6272,-23.21545 13.0162,-39.21001 3.956,-7.54254 10.7654,-21.78198 11.8626,-24.80643 1.723,-4.74934 2.0727,-8.84934 1.1437,-13.41066 -1.4305,-7.02462 -5.2628,-11.90234 -11.8252,-15.05122 -5.3386,-2.56163 -11.87,-2.66803 -19.0733,-0.3107 -1.9812,0.64834 -5.3722,2.30334 -16.5485,8.07656 -7.9239,4.09314 -10.1053,4.73561 -21.5515,6.34738 -11.5621,1.62811 -15.3917,2.77453 -24.1741,7.23679 -6.9236,3.51783 -11.8097,6.95724 -16.0101,11.26978 -2.719,2.79169 -3.6485,4.16565 -4.7421,7.0104 -3.4589,8.9967 -11.8848,20.62302 -22.3251,30.80463 -4.4355,4.32562 -7.2632,6.60964 -10.9947,8.88068 -7.9763,4.85448 -15.0388,13.0192 -20.3979,23.58118 -3.2064,6.31937 -4.1008,9.08989 -4.8829,15.12532 -0.5545,4.27946 -0.8356,5.49928 -1.4461,6.27544 -2.5161,3.19868 -8.5092,-6.21276 -13.3086,-20.89969 -3.1237,-9.55907 -7.534,-19.25312 -12.522,-27.52425 -2.5771,-4.27339 -4.2241,-6.36255 -7.5427,-9.56754 -3.3917,-3.27552 -5.6844,-5.03208 -13.5406,-10.374 -10.3823,-7.05961 -11.6186,-8.07933 -21.3013,-17.56928 -10.5209,-10.31151 -17.1537,-15.25709 -26.5382,-19.78783 -5.9329,-2.86428 -10.9256,-4.05402 -18.7393,-4.4655 -5.1432,-0.27083 -6.6724,-0.48119 -10.2443,-1.40927 -4.7938,-1.24552 -9.4531,-3.37343 -17.5488,-8.01442 -5.153,-2.95407 -7.5677,-4.05912 -10.7031,-4.89804 -2.676,-0.71602 -6.7309,-1.32229 -8.8401,-1.32177 -5.5893,0.003 -12.0791,2.22837 -15.3683,5.27355 -4.8382,4.47935 -7.1484,12.67172 -5.7797,20.49641 0.9115,5.21141 0.8517,5.07828 12.6269,28.10538 1.84,3.59834 3.9257,8.10214 4.6349,10.00845 3.5401,9.51604 6.8622,22.95505 8.6249,34.89054 1.3594,9.20491 3.2099,13.80746 9.9926,24.85346 6.868,11.18495 10.4844,17.70221 15.2518,27.48593 5.3388,10.95607 8.0549,18.15561 9.5493,25.31184 2.9163,13.96541 1.3644,31.48805 -3.6775,41.52351 -1.5134,3.01226 -2.7061,4.64389 -4.97,6.79899 -2.3438,2.23125 -4.2147,3.30041 -7.3807,4.21786 -2.8421,0.82363 -4.4639,0.82784 -7.0268,0.0182 -2.4818,-0.78402 -4.6091,-2.13984 -6.4849,-4.13325 -1.9084,-2.02802 -2.7132,-3.25228 -4.5552,-6.9294 -2.2712,-4.53382 -3.592,-5.3895 -5.6011,-3.62848 -1.116,0.97826 -1.9512,2.71849 -3.5655,7.42878 -3.465,10.11025 -4.6266,18.4718 -4.9115,35.35354 -0.2677,15.86176 0.7185,23.84562 4.4246,35.82077 4.3382,14.01767 8.0229,20.70092 21.1178,38.30353 14.2886,19.20722 18.0275,25.06957 38.1413,59.80296 21.1957,36.601709 32.2055,56.240192 41.0183,73.16575 l 2.2274,4.277848 2.4585,1.196006 c 2.0208,0.983057 2.834,1.569002 4.5672,3.290839 3.6746,3.650596 5.2606,7.04265 7.5679,16.1858285 1.5557,6.1649388 2.229,8.2182849 3.5409,10.799207 2.6455,5.2041775 8.8112,11.4382605 13.4476,13.5966965 1.0795,0.502509 1.7775,0.634846 3.3592,0.636821 1.1222,0.0026 2.3674,-0.1524 2.8433,-0.351238 1.1486,-0.479906 1.9591,-1.571952 1.9591,-2.639624 0,-1.163038 -1.2905,-4.451645 -2.5969,-6.617649 -1.6951,-2.810446 -2.619,-4.9954617 -2.7426,-6.4859541 -0.097,-1.1731464 -0.027,-1.467068 0.4766,-2.0035724 1.1595,-1.234209 2.9778,-0.7057351 5.7609,1.674373 3.2867,2.8108819 6.9053,4.7202945 11.0323,5.8212695 2.2653,0.604366 3.0462,0.685133 6.6707,0.690084 3.446,0.0046 4.431,-0.08462 6.1353,-0.556157 2.8865,-0.798689 6.7251,-2.7068445 10.9745,-5.4553296 7.1524,-4.626289 7.9787,-5.1120704 8.6959,-5.1120704 0.8894,0 1.5185,0.605264 1.5185,1.4609874 0,0.8216771 -1.6197,3.071963 -4.4885,6.2359818 -2.3922,2.6383668 -2.9312,3.4892158 -3.565,5.6268698 -0.6011,2.027433 -0.5218,3.253431 0.3245,5.020604 1.3724,2.865377 2.894,3.777185 6.084,3.645593 1.7606,-0.07263 2.3796,-0.23014 4.0823,-1.038758 z M -1280.2421,5.63354 c -6.1336,-1.3118457 -11.7008,-4.5489857 -17.2246,-10.0155785 -6.3926,-6.3263955 -10.024,-12.2334605 -17.0347,-27.7101665 -11.2717,-24.883352 -19.5898,-49.262707 -30.1133,-88.258585 -3.396,-12.58413 -4.2104,-14.80858 -5.9603,-16.28109 -2.2297,-1.87613 -4.5843,0.58238 -4.5843,4.78657 0,0.82345 0.2887,2.83218 0.6414,4.46386 0.7122,3.29371 0.8231,6.09931 0.2915,7.37159 -0.565,1.3522 -1.7999,2.22473 -3.1487,2.22473 -1.0356,0 -1.2921,-0.13416 -2.5739,-1.34646 -3.2546,-3.07806 -4.1002,-6.84571 -4.3618,-19.43536 -0.099,-4.7569 -0.017,-8.90131 0.2718,-13.79848 0.6888,-11.67125 0.5185,-16.16299 -0.8876,-23.40353 -1.591,-8.19317 -4.59,-15.88293 -7.906,-20.27213 -1.6277,-2.15451 -5.295,-5.6849 -7.951,-7.65425 -3.0155,-2.23581 -5.1292,-3.21333 -7.1991,-3.3293 -2.0539,-0.11507 -2.839,0.37931 -3.7668,2.3718 -0.746,1.60207 -0.8291,4.75793 -0.2051,7.79218 1.1855,5.76544 6.1368,15.41908 11.3098,22.05151 2.3844,3.05703 2.9028,4.61459 1.9762,5.93747 -1.0999,1.57046 -3.9377,1.75275 -6.6973,0.43026 -6.8232,-3.26996 -14.7288,-10.5974 -18.8799,-17.49911 -2.7985,-4.65292 -5.5985,-11.96802 -6.9584,-18.17894 -0.3707,-1.69333 -1.0082,-4.40651 -1.4165,-6.02929 -1.4267,-5.66987 -1.6168,-8.77377 -0.7859,-12.82828 0.6578,-3.20951 2.5038,-6.97158 4.5041,-9.179 5.58,-6.15793 14.7733,-8.25784 21.4827,-4.90702 1.8156,0.90675 3.8458,2.51704 18.406,14.59936 12.6323,10.48252 20.729,16.99059 26.6836,21.44809 22.4492,16.80494 39.9874,25.41313 57.2844,28.11646 5.2472,0.82006 14.3662,0.82006 19.6134,0 17.297,-2.70333 34.8353,-11.31152 57.2844,-28.11646 5.9546,-4.4575 14.0513,-10.96557 26.6837,-21.44809 14.5602,-12.08232 16.5903,-13.69261 18.4059,-14.59936 6.7094,-3.35082 15.9028,-1.25091 21.4828,4.90702 2.0002,2.20742 3.8462,5.96949 4.504,9.179 0.8309,4.05451 0.6408,7.15841 -0.7859,12.82828 -0.4083,1.62278 -1.0457,4.33596 -1.4165,6.02929 -1.3598,6.21092 -4.1599,13.52602 -6.9584,18.17894 -4.151,6.90171 -12.0567,14.22915 -18.8799,17.49911 -2.7596,1.32249 -5.5973,1.1402 -6.6973,-0.43026 -0.9266,-1.32288 -0.4082,-2.88044 1.9762,-5.93747 5.1731,-6.63243 10.1243,-16.28607 11.3099,-22.05151 0.6239,-3.03425 0.5408,-6.19011 -0.2051,-7.79218 -0.9278,-1.99249 -1.713,-2.48687 -3.7669,-2.3718 -2.0699,0.11597 -4.1836,1.09349 -7.199,3.3293 -2.6561,1.96935 -6.3234,5.49974 -7.9511,7.65425 -3.316,4.3892 -6.315,12.07896 -7.906,20.27213 -1.406,7.24054 -1.5764,11.73228 -0.8875,23.40353 0.289,4.89717 0.3707,9.04158 0.2718,13.79848 -0.2617,12.58965 -1.1073,16.3573 -4.3618,19.43536 -1.2819,1.2123 -1.5383,1.34646 -2.5739,1.34646 -1.3488,0 -2.5838,-0.87253 -3.1488,-2.22473 -0.5315,-1.27228 -0.4206,-4.07788 0.2915,-7.37159 0.3528,-1.63168 0.6414,-3.64041 0.6414,-4.46386 0,-4.20419 -2.3546,-6.6627 -4.5843,-4.78657 -1.7499,1.47251 -2.5642,3.69696 -5.9602,16.28109 -10.5235,38.995878 -18.8416,63.375233 -30.1134,88.258585 -7.0107,15.476706 -10.6421,21.383771 -17.0347,27.7101665 -4.5006,4.45400516 -8.7566,7.2482359 -13.7995,9.0598972 -4.135,1.4854894 -9.2517,1.8495817 -13.4311,0.9556813 z m 11.5454,-24.249943 c 4.7706,-1.548373 8.4999,-4.028003 13.6931,-9.104693 5.712,-5.583844 9.6544,-10.762262 9.6544,-12.68127 0,-1.542729 -1.9524,-2.173393 -4.0348,-1.303302 -0.5761,0.240658 -2.9822,2.399863 -6.2185,5.580302 -3.2465,3.190368 -5.8422,5.519086 -6.7418,6.048381 -3.659,2.152791 -6.7109,2.859527 -12.3483,2.859527 -7.4989,0 -10.4788,-1.060796 -15.8121,-5.628819 -2.5975,-2.224758 -4.267,-3.088435 -5.9769,-3.091898 -1.7047,-0.0036 -2.4898,0.775546 -2.4898,2.47047 0,1.7956 0.8428,3.257332 3.4084,5.911503 2.7205,2.8145 4.9086,4.371186 9.035,6.42797 5.3295,2.656404 8.2526,3.424895 12.5717,3.305053 2.5057,-0.0695 3.4848,-0.217157 5.2596,-0.793224 z m -1.1545,-26.532428 c 1.1873,-0.547973 2.0311,-1.391073 2.4203,-2.418156 0.7474,-1.972528 -0.2629,-12.157492 -1.7808,-17.95254 -1,-3.817645 -2.2651,-6.468635 -3.0871,-6.468635 -0.9257,0 -3.2085,5.818703 -4.3513,11.090871 -0.8264,3.812693 -1.5337,8.719768 -1.5368,10.661303 0,2.873586 0.8965,4.226405 3.388,5.087003 1.7402,0.601082 3.6455,0.601134 4.9477,1.54e-4 z m -16.6768,-0.250331 c 1.7698,-0.806001 2.8397,-2.25924 3.3492,-4.549114 0.3761,-1.690819 0.4207,-2.810368 0.2896,-7.272712 -0.085,-2.900834 -0.3306,-6.463838 -0.5455,-7.917795 -0.5057,-3.422791 -1.4035,-7.234228 -1.7039,-7.234228 -0.1295,0 -1.2263,1.241137 -2.4373,2.758081 -2.6411,3.308491 -5.4372,8.637103 -6.8997,13.148989 -0.8148,2.513779 -0.9392,3.197962 -0.8404,4.622312 0.1305,1.881011 0.9044,3.863853 1.9386,4.967214 1.6639,1.774998 4.7393,2.438297 6.8494,1.477253 z m 31.0754,-1.462526 c 2.0821,-1.554455 2.2753,-3.13944 1.2527,-10.274454 -0.7141,-4.982094 -1.4704,-8.398573 -2.4087,-10.880692 -0.6292,-1.664341 -2.0831,-4.152079 -2.5056,-4.287417 -0.365,-0.116917 -1.4907,3.184698 -2.0084,5.890465 -0.5229,2.733065 -1.1229,8.659706 -1.3235,13.073636 -0.1948,4.288315 -0.01,5.170977 1.3717,6.379761 0.8899,0.781319 0.9861,0.804974 2.9175,0.717255 1.5166,-0.06886 2.1675,-0.217722 2.7043,-0.618554 z m -44.1346,-2.00991 c 0.8407,-0.840689 0.8724,-0.943828 0.8724,-2.843774 0,-2.389703 -1.2606,-21.234013 -1.4319,-21.405348 -0.1774,-0.177415 -3.2806,2.933751 -4.7124,4.724477 -1.5458,1.933299 -2.9205,4.652433 -3.659,7.237332 -0.833,2.915945 -0.8304,7.363716 0.01,9.210424 0.6294,1.390509 1.9842,2.85732 3.2554,3.524622 0.5038,0.264468 1.4655,0.407605 2.7837,0.414327 1.9542,0.01001 2.04,-0.01565 2.8864,-0.86206 z m 55.9458,-1.8454 c 1.4756,-1.101693 1.7491,-1.751907 1.8459,-4.388786 0.1129,-3.07594 -0.3572,-7.74174 -1.0236,-10.159178 -0.7482,-2.714208 -2.0963,-5.333435 -3.5814,-6.958394 -0.7201,-0.787862 -1.3994,-1.432483 -1.5095,-1.432483 -0.1101,0 -0.3387,1.356591 -0.508,3.014646 -0.1693,1.658056 -0.6449,6.127481 -1.0569,9.932041 -0.412,3.804561 -0.749,7.329106 -0.749,7.832308 0,1.928091 1.4314,2.876434 4.1609,2.756592 1.2455,-0.05467 1.9173,-0.220236 2.4216,-0.596746 z m -67.4786,-20.437326 c 0.4292,-0.458611 1.8273,-2.219293 3.1068,-3.912626 1.2795,-1.693333 3.3037,-4.031288 4.4982,-5.195454 1.8928,-1.844784 2.2886,-2.116667 3.0815,-2.116667 1.8323,0 3.2102,2.030256 5.0922,7.503288 0.4729,1.375141 0.9175,2.499463 0.9881,2.498462 0.071,0 0.8765,-1.467171 1.791,-3.258178 1.2899,-2.526171 2.0386,-3.647363 3.3386,-4.999977 1.5113,-1.572414 1.7746,-1.743595 2.6819,-1.743595 1.8713,0 3.6981,2.554214 6.6517,9.300505 0.3553,0.811389 0.7493,1.475252 0.8758,1.475252 0.1264,0 0.3766,-0.663863 0.5559,-1.475252 0.5242,-2.371359 1.5552,-5.467799 2.3378,-7.021304 0.9579,-1.901485 2.0248,-2.792332 3.3442,-2.792332 1.6968,0 2.8415,1.319543 5.0991,5.87797 1.0545,2.129341 1.9942,3.871524 2.0881,3.871524 0.094,0 0.2509,-0.432954 0.349,-0.962121 0.3545,-1.912106 1.9339,-6.381813 2.6593,-7.52566 1.0417,-1.64261 1.9456,-2.287975 3.2047,-2.287975 0.9196,0 1.1936,0.157403 2.3446,1.346969 0.7726,0.798458 1.802,2.313376 2.5281,3.720202 0.6737,1.305278 1.3125,2.373232 1.4197,2.373232 0.1072,0 0.3832,-0.784629 0.6134,-1.74362 1.0682,-4.450849 2.3756,-6.46648 4.1946,-6.46648 0.8407,0 1.1559,0.18855 2.3147,1.384941 1.0592,1.093662 1.7847,2.294415 3.4489,5.708585 1.1592,2.378005 2.2829,4.52569 2.4972,4.772634 0.5412,0.623558 1.2515,0.560545 1.7187,-0.152451 0.2167,-0.33079 2.457,-6.247835 4.9784,-13.148989 17.1818,-47.027999 32.1164,-84.189529 45.5496,-113.341159 1.2262,-2.66092 2.1618,-4.90569 2.0791,-4.98835 -0.083,-0.0827 -1.2111,0.36263 -2.5077,0.98955 -8.5894,4.1532 -22.764,16.31324 -29.7406,25.51363 -1.7895,2.35981 -1.9272,2.76036 -2.1168,6.15757 -0.8639,15.47363 -3.7507,27.71425 -8.9533,37.96348 -1.9394,3.82068 -3.6728,5.78097 -5.1118,5.78097 -1.7165,0 -3.2571,-1.95611 -4.0851,-5.18715 -0.173,-0.67484 -0.381,-1.227 -0.4624,-1.227 -0.081,0 -0.9987,2.16478 -2.0387,4.81061 -3.1062,7.90297 -4.7831,11.19942 -6.7976,13.3633 -2.5288,2.71644 -5.0266,1.93684 -6.8601,-2.14109 -0.4751,-1.05662 -0.9441,-1.92127 -1.0422,-1.92142 -0.098,-1.6e-4 -0.6155,0.83676 -1.1498,1.85982 -0.5497,1.05286 -1.6462,2.55598 -2.5265,3.46363 -1.4759,1.52174 -1.6171,1.60354 -2.7686,1.60354 -1.0694,0 -1.3526,-0.12839 -2.3869,-1.08171 -1.1579,-1.06731 -2.2386,-2.93465 -3.4201,-5.90971 -0.3222,-0.81139 -0.6784,-1.47525 -0.7917,-1.47525 -0.1132,0 -0.4626,0.77932 -0.7764,1.73182 -0.3138,0.9525 -1.1786,2.94999 -1.9217,4.43884 -1.6709,3.3477 -2.9055,4.6051 -4.5216,4.6051 -1.6644,0 -2.8978,-1.47374 -5.1655,-6.17243 -1.0149,-2.10289 -1.9169,-3.8257 -2.0044,-3.82853 -0.087,-0.003 -0.3952,1.00512 -0.6838,2.23985 -0.8754,3.74488 -1.5191,5.17485 -3.0027,6.6707 -1.2494,1.25974 -1.4173,1.347 -2.5936,1.34754 -1.2575,0 -1.2582,5e-5 -3.8241,-2.6298 -1.4115,-1.4467 -3.0856,-3.40601 -3.7202,-4.35405 -0.6346,-0.94803 -1.2173,-1.72735 -1.2949,-1.73182 -0.078,-0.004 -0.596,0.925 -1.1521,2.06549 -1.3655,2.80077 -3.2152,4.59709 -4.7335,4.59709 -1.3792,0 -2.1978,-0.44868 -3.6487,-1.99973 -2.0066,-2.14529 -4.0028,-6.62314 -7.0005,-15.7033 -0.8152,-2.46945 -1.524,-4.53785 -1.5751,-4.59645 -0.051,-0.0586 -0.8899,0.66296 -1.8642,1.60353 -2.1068,2.034 -2.806,2.18138 -4.2661,0.89934 -1.2189,-1.07016 -1.88,-2.43701 -3.2688,-6.75794 -3.0867,-9.60358 -5.0515,-22.71711 -5.0595,-33.7686 v -3.49386 l -2.8611,-3.17685 c -4.0678,-4.51663 -12.1566,-12.49333 -15.617,-15.40073 -1.6198,-1.36091 -4.2151,-3.36543 -5.7674,-4.4545 -2.8364,-1.99005 -6.9042,-4.21204 -7.1892,-3.92702 -0.084,0.0841 1.1114,2.67945 2.6566,5.76739 4.6506,9.29399 7.8804,16.70127 12.7345,29.20569 8.4615,21.79723 19.6644,55.47922 31.0622,93.389894 0.7834,2.605758 1.2264,3.591227 1.9895,4.425758 0.7331,0.801767 1.4857,0.721334 2.4009,-0.256566 z m 21.351,-51.954546 c 1.646,-3.27929 2.9263,-7.80262 3.6144,-12.76981 0.4328,-3.12386 1.5509,-15.91853 1.5507,-17.74446 -3e-4,-2.06897 -0.93,-4.3103 -2.3419,-5.64591 -1.3007,-1.23038 -3.4322,-2.12677 -5.0644,-2.12972 -1.2522,-0.003 -1.4649,0.0853 -2.3448,0.96515 -0.6931,0.69313 -1.1213,1.46511 -1.5092,2.72098 -0.4793,1.55165 -0.5412,2.37715 -0.5381,7.17827 0.01,9.02985 0.9591,17.99833 2.4706,23.24107 0.9155,3.17557 2.3318,6.17282 2.9169,6.17282 0.1363,0 0.6969,-0.89477 1.2458,-1.98839 z m 14.2954,0.8362 c 1.5942,-2.43311 3.5913,-8.62525 4.4434,-13.77726 0.6285,-3.79992 1.5638,-13.74438 1.5638,-16.626 0,-4.33898 -1.6753,-5.90314 -6.3228,-5.90314 -4.6385,0 -6.762,2.1079 -6.762,6.71227 0,1.90929 0.8042,9.40778 1.4248,13.28415 0.9666,6.03835 4.195,16.94904 5.015,16.94904 0.1205,0 0.4075,-0.28759 0.6378,-0.63906 z m -27.6662,-1.34933 c 1.3188,-3.13284 2.3871,-7.3269 2.9898,-11.73788 0.6439,-4.71234 1.4877,-16.9966 1.3922,-20.26868 -0.083,-2.8524 -0.1521,-3.21087 -0.9357,-4.87475 -1.5682,-3.32986 -3.8771,-4.99582 -6.9305,-5.00051 -1.4423,-0.003 -1.7043,0.0786 -2.3507,0.72497 -1.6011,1.60108 -2.1656,5.5909 -1.9823,14.01046 0.098,4.51294 0.2799,7.06877 0.6757,9.5075 1.0482,6.45946 2.6668,12.09138 4.5714,15.90707 1.7357,3.47732 1.8133,3.52963 2.5701,1.73182 z m 42.2001,-1.53939 c 1.4721,-1.6686 3.7886,-8.19858 4.5599,-12.85389 0.5677,-3.42659 1.7968,-15.16441 1.7953,-17.14461 0,-1.47177 -0.7054,-2.5937 -2.0714,-3.3001 -1.0922,-0.56478 -4.4391,-0.48802 -6.5019,0.14914 -3.2612,1.00727 -4.257,2.65173 -4.2549,7.02633 0,2.97426 0.9037,12.96075 1.4243,15.76403 0.7177,3.86483 2.2368,7.95082 3.7559,10.10253 0.5833,0.82625 0.7594,0.86119 1.2928,0.25657 z m 11.045,-0.64142 c 3.6529,-4.54331 6.8328,-11.55912 8.1109,-17.89545 1.2068,-5.98311 1.4014,-13.27555 0.407,-15.24911 -0.7933,-1.57441 -1.6347,-2.0447 -3.8593,-2.15705 -2.6238,-0.13249 -3.5703,0.0959 -4.7264,1.14039 -1.8243,1.6481 -1.8963,2.10178 -2.012,12.67385 -0.08,7.28965 0,10.82851 0.3627,15.97121 0.2559,3.63361 0.5497,6.60657 0.6529,6.60657 0.1031,0 0.582,-0.49068 1.0642,-1.09041 z m 17.5961,-14.75252 c 1.9947,-3.98649 3.5651,-8.548 4.4385,-12.89242 0.4947,-2.46024 0.5937,-3.76051 0.596,-7.82525 0,-5.69876 -0.3372,-7.81266 -1.4358,-8.91566 -0.6154,-0.61786 -0.8999,-0.70556 -2.2892,-0.70556 h -1.5865 l -1.8644,1.80777 c -1.4022,1.35972 -2.079,2.26585 -2.7307,3.65606 -0.8583,1.83108 -0.8662,1.88175 -0.8509,5.44021 0.017,4.03186 0.912,11.16553 2.1722,17.31818 0.9346,4.56346 1.2301,5.64445 1.5429,5.64445 0.1335,0 1.0371,-1.5875 2.0079,-3.52778 z m -85.9492,-4.10505 c 1.3475,-2.64809 3.2918,-9.37268 4.648,-16.07538 0.8422,-4.16206 0.9658,-6.38276 0.4269,-7.66518 -0.8115,-1.93081 -5.2505,-4.80237 -7.4238,-4.80237 -2.3591,0 -2.7484,0.90175 -2.7484,6.3647 0,9.66109 1.8026,20.17625 3.9119,22.81964 0.4126,0.51709 0.6655,0.38023 1.1854,-0.64141 z m 39.6884,-37.27198 c -1.4825,-0.57884 -3.4148,-2.36046 -4.7291,-4.36049 -0.5117,-0.77868 -1.9621,-3.43413 -3.223,-5.90101 l -2.2927,-4.4852 -2.9669,-2.95074 c -1.6319,-1.6229 -4.052,-3.92671 -5.3782,-5.11956 -1.9626,-1.7653 -2.5593,-2.4813 -3.2071,-3.84825 -0.72,-1.51949 -0.7949,-1.91157 -0.7858,-4.11681 0.013,-3.1244 0.6701,-4.91387 2.5315,-6.89245 1.5127,-1.60792 2.4742,-2.08742 4.1851,-2.08714 2.5122,0 4.7655,1.59132 8.1028,5.72077 2.1116,2.61284 3.518,0.91451 4.4187,-5.33612 0.4797,-3.32887 0.4739,-6.10201 -0.02,-9.64485 -0.4703,-3.37212 -1.4352,-6.17733 -3.1031,-9.02241 -1.933,-3.29723 -1.8103,-5.32379 0.6063,-10.01319 1.8197,-3.53106 7.9474,-12.49834 8.5406,-12.49834 0.5932,0 6.7209,8.96728 8.5406,12.49834 2.4166,4.6894 2.5393,6.71596 0.6063,10.01319 -3.023,5.15648 -4.123,11.73044 -3.1233,18.66726 0.9007,6.25063 2.3071,7.94896 4.4187,5.33612 3.3373,-4.12945 5.5906,-5.72036 8.1028,-5.72077 1.7109,0 2.6724,0.47922 4.1851,2.08714 1.8614,1.97858 2.5186,3.76805 2.5315,6.89245 0.01,2.20524 -0.066,2.59732 -0.7858,4.11681 -0.6478,1.36695 -1.2445,2.08295 -3.2071,3.84825 -1.3262,1.19285 -3.7474,3.49666 -5.3806,5.11956 -2.9386,2.92018 -2.991,2.99325 -5.0574,7.05579 -2.8193,5.54276 -3.6807,6.92747 -5.3896,8.66314 -2.355,2.39199 -5.2526,3.09801 -8.1201,1.97851 z m -75.0609,-37.09316 c -1.571,-1.46945 -2.6013,-3.05957 -3.7567,-5.79808 -3.9825,-9.43902 -1.5351,-16.87773 5.5531,-16.87773 1.4927,0 2.2119,0.13639 3.207,0.60824 3.3874,1.60608 5.1138,5.51267 3.7542,8.49484 -0.2573,0.56444 -1.115,1.78305 -1.9059,2.70805 -0.7909,0.92497 -1.5592,2.00044 -1.7073,2.38993 -0.1481,0.38947 -0.2692,2.14753 -0.2692,3.90675 0,3.47077 -0.2796,4.60569 -1.3129,5.32941 -1.1009,0.77111 -2.1677,0.54307 -3.5623,-0.76141 z m 152.4304,0.76141 c -1.0332,-0.72372 -1.3128,-1.85864 -1.3128,-5.32941 0,-1.75922 -0.1212,-3.51728 -0.2693,-3.90675 -0.1481,-0.38949 -0.9163,-1.46496 -1.7073,-2.38993 -0.7909,-0.925 -1.6485,-2.14361 -1.9059,-2.70805 -1.3596,-2.98217 0.3669,-6.88876 3.7542,-8.49484 0.9952,-0.47185 1.7143,-0.60824 3.2071,-0.60824 7.0881,0 9.5356,7.43871 5.553,16.87773 -1.1554,2.73851 -2.1857,4.32863 -3.7566,5.79808 -1.3946,1.30448 -2.4615,1.53252 -3.5624,0.76141 z m -106.8016,-15.87713 c -4.7084,-4.05279 -7.9567,-5.77668 -12.5544,-6.66273 -1.229,-0.23683 -5.3604,-0.56967 -9.5982,-0.77326 -10.4349,-0.50128 -13.0516,-1.07265 -18.7713,-4.09881 -7.272,-3.84751 -14.8067,-9.69698 -22.0239,-17.09777 -4.1508,-4.25648 -6.7519,-7.51473 -8.2719,-10.36181 -0.9555,-1.78986 -0.9591,-1.8081 -1.0508,-5.36995 -0.1022,-3.96838 0.1383,-7.94545 1.2551,-20.75924 0.4162,-4.77551 0.7566,-9.6246 0.7564,-10.77575 0,-3.61576 -1.4525,-8.72642 -5.1721,-18.20508 -2.5617,-6.52795 -3.2943,-9.03619 -3.2943,-11.27891 0,-1.3911 0.076,-1.60007 0.8724,-2.39632 1.2163,-1.2163 2.2002,-1.18008 4.1988,0.15455 1.9319,1.29004 5.5522,5.04847 9.0198,9.36393 5.4237,6.74978 8.1951,11.72148 11.5477,20.7157 3.4747,9.32149 4.7066,11.88989 8.238,17.17561 9.1057,13.62894 22.1047,26.66232 34.6264,34.71792 1.4816,0.95319 3.5021,2.25506 4.4899,2.89304 2.3801,1.53729 6.0297,5.11189 7.6362,7.4794 1.5329,2.25885 3.2554,5.85611 4.3064,8.99308 0.6314,1.88468 0.7574,2.67462 0.7574,4.74996 0,2.48892 -2e-4,2.48948 -0.8724,3.36165 -0.7063,0.70638 -1.071,0.87232 -1.9168,0.87232 -0.9568,0 -1.308,-0.22675 -4.1784,-2.69753 z m 57.1005,1.82521 c -0.8722,-0.87217 -0.8723,-0.87273 -0.8723,-3.36165 0,-2.07534 0.1259,-2.86528 0.7574,-4.74996 1.0509,-3.13697 2.7735,-6.73423 4.3063,-8.99308 1.6065,-2.36751 5.2561,-5.94211 7.6363,-7.4794 0.9877,-0.63798 3.0082,-1.93985 4.4899,-2.89304 12.5216,-8.0556 25.5206,-21.08898 34.6263,-34.71792 3.5315,-5.28572 4.7634,-7.85412 8.238,-17.17561 3.3527,-8.99422 6.1241,-13.96592 11.5478,-20.7157 3.4676,-4.31546 7.0878,-8.07389 9.0197,-9.36393 1.9986,-1.33463 2.9826,-1.37085 4.1989,-0.15455 0.7962,0.79625 0.8723,1.00522 0.8723,2.39632 0,2.24272 -0.7326,4.75096 -3.2943,11.27891 -3.7195,9.47866 -5.1715,14.58932 -5.172,18.20508 -2e-4,1.15115 0.3402,6.00024 0.7564,10.77575 1.1168,12.81379 1.3572,16.79086 1.255,20.75924 -0.092,3.56185 -0.095,3.58009 -1.0508,5.36995 -1.5199,2.84708 -4.121,6.10533 -8.2719,10.36181 -7.2171,7.40079 -14.7519,13.25026 -22.0239,17.09777 -5.7196,3.02616 -8.3363,3.59753 -18.7712,4.09881 -4.2379,0.20359 -8.3692,0.53643 -9.5982,0.77326 -4.5978,0.88605 -7.8461,2.60994 -12.5544,6.66273 -2.8705,2.47078 -3.2217,2.69753 -4.1784,2.69753 -0.8459,0 -1.2105,-0.16594 -1.9169,-0.87232 z m -55.1691,-34.02417 c -6.8335,-1.03468 -11.9397,-3.57301 -17.9265,-8.9114 -7.4777,-6.66788 -11.6926,-13.25302 -15.2316,-23.79715 -3.6479,-10.8683 -9.8558,-31.89755 -16.9656,-57.47071 -6.6384,-23.87759 -9.2061,-31.62328 -13.0061,-39.2336 -4.087,-8.18488 -7.9798,-13.35732 -12.1074,-16.08698 -5.0416,-3.33407 -10.1464,-2.97924 -13.9083,0.96677 -2.0955,2.198 -2.6132,3.69598 -2.7355,7.91543 -0.084,2.9033 -0.015,3.65109 0.5311,5.77273 1.849,7.17914 5.7505,15.04303 10.1833,20.52525 2.8522,3.52747 3.0502,5.6758 0.7242,7.85861 -1.2585,1.18099 -1.7907,1.37778 -3.7253,1.37755 -2.8029,0 -4.1867,-0.81278 -7.9174,-4.64825 -4.3023,-4.42312 -8.4821,-10.11946 -12.2901,-16.74907 -8.4287,-14.67435 -12.2197,-29.80079 -10.521,-41.97999 0.7118,-5.10368 2.1472,-9.75968 4.0321,-13.07905 1.0471,-1.84409 3.5862,-4.36554 5.1534,-5.11769 1.1374,-0.54587 1.4781,-0.58481 3.9767,-0.4545 1.5031,0.0784 3.8712,0.38284 5.2626,0.67654 1.3913,0.29371 3.4495,0.53404 4.5737,0.53404 1.9171,0 2.0906,-0.0466 2.794,-0.74997 0.5544,-0.55439 0.75,-0.99365 0.75,-1.68453 0,-1.17294 -0.3004,-1.74837 -1.7035,-3.26311 -1.4138,-1.5262 -1.5234,-2.6604 -0.3688,-3.81505 0.7126,-0.71259 0.8599,-0.74997 2.9553,-0.74997 4.1345,0 9.085,2.06048 15.2171,6.33363 8.1992,5.71359 12.5446,10.89575 17.3862,20.73405 3.0701,6.23867 5.1574,11.55723 8.609,21.93636 3.5899,10.79469 5.0041,15.76729 12.8063,45.02727 6.464,24.24124 9.177,32.96976 13.397,43.10303 2.6387,6.33601 6.6647,13.27037 9.593,16.52285 1.5411,1.7117 3.7649,2.84736 5.5761,2.84765 1.6637,0 2.7383,-0.99112 2.7383,-2.52623 0,-0.86465 -0.3704,-1.58585 -2.3493,-4.57377 -1.2922,-1.951 -2.6188,-4.12455 -2.9481,-4.8301 -1.4056,-3.01218 -0.094,-6.3373 2.8887,-7.32156 0.5599,-0.18478 1.7034,-0.26108 2.8298,-0.18878 2.5271,0.16217 4.7345,1.27913 8.4424,4.27202 10.2465,8.27073 16.5408,19.50663 16.5355,29.51736 0,4.18251 -1.4009,9.81569 -3.4128,13.7452 -1.3638,2.66364 -3.9853,5.35363 -6.3357,6.50127 -3.2766,1.59984 -7.6744,1.94636 -13.5028,1.06385 z m 50.5789,0.1125 c -5.527,-1.09689 -9.4002,-5.16397 -11.648,-12.23102 -1.5409,-4.84488 -1.9068,-9.11757 -1.1606,-13.55341 1.5059,-8.95222 7.3532,-18.07156 16.1297,-25.15575 3.7079,-2.99289 5.9152,-4.10985 8.4423,-4.27202 1.1264,-0.0723 2.27,0.004 2.8299,0.18878 2.9823,0.98426 4.2942,4.30938 2.8886,7.32156 -0.3292,0.70555 -1.6558,2.8791 -2.948,4.8301 -1.9789,2.98792 -2.3494,3.70912 -2.3494,4.57377 0,1.53511 1.0747,2.52651 2.7384,2.52623 1.8112,0 4.035,-1.13595 5.5761,-2.84765 2.9282,-3.25248 6.9542,-10.18684 9.5929,-16.52285 4.2201,-10.13327 6.933,-18.86179 13.397,-43.10303 7.8022,-29.25998 9.2165,-34.23258 12.8063,-45.02727 3.4517,-10.37913 5.539,-15.69769 8.6091,-21.93636 4.8416,-9.8383 9.187,-15.02046 17.3862,-20.73405 4.041,-2.81599 6.9502,-4.35761 10.2585,-5.43606 2.2778,-0.74255 3.1342,-0.89757 4.9586,-0.89757 2.0953,0 2.2427,0.0374 2.9552,0.74997 1.1547,1.15465 1.0451,2.28885 -0.3687,3.81505 -1.4031,1.51474 -1.7035,2.09017 -1.7035,3.26311 0,0.69088 0.1955,1.13014 0.75,1.68453 0.7033,0.7034 0.8769,0.74997 2.7939,0.74997 1.1243,0 3.1824,-0.24033 4.5738,-0.53404 1.3914,-0.2937 3.7595,-0.59816 5.2626,-0.67654 2.4986,-0.13031 2.8393,-0.0914 3.9767,0.4545 1.5672,0.75215 4.1062,3.2736 5.1534,5.11769 1.8849,3.31937 3.3202,7.97537 4.0321,13.07905 1.6987,12.1792 -2.0923,27.30564 -10.5211,41.97999 -3.8079,6.62961 -7.9878,12.32595 -12.29,16.74907 -3.729,3.83378 -5.1151,4.64791 -7.9133,4.64825 -1.9587,2.3e-4 -2.746,-0.31635 -3.9333,-1.58145 -1.0807,-1.15162 -1.3788,-1.79367 -1.3721,-2.95553 0.01,-1.31859 0.6839,-2.70023 2.3002,-4.69918 4.4327,-5.48222 8.3343,-13.34611 10.1833,-20.52525 0.5464,-2.12164 0.6152,-2.86943 0.5311,-5.77273 -0.079,-2.73943 -0.2044,-3.61021 -0.6995,-4.87374 -0.6964,-1.77723 -2.8856,-4.24635 -4.4955,-5.07023 -9.8719,-5.05208 -20.3876,5.86648 -28.7272,29.82781 -1.5472,4.44536 -3.9925,12.73279 -7.8352,26.55454 -7.1098,25.57316 -13.3176,46.60241 -16.9655,57.47071 -1.6013,4.77109 -3.6844,9.44746 -5.5999,12.57171 -4.112,6.70696 -11.9627,14.15611 -18.2798,17.34497 -5.1961,2.62297 -14.0358,3.95216 -19.3153,2.90437 z m -34.1383,-63.7828 c -0.6795,-0.5966 -1.6371,-2.23115 -3.5702,-6.09405 -1.5586,-3.11443 -3.2683,-6.12012 -4.1698,-7.3307 -2.2284,-2.99212 -6.3276,-6.77203 -10.9897,-10.1337 -6.2617,-4.51507 -8.6943,-6.56667 -12.6854,-10.69853 -4.552,-4.71263 -5.6151,-6.20951 -8.5279,-12.00753 -2.7655,-5.50485 -3.5321,-7.61012 -3.5321,-9.6999 0,-1.46232 0.048,-1.57655 1.1207,-2.64902 1.0664,-1.06636 1.1933,-1.12078 2.6129,-1.12078 1.4448,0 1.5293,0.0387 2.6712,1.22336 0.896,0.92959 1.3864,1.77669 2.0422,3.52778 2.0577,5.49368 4.7841,9.65456 9.6322,14.7001 2.8923,3.01001 5.2032,4.81482 10.0147,7.82125 2.9098,1.81818 3.845,2.59278 7.3298,6.07096 4.2739,4.26577 5.2953,5.63595 7.6574,10.27271 2.7821,5.46092 4.1269,9.84951 4.1269,13.4668 0,1.65659 -0.081,1.98443 -0.6642,2.67716 -0.8876,1.05487 -1.8469,1.04679 -3.0687,-0.0259 z m 24.1527,0.0259 c -0.5829,-0.69273 -0.6642,-1.02057 -0.6642,-2.67716 0,-3.61729 1.3449,-8.00588 4.1269,-13.4668 2.3622,-4.63676 3.3835,-6.00694 7.6574,-10.27271 3.4848,-3.47818 4.42,-4.25278 7.3298,-6.07096 4.8115,-3.00643 7.1225,-4.81124 10.0147,-7.82125 4.8482,-5.04554 7.5746,-9.20642 9.6322,-14.7001 0.6559,-1.75109 1.1463,-2.59819 2.0423,-3.52778 1.1418,-1.18467 1.2263,-1.22336 2.6712,-1.22336 1.4196,0 1.5464,0.0544 2.6128,1.12078 1.0724,1.07247 1.1208,1.1867 1.1208,2.64902 0,2.08978 -0.7666,4.19505 -3.5322,9.6999 -2.9128,5.79802 -3.9759,7.2949 -8.5279,12.00753 -3.9911,4.13186 -6.4236,6.18346 -12.6853,10.69853 -4.6622,3.36167 -8.7614,7.14158 -10.9897,10.1337 -0.9016,1.21058 -2.6113,4.21627 -4.1699,7.3307 -1.9331,3.8629 -2.8907,5.49745 -3.5702,6.09405 -1.2217,1.0727 -2.1811,1.08078 -3.0687,0.0259 z m -138.3958,407.629871 c -0.529,-0.641209 -6.8756,-5.355064 -10.7718,-8.000589 -6.8482,-4.649945 -11.5331,-7.288491 -24.111,-13.57943 -12.015,-6.009408 -16.0371,-8.433646 -22.2017,-13.381334 -5.6515,-4.536004 -8.9625,-8.062807 -14.5161,-15.462416 -1.7281,-2.302446 -4.1936,-5.419718 -5.4791,-6.927273 -15.1024,-17.7122907 -35.7996,-29.7059133 -59.5857,-34.528732 -21.2191,-4.302374 -42.7929,-2.950992 -66.5992,4.171706 -20.0694,6.004637 -39.1714,5.4173839 -54.1015,-1.663238 -5.7062,-2.706126 -12.444,-7.318509 -15.4053,-10.545617 -3.267,-3.560336 -4.8646,-6.363316 -8.8834,-15.586132 -2.7895,-6.401826 -3.3605,-7.16185 -12.9186,-17.197056 -7.2803,-7.64368 -9.7347,-10.467365 -11.938,-13.73419 -3.0843,-4.572897 -3.9673,-7.273943 -3.9734,-12.15354 v -3.053413 l 2.5015,2.412076 c 5.9742,5.760566 8.251,7.374569 15.6878,11.121171 9.7816,4.927857 12.9379,7.181606 20.6804,14.766379 2.9634,2.902989 5.9652,5.745634 6.6707,6.31698 4.4862,3.632918 11.1333,6.803838 17.9435,8.559774 4.7721,1.230437 12.9241,2.453691 15.1182,2.268579 l 0.991,-0.08361 -4.0698,-3.71348 c -10.814,-9.867258 -16.6459,-16.238013 -21.0183,-22.960238 -4.4625,-6.860771 -6.6672,-13.393599 -7.2945,-21.614527 -0.6416,-8.409631 -0.8835,-9.282724 -4.1617,-15.022441 -5.0066,-8.766 -8.1994,-17.64489 -9.6881,-26.94179 -0.5041,-3.14803 -1.0304,-9.11632 -1.0324,-11.70727 l -10e-4,-1.38602 1.6035,1.49963 c 9.9912,9.34384 15.3045,14.96432 21.8188,23.08049 6.4258,8.00579 7.9479,10.95032 9.8046,18.966763 0.6888,2.973981 1.8517,5.606447 3.7082,8.394392 3.7445,5.623303 9.4815,12.489051 14.5784,17.446977 3.4203,3.32704 9.0857,7.89532 9.2352,7.446792 0.04,-0.120253 -0.518,-1.593632 -1.2401,-3.274163 -3.6883,-8.583172 -5.6344,-14.063517 -6.9145,-19.471639 -1.4046,-5.934106 -1.6609,-8.220414 -1.6542,-14.756602 0.01,-5.81208 0.037,-6.17717 0.8544,-10.13434 0.7415,-3.58845 0.8769,-4.86379 1.0767,-10.13434 0.1256,-3.31611 0.3517,-7.41475 0.5023,-9.10808 0.8489,-9.54624 2.929,-19.00095 4.8264,-21.93739 0.7793,-1.20599 2.7699,-3.25628 2.9687,-3.05757 0.063,0.0633 0.5295,2.82674 1.0359,6.1409 1.6965,11.10206 2.2527,13.24774 5.023,19.37812 2.0497,4.53582 3.3437,8.2764 4.1362,11.95618 0.8044,3.7353 0.8106,9.94115 0.015,14.93367 -0.6708,4.20897 -0.7072,6.166908 -0.164,8.836807 2.004,9.851145 9.0014,21.176107 16.9159,27.37758 1.9697,1.543397 5.4274,3.637845 5.6456,3.419661 0.058,-0.05755 -0.4738,-1.658722 -1.1808,-3.558129 -3.6152,-9.71278 -5.0925,-16.74119 -4.7647,-22.668575 0.1578,-2.854062 0.3916,-4.150103 1.4397,-7.980859 0.8508,-3.109825 0.9313,-6.887065 0.2966,-13.927265 -1.1572,-12.8375 -0.4016,-20.28755 2.7102,-26.72194 1.0108,-2.09019 1.5405,-2.80003 3.8764,-5.19545 1.4882,-1.526 2.7847,-2.77453 2.8813,-2.77453 0.097,0 0.2477,3.08841 0.3358,6.86313 0.3161,13.53789 1.2021,17.53675 5.8002,26.17686 1.4824,2.78568 2.4007,5.44268 2.9868,8.64197 0.3424,1.86908 0.388,3.16479 0.2438,6.92727 -0.1577,4.113979 -0.1186,4.913181 0.3518,7.193793 1.4249,6.909415 4.2627,12.69556 8.3515,17.028749 2.8661,3.037429 9.1416,7.596626 15.6682,11.383125 3.8991,2.262113 10.3079,5.495045 10.5041,5.298824 0.075,-0.07474 -0.2702,-2.032949 -0.7665,-4.351584 -1.194,-5.578404 -1.8388,-9.201598 -2.3013,-12.931242 -0.6547,-5.280275 -0.4879,-7.625156 1.0318,-14.50363 1.0754,-4.867512 1.6662,-9.262302 1.6662,-12.393985 0,-6.05975 1.8463,-15.71793 3.7153,-19.43516 0.4221,-0.83948 3.1444,-3.83347 3.4856,-3.83347 0.089,0 0.2304,1.93386 0.3149,4.29747 0.2596,7.2663 1.4941,12.83382 4.3663,19.69141 0.7683,1.834443 2.4597,5.875352 3.7586,8.979796 4.964,11.863929 7.2717,15.879335 11.3637,19.77277 2.3856,2.269836 2.7801,2.533945 10.5626,7.071949 4.8997,2.857013 8.088,6.357877 10.8958,11.963836 1.7576,3.509151 2.4447,5.283507 5.1724,13.357397 1.4861,4.39869 2.8976,8.035893 3.9504,10.179498 4.4276,9.014973 11.4106,18.394269 19.6745,26.4262614 4.521,4.3941997 8.3779,7.5170654 14.5904,11.8137188 8.817,6.0979238 10.4521,7.4943338 14.7002,12.5537058 12.9347,15.404842 26.7481,40.575804 28.8034,52.485787 0.4814,2.789279 0.4264,5.428133 -0.1,4.790337 z m -16.9715,-23.898346 c -1.6231,-4.877492 -6.3412,-12.682629 -11.0997,-18.362377 -6.495,-7.752413 -14.784,-14.561049 -25.2103,-20.7079 -5.8603,-3.454913 -10.7255,-7.3485532 -16.1657,-12.9373226 -9.5,-9.759603 -14.8908,-18.3453664 -18.8254,-29.9830564 -2.8545,-8.442779 -4.7518,-12.271406 -8.6373,-17.429504 -2.7461,-3.64549 -5.2616,-6.229773 -10.419,-10.703765 -5.3255,-4.619849 -6.7341,-6.129943 -9.4166,-10.095011 -3.271,-4.834774 -5.2108,-8.451144 -8.8063,-16.417173 -1.1138,-2.467777 -2.1361,-4.597913 -2.2718,-4.733637 -0.5633,-0.563212 -0.1392,10.086519 0.6736,16.917477 0.5246,4.40808 2.1221,12.309942 3.5629,17.623032 0.6386,2.354913 1.1611,4.404231 1.1611,4.55404 0,0.359064 -5.9938,0.361347 -9.5298,0.0036 -7.6071,-0.769517 -14.7204,-3.218924 -20.6166,-7.099171 -9.3035,-6.122529 -16.126,-14.971016 -24.5401,-31.82725 l -2.1428,-4.292626 -0.077,2.69394 c -0.1458,5.087902 1.0777,11.947056 3.2514,18.228475 1.4632,4.228151 3.3357,8.531475 6.5051,14.950106 1.5203,3.078787 2.7642,5.719053 2.7642,5.86722 0,0.180725 -0.7392,0.213026 -2.245,0.09814 -14.4734,-1.104284 -25.2938,-7.052938 -34.0325,-18.709793 -3.6553,-4.875901 -6.3767,-9.363388 -10.4407,-17.216272 -1.2811,-2.475397 -2.3937,-4.5007 -2.4725,-4.5007 -0.2734,0 0.2204,5.278504 0.828,8.851514 1.3777,8.101086 4.174,15.356839 9.0475,23.475756 3.2813,5.466362 6.1686,9.405466 9.2622,12.635858 0.9441,0.985905 1.4912,1.731818 1.2703,1.731818 -0.5766,0 -5.8856,-1.195468 -8.6759,-1.953619 -7.4896,-2.035002 -16.3571,-6.81777 -24.2455,-13.076945 -4.3143,-3.423305 -13.6858,-12.964134 -18.8618,-19.202656 -2.4503,-2.953276 -4.4979,-5.240969 -4.5503,-5.083797 -0.1185,0.355498 2.3382,6.161373 4.0536,9.579546 6.1473,12.250085 15.1551,22.538983 26.9272,30.757012 2.7971,1.952644 8.3169,5.329715 12.6303,7.727397 1.3727,0.763078 2.4984,1.456908 2.5015,1.541857 0.011,0.29305 -3.4677,1.727893 -6.7436,2.781762 -7.0911,2.281279 -10.6828,2.825326 -18.6945,2.831818 -5.0084,0.0041 -6.3273,-0.08241 -9.493,-0.622172 -10.3915,-1.771842 -16.9792,-5.013575 -27.8272,-13.693345 -7.083,-5.667329 -7.5351,-6.005278 -7.5351,-5.632616 0,0.547178 2.4303,4.506909 4.273,6.962191 4.7423,6.318852 10.7101,11.114013 18.4331,14.811175 5.6775,2.717928 11.7351,4.400588 19.3785,5.38285 3.715,0.477417 5.109,0.527807 11.5376,0.417176 9.6046,-0.165306 15.1009,-0.906318 26.1817,-3.52983 10.1319,-2.398889 14.7458,-2.85691 30.1755,-2.995635 22.9869,-0.206638 36.2455,1.271283 48.6671,5.424978 17.6544,5.903472 29.0213,15.054553 52.9302,42.612243 8.2665,9.528078 9.8718,10.843002 20.3587,16.67533 6.5436,3.639332 9.863,5.604984 14.2394,8.432337 4.4244,2.858424 10.877,7.410437 12.29,8.670046 1.2885,1.148721 1.4307,0.845922 0.6725,-1.432509 z m 289.9117,-6.881064 c 0,-6.553688 -0.3334,-9.323365 -1.5743,-13.14899 -0.7626,-2.350834 -0.8327,-2.844928 -0.8371,-5.901009 0,-2.97647 0.067,-3.521466 0.6582,-5.065016 1.0092,-2.632287 2.1934,-4.448002 4.4486,-6.821183 2.3036,-2.423981 4.2808,-3.920656 6.9273,-5.243534 2.0747,-1.0370901 5.7226,-2.376645 5.9239,-2.1753692 0.075,0.07543 -0.433,1.2749259 -1.1298,2.6655632 -1.7156,3.424125 -3.5696,9.252783 -4.3951,13.817317 -0.1531,0.846666 -0.3906,3.394568 -0.5277,5.661993 -0.2948,4.876184 -0.7231,7.321896 -1.8868,10.77414 -0.9285,2.754566 -1.8429,4.706492 -3.0572,6.526491 -0.817,1.22464 -4.013,4.618182 -4.3492,4.618182 -0.1096,0 -0.2,-2.568863 -0.2008,-5.708585 z m -17.8753,-44.3217148 c 0.4285,-9.5830089 3.0263,-19.1943422 8.3907,-31.0443912 7.5318,-16.637794 21.4757,-37.503611 37.7224,-56.448315 8.9643,-10.452997 16.9586,-18.49387 23.0768,-23.21134 4.6812,-3.60949 9.7268,-8.56121 12.0298,-11.80605 2.2792,-3.21128 4.263,-7.41344 5.0438,-10.68377 1.5677,-6.56691 2.4239,-8.74581 4.9142,-12.50553 1.8599,-2.80798 6.4004,-7.48681 9.6332,-9.9268 4.6915,-3.54089 9.8022,-6.18616 15.0829,-7.80689 5.786,-1.77579 7.4143,-2.35789 9.3153,-3.33006 2.9821,-1.52508 4.7419,-2.75757 6.5896,-4.61506 1.3721,-1.3795 1.9424,-2.23663 3.1597,-4.7489 1.8532,-3.8247 3.2738,-5.97415 5.5821,-8.44583 2.8352,-3.03589 6.2189,-5.32181 9.33931,-6.30921 3.07248,-0.97223 14.61619,-7.85488 17.12309,-10.2092 0.38657,-0.36307 0.78665,-0.57633 0.88908,-0.47393 0.31301,0.31301 -0.6748,4.49179 -1.48329,6.27493 -1.79165,3.95139 -5.0321,8.1019 -12.21427,15.64462 -6.00582,6.30739 -5.91252,6.05772 -7.02492,18.77907 -0.4535,5.18676 -1.3751,9.01982 -3.0643,12.74531 l -0.7356,1.62237 h 0.9649 c 1.6581,0 5.70405,-0.79415 8.06614,-1.58325 7.98987,-2.66915 16.48214,-8.46623 24.4296,-16.67638 4.52548,-4.67506 9.05266,-10.56273 10.64542,-13.84451 l 0.57655,-1.18798 -0.92328,-2.14963 c -1.8572,-4.32403 -2.41849,-8.68275 -1.57749,-12.25042 0.40614,-1.72294 1.73862,-4.44187 4.47787,-9.13712 2.00293,-3.43316 4.64858,-9.11676 6.80743,-14.62424 1.58288,-4.03814 4.74105,-13.46129 4.74105,-14.14606 0,-0.72546 0.46854,-0.30644 0.97143,0.86878 1.312,3.06594 3.21574,10.415 4.03763,15.58637 0.54856,3.45173 0.77459,10.2931 0.41586,12.58747 -0.15578,0.99644 -0.63194,2.9445 -1.05812,4.32903 -1.00554,3.26664 -1.0069,5.10106 -0.007,9.9168 1.43151,6.89643 0.96879,12.6319 -1.94176,24.0685 -0.91207,3.58376 -1.60947,6.56477 -1.54976,6.62445 0.0597,0.0597 0.55266,-0.12026 1.09551,-0.39989 4.6698,-2.40558 11.7721,-9.51381 16.06244,-16.07586 1.9559,-2.99153 4.03224,-7.29006 5.08116,-10.51919 0.75068,-2.3111 0.8354,-2.88388 0.85382,-5.77273 0.0113,-1.76389 -0.0777,-4.5348 -0.19763,-6.15758 -0.31096,-4.20698 0.22809,-6.3492 2.80821,-11.1606 4.67288,-8.71387 7.37639,-15.04563 9.31154,-21.80808 1.16324,-4.06503 2.34521,-9.22058 2.34521,-10.22937 0,-1.23134 0.49446,-0.70258 1.82824,1.95513 3.30233,6.58014 4.62644,11.73967 5.48927,21.38941 1.57106,17.57026 -0.18868,38.36603 -4.15113,49.05615 -1.29547,3.49504 -4.25619,9.55776 -6.69428,13.70797 -1.13982,1.94028 -1.9362,3.52778 -1.76969,3.52778 0.41815,0 3.50217,-1.8248 5.53192,-3.27317 4.3092,-3.07499 12.23456,-10.71872 14.00963,-13.51179 1.46971,-2.31264 2.23549,-4.17638 4.36311,-10.61921 2.21436,-6.70549 3.28591,-8.78285 6.55982,-12.71698 3.5249,-4.23577 9.29124,-9.30646 15.35332,-13.50107 7.31594,-5.06222 10.77337,-8.30642 15.35299,-14.40611 1.43872,-1.91624 2.79079,-3.62928 3.00464,-3.80677 0.34501,-0.28633 0.38839,0.20851 0.38503,4.39107 -0.006,7.47884 -0.43195,8.60231 -6.21943,16.40409 -4.14867,5.59259 -5.44684,7.67198 -6.60521,10.58002 -1.09925,2.75962 -1.66606,5.11394 -2.30565,9.57657 -1.90654,13.30283 -6.2316,23.45279 -14.36244,33.70557 -2.9969,3.779 -11.67687,12.35876 -18.35296,18.14111 -3.10445,2.68884 -5.90668,5.17234 -6.22719,5.51891 l -0.58271,0.63012 2.42783,0.29836 c 4.8935,0.60137 10.91648,0.0855 15.92752,-1.36408 2.90112,-0.83925 6.97112,-2.82499 8.9798,-4.38122 6.20747,-4.80924 11.32965,-7.16562 20.35966,-9.3661 5.82399,-1.41925 8.57058,-2.35481 11.93269,-4.06462 5.46056,-2.77699 10.29698,-6.37076 15.87785,-11.79825 l 3.27121,-3.18133 v 1.52992 c 0,0.84143 -0.1826,2.157 -0.40579,2.92344 -0.53601,1.84086 -2.54595,5.59695 -4.78828,8.94821 -8.94054,13.36197 -19.29228,22.86883 -42.65542,39.17396 -12.3343,8.60811 -21.09532,12.49939 -31.12172,13.822935 -3.89493,0.514183 -7.62262,0.481959 -14.05044,-0.121458 -13.10468,-1.230155 -22.28909,-2.998534 -47.31976,-9.110928 -18.96351,-4.630829 -24.46217,-5.724239 -32.41219,-6.445109 -9.92507,-0.89996 -20.67567,0.12803 -28.76637,2.75064 -2.8616,0.92759 -7.2878,3.07866 -10.0184,4.86877 -2.4596,1.612463 -7.373,6.459117 -12.0685,11.904491 -3.9382,4.567177 -13.9292,14.765327 -18.9759,19.369372 -13.2381,12.076878 -24.9466,20.66862 -39.4361,28.938167 -7.761,4.429349 -11.1453,6.909313 -16.3339,11.969018 -4.0089,3.909316 -7.2531,7.774375 -13.581,16.1800041 -5.6405,7.49264036 -10.3136,13.4521984 -10.9788,14.0014028 -0.4182,0.3452347 -0.4341,0.1526822 -0.2773,-3.3539287 z m 22.8742,-38.9960532 c 5.2845,-1.818127 15.378,-8.217823 24.5887,-15.590262 10.7478,-8.602774 19.8365,-17.038524 37.5058,-34.811339 7.5439,-7.588032 12.3103,-12.169371 14.3677,-13.809872 13.2347,-10.55278 25.6334,-14.55621 45.0803,-14.55605 20.58804,1.5e-4 41.84558,3.9128 63.70351,11.72518 11.14167,3.982229 19.92343,5.722899 28.85596,5.719717 6.2816,-0.0026 10.26189,-0.683157 14.92173,-2.552677 12.64756,-5.07422 28.01615,-14.15814 39.73443,-23.48584 2.8763,-2.28951 3.86477,-3.20845 3.45127,-3.20845 -0.11192,0 -2.05992,1.00232 -4.32891,2.2274 -15.30324,8.26259 -21.29202,10.7093 -30.93512,12.6385 -8.12338,1.62519 -14.15554,1.86649 -22.96401,0.91858 -7.79023,-0.8383 -15.03582,-3.01139 -17.3834,-5.21362 l -0.70663,-0.66286 5.32481,-2.71721 c 10.59183,-5.40486 18.63578,-11.31814 26.75706,-19.66961 6.27056,-6.44831 9.93927,-11.54304 13.66956,-18.98293 1.71237,-3.41525 3.55751,-7.78251 3.43869,-8.139 -0.047,-0.14081 -1.22597,1.12062 -2.6201,2.80318 -3.92301,4.73469 -7.79764,9.01515 -10.41525,11.50615 -11.62261,11.06041 -31.54141,21.93769 -45.90211,25.06626 -1.88406,0.41045 -3.71871,0.56146 -8.08182,0.66522 l -5.64444,0.13423 0.50787,-0.56482 c 0.27932,-0.31068 2.99251,-2.21591 6.02929,-4.2339 8.9388,-5.93993 14.40727,-10.58616 19.18103,-16.29697 6.77187,-8.10112 10.34242,-15.48623 12.37357,-25.59289 0.74245,-3.69419 1.44852,-9.47294 1.23552,-10.11192 -0.0585,-0.17551 -1.38022,2.15895 -2.93717,5.18771 -5.4729,10.64663 -8.22536,15.15512 -12.51232,20.49503 -9.51155,11.84776 -19.9325,19.00214 -32.21617,22.1177 -2.83246,0.71838 -10.6123,1.87357 -11.48552,1.70542 -0.28885,-0.0556 0.17808,-0.60347 1.48946,-1.74752 8.70379,-7.59324 14.09592,-14.53229 16.50443,-21.23933 0.92395,-2.57294 1.8464,-6.33658 2.34004,-9.54734 0.41966,-2.72976 0.85497,-12.31516 0.55928,-12.31516 -0.24846,0 -1.01184,1.61301 -2.48917,5.2596 -3.82037,9.43002 -7.11759,14.85328 -12.30332,20.23633 -8.50341,8.82699 -20.12217,15.4257 -32.07594,18.21714 -6.74771,1.5757 -13.43951,2.21136 -23.21701,2.20536 l -6.9273,-0.004 1.3038,-1.21317 c 6.9251,-6.44364 7.9431,-7.48063 9.9405,-10.12595 3.366,-4.4578 5.0665,-7.91436 6.2177,-12.63871 1.0632,-4.36312 0.7347,-5.77272 -1.3454,-5.77272 -0.8104,0 -1.1122,0.18519 -2.1167,1.29896 -4.4506,4.93445 -5.4683,5.86225 -7.5604,6.89238 -1.1428,0.56273 -3.3831,1.37563 -4.9783,1.80643 -6.256,1.68951 -10.9826,4.43933 -15.0806,8.77347 -3.0726,3.24976 -4.1462,5.10748 -5.7183,9.89491 -2.3933,7.28865 -8.2186,16.51706 -16.0855,25.48292 -3.5868,4.08789 -10.4126,10.60281 -13.9699,13.333746 -5.2733,4.048298 -7.3917,5.91117 -11.413,10.036258 -9.2011,9.438768 -19.8226,23.067791 -33.7079,43.252426 -1.8661,2.712694 -3.5023,4.99972 -3.6359,5.082334 -0.3013,0.186215 -0.3201,0.633024 -0.027,0.633024 0.119,0 0.885,-0.230036 1.7022,-0.511207 z m -581.9994,-101.024643 c -0.6162,-2.47571 -2.4049,-5.32284 -6.8906,-10.96818 -2.8006,-3.52462 -4.5856,-6.69993 -5.3363,-9.49293 -0.24,-0.89285 -0.4678,-3.048 -0.5424,-5.13131 -0.2762,-7.71219 1.6807,-14.3635 5.2714,-17.91668 l 1.4864,-1.47091 0.3132,3.02309 c 0.6989,6.745 2.3273,12.61456 4.9529,17.85237 3.629,7.23926 4.894,14.58437 3.4436,19.99447 -0.4818,1.79727 -1.9427,5.32876 -2.2043,5.32876 -0.1048,0 -0.3271,-0.5484 -0.4939,-1.21868 z m 889.54089,-37.71997 c -0.66584,-4.37458 -0.25393,-9.92625 1.03237,-13.91387 0.61147,-1.89568 2.41076,-5.58933 4.16662,-8.55351 3.80944,-6.43084 6.64233,-13.53286 8.82999,-22.13651 1.12802,-4.4363 2.8624,-12.98897 2.8624,-14.11519 v -0.70291 l 0.79394,0.75356 c 2.62664,2.49305 4.08081,9.3524 4.08081,19.24953 0,6.01856 -0.27091,9.01358 -1.19306,13.18988 -1.63463,7.40313 -4.54434,12.33853 -10.58821,17.9596 -1.59309,1.48166 -4.25221,4.25257 -5.90911,6.15757 -1.65693,1.905 -3.18385,3.6058 -3.39321,3.77952 -0.32756,0.27188 -0.42269,0.0394 -0.68254,-1.66767 z m -841.57729,-19.33451 c -10.5973,-0.9546 -18.1399,-2.77591 -24.8416,-5.99848 -3.798,-1.82628 -5.463,-2.83656 -8.9097,-5.40604 -4.8437,-3.61101 -7.9912,-6.83825 -12.8668,-13.19302 -6.1081,-7.9611 -10.0287,-15.93088 -11.6116,-23.60404 -1.2481,-6.04979 -1.3663,-7.73755 -1.4798,-21.1244 -0.1369,-16.14178 0.3696,-23.93971 2.1273,-32.75438 0.9076,-4.55124 3.2921,-12.03062 3.9688,-12.4489 0.1275,-0.0788 0.6874,0.75615 1.2441,1.85536 1.122,2.215 2.942,4.18291 4.4475,4.80899 1.9518,0.81167 4.4783,0.35126 7.9558,-1.44978 2.5372,-1.31408 6.026,-4.85125 7.4272,-7.53007 2.0628,-3.94385 2.8907,-8.08416 2.7088,-13.54613 -0.1819,-5.46382 -0.8493,-7.71767 -3.7343,-12.61169 -2.6393,-4.47735 -5.8017,-11.13213 -6.9289,-14.58111 -3.2118,-9.82726 -3.0688,-18.47237 0.4395,-26.56104 2.7115,-6.25173 5.105,-9.23074 17.3453,-21.58815 5.6609,-5.715 11.1087,-11.43 12.1063,-12.7 6.2797,-7.99415 8.8942,-14.52482 10.1173,-25.27171 0.4605,-4.04566 0.5167,-5.5988 0.3806,-10.51919 -0.088,-3.175 -0.2254,-6.86955 -0.3059,-8.21011 l -0.1462,-2.43737 1.4627,1.41111 c 7.1249,6.87345 12.553,17.0005 14.5894,27.21908 1.0169,5.10273 1.2399,7.68206 1.1193,12.94373 -0.1292,5.6385 -0.5687,8.13783 -2.3885,13.58462 -1.0768,3.22274 -1.8932,5.20222 -7.3028,17.7061 -4.1017,9.48085 -4.8754,12.53082 -5.0438,19.88384 -0.1149,5.01558 -0.09,5.37769 0.5355,7.80501 0.917,3.55792 1.9485,5.63305 3.691,7.42491 3.7374,3.84338 8.701,4.35902 11.9398,1.24039 2.2694,-2.18525 3.6973,-6.69608 3.9847,-12.58755 0.1761,-3.61172 0.194,-3.69821 0.8907,-4.29747 1.3878,-1.1937 2.0466,-0.92236 4.948,2.03813 2.2671,2.3133 2.7667,2.99127 3.9229,5.3243 1.4956,3.01796 2.2396,5.99609 2.4946,9.98561 0.1644,2.57171 -0.1278,5.49428 -1.3338,13.34142 -0.3578,2.32833 -0.7185,5.84969 -0.8015,7.82525 -0.132,3.14034 -0.082,3.86608 0.3975,5.77272 0.743,2.95441 1.8411,5.09278 3.5812,6.97372 4.2619,4.60673 9.6541,3.95957 15.439,-1.85297 2.8565,-2.87018 4.1922,-5.14091 5.2005,-8.84095 l 0.3496,-1.28283 1.2229,1.8735 c 3.0606,4.68897 8.9374,19.56423 11.5246,29.17095 6.2038,23.03541 5.9569,43.90684 -0.7253,61.31919 -3.9936,10.40655 -10.7543,19.89284 -18.9833,26.63654 -9.7116,7.95871 -20.5537,12.6101 -32.9791,14.14839 -3.48,0.43082 -12.9196,0.48827 -17.1795,0.10452 z m 15.6505,-14.98056 c 12.8749,-2.28392 23.398,-8.10801 30.9524,-17.13084 4.1983,-5.01447 7.6437,-11.29525 9.7201,-17.71942 4.0263,-12.45708 3.89,-25.02564 -0.3892,-35.90528 -3.0196,-7.67688 -8.7337,-14.79368 -16.6014,-20.6764 -4.436,-3.3168 -7.2527,-5.02373 -15.0563,-9.12416 -3.3078,-1.73811 -7.0925,-3.88538 -8.4103,-4.77177 -12.2155,-8.21602 -20.6232,-19.91865 -23.8192,-33.15366 -3.0828,-12.76638 -1.5593,-30.0413 4.6142,-52.31892 0.2844,-1.02619 0.517,-2.03587 0.517,-2.24372 0,-0.80466 -4.5647,4.32991 -7.6257,8.57771 -5.2244,7.24995 -9.7273,17.48577 -11.4659,26.06378 -2.1188,10.45369 -1.2769,18.76691 2.8072,27.71748 3.3102,7.25458 4.6892,13.89837 4.4045,21.22019 -0.2373,6.10246 -1.1389,9.15482 -3.4319,11.61937 -0.6802,0.73101 -3.4387,3.3187 -6.1301,5.75043 -11.0969,10.02633 -17.141,18.6692 -18.7309,26.78468 -1.5471,7.8973 -1.5213,25.79096 0.045,31.06661 1.3043,4.39343 6.9929,12.64653 11.8964,17.25938 11.7727,11.07489 27.5838,17.88429 40.675,17.51756 1.9755,-0.0553 4.6887,-0.29521 6.0292,-0.53302 z m 683.78321,-48.80738 c -2.06158,-4.10251 -2.9874,-8.26521 -2.78173,-12.50757 0.16535,-3.41168 0.76697,-5.8098 2.46182,-9.81323 0.70204,-1.65828 1.62629,-4.26148 2.05394,-5.78489 0.84099,-2.99599 1.96332,-9.68917 2.24454,-13.38569 l 0.17505,-2.30101 1.77628,1.91616 c 6.85633,7.39622 8.77814,13.62086 6.39169,20.70251 -1.09892,3.26103 -1.87049,4.70275 -5.19758,9.71211 -3.62455,5.45721 -4.66272,7.48133 -5.39496,10.51876 -0.32063,1.32996 -0.67402,2.4181 -0.78532,2.4181 -0.11133,0 -0.53599,-0.66386 -0.94373,-1.47525 z m 56.92184,-32.07789 c 0,-0.10981 0.67984,-2.15913 1.51078,-4.55404 4.65341,-13.41215 5.65389,-26.636 2.86299,-37.84199 -1.32144,-5.30586 -2.62271,-8.50182 -6.89233,-16.92759 -5.67913,-11.2073 -6.75439,-13.75897 -8.20894,-19.48018 -0.63567,-2.50036 -0.68862,-3.10447 -0.67618,-7.71578 0.0126,-4.62595 0.0662,-5.1964 0.7132,-7.56868 0.38482,-1.41111 1.44431,-4.12429 2.35443,-6.02929 1.96757,-4.11852 2.68724,-6.83471 2.68981,-10.15192 0.004,-4.84722 -1.93369,-8.41848 -5.41449,-9.98058 -4.84906,-2.17612 -7.57443,-0.63152 -12.67226,7.18199 l -2.50696,3.84243 -2.98658,-6.0293 c -3.58057,-7.2284 -4.85024,-9.16034 -8.58786,-13.0675 -3.90958,-4.08689 -6.39123,-6.8834 -8.69907,-9.80271 -20.61428,-26.07625 -24.14572,-57.16251 -9.31389,-81.98719 2.83033,-4.73723 5.68249,-8.43308 9.63786,-12.48884 11.1076,-11.38947 23.74677,-17.89943 39.13393,-20.15642 4.53385,-0.66504 12.9902,-0.73159 17.3735,-0.13677 15.97303,2.16762 29.62006,8.66191 40.95811,19.49096 4.79531,4.58005 9.0768,10.53458 12.45223,17.31818 3.38811,6.80902 5.27971,13.41707 6.18177,21.59515 0.48576,4.40387 0.48714,7.83493 0.005,13.49022 -1.00533,11.80328 -2.99181,19.70568 -8.07805,32.13482 -4.14625,10.13219 -6.02408,14.9811 -7.45194,19.24243 -1.59107,4.74839 -3.58551,12.12337 -3.58551,13.25831 0,0.67094 -0.004,0.67228 -0.54199,0.18701 -0.29808,-0.26883 -1.32552,-1.52785 -2.28321,-2.79785 -2.47693,-3.28473 -5.45807,-6.09951 -7.46603,-7.04945 -2.02043,-0.95581 -3.45543,-1.00207 -5.23099,-0.16864 -1.43697,0.67449 -3.65201,2.88175 -4.438,4.42242 -1.81894,3.56542 -1.76132,6.4652 0.28746,14.46941 0.77657,3.03389 2.04896,7.99843 2.82756,11.03232 2.27792,8.87635 2.98427,14.09628 2.98819,22.08325 0.009,18.47791 -5.29954,37.41235 -14.59561,52.0587 -5.83743,9.19714 -14.6071,18.49415 -20.33077,21.55334 -1.46117,0.78096 -2.01661,0.93898 -2.01661,0.57378 z m 18.85542,-37.51836 c 4.13935,-8.24225 5.77488,-15.96698 5.77488,-27.27513 0,-11.79882 -1.17854,-24.89185 -3.24892,-36.09376 -0.82642,-4.47143 -0.93744,-5.58916 -1.04481,-10.51919 -0.10578,-4.85607 -0.0527,-5.9153 0.44345,-8.85152 0.93156,-5.51311 2.77583,-10.44486 5.68506,-15.20241 1.50344,-2.45862 2.82848,-4.12378 6.83226,-8.58592 7.70036,-8.58186 10.08252,-11.50473 13.12795,-16.10762 4.53847,-6.85949 7.07583,-13.29931 8.08174,-20.5115 0.53276,-3.81965 0.50141,-7.39987 -0.10619,-12.12668 -0.90958,-7.07636 -2.69435,-12.90584 -5.77935,-18.87672 -2.4416,-4.72565 -4.57446,-7.58908 -8.847,-11.87739 -2.94947,-2.96039 -4.3926,-4.1831 -6.91736,-5.86086 -5.42331,-3.60393 -11.1728,-6.12381 -17.33491,-7.59755 -12.56941,-3.00613 -23.27615,-1.8638 -34.3798,3.66804 -6.76571,3.37068 -11.35031,6.69434 -16.44434,11.9215 -6.32612,6.49147 -10.59062,13.28115 -13.03585,20.75493 -3.7222,11.37679 -2.637,24.16564 3.0341,35.75594 2.96898,6.06783 6.60318,10.93011 12.37236,16.5532 5.31122,5.17675 11.33715,9.57862 18.94848,13.84162 6.98713,3.91339 10.51793,6.79973 13.17218,10.76785 2.58282,3.86139 4.04273,8.1026 4.90628,14.25353 0.62995,4.48708 0.64213,6.29789 0.11173,16.63187 -0.6246,12.16978 -0.29415,15.6357 1.95588,20.5134 4.25501,9.2241 6.30957,15.41295 7.94191,23.92315 0.68016,3.54602 1.80192,12.28347 1.80192,14.0353 v 1.3198 l 0.66814,-0.622 c 0.36751,-0.3421 1.39359,-2.06645 2.28021,-3.83188 z m 29.90092,-8.03959 c -0.005,-0.82498 0.23499,-3.53817 0.53302,-6.02929 0.68562,-5.73044 0.57145,-8.96974 -0.50777,-14.40708 -1.18656,-5.97821 -1.57367,-9.76612 -1.57234,-15.38627 0,-5.46818 0.54156,-10.20082 1.53853,-13.47737 0.59512,-1.9558 2.54256,-6.28586 2.82709,-6.28586 0.0971,0 0.43829,0.89478 0.75808,1.98839 0.93007,3.18051 2.75094,8.11761 4.42378,11.99444 4.06454,9.41973 4.59432,12.08306 3.66211,18.41028 -0.86975,5.90355 -2.78827,12.03657 -5.28686,16.90082 -1.12689,2.19377 -1.76631,3.05727 -3.85873,5.21072 l -2.50803,2.58121 -0.009,-1.49999 z m -774.76539,-75.40123 c -3.2962,-3.33373 -4.807,-8.98192 -4.7879,-17.89979 0.01,-4.17704 0.1113,-5.33128 0.8533,-9.62121 1.0948,-6.33032 1.3724,-14.00902 0.6518,-18.02987 -0.6382,-3.56143 -2.2673,-8.45866 -3.8901,-11.69436 -0.7683,-1.53198 -1.3396,-2.84275 -1.2695,-2.91279 0.2294,-0.2294 2.8095,0.73591 5.1036,1.90939 9.148,4.67952 14.1966,17.8106 11.9743,31.14447 -0.3811,2.28624 -1.1301,4.97071 -2.6756,9.58922 -2.3751,7.09779 -2.9591,9.43479 -3.7996,15.20585 l -0.5706,3.91696 z m -38.6457,-83.45231 c 0.1196,-1.69333 0.2139,-4.98378 0.2096,-7.31212 -0.012,-6.61452 -0.6772,-9.17189 -4.2404,-16.30562 -3.3017,-6.6101 -3.8901,-9.74557 -2.8142,-14.99539 0.5846,-2.85275 2.4022,-6.73772 4.2302,-9.04183 2.291,-2.88767 5.8434,-5.11179 9.7364,-6.09572 1.5834,-0.40021 2.8777,-0.51295 5.8889,-0.51295 h 3.8595 l -0.9153,0.96212 c -3.528,3.70814 -7.6413,10.47245 -9.0136,14.82275 -1.4144,4.48415 -1.5324,9.7226 -0.4532,20.13432 0.6449,6.22195 0.65,7.97347 0.032,10.96862 -0.7764,3.76253 -1.7169,5.49994 -4.4232,8.17089 l -2.314,2.28372 z m 365.0538,-164.50309 c -0.4234,-0.0528 -2.5016,-0.33714 -4.6182,-0.63195 -25.9883,-3.61975 -46.2972,-20.008 -54.1424,-43.69012 -2.1785,-6.57625 -3.1919,-12.51854 -3.3847,-19.84606 -0.1897,-7.21507 0.5035,-12.91862 2.3613,-19.42775 2.5196,-8.82767 7.5886,-18.58912 13.387,-25.7798 9.5931,-11.89635 23.1074,-20.19636 37.5454,-23.05889 5.3864,-1.06793 8.2438,-1.31993 14.9538,-1.31885 14.2981,0.002 27.8023,2.17488 41.6943,6.70785 4.4322,1.44626 11.8001,4.2537 13.4978,5.14321 l 0.725,0.37986 -2.1266,1.24672 c -6.7074,3.93229 -9.6957,9.85313 -7.9131,15.67863 0.8934,2.91981 1.9023,4.51551 4.3411,6.86659 1.9977,1.92576 2.4421,2.22647 4.0075,2.71175 5.3895,1.67074 13.4786,1.66556 21.4855,-0.0138 2.7363,-0.57389 6.254,-1.73498 8.126,-2.68216 1.9926,-1.00818 6.2681,-2.38553 9.1037,-2.93273 3.7727,-0.72806 9.8071,-0.72806 13.5798,0 7.5433,1.45569 15.1961,5.49317 21.1354,11.15058 1.3332,1.27 3.9512,4.09863 5.8178,6.28586 6.4715,7.58345 10.6745,11.12018 17.0733,14.36698 3.8946,1.97621 6.5673,2.84831 11.1442,3.6364 3.904,0.67223 7.3983,0.54184 13.8545,-0.51698 7.0171,-1.15079 9.8742,-1.3982 14.537,-1.25878 3.3791,0.10104 4.6651,0.25056 6.6297,0.77083 5.3206,1.40902 8.7276,3.11785 11.6356,5.83589 1.7797,1.66355 2.9809,3.59853 2.9861,4.8106 0,0.72818 -0.2384,0.72342 -1.7378,-0.0342 -3.7726,-1.90634 -13.158,-3.75012 -19.0891,-3.75012 -4.8118,0 -10.4318,1.12445 -14.4483,2.89078 -8.2692,3.63651 -14.779,5.06345 -23.0909,5.06153 -9.4106,-0.002 -16.826,-1.68221 -27.6381,-6.26167 -13.4746,-5.70715 -23.4799,-7.65789 -31.1542,-6.07411 -3.5382,0.7302 -5.3984,1.7351 -8.0501,4.34874 -2.7227,2.68366 -3.4186,4.14378 -3.4399,7.21857 -0.011,1.57935 0.1129,2.19449 0.6912,3.43205 0.8181,1.75068 2.4317,4.07696 4.1658,6.0056 1.2042,1.33931 1.2132,1.36231 0.7383,1.8874 -0.6407,0.70853 -1.9035,1.33041 -4.0355,1.98746 -1.4661,0.45181 -2.4149,0.54203 -5.6998,0.54203 -2.2132,0 -5.2101,-0.17859 -6.8361,-0.40737 -3.433,-0.48304 -4.6824,-0.36191 -6.7437,0.65374 -2.2298,1.09874 -3.7556,2.55668 -8.7168,8.32911 -9.6358,11.21139 -18.4677,18.54385 -28.1145,23.34139 -9.4377,4.69358 -17.6377,6.59996 -28.0798,6.52815 -2.9633,-0.0204 -5.7342,-0.0802 -6.1575,-0.13297 z m 13.7582,-14.47632 c 11.9148,-2.01895 22.6302,-9.06223 32.511,-21.36968 1.4593,-1.81758 4.3353,-5.85804 6.3913,-8.9788 4.6187,-7.01064 5.4696,-8.142 8.3865,-11.15107 4.4667,-4.6079 8.3142,-7.40751 13.7965,-10.03898 5.5296,-2.65419 11.1526,-4.31553 18.1615,-5.36592 6.3477,-0.95131 10.6669,-1.13055 23.9878,-0.99546 l 12.5707,0.12748 -2.0858,-1.95337 c -4.4193,-4.13879 -10.9546,-7.0039 -19.4636,-8.53295 -2.9629,-0.53243 -4.1089,-0.59866 -10.2626,-0.59314 -5.9927,0.005 -7.3946,0.0847 -10.3909,0.58827 -4.6306,0.77816 -10.0464,1.3136 -13.3491,1.3198 -4.9688,0.009 -10.9952,-0.96299 -15.1297,-2.44105 -4.5266,-1.61823 -6.8081,-3.43026 -10.0607,-7.99051 -11.1257,-15.59874 -22.4976,-24.07672 -35.2106,-26.25011 -12.2139,-2.08807 -28.8261,2.54666 -40.2934,11.24166 -2.0333,1.54175 -6.1902,5.59517 -8.2029,7.99861 -6.2057,7.41064 -10.031,17.12587 -11.2847,28.66013 -0.6731,6.1927 -0.386,10.66583 1.0505,16.36485 2.415,9.58101 8.6228,19.08658 16.9546,25.96129 12.5502,10.35533 28.9511,15.59712 41.9236,13.39895 z m 144.671,-78.63407 c -4.9584,-1.25185 -10.9494,-4.74904 -19.2424,-11.23247 -5.1131,-3.99747 -8.5557,-5.93193 -13.2131,-7.42477 -3.1779,-1.01863 -8.8587,-2.23128 -10.4526,-2.23128 h -1.054 l 0.622,-0.66713 c 2.1977,-2.35722 9.8642,-4.20321 17.4686,-4.20623 6.6131,-0.003 11.5702,1.52703 15.5699,4.80453 2.1174,1.735 4.188,5.02293 5.9387,9.43009 1.8153,4.56978 3.9572,8.16985 6.375,10.715 1.6206,1.706 1.585,1.72039 -2.0121,0.81226 z"
       id="path528" /></g></svg>
