<?xml version="1.0" encoding="UTF-8" standalone="no"?>
<!-- Created with Inkscape (http://www.inkscape.org/) -->

<svg
   width="1282.8282mm"
   height="1282.8282mm"
   viewBox="0 0 1282.8282 1282.8282"
   version="1.1"
   id="svg241"
   xml:space="preserve"
   inkscape:version="1.2.2 (732a01da63, 2022-12-09)"
   sodipodi:docname="Jack Jeckle.svg"
   xmlns:inkscape="http://www.inkscape.org/namespaces/inkscape"
   xmlns:sodipodi="http://sodipodi.sourceforge.net/DTD/sodipodi-0.dtd"
   xmlns="http://www.w3.org/2000/svg"
   xmlns:svg="http://www.w3.org/2000/svg"><sodipodi:namedview
     id="namedview243"
     pagecolor="#505050"
     bordercolor="#eeeeee"
     borderopacity="1"
     inkscape:showpageshadow="0"
     inkscape:pageopacity="0"
     inkscape:pagecheckerboard="0"
     inkscape:deskcolor="#505050"
     inkscape:document-units="mm"
     showgrid="false"
     inkscape:zoom="0.13055262"
     inkscape:cx="3435.3965"
     inkscape:cy="2267.2851"
     inkscape:window-width="1920"
     inkscape:window-height="1009"
     inkscape:window-x="-8"
     inkscape:window-y="-8"
     inkscape:window-maximized="1"
     inkscape:current-layer="layer1" /><defs
     id="defs238" /><g
     inkscape:label="Layer 1"
     inkscape:groupmode="layer"
     id="layer1"
     transform="translate(1789.6348,1116.6338)"><path
       style="fill:#000000;stroke-width:0.256566"
       d="m -1144.5005,148.59543 c -6.9414,-0.48596 -8.3952,-0.73362 -10.7313,-1.82821 -2.9321,-1.37385 -4.6862,-3.41791 -7.6475,-8.91173 -1.6328,-3.02896 -3.8515,-5.52775 -4.9082,-5.52775 -1.4738,0 -3.0748,2.32084 -4.6901,6.79898 -0.5618,1.5572 -2.6906,3.87802 -4.4146,4.81266 -1.7491,0.94824 -3.7587,1.39854 -8.2458,1.84766 -9.8212,0.98306 -18.7019,-0.0367 -24.6357,-2.82902 -5.254,-2.47242 -9.2679,-6.91062 -9.2535,-10.23166 0.01,-1.91413 0.7844,-3.3423 3.0746,-5.65822 2.494,-2.52212 3.1239,-3.80962 3.2817,-6.70865 0.1012,-1.85923 0.038,-2.25657 -0.5718,-3.59192 -0.8936,-1.95683 -2.189,-3.27124 -4.2594,-4.32172 -1.9704,-0.99974 -5.9656,-2.28172 -8.802,-2.8244 -2.6109,-0.49954 -6.8178,-0.49592 -8.7507,0.007 -2.199,0.57278 -4.7758,2.02107 -6.6478,3.73644 -1.9725,1.8074 -2.4952,2.029 -4.7862,2.029 -2.018,0 -4.9844,-0.82976 -7.8218,-2.18792 -2.1233,-1.01631 -4.9724,-3.75017 -6.4077,-6.14839 -1.0947,-1.82911 -2.2206,-5.23512 -2.8417,-8.597026 -0.6688,-3.619423 -0.801,-14.686715 -0.2609,-21.83212 1.6744,-22.151569 6.1079,-39.663098 14.0332,-55.428338 5.1702,-10.284741 10.4582,-17.8118128 17.7948,-25.3299814 11.1082,-11.3830216 23.4485,-18.7927406 40.4126,-24.2658496 2.4695,-0.796714 4.6342,-1.638865 4.8106,-1.871441 0.2467,-0.325274 0.3207,-3.395544 0.3207,-13.303365 0,-16.283785 0.4095,-14.586809 -5.3304,-22.089404 -3.9719,-5.191554 -5.8556,-9.940148 -6.139,-15.475449 -0.3302,-6.44965 1.7792,-11.079659 5.9083,-12.968495 1.7964,-0.821754 5.5798,-1.397847 9.153,-1.39369 1.6228,0.0026 7.9728,0.354676 14.1111,0.783987 7.984,0.558415 13.9905,0.822986 21.1026,0.929538 l 9.9419,0.148936 v -4.7381 -4.738122 l -1.6843,-0.31035 c -2.5253,-0.4653 -5.6656,-1.51242 -7.6804,-2.56101 -2.3529,-1.22461 -5.4333,-4.15516 -6.5297,-6.21209 -0.9082,-1.70401 -1.7998,-5.45382 -1.8053,-7.59237 -0.01,-3.24443 1.4806,-9.99883 3.9785,-18.04924 2.7874,-8.98326 2.8739,-9.99121 1.6626,-19.37071 -0.8476,-6.56351 -0.9591,-10.38187 -0.39,-13.35644 0.2088,-1.09141 0.4267,-2.03147 0.4842,-2.08899 0.058,-0.0575 0.9692,1.14282 2.0259,2.66741 2.5686,3.70602 6.0839,7.74616 10.0847,11.59038 4.2272,4.06182 7.7166,6.85528 12.694,10.16228 6.3228,4.20093 10.1574,8.17439 12.6151,13.07197 2.4286,4.83955 3.2107,9.66622 2.2896,14.12915 -1.5368,7.44546 -7.0155,13.16207 -15.4939,16.16689 l -1.9884,0.70469 v 4.969775 4.969753 h 0.7132 c 1.2822,0 6.8684,-0.757561 9.3473,-1.267639 6.4106,-1.31903 14.5536,-3.778545 22.146,-6.689029 5.3597,-2.05455 7.7324,-2.76937 11.1093,-3.34666 3.631,-0.62076 5.4365,-0.62333 8.3987,-0.0121 3.5511,0.73293 5.8212,1.90302 8.3308,4.29408 3.5225,3.35614 4.7981,6.837864 4.5358,12.380862 -0.1815,3.835451 -0.6441,5.402297 -3.5473,12.016406 -4.1771,9.516122 -5.6817,13.923637 -6.5053,19.056284 -0.3127,1.94877 -0.3913,5.016397 -0.3921,15.302858 v 12.865484 l 4.4258,1.079885 c 6.0295,1.471198 10.3115,2.80983 15.3297,4.792364 31.604,12.485613 52.4108,39.126388 57.47362,73.588695 1.28691,8.759793 1.56267,16.402704 0.89791,24.886867 -1.41193,18.020504 -4.94453,29.876585 -10.71093,35.947775 -3.0846,3.24758 -6.1107,4.03485 -11.3565,2.95448 -3.4614,-0.7129 -5.9396,-2.00162 -9.7495,-5.0702 -3.97,-3.19745 -5.6646,-4.01433 -8.5905,-4.141 -4.4311,-0.19178 -11.0225,2.25619 -13.7366,5.10171 l -1.4052,1.47317 v 2.10946 c 0,1.58381 0.2618,3.20284 1.0506,6.49732 2.0779,8.67774 2.4719,12.96157 1.5308,16.64123 -0.6771,2.64745 -1.3512,3.87014 -3.194,5.79256 -1.7358,1.81084 -3.4996,2.82194 -7.2127,4.13469 -5.6234,1.98812 -10.8068,2.83456 -17.3582,2.83456 -6.47,0 -12.9065,-1.10736 -15.897,-2.73499 -2.7075,-1.47361 -5.1718,-4.72014 -6.7346,-8.87209 -0.9828,-2.61094 -1.8611,-4.16116 -2.8491,-5.02864 -0.7638,-0.67061 -1.1376,-0.81075 -2.1627,-0.81075 -2.1938,0 -3.1314,1.24304 -4.6442,6.15758 -2.0287,6.59007 -4.4366,9.05654 -9.8774,10.11767 -5.9278,1.15611 -16.4602,1.45988 -26.4263,0.76215 z m 68.1752,-10.59865 c 9.1158,-2.32948 16.1475,-6.2865 18.038,-10.15066 1.1578,-2.36648 1.1111,-3.44642 -0.3997,-9.24465 -1.1768,-4.51591 -1.353,-5.52755 -1.4696,-8.43528 -0.1454,-3.62351 0.1183,-5.70626 1.1322,-8.94337 0.3851,-1.229385 0.8067,-2.083749 1.1079,-2.244949 0.9019,-0.482651 1.7754,-0.283659 2.7939,0.636411 1.9911,1.798858 4.2541,2.148508 6.6591,1.028878 0.7504,-0.34931 2.5976,-1.487848 4.1051,-2.530069 4.3956,-3.039123 6.7459,-4.013636 9.6801,-4.013636 2.0934,0 4.4599,1.168528 6.9175,3.41571 4.4294,4.050145 9.5277,4.871185 14.5274,2.339494 5.1968,-2.631568 9.4544,-14.55343 9.458,-26.483963 0.01,-22.573748 -11.1771,-47.891158 -29.3597,-66.4628928 -8.7784,-8.9662764 -17.4211,-14.7411328 -29.9058,-19.9824612 -4.0621,-1.70534 -5.6327,-2.122849 -7.9859,-2.122849 -1.3672,0 -1.6334,0.08695 -2.2965,0.749967 -0.6825,0.68249 -0.7499,0.907524 -0.7497,2.501515 0,3.715814 1.8054,5.8436412 11.9301,14.0635938 10.5758,8.5862772 13.7045,12.4191372 13.7199,16.8081542 0.013,3.734595 -2.2575,6.381172 -7.9097,9.219044 -2.7085,1.359875 -5.8739,2.392732 -9.1007,2.969568 -3.3003,0.589999 -9.1347,0.415149 -12.8732,-0.385772 -2.9471,-0.631408 -7.838,-2.175343 -11.5133,-3.63456 -1.3935,-0.553233 -2.5951,-0.944316 -2.6704,-0.869065 -0.075,0.07522 0.1119,1.631373 0.4158,3.458094 1.3951,8.385746 1.3355,12.264736 -0.2408,15.668952 -1.3115,2.832176 -2.79,4.044475 -6.2228,5.102397 -2.4467,0.754021 -7.91,0.771339 -10.792,0.03425 -3.4554,-0.88374 -4.8014,-1.643123 -7.0339,-3.968557 -2.439,-2.54059 -3.6703,-4.844011 -5.1955,-9.719502 -2.405,-7.688067 -5.6243,-11.451166 -9.8022,-11.458196 -1.6176,-0.0028 -3.0032,0.551488 -3.94,1.576057 -0.3028,0.331226 -1.3004,2.103146 -2.2168,3.93759 -1.4031,2.808624 -1.9263,3.584581 -3.3134,4.913591 -1.364,1.306894 -1.9469,1.670781 -3.3905,2.116667 -3.1824,0.982928 -5.9545,0.630766 -9.5145,-1.208681 -1.4109,-0.729057 -2.6759,-1.786492 -5.901,-4.933013 -4.4288,-4.320899 -5.5444,-5.18904 -8.404,-6.539499 -2.8252,-1.334244 -4.7282,-1.73187 -7.7524,-1.61993 -2.5884,0.09583 -2.5908,0.09655 -6.173,1.808223 -4.3246,2.06638 -4.9814,2.252313 -7.9629,2.254135 -5.2484,0.0033 -9.0482,-2.349372 -11.1141,-6.881065 -0.8206,-1.800193 -0.8525,-1.985664 -0.7556,-4.396919 0.094,-2.3407 0.1764,-2.669515 1.1743,-4.683324 1.0813,-2.1820908 1.5026,-2.6565063 5.0405,-5.675976 2.9623,-2.5280439 4.4546,-7.0594549 5.4111,-16.43031 0.5272,-5.165359 0.5182,-5.547128 -0.1319,-5.547128 -0.9724,0 -6.7722,2.35794 -10.6368,4.324516 -7.3571,3.7437033 -13.6723,8.4126848 -20.1556,14.9015377 -7.2608,7.2669653 -12.9717,15.2565473 -17.8455,24.9659153 -7.0584,14.061541 -11.3697,28.82538 -13.3554,45.734287 -0.3621,3.083021 -0.454,6.01726 -0.462,14.752525 -0.01,10.733936 0,10.933904 0.5911,12.818095 0.4492,1.43069 0.8553,2.16839 1.6081,2.92113 l 1.007,1.00707 1.6797,-0.13485 c 1.4202,-0.11399 2.3014,-0.43585 5.704,-2.08344 4.814,-2.33098 7.1967,-2.97814 10.9747,-2.98075 4.4017,-0.003 7.8874,1.18035 13.5365,4.5957 4.0009,2.41888 5.1122,2.81109 6.735,2.37703 2.615,-0.69937 4.5467,-0.25597 5.9758,1.37163 l 0.8624,0.98221 -0.1298,2.32723 c -0.09,1.61321 -0.5007,3.74414 -1.3385,6.94541 -1.3593,5.19332 -1.7765,9.17176 -1.1584,11.04469 0.5857,1.77451 2.4753,3.45114 5.5649,4.93776 3.5693,1.71735 6.1044,2.37331 9.825,2.54223 2.4468,0.11109 3.3396,0.0409 5.23,-0.4114 4.5154,-1.08025 6.5866,-2.51065 10.2266,-7.06256 3.0103,-3.76444 5.0139,-5.76152 6.4797,-6.45876 2.7578,-1.31174 4.6984,-0.51901 6.6728,2.72588 1.4926,2.45305 4.0028,4.62237 7.1894,6.213 6.7809,3.38479 14.4099,5.03705 24.2378,5.24933 5.2012,0.11232 6.0395,0.0701 8.4667,-0.42662 1.4817,-0.30321 3.3289,-0.83887 4.105,-1.19039 1.8311,-0.82927 4.1925,-3.1518 5.1864,-5.10091 2.8922,-5.67176 6.5409,-8.85444 10.1517,-8.85497 1.939,0 2.968,0.53173 4.9699,2.56968 1.5781,1.60661 1.9848,2.25267 3.8341,6.09195 3.3939,7.04567 4.9867,8.22036 11.1928,8.25433 2.837,0.0154 3.5094,-0.0783 7.0555,-0.9845 z m -73.508,-28.59673 c -2.8375,-0.96691 -4.5273,-3.04415 -4.5393,-5.5802 -0.01,-2.11363 3.9437,-9.468499 7.6598,-14.248932 2.3457,-3.01752 5.8552,-6.391179 8.3167,-7.994791 5.5515,-3.616703 8.92,-3.346488 13.7056,1.09941 2.8476,2.64555 4.6261,5.099242 6.6077,9.116906 1.8065,3.662474 2.0665,4.981427 1.3296,6.745008 -0.472,1.129607 -2.0111,2.427029 -3.1278,2.636489 -2.6536,0.49784 -5.3146,-0.73352 -8.7498,-4.049037 -2.2094,-2.132292 -2.7296,-2.512317 -3.4393,-2.512317 -1.3874,0 -2.4727,1.415165 -3.9423,5.140678 -3.0464,7.723246 -3.6773,8.603596 -6.8932,9.619496 -2.5614,0.80913 -4.6096,0.81721 -6.9277,0.0273 z m 70.6288,-28.362506 c -3.0654,-0.675049 -4.619,-1.316361 -7.8386,-3.235651 -3.3169,-1.9773 -4.618,-2.425906 -7.5843,-2.614763 -3.2112,-0.204458 -5.3732,0.352931 -9.7421,2.511649 -4.2465,2.098322 -5.1942,2.244641 -6.4439,0.994961 -0.7071,-0.70712 -0.7699,-0.901212 -0.6605,-2.040081 0.1442,-1.500165 1.1643,-3.287761 3.3952,-5.949373 3.7588,-4.484536 10.0629,-8.5999 17.7641,-11.596484 3.0126,-1.172223 8.1017,-2.705408 17.1393,-5.163461 10.4471,-2.841439 15.1947,-4.465396 19.9689,-6.830675 2.2405,-1.110031 4.3925,-2.018248 4.782,-2.018248 1.4727,0 2.83,1.79206 2.83,3.736622 0,0.511977 -0.1874,1.575287 -0.4163,2.362944 -0.3192,1.097665 -0.3673,1.825798 -0.2061,3.118273 0.1156,0.927408 0.2087,3.302564 0.2067,5.27812 0,3.197038 -0.078,3.817568 -0.6855,5.644444 -2.4075,7.245516 -9.2389,13.183625 -17.7564,15.434629 -2.2694,0.599748 -3.1434,0.687827 -7.5687,0.762693 -4.1639,0.07045 -5.3688,0.0041 -7.1838,-0.395599 z m -121.4108,-0.27396 c -3.0861,-0.650753 -4.5513,-1.162935 -7.4117,-2.590903 -5.7796,-2.885337 -10.1254,-7.680344 -11.9572,-13.193426 -0.607,-1.826876 -0.6824,-2.447405 -0.6855,-5.644444 0,-1.975555 0.091,-4.350712 0.2067,-5.27812 0.1612,-1.292475 0.1131,-2.020608 -0.206,-3.118273 -0.229,-0.787656 -0.4163,-1.850967 -0.4163,-2.362944 0,-1.944562 1.3572,-3.736622 2.8299,-3.736622 0.3895,0 2.5415,0.908217 4.782,2.018248 4.7743,2.365279 9.5218,3.989237 19.9689,6.830676 9.0376,2.458052 14.1267,3.991237 17.1393,5.16346 7.7012,2.996584 14.0053,7.111948 17.7642,11.596485 2.2308,2.661612 3.251,4.449207 3.3951,5.949372 0.1094,1.138869 0.047,1.332961 -0.6605,2.040082 -1.2497,1.24968 -2.1973,1.10336 -6.4439,-0.994962 -4.3689,-2.158717 -6.5309,-2.716106 -9.742,-2.511649 -2.9663,0.188858 -4.2675,0.637463 -7.5844,2.614763 -3.2798,1.955235 -4.8083,2.57615 -7.9668,3.236422 -3.1678,0.662195 -9.8293,0.652908 -13.0118,-0.01822 z m 96.139,-41.793722 c 0.8467,-0.405502 1.8464,-1.069263 2.2216,-1.475047 1.5085,-1.631347 1.995,-6.336145 0.9699,-9.379065 -1.0926,-3.243503 -2.4783,-5.423592 -8.7743,-13.80495 -4.185,-5.5711951 -5.8277,-8.8332476 -6.0351,-11.9845407 -0.1177,-1.78792901 -0.097,-1.87195426 0.6613,-2.62979784 0.6165,-0.61655289 1.0049,-0.78285876 1.8281,-0.78285876 1.9649,0 3.666,2.087495 6.0339,7.4047153 2.4671,5.540176 5.3436,9.120318 9.6097,11.96032 5.2567,3.499556 10.6301,5.259263 20.0328,6.56041 5.2702,0.729313 9.7582,0.635949 11.7387,-0.244148 4.595,-2.042006 5.5339,-8.038741 2.0957,-13.384645 -1.5365,-2.3889852 -6.2243,-6.9284011 -10.3641,-10.0359498 -4.0819,-3.0641378 -6.788,-5.7738814 -7.4163,-7.4264464 -0.3888,-1.022645 -0.4195,-3.4980672 -0.3532,-28.4443548 l 0.073,-27.324241 0.7363,-2.180808 c 0.8145,-2.412409 2.7791,-6.465967 5.036,-10.390908 3.6672,-6.377632 4.8765,-9.508939 4.8726,-12.616949 -0.01,-4.335523 -2.5575,-6.952185 -7.629,-7.82184 -1.4799,-0.253769 -2.3117,-0.253358 -4.1037,0.0026 -2.1495,0.306468 -3.4374,0.704093 -10.0673,3.108318 -7.5178,2.72619 -17.5317,4.676114 -32.2045,6.270926 -13.6056,1.478819 -26.8996,2.282742 -35.6187,2.153972 l -6.2015,-0.09157 -4.2536,-1.467658 c -3.7808,-1.304482 -4.4795,-1.467607 -6.2859,-1.467427 -3.5877,0 -6.1079,1.655772 -7.2911,4.789362 -0.7738,2.049293 -0.9055,3.958218 -0.4167,6.041043 0.7302,3.111346 1.5664,4.76971 3.3253,6.594841 2.3698,2.459027 3.0887,4.639989 3.8725,11.747807 1.4821,13.439549 -1.5493,41.86497 -6.3832,59.8550188 -1.7952,6.6810206 -2.0337,8.7269772 -1.3037,11.1851842 0.408,1.373653 1.5519,2.677134 2.8293,3.223927 0.5614,0.240299 2.6791,0.333356 7.8252,0.343824 6.476,0.01308 7.2242,0.06116 9.1081,0.584071 4.1421,1.149645 5.4599,2.010628 10.1344,6.621267 4.8606,4.794339 6.3624,5.750252 9.0343,5.750611 5.4719,0 8.8136,-5.158073 7.1595,-11.052797 -1.0083,-3.593279 -0.5645,-6.062569 1.2526,-6.970324 0.5829,-0.291202 1.4935,-0.448733 2.5953,-0.44899 1.4251,0 1.9808,0.141984 3.4637,0.887102 2.5411,1.27685 5.7468,3.925762 7.624,6.299712 2.8838,3.646901 5.8458,9.153108 8.4869,15.776658 0.2695,0.675922 0.8359,1.622829 1.2585,2.104223 1.4313,1.630141 4.6299,2.861913 7.4878,2.883541 1.4676,0.01103 2.0774,-0.121201 3.3353,-0.723669 z m -9.8673,-9.940354 c -1.0539,-0.886793 -1.3809,-1.565024 -2.6868,-5.572246 -1.6952,-5.201766 -4.5075,-10.348216 -7.2667,-13.298054 -2.6902,-2.8760236 -9.1806,-5.0903903 -14.908,-5.086234 -4.3084,0.00308 -8.8939,1.4924167 -11.1225,3.6123673 -0.8017,0.7626157 -0.9717,1.1000508 -0.9709,1.9264227 0,1.240393 0.6791,2.388806 1.9656,3.329786 2.7491,2.010859 4.1834,4.101382 4.1885,6.104749 0,1.356129 -1.5561,2.985731 -2.8537,2.98196 -2.2366,-0.0064 -4.7634,-2.071819 -7.2162,-5.898496 -3.0367,-4.737561 -5.4131,-5.928436 -14.3013,-7.1667248 -4.9358,-0.6875959 -6.367,-1.0822709 -7.2388,-1.9960807 -1.4783,-1.5495282 -1.5909,-3.5058669 -0.4551,-7.91084233 1.519,-5.89146547 1.9567,-9.04904447 3.0745,-22.18089517 0.4264,-5.009444 1.2938,-14.215814 1.9276,-20.458621 1.8177,-17.904459 1.5812,-20.772016 -2.1336,-25.86333 -0.7245,-0.993012 -1.4938,-2.305858 -1.7096,-2.917459 -0.4548,-1.289089 -0.5132,-3.516412 -0.1194,-4.55853 0.6061,-1.604177 2.4488,-2.903066 4.1185,-2.903066 0.4488,0 1.9822,0.400653 3.4077,0.890334 4.0777,1.400771 6.2219,1.70375 13.111,1.852609 15.1154,0.326582 41.075,-3.124456 64.8371,-8.619374 5.3952,-1.247653 6.2854,-1.296221 7.3493,-0.401038 1.7219,1.448852 1.7437,4.276513 0.059,7.644117 -0.5769,1.15334 -1.5058,2.903605 -2.0641,3.889458 -1.2634,2.230992 -2.6851,6.458322 -3.2259,9.591886 -0.3587,2.078644 -0.3924,4.438842 -0.2654,18.589207 0.08,8.914527 0.2152,19.902797 0.3004,24.418353 0.1057,5.607909 0.053,9.47461 -0.1662,12.1996958 -0.5063,6.2936321 -0.4672,6.3584919 7.1392,11.8387853 5.1045,3.6777658 7.5847,6.0980778 8.8577,8.6439789 1.8426,3.684872 1.107,5.898392 -2.3108,6.954057 -4.1577,1.284188 -9.4854,0.178878 -14.1796,-2.941858 -4.8859,-3.248121 -8.7112,-8.0894634 -14.2726,-18.063581 -2.0044,-3.5948438 -4.989,-7.0571715 -6.8671,-7.966312 -2.6925,-1.303456 -5.7901,-0.375407 -9.1597,2.7443546 -1.5247,1.4116241 -2.052,2.1237221 -2.9714,4.0126866 -0.9747,2.0028027 -1.1174,2.5121624 -1.1152,3.98279669 0,1.90056131 0.6809,3.67235231 1.9773,5.16671891 2.0533,2.3667667 12.1949,16.9050582 12.7956,18.3428522 0.1991,0.476468 0.362,1.518612 0.362,2.315839 0,1.341735 -0.074,1.52364 -0.9961,2.445609 -0.9372,0.937234 -1.0877,0.996091 -2.546,0.996091 -1.2977,0 -1.6798,-0.109349 -2.3485,-0.671972 z m -42.3049,-45.769309 c 0.092,-2.185631 0.3517,-5.750713 0.5773,-7.922439 0.2977,-2.866505 0.4101,-6.565874 0.4101,-13.499278 0,-8.116556 0.077,-10.119718 0.5131,-13.340028 0.8643,-6.382455 0.6682,-8.28435 -0.9989,-9.687123 -2.3711,-1.995131 -5.5682,-0.630228 -6.9073,2.948786 -1.1408,3.049129 -1.3302,5.101141 -1.3291,14.399516 0,14.505605 1.0111,22.229129 3.5703,27.31916 1.0544,2.09704 2.8068,3.982848 3.5661,3.837709 0.373,-0.07127 0.4538,-0.619041 0.5984,-4.056303 z m 27.5419,-94.261829 c 5.3395,-1.58378 9.022,-3.97777 10.2969,-6.69385 1.5574,-3.31798 0.1609,-8.38764 -3.7458,-13.59798 -2.888,-3.85174 -5.503,-6.6539 -9.0618,-9.71016 -4.618,-3.96594 -7.5842,-7.14561 -10.2774,-11.01714 -1.248,-1.79388 -2.3335,-3.26159 -2.4125,-3.26159 -0.3442,0 0.2415,5.8723 0.9725,9.7495 0.4392,2.32977 0.8598,5.56006 0.9354,7.18384 0.1756,3.77451 -0.3936,6.31354 -2.3511,10.48717 -3.0119,6.42153 -2.8958,10.49109 0.4063,14.24242 2.2581,2.56537 5.0962,3.54443 9.8497,3.39772 2.3859,-0.0736 3.5984,-0.24915 5.3878,-0.77993 z m -80.305,-36.77068 c -0.2822,-0.0701 -2.2567,-0.69083 -4.3876,-1.37948 -17.5536,-5.67256 -31.5909,-15.58244 -39.5752,-27.93864 -1.8079,-2.79787 -4.4019,-8.18572 -5.4026,-11.22138 -0.8529,-2.58749 -1.6596,-6.4106 -2.0701,-9.81028 -0.8395,-6.95352 0.3643,-16.30479 4.0965,-31.82086 2.2087,-9.18251 3.4017,-15.05163 4.2243,-20.78181 1.2306,-8.57225 1.9322,-18.5262 1.9346,-27.44375 v -4.99429 l 1.4346,1.40237 c 3.7229,3.63925 5.994,8.5667 11.6442,25.26294 4.5211,13.36009 6.7885,23.63154 7.9764,36.13319 0.4088,4.30291 0.1854,10.52258 -0.6419,17.87388 -0.819,7.27694 -0.8738,12.73725 -0.1643,16.34695 1.4075,7.16064 6.2381,17.26309 12.4049,25.94335 2.6008,3.66076 6.509,8.5969 8.5642,10.81683 0.7545,0.81491 1.3718,1.55282 1.3718,1.63979 0,0.1769 -0.6349,0.16395 -1.4111,-0.0288 z m -21.4232,-21.76295 c 0,-0.078 -0.7131,-1.37686 -1.5846,-2.88636 -3.7763,-6.5405 -5.7522,-11.4905 -6.6253,-16.59747 -0.6522,-3.81541 -0.6447,-5.46138 0.051,-11.0881 0.768,-6.21366 0.8321,-19.55684 0.1249,-25.98727 -0.5887,-5.35191 -1.7318,-12.0931 -2.6989,-15.91474 -0.9829,-3.88438 -2.5771,-8.97213 -2.8113,-8.97213 -0.102,0 -0.3915,1.89812 -0.6433,4.21807 -0.9836,9.06228 -1.9975,14.82238 -4.7896,27.21122 -3.3511,14.86903 -3.213,14.04779 -3.214,19.11414 0,5.46036 0.3795,7.071 2.8379,12.01074 3.4092,6.8503 9.1236,12.88421 16.7166,17.6512 2.0838,1.30828 2.6369,1.56849 2.6369,1.2407 z m 52.0546,20.23533 c -0.3683,-0.39755 -1.1665,-1.47328 -1.7737,-2.3905 -1.7179,-2.59462 -5.5931,-6.24142 -10.6415,-10.0144 -7.6019,-5.68121 -10.8402,-9.33609 -13.9624,-15.75836 -3.4386,-7.07295 -5.6055,-16.93267 -5.3311,-24.25754 0.1193,-3.18423 0.7147,-6.41414 1.1824,-6.41414 0.089,0 0.8364,1.35518 1.6608,3.01152 4.122,8.28088 11.0804,18.58885 20.1013,29.77783 6.1694,7.65199 7.7048,10.24151 8.9253,15.05306 0.5922,2.33449 0.6419,2.94822 0.5782,7.13478 l -0.07,4.58057 z m 83.5781,0.17357 c -2.0806,-0.43845 -2.7383,-0.66153 -2.4538,-0.83225 0.059,-0.0353 1.1384,-0.58369 2.3992,-1.21869 14.0911,-7.09714 28.1054,-22.59478 38.3975,-42.46161 2.867,-5.53402 4.0853,-8.29274 6.5309,-14.78778 5.1414,-13.65496 11.0731,-23.20461 19.9964,-32.19316 6.1261,-6.17087 12.7238,-11.24286 16.8244,-12.93383 1.8706,-0.77137 2.5494,-0.92282 2.5494,-0.56881 0,0.10681 -0.396,1.20306 -0.8801,2.43614 -1.597,4.06777 -5.771,16.97079 -6.7922,20.99633 -1.2381,4.88045 -2.12,9.98082 -2.9686,17.16727 -1.4808,12.54067 -3.6479,20.75506 -7.6824,29.1202 -3.3354,6.91547 -6.2116,11.07091 -11.1607,16.12454 -5.0473,5.15391 -9.39,8.3744 -15.415,11.43159 -8.3967,4.26071 -17.3957,6.69769 -28.9637,7.84362 -5.0589,0.50115 -7.5579,0.47141 -10.3813,-0.12356 z m 23.5878,-9.86223 c 7.7611,-1.88032 16.1857,-6.84959 23.292,-13.73883 5.766,-5.58983 9.5557,-11.12374 12.2327,-17.86275 1.4461,-3.64043 3.3816,-11.30407 6.6628,-26.38287 1.0118,-4.64933 2.2817,-10.24818 2.8222,-12.44192 0.5404,-2.19371 0.9223,-4.04699 0.8487,-4.11837 -0.203,-0.19676 -3.9862,3.86868 -5.7214,6.14816 -4.7646,6.25902 -8.3607,13.41649 -13.1199,26.11312 -1.3884,3.70399 -2.9418,7.7449 -3.452,8.9798 -2.2254,5.38603 -5.4483,10.6944 -9.7748,16.0998 -2.7312,3.41222 -10.1464,11.02386 -14.1967,14.57273 -1.6228,1.42188 -3.1196,2.73673 -3.3262,2.92189 -0.5986,0.53648 0.7525,0.43124 3.7326,-0.29076 z m -44.2791,-3.85334 c 0,-1.97706 0.8382,-6.03042 1.7857,-8.63535 1.7401,-4.78375 5.351,-10.12475 10.2729,-15.19508 4.2294,-4.35705 6.2703,-6.02601 12.0585,-9.86107 6.4213,-4.25445 8.7616,-6.0687 11.708,-9.07604 3.0704,-3.13392 5.2444,-6.34989 8.1781,-12.09809 1.1277,-2.20944 2.1229,-4.01898 2.2115,-4.02121 0.3679,-0.009 1.0691,3.64649 1.1803,6.1535 0.098,2.21193 0,3.26875 -0.5364,5.9065 -1.811,8.86868 -5.5875,16.1037 -11.0958,21.25731 -2.8202,2.6386 -5.5537,4.49557 -11.0042,7.47547 -11.8637,6.48614 -16.6662,10.09332 -22.1136,16.6097 -1.3271,1.5875 -2.4651,2.88637 -2.529,2.88637 -0.064,0 -0.116,-0.6309 -0.116,-1.40201 z m 96.2121,-7.40445 c 0,-4.93533 4.4145,-14.57878 8.8833,-19.40568 2.9917,-3.23137 6.9499,-5.65183 10.87224,-6.64841 1.05833,-0.26891 3.56259,-0.73645 5.56504,-1.03901 4.67475,-0.7063 6.75586,-1.26113 10.63,-2.83398 1.73043,-0.70255 3.2044,-1.2192 3.2755,-1.1481 0.20381,0.20381 -1.24027,4.44407 -2.09219,6.14326 -2.68594,5.35716 -5.6875,7.80057 -14.02565,11.41747 -7.28934,3.16195 -9.32274,4.33417 -15.79614,9.10621 -1.5522,1.14426 -3.8324,2.79521 -5.0672,3.66876 l -2.2449,1.58827 z m -121.5387,-23.37991 c -1.7312,-0.54102 -3.1669,-1.51019 -4.8758,-3.2913 -1.3139,-1.36944 -1.9086,-2.31296 -3.3723,-5.3496 -2.0437,-4.24021 -3.6308,-6.20432 -6.7522,-8.35626 -3.0263,-2.08639 -5.2311,-3.04785 -12.4813,-5.44279 -12.3878,-4.09201 -17.8658,-6.92365 -23.0912,-11.93623 -4.951,-4.74941 -8.1664,-11.81918 -7.9421,-17.4627 0.1326,-3.33948 1.0023,-5.08662 4.1189,-8.27501 l 2.368,-2.42265 -0.8979,-0.66119 c -0.4939,-0.36363 -2.4055,-2.17075 -4.2481,-4.01579 -3.5091,-3.51395 -5.9487,-6.83042 -8.4126,-11.43647 -3.5272,-6.59343 -5.8119,-15.1865 -5.812,-21.85919 -2e-4,-6.61739 2.4982,-14.19426 6.5315,-19.80886 1.1506,-1.60164 1.4239,-2.16198 1.2984,-2.66208 -0.1946,-0.77537 -5.6082,-14.87413 -8.9371,-23.27491 -18.5404,-46.78929 -34.1741,-74.69642 -54.3512,-97.0202 -1.8046,-1.99667 -4.6982,-4.94076 -6.4302,-6.54242 -7.7585,-7.17476 -11.6574,-11.45535 -15.3884,-16.89495 -7.5721,-11.03956 -13.0058,-25.17633 -17.9333,-46.65639 l -1.3743,-5.9907 -2.3101,-1.57798 c -2.901,-1.98161 -7.1284,-6.02786 -9.2817,-8.88379 -1.9201,-2.54675 -4.6846,-7.81633 -5.4545,-10.3972 -1.0166,-3.40783 -1.567,-7.86579 -1.568,-12.7 0,-15.95538 -1.8204,-23.21283 -7.2277,-28.86894 -2.6614,-2.78392 -4.8039,-4.32313 -9.3786,-6.7378 -4.3923,-2.31843 -6.2597,-3.6732 -9.7854,-7.09928 -4.6033,-4.47317 -8.0541,-9.2195 -10.8278,-14.89296 -2.3537,-4.81436 -3.1589,-7.44936 -3.1752,-10.39091 -0.012,-2.23959 0.055,-2.58311 0.8345,-4.23334 1.5265,-3.23262 3.8962,-4.99571 6.7207,-5.00031 1.8493,-0.003 4.0943,1.06393 5.6444,2.68253 2.7073,2.82702 5.8429,3.4908 18.8173,3.98354 12.4047,0.4711 17.0132,1.3494 22.4754,4.28341 5.2428,2.81612 5.4952,2.92821 6.4195,2.85042 0.8482,-0.0714 0.9122,-0.13919 0.9871,-1.04622 0.044,-0.53345 -0.1102,-1.62422 -0.3426,-2.42398 -1.3284,-4.56941 -4.8093,-8.91907 -17.7151,-22.13644 -6.7116,-6.87367 -8.0627,-8.37789 -10.1802,-11.33373 -2.0351,-2.8409 -3.1479,-4.94287 -4.0637,-7.67622 -0.7064,-2.10848 -0.7912,-2.65607 -0.6906,-4.45995 0.1503,-2.69599 0.8702,-4.33922 2.6305,-6.00397 3.2111,-3.037 8.0391,-2.64912 12.0317,0.96656 1.688,1.52864 2.6176,1.70334 3.6373,0.68362 1.1112,-1.11121 0.6733,-3.40217 -1.4675,-7.67819 -2.8976,-5.78748 -6.7139,-10.53708 -17.1084,-21.29238 -6.2515,-6.46854 -6.9539,-7.52582 -7.1628,-10.78141 -0.1471,-2.2912 0.2008,-3.46432 1.4309,-4.82594 1.7104,-1.89318 3.4543,-2.46042 8.409,-2.73512 3.8971,-0.21606 4.7884,-0.57974 4.9325,-2.01276 0.1437,-1.42781 -1.6956,-2.69776 -9.9318,-6.85741 -10.4693,-5.28751 -14.428,-7.76911 -19.9075,-12.47963 -6.1707,-5.30473 -10.457,-10.96377 -14.2682,-18.83772 -2.8786,-5.94727 -4.7729,-12.10831 -5.027,-16.35044 -0.1839,-3.07022 0.2056,-4.3005 1.8379,-5.80508 1.4111,-1.30071 3.1446,-1.83337 5.9667,-1.83337 1.2484,0 2.4869,-0.14739 2.968,-0.35324 2.3419,-1.00201 3.3035,-3.84707 2.3666,-7.0019 -0.4588,-1.54481 -1.5811,-2.656 -6.2952,-6.23298 -4.4252,-3.35768 -9.6975,-8.66656 -11.869,-11.95124 -5.5466,-8.38993 -8.0648,-19.11086 -6.7169,-28.59578 0.8948,-6.29651 2.0558,-9.78026 5.6516,-16.95845 2.7144,-5.41905 3.4157,-7.22948 4.1931,-10.82558 3.3789,-15.63016 2.0622,-34.20733 -3.4406,-48.54446 -2.459,-6.40661 -5.8878,-12.35102 -10.0948,-17.50095 -2.9341,-3.59169 -5.4142,-5.8857 -10.2995,-9.52655 -4.6706,-3.48089 -7.3248,-5.92561 -7.9824,-7.35229 -1.5633,-3.39201 0.6286,-6.80654 6.0239,-9.3838 7.9223,-3.78443 20.7258,-6.54419 36.8515,-7.94325 6.8617,-0.59533 12.3666,-0.63211 17.4464,-0.11657 14.7182,1.49372 23.4007,6.46914 30.9231,17.72015 2.0498,3.06589 6.5579,12.04586 7.9111,15.75882 3.6576,10.03519 5.3869,20.6602 6.3264,38.8697 0.4279,8.29534 1.3328,13.36735 3.6032,20.19698 2.2237,6.68909 4.5608,10.92951 7.6454,13.87173 1.2077,1.15195 1.7335,1.46437 2.9059,1.72673 2.2116,0.49494 3.1113,0.2068 4.9915,-1.59873 1.2183,-1.16981 1.9318,-2.16578 2.881,-4.02129 1.9703,-3.85161 2.6484,-6.25824 2.7917,-9.90768 0.2069,-5.27116 -0.3486,-7.4401 -6.0583,-23.65281 -3.0688,-8.71396 -3.065,-12.76015 0.015,-15.90659 1.4939,-1.5261 3.1835,-2.19512 5.896,-2.33464 4.3988,-0.22625 7.1345,1.22679 12.2779,6.52146 7.8164,8.0463 14.3553,17.63322 21.1523,31.01191 4.6438,9.14045 6.7597,14.37447 8.3496,20.65353 1.4801,5.84546 1.5977,7.04924 1.7794,18.21616 0.1593,9.78839 0.2021,10.49053 0.7375,12.10885 0.7192,2.17408 1.4156,2.77291 3.2207,2.76944 3.6954,-0.007 6.7486,-3.40042 7.0258,-7.8087 0.1922,-3.05457 -0.6272,-5.8226 -4.5591,-15.40189 -0.8674,-2.11333 -1.854,-4.9997 -2.1925,-6.41414 -1.8197,-7.60438 -1.8608,-17.4535 -0.109,-26.07636 1.7455,-8.59139 7.7551,-20.1224 13.7665,-26.41439 1.4348,-1.50185 2.4211,-2.26319 4.0066,-3.09284 1.9765,-1.03421 2.2535,-1.10689 4.5937,-1.20557 2.3467,-0.0989 2.5862,-0.0602 4.1512,0.67216 2.1286,0.99612 3.8131,2.55649 4.6862,4.34105 0.9926,2.02885 1.0408,4.1942 0.2389,10.74036 -0.3645,2.97487 -0.6626,6.56436 -0.6626,7.97663 0,7.4637 2.7661,11.3522 12.9693,18.23193 7.5801,5.11104 9.3784,6.4869 12.3147,9.42193 3.7458,3.74414 5.588,6.73485 6.6542,10.80267 0.2197,0.838 0.5719,4.12134 0.7827,7.29634 0.6736,10.14625 1.7619,14.73395 3.8953,16.42116 2.1839,1.72704 7.9977,-1.58463 10.1359,-5.77368 1.7315,-3.39211 2.7657,-7.65107 2.764,-11.38138 0,-2.69502 -0.3187,-4.71457 -2.4258,-15.42973 -2.928,-14.88999 -3.6114,-20.45308 -3.4003,-27.67947 0.3981,-13.62666 4.661,-26.67665 12.6199,-38.63281 3.3805,-5.07836 5.2725,-7.36009 10.125,-12.21044 6.8195,-6.81636 12.4382,-10.93503 20.2037,-14.80982 4.3096,-2.15041 4.4583,-2.20271 6.5804,-2.31409 1.9199,-0.10077 2.3351,-0.0389 3.5891,0.53527 4.5192,2.06893 7.0945,7.68724 5.6907,12.41454 -0.2446,0.82356 -1.4728,2.86723 -3.3816,5.62687 -8.1261,11.74849 -11.3531,18.28394 -13.1616,26.6548 -1.8772,8.68912 -1.7455,17.55693 0.3535,23.8097 1.5538,4.62883 3.8061,8.33864 10.5451,17.36909 2.9197,3.91257 4.6664,6.51679 5.4207,8.08181 2.002,4.15403 2.9632,9.04317 3.4297,17.44647 0.7162,12.90171 0.9421,14.9521 1.8296,16.61062 0.3773,0.70494 1.2027,0.54059 1.7424,-0.34698 0.6435,-1.05807 1.1059,-2.98919 2.082,-8.69496 1.407,-8.22418 2.6485,-12.15813 4.8988,-15.52253 1.5561,-2.32666 3.1215,-3.777 10.4843,-9.71396 6.663,-5.37266 10.919,-9.38104 13.2497,-12.47866 3.103,-4.12426 5.0456,-8.72586 5.8539,-13.86679 0.9726,-6.18573 2.0008,-8.97679 4.0313,-10.94228 1.6185,-1.56681 3.0156,-2.11788 5.3865,-2.12468 1.8571,-0.005 2.111,0.0671 4.6182,1.31717 2.4292,1.21123 2.9127,1.58456 5.7318,4.42576 3.4085,3.43525 4.854,5.57877 6.5661,9.73686 2.9094,7.0659 4.0089,16.27948 2.7951,23.42291 -1.0745,6.32431 -2.6315,9.95074 -7.3854,17.20177 -1.5546,2.37111 -3.4721,5.62705 -4.2613,7.23544 -1.3198,2.69006 -1.4347,3.0658 -1.4347,4.69055 0,2.09507 0.4047,3.19296 1.5242,4.13497 0.6753,0.56824 1.0772,0.69357 2.2239,0.69357 1.9911,0 2.7951,-0.43854 4.9966,-2.72534 3.835,-3.98349 5.8811,-8.8461 6.781,-16.11494 0.2732,-2.20677 0.3817,-5.7032 0.3824,-12.32477 0,-7.08963 0.093,-9.81125 0.3957,-11.67784 2.0336,-12.53966 8.4843,-24.33432 18.8801,-34.52109 7.0391,-6.89758 12.30361,-10.34202 18.02223,-11.79157 2.92018,-0.7402 4.64869,-0.80546 6.53072,-0.24656 2.79713,0.83066 4.04874,2.82277 3.83787,6.10852 -0.14912,2.32364 -0.90106,4.02462 -3.53276,7.99158 -2.24177,3.37918 -5.01812,8.93958 -6.10862,12.23424 -1.06744,3.22494 -1.86634,7.25112 -2.03878,10.27485 -0.3733,6.54525 1.97584,14.00556 5.49061,17.43687 1.76102,1.71922 2.40182,2.0026 4.528,2.00232 3.45889,0 7.05584,-2.89419 9.28752,-7.47186 3.01375,-6.18184 4.61821,-14.32354 5.25211,-26.65117 0.72474,-14.09498 3.10962,-24.12118 8.20825,-34.50808 3.91986,-7.98549 7.71123,-13.2274 14.01592,-19.37828 10.75031,-10.48802 22.69213,-16.45716 37.30283,-18.64586 3.7201,-0.55728 16.15009,-0.63625 20.26868,-0.12876 10.42432,1.28445 22.11203,4.3008 28.15282,7.26564 3.0517,1.49779 5.96166,3.96539 6.77349,5.74383 0.52201,1.14354 0.62371,3.30496 0.20746,4.40905 -0.58125,1.54167 -2.87662,3.39045 -7.89427,6.35833 -13.76018,8.13897 -24.47049,21.76193 -30.66668,39.00635 -4.07798,11.34937 -5.64334,24.17846 -4.26412,34.94727 0.95207,7.43366 2.54062,12.77848 5.89478,19.83381 2.38534,5.01742 4.12521,9.94461 5.07197,14.36336 0.6252,2.91803 0.68777,3.71579 0.69421,8.85152 0.007,5.23063 -0.0425,5.85136 -0.67022,8.46666 -0.95279,3.97005 -2.09276,6.7534 -3.81983,9.32665 -1.4978,2.23164 -3.7278,4.52708 -10.75474,11.07032 -5.21044,4.85179 -6.93384,7.45154 -6.93851,10.46673 -0.003,1.37468 0.0913,1.70895 0.62722,2.24495 0.56981,0.56978 0.8373,0.62974 2.8096,0.62974 4.97034,0 7.43048,1.26433 8.98601,4.61818 0.90413,1.94938 0.91627,5.22332 0.0328,8.86975 -1.85699,7.66495 -5.96523,14.3001 -13.86853,22.39895 -6.77264,6.94018 -13.07604,11.57563 -21.66196,15.92996 -6.01095,3.04841 -9.72528,5.44271 -12.51568,8.06773 -2.60648,2.45197 -3.98,4.40559 -4.02098,5.71913 -0.0275,0.88028 0.0377,0.98293 0.67031,1.0558 0.39985,0.0461 1.55648,-0.30244 2.69394,-0.8117 2.88497,-1.29166 4.52712,-1.70714 6.72212,-1.70075 2.38501,0.007 3.59407,0.50718 5.04477,2.08734 2.30188,2.50732 2.53469,5.67954 0.69724,9.50086 -1.95515,4.06615 -4.87764,7.1492 -14.06282,14.83544 -8.98257,7.51669 -12.11793,10.78559 -13.89395,14.4857 -1.00436,2.09242 -1.11817,3.77239 -0.36758,5.42526 0.58694,1.29245 1.39656,1.8941 2.54887,1.8941 0.76867,0 1.24547,-0.36325 3.98382,-3.03502 4.83717,-4.71958 7.72101,-6.45104 10.75172,-6.4554 3.65763,-0.005 5.70415,1.88594 6.72466,6.21428 0.50462,2.14029 0.49656,7.25265 -0.0157,9.98263 -1.9374,10.32492 -9.42314,21.02502 -18.58335,26.56314 -0.91723,0.55452 -3.25818,1.7768 -5.20215,2.71616 -1.94395,0.93934 -4.40442,2.3093 -5.4677,3.04433 -2.59701,1.79532 -5.02078,4.46137 -6.17012,6.78693 -0.82886,1.6771 -0.91491,2.03985 -0.81419,3.43257 0.14627,2.02189 0.78153,2.92995 2.12904,3.04325 1.4157,0.11902 3.76769,-1.13538 6.188,-3.30028 2.19638,-1.9646 4.1647,-3.06003 6.77146,-3.76859 1.32791,-0.36094 2.66087,-0.45143 6.54242,-0.44411 4.71329,0.009 5.00845,0.0408 8.91081,0.96212 5.10709,1.2058 6.88258,1.24906 9.05641,0.22067 1.15265,-0.54531 1.97019,-1.21084 3.20707,-2.61068 4.83524,-5.4724 6.602,-6.6646 9.87016,-6.6604 3.11586,0.004 5.10745,1.3001 6.42532,4.18151 1.69677,3.70989 0.84244,8.52444 -2.85421,16.08446 -3.18611,6.51587 -6.25602,11.03437 -10.34416,15.22514 -3.11428,3.19247 -5.75372,5.19238 -8.35519,6.33071 -1.12322,0.4915 -3.885,1.79583 -6.13723,2.89852 -3.58571,1.75555 -4.32549,2.22843 -5.94871,3.80236 -3.59833,3.48911 -4.60117,6.4281 -6.02885,17.66852 -0.42121,3.31611 -1.1186,7.75834 -1.54976,9.87162 -3.14506,15.41436 -10.49433,31.71923 -18.63911,41.35217 -1.7622,2.08416 -1.77133,2.10297 -2.61292,5.38788 -2.49613,9.74269 -5.53363,19.53347 -7.9875,25.7459 -3.12307,7.90661 -7.84347,16.11699 -12.09564,21.03838 -1.03634,1.19945 -4.6515,4.69626 -8.03372,7.77068 -7.755,7.0493 -9.749,9.01957 -14.5962,14.42225 -10.6154,11.83211 -18.1415,22.43051 -25.6297,36.09224 -7.1335,13.0147 -12.8195,26.09083 -25.1939,57.93907 -2.2205,5.715 -4.2028,10.71567 -4.405,11.11257 -0.3651,0.71674 -0.3519,0.73812 1.9293,3.12436 3.0929,3.23526 4.1471,5.28286 4.1468,8.05462 -10e-5,1.6326 -0.1251,2.21806 -0.7602,3.56038 -0.418,0.88357 -1.1712,2.14505 -1.6738,2.80329 -0.5026,0.65825 -1.1707,2.0135 -1.4847,3.0117 -0.5138,1.63309 -0.5703,2.34172 -0.5647,7.07449 0,2.89278 0.1047,8.08823 0.225,11.54545 0.2015,5.78856 0.1767,6.53055 -0.313,9.37873 -1.3998,8.14175 -5.481,16.43565 -10.3341,21.00108 -1.1469,1.07891 -3.1637,2.67701 -4.4817,3.55131 -2.1289,1.41213 -2.3556,1.63463 -2.0313,1.99297 0.6014,0.66456 1.9005,3.73662 2.3042,5.44905 1.3514,5.73124 -1.0762,11.73225 -7.0753,17.49033 -4.6527,4.46578 -9.7332,7.34689 -20.6334,11.70096 -7.8235,3.12512 -10.1191,4.31551 -12.081,6.26469 -2.2378,2.22322 -2.7029,3.55672 -2.9123,8.35067 -0.1939,4.43502 -0.5626,5.43342 -2.7426,7.42583 -1.8764,1.71489 -3.8087,2.33031 -7.2421,2.3065 -1.361,-0.009 -2.961,-0.1692 -3.5557,-0.35506 z m 5.16,-8.91511 c 1.0367,-6.50181 2.1731,-9.28104 5.0584,-12.37065 2.386,-2.5548 4.9761,-4.24201 10.89,-7.09371 15.6949,-7.56809 18.3497,-9.07421 21.8639,-12.40405 3.368,-3.19129 5.4452,-7.08075 5.4452,-10.19607 0,-2.5479 -2.2419,-3.39993 -4.3381,-1.64864 -1.4926,1.24704 -2.4948,1.50525 -5.3741,1.38461 -2.0191,-0.0846 -2.7581,-0.23427 -4.0141,-0.81298 -2.7283,-1.25704 -3.7202,-2.62254 -3.7202,-5.12115 0,-1.83819 0.5809,-3.67238 1.4506,-4.58016 1.3091,-1.36637 3.2908,-1.75471 8.9541,-1.75471 4.5696,0 5.1213,-0.0503 6.9644,-0.63484 2.7884,-0.88441 4.9949,-2.24759 7.2782,-4.49647 3.4953,-3.44275 6.2381,-7.98358 7.1698,-11.87001 1.2392,-5.1689 1.3548,-7.15523 1.183,-20.32898 -0.1817,-13.93723 -0.083,-15.02302 1.7399,-19.05941 1.1427,-2.53105 1.1778,-3.43095 0.1727,-4.43607 -1.522,-1.52198 -3.6866,-0.81994 -6.9566,2.25618 -4.4358,4.17289 -6.887,8.50854 -10.1223,17.90395 -3.6499,10.59975 -5.2256,14.05916 -7.5657,16.6105 -1.2346,1.34612 -2.0512,1.95882 -3.6823,2.76293 -3.0073,1.48259 -5.1386,1.88675 -10.0494,1.90569 -3.762,0.0146 -4.2123,-0.0336 -5.3879,-0.5752 -2.401,-1.10618 -3.7038,-2.93662 -3.7146,-5.2189 0,-0.90758 0.2472,-1.6723 1.0546,-3.20707 0.5831,-1.10844 1.5087,-2.88123 2.0568,-3.93957 1.9844,-3.83127 3.1309,-10.84423 2.0967,-12.82553 -0.5942,-1.13844 -1.6403,-1.55015 -2.5877,-1.01839 -0.3709,0.20818 -1.1741,1.01256 -1.785,1.78749 -2.1597,2.74005 -4.2969,4.94915 -5.1212,5.29357 -0.4591,0.19181 -1.441,0.34872 -2.182,0.34872 -1.3429,0 -1.3538,-0.007 -3.2846,-1.98838 -1.0909,-1.11971 -2.3,-2.67796 -2.7676,-3.5668 -1.3659,-2.59645 -3.0022,-3.66971 -4.4299,-2.90561 -0.75,0.4014 -0.96,0.98088 -1.3849,3.82278 -0.2156,1.44174 -0.6071,3.10778 -0.8701,3.70229 -0.8936,2.02007 -2.7287,3.00695 -4.8511,2.60879 -0.7912,-0.14845 -1.6398,-0.85113 -4.8367,-4.00533 -3.394,-3.34859 -3.981,-3.82531 -4.7106,-3.82531 -0.6057,0 -1.0717,0.23832 -1.7057,0.87232 -1.203,1.20299 -1.1518,2.02379 0.444,7.11492 1.2047,3.84354 1.3269,4.46437 1.4414,7.32216 0.2065,5.1562 -0.9429,8.80274 -3.5405,11.23254 -1.7248,1.61334 -3.2428,2.25293 -5.6909,2.39789 -3.9061,0.23132 -9.4542,-1.69461 -13.5385,-4.69972 -2.0767,-1.52797 -5.9473,-5.27753 -8.0724,-7.81991 -3.9324,-4.70467 -6.817,-10.02823 -8.4612,-15.61525 -1.0957,-3.72295 -1.8693,-5.35945 -2.9724,-6.28768 -1.166,-0.98109 -2.2976,-0.90932 -3.5535,0.22529 -1.285,1.16093 -2.0111,2.88261 -2.7585,6.54027 -1.4144,6.9225 -0.2211,16.56423 2.8877,23.33128 1.4036,3.05516 4.0843,6.85528 6.6244,9.3903 3.9865,3.97867 8.096,6.77144 16.9473,11.51703 5.5672,2.98478 6.9884,4.08465 7.9812,6.17653 1.4051,2.96077 0.1884,5.84452 -3.1064,7.36251 -1.0694,0.49269 -1.7097,0.59069 -3.8485,0.58905 -3.9818,-0.003 -5.1336,-0.45727 -7.8185,-3.08325 -2.9462,-2.88151 -4.1205,-3.29474 -5.6664,-1.99392 -0.4533,0.38146 -0.9818,1.07049 -1.1742,1.53115 -0.4521,1.08199 -0.4481,3.20133 0.01,4.29312 0.5209,1.2467 4.4432,6.18569 6.3451,7.98984 6.4019,6.0727 11.9679,9.02195 25.4533,13.48686 7.6877,2.54536 11.0102,4.17668 13.6889,6.72109 2.127,2.02051 3.1662,3.85336 3.8097,6.71971 0.7433,3.3109 0.9117,3.74458 1.8643,4.80127 0.9049,1.00384 3.0644,2.24646 3.9132,2.25177 0.3107,0.003 0.501,-0.63525 0.8574,-2.87068 z m -7.6795,-43.65847 c -0.8133,-0.37877 -1.8341,-1.20101 -2.7571,-2.22101 -1.3473,-1.48878 -2.1298,-2.54624 -5.8368,-7.88752 -1.4824,-2.13604 -3.237,-3.6086 -6.1475,-5.15938 -2.1814,-1.16227 -3.0812,-2.04363 -3.0812,-3.01786 0,-0.89415 0.8696,-1.63306 1.9219,-1.63306 1.0945,0 4.6968,1.82744 8.0592,4.08827 3.4856,2.34372 4.6655,2.83348 6.8337,2.83648 3.3476,0.005 5.255,-1.57131 5.2442,-4.3329 -0.01,-2.1754 -0.8958,-3.85323 -4.2752,-8.08387 -0.8911,-1.1156 -1.6202,-2.28113 -1.6202,-2.59003 0,-0.81234 0.7965,-1.41088 1.8775,-1.41088 0.7613,0 1.2433,0.25777 2.5455,1.36128 1.4805,1.25471 2.5866,2.50131 7.0874,7.98789 2.4721,3.0136 3.3868,3.22547 8.3735,1.93972 3.3309,-0.85886 4.3676,-0.93485 5.6191,-0.41195 2.0076,0.83879 2.2169,2.43951 0.5518,4.21961 -0.6277,0.67102 -1.2627,1.53952 -1.4111,1.92996 -0.4661,1.22598 -0.2972,3.27625 0.4998,6.0644 0.949,3.32047 0.9731,4.1815 0.1399,5.0147 -0.9277,0.92771 -1.7769,0.7964 -4.9635,-0.76752 -5.9304,-2.91053 -7.4203,-2.88988 -10.9552,0.15192 -2.9206,2.51313 -5.2097,3.08404 -7.7057,1.92175 z m -18.0782,-72.8355 c 0,-2.07831 0.6143,-5.82452 1.2596,-7.69792 1.3672,-3.96976 3.9868,-7.27371 7.2685,-9.16752 2.785,-1.60715 8.4014,-2.82597 13.0224,-2.82597 2.7845,0 7.3592,0.67 9.7184,1.4233 5.1194,1.63468 8.7427,5.25708 10.5726,10.57019 0.6452,1.8734 1.2582,5.61961 1.2595,7.69792 v 1.60354 l 3.6561,-5e-5 c 6.3919,-8e-5 12.1291,-1.23188 17.319,-3.71846 6.6711,-3.19619 11.4018,-7.61543 16.4318,-15.34971 3.3995,-5.22734 5.9246,-10.57017 10.5102,-22.23885 10.102,-25.70541 15.2093,-42.94121 18.4258,-62.18235 0.4922,-2.94417 1.0686,-5.7686 1.2808,-6.27647 1.4348,-3.43416 3.4052,-1.87811 4.1949,3.3129 0.4852,3.18958 0.9491,4.45814 1.9522,5.33888 0.7529,0.66107 1.1234,0.79694 2.1727,0.79694 1.0544,0 1.4189,-0.13521 2.19,-0.81226 2.3657,-2.07708 4.8484,-9.94638 6.0222,-19.08833 0.8023,-6.24832 0.5749,-11.95688 -0.7861,-19.7388 -0.7281,-4.16334 -0.6836,-4.86961 0.3734,-5.92666 1.1657,-1.16563 2.7647,-1.23303 4.0283,-0.1698 1.3972,1.17566 2.9766,3.55762 3.8336,5.78184 1.0779,2.7972 1.3843,3.36031 2.5051,4.60337 1.7032,1.88917 3.8035,2.43676 5.8245,1.51862 1.9248,-0.87438 3.3923,-3.01563 5.0112,-7.31174 3.9453,-10.46947 4.7017,-22.14313 2.002,-30.89492 -1.4647,-4.74803 -4.8322,-9.26897 -8.1604,-10.9555 -1.8352,-0.92995 -4.8867,-1.67248 -6.8734,-1.67248 -2.2089,0 -6.1759,0.83356 -9.2372,1.94095 -6.7951,2.45802 -13.6203,6.49503 -23.5336,13.91966 -15.1979,11.38256 -35.1862,22.30676 -52.05,28.44684 -10.2422,3.72957 -21.0202,5.97942 -28.6436,5.97942 -7.6233,0 -18.4013,-2.24985 -28.6446,-5.97942 -16.8637,-6.14008 -36.8521,-17.06428 -52.05,-28.44684 -12.2691,-9.18908 -20.765,-13.75033 -28.5769,-15.34229 -3.188,-0.64968 -5.3074,-0.65566 -7.7851,-0.0221 -3.6334,0.92928 -6.007,2.58942 -8.2775,5.78951 -5.1633,7.27728 -6.2247,19.35354 -2.824,32.13053 0.7874,2.95823 2.4713,7.46268 3.3511,8.96389 2.5734,4.3912 6.2333,5.16585 9.1456,1.93574 1.1207,-1.24306 1.4271,-1.80617 2.505,-4.60338 0.8571,-2.22422 2.4364,-4.60617 3.8336,-5.78183 1.2636,-1.06324 2.8627,-0.99584 4.0283,0.16979 1.057,1.05705 1.1016,1.76333 0.3734,5.92667 -1.361,7.78192 -1.5883,13.49048 -0.7861,19.7388 1.1738,9.14195 3.6565,17.01125 6.0222,19.08833 0.7711,0.67705 1.1357,0.81226 2.1901,0.81226 1.0493,0 1.4197,-0.13588 2.1726,-0.79694 1.0031,-0.88074 1.467,-2.14931 1.9522,-5.33888 0.6278,-4.12632 2.0849,-6.14161 3.3943,-4.69469 0.7951,0.87856 1.1923,2.34016 2.0814,7.65826 3.2166,19.24114 8.3239,36.47693 18.4258,62.18235 3.4629,8.81162 4.5259,11.27144 6.7834,15.69643 7.8156,15.31974 16.9236,22.80183 30.5521,25.09825 1.7482,0.29459 4.1874,0.47323 6.669,0.48842 l 3.9126,0.0239 v -1.60353 z m -21.2959,-21.03279 c -4.9787,-3.91442 -9.8224,-9.88747 -14.5986,-18.00251 -1.8634,-3.16592 -5.8249,-11.14119 -7.5963,-15.29247 -6.2112,-14.55643 -10.427,-30.26197 -12.052,-44.89899 -0.5124,-4.61505 -0.4864,-7.41041 0.1061,-11.41717 1.5072,-10.19289 5.8659,-16.12984 13.0083,-17.71891 2.273,-0.50566 4.2783,-0.39747 7.4169,0.40017 2.4038,0.61088 4.9864,1.80796 10.2519,4.75177 9.3561,5.23078 18.2841,8.83096 27.6979,11.16915 7.2916,1.81105 10.256,2.15415 18.6122,2.15415 8.3562,0 11.3207,-0.3431 18.6122,-2.15415 9.4139,-2.33819 18.3419,-5.93837 27.6979,-11.16915 7.0328,-3.93184 9.9153,-5.04965 14.0012,-5.42939 2.1961,-0.2041 5.0121,0.4055 7.4065,1.60338 3.4557,1.72884 6.4977,5.81871 8.0898,10.87682 0.8647,2.74707 1.6733,8.14557 1.6716,11.16061 0,4.46203 -1.2982,13.75733 -2.9531,21.18521 -2.9696,13.32884 -7.3756,25.77856 -13.3502,37.72341 -5.9314,11.85828 -11.7471,19.84025 -18.137,24.89259 l -2.2449,1.77502 v -1.4917 c 0,-3.84255 -1.7279,-13.45186 -3.2217,-17.91654 -1.6565,-4.9512 -4.2526,-9.57772 -7.0256,-12.52007 -6.7899,-7.20498 -16.2024,-10.41384 -30.5467,-10.41384 -14.3442,0 -23.7567,3.20886 -30.5467,10.41384 -4.0411,4.28809 -7.0753,10.92736 -8.7014,19.03997 -0.7492,3.73767 -1.4833,8.979 -1.6088,11.48726 l -0.065,1.30443 z m -0.9072,-21.37125 c 1.2753,-5.06173 4.5228,-10.51049 8.4087,-14.10823 15.2243,-14.09536 47.7134,-15.6679 66.3369,-3.21085 4.8385,3.23643 8.0775,6.94729 10.5665,12.10582 1.6068,3.33025 2.4812,6.60793 2.8816,10.80172 l 0.3125,3.27283 1.5066,-1.47687 c 2.0868,-2.04564 3.5569,-4.16896 5.0438,-7.28502 2.7006,-5.65941 3.8586,-10.66482 3.8586,-16.67818 0,-4.26079 -0.5049,-7.46085 -1.7039,-10.79885 -0.9303,-2.59003 -2.3951,-5.43788 -2.6578,-5.16749 -0.12,0.12344 -0.5729,1.12161 -1.0065,2.21819 -2.13,5.38711 -5.144,9.93653 -6.5829,9.93653 -1.1358,0 -1.2515,-0.67153 -1.4148,-8.2101 -0.098,-4.54642 -0.2675,-7.41623 -0.4754,-8.06978 -0.4741,-1.49019 -1.7901,-2.70597 -2.9291,-2.70597 -1.1886,0 -2.1166,0.81618 -5.251,4.61818 -3.2022,3.88425 -4.1587,4.87474 -4.7075,4.87474 -0.8713,0 -1.223,-1.0837 -1.6291,-5.01986 -0.2175,-2.1074 -0.5151,-4.20508 -0.6615,-4.66149 -0.3475,-1.08381 -1.367,-1.8641 -2.4354,-1.8641 -1.2407,0 -2.3058,1.0698 -3.9453,3.96286 -1.6718,2.95002 -3.6405,5.2735 -4.4682,5.2735 -0.9397,0 -1.79,-1.18982 -3.9615,-5.54307 -2.2406,-4.49188 -3.0614,-5.48925 -4.5178,-5.48925 -1.3934,0 -2.0966,0.83476 -4.1397,4.91413 -1.0551,2.10682 -2.0928,3.89746 -2.3059,3.97923 -0.662,0.25405 -1.3754,-0.68233 -3.0923,-4.05876 -1.8597,-3.65722 -2.9083,-4.8346 -4.3058,-4.8346 -1.848,0 -2.7347,1.34895 -4.1211,6.26916 -0.9368,3.32478 -1.5129,4.76316 -1.9078,4.76316 -0.4113,0 -2.2281,-2.18617 -4.0829,-4.91274 -1.0221,-1.50255 -2.3722,-3.20551 -3.0001,-3.78434 -0.9934,-0.91571 -1.2958,-1.05241 -2.3277,-1.05241 -0.9972,0 -1.3193,0.13341 -2.0242,0.83825 -0.9796,0.97967 -1.2324,1.94777 -1.808,6.92543 -0.4559,3.94213 -0.7578,5.06411 -1.3632,5.06576 -0.236,0 -2.4496,-2.07051 -4.919,-4.60256 -3.7803,-3.87617 -4.6644,-4.65379 -5.594,-4.92062 -1.3488,-0.38713 -2.2224,-0.12839 -2.9748,0.88099 -0.5121,0.68721 -0.5457,1.10734 -0.6676,8.35057 -0.1132,6.73347 -0.1815,7.70818 -0.5832,8.32032 -0.6943,1.05826 -1.3982,0.88408 -2.9167,-0.72166 -1.4011,-1.48172 -3.8567,-5.94884 -4.9736,-9.04789 -0.3194,-0.88628 -0.6753,-1.66989 -0.7909,-1.74131 -0.2659,-0.16431 -1.3185,1.90366 -2.4159,4.74633 -2.6606,6.89174 -2.5714,16.19368 0.2295,23.93134 1.7425,4.81371 3.7251,8.19276 6.4073,10.92046 l 1.8346,1.86564 0.3154,-3.15501 c 0.1734,-1.73526 0.6055,-4.30661 0.9601,-5.71413 z m 61.193,-43.89958 c 0.9825,-0.82666 1.6538,-2.15049 3.0741,-6.06183 1.2086,-3.32827 1.812,-4.29565 2.6796,-4.29565 0.8709,0 1.4586,0.81123 3.4567,4.77143 1.4694,2.9123 2.0972,3.87439 3.2227,4.93889 1.7596,1.66418 2.5088,1.73546 4.0077,0.38133 1.3844,-1.25071 2.0359,-2.42568 3.4345,-6.19347 1.3426,-3.61709 1.7885,-4.56492 2.5277,-5.37343 0.6824,-0.7463 1.4853,-0.73319 2.208,0.036 1.195,1.27206 2.333,6.51508 2.3348,10.75701 0,1.98325 -0.1202,1.93866 2.3855,0.87889 3.2189,-1.36144 6.5344,-7.10538 8.4,-14.55256 1.3984,-5.58238 1.9339,-12.92126 1.1384,-15.60011 -0.7449,-2.50824 -1.843,-2.66008 -5.832,-0.80639 -17.0789,7.93655 -37.6314,13.32196 -50.841,13.32196 -5.2019,0 -14.232,-1.38101 -21.829,-3.33838 -9.0172,-2.3233 -20.3402,-6.38981 -28.8636,-10.36599 -2.7443,-1.28019 -5.06,-0.73078 -5.6342,1.33676 -0.9842,3.54376 0.5309,14.11798 2.903,20.26001 2.1393,5.53951 4.176,8.50397 6.5248,9.49711 2.5373,1.07278 2.3638,1.18495 2.365,-1.52928 0,-4.70893 1.2241,-9.94641 2.5887,-11.09467 1.8826,-1.58409 2.926,-0.6545 5.873,5.23265 2.5227,5.03949 3.4386,6.16543 5.0151,6.16543 1.5147,0 2.731,-1.38137 4.7333,-5.37543 0.9585,-1.91185 1.9867,-3.69601 2.2849,-3.96484 0.5313,-0.47883 0.5532,-0.47893 1.0765,-0.005 0.2938,0.26585 1.3364,2.0644 2.3169,3.99678 2.0547,4.04953 2.9923,5.09226 4.5786,5.09226 1.3449,0 2.053,-0.6382 5.1851,-4.67367 1.4153,-1.82349 2.741,-3.37977 2.9459,-3.45838 0.5687,-0.21823 1.4896,0.79089 3.7249,4.08181 1.1228,1.65292 2.3894,3.29815 2.8148,3.65606 1.6728,1.40762 3.1126,0.54635 5.9015,-3.5303 2.969,-4.3398 4.2614,-5.32245 5.2149,-3.96491 0.223,0.3175 0.9853,2.06446 1.6941,3.88212 1.6485,4.22738 2.0894,5.07469 3.0693,5.89924 1.0608,0.89262 2.2581,0.89221 3.3198,0 z m 6.6169,58.89651 c -0.2451,-0.14283 -1.2543,-1.8533 -2.2426,-3.80107 -1.3355,-2.632 -2.2048,-3.98646 -3.3852,-5.27471 -3.0408,-3.31847 -6.6845,-5.30077 -11.6295,-6.32673 -2.7861,-0.57806 -5.3754,-0.61106 -8.4666,-0.10791 -5.3489,0.87061 -9.4395,2.92439 -13.6565,6.85644 -2.462,2.29562 -5.3659,3.13836 -6.8342,1.98338 -1.2604,-0.99142 -0.8142,-3.43821 1.1545,-6.33048 1.198,-1.76006 4.2085,-4.81986 5.9947,-6.09292 2.5902,-1.84601 6.6431,-3.71545 9.875,-4.55499 4.045,-1.05074 8.9933,-1.24939 12.5745,-0.50484 5.1001,1.06031 8.6291,2.87556 12.2015,6.27624 3.6868,3.50945 5.9478,7.14355 7.6972,12.37157 1.1141,3.32937 1.1151,3.80468 0.011,4.90899 -0.695,0.69501 -1.0731,0.87074 -1.8601,0.86453 -0.5433,-0.004 -1.1884,-0.12467 -1.4335,-0.2675 z m -18.9775,-119.01351 c 2.3107,-1.02136 3.8138,-2.9766 6.7167,-8.73745 4.8144,-9.55401 6.1024,-11.45283 11.5732,-17.06161 2.0646,-2.11667 3.9435,-4.21799 4.1754,-4.6696 0.6274,-1.22179 1.1836,-3.84936 1.1841,-5.59303 0,-2.16903 -0.8647,-6.10564 -1.6286,-7.40915 -0.3547,-0.60524 -1.1134,-1.52372 -1.6861,-2.04108 -0.8966,-0.81006 -1.2136,-0.94068 -2.2823,-0.94068 -2.3014,0 -3.9327,1.08971 -7.9117,5.2852 -1.9354,2.04068 -3.7932,3.77914 -4.1285,3.86329 -0.8478,0.21277 -1.766,-0.26713 -2.3507,-1.22866 -1.1186,-1.83932 -2.3261,-8.48024 -2.3261,-12.7925 0,-4.89522 1.1756,-10.67959 2.9986,-14.7546 2.4009,-5.36661 2.8575,-8.17066 1.9285,-11.84407 -0.7567,-2.99263 -1.3974,-4.32359 -3.4915,-7.2528 -1.8896,-2.64337 -6.9404,-8.48393 -7.3366,-8.48393 -0.3963,0 -5.4471,5.84056 -7.3367,8.48393 -2.094,2.92921 -2.7347,4.26017 -3.4915,7.2528 -0.9289,3.67341 -0.4724,6.47746 1.9285,11.84407 1.8231,4.07501 2.9987,9.85938 2.9987,14.7546 0,4.31226 -1.2076,10.95318 -2.3261,12.7925 -0.5848,0.96153 -1.503,1.44143 -2.3508,1.22866 -0.3352,-0.0841 -2.193,-1.82261 -4.1285,-3.86329 -3.979,-4.19549 -5.6102,-5.2852 -7.9116,-5.2852 -1.0688,0 -1.3858,0.13062 -2.2824,0.94068 -0.5726,0.51736 -1.3314,1.43584 -1.6861,2.04108 -0.7639,1.30351 -1.6292,5.24012 -1.6286,7.40915 0,1.74367 0.5568,4.37124 1.1842,5.59303 0.2318,0.45161 2.1108,2.55293 4.1754,4.6696 5.4683,5.60632 6.7498,7.495 11.576,17.06161 4.1532,8.23255 5.8041,9.56462 11.6643,9.41163 2.2933,-0.0599 3.0769,-0.18625 4.1808,-0.67418 z m -95.2616,-51.42671 c 2.4112,-1.14185 3.7249,-3.12261 3.7146,-5.60098 -0.01,-1.67761 -0.514,-2.79685 -2.5051,-5.53061 -0.9943,-1.36521 -1.6462,-2.5556 -1.8267,-3.33535 -0.3653,-1.57906 -0.7891,-5.45213 -0.7918,-7.2361 v -1.40544 l -2.1965,2.17513 c -4.2139,4.17281 -6.0038,7.84106 -6.0101,12.31672 0,2.25868 0.063,2.58067 0.8654,4.23333 0.9536,1.96304 2.8113,3.96281 4.2625,4.58853 1.3292,0.57314 3.0082,0.4964 4.4899,-0.20523 z m 186.5956,0.21582 c 1.4882,-0.61889 3.346,-2.59744 4.3183,-4.59912 0.8028,-1.65266 0.8687,-1.97465 0.8655,-4.23333 -0.01,-4.47566 -1.7963,-8.14391 -6.0101,-12.31672 l -2.1966,-2.17513 v 1.40544 c 0,1.78397 -0.4265,5.65704 -0.7919,7.2361 -0.1804,0.77975 -0.8323,1.97014 -1.8267,3.33535 -0.8504,1.16758 -1.7606,2.58469 -2.0228,3.14914 -0.5859,1.26158 -0.627,3.40314 -0.09,4.69056 1.2244,2.9357 5.0125,4.64879 7.7563,3.50771 z M -1310.5551,-531.6 c 0.2191,-11.09246 1.6085,-17.40439 4.4966,-20.42683 1.1879,-1.24314 2.2394,-1.70196 3.9004,-1.70196 2.5463,0 4.2251,1.31144 7.0108,5.47678 2.1506,3.21577 5.2439,6.36499 7.6798,7.81866 7.4604,4.45221 15.2528,2.3894 20.4858,-5.42303 1.8817,-2.80929 2.9741,-5.12779 4.1942,-8.90182 1.5369,-4.75437 1.8024,-6.77529 1.8026,-13.72311 10e-5,-5.32692 -0.081,-6.60751 -0.5985,-9.49293 -1.8425,-10.26665 -4.5879,-17.71406 -13.1973,-35.80045 -5.9441,-12.48718 -7.2542,-15.54677 -9.1143,-21.2854 -1.55,-4.78221 -2.043,-7.59065 -2.7471,-15.65051 -1.7609,-20.15595 -3.1531,-29.35914 -6.0269,-39.83961 -1.9657,-7.16914 -3.4824,-11.3654 -8.0881,-22.37756 -10.3954,-24.85559 -14.5403,-38.51412 -14.9322,-49.2058 -0.294,-8.01957 1.3787,-13.71143 5.2618,-17.90558 3.8611,-4.1704 8.8681,-6.49676 16.2365,-7.54401 5.4895,-0.78016 17.4935,-0.37269 26.1092,0.88633 14.1257,2.06418 25.3062,7.43948 34.8991,16.77865 1.1781,1.14695 4.5234,4.68309 7.434,7.85809 10.2959,11.23142 14.6825,15.84606 20.7353,21.81347 8.2858,8.16895 11.7848,11.07273 16.5548,13.73868 16.8042,9.39192 36.6164,30.39012 46.6616,49.45488 l 1.4635,2.7777 1.6072,-3.03427 c 3.9142,-7.38971 8.9126,-14.53883 15.795,-22.5914 8.3928,-9.81987 20.3285,-20.33072 28.3984,-25.0082 4.6984,-2.72331 7.8782,-4.92585 11.095,-7.68514 6.2763,-5.38354 14.5264,-13.83905 29.0667,-29.79037 6.2803,-6.88974 9.6272,-10.08231 13.8208,-13.18363 9.6643,-7.1471 20.4585,-10.6632 36.8648,-12.0084 11.5716,-0.94878 19.7232,-0.23607 25.93124,2.26722 6.18244,2.49295 10.5273,7.41929 12.24593,13.88482 0.84485,3.17833 0.95863,9.9021 0.25002,14.77525 -1.42086,9.77131 -5.83173,23.25894 -13.87881,42.43889 -4.90161,11.68282 -6.72677,16.66427 -8.59256,23.45217 -2.89635,10.53708 -4.48192,20.97268 -6.04587,39.79126 -0.56196,6.76194 -0.79325,8.4877 -1.56456,11.67373 -1.44011,5.94853 -3.9964,12.28549 -10.29789,25.52828 -4.8712,10.23685 -6.504,13.90145 -8.4024,18.85758 -2.6838,7.00634 -4.1957,12.6414 -5.1268,19.1079 -0.7438,5.16557 -0.6359,12.47977 0.2442,16.55472 2.1385,9.90197 6.6146,17.02008 12.5518,19.96096 l 2.1753,1.07743 3.0972,-0.0113 c 2.54202,-0.009 3.39626,-0.11582 4.76496,-0.59465 4.19151,-1.46637 7.88867,-4.56722 10.89696,-9.13945 2.76144,-4.19698 4.69292,-5.77684 7.06263,-5.77684 3.00323,0 5.34162,2.40082 6.62222,6.79899 1.33748,4.59348 1.84022,9.06888 1.85487,16.51154 l 0.0105,5.29654 0.7447,-0.87083 c 1.72623,-2.01863 3.76821,-7.39841 5.5125,-14.52311 0.51818,-2.11666 2.02694,-9.27484 3.35274,-15.90707 3.52668,-17.6416 4.08509,-19.35646 7.4772,-22.96231 2.28254,-2.42637 4.79498,-4.1471 11.62735,-7.96347 6.48198,-3.62062 8.03245,-4.64584 10.22819,-6.76307 4.4226,-4.26453 9.02996,-11.5065 10.93963,-17.19531 0.92307,-2.74979 0.85783,-2.98073 -0.49089,-1.73751 -1.8864,1.73882 -5.32017,4.1871 -6.95067,4.95585 -2.63144,1.24067 -5.28915,1.80714 -9.10808,1.94133 l -3.46364,0.12171 -3.82665,-1.17589 c -3.23501,-0.99406 -4.15513,-1.17587 -5.95134,-1.17587 -1.95858,0 -2.2712,0.076 -3.99861,0.97246 -1.03065,0.53484 -3.37481,1.93641 -5.20925,3.11458 -1.83445,1.17818 -4.25899,2.59642 -5.38788,3.15168 -1.94839,0.95832 -2.15195,1.0043 -4.01236,0.90627 -2.58718,-0.13634 -4.25832,-0.95409 -6.30461,-3.0851 -2.58503,-2.69194 -3.9225,-5.94827 -3.9225,-9.54979 0,-2.42605 0.45861,-4.18486 1.72119,-6.60089 1.87855,-3.59474 5.23633,-6.45145 16.19961,-13.7823 11.93595,-7.98121 15.80552,-12.10045 17.74803,-18.89303 0.6097,-2.13203 1.08717,-6.51661 0.97451,-8.94916 l -0.0827,-1.78701 -2.21421,2.68499 c -3.43642,4.16706 -5.69152,6.2124 -8.20528,7.44204 -2.10237,1.02842 -2.20274,1.05025 -4.33303,0.94334 -2.914,-0.14624 -4.8308,-0.89733 -6.62894,-2.59747 -1.58424,-1.4979 -2.93342,-3.95154 -3.50438,-6.37322 -0.81811,-3.46981 -0.29572,-8.62034 1.16897,-11.52562 2.27263,-4.50786 7.53338,-9.74485 22.56233,-22.46034 2.18722,-1.85053 4.32313,-3.7367 4.74646,-4.19149 l 0.7697,-0.82689 -0.7697,0.19022 c -5.2606,1.29999 -8.75866,1.49116 -11.54386,0.6309 -4.69972,-1.4516 -6.0286,-5.8115 -3.51059,-11.51762 1.8533,-4.19977 3.7395,-7.08547 6.30821,-9.65095 2.79859,-2.79507 4.86438,-4.1129 13.36442,-8.5257 7.30432,-3.79204 9.98846,-5.33828 13.06725,-7.52771 7.04208,-5.00783 14.10611,-14.05125 17.41293,-22.29219 0.95409,-2.37768 2.34504,-6.89061 2.17591,-7.05974 -0.0576,-0.0576 -1.07886,0.079 -2.26935,0.30359 -7.52576,1.41999 -12.64412,-1.77192 -13.01368,-8.11555 -0.13246,-2.2743 0.59123,-4.78331 2.29416,-7.95354 1.76135,-3.27904 3.44711,-5.30047 9.84227,-11.80202 6.99752,-7.11397 8.1308,-8.49188 9.74808,-11.85238 1.68418,-3.49953 2.17778,-5.73373 2.17778,-9.85741 0,-3.0431 -0.0944,-3.78011 -0.87455,-6.82382 -0.89154,-3.47857 -2.58139,-8.0587 -5.09142,-13.79972 -6.61116,-15.12128 -7.88375,-27.94051 -4.64817,-46.82323 2.60996,-15.23187 8.08028,-28.09558 16.42027,-38.61313 2.4384,-3.07508 10.7216,-11.28542 14.07771,-13.9539 1.55222,-1.23419 4.2654,-3.1208 6.02929,-4.19247 1.76389,-1.07166 3.36722,-2.09413 3.56296,-2.27215 0.98031,-0.89161 -17.21623,-5.38451 -26.3826,-6.51412 -7.46883,-0.92042 -14.61975,-0.62474 -22.07934,0.91294 -13.33734,2.74929 -25.34281,10.53155 -34.00503,22.04294 -6.92374,9.20107 -10.277,17.84872 -12.28968,31.6936 -0.21603,1.48592 -0.91317,7.80784 -1.54922,14.04872 -0.63605,6.24087 -1.3824,12.38229 -1.65857,13.64761 -1.68586,7.72446 -5.91756,15.90069 -10.57456,20.43164 -5.2911,5.14789 -11.86557,6.11701 -17.89596,2.63798 -1.86336,-1.07498 -5.93993,-5.05896 -7.35576,-7.18866 -1.83627,-2.76216 -3.65703,-6.85438 -4.51953,-10.15774 -0.6826,-2.61482 -0.806,-3.59943 -0.9112,-7.27256 -0.104,-3.63151 -0.041,-4.66934 0.4331,-7.14831 1.2838,-6.71038 3.1756,-11.00513 8.68907,-19.72659 1.18707,-1.87775 2.09552,-3.47687 2.01878,-3.55361 -0.18095,-0.18097 -4.78348,3.28479 -7.74204,5.82987 -2.81071,2.41785 -7.09431,6.78697 -9.54231,9.73279 -4.9773,5.9893 -7.7042,10.94727 -9.4134,17.11496 -1.7804,6.4244 -2.2111,10.4981 -2.4632,23.29413 -0.2243,11.38833 -0.3061,12.12339 -1.8375,16.50777 -1.6582,4.74772 -4.0844,8.49104 -7.8799,12.158 -2.3113,2.23297 -3.2058,2.90843 -5.1226,3.86796 -3.0125,1.50807 -5.5125,2.06781 -8.5942,1.92427 -1.7013,-0.0793 -2.7111,-0.26891 -3.6378,-0.68319 -1.5947,-0.71289 -3.564,-2.59955 -4.3846,-4.2007 -3.4284,-6.6891 -0.1444,-19.02644 7.7014,-28.9327 3.0729,-3.87986 4.1243,-6.25343 4.887,-11.03232 0.5241,-3.28363 0.4911,-5.77842 -0.1242,-9.37722 -0.9806,-5.73602 -3.2898,-11.23987 -6.5111,-15.51897 -2.3386,-3.10645 -3.8022,-4.40499 -4.8507,-4.30359 -1.2274,0.1187 -1.6437,1.24066 -2.3796,6.4134 -0.7227,5.08029 -1.3936,8.0012 -2.4517,10.67333 -2.9193,7.37244 -7.4169,12.73946 -16.132,19.25053 -2.9732,2.22127 -6.0559,4.78566 -7.5983,6.32057 -2.3324,2.32128 -2.7275,2.85532 -3.9013,5.27399 -1.6472,3.39423 -2.13,5.15363 -3.3786,12.3124 -1.4468,8.29498 -2.5219,11.07358 -5.5494,14.34356 -2.1554,2.32808 -4.0351,3.22318 -6.7683,3.22318 -3.559,0 -6.416,-1.92026 -7.9429,-5.33879 -1.5733,-3.52221 -1.8224,-5.73142 -2.0446,-18.12896 -0.1898,-10.59793 -0.194,-10.65822 -0.8902,-12.95656 -1.4478,-4.77913 -2.9544,-7.37475 -9.9012,-17.05759 -5.1538,-7.1835 -7.2916,-11.04967 -9.0821,-16.42423 -1.446,-4.34082 -1.9774,-7.32324 -2.1351,-11.98373 -0.2109,-6.23467 0.6189,-11.63176 2.7916,-18.15479 2.509,-7.53313 5.2801,-13.0694 10.3601,-20.69826 4.2583,-6.39481 5.8255,-9.19524 5.7086,-10.20109 -0.074,-0.63889 -0.1415,-0.66524 -1.644,-0.64349 -1.9045,0.0276 -3.9085,0.89836 -7.3225,3.18192 -5.6821,3.80073 -14.221,11.5919 -18.2799,16.67924 -9.5726,11.99812 -15.036,26.6491 -15.036,40.32145 0,3.9711 0.7173,9.4046 2.7211,20.61289 2.4108,13.48478 2.9211,17.27644 2.9223,21.71559 0,5.54918 -0.7865,9.21227 -2.8901,13.43391 -1.6075,3.22615 -3.8881,6.34435 -6.3279,8.65198 -3.7712,3.56706 -6.9059,5.05555 -10.672,5.06766 -2.9067,0.009 -4.9787,-0.99135 -7.3452,-3.54741 -4.0615,-4.38678 -5.897,-10.53633 -6.3673,-21.33284 -0.2367,-5.43334 -0.4514,-6.41029 -2.1024,-9.56356 -1.1176,-2.1347 -6.0719,-7.08978 -9.9627,-9.96437 -10.1647,-7.50983 -12.0627,-9.01536 -14.2443,-11.29894 -4.3869,-4.59188 -6.0244,-9.3514 -6.0244,-17.50973 0,-3.2193 0.1333,-4.62423 0.7697,-8.10784 1.0863,-5.94735 1.0252,-6.67071 -0.5637,-6.67071 -2.8251,0 -10.7009,12.40288 -13.7766,21.69545 -1.7424,5.26429 -2.1894,7.84452 -2.1754,12.55607 0.019,6.56217 1.1578,11.47851 5.1794,22.37165 2.1101,5.71528 2.6143,8.02868 2.6097,11.97235 -0.011,9.08507 -4.2108,15.85152 -11.1899,18.02748 -1.8444,0.57507 -2.4877,0.65473 -4.5224,0.55998 -1.7177,-0.08 -2.7262,-0.26862 -3.6551,-0.68367 -1.6905,-0.75535 -3.8328,-2.87869 -4.7813,-4.73887 -1.6899,-3.31447 -2.524,-9.25188 -2.5292,-18.00388 -0.01,-11.4672 -0.8669,-15.94198 -4.8822,-25.39999 -4.2729,-10.06485 -10.4859,-21.21551 -16.4786,-29.57494 -2.5705,-3.58559 -8.3215,-10.45851 -10.4212,-12.45408 -1.3464,-1.27969 -1.6882,-1.4802 -2.4051,-1.41111 -1.3529,0.13038 -1.2474,1.11173 0.7259,6.75124 6.1541,17.58763 6.7159,19.63357 6.9562,25.33238 0.172,4.07848 -0.1149,6.33926 -1.2623,9.94539 -2.5137,7.90056 -7.7147,14.28686 -12.9526,15.90469 -5.9904,1.85022 -13.7636,-1.7123 -18.163,-8.32422 -4.9345,-7.41603 -7.3979,-17.0408 -9.3606,-36.57238 -1.7306,-17.22196 -3.5243,-27.13318 -6.4404,-35.58847 -2.5415,-7.369 -6.8121,-14.4565 -11.154,-18.51133 -11.2044,-10.46367 -29.1109,-12.4712 -56.1728,-6.29761 -4.9681,1.13337 -13.5343,3.42364 -13.8171,3.69415 -0.1206,0.1153 0.8104,0.9019 2.0687,1.74799 15.1054,10.15682 24.5344,25.28306 28.0194,44.94921 1.8377,10.37004 2.5869,25.18127 1.6872,33.35353 -0.8842,8.03199 -1.9394,11.83525 -5.125,18.47273 -4.3104,8.98115 -5.492,13.02047 -5.704,19.49899 -0.1,3.05513 -0.032,4.49851 0.2924,6.2281 0.9066,4.82987 3.0181,9.45755 6.3204,13.85265 2.7138,3.61182 4.8645,5.87309 9.0807,9.54742 6.3226,5.51013 8.3304,8.10978 9.2384,11.96191 1.192,5.0567 -0.6936,10.13622 -4.6159,12.43487 -1.6227,0.95093 -4.7344,1.64979 -7.3458,1.64979 -1.2474,0 -2.2681,0.10275 -2.2681,0.22832 0,0.77978 1.1482,5.57589 1.802,7.52753 2.0279,6.05285 7.0616,13.69355 12.8139,19.45047 4.2568,4.26027 5.6665,5.18391 20.042,13.13172 7.3357,4.05569 9.9143,5.75444 12.1796,8.02371 2.1557,2.15949 2.9494,3.66191 3.1312,5.92677 0.2135,2.65925 -0.4578,4.67855 -2.17,6.52793 -1.5149,1.63637 -3.1318,2.41774 -7.3896,3.57116 -1.1289,0.30583 -2.6103,0.73429 -3.292,0.95217 l -1.2396,0.39611 6.1304,6.19418 c 12.6878,12.81964 17.0505,19.08372 19.2126,27.58615 0.8602,3.38256 0.8631,7.30868 0.01,9.13933 -1.3071,2.79454 -4.3594,4.49028 -8.0811,4.48956 -2.4782,0 -6.7864,-1.11788 -11.3901,-2.95425 -0.738,-0.29441 -0.5384,0.42731 0.6111,2.20926 1.96,3.03833 4.375,5.63275 10.5897,11.37597 6.6965,6.18862 9.4221,8.94809 13.3205,13.48596 5.1456,5.98986 7.4428,9.52205 8.6643,13.32261 0.7356,2.28849 0.7834,2.66759 0.6989,5.53553 -0.084,2.85273 -0.1533,3.21308 -0.9437,4.90759 -1.0471,2.24467 -2.6306,3.85757 -4.9938,5.08631 -1.6138,0.83907 -1.9243,0.90994 -3.9768,0.90763 -2.6161,-0.003 -3.7025,-0.41926 -6.8832,-2.63778 -2.832,-1.97535 -5.4334,-3.21402 -8.2505,-3.92864 -2.3343,-0.59215 -2.7634,-0.61491 -11.5939,-0.61491 -10.3887,0 -11.8099,-0.15186 -16.7006,-1.78451 -1.6356,-0.54598 -4.3776,-1.69644 -6.0935,-2.55658 -2.128,-1.06672 -3.1197,-1.44826 -3.1197,-1.20019 0,0.94588 1.7077,5.41367 3.0957,8.09893 1.8795,3.63623 4.1242,6.67949 6.8428,9.27683 2.0283,1.93781 2.8438,2.47283 8.5342,5.59916 11.1031,6.10008 17.2014,12.00529 19.9473,19.31575 1.4473,3.85307 1.6042,5.22901 1.6042,14.06336 0,6.40929 0.098,8.68141 0.5115,11.90444 1.254,9.76658 3.5602,16.2843 6.8815,19.44796 0.8518,0.81139 1.6584,1.47525 1.7924,1.47525 0.1444,0 0.2989,-2.79592 0.3792,-6.86313 z m 146.3034,-11.48131 c -0.9489,-4.27033 -3.2435,-8.10471 -7.0036,-11.70322 -2.6956,-2.57979 -2.8747,-2.71308 -7.7533,-5.76831 -9.8953,-6.19699 -20.4754,-16.0548 -29.024,-27.04261 -6.3019,-8.10003 -9.9634,-14.69115 -13.6827,-24.6303 -1.0824,-2.89278 -2.5282,-6.41414 -3.2129,-7.82525 -2.4522,-5.0546 -6.996,-11.16379 -12.5445,-16.86627 -4.7999,-4.93306 -7.3599,-5.98252 -8.6251,-3.53583 -0.8992,1.73884 -0.065,5.01095 2.4218,9.49806 4.3148,7.78563 5.6448,11.23519 5.8365,15.13737 0.066,1.34055 -0.1762,7.05555 -0.5378,12.7 -0.3616,5.64444 -0.7884,13.56462 -0.9485,17.60038 -0.3398,8.56765 -0.2896,8.89941 1.8474,12.18581 4.261,6.55284 13.6115,15.48913 22.3374,21.3479 3.3914,2.2771 8.0991,4.85248 10.3765,5.67655 3.1264,1.13127 5.8164,1.52713 12.398,1.82451 9.6061,0.43406 12.7259,1.08332 17.5455,3.65137 2.7841,1.48348 6.9845,4.11469 9.1071,5.70494 l 1.7144,1.28439 0.073,-3.72177 c 0.053,-2.6622 -0.04,-4.23307 -0.3257,-5.51772 z m 54.8184,5.01945 c 8.2476,-5.14317 10.8949,-5.90568 22.2917,-6.42066 6.5816,-0.29738 9.2716,-0.69324 12.398,-1.82451 2.2774,-0.82407 6.9852,-3.39945 10.3766,-5.67655 8.7259,-5.85877 18.0763,-14.79506 22.3373,-21.3479 2.137,-3.2864 2.1873,-3.61816 1.8474,-12.18581 -0.1601,-4.03576 -0.5869,-11.95594 -0.9485,-17.60038 -0.3616,-5.64445 -0.6036,-11.35945 -0.5377,-12.7 0.1916,-3.90218 1.5217,-7.35174 5.8364,-15.13737 2.4867,-4.48711 3.3211,-7.75922 2.4219,-9.49806 -0.7673,-1.48365 -1.6991,-1.60436 -3.8989,-0.50508 -2.7983,1.39831 -10.0592,9.38135 -14.2321,15.64758 -2.3492,3.52768 -3.8533,6.67586 -6.2516,13.08485 -4.2847,11.45016 -8.4981,18.542 -17.3009,29.1202 -2.5438,3.0568 -9.7195,10.36525 -13.0906,13.33274 -3.6784,3.23791 -8.7832,7.04055 -12.7392,9.48959 -4.2189,2.61171 -5.9294,3.95835 -8.5864,6.75976 -2.4386,2.57102 -4.0144,5.14084 -5.1883,8.46087 -0.7479,2.11508 -0.7967,2.488 -0.89,6.79799 l -0.099,4.56015 1.8028,-1.35308 c 0.9916,-0.74419 2.9944,-2.09614 4.4508,-3.00433 z m -45.3961,-58.58364 c 4.2518,-2.10191 6.9348,-6.65156 8.28,-14.04086 0.6715,-3.68813 0.7992,-11.53375 0.2676,-16.43903 -1.4951,-13.79677 -5.8617,-25.53434 -11.5208,-30.9685 -1.9558,-1.87811 -2.9637,-2.3662 -4.8861,-2.3662 -1.1468,0 -1.5486,0.12533 -2.224,0.69357 -1.7578,1.47915 -1.9857,3.90139 -0.746,7.92891 2.0965,6.81081 2.0411,12.9833 -0.1361,15.16046 -0.7386,0.73863 -1.0163,0.84736 -2.164,0.84736 -1.8376,0 -2.7406,-0.45992 -4.4585,-2.27107 -2.4392,-2.57153 -3.3436,-4.91377 -5.5694,-14.4245 -3.3202,-14.1867 -8.3365,-29.20356 -13.0637,-39.10746 -8.433,-17.66785 -20.6113,-30.73435 -35.2945,-37.86873 -6.4784,-3.14772 -11.3729,-4.59057 -18.5934,-5.48111 -4.0719,-0.5022 -7.687,-0.50071 -11.3518,0.005 -7.823,1.07875 -12.8744,3.40519 -16.9486,7.80572 -2.6989,2.91505 -5.0608,8.08806 -5.0608,11.08423 0,1.07945 0.1201,1.39567 0.7815,2.05699 0.7071,0.70715 0.9012,0.76998 2.0401,0.66055 1.4432,-0.13867 3.1346,-1.07806 5.8079,-3.22557 2.5045,-2.01198 6.0191,-3.66365 8.1617,-3.83563 1.9803,-0.15896 3.6933,0.37428 4.501,1.40116 1.1353,1.44328 0.4294,2.56358 -3.1608,5.01599 -9.1569,6.25514 -14.5414,15.75877 -16.8236,29.69388 -1.2791,7.81004 -1.6225,16.78509 -0.914,23.8888 1.2943,12.97704 5.1044,29.47937 9.63,41.70982 1.5769,4.26138 2.1422,5.28726 3.7101,6.73249 1.177,1.08494 1.2254,1.10267 2.7155,0.99489 2.5862,-0.18709 3.8795,-1.55433 4.0239,-4.25391 0.08,-1.49124 -0.068,-2.22517 -1.0949,-5.44381 -4.2451,-13.30347 -5.8936,-26.65841 -4.6069,-37.31996 1.5369,-12.73423 5.3428,-23.14754 10.4236,-28.51974 3.5175,-3.71923 8.4258,-5.7365 13.967,-5.74032 13.654,-0.009 27.9547,10.87684 36.971,28.14386 4.0048,7.66944 6.9848,15.16696 13.5426,34.07151 4.8418,13.95774 8.3462,21.24158 12.8052,26.61558 2.855,3.44085 6.1489,5.65481 10.6646,7.16793 1.9875,0.666 2.4549,0.7248 5.2734,0.66353 2.9987,-0.0652 3.152,-0.0966 5.0512,-1.03547 z m 38.7303,0.42462 c 10.2711,-3.24004 15.8059,-11.15014 23.6754,-33.83618 6.5578,-18.90456 9.5379,-26.40207 13.5426,-34.07151 9.0163,-17.26702 23.3171,-28.15331 36.9711,-28.14387 5.5412,0.004 10.4495,2.0211 13.9669,5.74033 5.0808,5.3722 8.8868,15.78551 10.4237,28.51973 1.2867,10.66156 -0.3619,24.01649 -4.607,37.31996 -1.027,3.21864 -1.1746,3.95258 -1.0949,5.44381 0.1444,2.69959 1.4377,4.06682 4.024,4.25391 1.4901,0.10778 1.5384,0.0901 2.7155,-0.99488 1.5679,-1.44524 2.1332,-2.47112 3.71,-6.73249 4.5257,-12.23046 8.3357,-28.73279 9.63,-41.70983 1.1303,-11.33281 -0.3103,-25.22699 -3.5936,-34.65981 -2.7919,-8.02065 -7.5989,-14.45188 -14.144,-18.92287 -3.5901,-2.45241 -4.2961,-3.5727 -3.1608,-5.01598 0.8078,-1.02688 2.5207,-1.56013 4.501,-1.40116 2.1427,0.17198 5.6572,1.82364 8.1618,3.83563 2.6732,2.14751 4.3647,3.0869 5.8079,3.22557 1.1388,0.10942 1.3329,0.0466 2.04,-0.66055 0.6614,-0.66133 0.7815,-0.97755 0.7815,-2.05699 0,-2.99618 -2.3618,-8.16918 -5.0607,-11.08423 -4.0742,-4.40054 -9.1256,-6.72697 -16.9486,-7.80573 -3.6648,-0.50535 -7.28,-0.50684 -11.3519,-0.005 -7.2204,0.89054 -12.115,2.33339 -18.5933,5.48112 -14.6833,7.13437 -26.8615,20.20087 -35.2946,37.86873 -4.7271,9.90389 -9.7435,24.92076 -13.0636,39.10745 -2.2259,9.51074 -3.1302,11.85298 -5.5694,14.42451 -1.718,1.81115 -2.6209,2.27107 -4.4585,2.27107 -1.1478,0 -1.4255,-0.10874 -2.1641,-0.84736 -2.1772,-2.17717 -2.2326,-8.34965 -0.1361,-15.16047 1.2398,-4.02751 1.0119,-6.44975 -0.746,-7.9289 -0.6753,-0.56824 -1.0772,-0.69358 -2.2239,-0.69358 -1.9224,0 -2.9303,0.48809 -4.8862,2.36621 -5.6591,5.43416 -10.0257,17.17173 -11.5208,30.96849 -0.5316,4.90528 -0.4038,12.75091 0.2676,16.43904 1.4904,8.18631 4.6242,12.90348 9.7498,14.67586 2.0828,0.72023 6.0012,0.62492 8.6492,-0.21038 z m 107.9632,388.16762 c 0,-6.44923 4.5268,-17.88844 12.79086,-32.32293 5.01355,-8.75694 10.81709,-17.19726 16.38169,-23.82458 4.24809,-5.05937 5.88326,-6.45578 14.70021,-12.55371 6.21251,-4.29665 10.06938,-7.41952 14.59046,-11.81372 8.26387,-8.03199 15.24682,-17.41129 19.67445,-26.42626 1.05284,-2.1436 2.46434,-5.78081 3.95042,-10.1795 2.72773,-8.07389 3.41484,-9.84824 5.17241,-13.35739 2.80778,-5.60596 5.99612,-9.10683 10.89578,-11.96384 7.78253,-4.538 8.177,-4.80211 10.5626,-7.07195 4.09202,-3.89343 6.39975,-7.90884 11.36368,-19.77277 1.29891,-3.10444 2.9903,-7.14535 3.75861,-8.9798 2.87217,-6.85758 4.10669,-12.42511 4.36634,-19.69141 0.0845,-2.36361 0.22618,-4.29747 0.3149,-4.29747 0.34121,0 3.06345,2.99399 3.48553,3.83347 1.86903,3.71723 3.71532,13.37541 3.71532,19.43516 0,3.13169 0.59082,7.52648 1.66622,12.39399 1.51966,6.87847 1.68648,9.22336 1.03178,14.50363 -0.46244,3.72964 -1.10724,7.35284 -2.3013,12.93124 -0.4963,2.31864 -0.8412,4.27685 -0.76649,4.35159 0.19623,0.19622 6.60503,-3.03671 10.50414,-5.29883 6.52662,-3.7865 12.80208,-8.34569 15.6682,-11.38312 4.08881,-4.33319 6.92656,-10.11934 8.35152,-17.02875 0.47036,-2.28061 0.50944,-3.07982 0.35175,-7.19379 -0.14421,-3.76249 -0.0986,-5.0582 0.24379,-6.92728 0.58608,-3.19929 1.5044,-5.85629 2.98686,-8.64197 4.59807,-8.64011 5.48409,-12.63897 5.80011,-26.17686 0.0881,-3.77472 0.23924,-6.86313 0.33584,-6.86313 0.0966,0 1.39315,1.24853 2.88126,2.77453 2.33598,2.39542 2.8656,3.10526 3.87645,5.19545 3.11181,6.43439 3.86739,13.88444 2.71015,26.72196 -0.63461,7.04018 -0.55415,10.81742 0.29667,13.92725 1.04807,3.83076 1.28188,5.1268 1.43972,7.98086 0.32778,5.92738 -1.14955,12.95579 -4.76476,22.66857 -0.70697,1.89941 -1.23831,3.50059 -1.18077,3.55813 0.21816,0.21819 3.6759,-1.87626 5.64563,-3.41966 7.91443,-6.20147 14.91182,-17.52643 16.91588,-27.37758 0.54315,-2.6699 0.5068,-4.62783 -0.16402,-8.83681 -0.79569,-4.99251 -0.78948,-11.19837 0.0149,-14.93366 0.79248,-3.67979 2.08652,-7.42037 4.13625,-11.95619 2.77027,-6.13038 3.32645,-8.27606 5.02297,-19.37812 0.50643,-3.31416 0.97261,-6.07758 1.03593,-6.1409 0.19874,-0.19871 2.1894,1.85158 2.96864,3.05757 1.89738,2.93645 3.97752,12.39115 4.82647,21.93739 0.15057,1.69333 0.37661,5.79197 0.50227,9.10808 0.19974,5.27055 0.33523,6.54589 1.07671,10.13434 0.81765,3.95717 0.84843,4.32226 0.85439,10.13434 0.007,6.53619 -0.24959,8.8225 -1.65418,14.75661 -1.28009,5.40812 -3.22619,10.88846 -6.9145,19.47164 -0.72216,1.68053 -1.28021,3.15391 -1.24014,3.27416 0.14951,0.44853 5.81491,-4.11975 9.23521,-7.44679 5.09694,-4.95793 10.83385,-11.82368 14.5784,-17.44698 1.85648,-2.78794 3.01936,-5.42041 3.70817,-8.39439 1.85668,-8.01645 3.37884,-10.96097 9.8046,-18.96677 6.51433,-8.11617 11.8276,-13.73665 21.81878,-23.08049 l 1.60353,-1.49963 v 1.38602 c -0.003,2.59096 -0.52821,8.55924 -1.03231,11.70727 -1.48878,9.29691 -4.68158,18.1758 -9.68818,26.94181 -3.27816,5.7397 -3.52003,6.6128 -4.1617,15.02243 -1.17766,15.43429 -7.79639,25.85458 -28.31279,44.57476 l -4.0698,3.71348 0.99101,0.0836 c 2.1941,0.18511 10.34614,-1.03815 15.11821,-2.26858 6.81018,-1.75594 13.45728,-4.92686 17.94348,-8.55978 0.70556,-0.57134 3.70738,-3.41399 6.67071,-6.31698 7.74249,-7.58477 10.89883,-9.83852 20.68045,-14.76637 7.43679,-3.74661 9.71352,-5.36061 15.68773,-11.12118 l 2.50152,-2.41207 -0.004,3.05341 c -0.006,4.8796 -0.88911,7.58064 -3.97336,12.15354 -2.20336,3.26683 -4.65777,6.09051 -11.93805,13.73419 -9.55809,10.03521 -10.12903,10.79523 -12.91859,17.19706 -3.14714,7.22242 -3.94657,8.83378 -5.65309,11.39438 -2.25275,3.38023 -4.3296,5.56001 -7.68309,8.06384 -10.9122,8.14742 -21.96587,11.91311 -36.39094,12.39743 -9.13048,0.30654 -18.50562,-1.02162 -28.66305,-4.06067 -18.35707,-5.49232 -36.07195,-7.6327 -51.68546,-6.24485 -19.11457,1.69908 -35.11467,6.68404 -49.55988,15.44086 -12.07385,7.31925 -21.05555,15.61287 -30.41866,28.08829 -5.55359,7.39961 -8.86457,10.92641 -14.51615,15.46242 -6.16452,4.94769 -10.1867,7.37192 -22.2017,13.38133 -12.60381,6.30392 -17.25871,8.92672 -24.1613,13.61363 -3.7864,2.57107 -9.3132,6.64926 -10.4849,7.73669 l -0.7055,0.65488 v -1.55379 z m 22.99794,-24.98754 c 7.01481,-4.96539 12.37486,-8.29666 21.64452,-13.45207 10.48681,-5.83233 12.09214,-7.14725 20.35866,-16.67533 8.70048,-10.02825 13.06938,-14.77007 18.79703,-20.40143 12.07844,-11.87537 21.43773,-17.96557 34.13313,-22.21081 12.42168,-4.1537 25.6802,-5.63162 48.66712,-5.42498 15.42975,0.13873 20.04365,0.59675 30.17556,2.99564 11.08073,2.62351 16.57701,3.36452 26.18162,3.52983 6.42866,0.11063 7.82266,0.0602 11.53763,-0.41718 7.64345,-0.98226 13.70101,-2.66492 19.37853,-5.38285 9.35559,-4.47874 16.3597,-10.76742 21.38926,-19.2044 2.25724,-3.78647 2.48032,-3.89639 -6.2183,3.06365 -10.84796,8.67977 -17.43566,11.9215 -27.82721,13.69334 -3.16567,0.53977 -4.48457,0.62623 -9.49293,0.62218 -8.01173,-0.006 -11.60342,-0.55054 -18.69458,-2.83182 -3.27588,-1.05387 -6.75419,-2.48871 -6.74357,-2.78176 0.003,-0.0849 1.12878,-0.77878 2.50151,-1.54186 10.74972,-5.97541 17.33853,-10.66369 23.62747,-16.81218 8.32845,-8.14239 13.83789,-16.29656 18.64462,-27.59469 0.78886,-1.85422 1.39143,-3.49991 1.33904,-3.65708 -0.0524,-0.15718 -2.10004,2.13052 -4.55032,5.08379 -5.176,6.23852 -14.5475,15.77935 -18.86186,19.20266 -7.88831,6.25917 -16.75584,11.04194 -24.24545,13.07694 -2.79031,0.75815 -8.09929,1.95362 -8.6759,1.95362 -0.22092,0 0.32623,-0.74591 1.27034,-1.73182 3.09351,-3.23039 5.9809,-7.16949 9.26215,-12.63585 4.87346,-8.11892 7.66982,-15.37467 9.0475,-23.47576 0.60765,-3.57301 1.10141,-8.85151 0.82802,-8.85151 -0.0788,0 -1.19144,2.0253 -2.4725,4.5007 -4.06403,7.85288 -6.78544,12.34037 -10.44071,17.21627 -8.73868,11.65685 -19.5591,17.60551 -34.03253,18.70979 -1.50576,0.11489 -2.24495,0.0826 -2.24495,-0.0981 0,-0.14816 1.24385,-2.78843 2.76413,-5.86722 3.16946,-6.41863 5.04193,-10.72195 6.50512,-14.9501 2.17373,-6.28142 3.39719,-13.14057 3.25138,-18.22848 l -0.0772,-2.69394 -2.14276,4.29268 c -8.41404,16.85624 -15.23659,25.70472 -24.54007,31.82725 -5.89623,3.88025 -13.00952,6.32965 -20.61658,7.09917 -3.53602,0.35771 -9.52988,0.35542 -9.52988,-0.004 0,-0.14981 0.5225,-2.19913 1.16111,-4.55404 1.44083,-5.31309 3.03836,-13.21495 3.56288,-17.62303 0.8128,-6.83096 1.2369,-17.48069 0.67369,-16.91748 -0.13572,0.13572 -1.15806,2.26586 -2.27189,4.73364 -3.59543,7.96603 -5.53527,11.5824 -8.8062,16.41717 -2.68255,3.96507 -4.09117,5.47516 -9.41666,10.09501 -5.15735,4.47399 -7.6729,7.05828 -10.419,10.70377 -3.88553,5.1581 -5.78283,8.98672 -8.63728,17.4295 -3.93461,11.63769 -9.32537,20.22345 -18.82545,29.98306 -5.44014,5.58877 -10.3054,9.48241 -16.16564,12.93732 -10.42629,6.14685 -18.71531,12.95549 -25.21032,20.7079 -4.71506,5.62787 -9.41154,13.38565 -11.09107,18.32048 -0.82425,2.42172 -0.71875,2.6836 0.6099,1.5141 0.61912,-0.54497 2.84162,-2.20549 4.93889,-3.69001 z m -298.32874,-1.45619 c -2.7134,-2.78081 -4.0509,-5.06273 -5.5173,-9.41285 -1.1637,-3.45225 -1.592,-5.89796 -1.8868,-10.77414 -0.1371,-2.26743 -0.3745,-4.81533 -0.5277,-5.662 -0.8255,-4.56453 -2.6795,-10.39319 -4.3951,-13.81731 -0.6968,-1.39064 -1.2052,-2.59014 -1.1297,-2.66557 0.2013,-0.20127 3.8491,1.13828 5.9238,2.17537 2.6465,1.32288 4.6238,2.81956 6.9273,5.24354 2.2552,2.37318 3.4394,4.18889 4.4486,6.82118 0.5918,1.54355 0.6626,2.08855 0.6583,5.06502 0,3.05608 -0.075,3.55017 -0.8372,5.90101 -1.2409,3.82562 -1.5725,6.5953 -1.5743,13.14898 0,3.13973 -0.091,5.70859 -0.2008,5.70859 -0.1096,0 -0.9597,-0.77932 -1.8891,-1.73182 z m 18.697,-46.05353 c -1.9178,-2.27759 -4.7514,-5.93501 -9.9885,-12.89242 -6.326,-8.40409 -9.5708,-12.26995 -13.5804,-16.18001 -5.1886,-5.0597 -8.5729,-7.53967 -16.3339,-11.96902 -14.4895,-8.26954 -26.198,-16.86128 -39.4361,-28.93816 -5.0467,-4.60405 -15.0377,-14.8022 -18.9759,-19.36937 -4.6955,-5.44538 -9.6089,-10.29203 -12.0685,-11.9045 -2.7306,-1.79011 -7.1568,-3.94118 -10.0184,-4.86877 -8.0907,-2.62261 -18.8413,-3.65059 -28.7664,-2.75064 -7.95,0.72088 -13.4487,1.81428 -32.4122,6.44511 -25.0306,6.1124 -34.2151,7.88078 -47.3197,9.11093 -6.4279,0.60342 -10.1555,0.63564 -14.0505,0.12146 -10.0264,-1.32355 -18.7874,-5.21483 -31.1217,-13.82294 -23.3631,-16.30513 -33.7149,-25.81199 -42.6554,-39.17395 -2.2423,-3.35126 -4.2523,-7.10736 -4.7883,-8.94822 -0.2232,-0.76644 -0.4058,-2.082 -0.4058,-2.92343 v -1.52993 l 3.2712,3.18134 c 5.5809,5.42749 10.4173,9.02125 15.8779,11.79824 3.3621,1.70981 6.1087,2.64538 11.9327,4.06462 9.03,2.20049 14.1522,4.55686 20.3596,9.36611 5.7118,4.42519 16.1176,6.82549 24.9073,5.7453 l 2.4279,-0.29836 -0.5827,-0.63013 c -0.3205,-0.34657 -3.1228,-2.83007 -6.2272,-5.5189 -6.6761,-5.78235 -15.3561,-14.36211 -18.353,-18.14112 -8.1308,-10.25277 -12.4559,-20.40274 -14.3624,-33.70557 -0.6396,-4.46262 -1.2064,-6.81694 -2.3057,-9.57656 -1.1583,-2.90805 -2.4565,-4.98744 -6.6052,-10.58003 -5.7874,-7.80177 -6.2134,-8.92525 -6.2194,-16.40409 0,-4.18255 0.04,-4.67739 0.385,-4.39107 0.2139,0.1775 1.5659,1.89053 3.0047,3.80677 4.5796,6.0997 8.037,9.34389 15.3529,14.40611 6.0621,4.19462 11.8285,9.2653 15.3534,13.50107 3.2739,3.93413 4.3454,6.01149 6.5598,12.71699 2.1276,6.44282 2.8934,8.30657 4.3631,10.6192 1.7751,2.79308 9.7004,10.43681 14.0096,13.5118 2.0298,1.44836 5.1138,3.27316 5.5319,3.27316 0.1666,0 -0.6298,-1.5875 -1.7696,-3.52778 -2.4381,-4.1502 -5.3988,-10.21293 -6.6943,-13.70797 -3.9625,-10.69011 -5.7222,-31.48589 -4.1512,-49.05614 0.8629,-9.64974 2.187,-14.80928 5.4893,-21.38942 1.3338,-2.65771 1.8283,-3.18647 1.8283,-1.95513 0,1.00879 1.1819,6.16435 2.3452,10.22937 1.9351,6.76246 4.6386,13.09422 9.3115,21.80808 2.5801,4.8114 3.1192,6.95362 2.8082,11.16061 -0.1199,1.62278 -0.2089,4.39369 -0.1976,6.15757 0.018,2.88886 0.1031,3.46164 0.8538,5.77273 1.0489,3.22914 3.1253,7.52766 5.0812,10.51919 4.2903,6.56205 11.3926,13.67028 16.0624,16.07587 0.5429,0.27963 1.0358,0.45958 1.0955,0.39988 0.06,-0.0597 -0.6377,-3.04069 -1.5497,-6.62445 -2.9106,-11.43659 -3.3733,-17.17207 -1.9418,-24.0685 0.9996,-4.81574 0.9983,-6.65015 -0.01,-9.9168 -0.4262,-1.38453 -0.9023,-3.33258 -1.0581,-4.32903 -0.3587,-2.29436 -0.1327,-9.13574 0.4159,-12.58747 0.8218,-5.17136 2.7256,-12.52043 4.0376,-15.58636 0.5029,-1.17523 0.9714,-1.59425 0.9714,-0.86879 0,0.68478 3.1582,10.10792 4.7411,14.14606 2.1588,5.50749 4.8045,11.19108 6.8074,14.62424 2.7392,4.69525 4.0717,7.41418 4.4779,9.13712 0.841,3.56768 0.2797,7.92639 -1.5775,12.25042 l -0.9233,2.14964 0.5765,1.18797 c 1.5928,3.28179 6.12,9.16945 10.6455,13.84452 7.9474,8.21015 16.4397,14.00722 24.4296,16.67638 2.3621,0.78909 6.408,1.58324 8.0661,1.58324 h 0.9649 l -0.7356,-1.62237 c -1.6892,-3.72548 -2.6108,-7.55855 -3.0643,-12.74531 -1.1124,-12.72134 -1.0191,-12.47168 -7.0249,-18.77906 -7.1822,-7.54272 -10.4226,-11.69324 -12.2143,-15.64463 -0.8085,-1.78313 -1.7963,-5.96192 -1.4833,-6.27493 0.1024,-0.10239 0.5025,0.11086 0.8891,0.47393 2.5069,2.35432 14.0506,9.23698 17.1231,10.20921 3.1204,0.98739 6.5041,3.27331 9.3393,6.3092 2.3083,2.47168 3.7289,4.62114 5.5821,8.44584 1.2173,2.51226 1.7876,3.3694 3.1597,4.7489 1.8477,1.85748 3.6075,3.08997 6.5896,4.61505 1.901,0.97218 3.5293,1.55427 9.3153,3.33007 11.6006,3.56038 22.7812,12.58726 27.0595,21.8471 0.9106,1.97099 1.4874,3.85359 2.5708,8.39211 0.7808,3.27034 2.7646,7.4725 5.0438,10.68378 2.303,3.24483 7.3486,8.19655 12.0298,11.80604 12.1374,9.3586 31.5456,31.82648 45.3351,52.48202 13.3027,19.92638 21.044,37.19512 23.3038,51.98435 0.4055,2.65428 0.8182,9.8296 0.5653,9.8296 -0.082,0 -0.6588,-0.60614 -1.2826,-1.34697 z m -19.6874,-40.97122 c 0,-0.13278 -0.1093,-0.30901 -0.2429,-0.3916 -0.1337,-0.0826 -1.7699,-2.36964 -3.6359,-5.08233 -13.8854,-20.18464 -24.5069,-33.81366 -33.708,-43.25243 -4.0213,-4.12509 -6.1397,-5.98796 -11.413,-10.03626 -3.5573,-2.73093 -10.3831,-9.24585 -13.9699,-13.33374 -7.8669,-8.96587 -13.6921,-18.19428 -16.0855,-25.48292 -1.5721,-4.78744 -2.6456,-6.64515 -5.7183,-9.89492 -4.098,-4.33413 -8.8246,-7.08395 -15.0806,-8.77346 -1.5952,-0.4308 -3.8354,-1.24371 -4.9783,-1.80643 -2.0921,-1.03014 -3.1098,-1.95793 -7.5604,-6.89238 -1.0045,-1.11378 -1.3063,-1.29897 -2.1166,-1.29897 -2.0802,0 -2.4087,1.4096 -1.3455,5.77273 1.1512,4.72435 2.8517,8.1809 6.2177,12.63871 1.9975,2.64532 3.0155,3.6823 9.9405,10.12595 l 1.3038,1.21317 -6.9273,0.004 c -9.7775,0.006 -16.4693,-0.62966 -23.217,-2.20536 -11.9538,-2.79143 -23.5725,-9.39014 -32.0759,-18.21713 -5.1858,-5.38306 -8.483,-10.80632 -12.3033,-20.23633 -1.4774,-3.6466 -2.2408,-5.2596 -2.4892,-5.2596 -0.2957,0 0.1396,9.58539 0.5593,12.31515 0.4936,3.21077 1.4161,6.9744 2.34,9.54735 2.4085,6.70703 7.8006,13.64608 16.5044,21.23932 1.3114,1.14405 1.7783,1.6919 1.4895,1.74752 -0.8732,0.16815 -8.6531,-0.98703 -11.4855,-1.70542 -12.2837,-3.11555 -22.7046,-10.26993 -32.2162,-22.1177 -4.287,-5.3399 -7.0394,-9.8484 -12.5123,-20.49503 -1.557,-3.02875 -2.8787,-5.36322 -2.9372,-5.1877 -0.213,0.63897 0.4931,6.41773 1.2355,10.11192 2.0312,10.10666 5.6017,17.49177 12.3736,25.59288 4.7738,5.71082 10.2422,10.35704 19.181,16.29697 3.0368,2.01799 5.75,3.92323 6.0293,4.2339 l 0.5079,0.56483 -5.6445,-0.13424 c -4.3631,-0.10375 -6.1977,-0.25476 -8.0818,-0.66522 -14.3607,-3.12856 -34.2795,-14.00584 -45.9021,-25.06626 -2.6176,-2.49099 -6.4922,-6.77146 -10.4152,-11.50614 -1.3942,-1.68256 -2.5732,-2.94399 -2.6201,-2.80319 -0.1188,0.3565 1.7263,4.72376 3.4387,8.13901 3.7303,7.43989 7.399,12.53461 13.6695,18.98293 8.1213,8.35147 16.1653,14.26474 26.7571,19.6696 l 5.3248,2.71721 -0.7066,0.66287 c -2.3476,2.20223 -9.5932,4.37531 -17.3834,5.21362 -8.8085,0.9479 -14.8407,0.7066 -22.9641,-0.91859 -9.643,-1.92919 -15.6318,-4.3759 -30.9351,-12.6385 -2.269,-1.22507 -4.217,-2.2274 -4.3289,-2.2274 -0.4135,0 0.575,0.91894 3.4513,3.20846 11.7183,9.3277 27.0869,18.41161 39.7344,23.48584 4.6599,1.86952 8.6401,2.55044 14.9217,2.55267 8.9326,0.003 17.7143,-1.73749 28.856,-5.71972 21.8579,-7.81237 43.1155,-11.72502 63.7035,-11.72518 19.4469,-1.5e-4 31.8456,4.00327 45.0803,14.55605 2.0575,1.64051 6.8238,6.22185 14.3677,13.80988 12.0483,12.11885 16.9775,16.90175 23.4152,22.72053 13.9756,12.63177 24.4907,20.55088 33.6127,25.31425 4.312,2.25165 6.9852,3.26069 6.9852,2.6366 z m 579.35625,-101.23532 c -1.13679,-2.70823 -1.57528,-4.51168 -1.74539,-7.1788 -0.30146,-4.72666 1.11478,-10.48943 3.98501,-16.21516 2.62564,-5.23781 4.25406,-11.10737 4.95292,-17.85237 l 0.31321,-3.02309 1.48644,1.47091 c 2.54308,2.51655 3.93503,5.69184 4.8445,11.05121 0.45394,2.67501 0.53199,3.9303 0.42687,6.86547 -0.0746,2.08331 -0.30241,4.23846 -0.54237,5.13131 -0.75074,2.793 -2.53569,5.96831 -5.33631,9.49293 -4.48569,5.64534 -6.27437,8.49247 -6.89061,10.96818 -0.16685,0.67028 -0.38908,1.21869 -0.49389,1.21869 -0.10478,0 -0.55495,-0.86817 -1.00038,-1.92928 z m -63.91583,-56.4578 c -17.09636,-2.1929 -32.46649,-11.02168 -42.63259,-24.48868 -14.75586,-19.54704 -18.15856,-46.52554 -9.78814,-77.60605 1.31098,-4.86785 3.44245,-11.07745 5.85645,-17.06162 2.7022,-6.69862 4.13632,-9.76245 5.6682,-12.10933 l 1.22289,-1.87349 0.34958,1.28282 c 1.0083,3.70004 2.34403,5.97077 5.20053,8.84095 5.78489,5.81254 11.17705,6.4597 15.43897,1.85297 1.74013,-1.88094 2.83825,-4.01931 3.58122,-6.97371 0.47949,-1.90665 0.52947,-2.63239 0.39752,-5.77273 -0.083,-1.97556 -0.44371,-5.49692 -0.80154,-7.82525 -1.20601,-7.84714 -1.49821,-10.76971 -1.33383,-13.34142 0.25502,-3.98952 0.99904,-6.96765 2.49466,-9.98561 1.15622,-2.33303 1.65575,-3.011 3.92287,-5.3243 2.90142,-2.96049 3.56023,-3.23183 4.94799,-2.03813 0.69668,0.59926 0.71459,0.68575 0.89075,4.29747 0.46728,9.58109 3.57206,14.56711 9.0816,14.58432 1.53339,0.005 2.07084,-0.12446 3.59192,-0.86393 3.54563,-1.72366 5.61296,-4.64161 6.94192,-9.79814 0.62556,-2.42732 0.65039,-2.78943 0.53553,-7.80501 -0.16838,-7.35302 -0.94206,-10.40299 -5.0438,-19.88384 -5.40958,-12.50388 -6.22602,-14.48336 -7.30278,-17.7061 -1.81985,-5.44679 -2.25932,-7.94612 -2.38855,-13.58462 -0.21772,-9.49962 1.56367,-17.82933 5.54395,-25.92341 2.73042,-5.55239 6.20404,-10.41844 10.16477,-14.2394 l 1.46273,-1.41111 -0.14624,2.43738 c -0.0805,1.34055 -0.21811,5.0351 -0.3059,8.2101 -0.36692,13.27029 1.89343,23.00077 7.27109,31.301 2.70202,4.1705 5.10045,6.85934 15.33308,17.1899 12.24031,12.35741 14.63384,15.33642 17.34538,21.58815 3.50823,8.08867 3.65126,16.73378 0.43947,26.56104 -1.12722,3.44898 -4.28957,10.10376 -6.92894,14.58111 -2.885,4.89402 -3.55236,7.14787 -3.73431,12.61169 -0.18186,5.46197 0.64608,9.60228 2.70887,13.54613 1.40116,2.67882 4.88999,6.21599 7.42722,7.53007 3.47749,1.80104 6.00397,2.26145 7.95579,1.44978 1.5055,-0.62608 3.32545,-2.59399 4.44744,-4.80899 0.55677,-1.09921 1.11662,-1.93412 1.24408,-1.85536 0.6768,0.41828 3.06129,7.89766 3.96884,12.4489 1.75771,8.81467 2.26417,16.6126 2.12732,32.75438 -0.11353,13.38685 -0.23176,15.07461 -1.4798,21.12441 -1.90064,9.21316 -6.94007,18.41602 -15.68709,28.6474 -3.46743,4.05584 -8.75569,8.54463 -13.20312,11.20712 -6.09192,3.64697 -14.56929,6.50491 -22.53511,7.59716 -7.59794,1.04181 -18.79721,1.3355 -24.25089,0.63598 z m 14.38635,-14.73506 c 12.12327,-1.77989 24.31242,-7.89562 34.11387,-17.11613 4.90348,-4.61285 10.59208,-12.86595 11.89635,-17.25938 1.56618,-5.27565 1.59204,-23.16931 0.0449,-31.06661 -1.00638,-5.137 -3.56841,-10.02099 -8.45117,-16.11034 -3.27588,-4.0854 -5.20979,-6.09357 -10.27971,-10.67434 -2.69137,-2.43173 -5.44992,-5.01942 -6.13005,-5.75043 -2.29305,-2.46454 -3.1946,-5.51691 -3.43189,-11.61937 -0.28472,-7.32182 1.09427,-13.96561 4.40446,-21.22019 4.08409,-8.95057 4.92603,-17.26378 2.80721,-27.71747 -1.73864,-8.57802 -6.24155,-18.81383 -11.46592,-26.06379 -3.06101,-4.2478 -7.62572,-9.38237 -7.62572,-8.57771 0,0.20785 0.23268,1.21753 0.51703,2.24372 6.17346,22.27762 7.697,39.55254 4.61418,52.31892 -3.19596,13.23501 -11.60367,24.93764 -23.81917,33.15367 -1.31785,0.88638 -5.10247,3.03365 -8.41032,4.77176 -7.80363,4.10043 -10.62033,5.80736 -15.05633,9.12416 -6.07006,4.53865 -11.39487,10.44843 -14.48174,16.07266 -9.38279,17.09533 -6.28499,42.10866 7.21132,58.22845 7.03292,8.40003 17.11831,14.3074 28.38665,16.62707 6.07393,1.25034 9.88039,1.40993 15.15605,0.63535 z m -837.34337,-29.69654 c -2.1294,-3.91517 -4.4516,-7.80222 -6.6764,-11.17518 -4.3539,-6.60087 -5.7317,-9.87529 -6.5321,-15.52405 -0.3916,-2.76316 -0.176,-10.20346 0.3842,-13.26087 1.3016,-7.10405 3.4004,-14.42312 5.0413,-17.58027 0.6502,-1.25106 1.5901,-2.51175 2.6725,-3.5845 l 1.6696,-1.65475 10e-4,7.30471 c 0,14.21369 0.9823,21.24371 4.4581,31.97298 0.7703,2.378 1.5831,5.2889 1.8061,6.46866 0.5257,2.78079 0.5312,8.31319 0.011,10.55498 -0.4456,1.91868 -2.1549,7.18384 -2.3322,7.18384 -0.065,0 -0.2917,-0.3175 -0.5028,-0.70555 z m 138.2145,-27.88225 c -0.7322,-3.03743 -1.7704,-5.06155 -5.395,-10.51875 -3.3271,-5.00937 -4.0986,-6.45109 -5.1975,-9.71212 -2.3865,-7.08165 -0.4647,-13.30629 6.3916,-20.70251 l 1.7763,-1.91616 0.1751,2.30101 c 0.2812,3.69652 1.4035,10.3897 2.2445,13.38569 0.4277,1.52341 1.3519,4.12661 2.054,5.78489 1.6948,4.00343 2.2964,6.40155 2.4618,9.81323 0.1556,3.20945 -0.2842,6.14151 -1.3782,9.18813 -0.785,2.18617 -2.062,4.7947 -2.3473,4.7947 -0.1113,0 -0.4647,-1.08815 -0.7853,-2.41811 z m -53.9812,-27.15414 c -5.9459,-3.33225 -14.4024,-12.31823 -20.2236,-21.48983 -11.9197,-18.78002 -17.16,-44.67188 -13.4218,-66.3167 0.2193,-1.27 1.0358,-4.79137 1.8144,-7.82526 0.7786,-3.03389 2.051,-7.99843 2.8275,-11.03232 2.0488,-8.00421 2.1064,-10.90399 0.2875,-14.4694 -0.786,-1.54068 -3.001,-3.74794 -4.438,-4.42243 -1.7756,-0.83342 -3.2106,-0.78716 -5.231,0.16865 -2.008,0.94993 -4.9891,3.76471 -7.466,7.04944 -0.9577,1.27 -1.9852,2.52902 -2.2832,2.79785 -0.5382,0.48527 -0.542,0.48394 -0.542,-0.18701 0,-1.13494 -1.9945,-8.50992 -3.5855,-13.25831 -1.4279,-4.26132 -3.3057,-9.11024 -7.452,-19.24242 -5.0862,-12.42915 -7.0727,-20.33155 -8.078,-32.13482 -0.4817,-5.6553 -0.4803,-9.08635 0.01,-13.49022 0.9021,-8.17809 2.7937,-14.78614 6.1818,-21.59516 3.3754,-6.7836 7.6569,-12.73813 12.4522,-17.31818 11.3381,-10.82905 24.9851,-17.32334 40.9581,-19.49096 4.3833,-0.59482 12.8397,-0.52827 17.3735,0.13678 15.3872,2.25698 28.0264,8.76695 39.134,20.15641 20.3025,20.81779 24.4107,50.83663 10.7046,78.21999 -4.5672,9.1248 -10.0699,16.64025 -19.0797,26.05875 -3.7377,3.90716 -5.0073,5.8391 -8.5879,13.06751 l -2.9866,6.02929 -2.5069,-3.84243 c -5.0979,-7.8135 -7.8232,-9.3581 -12.6723,-7.18199 -3.4808,1.5621 -5.4182,5.13336 -5.4145,9.98058 0,3.31722 0.7222,6.0334 2.6898,10.15192 0.9101,1.905 1.9696,4.61818 2.3544,6.02929 0.647,2.37228 0.7008,2.94273 0.7132,7.56869 0.012,4.6113 -0.041,5.21541 -0.6761,7.71577 -1.4546,5.72121 -2.5298,8.27289 -8.209,19.48019 -4.2696,8.42577 -5.5709,11.62173 -6.8923,16.92758 -2.7909,11.20599 -1.7904,24.42985 2.863,37.842 0.8309,2.39491 1.5108,4.44423 1.5108,4.55404 0,0.38315 -0.6522,0.18747 -2.1238,-0.63729 z m -13.2494,-39.18735 c 1.495,-12.67826 3.7808,-20.74866 9.2099,-32.5181 2.25,-4.8777 2.5805,-8.34362 1.9559,-20.5134 -0.5304,-10.33397 -0.5182,-12.14479 0.1117,-16.63187 0.8636,-6.15093 2.3235,-10.39214 4.9063,-14.25353 2.6543,-3.96812 6.1851,-6.85445 13.1722,-10.76785 7.6113,-4.26299 13.6372,-8.66486 18.9485,-13.84161 5.7692,-5.6231 9.4034,-10.48538 12.3723,-16.55321 5.6711,-11.5903 6.7563,-24.37915 3.0341,-35.75594 -2.4452,-7.47378 -6.7097,-14.26345 -13.0358,-20.75492 -5.0941,-5.22717 -9.6786,-8.55082 -16.4444,-11.92151 -11.1036,-5.53183 -21.8104,-6.67417 -34.3798,-3.66804 -6.1621,1.47374 -11.9116,3.99363 -17.3349,7.59755 -2.5247,1.67776 -3.9678,2.90048 -6.9173,5.86086 -4.2726,4.28831 -6.4054,7.15174 -8.847,11.8774 -3.085,5.97087 -4.8698,11.80035 -5.7794,18.87671 -0.6076,4.72681 -0.6389,8.30703 -0.1062,12.12668 1.006,7.21219 3.5433,13.65201 8.0818,20.5115 3.0454,4.60289 5.4276,7.52576 13.1279,16.10763 4.0038,4.46213 5.3288,6.1273 6.8323,8.58591 2.9092,4.75755 4.7535,9.68931 5.685,15.20242 0.4962,2.93621 0.5493,3.99544 0.4435,8.85151 -0.1074,4.93004 -0.2184,6.04777 -1.0448,10.51919 -2.0704,11.20191 -3.2489,24.29495 -3.2489,36.09376 0,8.91073 0.9245,14.92257 3.3462,21.75984 1.0364,2.92613 3.6796,8.24456 4.5691,9.19385 l 0.6796,0.72524 0.066,-1.11008 c 0.037,-0.61055 0.3047,-3.13054 0.5958,-5.59999 z m -35.9601,-6.8514 c -2.0133,-2.09958 -2.7009,-3.03658 -3.8035,-5.18314 -2.4937,-4.85484 -4.4129,-10.99225 -5.2821,-16.89154 -0.9322,-6.32721 -0.4024,-8.99055 3.6621,-18.41028 1.6729,-3.87683 3.4937,-8.81392 4.4238,-11.99444 0.3198,-1.09361 0.6609,-1.98838 0.7581,-1.98838 0.2845,0 2.232,4.33005 2.8271,6.28585 0.997,3.27655 1.5372,8.00919 1.5385,13.47737 0,5.61645 -0.3851,9.40144 -1.571,15.38627 -1.0908,5.50536 -1.1932,8.50097 -0.4955,14.5074 0.3106,2.6748 0.5277,5.42816 0.4824,6.11855 l -0.082,1.25525 z m 772.83171,-73.73653 c -0.8032,-5.58728 -1.48403,-8.28797 -3.87411,-15.36762 -1.46761,-4.34714 -2.18245,-6.91511 -2.56227,-9.20436 -2.21455,-13.34822 2.82974,-26.46547 11.97674,-31.14448 2.29408,-1.17348 4.87418,-2.13878 5.10357,-1.90939 0.0701,0.07 -0.50125,1.38081 -1.26956,2.91279 -1.62275,3.2357 -3.25181,8.13293 -3.8901,11.69437 -0.72059,4.02084 -0.44296,11.69954 0.65188,18.02986 0.74199,4.28993 0.84436,5.44417 0.85329,9.62121 0.0192,8.94452 -1.56479,14.79089 -4.88268,18.02233 l -1.51325,1.47387 z m 38.5446,-80.34515 c -2.65273,-2.73039 -3.45099,-4.23808 -4.22207,-7.97436 -0.61309,-2.9708 -0.60716,-4.73251 0.0368,-10.94507 1.07916,-10.41172 0.96125,-15.65017 -0.45323,-20.13432 -1.37224,-4.3503 -5.48552,-11.1146 -9.01353,-14.82275 l -0.91538,-0.96212 h 3.85952 c 3.01126,0 4.30553,0.11274 5.88893,0.51295 3.89297,0.98393 7.44543,3.20805 9.73638,6.09572 1.828,2.30411 3.64559,6.18908 4.23023,9.04183 1.07526,5.2467 0.48734,8.38285 -2.81109,14.99539 -1.27074,2.54755 -2.54729,5.35633 -2.83677,6.24176 -1.4244,4.35689 -1.79991,8.93644 -1.28711,15.69733 0.18283,2.41069 0.27809,4.43743 0.21167,4.50385 -0.0664,0.0664 -1.15737,-0.94616 -2.42432,-2.25021 z m -351.71881,-187.24454 c -17.3156,-2.66214 -31.767,-11.70338 -46.9579,-29.37819 -4.9612,-5.77239 -6.487,-7.23039 -8.7169,-8.32909 -2.0612,-1.0157 -3.3107,-1.1368 -6.7436,-0.6538 -1.626,0.2288 -4.6229,0.4074 -6.8361,0.4074 -3.285,0 -4.2337,-0.09 -5.6998,-0.542 -2.132,-0.6571 -3.3948,-1.279 -4.0355,-1.9875 -0.4749,-0.5251 -0.4659,-0.5481 0.7383,-1.8874 1.7341,-1.9286 3.3477,-4.2549 4.1658,-6.0056 0.5783,-1.2375 0.7021,-1.8527 0.6912,-3.432 -0.021,-3.0748 -0.7172,-4.5349 -3.4399,-7.2186 -2.6517,-2.6136 -4.5119,-3.6185 -8.0501,-4.3487 -7.6743,-1.5838 -17.6796,0.3669 -31.1542,6.0741 -10.8121,4.5794 -18.2275,6.2595 -27.6381,6.2616 -8.312,0 -14.8218,-1.425 -23.0909,-5.0615 -4.0165,-1.7663 -9.6365,-2.8908 -14.4483,-2.8908 -5.9312,0 -15.3165,1.8438 -19.0891,3.7501 -1.4994,0.7577 -1.741,0.7625 -1.7378,0.034 0.01,-1.2121 1.2063,-3.1471 2.9861,-4.8106 2.908,-2.7181 6.315,-4.4269 11.6356,-5.8359 1.9646,-0.5203 3.2506,-0.6698 6.6297,-0.7708 4.6627,-0.1395 7.5199,0.1079 14.5369,1.2587 6.4562,1.0589 9.9506,1.1892 13.8546,0.517 4.5769,-0.7881 7.2495,-1.6602 11.1442,-3.6364 6.3988,-3.2468 10.6018,-6.7835 17.0733,-14.367 1.8665,-2.1872 4.4846,-5.0158 5.8178,-6.2858 5.9393,-5.6574 13.5921,-9.6949 21.1354,-11.1506 3.7727,-0.7281 9.8071,-0.7281 13.5798,0 2.8356,0.5472 7.1111,1.9245 9.1036,2.9327 1.8721,0.9472 5.3898,2.1083 8.126,2.6822 8.0069,1.6793 16.0961,1.6845 21.4856,0.014 1.5654,-0.4852 2.0098,-0.7859 4.0075,-2.7117 2.4388,-2.3511 3.4477,-3.9468 4.3411,-6.8666 1.7826,-5.8255 -1.2057,-11.7463 -7.9131,-15.6786 l -2.1266,-1.2467 0.725,-0.3799 c 1.6977,-0.8895 9.0655,-3.697 13.4978,-5.1432 13.892,-4.533 27.3962,-6.7056 41.6943,-6.7079 8.293,0 13.8057,0.7117 20.2092,2.6139 17.673,5.2499 32.0243,17.6011 40.752,35.0725 3.9442,7.8957 6.2371,15.5695 7.1162,23.8171 0.3912,3.6704 0.1797,12.3501 -0.3893,15.9783 -2.2808,14.5414 -7.973,26.37505 -17.3238,36.01509 -10.3692,10.68987 -23.462,17.19004 -39.6439,19.682 -5.3302,0.82084 -15.3735,0.92934 -20.0121,0.21619 z m 12.7077,-13.9739 c 11.2464,-1.38488 21.6529,-5.95303 30.8516,-13.54299 8.3318,-6.87469 14.5396,-16.38029 16.9546,-25.96129 1.4364,-5.699 1.7236,-10.1722 1.0505,-16.3648 -1.2537,-11.5343 -5.079,-21.2495 -11.2847,-28.6602 -2.0127,-2.4034 -6.1696,-6.4568 -8.203,-7.9986 -11.4672,-8.695 -28.0794,-13.3297 -40.2933,-11.2416 -12.713,2.1733 -24.085,10.6513 -35.2106,26.2501 -3.2526,4.5602 -5.5341,6.3722 -10.0607,7.9905 -4.1345,1.478 -10.1609,2.4503 -15.1297,2.441 -3.3028,-0.01 -8.7185,-0.5416 -13.3491,-1.3198 -2.9963,-0.5035 -4.3982,-0.5829 -10.3909,-0.5882 -6.1537,-0.01 -7.2997,0.061 -10.2626,0.5931 -8.5091,1.529 -15.0444,4.3942 -19.4637,8.5329 l -2.0857,1.9534 12.5706,-0.1275 c 13.321,-0.1351 17.6401,0.044 23.9879,0.9955 7.0089,1.0504 12.6319,2.7117 18.1615,5.3659 5.4823,2.6315 9.3298,5.4311 13.7965,10.039 2.9169,3.0091 3.7678,4.1404 8.3865,11.1511 9.0143,13.68279 17.0633,21.52934 27.2516,26.56634 7.4094,3.66314 14.6702,4.91771 22.7227,3.92614 z m -157.7551,-79.59038 c 2.4178,-2.5451 4.5597,-6.1452 6.375,-10.715 1.7507,-4.4071 3.8213,-7.6951 5.9386,-9.4301 3.9998,-3.2775 8.9569,-4.8071 15.57,-4.8045 7.6044,0 15.2709,1.849 17.4686,4.2062 l 0.622,0.6672 h -1.054 c -1.5939,0 -7.2747,1.2126 -10.4526,2.2312 -4.6574,1.4929 -8.1,3.4273 -13.2131,7.4248 -8.4601,6.6141 -14.3116,10.0048 -19.4234,11.2551 -1.44,0.3522 -2.7564,0.6404 -2.9254,0.6404 -0.1689,0 0.3235,-0.6639 1.0943,-1.4753 z"
       id="path547" /></g></svg>
