<?xml version="1.0" encoding="UTF-8" standalone="no"?>
<!-- Created with Inkscape (http://www.inkscape.org/) -->

<svg
   width="1282.8282mm"
   height="1282.8282mm"
   viewBox="0 0 1282.8282 1282.8282"
   version="1.1"
   id="svg241"
   xml:space="preserve"
   inkscape:version="1.2.2 (732a01da63, 2022-12-09)"
   sodipodi:docname="Shangri La.svg"
   xmlns:inkscape="http://www.inkscape.org/namespaces/inkscape"
   xmlns:sodipodi="http://sodipodi.sourceforge.net/DTD/sodipodi-0.dtd"
   xmlns="http://www.w3.org/2000/svg"
   xmlns:svg="http://www.w3.org/2000/svg"><sodipodi:namedview
     id="namedview243"
     pagecolor="#505050"
     bordercolor="#eeeeee"
     borderopacity="1"
     inkscape:showpageshadow="0"
     inkscape:pageopacity="0"
     inkscape:pagecheckerboard="0"
     inkscape:deskcolor="#505050"
     inkscape:document-units="mm"
     showgrid="false"
     inkscape:zoom="0.13055262"
     inkscape:cx="3849.0229"
     inkscape:cy="2305.5838"
     inkscape:window-width="1920"
     inkscape:window-height="1009"
     inkscape:window-x="-8"
     inkscape:window-y="-8"
     inkscape:window-maximized="1"
     inkscape:current-layer="layer1" /><defs
     id="defs238" /><g
     inkscape:label="Layer 1"
     inkscape:groupmode="layer"
     id="layer1"
     transform="translate(1900.0687,1127.7625)"><path
       style="fill:#000000;stroke-width:0.256566"
       d="m -1462.1727,76.156936 c -2.9207,-0.707916 -4.765,-2.174573 -5.9501,-4.731635 -1.213,-2.617251 -0.7118,-7.11105 1.2201,-10.938855 0.4888,-0.968613 3.4321,-5.184756 6.5406,-9.369187 l 5.6517,-7.608044 -0.6648,-1.628319 c -0.8679,-2.125801 -1.0704,-5.17711 -0.4785,-7.21301 0.5883,-2.023841 2.6539,-4.972986 5.0277,-7.178245 l 2.0292,-1.885218 -2.0204,-1.848171 c -4.4279,-4.05035 -5.6697,-8.403346 -3.6366,-12.747977 1.141,-2.4383227 3.0516,-4.2830553 8.625,-8.3279666 12.7604,-9.2608907 26.6349,-21.0284024 32.9024,-27.9059004 l 2.105,-2.309861 -0.7296,-0.698987 c -0.9949,-0.953167 -2.3323,-3.946698 -2.4983,-5.591848 -0.1048,-1.038681 0.4352,-4.438842 2.3334,-14.692847 2.6994,-14.581626 2.9031,-15.467317 4.0577,-17.643583 2.4971,-4.706671 8.1879,-6.12217 13.3597,-3.32309 1.8193,0.984622 4.1334,3.608801 6.5604,7.439275 1.1824,1.866181 2.2886,3.393055 2.4582,3.393055 0.5616,0 3.892,-3.684642 5.3441,-5.912735 3.0145,-4.625134 4.9576,-10.166465 6.8644,-19.576317 1.217,-6.005561 2.018,-7.844931 4.3607,-10.013886 1.2547,-1.161601 1.8932,-1.538419 3.3641,-1.985176 2.7863,-0.846333 6.2471,-0.516877 9.4845,0.902854 0.3804,0.166819 0.4055,-0.653601 0.2954,-9.645992 -0.1074,-8.77191 -0.064,-10.31453 0.407,-14.35144 0.8753,-7.50919 2.1883,-12.7743 4.159,-16.67836 1.1152,-2.20915 3.5288,-4.66954 5.5069,-5.6136 1.522,-0.72639 1.5942,-0.80605 2.256,-2.48989 0.79,-2.00994 2.5374,-4.35505 4.0751,-5.46898 4.3942,-3.18314 11.5764,-1.23988 14.2994,3.86888 1.1146,2.09132 1.2425,2.61158 1.6965,6.90605 0.7624,7.21101 2.5039,13.1237 5.8781,19.95691 1.965,3.97951 5.1432,9.25591 5.4127,8.98634 0.064,-0.0639 -0.053,-1.60651 -0.2608,-3.42815 -0.8756,-7.69294 -1.4143,-18.61746 -1.4194,-28.78703 0,-7.71726 -0.2525,-9.53315 -1.7275,-12.61905 -1.0078,-2.10866 -1.8108,-2.95535 -12.9005,-13.60396 -8.7092,-8.36265 -14.3891,-15.04593 -18.3786,-21.6253 -6.344,-10.46228 -7.5207,-19.64933 -4.9956,-39.00054 1.9305,-14.79363 2.2028,-20.6384 1.3172,-28.27448 -0.7647,-6.59369 -1.7052,-10.92706 -3.6117,-16.64108 -6.0282,-18.0671 -19.3186,-36.93411 -40.9489,-58.13108 -3.6092,-3.53681 -6.7254,-6.43054 -6.9249,-6.43054 -0.3716,0 -3.1703,5.39294 -3.1703,6.10893 0,0.21372 0.342,0.92161 0.7601,1.57314 3.9579,6.16784 5.3747,16.0863 3.708,25.95862 -1.1482,6.80088 -2.9893,12.40435 -6.1548,18.73219 l -1.8778,3.75371 0.5099,2.40386 c 0.7847,3.69999 0.9101,7.81935 0.3567,11.72716 l -0.4647,3.28257 1.5797,1.92473 c 3.2726,3.98742 5.1798,8.35755 5.1692,11.84479 -0.01,2.31602 -0.5924,3.69401 -2.3115,5.44168 l -1.2646,1.28576 0.6811,1.66475 c 0.4948,1.20922 0.7121,2.26847 0.7941,3.8708 0.1335,2.60489 -0.2583,4.20773 -1.7568,7.18815 l -0.9993,1.98749 0.6995,1.493 c 0.6231,1.32994 0.6995,1.7887 0.6995,4.20027 0,2.60709 -0.035,2.77863 -0.9539,4.63732 -1.2266,2.48188 -3.0958,4.2801 -5.768,5.54915 -1.7401,0.82635 -2.2738,0.95463 -4.3495,1.0454 -2.9114,0.12734 -5.1867,-0.48203 -7.4321,-1.99056 -0.8616,-0.57879 -6.0288,-5.5596 -12.0469,-11.61234 -12.8826,-12.95667 -12.0968,-11.75817 -13.9895,-21.33464 -0.9527,-4.81979 -1.6838,-7.01674 -4.2825,-12.86825 -3.1735,-7.1459 -3.9655,-9.67302 -4.1008,-13.08485 -0.062,-1.55222 0.073,-4.94015 0.3001,-7.52872 0.7159,-8.17941 0.5332,-10.29025 -1.5136,-17.48643 -1.0811,-3.80087 -1.3376,-6.07281 -0.9234,-8.17842 0.1661,-0.84428 1.2113,-4.112 2.3225,-7.26165 1.1113,-3.14963 4.6793,-14.90523 7.929,-26.12357 6.848,-23.64036 7.3612,-25.35081 9.9567,-33.18491 l 1.9418,-5.86071 -0.9111,-1.96455 c -1.4082,-3.03645 -1.7905,-4.66869 -1.6628,-7.10022 0.1402,-2.6709 0.898,-4.29681 3.1263,-6.7075 1.9258,-2.08328 2.3351,-2.82171 2.9952,-5.40273 1.5437,-6.03591 -0.7545,-16.15738 -7.1529,-31.50159 -6.7515,-16.19124 -11.952,-27.5493 -23.2596,-50.8 -8.5639,-17.60907 -10.8917,-22.21802 -14.6424,-28.99192 -7.9377,-14.33583 -8.9532,-17.06559 -13.1717,-35.40605 -4.984,-21.66867 -8.359,-42.14009 -9.5383,-57.85556 -0.432,-5.75705 -0.1896,-14.58919 0.4846,-17.65469 1.2008,-5.46023 4.6436,-10.44207 10.0021,-14.47333 l 2.3875,-1.79621 -0.1556,-14.78788 c -0.1875,-17.80922 -0.6214,-37.09303 -0.8783,-39.03333 l -0.1868,-1.41112 -1.4866,3.07879 c -7.0462,14.59294 -20.569,50.76293 -34.6453,92.66694 -1.4308,4.25928 -1.9381,5.21285 -2.7735,5.21285 -0.7968,0 -1.2096,-0.46138 -1.2096,-1.35192 0,-0.40488 1.3218,-4.75311 2.9374,-9.66272 8.9577,-27.22164 12.9411,-40.53878 14.4985,-48.47128 0.5519,-2.81098 1.5496,-6.29381 3.4828,-12.15824 3.0386,-9.21737 5.572,-17.77576 5.4436,-18.389 -0.1074,-0.51301 -1.8758,2.69358 -6.0826,11.02937 -5.1794,10.26311 -8.4509,17.45357 -19.202,42.20374 -13.3037,30.62647 -25.7589,57.87484 -27.1645,59.42801 -0.9314,1.02919 -2.321,0.30055 -2.0463,-1.07298 0.4313,-2.15656 10.2748,-26.23715 21.9732,-53.75396 8.879,-20.88517 13.1332,-31.15472 16.7073,-40.33122 4.3698,-11.21965 8.7713,-23.71136 8.6403,-24.52162 -0.052,-0.32289 -0.756,0.30988 -2.4255,2.1808 -8.9477,10.027 -16.6672,22.18952 -23.2212,36.58652 -6.0701,13.33418 -10.3231,21.34228 -14.4667,27.24006 -2.6909,3.83001 -12.4887,15.53826 -21.7135,25.94718 -4.4385,5.00831 -5.1586,5.66676 -6.08,5.55983 -1.1361,-0.13185 -1.0076,-1.23601 0.5014,-4.31105 7.8561,-16.00821 13.1611,-28.92411 16.6371,-40.50538 l 1.0299,-3.43167 5.2052,-5.29354 c 14.5572,-14.80437 24.5696,-27.39564 32.6189,-41.02053 3.1384,-5.31237 8.3247,-16.25284 8.0687,-17.02092 -0.098,-0.29388 -7.0194,5.60862 -10.5624,9.0074 -9.426,9.04245 -20.0305,22.7847 -26.7279,34.63636 -7.5477,13.3565 -10.1293,16.72962 -17.55,22.93058 -5.3455,4.46694 -7.7665,6.31367 -10.7899,8.23063 -4.039,2.56091 -5.5468,2.83587 -5.3268,0.97143 0.062,-0.52796 1.1006,-4.3081 2.3072,-8.40032 2.6944,-9.1383 4.0746,-14.03965 4.9641,-17.6297 l 0.6812,-2.7489 2.3795,-1.78854 c 7.1296,-5.35896 17.8254,-15.21776 32.2273,-29.70535 9.2908,-9.34607 14.8516,-15.15053 14.8516,-15.50226 0,-0.11422 -2.4534,1.40264 -5.452,3.37081 -2.9986,1.96817 -5.6887,3.57945 -5.978,3.58063 -0.665,0.003 -1.1417,-0.46582 -1.1417,-1.12201 0,-0.31832 1.6149,-2.0975 4.3197,-4.7593 6.1168,-6.01944 12.0649,-13.41089 19.3193,-24.0073 4.5263,-6.61152 12.9439,-20.03368 14.7031,-23.44466 l 0.4476,-0.86771 -0.7297,0.17285 c -1.1957,0.28325 -4.9196,2.13234 -7.5727,3.76022 -2.4675,1.51397 -3.4214,1.80294 -4.0097,1.21466 -0.6448,-0.64482 -0.215,-1.3658 2.8463,-4.77473 9.4421,-10.51435 16.2649,-21.18555 20.5361,-32.11941 2.2235,-5.69214 4.032,-13.13716 4.0103,-16.50984 l -0.01,-1.32147 -2.2997,-1.09507 c -2.7236,-1.29691 -4.5763,-3.00567 -5.8444,-5.39042 -0.4669,-0.87797 -1.0028,-1.59633 -1.191,-1.59633 -0.1882,0 -2.3462,0.34234 -4.7956,0.76072 -10.1772,1.73847 -20.4121,2.8312 -26.5175,2.8312 -3.7469,0 -4.2339,-0.12546 -4.2339,-1.09066 0,-0.69003 1.0668,-1.03975 6.1576,-2.0185 2.4694,-0.4748 4.1846,-0.89957 3.8114,-0.94401 -0.3732,-0.0444 -3.0863,0.10609 -6.0293,0.33446 -11.5719,0.89788 -12.4063,0.8616 -12.4063,-0.53945 0,-0.76903 -0.094,-0.72226 8.8928,-4.42145 10.2247,-4.2087 14.0715,-5.67744 21.6385,-8.26185 5.4505,-1.86159 6.5932,-2.33639 6.8468,-2.84501 0.1674,-0.33576 0.6975,-1.4764 1.178,-2.53474 1.1129,-2.45153 1.8523,-3.31272 3.6999,-4.30904 0.8186,-0.44147 2.3385,-1.5426 3.3775,-2.44695 4.3877,-3.81885 10.9836,-5.60785 16.1988,-4.39358 3.9059,0.90945 5.715,1.9032 10.3928,5.70912 1.0918,0.88834 2.5262,1.88933 3.1876,2.22445 1.2334,0.62505 3.8347,1.2375 6.56,1.54453 1.749,0.19704 2.6939,0.6889 2.6939,1.40221 0,1.22456 -2.4336,2.04475 -7.6953,2.59359 -1.4808,0.15446 -2.7334,0.32192 -2.7836,0.37213 -0.05,0.0502 0.5263,0.40039 1.2812,0.77824 1.7366,0.86919 2.527,1.59219 2.527,2.31135 0,1.02844 -0.6045,1.26035 -2.4155,0.92666 -2.1818,-0.40201 -3.062,-0.38908 -2.8964,0.0426 0.072,0.1876 0.9552,1.71738 1.9626,3.3995 12.224,20.41059 17.6779,42.9742 18.398,76.11543 0.196,9.019 0.4041,8.35262 -2.2582,7.23207 -1.5919,-0.67002 -2.2713,-0.67505 -2.2713,-0.0167 0,0.20253 0.4606,1.33183 1.0237,2.50957 1.3632,2.85157 2.0551,5.66515 2.0551,8.35678 0,3.38597 -0.4945,3.80202 -2.6758,2.25118 -0.6947,-0.49389 -1.3474,-0.89798 -1.4505,-0.89798 -0.1031,0 -0.5558,0.89477 -1.006,1.98838 -2.9663,7.2056 -7.7672,14.07394 -13.0123,18.61574 l -2.5584,2.21542 -0.1772,3.53024 c -0.2225,4.43453 -0.6792,7.91235 -1.8262,13.90775 -0.497,2.59776 -1.1875,6.69639 -1.5345,9.10808 -0.6838,4.75224 -1.6722,16.40958 -1.6722,19.7211 v 2.05345 l 1.3469,-0.17226 c 0.7409,-0.0947 2.3652,-0.24386 3.6096,-0.3314 l 2.2626,-0.15918 1.5558,-3.10382 c 1.9346,-3.85942 3.1636,-5.6935 5.3186,-7.9373 4.3286,-4.50701 9.3223,-6.32711 17.3592,-6.32711 3.879,0 3.9457,-0.01 4.0769,-0.57728 0.073,-0.3175 0.3116,-1.38545 0.5293,-2.37323 1.8582,-8.43026 5.6542,-14.08342 10.8633,-16.17787 2.4883,-1.00048 4.0292,-1.05849 7.0488,-0.26534 1.3913,0.36542 3.0854,0.66443 3.7648,0.66443 h 1.2353 l -1.49,-3.3995 c -4.7096,-10.7451 -6.5383,-21.93531 -5.2653,-32.2181 0.9194,-7.42622 2.1503,-12.20003 5.7672,-22.36624 8.8834,-24.96935 15.3078,-46.6874 23.2349,-78.5467 l 2.5309,-10.17195 -1.5888,-1.69842 c -10.3624,-11.0775 -21.47,-33.46455 -27.4776,-55.38045 -6.4113,-23.38861 -8.3855,-47.4195 -5.7906,-70.48742 2.4632,-21.89728 8.4955,-42.16601 18.5075,-62.18631 5.6063,-11.2104 11.1449,-20.1743 14.4178,-23.334 1.6712,-1.6133 1.8423,-1.712 2.9697,-1.712 1.5742,0 2.1321,0.3333 2.7182,1.6242 0.7135,1.5714 0.6391,5.1466 -0.2665,12.8183 -1.4061,11.911 -2.3154,25.442 -2.3138,34.4332 0,5.47411 0.522,14.9867 1.1665,21.29359 2.6356,25.79393 10.3155,46.7713 22.7785,62.21858 2.1401,2.65245 4.4402,5.07858 4.6064,4.85874 0.047,-0.0617 2.1431,-3.63364 4.6586,-7.93753 9.4467,-16.16284 15.103,-24.29929 21.5407,-30.98552 8.8306,-9.17162 18.21,-13.54728 28.0348,-13.07887 3.0053,0.14328 3.8298,0.35605 10.9877,2.83559 7.801,2.70229 10.7062,3.2303 19.3707,3.5206 3.9914,0.13373 7.1952,0.36525 8.2164,0.59375 4.456,0.99701 8.5906,3.31287 12.5773,7.0447 1.2059,1.12885 3.3995,2.86384 4.8747,3.85555 9.4631,6.36171 17.0177,14.62725 29.2358,31.98693 1.887,2.68111 3.8829,5.49149 4.4353,6.24528 l 1.0045,1.37054 0.7727,-0.72913 c 1.1286,-1.06499 3.5031,-4.23244 5.67,-7.56338 17.7428,-27.27437 23.6685,-70.86558 16.3264,-120.10072 -0.4155,-2.7864 -0.7555,-5.7152 -0.7555,-6.5084 0,-1.3332 0.075,-1.5175 0.9961,-2.4383 0.8929,-0.8929 1.1297,-0.9961 2.2861,-0.9961 1.1094,0 1.465,0.1384 2.5414,0.9892 1.8958,1.4986 3.2241,3.1345 5.645,6.9525 30.5843,48.23389 40.7579,108.29466 26.6206,157.1583 -3.9276,13.57525 -9.7177,26.20792 -17.0832,37.27116 -1.2899,1.93754 -2.6855,3.95524 -3.1014,4.48382 l -0.7561,0.96102 3.5955,6.99252 c 1.9775,3.84586 6.0903,11.78385 9.1396,17.63996 19.6074,37.65596 28.609,58.26003 31.8509,72.90431 0.6095,2.75338 0.7037,3.75427 0.7202,7.6573 l 0.019,4.4899 -0.9719,2.80855 c -1.9147,5.53302 -3.559,8.91991 -7.9746,16.4261 -1.0767,1.83019 -1.9575,3.47541 -1.9575,3.65606 0,0.23437 0.4961,0.32879 1.7318,0.32951 2.3128,0.003 5.9547,0.61201 8.5748,1.43771 4.3766,1.37925 8.1232,3.44483 14.0255,7.73261 l 2.6523,1.92681 3.377,-0.5801 c 11.782,-2.02384 19.8215,-5.44791 25.4808,-10.85244 4.3938,-4.19603 6.5102,-8.31668 8.1854,-15.93737 2.057,-9.35744 7.1017,-18.2774 14.8663,-26.28646 7.9023,-8.15114 18.2315,-14.70996 32.5838,-20.69007 11.0157,-4.58983 24.4772,-8.07676 32.84042,-8.50666 l 2.82223,-0.14506 3.59192,-2.37252 c 8.28537,-5.47257 14.46683,-8.53142 22.83434,-11.29933 17.76209,-5.87561 33.03008,-4.14374 37.14208,4.21304 0.80788,1.64187 0.82945,1.77364 0.82286,5.02597 -0.006,3.07955 -0.0704,3.52364 -0.82342,5.69665 -2.8671,8.27414 -9.59953,17.67353 -19.72256,27.53537 -7.66092,7.46326 -17.88063,15.34301 -25.88563,19.95873 -2.05822,1.18677 -2.88051,1.92193 -7.56868,6.76671 -9.90554,10.23641 -18.95406,18.14114 -28.90636,25.25237 l -4.1478,2.96372 -0.1632,2.22561 c -0.4696,6.40436 -1.4645,10.92741 -3.213,14.6073 -1.2445,2.61913 -2.0906,3.85952 -4.5656,6.69313 -2.5574,2.92803 -3.693,4.72422 -4.6383,7.33691 -1.3503,3.73159 -1.6396,5.99227 -1.5108,11.80543 0.134,6.05015 0.5997,8.77085 2.4291,14.1918 1.135,3.36314 1.1936,3.67887 1.2953,6.98598 0.1361,4.42314 -0.4363,7.38875 -2.4263,12.57171 -2.5202,6.56393 -3.256,10.56358 -2.679,14.56292 0.6913,4.7916 2.2529,8.2198 6.1637,13.53102 3.797,5.15666 5.3225,8.89313 6.0587,14.83919 0.2114,1.70781 0.3844,4.65056 0.3844,6.53945 0,3.38348 0.011,3.44824 0.7293,4.36929 2.167,2.77768 4.4688,7.65812 6.3096,13.37833 2.6341,8.18537 4.3771,16.37543 7.4804,35.14841 l 2.184,13.21208 1.4955,2.56671 c 4.96214,8.51675 7.6567,16.76392 8.84395,27.06875 0.88954,7.72065 0.9818,10.44461 0.81247,23.98889 -0.21528,17.22135 -0.19589,17.41203 2.63601,25.91313 6.23695,18.72288 9.61328,34.38367 11.20091,51.95454 1.09068,12.07098 -0.36122,24.51831 -3.64611,31.25811 -1.27969,2.62564 -3.28624,5.03608 -5.05524,6.07278 -2.37746,1.39328 -6.15906,1.75571 -9.47376,0.90796 -7.97023,-2.03844 -14.68063,-9.21776 -21.83253,-23.35804 -4.16,-8.22483 -8.4677,-19.19855 -13.093,-33.35353 -0.7414,-2.26892 -1.2378,-3.30613 -2.1491,-4.4899 -8.8639,-11.51505 -15.8055,-22.49362 -22.0014,-34.79661 l -1.7282,-3.43167 -0.6037,4.4899 c -4.1645,30.97542 -11.9431,58.02106 -21.7314,75.55858 -5.0216,8.99709 -10.3602,15.7443 -16.1929,20.46529 -6.9669,5.63911 -13.0897,8.36766 -21.4232,9.54706 -7.1368,1.01005 -16.8448,-0.31478 -25.6566,-3.5013 -6.0465,-2.18655 -13.8289,-6.68245 -17.3766,-10.03849 l -0.8281,-0.78339 -0.6188,1.39179 c -9.3395,21.00759 -16.5099,32.0021 -24.5913,37.70635 -4.352,3.07181 -8.5001,4.51329 -13.8966,4.82913 l -2.7913,0.16335 -3.7282,5.2596 c -6.8956,9.72784 -11.3237,16.18883 -14.1893,20.70318 -9.51,14.98184 -13.173,24.81169 -14.3576,38.52931 -0.5576,6.45562 -0.052,13.0841 2.0976,27.48669 1.8925,12.68161 2.4518,16.95771 3.0352,23.20585 1.5721,16.83551 -0.5652,28.01371 -7.5813,39.65204 -2.1359,3.54302 -4.6041,7.01158 -10.1333,14.24009 -2.6985,3.52778 -5.7544,7.68586 -6.791,9.24018 -1.9375,2.90515 -3.8372,6.62768 -4.1304,8.0935 l -0.1658,0.82932 1.287,-0.7005 c 2.636,-1.43469 5.9783,-4.21543 10.4822,-8.72113 2.549,-2.54998 5.2362,-5.4445 5.9715,-6.43228 0.7354,-0.98778 2.2487,-3.58925 3.363,-5.78107 2.445,-4.80978 3.8664,-6.80183 5.9455,-8.33238 4.0899,-3.01077 8.5245,-2.76831 12.1542,0.66454 1.6797,1.5886 2.7567,3.61898 3.3629,6.33996 0.4156,1.86524 0.416,2.31302 0.01,7.87865 -0.9186,12.50755 -2.5506,22.171424 -5.7844,34.251509 -0.6988,2.610556 -1.3548,4.965802 -1.4577,5.233862 -0.1659,0.432082 -0.1023,0.466077 0.5606,0.299592 1.6596,-0.416791 7.5251,-1.169555 9.1219,-1.170658 3.7265,-0.0026 7.5521,1.099307 12.6176,3.634253 1.6677,0.834582 4.0922,1.875366 5.3879,2.312862 4.3183,1.458165 8.8131,1.241906 12.2488,-0.589331 2.1644,-1.153622 2.4164,-1.532801 3.0108,-4.530642 1.2419,-6.263203 4.3884,-9.702414 9.1567,-10.00842 3.0855,-0.198018 6.9311,1.339914 9.083,3.632482 l 0.6124,0.652395 1.5684,-1.419886 c 4.267,-3.862724 9.4034,-4.717062 12.9432,-2.152816 1.5332,1.110621 3.5008,3.894794 4.417,6.25017 1.7351,4.460111 3.6677,14.100001 4.4823,22.358156 0.5984,6.066135 0.4216,16.441727 -0.3673,21.551514 -1.3263,8.590895 -3.5555,15.297931 -6.8314,20.553986 -0.6298,1.010356 -1.145,1.921908 -1.145,2.025663 0,0.253641 5.9394,7.1008131 6.0572,6.9829981 0.051,-0.050954 0.6772,-2.0474961 1.3916,-4.4367381 3.0586,-10.228759 5.8964,-15.10738 9.9482,-17.10205 1.5663,-0.771082 1.9072,-0.840022 4.1545,-0.840022 2.2499,0 2.5871,0.0684 4.1635,0.844486 2.2253,1.09551 3.9796,3.045871 5.4711,6.082787 1.4613,2.975494 2.2898,5.936595 2.9685,10.609913 1.4289,9.8393175 -0.5317,22.5583026 -4.665,30.263379 l -1.006,1.87529 8.0153,9.137816 c 4.4084,5.025813 12.3845,14.111008 17.7247,20.189355 5.3403,6.078323 10.2211,11.801969 10.8462,12.719191 2.1494,3.153884 2.7285,6.692771 1.4988,9.160445 -2.4324,4.881007 -10.0444,7.233432 -17.3393,5.358502 -1.3233,-0.340129 -35.817,-10.501283 -76.6526,-22.580317 -40.8355,-12.079059 -74.6723,-22.029983 -75.1927,-22.113213 -0.7716,-0.123382 -1.3215,0.03641 -2.9798,0.86573 -4.8863,2.443762 -10.7087,4.2926 -16.3618,5.195505 -3.0967,0.494582 -4.2161,0.55077 -8.7232,0.43783 -4.2416,-0.106295 -5.7272,-0.248484 -8.2673,-0.791274 -7.4791,-1.598122 -14.0056,-4.664492 -19.5682,-9.193671 -1.5667,-1.275644 -1.9949,-1.505091 -2.549,-1.366007 -0.3663,0.09193 -31.2689,10.912532 -68.6726,24.045794 -37.4036,13.133261 -69.0883,24.20784 -70.4104,24.610161 -5.4671,1.663649 -10.6317,2.168929 -13.9496,1.364775 z m 80.0814,-35.227411 76.5562,-26.713102 2.4778,2.37059 c 7.4738,7.150305 16.3617,10.965564 25.5451,10.965564 7.1229,0 14.8093,-2.45949 21.6681,-6.933404 l 2.4257,-1.582241 79.6753,23.618125 c 43.8215,12.989944 80.0217,23.699892 80.4451,23.79985 0.6083,0.143625 -1.1664,-1.795421 -8.4667,-9.250577 l -9.2364,-9.432277 -0.2298,3.497169 c -0.156,2.375208 -0.3207,3.459455 -0.5131,3.379611 -0.1558,-0.06463 -4.0933,-1.389944 -8.75,-2.945117 -22.046,-7.362638 -42.6901,-13.530425 -78.2525,-23.379441 -25.1111,-6.954519 -39.7839,-11.051052 -47.3405,-13.217107 -8.5092,-2.439093 -8.2404,-2.394014 -9.4613,-1.586115 -1.9266,1.275029 -7.8275,4.074134 -10.386,4.926676 -9.2274,3.074734 -17.5184,2.496974 -26.1146,-1.819794 -3.4676,-1.741311 -8.0364,-5.010214 -11.5362,-8.2539475 l -1.1861,-1.0992812 -67.5641,23.3803907 c -48.3437,16.729209 -67.6762,23.312965 -67.9584,23.143503 -0.2168,-0.130284 -1.4074,-1.730535 -2.6457,-3.556102 -1.2383,-1.825567 -2.3895,-3.319215 -2.5584,-3.319215 -0.2865,0 -13.7437,20.26458 -13.7762,20.745128 -0.01,0.120919 0.1294,0.164612 0.3058,0.09706 0.1764,-0.06755 34.771,-12.143713 76.8769,-26.835944 z m -54.5728,7.419596 c 9.7162,-4.583109 26.0315,-10.865889 50.9523,-19.620909 18.7514,-6.587656 22.1903,-7.827484 34.538,-12.451849 22.2876,-8.3470295 31.638,-11.1280727 40.6436,-12.088244 3.523,-0.3756377 9.4205,-0.1786723 12.1079,0.4043988 4.8994,1.0629771 10.0188,3.2633353 14.5888,6.2704132 1.321,0.86927 2.4597,1.522691 2.5303,1.452084 0.2615,-0.261491 -1.9871,-4.4408431 -3.19,-5.9291034 -2.5066,-3.1011858 -6.8035,-5.70607113 -11.5246,-6.98646195 -2.3566,-0.63913065 -2.8986,-0.68721105 -7.7924,-0.69134175 -6.48,-0.00539 -6.8612,0.070119 -20.0285,3.9714308 -25.0921,7.4344773 -55.3939,17.0067103 -70.7372,22.3455583 -31.2762,10.882899 -37.1191,12.7254 -39.6018,12.488051 -0.8027,-0.07677 -0.8658,-0.148269 -0.8658,-0.980774 v -0.897979 l 3.8485,-1.24029 c 11.9519,-3.851846 15.857,-5.192042 17.703,-6.075654 1.9085,-0.913451 1.99,-0.983801 1.1609,-1.002428 -2.6111,-0.05863 -14.569,-2.392269 -19.1205,-3.731439 -0.4151,-0.122151 -1.9021,1.272181 -7.7865,7.301576 -5.3591,5.491018 -7.2306,7.564145 -7.1107,7.876616 0.4018,1.047096 6.6774,10.854446 6.9456,10.854446 0.028,0 1.2605,-0.570653 2.7391,-1.268101 z m 321.6863,-1.06952 c 0,-0.156813 -0.4619,-0.836686 -1.0263,-1.510864 -0.5644,-0.674177 -1.0263,-1.275105 -1.0263,-1.335398 0,-0.06032 0.6952,-0.441909 1.5449,-0.848027 l 1.5449,-0.73837 -1.2087,-1.227128 c -0.6648,-0.674921 -1.158,-1.273822 -1.0959,-1.330908 0.062,-0.05709 0.8344,-0.465513 1.7163,-0.907601 1.7238,-0.864062 1.9324,-1.181895 1.0263,-1.563922 -0.3175,-0.133876 -8.0241,-2.145094 -17.1257,-4.469424 -9.1017,-2.324306 -30.5185,-7.805805 -47.593,-12.181096 -17.0744,-4.375265 -37.1635,-9.522228 -44.6424,-11.4376445 -16.4129,-4.2035458 -18.5194,-4.5921145 -23.9889,-4.4248337 -3.0126,0.092107 -4.4743,0.2584386 -6.0291,0.6859796 -2.3605,0.6491367 -5.6773,2.2929271 -6.5718,3.2569725 l -0.6122,0.6597842 1.6677,-0.2212109 c 0.9172,-0.1216634 4.0345,-0.2212109 6.9272,-0.2212109 h 5.2596 l 64.2697,18.7773977 c 35.3484,10.327562 64.6738,18.889645 65.1677,19.026857 1.2371,0.343669 1.796,0.346979 1.796,0.01052 z m -6.4448,-16.070964 c -1.151,-1.476432 -7.4188,-8.849898 -8.3516,-9.824847 l -1.1154,-1.165732 -1.9861,0.970793 c -2.0027,0.979003 -8.8726,3.318831 -12.3127,4.193668 -1.0231,0.260158 -1.8601,0.543868 -1.8601,0.630459 0,0.172386 24.3807,5.570219 25.3672,5.616247 0.5431,0.0254 0.571,-0.02001 0.2587,-0.420588 z m -24.8562,-9.951103 c 7.5414,-1.212837 12.5093,-3.588353 16.6482,-7.96077 1.6482,-1.741234 2.3393,-2.728242 3.3661,-4.8075273 1.9876,-4.0247452 2.6108,-6.7972191 2.7511,-12.2376679 0.13,-5.0433621 -0.2794,-8.3683248 -1.717,-13.9437528 -0.4289,-1.66334 -0.7798,-3.074169 -0.7798,-3.135206 0,-0.06101 -0.1027,-0.110939 -0.2283,-0.110939 -0.1256,0 -0.7224,1.241136 -1.3261,2.758081 -7.0358,17.67621764 -10.828,23.7970785 -18.1808,29.344412 -4.1294,3.1154 -13.1356,7.33688 -18.5745,8.706401 -0.6607,0.166383 -1.2014,0.39016 -1.2014,0.497276 0,0.187447 2.1386,0.569935 5.6445,1.009535 2.9889,0.374791 10.959,0.304543 13.598,-0.119842 z m -251.8775,-0.627483 c 7.8443,-0.808413 14.0905,-2.105249 21.1867,-4.398715 6.9408,-2.243307 12.4049,-4.726427 22.4877,-10.2194458 15.6169,-8.5078962 28.6763,-14.5066318 38.9241,-17.8794182 1.6528,-0.543945 3.0094,-1.063567 3.0147,-1.15475 0.01,-0.09118 -1.0005,-0.351187 -2.2352,-0.577786 -3.3275,-0.610703 -8.8609,-0.527499 -15.7147,0.236297 -13.8425,1.542652 -19.4032,1.736051 -29.2485,1.017308 -16.4125,-1.198187 -27.1996,-4.195053 -37.5141,-10.422184 -1.3711,-0.827783 -2.5477,-1.505039 -2.6146,-1.505039 -0.067,0 -1.4839,1.5875 -3.1487,3.527777 -10.3696,12.0851655 -23.6789,23.3129397 -37.5407,31.669411 -1.7639,1.063362 -3.6021,2.135832 -4.0849,2.383264 -0.69,0.35365 -0.7955,0.495992 -0.4932,0.665172 1.0877,0.608702 8.5629,2.949992 12.6374,3.958141 6.2943,1.557404 9.7711,2.123799 18.6235,3.033914 2.9736,0.305724 11.2118,0.13072 15.7205,-0.333946 z m 229.8126,-4.245443 c 7.1317,-1.013511 12.1348,-2.854293 17.3184,-6.371859 2.2889,-1.5532482 6.3884,-5.3787445 6.2365,-5.8196782 -0.1291,-0.3748168 -12.3258,-14.6122088 -12.5178,-14.6122088 -0.097,0 -1.316,0.4637169 -2.7089,1.0304704 -7.0001,2.8482378 -13.5555,4.433403 -21.7211,5.2522579 -7.8812,0.7903761 -14.6147,0.2722418 -26.6311,-2.0492668 -11.7699,-2.2738643 -17.9288,-3.055004 -24.1172,-3.0588781 -3.6864,-0.00257 -4.972,0.1000862 -7.1838,0.5722696 -2.7389,0.5846618 -5.9413,1.9235496 -6.7571,2.8249673 -0.4279,0.4728761 -0.3898,0.4923238 1.298,0.6620163 4.3567,0.4380089 11.7689,2.6233067 17.779,5.2416104 1.6254,0.70812116 6.2436,2.9535836 10.2626,4.9899195 10.8712,5.5081305 18.2382,8.2284965 27.6051,10.1936095 6.9764,1.463579 15.6055,1.930913 21.1374,1.14477 z m -97.982,-10.0021857 c 1.8258,-0.9283827 4.3294,-2.0779507 5.5635,-2.5545727 4.5474,-1.7561918 11.5769,-3.26246306 17.234,-3.69287758 l 2.4483,-0.18626665 -2.0525,-0.66776339 c -7.6113,-2.47634588 -17.0558,-1.72640458 -24.1067,1.91415922 -2.8903,1.4923654 -6.3418,4.9280359 -7.6633,7.628184 -0.518,1.0583333 -1.0124,2.2912598 -1.0986,2.7398388 l -0.1569,0.815571 3.2563,-2.154151 c 1.791,-1.1847687 4.7501,-2.9137132 6.5759,-3.8421217 z m -64.4238,-7.03641528 c 11.2589,-2.71882612 17.6984,-3.61008382 26.0267,-3.60223292 3.1125,0.00282 7.2755,0.1726944 9.251,0.3772541 1.9756,0.2045598 3.8659,0.3753299 4.2006,0.3795119 1.0535,0.013085 0.2143,-0.6196316 -2.8708,-2.1649008 -3.1714,-1.5884749 -6.243,-2.4729336 -10.3818,-2.9894772 -4.5122,-0.5631103 -11.3032,0.4299527 -17.8999,2.617534 -3.3806,1.1210379 -12.5582,5.49058162 -13.2284,6.29814763 -0.3118,0.37568907 -0.2933,0.40673351 0.1581,0.26590463 0.2811,-0.0877198 2.4161,-0.61950339 4.7445,-1.18174134 z m 52.833,-2.03664372 c 1.0894,-7.0894474 1.34,-20.4234203 0.6589,-35.0527413 -0.9771,-20.985941 -1.3421,-23.569377 -4.1494,-29.36499 -1.2824,-2.647501 -1.6558,-3.169509 -3.7674,-5.267292 -2.5792,-2.562296 -3.3719,-3.126766 -9.0145,-6.418503 -8.9337,-5.211592 -15.9274,-10.840001 -20.9818,-16.885714 -8.448,-10.104783 -13.0133,-19.874323 -17.5137,-37.478313 -1.0223,-3.99909 -1.5628,-5.71849 -1.6934,-5.38788 -0.504,1.27482 -1.3164,9.61688 -1.435,14.73621 -0.1351,5.82763 0.103,8.40098 1.2337,13.33012 1.3534,5.90047 4.4626,13.084311 7.8839,18.216163 2.418,3.626735 6.7881,9.0268 9.979,12.330827 l 2.6168,2.70959 -0.1461,6.783339 c -0.1198,5.559726 -0.068,7.338675 0.2856,9.862101 0.9577,6.829649 2.5707,12.075852 5.56,18.083875 2.47,4.964391 5.3957,9.378192 9.9248,14.972555 7.5372,9.310125 13.455,17.127732 18.5259,24.4733087 0.8991,1.3024811 1.6589,2.34157196 1.6883,2.30909075 0.029,-0.0324812 0.1844,-0.91075675 0.3444,-1.95174615 z m 7.6659,-6.76638 c 11.827,-15.8257643 24.1087,-40.3829703 33.0584,-66.1006733 5.7766,-16.599233 9.7393,-34.44938 9.5264,-42.91155 l -0.073,-2.88975 -2.8075,3.91829 c -8.2202,11.47272 -13.4616,16.77106 -22.6555,22.90136 -5.0054,3.337432 -7.2163,5.130697 -10.6025,8.59949 -4.1559,4.25722 -6.9007,8.02486 -9.2191,12.654793 -1.8753,3.74496 -1.8969,3.861389 -1.151,6.222435 1.0222,3.235677 1.8656,7.871023 2.4277,13.342183 1.0252,9.978941 0.4849,31.496408 -1.1631,46.3159475 -0.082,0.7408333 -0.09,1.3469696 -0.016,1.3469696 0.074,0 1.2773,-1.5297726 2.6746,-3.3994948 z m 35.3283,-7.1062013 c 16.7922,-5.109222 32.2054,-9.930835 34.2515,-10.71472 14.9743,-5.73673 24.9296,-14.239136 32.3811,-27.655338 0.7837,-1.411111 1.4968,-2.802518 1.5847,-3.092001 0.118,-0.388979 -3.3949,-15.991506 -4.0407,-17.946382 -0.047,-0.141111 -0.5212,0.609344 -1.0546,1.667677 -2.2479,4.460188 -4.2801,7.001881 -7.0939,8.872476 -5.6024,3.724435 -13.3564,4.44559 -21.4924,1.998877 -2.991,-0.899442 -4.234,-1.491108 -8.4431,-4.018793 -4.2781,-2.569197 -5.6581,-3.009797 -7.8739,-2.513933 -2.9337,0.656552 -5.6836,3.15486 -10.5956,9.626395 -1.5069,1.985356 -5.7904,7.592906 -9.519,12.461239 -12.8424,16.768309 -21.0509,27.961549 -26.6657,36.362047 -2.5243,3.7766722 -2.9686,4.6232618 -2.2904,4.3643614 0.1764,-0.067323 14.0598,-4.3026824 30.852,-9.4119054 z m 57.3202,6.160321 c 15.4905,-2.792204 24.0674,-10.757105 27.0902,-25.157082 0.577,-2.748691 1.1489,-8.198966 1.1518,-10.976622 0,-3.11073 -0.85,-11.299151 -1.652,-15.85332 -0.624,-3.543889 -2.0416,-9.786978 -2.867,-12.626262 l -0.4189,-1.440821 -1.7481,5.062322 c -8.9333,25.87036 -17.6352,37.195424 -35.3883,46.055893 -6.8324,3.410014 -15.1888,6.517973 -25.2499,9.391098 -2.2458,0.641311 -4.1297,1.212555 -4.1866,1.26941 -0.2353,0.235347 10.1955,2.536408 15.8174,3.489369 6.9897,1.184795 11.077,1.5132501 17.8524,1.4345614 5.2887,-0.061396 6.973,-0.1752086 9.599,-0.6485464 z m -119.928,-4.387298 c -0.09,-0.146294 -2.2043,-1.901896 -4.6975,-3.901363 -30.7101,-24.62848 -45.2275,-40.808305 -57.4589,-64.038348 l -1.5069,-2.861989 -0.7256,2.62931 c -1.1647,4.220376 -3.8696,11.979717 -5.4104,15.52081 -2.9865,6.863285 -6.6018,12.492438 -10.5265,16.390003 l -2.6169,2.598677 2.1777,2.532636 c 8.1243,9.44844 18.769,17.569769 29.0775,22.184513 7.9356,3.552459 14.659,5.088415 24.6256,5.625663 8.3682,0.451094 16.4772,1.448133 23.8606,2.933777 3.645,0.733418 3.3973,0.703528 3.2013,0.386311 z m -53.9626,-2.542771 c 1.6015,-0.274807 3.7181,-0.749582 4.7035,-1.055049 l 1.7916,-0.555362 -2.3047,-0.825859 c -6.3993,-2.292979 -16.5481,-6.899846 -22.0585,-10.013039 -6.6076,-3.733133 -12.8727,-8.243762 -17.6577,-12.712904 -3.8064,-3.555128 -8.8383,-10.00175 -11.6563,-14.933506 l -1.2793,-2.238869 -0.5695,4.291394 c -1.4218,10.711898 -2.3603,16.81172 -2.9697,19.300458 l -0.6595,2.693939 0.6408,0.553464 c 1.1541,0.996809 5.3364,3.471795 9.519,5.633129 15.4857,8.002103 31.5784,11.736416 42.5003,9.862204 z m 41.5724,-18.910299 c -1.4158,-2.786457 -4.117,-9.452468 -5.4422,-13.430416 -2.6054,-7.820736 -3.7512,-14.930375 -3.5092,-21.774469 l 0.1394,-3.943183 -3.1394,-3.112372 c -8.8975,-8.821163 -14.2537,-18.567707 -16.5717,-30.154875 -1.0447,-5.22253 -1.8735,-13.42475 -2.1283,-21.06358 l -0.056,-1.66768 -0.8121,2.08149 c -3.7606,9.63969 -5.4509,22.44216 -4.315,32.683157 2.1788,19.642819 10.4243,36.913279 24.5994,51.524076 2.85,2.937523 11.3769,10.199973 11.6542,9.925935 0.045,-0.04462 -0.1437,-0.525241 -0.4195,-1.068083 z m 28.1748,-49.439224 c 0,-0.04931 -0.7925,-1.752266 -1.7612,-3.784343 -4.6213,-9.695102 -7.0308,-18.047548 -7.3939,-25.631088 -0.1121,-2.34137 -0.027,-3.62337 0.4141,-6.20966 0.9525,-5.59059 2.1458,-8.4966 5.6935,-13.86498 2.5174,-3.80946 3.3664,-5.4542 4.3162,-8.36173 1.6098,-4.92781 1.7024,-9.1889 0.2908,-13.37847 -1.588,-4.71308 -2.8745,-6.39012 -8.8005,-11.47205 -8.2209,-7.04988 -12.28,-11.36816 -16.1644,-17.19646 -1.8874,-2.83182 -4.9158,-8.78789 -6.4289,-12.64392 -1.4802,-3.77202 -4.1893,-12.15762 -5.4538,-16.88127 -0.5401,-2.01748 -1.0622,-3.51839 -1.1602,-3.33535 -0.6621,1.23644 -1.5237,10.48417 -1.5224,16.33994 0,12.07357 1.7527,20.93776 5.77,29.2257 1.8679,3.85344 3.5372,6.51503 6.8383,10.90273 2.6366,3.50449 3.9031,5.87017 4.5986,8.58933 0.6265,2.44982 0.6203,4.03347 -0.037,9.29427 -0.681,5.45256 -0.9293,14.85631 -0.5153,19.51546 1.6427,18.48738 8.0038,31.295727 18.7132,37.679978 1.9799,1.180253 2.6027,1.470249 2.6027,1.211913 z m 9.0313,-16.689701 c 5.6631,-11.28509 13.1596,-22.88067 21.0768,-32.60133 4.655,-5.71549 8.1587,-11.63641 9.8731,-16.685 1.7412,-5.12752 2.4237,-10.80267 1.8554,-15.42889 -1.1986,-9.75832 -4.3525,-17.67357 -11.7095,-29.38646 -12.7907,-20.36364 -18.176,-30.09523 -21.8755,-39.5303 -3.9126,-9.97861 -5.3208,-17.39759 -5.1093,-26.91858 0.2058,-9.2652 1.7804,-16.33172 6.2715,-28.14433 3.113,-8.18791 3.8408,-10.30491 4.741,-13.7894 0.8359,-3.23609 0.854,-3.41997 0.8415,-8.56668 -0.012,-5.03969 -0.046,-5.38295 -0.801,-8.2101 -4.2031,-15.73099 -18.0604,-40.33663 -36.4226,-64.67317 -6.4642,-8.56749 -16.758,-20.60486 -17.2228,-20.14007 -0.1895,0.18953 2.3563,6.11168 9.4653,22.01898 8.8113,19.7163 11.7415,26.83002 15.0223,36.46986 4.6657,13.70925 6.2166,23.76901 5.08,32.95008 -1.0939,8.83558 -2.8258,14.44988 -7.0668,22.90785 -4.5541,9.08227 -7.0537,16.59569 -7.9504,23.89724 -0.4049,3.2971 -0.1797,10.94024 0.3987,13.53286 1.7947,8.04398 5.5233,14.91914 11.5327,21.26529 0.8531,0.90091 3.687,3.49186 6.2976,5.75767 10.5523,9.1588 14.9324,13.38862 20.1063,19.41653 5.286,6.15855 8.6186,11.02411 11.3337,16.54738 2.533,5.15284 3.6145,8.96786 3.8913,13.72626 l 0.1417,2.43737 -4.0744,-3.98646 c -7.2666,-7.10985 -11.4072,-9.52849 -20.3954,-11.91358 -6.5433,-1.7363 -8.8098,-2.78545 -11.7502,-5.43909 -2.1015,-1.8965 -3.8652,-4.5984 -6.2118,-9.51573 -1.1272,-2.36205 -2.5061,-5.21827 -3.0643,-6.34715 l -1.0147,-2.05253 0.1077,4.87475 c 0.1177,5.32448 0.388,7.00298 1.8248,11.32996 1.0426,3.14008 2.2118,5.50398 3.9167,7.9189 3.2861,4.65472 6.7486,7.55591 14.6059,12.23808 3.2166,1.9168 6.8774,4.21773 8.1351,5.1132 6.168,4.39138 10.0827,9.53857 11.4716,15.08336 0.8,3.1936 0.5979,8.21488 -0.4962,12.32962 -1.0704,4.02575 -2.0146,6.26693 -6.5935,15.65051 -6.9609,14.265 -8.3363,18.69853 -8.3363,26.87086 0,5.013833 0.069,5.046571 2.104,0.99224 z m -61.7616,-91.36869 c -0.6924,-5.58141 -0.3848,-11.47264 0.9093,-17.41732 1.5335,-7.04424 4.8424,-13.63626 10.1153,-20.15207 1.8619,-2.30073 3.4475,-5.30057 4.1424,-7.83714 0.2673,-0.97569 0.4684,-2.99956 0.5491,-5.52686 0.1556,-4.87359 -0.3466,-7.92728 -2.2347,-13.58728 -4.7505,-14.24034 -15.6086,-30.06107 -31.086,-45.29358 -5.6747,-5.5849 -9.1336,-8.73755 -9.3496,-8.5216 -0.075,0.0755 1.414,3.23814 3.3099,7.02821 13.5433,27.07432 19.1627,44.91597 19.1594,60.83194 0,5.5401 -0.1963,7.16226 -1.675,13.92331 -2.6069,11.91914 -2.608,21.09505 0,28.87895 1.0047,3.00256 2.0638,5.21172 3.5469,7.39796 1.0743,1.58376 2.7606,3.56368 2.9088,3.41543 0.047,-0.0474 -0.084,-1.46042 -0.2925,-3.13995 z m 84.3023,-31.68026 c 0.4667,-3.83587 1.7652,-11.2483 2.5339,-14.46484 1.7155,-7.17855 3.9265,-12.41129 7.6558,-18.119 0.968,-1.48167 3.9054,-5.54364 6.5275,-9.02662 6.5888,-8.75212 8.9753,-12.74038 10.6935,-17.8709 1.1713,-3.49753 1.6082,-6.29664 1.7485,-11.20248 0.2582,-9.02677 -1.587,-21.125 -5.0546,-33.14033 -4.5345,-15.7121 -12.0254,-31.17298 -19.9303,-41.13542 -1.9953,-2.51465 -8.4412,-9.17448 -8.664,-8.95165 -0.082,0.0825 0.6099,1.81279 1.5385,3.84522 6.8492,14.99049 10.557,27.56862 11.7829,39.97116 0.5152,5.21257 0.4923,7.98945 -0.1092,13.24166 -1.2026,10.50085 -3.4694,17.6804 -8.7484,27.70876 -5.4979,10.44406 -7.4739,15.16985 -9.244,22.10787 -3.6031,14.12253 -2.3698,28.33829 3.6193,41.7177 1.3908,3.10699 3.4856,6.95239 4.5747,8.39765 l 0.6766,0.89798 0.067,-0.89798 c 0.037,-0.49389 0.1864,-1.87934 0.3323,-3.07878 z m -164.4411,0.99432 c 1.5358,-1.53573 -0.996,-7.35602 -5.7722,-13.26999 -1.7192,-2.12872 -2.0819,-3.14426 -1.184,-3.31511 0.2133,-0.0406 1.6565,0.90858 3.2071,2.10925 3.5175,2.72378 5.3084,3.7082 5.8813,3.23275 1.3992,-1.16119 -1.2554,-8.66889 -4.6902,-13.26521 -0.8279,-1.10785 -1.7851,-2.2704 -2.1272,-2.58341 -0.5971,-0.54633 -0.672,-0.55403 -1.8736,-0.19242 -1.6402,0.49363 -2.6118,0.46805 -3.8662,-0.10181 -2.3325,-1.05964 -3.5992,-3.37186 -6.4843,-11.83665 -2.4502,-7.18874 -3.219,-9.16348 -5.1254,-13.16629 -1.3663,-2.86855 -1.4261,-3.07594 -1.1106,-3.84848 0.8393,-2.05432 1.1292,-3.03794 1.5856,-5.37969 0.6833,-3.50528 0.6674,-9.81685 -0.038,-15.04607 -0.2901,-2.15032 -0.4921,-4.33295 -0.449,-4.85024 0.068,-0.80985 0.1755,-0.95173 0.7776,-1.02113 0.9453,-0.10891 1.5681,0.94785 2.2335,3.78996 1.6477,7.03706 1.9853,13.37615 1.0508,19.72815 -0.4911,3.3381 -0.4919,3.44925 -0.03,4.36162 0.6776,1.33963 2.2495,5.69717 4.4688,12.38822 2.0568,6.20065 3.2044,8.9193 4.5134,10.69209 0.7061,0.9564 0.9273,1.09497 1.6375,1.02626 0.6901,-0.0668 0.9318,-0.28417 1.5146,-1.36228 1.4145,-2.61684 2.5136,-8.81668 2.5136,-14.17867 0,-7.73435 -1.8595,-16.90252 -4.3745,-21.5678 -1.4016,-2.59996 -1.2802,-4.07598 0.3165,-3.84849 0.5881,0.0838 1.058,0.70014 3.5656,4.67683 l 1.1166,1.77077 1.5042,-1.63545 c 3.4555,-3.75705 5.4955,-10.48451 5.7517,-18.9677 0.3828,-12.67667 -3.8007,-22.57857 -10.4086,-24.63579 -0.8968,-0.27919 -1.9968,-0.50764 -2.4444,-0.50764 -0.9775,0 -1.9543,-0.62612 -1.9543,-1.25265 0,-0.94219 2.379,-2.41087 5.2635,-3.24943 1.1993,-0.34865 2.046,-0.40794 3.9985,-0.27997 l 2.4771,0.16233 1.5565,-4.55327 c 0.8561,-2.50431 1.6273,-4.80922 1.7137,-5.12202 0.1291,-0.46706 -0.4762,-1.27075 -3.3852,-4.49488 -1.9482,-2.15936 -6.2404,-6.95455 -9.538,-10.65599 -3.2976,-3.70142 -6.0808,-6.72987 -6.1848,-6.72987 -0.2534,0 -1.6789,4.77517 -7.1799,24.05182 -5.7019,19.98097 -8.0938,27.91734 -10.8022,35.84194 l -2.0995,6.14326 0.6786,2.96482 c 1.4213,6.20925 2.1178,14.70018 1.8206,22.1948 -0.3319,8.37055 -0.4374,7.49297 1.3861,11.53937 2.0067,4.45298 4.3999,11.64272 6.3257,19.00438 1.0536,4.02721 1.6656,5.90173 2.1359,6.54243 1.0562,1.43887 9.9109,11.47233 12.1889,13.81159 4.4259,4.54493 8.3506,6.47421 9.939,4.88576 z m 3.0637,-26.40335 c 1.0542,-0.56417 0.3392,-3.36337 -1.6042,-6.28053 -0.6566,-0.98575 -1.538,-2.12036 -1.9585,-2.52134 l -0.7646,-0.72909 -0.182,0.85737 c -0.1001,0.47154 -0.5256,1.9392 -0.9455,3.26146 l -0.7635,2.4041 0.9777,1.00125 c 1.0848,1.11087 3.1991,2.27237 4.1365,2.27237 0.3343,0 0.8312,-0.11951 1.1041,-0.26559 z m 88.8755,-47.45562 c -1.3819,-8.98631 -5.1092,-17.41872 -11.4954,-26.00641 -2.8617,-3.84815 -5.8683,-7.30353 -11.0784,-12.73169 -7.3611,-7.66921 -10.1878,-11.44785 -13.2683,-17.7372 -2.8095,-5.73586 -3.7178,-8.37538 -4.5673,-13.27191 -0.6271,-3.61501 -0.6313,-5.424 -0.019,-8.38916 0.7897,-3.82639 2.3344,-6.12045 4.902,-7.28031 1.3976,-0.63133 2.5345,-0.66424 4.3792,-0.12684 5.3662,1.56333 11.6805,7.53369 17.7584,16.79137 6.9004,10.51029 16.4497,30.33948 26.2523,54.51276 l 1.7687,4.36162 0.1641,-2.05253 c 0.4891,-6.11578 0.5282,-12.41703 0.1083,-17.44646 -0.7504,-8.98683 -1.8165,-15.50131 -3.743,-22.8727 -4.4464,-17.01238 -11.8214,-31.00673 -21.6643,-41.10864 -2.5994,-2.66772 -4.987,-4.71055 -10.7234,-9.17484 -17.4517,-13.58158 -27.235,-22.00443 -36.5007,-31.42495 -6.9876,-7.10428 -11.9198,-12.87208 -17.1519,-20.05736 -1.1092,-1.52338 -2.0684,-2.71826 -2.1314,-2.65525 -0.1446,0.14458 1.3462,9.21412 3.0003,18.25334 4.91,26.83125 11.115,52.86517 17.0624,71.58741 5.6214,17.69587 11.8158,27.80561 24.2843,39.6338 13.7551,13.04862 22.6421,22.42422 31.2599,32.97876 l 1.6677,2.04245 0.075,-2.56566 c 0.043,-1.47851 -0.1005,-3.70714 -0.3392,-5.2596 z m 126.8766,-4.39104 c 5.7249,-2.86538 13.1817,-12.60325 22.0799,-28.83421 3.3471,-6.10531 8.1348,-16.18367 7.8319,-16.48657 -0.06,-0.0596 -0.8386,0.51103 -1.7313,1.26795 -3.7604,3.18829 -6.6751,4.94276 -10.1277,6.09618 -6.2886,2.10088 -11.7352,0.067 -17.0698,-6.37433 -1.1036,-1.33247 -2.0065,-2.51832 -2.0065,-2.63518 0,-0.11687 -0.1097,-0.21249 -0.2437,-0.21249 -0.4706,0 -2.8392,7.98645 -4.3372,14.62424 -1.5982,7.08157 -2.8603,16.48391 -2.8585,21.29462 0,6.32365 1.5105,10.8576 3.9758,11.95331 1.2792,0.56858 2.2722,0.4151 4.4871,-0.69352 z m 75.7942,-28.71311 c 7.7283,-1.49141 13.6921,-4.76907 19.7935,-10.8783 7.7403,-7.75039 12.2501,-15.79034 18.6828,-33.30759 9.6099,-26.16892 13.3056,-50.55797 13.9281,-91.915 l 0.1622,-10.77575 -1.8019,-3.59192 c -3.8111,-7.59714 -6.0039,-13.71223 -7.6542,-21.34529 -1.0971,-5.0744 -2.085,-12.7939 -2.2337,-17.45506 l -0.059,-1.85491 -3.1489,3.00946 -3.1488,3.00944 0.4979,5.38788 c 0.9499,10.27763 1.1206,15.12251 0.9809,27.83737 -0.082,7.45798 -0.2937,14.27754 -0.5457,17.57474 -2.538,33.20883 -8.8706,59.24106 -16.8601,69.30844 -2.6946,3.39536 -6.7755,6.80163 -9.8169,8.19404 -2.7072,1.23939 -5.328,1.72112 -8.6063,1.58191 -3.8775,-0.16472 -6.5141,-0.93752 -11.1583,-3.2707 -3.2866,-1.65116 -3.6073,-1.76222 -4.0171,-1.39131 -0.7393,0.669 -1.5706,2.88334 -1.3905,3.70348 0.3692,1.68099 6.2215,10.44443 10.2576,15.36002 2.174,2.64763 2.4653,3.24178 1.8776,3.82947 -1.2403,1.24027 -5.2723,-1.47163 -12.0358,-8.095 l -4.2618,-4.17356 -0.6334,0.96448 c -1.0869,1.65498 -6.0663,10.93678 -6.2335,11.61966 -0.2928,1.19559 1.9548,7.28246 3.563,9.64917 1.0773,1.58537 0.7917,2.65828 -0.7076,2.65828 -0.6234,0 -1.2914,-0.52609 -3.746,-2.9505 -1.643,-1.62278 -3.0491,-2.95051 -3.1247,-2.95051 -0.075,0 -1.0113,1.81841 -2.0795,4.04091 -2.1104,4.3912 -3.674,8.37923 -4.1212,10.51103 l -0.2839,1.35362 1.0149,1.0511 c 1.4962,1.54945 5.815,4.98168 8.4553,6.71947 2.8313,1.86349 7.7488,4.28016 10.5654,5.1923 5.9937,1.94097 12.4609,2.44677 17.8897,1.39913 z m -273.5961,-19.90908 c -7.432,-15.0456 -8.02,-16.33659 -8.7367,-19.18282 -1.9302,-7.66482 -3.4146,-23.29719 -4.4732,-47.10697 -0.8932,-20.09032 -1.5311,-25.61297 -4.5194,-39.12626 -5.4653,-24.71492 -18.4728,-63.80669 -36.7946,-110.57979 -3.7931,-9.68333 -5.2633,-13.81688 -5.2633,-14.79783 0,-0.78684 0.4452,-1.23752 1.2225,-1.23752 0.7678,0 1.4342,1.40675 4.6791,9.87778 7.7789,20.30714 12.5789,31.3665 20.4337,47.07979 9.0196,18.04331 19.0783,34.74148 28.6692,47.59293 10.1689,13.62576 31.0639,38.46124 48.0383,57.09747 5.6966,6.25436 12.9652,13.88813 13.0976,13.75572 0.061,-0.061 -1.4929,-2.69291 -3.4531,-5.8487 -27.1694,-43.74141 -41.981,-76.45253 -57.6639,-127.34994 -7.0314,-22.81962 -19.493,-68.78261 -20.4211,-75.32083 -0.3713,-2.61573 -0.2567,-3.05998 0.7891,-3.05998 0.5866,0 0.8608,0.17334 1.1458,0.72439 0.206,0.3984 1.767,6.26505 3.4689,13.03697 7.8808,31.35802 12.8183,47.3963 20.4069,66.28712 5.2276,13.0136 10.9412,24.80184 15.6685,32.32727 4.0348,6.42315 17.8267,27.10349 24.3824,36.56061 13.0108,18.7688 26.0501,36.38993 27.1775,36.72709 0.1411,0.0422 0.827,-0.96718 1.5242,-2.24303 2.3476,-4.29606 10.2505,-16.12387 12.2811,-18.38049 l 0.5158,-0.57319 -0.8555,-1.35105 c -5.1242,-8.09144 -12.8403,-22.6843 -31.1024,-58.82175 -6.4893,-12.84111 -13.41,-26.43922 -15.3794,-30.21802 -2.4709,-4.74095 -3.7143,-7.41788 -4.0116,-8.63634 -0.4274,-1.75165 -0.4417,-1.77115 -1.7946,-2.43542 -3.0795,-1.51207 -5.4438,-4.76124 -5.4266,-7.4577 0.037,-5.81844 7.0681,-12.79095 18.7415,-18.58551 2.1987,-1.09138 4.9118,-2.31189 6.0293,-2.71221 1.1174,-0.40031 2.0647,-0.75035 2.105,-0.77785 0.04,-0.0275 -0.5524,-0.95994 -1.3171,-2.07208 -4.2706,-6.21096 -11.4959,-18.05265 -16.6535,-27.29376 -4.7348,-8.48334 -8.5932,-15.88318 -16.6327,-31.89903 -6.0998,-12.15167 -7.1785,-14.46705 -7.112,-15.26566 0.071,-0.84913 0.1578,-0.94906 0.8893,-1.02005 0.9704,-0.0942 0.7814,-0.33811 4.2348,5.46656 7.0469,11.845 15.6786,25.24339 31.8669,49.46501 l 12.8257,19.19027 2.0702,-1.99973 c 1.1387,-1.09987 3.071,-2.96951 4.2941,-4.15482 l 2.2239,-2.1551 -2.0588,-2.4346 c -11.8301,-13.99004 -24.4196,-37.18596 -34.7033,-63.94032 -4.6704,-12.15046 -7.3082,-22.51948 -9.105,-35.79091 -1.0698,-7.90142 -1.8095,-18.69791 -1.8106,-26.42626 0,-5.05118 0.5076,-15.77581 1.0337,-21.80808 1.6814,-19.27867 5.5839,-40.39279 11.1857,-60.51896 1.5468,-5.55728 2.2392,-7.48591 4.8472,-13.50022 0.9484,-2.18722 2.466,-6.28586 3.3723,-9.10808 3.9089,-12.1715 4.9412,-14.84397 8.9185,-23.09091 4.2575,-8.82776 8.8339,-16.70856 15.5691,-26.81111 6.5216,-9.78207 8.7344,-12.8136 11.7902,-16.1524 4.587,-5.01197 5.8766,-7.03592 5.8815,-9.23074 0.01,-4.1792 -5.7497,-7.63612 -10.7306,-6.44124 -2.7898,0.66928 -8.7241,4.78553 -12.0805,8.37957 -6.521,6.98257 -10.8647,14.96409 -16.9481,31.14178 -5.4705,14.54781 -10.7944,28.20847 -15.1985,38.99798 -2.7192,6.6617 -7.3895,19.29827 -9.8142,26.55454 -2.9287,8.76454 -5.1424,17.54363 -7.1732,28.44833 -0.4962,2.66436 -1.0814,5.11777 -1.3004,5.45202 -0.6072,0.92679 -1.3665,0.78065 -1.8413,-0.35439 -0.3308,-0.79051 -0.3723,-1.57991 -0.2331,-4.42576 0.8694,-17.76442 3.8445,-36.65484 7.7708,-49.33929 l 0.9376,-3.02917 -1.3206,-1.32062 -1.3206,-1.32059 -0.3877,0.92792 c -0.7156,1.71257 -2.6253,8.73198 -4.6273,17.00802 -10.1605,42.00202 -13.1546,52.72636 -19.3761,69.401 -2.6858,7.19828 -3.5459,9.84422 -4.7279,14.54499 -2.3459,9.32937 -3.0004,17.53039 -1.9622,24.58702 0.8395,5.70553 1.9445,9.35854 4.1892,13.8488 1.9669,3.93443 4.0914,6.82161 7.9705,10.83163 3.6433,3.76621 4.0015,4.37806 2.9493,5.03744 -0.3287,0.20602 -0.8516,0.0988 -2.1808,-0.44725 -1.9652,-0.80728 -4.9154,-1.43954 -6.7098,-1.43795 -0.6579,0 -2.8702,0.34647 -4.9164,0.76865 -4.3124,0.8898 -7.4737,0.99596 -10.8102,0.36304 -2.4546,-0.46561 -3.5159,-0.28348 -4.84,0.83061 -1.5253,1.28349 -2.0375,2.78448 -2.835,8.30751 -1.6853,11.67153 -3.532,13.34806 -12.3979,11.25523 -4.0966,-0.96702 -6.8487,-0.96156 -9.0894,0.018 -2.3148,1.01205 -4.2949,3.75445 -5.5629,7.70431 -2.151,6.70041 -7.3525,10.29516 -15.8221,10.93452 l -2.2275,0.16815 -0.2898,1.15083 c -1.0287,4.08537 -4.0906,6.99008 -11.0068,10.44186 -1.7645,0.88061 -3.4109,1.91867 -4.1714,2.63005 -3.8513,3.60236 -4.5283,10.52815 -2.3022,23.55034 0.2895,1.69334 0.8123,5.04152 1.1619,7.44041 3.7647,25.83772 7.606,43.25199 13.0799,59.29701 3.637,10.66102 6.2604,16.46951 14.1812,31.39894 26.9033,50.70881 36.7324,74.38292 39.1971,94.40848 0.5518,4.48354 0.4962,7.04758 -0.23,10.60807 -0.8709,4.27005 -2.3376,7.24767 -5.0804,10.31404 l -1.1436,1.27849 20.8667,24.11717 c 22.527,26.03608 23.9551,27.66401 24.1214,27.49773 0.061,-0.0605 -3.4757,-7.3691 -7.8582,-16.24127 z m 400.44015,12.1129 c 2.77912,-1.45596 4.33919,-5.44643 5.32466,-13.61986 0.86568,-7.17989 -0.17796,-19.99293 -2.47635,-30.40303 -1.59014,-7.20216 -4.9843,-17.1899 -5.84169,-17.1899 -0.11515,0 -0.35532,0.49068 -0.53371,1.0904 -0.50861,1.70999 -2.65101,6.10301 -3.97286,8.14632 -4.1796,6.46107 -10.7337,9.57313 -17.8349,8.46846 -1.1473,-0.17849 -2.1415,-0.26898 -2.2094,-0.20112 -0.068,0.0679 0.2732,1.49699 0.7579,3.17582 4.6658,16.15943 16.4921,37.37823 22.47612,40.32661 1.33596,0.65824 3.27078,0.75086 4.31023,0.2063 z m -215.70465,-6.75953 c 0.3129,-0.95096 1.6476,-4.51343 2.9662,-7.91662 3.6332,-9.37711 4.2797,-12.75295 3.1463,-16.4273 -0.7953,-2.57792 -1.2963,-3.48301 -9.8179,-17.73482 -15.9573,-26.68768 -17.9787,-30.43389 -22.6301,-41.94125 -3.1565,-7.80891 -7.0615,-20.36392 -8.2221,-26.43429 l -0.4793,-2.50708 -0.7697,0.14598 c -1.1946,0.22658 -4.8817,2.13768 -7.4949,3.8849 -3.4274,2.29151 -6.1072,4.51704 -15.5979,12.95397 -4.6577,4.14056 -9.3624,8.25731 -10.455,9.14831 -1.0926,0.89103 -1.9865,1.74226 -1.9865,1.89166 0,0.63782 5.7671,8.21897 10.0149,13.1651 7.0542,8.214 17.9825,19.44806 34.215,35.17245 8.7654,8.49112 11.6865,11.81211 15.6637,17.80835 3.9834,6.00546 7.773,13.20759 9.6723,18.38226 0.4737,1.29081 0.9389,2.29978 1.0338,2.24216 0.095,-0.0576 0.4284,-0.88279 0.7412,-1.83378 z m 30.9471,0.21108 c 7.4637,-3.49268 17.148,-16.07161 28.9498,-37.60273 3.2417,-5.91404 12.0475,-23.71048 15.8054,-31.94242 l 3.2209,-7.05555 0.1608,-4.23334 c 0.4781,-12.59262 3.4641,-23.74422 9.7896,-36.5606 4.3085,-8.72957 8.1638,-14.7321 13.7596,-21.42323 l 2.4675,-2.95051 0.1849,-2.1808 c 0.6768,-7.98363 2.9894,-16.88546 6.0545,-23.30522 3.2381,-6.78252 7.0257,-12.01759 14.2555,-19.7036 l 3.1695,-3.36943 -0.3737,-2.14673 c -1.6421,-9.43305 -1.4863,-18.74677 0.4223,-25.23764 0.804,-2.73425 2.3525,-5.84583 3.5628,-7.15878 1.1035,-1.19718 1.698,-1.42717 2.2535,-0.87173 0.463,0.46302 0.3822,1.00705 -0.463,3.11789 -1.6938,4.22997 -2.8211,10.41556 -2.8211,15.47948 0,5.01113 1.1963,10.6907 3.0712,14.58175 1.7058,3.54004 1.4739,3.57111 5.21,-0.69829 3.9123,-4.47071 4.7735,-5.30432 7.8825,-7.62947 2.5219,-1.88612 6.5163,-4.12086 7.3657,-4.12086 0.6393,0 1.1009,0.48548 1.1009,1.15786 0,0.62589 -0.5798,1.192 -3.5952,3.5101 -6.6156,5.08575 -10.891,12.39605 -12.1954,20.85196 -0.5296,3.43367 -0.4044,10.55909 0.2482,14.11948 0.6304,3.43969 1.7879,7.83856 2.941,11.17674 1.7203,4.98002 4.7018,11.61585 5.8633,13.04941 l 0.504,0.62215 3.1555,-4.21406 c 5.2821,-7.0541 8.3769,-10.4999 9.4305,-10.4999 1.347,0 1.4112,1.33399 0.1441,2.99397 -7.0766,9.27084 -11.6273,22.05666 -11.6273,32.66865 0,6.86896 1.9236,15.49803 5.1131,22.93684 3.1387,7.32036 8.5716,19.14095 11.686,25.42579 8.0321,16.20886 14.49,24.42017 21.994,27.96591 4.8559,2.29451 9.9728,1.65313 13.1181,-1.64433 2.5129,-2.63452 3.8901,-6.35952 4.654,-12.58765 0.5736,-4.67717 0.4852,-9.47828 -0.4233,-22.9703 -0.724,-10.75248 -0.816,-13.44807 -0.8492,-24.88686 -0.023,-7.75952 -0.1604,-14.14616 -0.3491,-16.16364 -1.4402,-15.4001 -5.5531,-25.13861 -13.2854,-31.45687 -1.8501,-1.51176 -2.2028,-2.12313 -1.5826,-2.74333 0.4928,-0.49286 1.1263,-0.3673 3.0601,0.60657 0.9988,0.50295 1.86,0.8703 1.914,0.81637 0.1569,-0.15692 -1.863,-10.56507 -3.0917,-15.93119 -3.4844,-15.2167 -8.4265,-30.10107 -13.3024,-40.06326 l -1.8836,-3.84849 0.1171,-4.44802 c 0.1259,-4.78221 -0.181,-8.05501 -1.0024,-10.68935 -0.264,-0.84667 -1.4123,-3.21348 -2.5519,-5.25959 -4.9127,-8.82076 -7.2225,-14.32473 -8.1058,-19.31545 -0.4213,-2.38069 -0.4213,-2.71071 -10e-5,-6.38717 0.4402,-3.84192 1.3783,-7.91274 3.4184,-14.83476 0.863,-2.92785 0.9445,-3.4751 0.9365,-6.28585 -0.01,-2.54365 -0.1284,-3.50246 -0.6964,-5.51616 -3.1019,-10.99659 -3.6126,-13.88772 -3.603,-20.39697 0.01,-4.49334 0.078,-5.3865 0.5758,-7.18384 1.2931,-4.67104 4.2065,-9.25892 9.29,-14.62943 1.7302,-1.82782 2.4216,-3.09584 3.0697,-5.63005 0.4667,-1.82472 1.4209,-10.09334 1.1913,-10.32297 -0.1736,-0.17354 -1.3307,0.46488 -7.2182,3.98239 -6.9869,4.17432 -12.4225,6.97279 -13.5436,6.97279 -1.1862,0 -1.7861,-0.49792 -1.68,-1.39444 0.076,-0.63964 0.6608,-1.08391 4.8326,-3.67001 22.7971,-14.13169 31.7984,-20.80635 41.8293,-31.01702 8.71092,-8.86717 14.66461,-16.52647 18.43999,-23.72283 5.73989,-10.94091 6.72687,-19.15601 2.81556,-23.4356 -2.56602,-2.80763 -6.4016,-3.98778 -12.96996,-3.99062 -13.72599,-0.006 -31.91189,6.71127 -48.96029,18.0842 -5.2895,3.5286 -11.7194,8.63639 -14.0759,11.18162 -3.9892,4.30866 -6.9555,9.88132 -8.7303,16.40106 -1.688,6.20073 -3.1307,19.11104 -2.8958,25.91313 0.1611,4.66162 0.5141,6.46905 2.2845,11.69655 0.7237,2.13665 1.2379,4.06228 1.1476,4.29747 -0.1104,0.28772 -0.4628,0.42618 -1.0849,0.42618 -0.7589,0 -1.171,-0.23609 -2.3368,-1.33868 -1.8804,-1.77841 -2.9167,-3.99134 -5.2301,-11.16889 -1.012,-3.13972 -1.8853,-5.70859 -1.9406,-5.70859 -0.1717,0 -2.0986,3.95365 -3.0859,6.33176 -1.8862,4.54316 -2.981,8.24951 -4.3419,14.69965 -0.788,3.73421 -0.9521,4.11203 -1.7867,4.11203 -1.6912,0 -1.592,-3.36191 0.4003,-13.56845 0.4238,-2.17098 0.7077,-4.0101 0.6309,-4.08691 -0.077,-0.0768 -0.5711,0.067 -1.0985,0.31952 -4.4315,2.12201 -10.4026,3.57507 -19.5701,4.7623 -12.77,1.6538 -18.8846,3.4585 -23.5949,6.96401 -6.6311,4.93502 -10.0135,11.48614 -13.2087,25.58334 -2.5127,11.08595 -3.3706,13.96631 -5.3224,17.86962 -2.9075,5.81457 -7.6787,9.89381 -11.6677,9.97558 -1.4288,0.0293 -1.4891,0.004 -1.5653,-0.65524 -0.068,-0.58893 0.1492,-0.84028 1.5394,-1.78057 5.7929,-3.91822 8.751,-9.06824 11.3794,-19.81143 0.512,-2.09276 0.8734,-3.8625 0.8032,-3.9328 -0.07,-0.0703 -1.3791,0.27615 -2.9085,0.76983 -5.6917,1.83724 -9.2257,2.51991 -15.4807,2.9904 -4.6643,0.35085 -7.3865,0.85803 -10.6279,1.9801 -8.5376,2.95543 -15.5118,9.02305 -19.5005,16.96548 -1.1073,2.20497 -2.5979,6.56107 -2.8555,8.34546 l -0.1804,1.24886 1.1241,-0.15869 c 0.6182,-0.0873 3.4601,-0.2308 6.3152,-0.31893 8.0247,-0.24774 12.3368,0.46831 19.3876,3.21943 13.1945,5.14825 21.76,7.33783 34.1748,8.73601 8.3174,0.93675 16.1887,0.50079 23.4757,-1.30022 8.5368,-2.10992 16.6172,-6.37232 28.8588,-15.22302 2.4863,-1.7976 3.2219,-2.2079 3.8484,-2.14642 0.639,0.0627 0.7893,0.20409 0.8584,0.80785 0.074,0.64287 -0.41,1.23164 -3.9768,4.84244 -6.3508,6.42913 -10.9204,9.87111 -17.1453,12.91454 -12.0704,5.90129 -26.7935,7.48456 -43.9376,4.72484 -7.2656,-1.16958 -12.6996,-2.58957 -22.7105,-5.93462 -7.5192,-2.5125 -9.7562,-3.07671 -14.553,-3.67056 -9.5655,-1.18423 -18.4452,0.67574 -22.6439,4.7431 -0.8114,0.78602 -1.4752,1.61003 -1.4752,1.83114 0,0.25592 0.5361,0.59777 1.4752,0.94067 1.8598,0.6791 6.5489,3.34739 9.3434,5.31689 1.1759,0.82868 3.8178,3.19557 5.8709,5.25977 l 3.733,3.7531 5.1996,0.18293 c 11.9837,0.42159 18.5263,1.69997 25.0963,4.90368 3.8915,1.89762 7.2213,4.4791 11.5947,8.98896 l 3.6591,3.77331 3.0875,-0.68444 c 6.0432,-1.33963 7.9033,-1.53914 14.4524,-1.54991 6.6275,-0.011 8.6589,0.22552 13.3414,1.55276 2.6713,0.75718 6.7124,2.60353 7.3988,3.38038 0.2593,0.29351 0.4325,0.73193 0.3848,0.97426 -0.2154,1.09551 -0.7401,1.05294 -7.3265,-0.59441 -7.0773,-1.77015 -10.3598,-2.26094 -13.6391,-2.03919 -2.7829,0.18817 -6.6247,1.16355 -9.3479,2.37326 -1.1552,0.51321 -2.9663,1.22133 -4.0246,1.57359 -4.0391,1.34443 -7.8761,0.33074 -10.577,-2.79425 -3.0892,-3.57424 -5.0708,-5.46844 -7.2423,-6.92291 -3.0238,-2.02538 -6.2665,-3.63408 -9.468,-4.69708 -4.7432,-1.5749 -5.7535,-1.70888 -14.4047,-1.91013 -10.9912,-0.25567 -11.3978,-0.40232 -16.6478,-6.00469 -3.2689,-3.48844 -5.1049,-4.88262 -8.6454,-6.5652 -5.7615,-2.73807 -13.6426,-3.72364 -21.4369,-2.68081 -1.7127,0.22914 -3.2613,0.50762 -3.4412,0.61881 -0.2475,0.15297 -0.1334,0.50459 0.4687,1.44413 1.377,2.14902 2.408,4.60366 2.3195,5.52271 -0.1553,1.61264 -0.8342,1.28211 -3.9128,-1.90498 -3.4234,-3.54407 -5.9651,-5.22029 -9.6384,-6.35651 -5.1269,-1.58581 -9.7347,-1.89387 -15.5438,-1.03917 -3.8838,0.5714 -5.5943,0.97708 -9.4066,2.23081 l -2.7574,0.90683 1.2542,1.45424 c 1.6989,1.96997 3.8758,5.37031 3.8758,6.05405 0,0.70305 -0.4605,1.17295 -1.1494,1.17295 -0.2936,0 -1.3385,-0.52545 -2.322,-1.16763 -4.893,-3.19499 -12.9181,-6.49407 -18.9781,-7.80181 -10.2923,-2.22109 -17.7239,-1.62147 -25.4181,2.05081 -4.8245,2.30265 -9.9947,6.56436 -13.3559,11.00897 -1.8927,2.5028 -4.2736,7.10957 -4.8422,9.36911 -0.7895,3.13762 -0.2264,5.77586 1.4507,6.79574 1.9305,1.17404 3.4919,1.29629 16.5596,1.29663 19.2411,0 32.9787,0.96717 42.468,2.9885 l 3.0076,0.64064 4.048,-0.65075 c 6.7469,-1.08463 8.5215,-1.25325 11.7423,-1.11565 3.8448,0.16423 6.1389,0.63867 11.0841,2.29234 l 3.8976,1.30335 2.7484,-0.68867 c 4.2117,-1.05536 7.4579,-1.42497 12.5473,-1.42864 3.3078,-0.003 5.6168,0.14332 8.1377,0.51342 l 3.5195,0.51669 3.4696,-2.02853 c 4.1567,-2.43029 7.5769,-3.96846 10.4264,-4.68902 1.8537,-0.46877 2.639,-0.51731 6.6195,-0.40922 5.1991,0.14118 6.3822,0.3949 10.0971,2.16521 2.7579,1.31425 3.3536,1.80517 3.2271,2.65932 -0.155,1.04623 -0.7361,1.15496 -3.599,0.67349 -12.9491,-2.17778 -27.5485,4.79942 -34.332,16.40765 -0.5629,0.96333 -1.0235,1.83994 -1.0235,1.948 0,0.10809 0.5484,0.1972 1.2187,0.19802 3.7859,0.005 9.5509,1.36691 13.0218,3.07689 4.2422,2.08993 6.6863,4.41442 5.7844,5.50123 -0.5224,0.62941 -1.483,0.47416 -3.0529,-0.4934 -3.165,-1.95072 -8.9291,-3.46885 -13.1638,-3.46703 -2.7985,0 -6.4087,0.54074 -9.3171,1.39241 -11.5642,3.38641 -21.3083,12.09058 -27.3253,24.4093 -2.0687,4.23528 -2.0876,4.33929 -0.8611,4.73753 1.7136,0.55634 5.7985,2.7128 7.4615,3.93895 1.1602,0.8555 1.6035,1.34564 1.6035,1.77297 0,1.29528 -1.0129,1.52393 -2.9516,0.66633 -0.6716,-0.29705 -2.2737,-0.75735 -3.5604,-1.0229 -8.9331,-1.8436 -21.6284,1.98869 -31.0648,9.37745 -1.1344,0.88823 -3.6231,3.21677 -5.5304,5.17449 -10.1361,10.40428 -17.5979,22.75247 -19.3812,32.07325 -0.7815,4.0845 -0.3054,8.69642 1.2089,11.71052 2.8105,5.59375 6.8638,5.96549 15.9957,1.46705 3.9131,-1.92766 8.4137,-4.58565 20.2687,-11.97061 15.1611,-9.44449 21.7331,-13.31383 30.8993,-18.19217 5.9132,-3.14709 4.8778,-2.17335 9.6662,-9.09115 6.4484,-9.31598 13.3808,-16.33497 21.3951,-21.66212 3.1706,-2.10751 6.443,-3.84148 8.2101,-4.35025 3.3016,-0.95063 5.6311,-2.89932 8.3543,-6.98854 2.3406,-3.51469 5.7901,-7.22127 8.3857,-9.01069 5.2977,-3.65218 11.8659,-5.68801 20.5377,-6.3656 l 2.2565,-0.17631 0.6038,-1.18738 c 1.842,-3.62248 6.5683,-9.81574 9.8377,-12.89143 5.3455,-5.02866 10.4491,-8.01996 16.1872,-9.48751 2.4082,-0.61591 8.0745,-0.67115 10.4875,-0.10227 2.131,0.50246 5.5013,1.81561 6.3272,2.46526 0.7465,0.5872 0.8675,1.53416 0.2606,2.03793 -0.3319,0.2754 -0.8897,0.25249 -3.1885,-0.13098 -2.1273,-0.35485 -3.5945,-0.43311 -6.2043,-0.33089 -5.7204,0.22403 -9.9302,1.63966 -15.0346,5.05568 -10.9397,7.3212 -18.285,22.28426 -18.2673,37.21197 0,2.93657 0.5261,8.05821 0.856,8.38805 0.076,0.0757 0.9805,-0.21056 2.0109,-0.63605 5.4127,-2.2352 12.3235,-3.66943 13.8206,-2.86822 0.5767,0.30867 0.6578,1.3334 0.1395,1.76358 -0.1962,0.16282 -1.708,0.75002 -3.3597,1.30489 -5.6413,1.89525 -11.2978,5.31466 -15.4903,9.36406 -3.3089,3.19601 -5.5361,6.12522 -7.3619,9.68245 -3.9987,7.79075 -5.7853,16.1008 -6.6752,31.04922 -0.1511,2.53866 -0.121,3.01464 0.1908,3.01464 0.2036,0 1.5759,-0.21967 3.0495,-0.48819 4.5295,-0.8253 8.299,-1.13828 11.5827,-0.96171 3.3911,0.18231 4.0532,0.39873 4.0532,1.32472 0,0.79577 -0.7913,1.30113 -2.3906,1.5268 -0.6798,0.0959 -2.615,0.51116 -4.3005,0.92274 -14.5625,3.55605 -25.8132,12.95821 -31.9612,26.71002 -2.8749,6.43038 -4.7643,13.83779 -5.7155,22.40703 -1.4241,12.83085 -2.1983,23.88016 -1.9942,28.46455 0.6334,14.22723 4.3935,21.98483 11.8403,24.42833 1.6377,0.53735 3.9393,0.28025 5.9612,-0.66591 z m -77.9936,-6.52308 c -0.074,-0.19232 -2.4325,-4.2621 -5.2416,-9.04394 -6.242,-10.62544 -13.4396,-23.21724 -18.1688,-31.7852 -3.6656,-6.6411 -11.2788,-21.54672 -13.1494,-25.74493 l -1.0683,-2.39745 -0.6156,0.47321 c -0.3386,0.26026 -1.8124,1.40934 -3.2751,2.55352 -1.4627,1.14418 -3.9872,2.98112 -5.61,4.08212 -1.6227,1.101 -3.3177,2.27168 -3.7665,2.60152 l -0.8161,0.59972 6.1894,7.7616 c 19.4459,24.38551 32.921,39.91712 41.4904,47.82284 3.5293,3.25594 4.3368,3.87226 4.0316,3.07699 z m 48.4562,-67.65321 c -5.7108,-23.11035 -9.1386,-39.60611 -10.697,-51.47676 l -0.3095,-2.3574 -1.865,1.74174 c -1.9184,1.79158 -5.2611,4.19729 -7.8604,5.65715 -1.7379,0.976 -1.7244,0.90021 -0.8238,4.62803 3.3483,13.86073 10.0579,30.69231 17.1955,43.13646 3.1089,5.42031 7.0533,11.34341 7.2203,10.84239 0.047,-0.13986 -1.2404,-5.61707 -2.8601,-12.17161 z m -109.6773,2.84357 c 6.5693,-2.3975 22.1014,-12.32908 33.6464,-21.51431 1.8308,-1.4566 3.2694,-2.70766 3.1969,-2.7802 -0.073,-0.0725 -1.4969,0.28572 -3.1653,0.79608 -3.69,1.12878 -7.5615,1.93984 -9.2351,1.93473 -3.7158,-0.0113 -7.0732,-1.63714 -10.808,-5.23389 l -2.6415,-2.54374 -1.0394,1.00435 c -1.3946,1.34743 -4.4184,5.37172 -6.1603,8.19843 -4.3724,7.09522 -7.9175,15.50336 -7.9175,18.77811 0,2.32031 0.7845,2.5791 4.1238,1.36044 z m 123.4215,-13.73465 c 2.8104,-5.10601 6.8532,-10.59229 10.2023,-13.8449 0.721,-0.70024 1.311,-1.46447 1.311,-1.69828 0,-0.23381 -0.52,-2.83059 -1.1556,-5.77062 -3.129,-14.47459 -5.3576,-29.76706 -6.67,-45.76924 -0.2252,-2.74679 -0.4603,-5.0449 -0.5223,-5.10694 -0.062,-0.062 -0.8792,0.21295 -1.8159,0.61104 -3.3694,1.43202 -8.3623,5.08511 -11.8367,8.66035 l -2.1167,2.17811 v 1.51153 c 0,2.5231 3.0004,22.36796 5.5174,36.49318 1.9039,10.68406 5.1034,26.28107 5.3174,25.92103 0.1187,-0.19966 0.9148,-1.63304 1.7691,-3.18526 z m -113.0797,-39.76767 c 1.3894,-3.51903 4.2494,-9.15314 6.422,-12.6511 7.0016,-11.2727 17.2575,-20.8388 28.3632,-26.45546 4.3167,-2.18314 7.4431,-3.35657 12.4229,-4.66275 2.1334,-0.55957 3.9078,-1.10038 3.9432,-1.20183 0.4098,-1.17461 3.6128,-7.31781 4.5222,-8.67351 0.8636,-1.28726 1.1861,-2.01932 1.1861,-2.69204 0,-1.32534 0.9582,-11.58991 1.435,-15.37341 0.2224,-1.76389 0.7986,-5.33741 1.2806,-7.94114 0.482,-2.60376 0.8764,-4.86402 0.8764,-5.02284 0,-0.42272 -2.9214,-0.89056 -5.5612,-0.89056 -1.3594,0 -4.1649,0.31375 -6.8823,0.76969 -4.9125,0.82425 -8.7943,0.99163 -11.5624,0.49851 -0.8374,-0.14914 -3.3697,-0.77778 -5.6275,-1.39695 -8.4274,-2.31112 -13.1932,-2.81514 -24.3737,-2.57771 -4.5156,0.0959 -8.9208,0.25338 -9.7894,0.35 l -1.5792,0.17565 4.1449,5.02586 c 5.6202,6.81472 8.7362,10.28772 12.6463,14.0951 7.6738,7.47214 12.5513,9.00725 16.1532,5.0839 0.5778,-0.62935 1.9546,-2.52294 3.0595,-4.20791 l 2.009,-3.06362 0.5836,1.79596 c 1.8843,5.79877 -0.9135,12.56533 -6.2822,15.19356 -3.0493,1.49278 -7.3726,1.00828 -12.0553,-1.35102 -6.6562,-3.35362 -12.5602,-9.14567 -25.2248,-24.74658 -2.3483,-2.89278 -4.5533,-5.52432 -4.8999,-5.8479 l -0.6303,-0.58828 -3.8203,0.63005 c -10.2581,1.69187 -17.8789,2.04088 -28.707,1.31477 -3.1045,-0.20818 -5.8442,-0.37959 -6.0883,-0.38095 -0.3545,-0.003 -0.2209,0.34598 0.6641,1.72938 0.6093,0.9525 2.0119,3.46364 3.1169,5.5803 9.3675,17.94395 27.1684,49.47371 41.7651,73.97629 l 6.1646,10.34804 0.5547,-1.88137 c 0.3051,-1.03473 1.1018,-3.2668 1.7703,-4.96013 z m 73.6028,-74.7464 c 2.9222,-1.97073 4.0214,-2.47034 7.6744,-3.48814 l 1.455,-0.40537 0.4051,-1.78121 c 0.6877,-3.02339 0.853,-2.83459 -2.4812,-2.83341 -5.0839,0.003 -10.8377,1.24329 -11.092,2.39325 -0.2102,0.95075 -0.6441,6.37514 -0.645,8.06373 v 1.60648 l 1.4133,-1.15118 c 0.7774,-0.63315 2.2494,-1.71501 3.2712,-2.40415 z m -103.7189,-18.0017 c 2.0461,-0.2767 4.2205,-0.57966 4.8319,-0.67323 l 1.1117,-0.17012 -1.7906,-1.82347 c -0.9849,-1.00291 -1.9888,-2.21806 -2.231,-2.70033 -0.5611,-1.11739 -1.4011,-5.16222 -1.4055,-6.76758 v -1.23031 l -0.9621,0.17231 c -6.6554,1.19195 -18.0092,6.03229 -21.0435,8.9712 -1.751,1.69603 -1.7488,2.28803 0.012,3.16125 2.1408,1.06172 5.8009,1.52913 12.1159,1.54722 4.2461,0.0121 6.566,-0.10848 9.3646,-0.48694 z m 23.7323,-43.00699 c 6.1113,-1.85795 11.6028,-2.65107 18.3998,-2.65738 7.0367,-0.006 13.265,0.92684 19.6002,2.93729 l 2.7842,0.88356 2.3488,-0.87974 c 9.6761,-3.62411 21.6192,-4.21537 31.5202,-1.56043 l 2.3018,0.61722 1.4896,-0.75199 c 3.7571,-1.89656 8.8308,-3.04372 13.47,-3.04554 1.4464,0 2.6298,-0.0503 2.6298,-0.1105 0,-0.0602 0.6424,-3.26406 1.4276,-7.1197 4.7857,-23.5011 10.4107,-39.61281 20.4963,-58.70819 4.1156,-7.79213 4.3902,-8.16657 10.5358,-14.36768 4.6376,-4.67942 5.7567,-5.96372 7.378,-8.46667 10.2989,-15.89988 15.7413,-32.07876 17.6478,-52.46318 0.1582,-1.69084 0.3968,-3.27834 0.5303,-3.52778 0.3456,-0.64572 1.6681,-0.59905 2.027,0.0715 0.39,0.72888 0.6839,2.657 1.2779,8.3848 1.5581,15.02335 -0.4329,28.03393 -6.6979,43.76727 -0.8325,2.09076 -1.5137,3.89413 -1.5137,4.00751 0,0.11337 0.8371,-0.23029 1.8601,-0.76369 2.145,-1.1184 4.4659,-1.91858 6.8262,-2.35348 l 1.6542,-0.3048 2.1116,-3.24551 c 5.2979,-8.14329 8.7927,-14.43682 10.2172,-18.39957 2.351,-6.54007 2.2409,-13.09291 -0.35,-20.84178 -2.0766,-6.21051 -0.896,-3.80294 -29.3782,-59.90808 -7.88,-15.52222 -14.3669,-28.27274 -14.4153,-28.33449 -0.048,-0.0618 -0.5977,0.3879 -1.2206,0.99922 l -1.1325,1.11149 1.5535,3.09911 c 7.9567,15.87264 16.51,36.31002 21.7931,52.07261 2.6577,7.92947 2.8301,9.40863 1.0966,9.40863 -0.718,0 -1.198,-0.66377 -1.8652,-2.57939 -0.2677,-0.76857 -1.4648,-3.64875 -2.6603,-6.40041 -12.6775,-29.18052 -31.6122,-62.39443 -53.3131,-93.51818 -13.7075,-19.65956 -25.6373,-33.09195 -32.3128,-36.38279 -1.4595,-0.71944 -1.918,-0.81923 -3.7647,-0.81923 -2.2993,0 -3.1626,0.38511 -3.9382,1.75675 -0.6978,1.23422 -0.215,1.75634 4.8996,5.29881 2.8833,1.99696 8.1831,7.06459 10.2332,9.78484 0.8122,1.07777 2.4996,3.6755 3.7496,5.77273 5.4486,9.14124 13.8483,20.85787 22.4145,31.26584 8.9711,10.8998 11.6399,14.89771 22.8644,34.25133 9.5472,16.46138 13.8371,27.15763 16.7727,41.8202 2.9556,14.76263 3.2044,29.15892 0.7517,43.48788 -0.8284,4.83942 -2.3076,10.67775 -3.6682,14.47797 -3.2358,9.0376 -18.4165,39.45885 -28.9439,58.00182 -5.8757,10.34955 -8.6669,13.89442 -15.8483,20.12781 -11.3168,9.82282 -20.5496,16.03786 -32.9976,22.21217 -4.7964,2.37908 -5.429,2.62613 -6.799,2.65522 -1.393,0.0296 -1.517,-0.0138 -1.5943,-0.55931 -0.1141,-0.80511 0.231,-1.15514 2.2135,-2.24488 4.4226,-2.43096 12.264,-7.97921 17.6187,-12.46632 6.629,-5.55497 12.5673,-12.09042 16.9845,-18.69237 1.596,-2.38552 3.7712,-6.14813 3.6337,-6.28565 -0.056,-0.0563 -1.2208,0.34775 -2.5877,0.89783 -11.3059,4.54975 -24.4941,7.18732 -35.9077,7.18132 -22.8626,-0.0121 -43.7847,-9.41588 -63.9262,-28.73289 -7.1449,-6.85235 -16.5336,-18.29354 -24.2767,-29.58379 -1.6214,-2.3641 -2.9815,-4.1978 -3.0225,-4.07485 -0.098,0.29454 3.0429,8.62058 5.1483,13.64652 9.1026,21.72985 21.7205,42.72824 36.0758,60.03636 3.6414,4.39053 6.5342,7.55219 11.7504,12.8425 2.5816,2.61838 4.6939,4.93324 4.6939,5.14414 0,0.58266 -0.5392,0.99922 -1.2933,0.99922 -1.0429,0 -5.7585,-3.35121 -11.1502,-7.92385 -8.1685,-6.92779 -20.1914,-20.33242 -30.0268,-33.47779 -0.8307,-1.11036 -1.5454,-1.91395 -1.5881,-1.78577 -0.043,0.1282 0.6589,2.13347 1.5592,4.45621 5.8011,14.96652 15.5292,33.31381 24.3452,45.91504 3.0334,4.33583 3.7698,5.19612 4.2655,4.98299 0.2303,-0.099 1.6888,-0.56617 3.241,-1.03809 z m 116.988,-36.74215 c 4.8944,-5.02002 8.9508,-8.12459 13.689,-10.47673 l 2.6701,-1.32552 2.76,-5.60175 c 5.6542,-11.47562 11.1236,-17.90592 18.3454,-21.56868 6.145,-3.11658 12.2738,-3.6801 19.9473,-1.83409 l 2.2443,0.53992 2.1444,-2.02979 c 1.3145,-1.24432 2.8536,-2.40251 3.9774,-2.99305 1.0082,-0.52978 1.8331,-1.06454 1.8331,-1.18836 0,-0.44239 -3.7696,-2.88944 -6.5424,-4.24708 -3.4898,-1.70863 -6.4383,-2.56928 -10.7027,-3.12402 -2.8335,-0.36861 -3.6912,-0.38411 -6.1719,-0.11145 -11.1699,1.22769 -20.7747,6.18826 -29.6984,15.33828 -11.3907,11.67957 -18.5461,26.90961 -20.8976,44.48017 l -0.1546,1.15455 1.736,-1.92424 c 0.9547,-1.05834 3.124,-3.34801 4.8206,-5.08816 z m -288.0749,0.26855 c 1.3729,-2.80347 3.2148,-4.93838 5.6315,-6.52727 l 1.6304,-1.07193 -0.1486,-9.50524 c -0.1293,-8.26644 -0.229,-10.02761 -0.7655,-13.51329 -0.3392,-2.20441 -0.966,-6.99577 -1.3929,-10.64747 -0.4269,-3.65167 -0.9543,-7.67373 -1.1721,-8.93785 -0.4267,-2.47742 -0.8531,-3.6399 -0.8669,-2.3631 0,0.39953 -0.8085,4.7868 -1.7871,9.7495 -2.0655,10.47442 -2.5109,13.7542 -2.8453,20.95343 -0.1345,2.89278 -0.4755,9.53141 -0.758,14.75252 -0.2825,5.22112 -0.5147,9.69311 -0.516,9.93777 0,0.41979 0.049,0.42046 0.9048,0.0123 0.7529,-0.35904 1.1076,-0.84187 2.0857,-2.83931 z m 506.60069,-95.98226 c 11.59127,-7.75372 24.38844,-19.96355 31.89537,-30.43146 2.46277,-3.43421 4.49066,-7.57477 4.64927,-9.49293 0.21606,-2.61312 -1.15198,-4.49944 -3.86134,-5.32427 -1.70539,-0.51919 -7.02915,-0.37228 -10.07315,0.27796 -9.444,2.0174 -20.72173,6.77146 -27.33607,11.52339 l -1.21491,0.87284 2.38916,2.35432 c 3.62348,3.5707 4.95311,6.65913 5.21096,12.10384 0.21153,4.46702 -1.03794,9.71974 -3.99938,16.81319 -0.8229,1.97109 -1.40015,3.58378 -1.28275,3.58378 0.11738,0 1.74768,-1.02629 3.62284,-2.28066 z m -396.39609,-94.63701 c 0.9833,-1.13743 6.6272,-11.12084 9.2465,-16.35606 6.3119,-12.61543 9.5244,-22.90953 9.8736,-31.63966 l 0.147,-3.674 -1.4016,-1.45731 c -3.6205,-3.76452 -10.4801,-12.00993 -15.0861,-18.13408 -12.1866,-16.20311 -19.6671,-31.02851 -23.6143,-46.80059 -2.2737,-9.08533 -3.6308,-18.90895 -4.3628,-31.58021 -0.2264,-3.92071 -0.736,-24.93792 -0.7607,-31.38032 0,-1.016 -0.1071,-1.6849 -0.2465,-1.5987 -0.3974,0.2456 -4.207,10.1791 -6.0061,15.6608 -6.5125,19.84369 -9.4045,37.76786 -9.4046,58.28912 -10e-5,8.16963 0.3076,13.65385 1.1775,20.9897 3.6185,30.5148 15.6087,60.40102 32.2693,80.43333 1.8371,2.2089 7.252,7.69697 7.5943,7.69697 0.1025,0 0.361,-0.20205 0.5745,-0.44899 z m 182.7822,-3.7202 c 2.5059,-2.61784 5.8843,-6.82452 8.6025,-10.71162 10.6605,-15.24469 17.6827,-34.55617 20.1983,-55.54646 1.7267,-14.40792 1.6934,-27.05279 -0.1132,-42.97474 -2.0791,-18.32394 -8.281,-43.29788 -14.901,-60.00361 -1.7766,-4.4833 -4.1413,-9.5803 -4.8359,-10.4237 -0.4824,-0.5856 -0.514,-1.2606 0.3729,7.9536 1.7512,18.19227 1.706,34.89599 -0.1299,47.97775 -1.5508,11.04989 -4.6683,22.55849 -8.73,32.22694 -2.0092,4.78297 -6.3038,13.18346 -9.2189,18.03317 -3.9144,6.51209 -7.6336,11.81242 -14.3311,20.42372 -2.8907,3.71669 -4.2331,6.20452 -4.4365,8.22187 -0.4353,4.31755 7.7394,22.38267 15.4846,34.21925 3.1937,4.88072 9.2558,12.7205 9.8362,12.7205 0.097,0 1.0876,-0.9525 2.202,-2.11667 z m -90.1762,-48.91639 c 1.6767,-1.72409 3.0825,-4.42446 5.4888,-10.5427 2.3717,-6.03059 4.1247,-9.12194 6.7094,-11.83168 1.9282,-2.02154 3.6726,-3.15415 6.1084,-3.96608 1.8499,-0.61663 2.3059,-0.67033 4.6182,-0.54382 3.3651,0.18411 6.013,0.90399 9.5098,2.58544 6.9344,3.33445 14.0096,9.46429 20.9118,18.11776 1.6321,2.04611 3.5179,4.49952 4.1909,5.45202 0.6729,0.9525 1.3288,1.73182 1.4575,1.73182 0.1287,0 0.234,-0.46734 0.234,-1.03854 0,-0.57119 0.1818,-2.60618 0.4039,-4.5222 l 0.4039,-3.48367 -0.755,-0.80153 c -0.4152,-0.44085 -2.6955,-3.63017 -5.0673,-7.0874 -10.786,-15.72212 -15.5941,-21.91018 -22.0416,-28.36757 -5.2521,-5.26019 -7.9205,-6.87969 -12.7755,-7.75368 -2.0674,-0.37215 -2.4373,-0.37 -4.6792,0.0272 -3.2215,0.57082 -6.5579,1.6609 -11.5488,3.77338 -6.2604,2.64983 -7.3774,2.94648 -11.0323,2.92996 -3.8946,-0.0176 -5.8519,-0.58462 -5.9837,-1.73342 -0.1158,-1.00999 0.2443,-1.32962 2.0755,-1.84226 2.9177,-0.81681 5.0128,-2.06626 7.5001,-4.47273 2.9946,-2.89729 3.758,-3.45167 7.1281,-5.17643 2.1011,-1.07528 2.6915,-1.48122 2.3467,-1.61351 -0.2533,-0.0972 -2.9506,-0.28753 -5.994,-0.42291 -8.4869,-0.37753 -10.7254,-0.84014 -15.9454,-3.29528 -4.4842,-2.10906 -6.5167,-2.65529 -10.3697,-2.78677 -3.1806,-0.10853 -3.4485,-0.0773 -5.7727,0.67354 -9.6875,3.12939 -20.2181,14.40284 -31.1838,33.38369 -4.1862,7.24591 -9.6915,18.77999 -11.568,24.23606 l -0.6145,1.78656 1.857,1.8695 c 1.0214,1.02822 1.9333,1.86949 2.0266,1.86949 0.093,0 0.662,-0.83704 1.2638,-1.8601 1.6084,-2.73431 5.2186,-7.98809 7.0064,-10.19616 4.8865,-6.03527 10.3544,-10.46475 17.1016,-13.85398 3.9306,-1.97438 5.9188,-2.56855 8.5947,-2.56855 7.3911,0 14.7804,5.98495 24.2329,19.62728 1.4666,2.11666 3.5414,5.11189 4.6107,6.65606 2.2822,3.29556 4.4562,5.73083 5.5361,6.20148 1.6353,0.71269 2.4114,0.48836 4.0147,-1.1603 z"
       id="path566" /></g></svg>
