<?xml version="1.0" encoding="UTF-8" standalone="no"?>
<!-- Created with Inkscape (http://www.inkscape.org/) -->

<svg
   width="1282.8282mm"
   height="1282.8282mm"
   viewBox="0 0 1282.8282 1282.8282"
   version="1.1"
   id="svg241"
   xml:space="preserve"
   inkscape:version="1.2.2 (732a01da63, 2022-12-09)"
   sodipodi:docname="Hels Pit.svg"
   xmlns:inkscape="http://www.inkscape.org/namespaces/inkscape"
   xmlns:sodipodi="http://sodipodi.sourceforge.net/DTD/sodipodi-0.dtd"
   xmlns="http://www.w3.org/2000/svg"
   xmlns:svg="http://www.w3.org/2000/svg"><sodipodi:namedview
     id="namedview243"
     pagecolor="#505050"
     bordercolor="#eeeeee"
     borderopacity="1"
     inkscape:showpageshadow="0"
     inkscape:pageopacity="0"
     inkscape:pagecheckerboard="0"
     inkscape:deskcolor="#505050"
     inkscape:document-units="mm"
     showgrid="false"
     inkscape:zoom="0.13055262"
     inkscape:cx="4415.8441"
     inkscape:cy="1792.3808"
     inkscape:window-width="1920"
     inkscape:window-height="1009"
     inkscape:window-x="-8"
     inkscape:window-y="-8"
     inkscape:window-maximized="1"
     inkscape:current-layer="layer1" /><defs
     id="defs238" /><g
     inkscape:label="Layer 1"
     inkscape:groupmode="layer"
     id="layer1"
     transform="translate(2051.0356,992.97296)"><path
       style="fill:#000000;stroke-width:0.256566"
       d="m -1671.9041,159.76974 c -5.6479,-1.42761 -6.8488,-6.95763 -3.1446,-14.48116 0.6275,-1.27443 3.4623,-5.83453 6.2995,-10.13349 3.8599,-5.84842 5.1198,-7.94779 5.0042,-8.33839 -0.085,-0.28714 -0.3952,-1.44215 -0.6894,-2.56673 -1.2414,-4.74518 0.24,-8.70735 5.0371,-13.47188 1.2045,-1.19634 2.19,-2.2451 2.19,-2.33059 0,-0.0855 -0.6251,-0.58597 -1.3892,-1.11216 -1.7637,-1.21473 -3.768,-3.32809 -4.5446,-4.79185 -0.4949,-0.9329 -0.603,-1.52515 -0.6056,-3.316521 0,-1.914031 0.091,-2.368819 0.7666,-3.717713 0.9454,-1.887681 3.2549,-4.242749 5.646,-5.757384 9.76,-6.182539 16.5981,-11.209353 24.6256,-18.102758 3.8656,-3.319472 10.5905,-9.766146 12.2289,-11.723049 l 1.0084,-1.204499 -0.9018,-1.181382 c -1.0386,-1.360747 -1.6848,-3.289171 -1.6848,-5.028019 0,-0.665224 0.3477,-2.520424 0.7727,-4.122625 1.4285,-5.385467 2.0733,-8.773673 2.5705,-13.506975 0.5414,-5.15561 1.1368,-8.042358 2.2498,-10.908581 2.2994,-5.921869 6.6046,-8.888717 10.8562,-7.481326 1.8927,0.626533 4.0189,2.813345 7.4987,7.712363 1.5126,2.129598 3.0952,4.202443 3.5167,4.606328 l 0.7665,0.734343 1.6843,-1.655824 c 2.6065,-2.562475 5.3374,-6.355875 6.8842,-9.562663 1.7388,-3.604747 2.2052,-4.999977 3.7515,-11.2233356 2.1038,-8.4674102 3.3286,-11.7333112 5.3677,-14.3129761 2.6941,-3.4082693 6.7138,-4.4477193 11.1587,-2.8854913 0.8415,0.2957691 1.5628,0.5377361 1.6029,0.5377361 0.04,0 0.075,-1.9915911 0.078,-4.4257571 0.01,-5.164179 0.3825,-13.584663 0.7727,-17.254039 0.6148,-5.779783 2.5121,-13.162536 4.2826,-16.663246 1.661,-3.284425 3.6354,-5.483911 6.0147,-6.700263 0.952,-0.486705 1.2328,-0.783808 1.3727,-1.452469 0.6708,-3.204505 3.5269,-6.473793 6.4425,-7.374313 2.1155,-0.653421 2.9498,-0.653857 5.0578,-0.0028 3.1047,0.95894 5.5318,3.872037 6.4591,7.752541 0.2111,0.883407 0.5584,3.395724 0.7719,5.582946 0.5994,6.143541 2.0181,11.22685 4.5469,16.291918 2.2144,4.435301 5.7098,9.129709 8.4981,11.413297 1.7471,1.430789 2.0802,1.55702 1.872,0.709429 -0.3073,-1.25086 -0.9391,-5.642237 -1.3382,-9.300504 -0.278,-2.54939 -0.4902,-7.83241 -0.6286,-15.650504 -0.2238,-12.644248 -0.3961,-14.545194 -1.6742,-18.478525 -1.8059,-5.557725 -4.1494,-8.280707 -15.3869,-17.878751 -6.7948,-5.803412 -11.242,-10.221703 -13.6334,-13.544741 -4.211,-5.851367 -8.4174,-14.779747 -9.8455,-20.897837 -1.309,-5.60742 -1.2899,-9.5631 0.098,-20.40923 1.2551,-9.80897 1.5345,-14.25661 1.3743,-21.885 -0.2369,-11.28709 -1.8959,-20.21029 -5.6145,-30.19783 -1.4728,-3.95596 -5.0996,-11.57968 -7.2809,-15.30501 -7.0387,-12.02123 -18.0694,-24.97136 -30.7868,-36.14389 -4.5444,-3.99234 -10.1906,-8.58982 -10.5411,-8.58317 -0.1247,0.003 -1.0151,1.35859 -1.9786,3.01382 l -1.752,3.00952 1.4016,2.69476 c 2.7078,5.20584 3.7378,9.49657 3.9422,16.42104 0.2027,6.86814 -0.7088,13.04521 -2.9056,19.69121 -1.0718,3.24245 -3.3414,8.08826 -4.3491,9.28593 -0.7033,0.83582 -0.7066,0.85675 -0.4048,2.61651 0.8598,5.01365 0.9705,11.61704 0.2715,16.19368 l -0.2648,1.73379 1.064,1.20871 c 3.266,3.71045 5.1239,7.78389 5.1307,11.24922 0,2.40441 -0.6089,3.84687 -2.3735,5.57913 l -1.5203,1.49249 0.5374,1.24919 c 0.66,1.53416 1.3069,4.52033 1.3069,6.03258 0,2.45577 -0.9261,5.18168 -2.2356,6.58004 l -0.6397,0.68315 0.7305,1.75422 c 0.6445,1.54791 0.7306,2.07097 0.7321,4.44813 0,2.43191 -0.066,2.8214 -0.6897,4.00432 -0.9832,1.86362 -1.8345,2.78908 -3.3772,3.67174 -4.3868,2.50988 -10.3585,1.87849 -14.9426,-1.57983 -1.0697,-0.80705 -17.5038,-17.85433 -19.4804,-20.20734 -1.5093,-1.7966 -2.1191,-3.43767 -3.3598,-9.04048 -2.3571,-10.64434 -4.534,-17.00789 -7.3949,-21.6166 -1.8612,-2.9983 -2.0174,-4.29655 -1.1581,-9.62373 0.6888,-4.26976 0.8949,-9.02197 0.523,-12.05858 -0.1642,-1.34056 -0.7663,-4.74647 -1.3381,-7.56869 -1.2458,-6.14893 -1.2427,-7.47091 0.024,-10.39091 0.459,-1.05833 1.1609,-2.67469 1.5599,-3.59192 0.7557,-1.73756 2.7253,-8.26744 9.8797,-32.75494 5.5343,-18.94247 9.8663,-34.06719 9.8663,-34.44735 0,-0.16597 -0.5288,-1.11177 -1.175,-2.10178 -1.4445,-2.21283 -2.1473,-3.72672 -2.1547,-4.64135 -0.013,-1.58324 1.0076,-3.46287 3.1076,-5.72398 3.3634,-3.62147 4.2356,-6.27267 3.9995,-12.15616 -0.2586,-6.44405 -1.7699,-11.81497 -6.4567,-22.94597 -5.5564,-13.19656 -10.5877,-23.45272 -20.7246,-42.24664 -3.463,-6.42055 -7.9138,-14.73818 -9.8906,-18.48363 -1.9768,-3.74545 -4.7201,-8.82544 -6.0962,-11.28889 -5.4991,-9.84409 -8.6975,-16.52177 -10.514,-21.95103 -2.2878,-6.83812 -8.1183,-32.38541 -11.1613,-48.90519 -4.5631,-24.77226 -5.6839,-41.14566 -3.3368,-48.74462 1.0504,-3.40103 5.01,-8.62297 8.9237,-11.76877 l 1.0937,-0.87907 0.2834,-10.00606 c 0.2944,-10.39578 0.1265,-40.03224 -0.2457,-43.35959 l -0.2009,-1.79596 -1.5588,3.20707 c -6.8189,14.03029 -17.5858,42.69211 -33.058,88.00201 -1.6624,4.86834 -3.2005,9.05916 -3.418,9.31295 -0.2565,0.29936 -0.6688,0.43455 -1.1736,0.38485 -1.5956,-0.15704 -1.535,-0.48686 2.1115,-11.50848 7.9925,-24.15671 12.9487,-40.55872 14.0279,-46.42366 0.2208,-1.19944 0.5274,-2.8158 0.6816,-3.59192 0.154,-0.77611 1.4706,-5.04792 2.9255,-9.49292 4.012,-12.25676 5.9697,-18.86571 5.6756,-19.15981 -0.304,-0.30403 -7.9775,14.69682 -12.0977,23.6497 -3.1792,6.90801 -6.5518,14.53011 -12.8851,29.1202 -7,16.12585 -13.5184,30.82241 -17.5245,39.51111 -4.0131,8.70407 -9.3561,19.90231 -9.8705,20.6873 -0.4522,0.69011 -1.4407,0.80721 -1.9217,0.22763 -0.1847,-0.2226 -0.2641,-0.78055 -0.1915,-1.34697 0.2709,-2.11585 8.8593,-23.13658 23.6659,-57.92452 12.1278,-28.49421 17.4308,-41.88719 22.3458,-56.43569 0.7612,-2.25298 1.3804,-4.27344 1.3762,-4.4899 0,-0.23843 -0.3839,0.0259 -0.9621,0.67048 -11.1337,12.41247 -18.1908,23.59098 -26.3774,41.78238 -4.8351,10.7441 -8.8516,18.15433 -13.0025,23.98889 -2.5851,3.63359 -10.0628,12.59601 -19.801,23.73232 -5.468,6.2531 -6.5275,7.31212 -7.3154,7.31212 -0.7763,0 -1.2935,-0.41966 -1.2935,-1.04956 0,-0.2386 0.8201,-2.14937 1.8224,-4.24616 8.8324,-18.47698 13.0401,-28.92482 16.6377,-41.31148 l 0.5334,-1.83649 5.1559,-5.09078 c 15.2812,-15.08834 27.9343,-31.60899 35.8608,-46.8219 1.9071,-3.66034 4.9747,-10.64331 4.8457,-11.03055 -0.043,-0.12861 -1.5201,1.00163 -3.2826,2.51168 -8.7831,7.52494 -16.3425,15.60899 -23.4773,25.10677 -4.9577,6.59971 -7.3945,10.42452 -13.3218,20.90989 -5.4608,9.66013 -9.715,14.35929 -20.7533,22.92399 -2.9593,2.29616 -8.1784,5.5548 -8.8967,5.5548 -0.4948,0 -1.2818,-0.77804 -1.2818,-1.26723 0,-0.18085 0.9938,-3.75086 2.2084,-7.93332 3.1354,-10.79638 3.6188,-12.5175 4.73,-16.84086 0.9027,-3.51205 1.0632,-3.90788 1.836,-4.52785 0.4658,-0.37366 2.1317,-1.70139 3.7022,-2.9505 6.1599,-4.89969 14.5736,-12.60374 25.5969,-23.43781 6.603,-6.4897 19.4414,-19.79689 19.2674,-19.97089 -0.058,-0.0584 -2.5273,1.47617 -5.4866,3.41011 -5.4322,3.5501 -6.1863,3.8772 -6.7744,2.93837 -0.4935,-0.7876 0.072,-1.6852 2.3134,-3.66876 8.4547,-7.48392 20.4678,-23.55981 32.1341,-43.00176 1.7358,-2.89278 3.3916,-5.65242 3.6796,-6.13256 l 0.5237,-0.87299 -0.7507,0.17813 c -1.2155,0.28841 -4.9233,2.12696 -7.5937,3.76549 -1.3648,0.8374 -2.6712,1.52254 -2.9033,1.52254 -0.7199,0 -1.4143,-0.50785 -1.4143,-1.0344 0,-0.28579 1.2338,-1.83011 2.8556,-3.57439 10.2913,-11.06822 15.5452,-20.82551 25.5833,-47.5124 3.5256,-9.37321 5.1093,-13.19311 7.631,-18.40701 1.1871,-2.45441 2.1584,-4.50373 2.1584,-4.55404 0,-0.19707 -0.9878,-0.0735 -2.4442,0.30592 -1.8475,0.48119 -2.6228,0.3329 -2.8429,-0.54381 -0.2073,-0.82607 0.5105,-1.62914 2.4592,-2.7511 l 1.4168,-0.81578 -2.9505,-0.29626 c -5.6211,-0.56439 -7.697,-1.2426 -7.697,-2.51457 0,-0.78702 0.8753,-1.42943 1.9477,-1.42943 0.444,0 1.8327,-0.17477 3.0859,-0.38836 3.0249,-0.5156 5.2658,-1.65295 8.3078,-4.21657 4.4024,-3.71004 8.0509,-5.14451 13.0849,-5.14451 4.9206,0 9.2623,1.60713 12.8283,4.74853 1.0583,0.93232 2.386,1.93256 2.9505,2.22279 2.428,1.24847 3.24,2.29526 4.6129,5.94727 l 0.57,1.51625 5.2338,1.73905 c 7.8234,2.59953 28.5605,10.76244 31.1127,12.24719 1.0748,0.62523 1.2393,1.72474 0.3207,2.1433 -0.587,0.26744 -8.0847,-0.1591 -16.835,-0.95774 -2.8158,-0.257 -1.5595,0.14425 3.2949,1.05231 2.5478,0.47659 4.8692,0.99327 5.1587,1.14816 1.0584,0.56647 0.3999,2.31612 -0.8717,2.31612 -1.2508,0 -13.6425,-1.03999 -16.8302,-1.41253 -5.272,-0.61606 -12.827,-1.76904 -16.97,-2.58977 -0.6299,-0.12479 -0.7497,-0.0105 -1.3756,1.31269 -1.206,2.54906 -3.9611,5.02376 -8.0078,7.19262 -0.037,0.0198 0.3477,1.17958 0.855,2.57715 2.9809,8.21199 5.6253,19.77323 7.0365,30.76327 1.3332,10.38311 2.3067,31.02392 1.5315,32.47241 -0.3433,0.64139 -1.2785,0.6352 -2.5566,-0.0169 -2.0487,-1.04514 -2.2909,-0.45738 -0.9276,2.25137 1.4129,2.8076 1.9876,4.99628 2.1403,8.15186 0.1183,2.44527 0.077,2.89449 -0.2996,3.27121 -0.6505,0.6505 -1.2587,0.53609 -2.4525,-0.46131 -0.5912,-0.49388 -1.1686,-0.89797 -1.2832,-0.89797 -0.1146,0 -0.5771,0.89477 -1.0277,1.98838 -2.9631,7.19007 -7.6697,13.90257 -13.072,18.64273 l -2.4994,2.19317 -0.1785,3.40452 c -0.2273,4.3393 -0.7018,7.94969 -1.8219,13.86384 -1.8477,9.75621 -2.5913,16.18239 -2.8605,24.72056 l -0.1709,5.41825 1.9,-0.33423 c 1.045,-0.18382 2.7658,-0.40678 3.8242,-0.49548 l 1.9242,-0.16127 1.7305,-3.38336 c 4.6431,-9.07804 9.8356,-12.8924 18.7896,-13.80267 1.5551,-0.15807 3.9384,-0.21674 5.2962,-0.13038 l 2.4689,0.15707 0.1709,-1.08956 c 0.3235,-2.06263 1.4118,-6.02391 2.2103,-8.04462 1.8207,-4.60776 4.7918,-8.07912 8.3779,-9.78823 2.7137,-1.29335 4.8686,-1.4173 8.1284,-0.46759 2.5329,0.73796 3.4568,0.81534 4.0785,0.34169 0.3818,-0.29089 0.3282,-0.50949 -0.577,-2.35122 -0.549,-1.11678 -1.5181,-3.59905 -2.1538,-5.51616 -3.135,-9.45542 -3.5303,-18.45908 -1.2955,-29.51067 0.9628,-4.76111 2.0742,-8.49276 5.2181,-17.52032 8.0613,-23.14731 11.9637,-37.677 21.5573,-80.26408 3.2703,-14.5173 4.1301,-17.50996 7.5873,-26.40976 5.2104,-13.41279 14.2268,-34.04059 21.0865,-48.24184 3.1956,-6.61563 15.7433,-27.48042 21.632,-35.97055 6.7097,-9.67388 13.9383,-17.01081 20.405,-20.71078 2.7208,-1.5567 5.6042,-2.75289 8.5065,-3.52895 2.2251,-0.59496 3.0247,-0.67573 6.8794,-0.69488 4.8965,-0.0244 4.5617,-0.0935 11.6737,2.41116 7.9765,2.80909 13.6056,3.85302 20.7764,3.85302 6.3569,0 9.4149,0.58912 13.4409,2.58936 2.5416,1.26277 4.0816,2.38303 6.84,4.97568 1.2032,1.13089 2.8195,2.3916 3.5919,2.80158 2.1194,1.12498 6.7768,4.25563 9.2296,6.20403 3.2298,2.56567 9.5241,8.99076 12.6711,12.9344 3.776,4.73194 8.4316,11.74343 13.884,20.9101 2.518,4.23333 8.5963,14.3644 13.5074,22.51349 15.8947,26.37458 19.744,33.03917 26.2654,45.4764 7.1485,13.63315 10.9507,20.47455 26.1648,47.0798 12.2823,21.47844 17.3263,30.93004 19.741,36.99117 0.524,1.31541 1.0441,2.48645 1.1558,2.60234 0.4198,0.43575 11.5034,-15.93649 12.1757,-17.98556 0.2185,-0.66604 0.9283,-3.68797 1.5772,-6.71542 2.8869,-13.46893 5.1393,-17.37886 19.3799,-33.64243 12.5204,-14.29894 15.2142,-18.14127 19.0523,-27.17535 9.0651,-21.33761 18.9129,-38.95005 28.4759,-50.92828 2.6879,-3.36671 8.4591,-9.10207 11.202,-11.13235 5.5271,-4.09115 11.3357,-5.82099 16.0608,-4.78301 9.8485,2.1635 12.7277,12.73089 8.8103,32.33556 -2.204,11.02981 -7.0343,25.44965 -11.7742,35.14949 l -1.7551,3.59192 -0.1294,7.18384 c -0.1295,7.18953 -0.4413,10.74856 -1.4837,16.93333 -4.2037,24.942 -15.3649,50.19065 -28.7658,65.07326 -0.9697,1.07698 -1.8742,2.34547 -2.01,2.81886 -0.1358,0.47341 -0.4293,2.18996 -0.6523,3.81461 -0.8808,6.4172 -5.6951,17.90913 -13.4368,32.07407 -1.2725,2.32833 -2.3156,4.31992 -2.318,4.42576 -0.01,0.35791 2.5951,0.19524 5.1246,-0.32022 5.1881,-1.05728 11.7065,-3.81159 15.5705,-6.57924 1.1541,-0.82668 4.7713,-3.75443 8.0381,-6.5061 3.2668,-2.75166 6.3754,-5.29754 6.908,-5.6575 0.783,-0.52914 1.7249,-0.76829 4.9185,-1.24868 19.9922,-3.00736 27.5693,-5.5402 38.8745,-12.99477 5.962,-3.93133 12.5748,-9.55001 17.0793,-14.51181 2.2393,-2.46657 1.0673,-1.8776 13.2922,-6.67964 15.53,-6.10028 33.1142,-12.47152 46.8233,-16.96545 5.5712,-1.82629 6.4745,-2.21891 16.1636,-7.02543 11.3276,-5.61938 15.6452,-7.59381 23.4757,-10.73553 22.5947,-9.06524 36.9094,-9.95293 43.4362,-2.69361 0.6102,0.67872 1.5344,2.0828 2.0537,3.1202 3.531,7.05414 1.7045,14.42894 -5.8018,23.42549 -6.4214,7.69615 -19.841,17.60569 -33.5233,24.75489 l -3.7131,1.94013 -2.7981,3.20707 c -16.0777,18.42741 -27.5614,28.85783 -39.5114,35.88753 -11.0471,6.49857 -22.7613,9.70937 -33.4201,9.16031 l -3.3639,-0.17325 -3.3359,3.79653 c -12.7815,14.54629 -24.1407,21.37307 -38.0965,22.89548 -1.3702,0.14947 -2.9997,0.27178 -3.621,0.27178 h -1.1296 l -2.463,3.65606 c -3.6926,5.48132 -7.151,9.43641 -11.3219,12.94797 -1.2655,1.06541 -1.2691,1.07293 -0.7822,1.61102 0.741,0.81871 4.3628,2.50316 6.6718,3.10291 1.4147,0.36748 2.9294,0.5423 4.8747,0.56265 2.6231,0.0274 3.148,-0.0588 7.4404,-1.22202 4.3436,-1.17715 4.8012,-1.25107 7.697,-1.24299 3.7434,0.0105 5.418,0.38377 10.1118,2.25424 5.4434,2.16921 8.9086,2.99145 14.8081,3.51374 6.6691,0.59044 11.7245,-0.30249 22.8286,-4.03218 3.9661,-1.33217 7.4441,-2.42211 7.7288,-2.42211 0.2848,0 1.0229,0.18016 1.6404,0.40037 5.5699,1.98636 21.4039,6.38246 28.0621,7.79103 8.7043,1.84144 13.2815,2.25439 28.607,2.58089 13.0946,0.27897 19.8349,0.57202 26.9394,1.1712 22.6465,1.91 33.3926,6.15262 34.0539,13.44463 0.1691,1.86541 -0.4551,4.28747 -1.5838,6.14554 -1.0524,1.73241 -4.019,4.65 -6.2763,6.17264 -5.0276,3.39123 -13.1181,6.38679 -21.8026,8.07248 -3.5061,0.68054 -9.4462,1.42848 -11.3489,1.42899 -1.1052,0 -1.3946,0.16333 -4.2944,2.41946 -5.388,4.1919 -10.172,7.08219 -15.5231,9.37827 -17.9943,7.72106 -39.1808,7.41257 -56.3917,-0.82111 l -3.7599,-1.7987 -3.4239,1.68902 c -7.9918,3.94228 -16.9095,5.91104 -26.7715,5.9104 -7.5272,0 -11.6152,-0.82127 -16.7349,-3.36001 l -2.3672,-1.17384 -1.9944,0.65547 c -1.0969,0.36051 -2.5542,0.73789 -3.2385,0.83862 l -1.244,0.18316 2.0137,2.03546 c 3.0221,3.05465 5.2218,4.41893 11.5067,7.13663 3.7289,1.61241 3.2566,1.11078 5.3527,5.68478 3.4276,7.4795 8.8143,12.70336 16.7683,16.26126 2.4143,1.07993 2.5421,1.17871 3.3746,2.60811 4.3477,7.46455 8.3829,12.5905 15.4088,19.57352 8.0125,7.96378 15.5577,13.75341 27.7269,21.27566 8.0988,5.00611 14.7936,10.01866 19.667,14.72507 7.4144,7.16026 9.6739,12.35677 7.3968,17.01112 -1.2933,2.6434 -4.022,4.24147 -8.125,4.75845 -2.151,0.27104 -2.8885,0.25267 -5.4937,-0.13678 -6.6971,-1.00109 -13.6652,-3.33094 -23.2088,-7.76003 l -2.9648,-1.37591 -1.91,0.39398 c -2.7096,0.55891 -11.3592,0.77973 -14.8178,0.37826 -3.3067,-0.38382 -8.5388,-1.68628 -11.8083,-2.9395 -11.4818,-4.40097 -21.5703,-13.33482 -27.5695,-24.41417 l -1.3366,-2.46837 -2.6238,-0.98151 c -10.7806,-4.03278 -22.4862,-12.36234 -27.0844,-19.27288 -0.8002,-1.20276 -1.6302,-2.60607 -1.8443,-3.11848 -0.34,-0.81383 -0.722,-1.09466 -3.0194,-2.22004 -2.9825,-1.46098 -6.1943,-3.75276 -9.0176,-6.43464 l -1.927,-1.83047 -2.1133,0.53443 c -2.6852,0.67903 -7.7048,0.74017 -10.1626,0.12377 l -1.6374,-0.41064 -0.9249,1.11619 c -2.708,3.26832 -6.2758,6.11119 -9.8632,7.85912 l -2.4845,1.21061 -0.019,21.29495 c -0.026,28.76393 -0.4774,42.06167 -2.0887,61.57575 -5.5191,66.84184 -22.5571,106.07362 -51.0348,117.51325 -15.7555,6.32901 -33.3207,3.93648 -49.5172,-6.74465 -5.4892,-3.61997 -8.9941,-6.49542 -14.4372,-11.84431 -2.9904,-2.93862 -5.1632,-4.88695 -5.2933,-4.74646 -0.1213,0.13108 -1.1759,2.48969 -2.3434,5.24135 -8.3297,19.63133 -21.1232,46.71643 -25.5707,54.13535 -0.9728,1.62278 -3.9091,5.95233 -6.525,9.62122 -6.5092,9.12929 -9.0896,12.87708 -12.2768,17.83131 -7.4932,11.64767 -9.8676,16.67569 -11.6592,24.68969 -1.3244,5.92436 -1.5411,8.37479 -1.5378,17.38707 0,9.44152 0.276,12.64135 2.2728,26.68283 2.6106,18.357299 2.7701,27.488649 0.663,37.971716 -1.9622,9.761989 -4.551,14.285626 -16.2982,28.478786 -4.7414,5.728598 -6.3668,7.908662 -7.6518,10.262626 -0.9877,1.809378 -2.0694,4.854837 -2.3559,6.632889 l -0.1799,1.116702 0.8608,-0.171438 c 1.3402,-0.266956 5.5282,-2.345882 7.389,-3.667939 2.0548,-1.459935 6.43,-5.666124 8.6042,-8.27183 3.174,-3.804099 4.9028,-6.499911 5.3758,-8.383 0.8817,-3.509921 2.9696,-6.616674 5.5813,-8.304722 5.0675,-3.27524 10.2522,-1.692512 12.9305,3.947339 1.7154,3.612085 2.1842,8.337563 1.5312,15.434322 -0.9374,10.1864 -2.5736,19.1280975 -5.6222,30.7237356 -0.7133,2.712925 -1.0225,4.2974744 -0.8387,4.2974744 0.1602,0 1.099,-0.2395297 2.0864,-0.5322967 2.2749,-0.6745624 6.8385,-0.9302044 9.2157,-0.5162357 2.8626,0.498507 5.6907,1.510171 10.1541,3.6323534 5.2339,2.488507 7.4867,3.149934 10.7758,3.163762 2.9364,0.01232 4.6661,-0.457713 6.8294,-1.855944 1.4814,-0.957477 1.5756,-1.083374 2.2633,-3.0226255 3.5017,-9.8755707 9.5329,-14.1838465 15.6289,-11.1641972 0.867,0.4294908 2.188,1.3189269 2.9354,1.97655598 l 1.359,1.19567286 1.7198,-1.66021064 c 1.936,-1.8690037 3.1784,-2.5879006 5.5005,-3.1827994 4.2712,-1.0942268 8.8505,1.0435808 10.7933,5.03869265 1.1642,2.39396265 3.1724,10.80054125 4.3823,18.34444325 1.9532,12.179043 2.1312,22.499319 0.5482,31.782813 -1.0751,6.304536 -2.5528,10.507363 -5.3078,15.095937 -0.8232,1.371113 -1.4968,2.562116 -1.4968,2.64668 0,0.355549 4.9914,5.749482 5.1571,5.57299 0.1,-0.106346 0.8376,-1.867464 1.6394,-3.913575 1.4927,-3.809281 3.6228,-8.114119 5.0613,-10.228836 1.3212,-1.942073 3.851,-4.264275 5.4921,-5.041207 4.0404,-1.912876 8.8676,-0.592538 11.9112,3.257973 3.1038,3.926507 4.5851,9.113135 4.7958,16.791939 0.2373,8.64616 -1.1269,15.713466 -4.5816,23.734426 l -1.2861,2.986008 16.8527,19.84833 c 9.2689,10.91659 17.4095,20.6903 18.0901,21.71939 1.8838,2.84854 2.3967,4.36313 2.4071,7.10874 0.01,2.01435 -0.078,2.47491 -0.6745,3.60821 -1.7901,3.40347 -6.1235,5.44481 -10.9858,5.17495 -1.9621,-0.10888 -10.0817,-2.45207 -80.9817,-23.37 l -78.801,-23.24897 -3.1717,1.51717 c -6.0989,2.91733 -12.8219,4.7986 -19.3886,5.42549 -11.2898,1.07776 -23.4577,-2.60981 -31.7091,-9.60966 -0.9372,-0.79513 -1.8051,-1.44567 -1.9285,-1.44567 -0.1234,0 -31.5016,10.89559 -69.7294,24.21245 -73.9968,25.77721 -74.815,26.05758 -77.9718,26.72157 -2.4278,0.51064 -7.2934,0.71969 -8.6674,0.37238 z m 79.636,-34.38044 c 41.6828,-14.53847 76.3864,-26.67187 77.119,-26.963098 l 1.3319,-0.529474 2.8128,2.554422 c 7.2531,6.58706 14.1074,9.85148 22.8121,10.8646 7.4236,0.86401 17.0301,-1.87003 24.9816,-7.10977 l 2.1478,-1.41529 81.015,24.02291 c 44.5582,13.21259 81.1336,23.98335 81.2786,23.93503 0.2405,-0.0802 -15.8594,-19.65185 -16.1978,-19.69069 -0.081,-0.009 -0.8806,1.65726 -1.7776,3.70337 -0.8971,2.04611 -1.7042,3.7202 -1.7937,3.7202 -0.089,0 -1.1945,-0.35113 -2.4557,-0.78032 -22.1225,-7.52825 -48.1454,-15.33262 -87.2163,-26.15653 -29.4086,-8.14714 -35.811,-9.93643 -44.5925,-12.462342 -4.6292,-1.33155 -8.6317,-2.421005 -8.8945,-2.421005 -0.2627,0 -1.382,0.537941 -2.4872,1.195416 -4.6067,2.740331 -10.6967,5.091881 -15.2228,5.878021 -3.5922,0.62394 -9.7639,0.3985 -13.1142,-0.47908 -6.2903,-1.64772 -12.3512,-5.127443 -18.2692,-10.488895 l -2.0068,-1.817999 -68.3882,23.665924 c -39.8206,13.78004 -68.4553,23.56119 -68.5488,23.41526 -2.453,-3.82791 -4.8372,-7.21635 -5.0354,-7.15598 -0.2614,0.0796 -13.6905,20.40549 -13.7136,20.75652 -0.01,0.10583 0.087,0.19243 0.2079,0.19243 0.1213,0 34.3247,-11.89513 76.0076,-26.43363 z m -53.9695,7.09104 c 12.285,-5.52132 26.7725,-11.10822 49.9646,-19.26813 20.5131,-7.21732 21.3339,-7.51322 35.4061,-12.7634 20.0957,-7.497513 29.6734,-10.547437 37.7363,-12.016789 4.3373,-0.790401 11.92,-0.974102 15.554,-0.376817 5.1546,0.847205 10.7789,3.139003 15.7077,6.400671 1.4011,0.927202 2.6005,1.632835 2.6653,1.568052 0.065,-0.06476 -0.3471,-1.073522 -0.9152,-2.241691 -1.9561,-4.021897 -4.7688,-6.764353 -9.1724,-8.943134 -5.5957,-2.7686 -12.5208,-3.466253 -20.0274,-2.017632 -5.5071,1.062772 -51.4377,15.063789 -58.8665,17.94425 -4.9823,1.93186 -9.5422,3.41689 -14.239,4.63722 -2.2575,0.58656 -10.3393,3.23329 -17.9596,5.88161 -15.9362,5.53846 -23.2746,7.96298 -28.7922,9.51274 -3.2906,0.92425 -4.0071,1.05028 -4.5541,0.80107 -0.7824,-0.35652 -0.8936,-1.55453 -0.2001,-2.15602 0.247,-0.21415 2.1808,-0.87679 4.2975,-1.47248 7.9338,-2.23281 18.9507,-6.16355 18.5101,-6.60421 -0.055,-0.0554 -1.9337,-0.38533 -4.1741,-0.73329 -5.3316,-0.82804 -7.3913,-1.23269 -12.0101,-2.3595 l -3.8317,-0.9348 -7.2639,7.42575 c -4.9718,5.08262 -7.2319,7.56515 -7.1624,7.86746 0.09,0.39147 6.6016,10.96295 6.7583,10.97193 0.034,0.003 1.1904,-0.50333 2.5688,-1.12286 z m 326.3694,-5.86822 c 0.6446,-2.63549 1.1123,-4.8515 1.0394,-4.92447 -0.1253,-0.1252 -40.3151,-10.48014 -53.3341,-13.74158 -3.3161,-0.83071 -8.4539,-2.15194 -11.4172,-2.93603 -2.9633,-0.78409 -7.697,-1.89007 -10.5192,-2.45772 -5.6143,-1.12928 -7.2017,-1.53786 -12.5717,-3.23586 -3.886,-1.22877 -34.9586,-9.262687 -38.7414,-10.016682 -1.777,-0.354215 -3.4916,-0.457175 -7.4404,-0.446809 -4.8482,0.01283 -5.2587,0.05244 -7.4404,0.719641 -2.2143,0.677179 -4.6684,1.88568 -6.0293,2.969131 l -0.6414,0.510643 7.0555,-0.05565 7.0556,-0.05562 65.5386,19.185746 c 36.0462,10.55216 65.5954,19.24252 65.6648,19.3119 0.3935,0.39352 0.7225,-0.49797 1.7812,-4.82664 z m -7.1392,-11.59017 c 0,-0.10163 -8.5922,-10.32351 -9.3601,-11.13536 -0.2694,-0.28482 -0.6915,-0.16864 -2.4737,0.68082 -2.6683,1.27172 -6.2199,2.51221 -10.8101,3.77562 -1.9413,0.53435 -3.4689,1.03239 -3.3946,1.10675 0.1487,0.1486 24.8662,5.61273 25.5895,5.65686 0.247,0.0151 0.449,-0.0231 0.449,-0.0847 z m -24.4095,-9.24922 c 3.3502,-0.55734 8.226,-2.20588 10.8116,-3.65545 2.7612,-1.54806 6.3889,-5.054852 7.9152,-7.651527 1.2053,-2.050499 2.4282,-5.227423 3.0468,-7.914896 0.6032,-2.620588 0.5912,-10.934212 -0.021,-14.26328 -0.5356,-2.914303 -1.9413,-8.510359 -2.2114,-8.802946 -0.1056,-0.114403 -1.0287,1.848324 -2.0515,4.361615 -3.0838,7.57818 -3.8372,9.294116 -5.6671,12.907997 -3.1182,6.15832 -6.0901,10.150917 -9.9612,13.382079 -5.0707,4.232564 -10.8124,7.179428 -19.4642,9.989738 -1.4856,0.48258 -2.49,0.9319 -2.3091,1.03309 0.2936,0.16433 5.4053,0.85231 8.1452,1.09626 2.2722,0.20232 9.4084,-0.0904 11.7663,-0.48268 z m -260.25,-0.13265 c 10.2143,-0.72659 13.4652,-1.40231 25.4513,-5.29007 11.1464,-3.615396 12.4424,-4.174299 22.783,-9.825567 7.0512,-3.853565 23.6726,-12.183892 27.4946,-13.779807 1.2469,-0.520649 5.1534,-1.958263 8.6812,-3.194704 3.5277,-1.236442 6.2409,-2.30904 6.0292,-2.383547 -0.551,-0.193963 -3.8848,-0.622941 -6.2858,-0.808823 -2.4222,-0.187549 -7.516,0.166973 -15.2127,1.058795 -9.8298,1.138972 -23.9989,1.122347 -33.4065,-0.0392 -11.8081,-1.457908 -21.664,-4.613615 -30.0272,-9.61413 l -3.1243,-1.868157 -0.6783,0.870116 c -0.3731,0.478572 -1.5297,1.85261 -2.5702,3.053414 -11.0656,12.769605 -24.6353,24.070783 -38.9926,32.473718 -2.9984,1.754883 -3.371,2.045239 -2.9861,2.326691 0.6755,0.49394 7.8612,2.794181 11.8372,3.789271 5.009,1.25358 8.0864,1.84904 12.6627,2.45009 7.3217,0.96166 12.6343,1.18811 18.3445,0.78191 z m 234.8858,-4.61941 c 8.0984,-0.69842 14.9058,-2.94586 19.9638,-6.591067 2.3433,-1.688767 6.4625,-5.353884 6.4625,-5.750098 0,-0.259439 -11.8653,-14.291168 -12.4276,-14.696696 -0.2053,-0.148064 -1.4885,0.227189 -3.6303,1.061643 -6.7243,2.61974 -12.1824,4.00794 -18.9633,4.823075 -2.8716,0.345183 -4.9555,0.404527 -10.391,0.295871 -7.6948,-0.153811 -9.7367,-0.390108 -19.2993,-2.233455 -13.1065,-2.526504 -21.5294,-3.408269 -27.3494,-2.86317 -1.8132,0.169821 -4.1426,0.543175 -5.1765,0.829682 -2.5496,0.706531 -5.7273,2.295775 -5.3483,2.6748 0.072,0.07227 1.3916,0.358935 2.9317,0.637026 5.5725,1.006148 11.445,2.878077 17.2606,5.501999 1.462,0.659631 5.7916,2.78774 9.6212,4.729146 9.7419,4.938453 11.9834,5.774472 23.1767,8.644082 11.8526,3.038632 15.9578,3.559052 23.1692,2.937162 z m -103.8613,-7.189456 c 3.7375,-2.437527 9.0986,-5.209591 12.5904,-6.510122 4.6337,-1.725814 9.8813,-2.830945 17.2168,-3.625811 0.9193,-0.09962 1.4123,-0.255129 1.2676,-0.399858 -0.1302,-0.130232 -1.3845,-0.53712 -2.7873,-0.904188 -3.4551,-0.904086 -9.509,-1.131788 -13.4638,-0.506409 -7.9438,1.256196 -14.239,5.243893 -16.8729,10.688165 -1.0521,2.17483 -1.4793,3.318625 -1.2393,3.318625 0.071,0 1.551,-0.927177 3.2885,-2.060402 z m -4.689,-12.443407 c 1.1079,-8.739601 1.0665,-24.868523 -0.1154,-44.891136 -0.6039,-10.23171 -1.339,-14.137922 -3.4608,-18.39001 -2.5154,-5.040745 -4.8383,-7.253931 -11.7953,-11.238011 -18.0784,-10.3528341 -28.6303,-22.319492 -35.3992,-40.145108 -1.5121,-3.981924 -2.9344,-8.689237 -4.6054,-15.241846 -0.8405,-3.296022 -1.5765,-6.041146 -1.6357,-6.100284 -0.1441,-0.144139 -0.9,5.561958 -1.3471,10.168799 -1.0955,11.288555 0.5594,20.833284 5.2714,30.403028 3.0219,6.1370505 6.9064,11.5190023 13.4258,18.6010093 l 2.9522,3.2070705 -0.1387,6.2858582 c -0.1092,4.945482 -0.047,7.070898 0.2907,9.967447 1.2183,10.444377 5.2508,20.03498 12.5796,29.918607 0.7365,0.993216 2.9876,3.821417 5.0024,6.284883 4.7338,5.788095 8.9155,11.284142 14.1316,18.573479 3.3146,4.632062 4.2326,5.76131 4.3737,5.380028 0.098,-0.265417 0.3098,-1.51815 0.4702,-2.783814 z m -54.3348,1.694616 c 9.2557,-2.219909 14.4582,-3.125919 20.876,-3.635612 5.2507,-0.417022 15.0782,-0.07035 19.3672,0.683131 0.8881,0.156043 0.891,0.153452 0.4184,-0.368762 -0.6623,-0.731853 -4.5324,-2.690988 -6.8578,-3.471589 -5.6694,-1.903153 -13.3584,-1.907899 -20.4938,-0.01257 -1.342,0.356472 -4.0564,1.290397 -6.032,2.075411 -5.0986,2.026022 -12.5311,5.684263 -11.6396,5.729085 0.089,0.0044 2.0519,-0.445065 4.3616,-0.999015 z m 63.0305,-6.753937 c 18.2696,-24.446498 37.5637,-70.4412509 42.0068,-100.139109 0.597,-3.990545 1.1597,-12.429065 0.8287,-12.429065 -0.077,0 -1.0955,1.35659 -2.2624,3.014646 -8.3465,11.859054 -14.1108,17.683684 -24.1094,24.3616514 -4.6074,3.0771713 -6.742,4.8298995 -10.1365,8.32306632 -4.3137,4.43902178 -6.9014,8.07288918 -9.4814,13.31426828 -1.6236,3.298511 -1.6161,3.205198 -0.5466,6.780876 0.8563,2.86258 1.5567,6.779465 2.1349,11.938821 0.3559,3.176667 0.4442,6.196419 0.4389,15.009089 -0.01,10.910352 -0.3129,17.671831 -1.2724,28.093938 -0.394,4.278643 -0.4366,5.131313 -0.2567,5.131313 0.064,0 1.2588,-1.529773 2.6561,-3.399495 z m 34.3651,-7.386653 c 16.7576,-5.095034 32.0269,-9.84273 33.9319,-10.550441 15.6596,-5.817626 25.8997,-14.446698 33.587,-28.302961 0.8594,-1.548964 1.5645,-3.1076 1.5671,-3.463637 0.01,-0.800972 -3.8494,-17.2436224 -4.1111,-17.5349783 -0.1042,-0.116019 -0.5554,0.5710638 -1.0026,1.5267963 -2.1822,4.663363 -5.3926,8.22924 -9.0702,10.074563 -3.5501,1.781335 -5.4844,2.172983 -10.7075,2.168005 -4.1847,-0.0041 -4.6932,-0.05785 -7.4801,-0.792428 -3.4904,-0.919968 -6.0989,-2.093191 -10.3296,-4.645916 -4.7032,-2.837899 -6.8158,-3.198681 -9.7162,-1.659467 -2.5859,1.372267 -5.3047,4.547549 -16.7657,19.580756 -12.8677,16.878376 -17.9127,23.638598 -22.7528,30.488721 -3.7923,5.367148 -8.3859,12.21096 -8.3859,12.493772 0,0.09649 0.1726,0.109169 0.3837,0.02817 0.2111,-0.081 14.0945,-4.315922 30.852,-9.410955 z m 53.5861,6.929941 c 10.9656,-0.875915 18.3627,-3.722126 23.9846,-9.228641 4.8523,-4.752724 7.5828,-10.294953 9.0273,-18.323122 0.4734,-2.630978 0.5589,-4.070774 0.5646,-9.51425 0.01,-6.645948 -0.1791,-8.873605 -1.2963,-15.522221 -0.7423,-4.417137 -3.1835,-14.4852085 -3.4406,-14.1897732 -0.099,0.1138125 -0.844,2.1696732 -1.6554,4.5685622 -10.7036,31.64596 -22.169,43.273874 -52.6111,53.357006 -3.5278,1.168477 -7.83,2.507057 -9.5605,2.974597 -1.7304,0.467539 -3.0582,0.930563 -2.9505,1.028905 0.2543,0.232243 5.8548,1.566718 10.5868,2.522605 6.2448,1.261507 10.2741,1.801219 18.0878,2.422723 2.3864,0.189833 6.1736,0.150425 9.2633,-0.09639 z m -116.403,-5.793406 c -0.1886,-0.227292 -2.3675,-2.03962 -4.842,-4.027363 -30.8363,-24.770925 -44.7124,-40.283473 -57.8779,-64.7038272 l -1.2449,-2.30909074 -0.605,2.05252514 c -4.7734,16.1958858 -9.3079,25.3536108 -16.0016,32.3164438 l -2.8433,2.957663 3.0285,3.365166 c 12.4228,13.803899 27.1501,22.840859 42.1815,25.883291 3.3642,0.680951 5.9571,0.962044 11.9303,1.293424 2.8222,0.156557 7.094,0.507539 9.4929,0.779986 4.3935,0.498943 14.4783,2.103376 15.9071,2.530712 1.1305,0.338128 1.254,0.3185 0.8744,-0.13893 z m -54.8425,-1.24342 c 2.7744,-0.369326 6.8883,-1.365853 6.8883,-1.668549 0,-0.09126 -1.2989,-0.666917 -2.8864,-1.279262 -24.5779,-9.480203 -39.1187,-19.715428 -48.6792,-34.265214 -1.02,-1.552222 -2.1478,-3.399494 -2.5062,-4.10505 -0.5643,-1.110647 -0.6789,-1.213966 -0.8541,-0.769697 -0.1113,0.282222 -0.621,3.803586 -1.1327,7.825252 -1.1114,8.734777 -1.9654,13.905653 -2.6663,16.144752 -0.2839,0.906806 -0.4493,1.756962 -0.3675,1.88917 0.2844,0.460176 5.1328,3.472334 8.6892,5.398321 11.2327,6.083043 23.2654,9.96075 34.2396,11.03417 2.2991,0.224879 6.7972,0.125999 9.2753,-0.203893 z m 41.446,-18.676157 c -0.073,-0.176389 -0.8812,-1.994798 -1.7951,-4.040909 -3.1378,-7.025511 -4.994,-12.568817 -6.1855,-18.472726 -0.9285,-4.600196 -1.1726,-7.203337 -1.175,-12.530358 v -4.705106 l -3.0992,-3.2484289 c -5.8394,-6.1205016 -9.0651,-10.5665019 -12.0363,-16.5898422 -3.9082,-7.9226959 -5.6931,-15.9890679 -6.4209,-29.0169839 -0.3506,-6.277289 -0.4859,-7.520606 -0.7639,-7.0202 -0.5159,0.928844 -2.0983,5.902908 -2.9275,9.202137 -1.3383,5.324969 -1.9506,9.88591 -2.1215,15.802724 -0.3516,12.1708073 1.994,23.6378547 7.2142,35.268001 5.5246,12.308377 15.0388,24.466869 26.0562,33.298217 2.866,2.297443 3.5335,2.718262 3.2567,2.053475 z m 28.6476,-51.6979766 c -5.0957,-11.1689184 -7.0166,-16.9389254 -7.9051,-23.7454574 -0.6689,-5.125104 -0.444,-9.131146 0.7716,-13.744017 0.8584,-3.257793 2.2662,-6.160987 5.02,-10.352731 1.272,-1.936275 2.7185,-4.456725 3.2143,-5.600956 3.4099,-7.868484 2.7517,-15.691683 -1.8296,-21.74712 -0.6741,-0.891026 -2.7978,-2.961178 -4.7193,-4.600324 -11.4813,-9.79424 -16.1574,-15.31584 -20.697,-24.439189 -1.9673,-3.9536 -3.4797,-7.78251 -5.3327,-13.50033 -1.561,-4.81691 -3.4932,-11.67709 -3.5262,-12.51966 -0.05,-1.28285 -0.765,1.28355 -1.1876,4.26382 -0.5562,3.92327 -0.6396,19.11609 -0.1264,23.039 0.8723,6.668117 2.63,12.681502 5.287,18.087879 1.7773,3.616293 3.4921,6.317133 6.9231,10.90404 2.7465,3.67189 3.848,5.86899 4.4252,8.82673 0.4734,2.425982 0.4819,2.222962 -0.4666,11.18539 -0.4627,4.371801 -0.3823,15.66364 0.1424,20.012119 1.8808,15.585824 7.646,27.0272408 16.8038,33.3480432 1.0467,0.7224375 3.4249,2.04693196 3.687,2.05337176 0.1041,0.0025657 -0.1137,-0.65921975 -0.4839,-1.47060856 z m 8.5436,-11.9484674 c 1.272,-2.521168 5.8105,-10.57602 8.1214,-14.413652 4.3797,-7.273482 7.5871,-11.847406 13.1867,-18.805133 7.1342,-8.864445 10.5888,-15.655225 11.7754,-23.146633 0.5662,-3.575371 0.3771,-10.604012 -0.3761,-13.979544 -1.7683,-7.923773 -4.8434,-14.81256 -10.9575,-24.546665 -10.0707,-16.03314 -13.4999,-21.89667 -17.4457,-29.82965 -6.6933,-13.457 -9.459,-23.60584 -9.4431,-34.65196 0.013,-9.22759 1.8132,-17.67337 6.2649,-29.39786 4.23,-11.14059 5.1885,-14.37475 5.6711,-19.13597 0.7491,-7.38853 -1.1677,-14.83204 -7.1094,-27.60767 -7.9075,-17.00219 -23.0962,-40.30125 -37.7545,-57.91405 -4.074,-4.89517 -9.1274,-10.42062 -9.235,-10.09773 -0.1044,0.31291 2.9914,7.56166 7.8736,18.43611 8.4083,18.7284 10.5578,23.74787 13.7336,32.07071 7.6965,20.17037 9.524,32.35098 6.8905,45.92525 -1.0056,5.1828 -2.7761,10.15972 -5.9611,16.75661 -3.8888,8.05447 -5.0262,10.87964 -6.4606,16.04777 -3.9678,14.29507 -1.9256,26.81532 6.1679,37.81452 2.2967,3.12135 6.0405,6.92129 11.1584,11.32573 15.5281,13.36358 24.8124,23.96856 30.1651,34.45617 2.5737,5.042544 4.0889,10.524274 4.0915,14.802378 v 1.63753 l -3.6625,-3.561773 c -7.3026,-7.101762 -11.7008,-9.657745 -20.7161,-12.039005 -10.4946,-2.77199 -13.6844,-5.65309 -18.7363,-16.92277 -2.2025,-4.91341 -2.7542,-6.02929 -2.9811,-6.02929 -0.2992,0 0.1284,8.34472 0.5456,10.64748 1.2157,6.71011 4.2795,12.71524 8.8092,17.26594 2.6176,2.629746 4.956,4.341168 10.0584,7.36151 7.9537,4.708107 10.2055,6.274543 13.3802,9.30756 7.1622,6.842785 9.0552,13.759358 6.5107,23.789715 -0.8848,3.488189 -2.0159,6.166966 -6.5551,15.524761 -5.5347,11.410218 -6.9046,15.053348 -7.959,21.166666 -0.4366,2.531635 -0.5002,3.636664 -0.3576,6.217919 0.097,1.748521 0.2757,3.07594 0.4042,2.996482 0.127,-0.07843 0.5325,-0.740603 0.9013,-1.471456 z m -60.4676,-90.494957 c -0.4476,-3.08408 -0.5765,-8.75264 -0.2678,-11.77808 1.0553,-10.34145 4.3158,-18.3769 10.6249,-26.18404 2.3153,-2.86515 3.8207,-5.62074 4.5853,-8.39311 0.4631,-1.67953 0.5512,-2.69268 0.5525,-6.35942 0,-3.86783 -0.079,-4.7091 -0.7125,-7.43111 -4.1136,-17.68292 -18.9325,-38.83606 -40.6238,-57.98807 -0.5997,-0.5295 -1.0904,-0.90919 -1.0904,-0.84377 0,0.0654 1.7772,3.74458 3.9494,8.17583 9.8082,20.0086 14.7493,33.24274 17.1854,46.02854 1.0015,5.2569 1.2808,8.11597 1.2906,13.21313 0.01,5.30708 -0.2534,7.61761 -1.5076,13.21313 -0.4745,2.11667 -1.0448,4.9453 -1.2673,6.28586 -1.9824,11.93964 -0.4604,22.71042 4.2228,29.88438 1.1803,1.80804 3.0507,4.08327 3.2186,3.91532 0.044,-0.0443 -0.028,-0.82666 -0.1601,-1.73859 z m 85.4674,-37.96212 c 1.4734,-8.99594 3.0934,-14.68059 5.7398,-20.1404 1.9811,-4.0873 4.4873,-7.90874 9.699,-14.78945 6.7146,-8.86468 9.1153,-12.85422 10.8402,-18.01393 2.095,-6.26695 2.3861,-13.30514 0.9988,-24.1542 -2.8782,-22.50824 -13.245,-48.02298 -25.3781,-62.46031 -1.996,-2.37506 -6.9854,-7.35184 -7.1777,-7.15952 -0.077,0.077 0.3916,1.2835 1.0415,2.68099 6.4085,13.78065 10.0997,25.4648 11.8261,37.43379 0.6225,4.31587 0.6198,14.44568 0,18.7293 -1.3182,9.03821 -3.6941,16.19385 -8.2999,24.99837 -4.2067,8.04156 -5.1689,10.02345 -6.4525,13.28997 -3.6603,9.31459 -5.1062,17.21063 -4.8284,26.3662 0.2079,6.85233 0.9391,11.10262 2.9996,17.43602 1.6314,5.01442 4.1369,10.40864 6.6189,14.24983 l 0.9118,1.41112 0.3442,-2.56566 c 0.1894,-1.41111 0.6941,-4.70157 1.1217,-7.31212 z m -168.4908,7.11069 c 0.6721,-0.49143 0.7994,-2.18445 0.2948,-3.92014 -0.8421,-2.89673 -2.526,-5.64442 -5.6666,-9.24642 -1.8886,-2.16606 -2.2513,-2.99148 -1.6004,-3.64231 0.6867,-0.68678 1.5141,-0.31399 3.4987,1.57641 2.1905,2.08668 3.7729,3.18503 4.9186,3.41417 0.6588,0.13178 0.7934,0.056 1.0388,-0.58515 1.0718,-2.80054 -2.2988,-10.7218 -6.7337,-15.82514 l -0.8495,-0.97749 -0.9539,0.40021 c -0.5246,0.22014 -1.633,0.40022 -2.463,0.40022 -1.2515,0 -1.6812,-0.12467 -2.5171,-0.73013 -1.6694,-1.20933 -2.3786,-2.83826 -5.0999,-11.7133 -1.3565,-4.42386 -2.5363,-7.52746 -4.1753,-10.98368 -1.6003,-3.37438 -1.5645,-2.65892 -0.3361,-6.71935 0.866,-2.86243 1.1841,-7.43253 0.8269,-11.87812 -0.1666,-2.07479 -0.4756,-4.69602 -0.6865,-5.82491 -0.6559,-3.50985 -0.7286,-4.44739 -0.3777,-4.87018 0.4089,-0.49263 1.6406,-0.50551 2.0424,-0.0213 0.3799,0.45772 1.6503,5.78392 2.2377,9.38143 0.5438,3.33078 0.61,10.41664 0.1295,13.85454 l -0.3408,2.43738 1.0307,2.56565 c 0.5668,1.41111 1.6216,4.52839 2.3439,6.92727 3.3911,11.26239 4.2396,13.31815 5.71,13.83438 0.621,0.21803 0.8156,0.14191 1.6131,-0.6311 2.5692,-2.49015 3.9065,-8.81033 3.6336,-17.17258 -0.2652,-8.12682 -1.6109,-13.18773 -4.8094,-18.08739 -1.6593,-2.54174 -1.6547,-3.72815 0.014,-3.72815 0.8687,0 1.6376,0.84895 3.311,3.65606 0.7361,1.23472 1.4948,2.24495 1.6861,2.24495 0.6284,0 2.7086,-2.65435 3.7198,-4.74647 2.2534,-4.66203 3.0706,-8.52082 3.2599,-15.39394 0.2119,-7.68947 -0.662,-12.63249 -3.1376,-17.74936 -2.0675,-4.27318 -4.9793,-6.67278 -8.8672,-7.3074 -2.279,-0.37197 -2.5905,-0.57271 -2.4899,-1.6042 0.064,-0.65345 0.3011,-0.91407 1.3601,-1.49362 2.928,-1.60246 3.8739,-1.84299 7.2898,-1.85364 l 3.1847,-0.01 2.2827,-4.16798 c 2.0019,-3.65542 2.2413,-4.22543 1.9466,-4.63509 -1.1624,-1.61544 -20.3286,-22.61775 -20.4865,-22.44914 -0.1071,0.11428 -0.4248,1.01595 -0.706,2.00373 -11.5453,40.5502 -15.6088,54.11403 -18.4381,61.5464 l -0.8678,2.27974 0.643,2.59501 c 1.5613,6.30151 2.0919,13.59883 1.6905,23.24682 l -0.2756,6.62237 1.4133,3.12407 c 2.7926,6.17295 4.6517,11.82037 7.5947,23.07054 l 0.8324,3.18193 6.3333,7.21519 c 7.6196,8.68059 10.373,11.19024 13.4403,12.25055 1.5794,0.54594 1.9713,0.56721 2.5573,0.13867 z m 3.6268,-27.29058 c 0.5549,-0.5549 0.3376,-1.76951 -0.6748,-3.77267 -0.8158,-1.61411 -3.2647,-5.03936 -3.6029,-5.03936 -0.1129,0 -0.2716,0.3175 -0.3526,0.70556 -0.081,0.38805 -0.4455,1.665 -0.8099,2.83769 l -0.6626,2.13214 0.8691,0.90483 c 1.1513,1.19847 2.148,1.89871 3.2771,2.30219 1.2288,0.43913 1.4552,0.43097 1.9566,-0.0704 z m 90.3547,-41.84486 c -0.502,-11.89161 -6.0607,-23.77583 -16.8275,-35.97594 -0.9304,-1.05428 -3.5254,-3.82519 -5.7667,-6.15757 -7.554,-7.86125 -9.9239,-11.0646 -13.3872,-18.09527 -3.1207,-6.33494 -4.3455,-10.40143 -4.8684,-16.16363 -0.2044,-2.25168 0.4134,-6.24746 1.2628,-8.16813 1.7741,-4.01174 5.2657,-5.46316 9.4705,-3.9369 5.0566,1.83545 11.8811,8.73914 17.4279,17.63019 4.5676,7.32136 11.1388,20.13692 16.374,31.93342 2.2283,5.02096 8.9134,20.90004 9.9914,23.73232 0.188,0.49389 0.4262,0.99514 0.5294,1.11388 0.6729,0.77442 0.5831,-18.21495 -0.1139,-24.09772 -1.7167,-14.48685 -5.3541,-27.12515 -11.181,-38.84848 -5.5636,-11.19362 -12.3629,-19.55474 -21.6871,-26.66866 -24.1451,-18.42165 -39.7691,-32.76295 -51.1662,-46.96568 -1.642,-2.04611 -3.8331,-4.90848 -4.8693,-6.36082 -1.0361,-1.45237 -1.9273,-2.59727 -1.9803,-2.54424 -0.1279,0.1279 1.4063,9.3883 2.9843,18.01314 6.4285,35.13767 15.2385,69.36042 21.5934,83.88062 2.3492,5.36777 6.507,12.21848 10.3648,17.07796 0.9522,1.19945 7.5877,8.01126 14.7455,15.13737 13.0815,13.02364 17.4539,17.67792 23.6591,25.18439 1.8478,2.23525 3.4146,4.0641 3.4819,4.0641 0.067,0 0.05,-1.70296 -0.037,-3.78435 z m 122.6745,-28.61117 c 2.3141,-5.97893 3.3575,-11.75812 3.5543,-19.68731 0.1536,-6.19021 -0.2355,-11.02565 -1.3453,-16.71743 -1.8866,-9.67542 -3.6836,-13.49476 -14.2257,-30.23408 -2.355,-3.73944 -5.3842,-8.64626 -6.7316,-10.90404 -16.7032,-27.99005 -26.2142,-56.82588 -29.0462,-88.06356 -1.2236,-13.49697 -1.133,-27.01803 0.2853,-42.59536 0.2346,-2.57687 0.3534,-4.75835 0.2641,-4.84774 -0.089,-0.0894 -1.7659,-0.36953 -3.7255,-0.62255 -14.6979,-1.89779 -26.7557,-5.3643 -36.8957,-10.6072 -4.2571,-2.20115 -8.1281,-4.73438 -12.79,-8.36996 -1.8345,-1.43059 -3.5091,-2.69469 -3.7216,-2.80911 -0.2123,-0.11443 -2.1167,-0.29377 -4.2318,-0.39853 -3.2741,-0.16217 -3.8036,-0.13723 -3.5631,0.16782 0.1554,0.19707 2.4528,3.11507 5.1052,6.48442 12.2417,15.55016 17.1676,20.6582 22.0993,22.91598 1.1638,0.53283 1.6723,0.62735 2.7121,0.5042 2.3901,-0.28307 3.9004,-1.52 6.3942,-5.23679 1.483,-2.21026 1.6422,-2.36358 2.4599,-2.3692 0.8452,-0.006 1.3594,1.00045 1.5255,2.98519 0.2914,3.48262 -1.2448,7.36428 -4.0008,10.10936 -2.1352,2.12669 -3.6296,2.84941 -6.22,3.00807 -5.1431,0.31507 -11.3518,-3.26623 -19.6843,-11.35421 -5.2926,-5.13736 -10.9779,-11.68623 -21.593,-24.87278 -2.6038,-3.23457 -5.0338,-6.17866 -5.4,-6.54242 -0.3663,-0.36376 -1.7517,-1.11137 -3.0788,-1.66134 -6.0476,-2.50629 -12.5607,-6.07134 -17.5485,-9.60554 -2.9415,-2.08421 -7.4547,-6.68563 -8.7855,-8.95729 -2.0471,-3.49422 -2.6881,-6.47428 -2.0155,-9.37045 0.4943,-2.12862 1.1474,-3.46784 2.6111,-5.35457 l 1.1229,-1.44739 -4.0548,-8.04554 c -2.2301,-4.42504 -6.7494,-13.70279 -10.043,-20.61723 -3.2935,-6.91445 -7.4703,-15.59142 -9.2818,-19.28219 -1.8114,-3.69075 -3.2936,-6.87673 -3.2936,-7.07993 0,-0.2032 0.2263,-0.57422 0.5028,-0.82448 0.5916,-0.53534 1.6689,-0.37009 2.0634,0.3165 1.5722,2.73574 11.2022,18.64045 13.8616,22.89333 2.5203,4.03052 17.9613,27.41363 18.6103,28.18248 0.041,0.0487 1.0932,-0.20887 2.338,-0.57237 2.5335,-0.73981 6.7651,-1.737 9.383,-2.21114 1.792,-0.32455 2.0004,-0.48298 1.3475,-1.02482 -0.4817,-0.39973 -5.9899,-7.80627 -8.9378,-12.0181 -9.3581,-13.37033 -16.9386,-28.74397 -22.2225,-45.06817 -10.6869,-33.01622 -10.194,-76.07856 1.4229,-124.30605 2.9269,-12.15085 4.5044,-17.25265 7.4178,-23.98889 1.3157,-3.04197 3.1381,-8.03522 4.8472,-13.28086 3.0678,-9.41571 4.4149,-12.7921 8.2133,-20.5858 4.6339,-9.50792 9.0131,-16.96515 16.4226,-27.96566 6.0198,-8.93738 7.5764,-11.03526 10.996,-14.82031 3.4841,-3.85638 4.4263,-5.13176 5.099,-6.90224 0.619,-1.62892 0.5941,-2.38096 -0.13,-3.93588 -0.7156,-1.5368 -2.0692,-2.78528 -4.0032,-3.69239 -1.2353,-0.57942 -1.7609,-0.66736 -3.9884,-0.66736 -2.3126,0 -2.7154,0.0735 -4.0834,0.74519 -5.6404,2.76943 -11.768,8.57977 -16.1253,15.29017 -3.7728,5.81034 -6.5811,11.82633 -11.1069,23.79318 -5.5678,14.72215 -8.8843,23.258 -13.5833,34.96035 -8.2206,20.47206 -13.1624,34.80333 -15.7802,45.76228 -1.3354,5.5903 -2.7905,12.83143 -3.3249,16.54576 -0.352,2.44597 -1.5414,3.37912 -2.4804,1.94595 -0.3778,-0.57661 -0.4103,-1.18162 -0.2647,-4.93889 0.5417,-13.98044 3.4158,-33.27213 6.8684,-46.10197 3.4137,-12.68518 13.9156,-37.60107 23.8828,-56.66211 6.647,-12.71157 9.9807,-17.64974 15.9759,-23.66478 5.134,-5.15112 9.7467,-8.37035 16.048,-11.20004 2.3891,-1.07284 2.4873,-1.09327 5.2568,-1.09327 2.4747,0 3.0206,0.0836 4.4331,0.67872 2.973,1.25255 4.5053,2.36545 7.8969,5.73542 3.8843,3.85942 6.2242,6.90304 12.4036,16.1338 4.8327,7.21896 6.8009,9.51344 8.8234,10.28583 1.5132,0.57791 2.6446,0.37831 4.0856,-0.72081 2.2079,-1.68402 4.3873,-5.35309 6.8516,-11.535 2.5596,-6.42115 4.7513,-10.09606 7.551,-12.66154 6.0803,-5.57144 14.6807,-4.79691 23.9694,2.15864 6.879,5.15111 13.5556,12.87436 21.9834,25.42966 1.9308,2.87648 6.0081,8.59148 9.0605,12.7 14.0745,18.94392 19.8052,27.61673 24.9407,37.74477 5.5404,10.92669 12.5661,27.08351 17.5098,40.26728 2.3936,6.38313 6.098,17.61767 6.098,18.49374 0,0.92395 -0.3985,1.40362 -1.166,1.40362 -0.8436,0 -1.2313,-0.61481 -2.7504,-4.36161 -5.5011,-13.56914 -16.6545,-35.82298 -26.5534,-52.98081 -20.7512,-35.96813 -42.1176,-64.77967 -55.6079,-74.98463 -3.5895,-2.71535 -4.8069,-3.23614 -7.205,-3.08224 -2.1501,0.13798 -3.6042,0.89339 -4.4778,2.32614 -1.3192,2.16346 -0.2857,3.53399 4.8838,6.477 4.211,2.39732 6.8578,4.36819 8.4733,6.30942 0.669,0.80385 2.237,3.1747 3.4846,5.26854 5.5498,9.31454 12.0464,18.18363 23.0855,31.51608 10.0115,12.09145 17.0263,22.12773 25.195,36.04747 8.2287,14.02183 13.7428,29.36563 16.3198,45.41212 3.2191,20.04421 1.5303,40.56944 -4.5413,55.19268 -5.012,12.07121 -21.5732,44.37023 -29.8468,58.20933 -3.6856,6.16484 -5.2883,8.21965 -10.0064,12.82828 -7.6995,7.52092 -15.4991,13.54254 -24.6016,18.99363 -3.8745,2.32028 -15.2201,7.94577 -16.0252,7.94577 -0.722,0 -1.543,-0.67993 -1.543,-1.27788 0,-0.57181 0.8304,-1.28229 2.694,-2.30488 2.1948,-1.2044 7.4661,-4.83183 10.3004,-7.08822 9.3605,-7.45203 16.3219,-15.91679 21.3676,-25.98238 0.8565,-1.70852 1.5572,-3.21179 1.5572,-3.34058 0,-0.12877 -1.2988,0.27981 -2.8863,0.90796 -7.6318,3.0198 -17.5358,5.514 -25.9773,6.54201 -4.3223,0.52637 -15.5873,0.4535 -19.7556,-0.1278 -16.8438,-2.34891 -31.6295,-9.23798 -46.5666,-21.6966 -3.5846,-2.98976 -10.9427,-10.1581 -14.3783,-14.00738 -5.5399,-6.20699 -11.5913,-13.98955 -16.9341,-21.77852 -1.6137,-2.35258 -2.9696,-4.17058 -3.0131,-4.04004 -0.1223,0.36697 3.0955,8.799 5.6432,14.78724 11.6076,27.28378 29.0486,53.60051 47.4218,71.55449 4.385,4.28495 4.8484,4.94384 4.0435,5.74874 -0.5898,0.58979 -1.5935,0.29923 -3.5228,-1.01985 -10.8511,-7.41867 -22.5807,-19.40442 -36.081,-36.86895 -2.1014,-2.71844 -3.8573,-4.83285 -3.902,-4.69871 -0.094,0.28294 2.1384,6.08214 3.9206,10.18327 5.6411,12.98147 13.6492,26.76397 20.5744,35.41026 l 2.2571,2.81802 1.5393,0.0587 c 13.9453,0.53171 21.0586,1.27534 33.0341,3.45337 l 5.8381,1.06177 4.5528,-0.68015 c 7.1409,-1.06683 10.6469,-1.30618 19.0488,-1.30038 8.3133,0.006 11.7376,0.25203 17.6722,1.27098 l 3.6894,0.63346 1.1853,-1.10698 c 5.4123,-5.05442 12.2699,-9.40624 16.7076,-10.60268 0.9172,-0.24728 1.7035,-0.47411 1.7472,-0.50405 0.044,-0.0299 0.655,-2.92428 1.3584,-6.43187 3.5908,-17.9053 6.5424,-26.44394 14.222,-41.14207 6.131,-11.73434 6.8976,-12.85094 14.3499,-20.90166 4.6382,-5.01072 6.3633,-7.15938 9.7181,-12.10453 9.2924,-13.69722 13.9457,-27.59382 15.6599,-46.76674 0.2916,-3.26169 0.4356,-4.01751 0.8184,-4.29747 0.5848,-0.42762 0.9175,-0.4279 1.501,-0.003 0.5221,0.38182 0.9122,2.3153 1.6139,7.99998 0.6329,5.12687 0.6274,16.51559 -0.01,20.78181 -1.0475,7.01094 -2.4898,12.22574 -5.4285,19.62727 -1.0364,2.61056 -1.8456,4.78552 -1.7981,4.83324 0.048,0.0477 0.5873,-0.20684 1.1996,-0.56565 1.5852,-0.929 4.3515,-1.9294 6.8496,-2.47712 1.1824,-0.25926 2.2326,-0.56611 2.3336,-0.68192 0.4549,-0.52119 4.742,-7.44564 6.4048,-10.34491 3.4491,-6.01364 5.4815,-10.93693 6.3164,-15.3006 0.4817,-2.51768 0.4727,-7.63483 -0.018,-10.51478 -0.5209,-3.05415 -1.6637,-6.89897 -3.262,-10.97451 -1.3189,-3.36322 -27.1071,-55.22635 -34.2033,-68.78687 -15.4319,-29.48961 -25.1588,-45.462 -47.108,-77.35454 -10.752,-15.62277 -14.3626,-20.50369 -19.3591,-26.1697 -3.0862,-3.49965 -7.3684,-7.70748 -9.3375,-9.17531 -2.2093,-1.64685 -5.0507,-2.87644 -7.6661,-3.31744 -4.0285,-0.67925 -7.7681,0.17482 -16.3897,3.74315 -2.3621,0.97764 -5.1029,2.02587 -6.0907,2.3294 -2.6008,0.7992 -5.7255,0.95077 -8.2317,0.3993 -2.2969,-0.50544 -2.9885,-0.96488 -2.8769,-1.91115 0.085,-0.72222 0.6329,-1.05831 2.7703,-1.70012 2.5188,-0.75636 4.1569,-1.7447 6.5259,-3.93758 3.5234,-3.26135 4.6014,-4.04273 7.6394,-5.53729 1.5354,-0.75534 2.6813,-1.44149 2.5466,-1.52477 -0.1348,-0.0833 -2.8244,-0.26472 -5.977,-0.40318 -9.4636,-0.41564 -10.7534,-0.69961 -17.5339,-3.86048 -4.8057,-2.24025 -9.8312,-2.88198 -14.0731,-1.79709 -2.5309,0.6473 -6.346,2.62848 -9.2744,4.81616 -4.5522,3.40075 -11.4094,10.74845 -17.3035,18.54105 -7.4625,9.8663 -11.9491,17.20049 -18.3447,29.98776 -12.5364,25.06519 -22.8401,52.5742 -30.3784,81.10516 -0.4288,1.62278 -2.1747,8.66551 -3.8798,15.65051 -7.1175,29.15601 -10.5879,41.21078 -16.1757,56.18787 -4.2604,11.41912 -5.9354,17.85492 -6.811,26.1697 -0.8671,8.23381 0.3907,16.11419 3.6062,22.59461 2.1994,4.43268 4.4975,7.44355 8.8381,11.5796 1.894,1.80463 3.0943,3.14288 3.0943,3.44988 0,1.19257 -1.3916,1.46497 -3.081,0.60309 -2.4479,-1.24884 -6.8937,-1.63135 -10.3887,-0.89383 -0.9878,0.20844 -3.0083,0.81257 -4.4899,1.34251 -2.5922,0.92712 -2.8249,0.9642 -6.1576,0.98108 -4.6627,0.0236 -4.4848,-0.008 -5.6131,1.01087 -1.3719,1.23949 -2.0699,3.03389 -2.6437,6.79683 -0.925,6.06655 -1.7144,8.54158 -3.2981,10.34067 -1.9107,2.17078 -4.1806,2.45413 -9.2403,1.15352 -4.0768,-1.04799 -7.8705,-1.16575 -9.7492,-0.30264 -2.5815,1.186 -4.0324,3.09744 -5.6357,7.42447 -1.8662,5.03684 -3.5803,7.11228 -7.3078,8.84833 -2.6613,1.2395 -4.7866,1.76174 -7.9535,1.95439 -2.7346,0.16638 -3.207,0.34431 -3.2073,1.20812 0,1.01785 -1.5185,3.76174 -2.8789,5.20346 -1.7242,1.82731 -3.569,3.07681 -7.8905,5.34434 -4.4249,2.32179 -4.7642,2.77917 -5.4278,7.31625 -0.3213,2.19689 -0.2039,5.19537 0.5487,14.01587 0.9417,11.03656 2.5142,22.1292 5.3962,38.06695 3.4026,18.81724 5.3743,26.77355 9.3458,37.71389 3.6447,10.0405 6.6647,16.29336 18.4014,38.10126 10.8514,20.16272 15.2948,28.69225 19.3272,37.10047 8.9616,18.68585 13.3018,31.83207 14.6247,44.29677 0.484,4.56048 0.4768,7.31056 -0.025,9.74157 -0.5903,2.85796 -1.635,4.70739 -4.1151,7.28546 -1.3204,1.37258 -2.1506,2.44605 -2.1506,2.78079 0,0.29985 0.5484,1.14141 1.2186,1.87008 5.0934,5.53723 45.0381,47.41118 45.1347,47.31455 0.1665,-0.16643 0.277,0.0379 -7.9628,-14.72037 -4.0024,-7.16875 -7.57,-13.84618 -7.928,-14.83871 -1.3162,-3.64869 -2.5361,-10.26185 -3.5,-18.97405 -0.8788,-7.94261 -1.2769,-13.88621 -2.3366,-34.88903 -0.848,-16.80672 -5.3473,-36.73178 -15.1798,-67.2241 -5.7832,-17.93481 -17.3376,-49.91112 -25.8191,-71.45353 -5.6706,-14.40295 -5.5549,-14.03973 -4.7539,-14.92475 1.1271,-1.2454 1.9295,-0.31071 3.672,4.27728 8.5927,22.62462 17.121,40.58591 28.6889,60.42121 7.0207,12.03836 17.2381,27.71458 23.4948,36.04747 9.7046,12.92485 26.7387,32.73701 43.7794,50.9193 5.1599,5.50549 14.1376,14.63322 14.3927,14.63322 0.1093,0 -1.1378,-2.2225 -2.7713,-4.93889 -12.4807,-20.75511 -25.7622,-46.65123 -37.4034,-72.92878 -19.3187,-43.608 -33.739,-87.20433 -39.2475,-118.65512 -0.9227,-5.26801 -0.8316,-6.42063 0.5072,-6.42063 0.9975,0 1.369,0.91625 2.1977,5.41959 3.9282,21.34818 10.8852,42.69552 21.4783,65.90566 21.5214,47.15468 57.041,98.57226 103.0635,149.19292 12.3583,13.593 33.9958,35.83267 33.9958,34.94188 0,-0.0678 -4.6882,-8.3615 -10.4181,-18.43052 -39.1023,-68.71172 -54.7484,-96.90877 -72.5136,-130.68179 -10.3017,-19.58437 -24.0562,-46.77248 -24.0562,-47.55126 0,-0.26139 0.2344,-0.68739 0.5209,-0.94668 0.4121,-0.37299 0.6665,-0.4204 1.2187,-0.22711 0.5507,0.19281 1.0676,0.94601 2.453,3.57458 4.0506,7.68547 17.7671,32.30287 23.6903,42.51767 29.6608,51.15093 47.8216,73.33834 100.6641,122.98297 5.5697,5.2326 11.2662,10.71367 12.6588,12.18012 10.6822,11.24812 17.0383,23.56006 19.5298,37.82929 0.3911,2.24016 1.927,13.7492 1.927,14.43996 0,0.81226 0.5468,-0.13147 1.4937,-2.5779 z m 83.1792,-8.80939 c 8.2505,-1.40944 16.1688,-5.83756 22.6166,-12.64773 6.0307,-6.3696 10.0964,-13.30575 14.9036,-25.42615 10.544,-26.58435 15.8783,-54.1865 17.4036,-90.05453 0.2991,-7.03057 0.1407,-44.31005 -0.2435,-57.34243 l -0.1663,-5.64444 -1.5394,0.12828 c -2.9064,0.2422 -9.9953,0.10568 -11.5455,-0.22234 -0.8467,-0.17916 -2.6101,-0.62304 -3.9186,-0.98641 -1.3086,-0.36338 -2.4273,-0.61268 -2.486,-0.55401 -0.059,0.0587 0.053,1.72043 0.2477,3.6928 0.8609,8.7122 1.0256,13.28456 1.0256,28.47299 0,15.14579 -0.1263,18.80434 -1.0451,30.27475 -2.3913,29.85392 -7.9039,54.57508 -14.3227,64.23033 -1.3454,2.02384 -5.019,5.64427 -7.1606,7.05702 -8.6567,5.71054 -19.7296,5.20107 -29.7841,-1.37037 -2.2815,-1.49118 -2.4538,-1.44962 -2.4603,0.59334 -0.01,2.56937 1.7792,6.54026 4.7775,10.61412 1.4961,2.03271 5.4858,6.70375 6.7372,7.8877 1.0468,0.99042 1.1184,2.31781 0.1488,2.75959 -0.5665,0.25813 -0.912,0.16017 -2.758,-0.78186 -6.2525,-3.19067 -14.412,-11.10457 -22.5151,-21.83763 -1.5256,-2.02074 -1.6529,-2.1286 -1.8171,-1.5394 -0.3136,1.12517 -0.2281,6.97074 0.1425,9.7417 1.0457,7.81904 4.4489,17.92434 8.228,24.43197 1.5392,2.65053 1.4935,3.79025 -0.1518,3.79025 -1.6319,0 -7.9391,-7.97966 -12.1677,-15.39394 -18.8105,-32.9821 -33.6295,-101.37306 -36.3022,-167.53736 -0.1397,-3.45723 -0.2547,-7.65687 -0.2557,-9.33258 v -3.04672 l -0.7199,0.14399 c -1.1107,0.22213 -6.0614,2.38119 -8.773,3.82606 -2.8256,1.50555 -5.4639,3.15791 -7.3763,4.6198 l -1.347,1.02962 v 2.34204 c 0,1.28811 0.1175,4.8243 0.2594,7.85819 3.2897,70.33747 22.0184,141.9464 45.9987,175.87575 7.1246,10.08043 14.0409,16.47246 22.229,20.54405 7.8655,3.91119 16.0025,5.19338 24.1379,3.80356 z m -86.7109,-79.01582 c -10.5229,-43.91568 -17.3337,-87.45625 -19.1538,-122.44898 l -0.178,-3.42226 -0.6681,0.14853 c -1.891,0.42036 -6.1736,0.94293 -9.1348,1.11468 l -3.3354,0.19342 -0.1623,2.56566 c -0.505,7.98442 -0.1391,22.7976 0.8239,33.35353 3.4186,37.47113 15.2914,72.76987 31.5264,93.73015 1.0194,1.31603 1.8999,2.34624 1.9568,2.28939 0.057,-0.0569 -0.6968,-3.44273 -1.6747,-7.52412 z m 313.195,-61.05744 c 0.7641,-0.53517 0.7188,-1.17579 -0.2051,-2.90004 -2.3062,-4.30428 -11.7512,-12.64002 -19.0443,-16.80762 l -1.2187,-0.69639 v 0.75794 c 0,1.72287 -0.805,4.8697 -1.6993,6.64277 -0.5167,1.02459 -1.6158,2.60093 -2.4424,3.50297 -0.8265,0.90203 -1.5028,1.7167 -1.5028,1.8104 0,0.34105 6.8933,3.45797 10.4734,4.73574 3.2049,1.14385 9.163,2.85163 11.0781,3.17533 1.6486,0.27863 4.0112,0.1641 4.5611,-0.2211 z m -42.5868,-8.85101 c 9.2431,-1.00391 17.2656,-5.44037 17.2383,-9.53282 -0.016,-2.40476 -1.0619,-3.53232 -13.9818,-15.07433 -13.1393,-11.73796 -23.622,-22.47167 -28.2291,-28.905 -1.4828,-2.07059 -1.7116,-2.26601 -5.2142,-4.45418 -5.4164,-3.3838 -7.5682,-4.99197 -10.3033,-7.70044 -2.5947,-2.56942 -4.7275,-5.52873 -6.9324,-9.61877 l -1.2938,-2.40002 -2.3618,-1.1498 c -5.9331,-2.88836 -12.1133,-7.88818 -17.0582,-13.80005 l -1.8486,-2.21005 -2.8881,-0.44956 c -14.6142,-2.27473 -19.8609,-5.43626 -24.1908,-14.5769 -1.2238,-2.58344 -1.3876,-3.49517 -0.7436,-4.13915 0.7479,-0.74791 1.3001,-0.43257 3.2429,1.85169 4.7313,5.5629 10.1698,8.69226 18.007,10.36137 3.1125,0.66289 10.2787,0.79384 13.6247,0.24895 1.9834,-0.32302 5.2876,-1.05723 5.4835,-1.21853 0.053,-0.0433 -0.5311,-0.80539 -1.2973,-1.69352 -4.2427,-4.91815 -5.8117,-8.26618 -6.6763,-14.24645 -0.3586,-2.48016 -0.1925,-2.97644 1.0372,-3.09892 0.8954,-0.0892 0.8986,-0.0842 2.2094,3.4537 2.3995,6.47628 8.6375,12.79391 15.5938,15.79295 7.6761,3.30937 17.4572,3.92466 27.0093,1.69911 3.8419,-0.89516 12.1868,-3.93569 12.1868,-4.44041 0,-0.0796 -0.4466,-1.03691 -0.9925,-2.12739 -1.9793,-3.95378 -3.0854,-8.27185 -2.3468,-9.16173 0.4808,-0.5793 1.477,-0.4799 1.8803,0.18763 0.1918,0.3175 0.7429,1.25715 1.2246,2.08811 3.7586,6.4837 14.1103,11.68934 27.1738,13.66512 9.7046,1.46776 26.619,-0.54625 36.5765,-4.3552 9.8205,-3.75653 15.148,-8.50885 16.8059,-14.99144 1.5621,-6.10752 -0.7301,-9.43102 -8.3551,-12.11441 -4.5117,-1.58776 -9.8011,-2.72532 -24.502,-5.26955 -17.6727,-3.05852 -28.0731,-5.38293 -37.2759,-8.33084 -1.3291,-0.42577 -2.6612,-0.77411 -2.9602,-0.77411 -0.2989,0 -2.0188,0.39955 -3.8219,0.88787 -4.1191,1.11555 -11.2761,2.54557 -15.4653,3.09005 -9.0986,1.18256 -22.6665,0.47467 -27.9656,-1.45909 -0.7761,-0.28322 -2.2193,-0.81105 -3.2071,-1.17299 -2.7344,-1.00194 -5.1677,-0.92828 -9.8778,0.29903 -8.4784,2.20921 -16.6046,1.30707 -24.429,-2.71206 -2.6236,-1.34766 -5.7529,-3.5151 -7.8019,-5.40383 l -1.1398,-1.05061 -3.3909,1.05995 c -6.1438,1.92052 -10.3629,2.60947 -15.9931,2.61168 -6.0476,0.003 -9.9469,-0.83153 -14.3976,-3.07904 -4.5547,-2.30004 -7.7574,-5.5731 -10.3327,-10.55963 -1.3495,-2.61297 -1.5385,-3.51174 -0.8775,-4.17281 0.7558,-0.75579 1.4964,-0.39308 2.7445,1.3441 1.4529,2.02232 3.9751,4.58252 6.0684,6.15991 9.3214,7.02392 21.9654,7.84257 33.8791,2.19356 7.2908,-3.45702 14.2815,-9.56734 18.6522,-16.30324 0.6112,-0.94193 1.1113,-1.83321 1.1113,-1.98061 0,-0.14742 -0.8371,-0.65747 -1.8601,-1.13345 -1.9173,-0.89203 -8.5336,-5.17955 -9.1628,-5.9377 -0.2579,-0.31075 -0.2887,-0.61468 -0.113,-1.11711 0.3615,-1.03427 1.2862,-0.99692 4.2782,0.17292 11.7003,4.57457 21.6202,4.5278 30.7874,-0.14514 5.3589,-2.73163 9.3529,-6.06021 17.3562,-14.46445 4.6942,-4.92937 5.4046,-5.77801 5.0248,-6.0033 -2.2068,-1.30913 -4.4039,-3.19971 -7.2691,-6.25476 -1.8584,-1.98164 -3.379,-3.77373 -3.379,-3.98244 0,-0.56196 0.7256,-1.1858 1.3792,-1.1858 0.3151,0 1.1439,0.36476 1.8418,0.81057 1.8392,1.17492 6.6014,3.40275 8.8667,4.14808 17.1416,5.63977 36.3346,0.14981 54.5911,-15.61526 4.018,-3.46966 14.8678,-14.31384 17.4464,-17.43733 4.5025,-5.45409 7.6312,-10.86994 8.7356,-15.12154 0.6492,-2.49895 0.7122,-6.5171 0.1369,-8.72564 -0.5059,-1.94261 -1.9791,-4.73761 -3.1117,-5.90378 -1.1241,-1.15747 -2.9315,-2.07793 -5.1529,-2.62428 -2.3575,-0.57984 -8.435,-0.57212 -12.5099,0.0159 -14.481,2.0896 -36.1652,9.44154 -61.6877,20.91493 l -5.7564,2.58774 -3.9931,4.06785 c -7.4737,7.61359 -15.0219,13.00336 -25.0315,17.87342 -10.5317,5.12418 -22.5991,8.83368 -32.5298,9.99964 -1.4051,0.16497 -1.6132,0.28779 -3.8495,2.27135 -3.0417,2.69797 -5.751,4.89645 -8.0065,6.49686 -10.9756,7.78792 -22.8561,11.60051 -37.7152,12.10323 l -5.1313,0.17362 -1.8631,3.07878 c -4.6533,7.68951 -7.2732,11.39365 -10.3219,14.59323 -3.1633,3.3199 -5.9907,5.25164 -9.2165,6.29676 -2.3001,0.74519 -3.2872,0.71074 -3.6694,-0.12811 -0.4289,-0.94123 -0.075,-1.36549 2.015,-2.41743 0.9814,-0.49389 2.366,-1.32665 3.0769,-1.85059 1.9781,-1.45788 6.437,-6.22246 8.3606,-8.93392 2.0783,-2.92947 4.4833,-7.50826 5.565,-10.59503 0.9267,-2.64465 1.0102,-3.39839 0.3448,-3.11327 -0.2469,0.10581 -2.5271,0.24443 -5.0671,0.30806 -3.9693,0.0994 -4.9787,0.0412 -7.1839,-0.41395 -3.0624,-0.63212 -7.9794,-2.16059 -8.7874,-2.73155 -0.7099,-0.50171 -0.7392,-1.17902 -0.077,-1.77851 0.4628,-0.41882 0.7369,-0.42911 3.6383,-0.13631 10.1273,1.02195 18.7863,-2.028 25.4283,-8.95656 5.0018,-5.21759 8.6257,-11.88355 11.3204,-20.82361 0.8257,-2.73927 2.6044,-10.72903 2.4229,-10.88346 -0.043,-0.0371 -3.3118,0.0205 -7.263,0.12787 -7.8093,0.21223 -8.3383,0.14029 -8.3383,-1.13407 0,-0.94601 0.5807,-1.22272 3.6407,-1.73462 11.9895,-2.00575 23.1819,-9.9375 30.3309,-21.49483 3.2049,-5.18109 4.494,-8.45713 8.4743,-21.53564 5.8291,-19.15362 7.6227,-26.51331 8.6274,-35.40056 0.4561,-4.03529 0.1895,-11.69055 -0.4962,-14.24476 -1.3982,-5.20802 -3.9072,-8.40362 -8.2451,-10.50135 -1.453,-0.70261 -3.1264,-1.29586 -4.1465,-1.47001 -4.048,-0.69102 -7.8881,1.17376 -12.9138,6.27097 -2.667,2.7049 -4.8218,5.38263 -14.6993,18.26626 -4.7617,6.21094 -8.5518,10.80762 -12.9976,15.76375 -9.1225,10.16975 -14.8294,18.11597 -18.5258,25.79526 -3.9296,8.16382 -5.2672,15.28541 -4.0102,21.35045 0.5053,2.43809 0.354,2.95656 -0.8993,3.08184 -0.9094,0.0909 -1.2112,-0.33875 -1.9936,-2.83741 -0.254,-0.81139 -0.547,-1.47526 -0.6511,-1.47526 -0.1041,0 -1.282,1.70296 -2.6176,3.78435 -9.7491,15.19317 -18.9588,35.31595 -22.0993,48.28593 -0.563,2.32518 -0.7516,2.72953 -1.8916,4.05569 -3.0536,3.5523 -6.5638,9.32175 -8.2326,13.53161 -0.7605,1.91841 -1.3139,4.09955 -2.1935,8.64597 -1.8446,9.53429 -2.659,11.88443 -5.7031,16.45707 -1.9132,2.87385 -5.0295,6.15294 -7.5228,7.9158 -0.9172,0.64849 -3.1287,1.9862 -4.9144,2.97267 -3.9966,2.2078 -5.1468,3.00018 -6.6592,4.58745 -1.5175,1.59265 -2.2386,2.69676 -4.8322,7.39881 -3.0501,5.52971 -6.4024,10.43465 -10.3458,15.13737 -4.1987,5.00714 -6.4071,6.95529 -9.809,8.65299 -2.5814,1.28821 -7.0411,2.46611 -11.0323,2.91381 -3.3146,0.37182 -5.3992,1.61875 -9.8532,5.8938 -1.431,1.37348 -2.5703,2.52766 -2.5319,2.56489 0.038,0.0372 3.5913,0.71846 7.8952,1.51392 10.6424,1.96696 13.0919,2.63249 14.0827,3.82631 0.422,0.50852 0.2686,1.70845 -0.2607,2.0397 -0.3025,0.18927 -4.2968,-0.38677 -14.496,-2.0905 -19.3328,-3.22944 -24.095,-3.80363 -33.7058,-4.06394 -16.3348,-0.44245 -35.3066,2.89365 -46.0921,8.10503 -5.3977,2.60812 -8.5673,5.19212 -9.9879,8.1425 -0.5986,1.24321 -0.7204,1.82831 -0.7127,3.42371 0.018,3.68334 1.9774,7.27761 6.3723,11.688 9.735,9.7692 29.1709,18.33713 48.2396,21.26545 8.8979,1.36641 17.3962,1.68704 21.7757,0.82155 6.901,-1.36375 14.0049,-4.99139 20.4293,-10.43219 2.8759,-2.43556 10.6844,-9.70996 12.9789,-12.0912 3.3943,-3.52241 5.4433,-6.85854 7.3049,-11.89302 1.052,-2.84493 1.1627,-2.99551 2.1314,-2.89948 1.2942,0.12834 1.8341,1.37378 1.8128,4.18231 -0.021,2.81249 -0.5963,5.09942 -2.7285,10.85144 -0.8524,2.29942 -1.4873,4.24326 -1.4109,4.31967 0.2548,0.25477 6.578,-2.93522 9.1046,-4.59317 1.371,-0.89965 3.9901,-2.83954 5.8202,-4.31087 3.8444,-3.09074 4.507,-3.56913 4.9467,-3.57144 0.4455,-0.003 1.347,0.94272 1.347,1.41211 0,0.4876 -6.8371,7.99382 -8.9667,9.84424 -0.8737,0.75913 -1.4938,1.46204 -1.3781,1.56203 0.1158,0.1 0.9609,0.44609 1.8781,0.76916 4.4313,1.56081 7.4145,3.24216 14.7509,8.31377 10.1552,7.02018 15.1003,9.46484 21.3505,10.55478 5.5457,0.96707 10.8132,0.0226 17.136,-3.07268 3.3875,-1.65834 6.6955,-3.79902 12.7,-8.21844 6.0006,-4.41657 9.3106,-6.55889 12.7,-8.21982 4.0747,-1.99675 6.221,-2.54383 10.0061,-2.5505 2.7566,-0.005 3.3001,0.073 5.1943,0.74412 2.9756,1.05433 3.8117,2.00981 2.7166,3.10486 -0.3551,0.35513 -0.6697,0.39077 -1.8601,0.21074 -5.3323,-0.80641 -9.5447,0.35937 -15.3028,4.23513 -2.3317,1.56949 -8.1453,6.07917 -8.2542,6.40295 -0.033,0.0976 1.5231,0.92803 3.4577,1.84525 3.9541,1.8747 7.0336,3.85192 11.3415,7.282 7.1095,5.66084 11.9459,7.80968 19.4207,8.62879 4.637,0.50815 10.0977,-0.36635 15.157,-2.42732 2.3801,-0.96953 6.7737,-3.50333 8.2818,-4.77605 0.7865,-0.66376 0.8448,-0.78963 0.4695,-1.01371 -1.431,-0.85447 -4.9321,-3.6633 -6.8102,-5.46367 -4.2352,-4.05979 -6.6491,-7.44751 -10.3335,-14.50219 -5.5985,-10.7196 -10.7296,-18.42139 -17.1217,-25.69957 -10.2961,-11.7233 -20.2437,-18.5195 -31.7045,-21.66055 -5.8489,-1.60302 -10.5792,-2.4041 -19.7501,-3.34477 -3.3556,-0.34416 -6.0045,-0.73301 -6.2218,-0.91327 -0.5674,-0.4709 -0.462,-1.46925 0.1991,-1.88622 1.2534,-0.79063 12.9112,-1.21358 18.4455,-0.66918 11.2874,1.11032 21.6013,5.47978 31.5653,13.37267 3.0639,2.42708 11.1063,10.37413 13.7245,13.56193 4.9329,6.00582 8.806,11.73752 13.8418,20.48384 3.9183,6.8053 6.3887,10.18445 10.2442,14.01249 4.3007,4.27004 8.9014,7.3679 13.0594,8.7934 1.7145,0.58779 2.5029,0.70861 4.6319,0.70981 3.6378,0.003 3.6581,-0.0128 2.6774,-1.95541 -2.7318,-5.41169 -4.3211,-11.92345 -4.8243,-19.76607 -0.1328,-2.06985 -0.3391,-3.93074 -0.4584,-4.13533 -0.1193,-0.20461 -1.4292,-1.46768 -2.9109,-2.80688 -3.7821,-3.41838 -9.3219,-9.16252 -11.3261,-11.74393 -6.2156,-8.00565 -8.7117,-14.86754 -9.1214,-25.07516 l -0.1569,-3.9085 -2.9699,-1.60766 c -10.7922,-5.84223 -19.31,-13.52961 -23.1862,-20.92593 -1.5086,-2.87867 -1.8924,-4.14516 -1.4861,-4.90433 0.2313,-0.43216 0.4925,-0.54726 1.1049,-0.48684 0.7154,0.0706 1.1159,0.52188 3.7129,4.18418 4.9569,6.9901 7.302,9.46047 11.6147,12.23477 2.16,1.38956 4.752,2.53425 7.8123,3.45027 2.9424,0.88071 5.0526,1.93322 6.4451,3.21474 2.5544,2.35083 3.1871,4.16901 3.1935,9.17658 0.01,4.99256 0.8135,8.26221 3.3611,13.61556 2.9647,6.23005 5.5279,9.38011 13.6105,16.72672 2.58,2.34513 4.056,4.28867 4.9111,6.46686 0.4218,1.07439 0.5479,2.2263 0.7048,6.43975 0.2255,6.05726 0.5585,7.5196 2.6874,11.80202 2.9466,5.9273 7.9486,11.31682 15.0014,16.16376 1.1995,0.82429 2.4324,1.72225 2.7398,1.99546 0.3074,0.27322 0.7041,0.44838 0.8815,0.38924 0.1774,-0.0591 0.5212,-1.024 0.764,-2.14414 0.8963,-4.13476 1.8254,-5.76231 3.0651,-5.36885 0.9006,0.28584 1.0845,1.02232 0.7501,3.00477 -1.0167,6.02732 2.0287,13.28489 7.7819,18.54523 3.4434,3.1485 8.9016,6.44737 14.0046,8.46421 2.5792,1.01941 2.8256,0.98636 2.8632,-0.38403 0.01,-0.35278 0.3894,-1.90959 0.8438,-3.45956 0.7364,-2.512 0.9026,-2.84505 1.5297,-3.0656 1.0275,-0.36132 1.3708,0.12382 2.2608,3.1944 0.9476,3.26947 2.7062,7.62133 4.249,10.5146 2.8247,5.29728 7.694,11.80132 11.4268,15.26291 7.1683,6.64741 17.4567,9.94233 27.6039,8.84022 z m -377.614,-86.51272 c 0,-0.17639 -0.2312,-1.41753 -0.5097,-2.75808 -1.9446,-9.3598 1.6145,-16.35658 11.0266,-21.67657 1.8697,-1.05684 6.5098,-3.13087 8.9542,-4.0024 2.0172,-0.71923 1.9342,-0.76084 -3.2565,-1.63173 -21.0258,-3.5277 -44.0212,-3.08099 -52.5493,1.02083 -5.2211,2.51129 -5.9121,8.00784 -1.5834,12.59639 4.9463,5.24313 23.2263,13.81932 34.4055,16.14157 3.429,0.71233 3.517,0.72008 3.5126,0.30999 z m 460.6542,-29.58169 c 10.6644,-1.40631 24.4056,-7.21578 26.4588,-11.18621 0.8344,-1.61362 0.075,-3.29371 -1.9587,-4.33106 -3.4079,-1.73854 -16.6027,-3.7797 -29.7469,-4.60163 -4.5858,-0.28676 -15.0645,-0.36376 -14.8096,-0.10881 0.086,0.0862 1.6672,0.82665 3.5134,1.64543 7.6888,3.41014 10.5099,6.25512 11.7205,11.81993 0.4499,2.06828 0.5925,5.57946 0.2731,6.72387 -0.1949,0.69814 -0.1765,0.71476 0.6414,0.58076 0.4631,-0.0759 2.2217,-0.31991 3.908,-0.54228 z m -349.3352,-24.94339 c 3.1442,-3.18893 4.7788,-5.51352 9.7838,-13.91381 5.741,-9.6356 7.6461,-12.16511 11.3049,-15.01017 1.1788,-0.9166 1.5548,-1.41555 2.1581,-2.86355 1.4762,-3.54284 4.0758,-8.49797 5.9004,-11.24648 2.3022,-3.46787 5.8792,-7.02271 9.4352,-9.37668 l 2.5011,-1.65564 v -1.33691 c 0,-2.16816 0.5102,-6.22647 1.265,-10.07644 0.4564,-2.328 0.6065,-3.59492 0.4258,-3.59338 -0.6312,0.005 -5.8457,2.30193 -8.1105,3.57206 -4.978,2.79172 -8.963,5.86753 -13.4637,10.39209 -12.6004,12.66718 -21.2898,30.97663 -23.5687,49.66177 -0.6385,5.23486 -0.7811,7.95353 -0.4171,7.95353 0.1728,0 1.4261,-1.12786 2.7853,-2.50639 z m -288.5157,-12.92182 c 0.99,-0.48101 1.2477,-0.79813 2.1235,-2.61302 1.3929,-2.88636 2.8873,-4.82723 4.7024,-6.10729 l 1.554,-1.09592 v -10.14799 c -10e-5,-7.7266 -0.088,-10.60709 -0.3666,-12.07221 -0.2017,-1.05833 -0.7821,-5.04152 -1.2899,-8.85152 -1.0081,-7.56355 -1.8828,-13.24607 -2.0675,-13.43077 -0.204,-0.20397 -0.9323,1.79398 -1.5705,4.30833 -1.6143,6.35954 -2.7308,17.81017 -3.8039,39.01234 -0.2107,4.16278 -0.4513,8.46346 -0.5347,9.55707 -0.083,1.09361 -0.089,1.98839 -0.013,1.98839 0.076,0 0.6461,-0.24633 1.2658,-0.54741 z m 614.3494,-107.33519 c 9.4056,-5.34829 18.2564,-11.86187 24.0274,-17.68263 6.269,-6.32296 8.7601,-11.22813 7.4476,-14.66478 -0.5229,-1.36919 -1.7593,-2.37675 -3.9468,-3.21613 -2.0591,-0.79014 -7.2026,-0.97115 -10.7078,-0.37684 -8.4884,1.43926 -20.5217,5.53769 -32.4324,11.04618 -2.0461,0.94629 -4.7015,2.25795 -5.901,2.91481 l -2.1808,1.19432 3.2071,0.18578 c 10.6872,0.61909 15.5119,3.52698 17.3577,10.46169 0.4841,1.81867 0.6418,7.7256 0.2724,10.19849 -0.1422,0.95155 -0.1159,1.34697 0.09,1.34697 0.1601,0 1.4052,-0.63354 2.7669,-1.40786 z m -156.6258,-92.43321 c 4.8459,-9.66261 9.6155,-25.54234 11.0801,-36.89011 0.4821,-3.73523 0.3821,-5.85792 -0.3944,-8.37206 -1.5135,-4.90019 -5.1316,-6.85132 -9.7715,-5.26951 -2.93,0.99886 -4.5019,2.1426 -8.7141,6.34043 -7.8851,7.85815 -15.5683,19.25872 -21.3293,31.64923 -2.2728,4.88823 -4.8896,11.99752 -4.5435,12.34363 0.058,0.058 1.2573,-0.59017 2.6652,-1.44033 3.725,-2.24942 6.2334,-3.46515 9.3199,-4.51718 2.4989,-0.85175 2.9853,-0.93274 5.6833,-0.94653 2.6101,-0.0133 3.1725,0.0668 4.8747,0.69466 3.3443,1.23349 6.2679,3.82484 8.6265,7.64606 0.5167,0.83708 0.9798,1.52197 1.0291,1.52197 0.049,0 0.7126,-1.24212 1.474,-2.76026 z"
       id="path585" /></g></svg>
