<?xml version="1.0" encoding="UTF-8" standalone="no"?>
<!-- Created with Inkscape (http://www.inkscape.org/) -->

<svg
   width="1282.8282mm"
   height="1282.8282mm"
   viewBox="0 0 1282.8282 1282.8282"
   version="1.1"
   id="svg241"
   xml:space="preserve"
   inkscape:version="1.2.2 (732a01da63, 2022-12-09)"
   sodipodi:docname="Bang Pow Bomb.svg"
   xmlns:inkscape="http://www.inkscape.org/namespaces/inkscape"
   xmlns:sodipodi="http://sodipodi.sourceforge.net/DTD/sodipodi-0.dtd"
   xmlns="http://www.w3.org/2000/svg"
   xmlns:svg="http://www.w3.org/2000/svg"><sodipodi:namedview
     id="namedview243"
     pagecolor="#505050"
     bordercolor="#eeeeee"
     borderopacity="1"
     inkscape:showpageshadow="0"
     inkscape:pageopacity="0"
     inkscape:pagecheckerboard="0"
     inkscape:deskcolor="#505050"
     inkscape:document-units="mm"
     showgrid="false"
     inkscape:zoom="0.18462928"
     inkscape:cx="2288.3694"
     inkscape:cy="2480.6466"
     inkscape:window-width="1920"
     inkscape:window-height="1009"
     inkscape:window-x="-8"
     inkscape:window-y="-8"
     inkscape:window-maximized="1"
     inkscape:current-layer="layer1" /><defs
     id="defs238" /><g
     inkscape:label="Layer 1"
     inkscape:groupmode="layer"
     id="layer1"
     transform="translate(647.50458,496.31763)"><path
       style="fill:#000000;stroke-width:0.256566"
       d="m -7.1060694,775.49818 c -0.1451649,-0.27126 -1.007405,-4.11013 -1.9160579,-8.5308 C -25.354506,687.50907 -57.220882,585.65516 -85.191181,523.50962 c -3.226646,-7.16908 -6.649052,-14.34651 -6.840835,-14.34651 -0.540019,0 -39.850774,40.03161 -54.674214,55.67677 -39.01907,41.1821 -75.1742,82.54423 -107.59034,123.08534 -4.83003,6.04064 -5.68434,6.99142 -6.28216,6.99142 -0.80698,0 -1.30769,-0.41856 -1.30769,-1.09313 0,-0.26254 1.10903,-3.61649 2.46452,-7.45323 15.89113,-44.98029 33.71285,-100.00413 52.65909,-162.58293 7.37324,-24.35357 10.00193,-33.20729 9.89412,-33.32449 -0.11027,-0.11986 -1.31318,0.84092 -12.67834,10.12639 -33.02836,26.9845 -59.58737,51.43877 -79.88482,73.55411 -5.38665,5.8691 -5.96607,6.34097 -6.78306,5.52399 -0.16933,-0.16933 -0.30787,-0.58977 -0.30787,-0.93428 0,-0.34452 1.54142,-3.35211 3.42538,-6.68354 16.52631,-29.22372 37.29872,-70.89075 55.96374,-112.25691 6.92552,-15.3486 13.29874,-29.91404 13.15291,-30.05984 -0.12353,-0.12354 -6.14036,5.37856 -12.63124,11.55068 -8.28607,7.87914 -50.7916,50.46554 -70.18502,70.31854 -18.35414,18.7891 -47.61558,48.91242 -53.83111,55.41666 -2.15756,2.25778 -4.20896,4.21607 -4.55866,4.35177 -0.85924,0.33341 -1.48608,-0.0931 -1.58501,-1.07847 -0.0682,-0.6798 0.32892,-1.23696 3.09085,-4.33576 1.74303,-1.95564 7.43386,-8.40481 12.6463,-14.33147 5.21241,-5.92667 15.94227,-18.10712 23.84415,-27.06768 45.81065,-51.94836 70.78939,-81.0292 94.32046,-109.81009 10.53541,-12.88586 24.1359,-30.0513 23.95692,-30.23647 -0.24061,-0.24892 -18.56748,12.16132 -30.01069,20.32203 -35.70118,25.46029 -65.31273,48.72833 -168.91267,132.72751 -4.14736,3.36268 -5.65305,4.44349 -6.19031,4.44349 -0.89368,0 -1.38979,-0.57741 -1.18775,-1.38238 0.28083,-1.11893 19.32951,-18.72201 75.97357,-70.20793 17.92111,-16.28917 36.79792,-33.48038 41.94848,-38.2027 18.56976,-17.02577 39.0173,-36.19318 39.2254,-36.76968 0.0589,-0.16325 -0.0762,-0.20733 -0.33333,-0.10866 -0.23789,0.0913 -4.20796,1.39739 -8.8224,2.90245 -27.44754,8.95245 -46.45606,16.42133 -61.2424,24.06353 -4.85643,2.50998 -10.44871,5.65973 -13.05139,7.35091 -0.85062,0.55274 -1.73667,1.00497 -1.96893,1.00497 -0.55657,0 -1.27159,-0.80908 -1.27159,-1.43885 0,-0.32124 3.36062,-3.75902 9.38555,-9.60099 29.80651,-28.90143 63.96187,-66.43762 97.1113,-106.72379 7.88942,-9.58794 13.57586,-16.63667 13.57586,-16.82822 0,-0.46035 -69.07904,1.00317 -104.29393,2.2096 -74.63293,2.55685 -137.41491,6.19957 -203.8834,11.82965 -5.67984,0.48111 -6.91008,0.52211 -7.24798,0.24168 -0.43985,-0.36504 -0.52944,-1.22397 -0.18441,-1.76812 0.11809,-0.18624 3.37791,-1.46797 7.24405,-2.84826 43.49698,-15.52954 126.5874,-50.25357 186.497,-77.93833 8.75017,-4.04353 24.62132,-11.79751 25.49852,-12.45752 0.44385,-0.33395 -0.11207,-0.71097 -6.79899,-4.6111 -80.18801,-46.76961 -149.66209,-81.4033 -204.69348,-102.04221 -3.02501,-1.13448 -5.59211,-2.20775 -5.70466,-2.38504 -0.37242,-0.58661 -0.22031,-1.45462 0.3041,-1.73528 0.31131,-0.16661 3.95611,-0.37243 9.17222,-0.51795 30.93425,-0.86309 81.64582,-5.075923 126.80411,-10.534255 23.30321,-2.816654 46.8836,-6.338095 46.26456,-6.909005 -0.7677,-0.708044 -36.99536,-11.423456 -61.01709,-18.047648 -18.84213,-5.195864 -30.53457,-8.304516 -89.41312,-23.772089 -14.04056,-3.688516 -29.97328,-7.901016 -35.40606,-9.361157 -5.43278,-1.460115 -10.62823,-2.84539 -11.54545,-3.078325 -0.91723,-0.232962 -1.92745,-0.590922 -2.24495,-0.795457 -0.71615,-0.46133 -0.74802,-1.408827 -0.0681,-2.024149 0.4555,-0.412249 0.66517,-0.428798 1.98838,-0.157043 0.81355,0.167075 8.46418,1.620417 17.0014,3.229648 8.53722,1.609257 26.77904,5.062938 40.53737,7.674879 55.58861,10.55316 81.44403,15.260319 109.93838,20.014993 21.20251,3.537912 50.22375,7.934575 51.44141,7.793259 0.66484,-0.07717 0.15953,-0.308392 -16.54848,-7.572099 -21.0018,-9.130427 -48.59073,-20.522147 -84.02525,-34.694782 -24.55441,-9.820947 -78.04755,-31.0047 -87.61717,-34.6971414 -2.54,-0.9800551 -4.84339,-2.0026746 -5.11864,-2.2724536 -0.75074,-0.73583 -0.29315,-1.884372 0.7931,-1.990692 1.09428,-0.107091 19.73134,5.8397158 68.59524,21.8877427 48.22331,15.8376433 63.39648,20.7535693 82.74242,26.8076203 14.99002,4.690918 29.42633,9.017564 29.57891,8.864958 0.0704,-0.0704 -0.66681,-1.025441 -1.63825,-2.122336 -21.31912,-24.072323 -31.64876,-35.0031735 -57.29422,-60.628821 -30.41178,-30.388276 -57.21514,-55.441757 -94.37522,-88.213887 -3.90043,-3.43985 -6.47829,-5.89503 -6.47829,-6.16999 0,-0.55436 0.78158,-1.3059 1.35812,-1.3059 0.23085,0 4.45618,1.6097 9.38963,3.57712 52.83867,21.071632 125.48461,46.296011 190.64412,66.19614 9.53069,2.910737 10.78792,3.257768 10.78792,2.977778 0,-0.06247 -0.28453,-0.899519 -0.63228,-1.860101 -0.34775,-0.960582 -1.97466,-5.556493 -3.61535,-10.21316 -24.56685,-69.726277 -62.08344,-152.074077 -92.45319,-202.931947 -1.84788,-3.09448 -3.35978,-5.81715 -3.35978,-6.05035 0,-0.50525 0.78803,-1.27324 1.30645,-1.27324 0.20244,0 0.94413,0.38793 1.64818,0.86208 5.46998,3.68369 19.85085,12.4956 29.24436,17.91952 32.38533,18.69968 69.97892,37.34621 108.52405,53.82822 9.26962,3.96373 19.17403,7.97565 19.45694,7.88136 0.29818,-0.0994 -11.08653,-11.53134 -19.61347,-19.69488 -12.8007,-12.25511 -24.57398,-23.06815 -57.96692,-53.23918 -29.73801,-26.86871 -50.60298,-46.03629 -51.1213,-46.96246 -0.12297,-0.21973 -0.15368,-0.67802 -0.0682,-1.01843 0.21431,-0.85388 1.21486,-1.06593 2.17454,-0.46086 1.62458,1.02425 27.5248,21.52598 64.93661,51.4016 65.04581,51.94306 88.75186,70.34328 116.22424,90.21129 7.44081,5.38118 7.70764,5.5676 7.80662,5.45376 0.19915,-0.22909 -31.80934,-37.5628 -55.51133,-64.74667 -27.5178,-31.56026 -83.28447,-94.60677 -88.16643,-99.67575 -0.74745,-0.77612 -1.4324,-1.71202 -1.5221,-2.07979 -0.19719,-0.80863 0.3994,-1.51213 1.28237,-1.51213 0.66876,0 5.09121,4.41775 48.54263,48.4909 47.90216,48.58763 75.51419,75.74908 92.57722,91.06662 5.16487,4.63655 4.97945,4.47897 5.11312,4.34529 0.16077,-0.16079 -3.91539,-17.36197 -6.65018,-28.06343 -7.19276,-28.14592 -16.35793,-60.77192 -24.93259,-88.75462 -1.48328,-4.84058 -2.37543,-8.16163 -2.28707,-8.51371 0.16348,-0.65133 0.91725,-0.98281 1.68255,-0.73992 0.28192,0.0895 0.88128,0.7034 1.33191,1.36426 1.39295,2.04274 9.85777,13.26733 13.77283,18.26319 19.41622,24.77618 40.58874,49.24123 63.16944,72.99292 10.64437,11.19635 34.126334,34.25152 34.885588,34.25152 0.216978,0 0.534914,-0.75284 4.605225,-10.90404 33.451747,-83.42754 63.250922,-196.80225 74.785626,-284.5313 0.5009445,-3.81 1.0527915,-7.37834 1.2263068,-7.92966 0.3784344,-1.20224 1.0086109,-1.68802 1.6624941,-1.28151 0.7186403,0.44676 1.0245949,1.86237 1.9908211,9.21117 11.5347037,87.72905 41.333879,201.10376 74.785626,284.5313 4.070311,10.1512 4.388247,10.90404 4.605225,10.90404 0.759254,0 24.241219,-23.05517 34.885588,-34.25152 22.5807,-23.75169 43.75322,-48.21674 63.16944,-72.99292 3.91506,-4.99586 12.37988,-16.22045 13.77283,-18.26319 0.45063,-0.66086 1.04999,-1.27478 1.33191,-1.36426 0.7653,-0.24289 1.51907,0.0886 1.68255,0.73992 0.0884,0.35208 -0.80379,3.67313 -2.28707,8.51371 -8.57466,27.9827 -17.73983,60.6087 -24.93259,88.75462 -2.73479,10.70146 -6.81095,27.90264 -6.65018,28.06343 0.13367,0.13368 -0.0517,0.29126 5.11312,-4.34529 17.06303,-15.31754 44.67506,-42.47899 92.57722,-91.06662 43.45142,-44.07315 47.87387,-48.4909 48.54263,-48.4909 0.88297,0 1.47956,0.7035 1.28237,1.51213 -0.0897,0.36777 -0.77465,1.30367 -1.5221,2.07979 -4.88196,5.06898 -60.64863,68.11549 -88.16643,99.67575 -23.70199,27.18387 -55.71048,64.51758 -55.51133,64.74667 0.099,0.11384 0.36581,-0.0726 7.80662,-5.45376 27.47238,-19.86801 51.17843,-38.26823 116.22424,-90.21129 37.41181,-29.87562 63.31203,-50.37735 64.93661,-51.4016 0.95968,-0.60507 1.96023,-0.39302 2.17454,0.46086 0.0854,0.34041 0.0547,0.7987 -0.0682,1.01843 -0.51832,0.92617 -21.38329,20.09375 -51.1213,46.96246 -33.39294,30.17103 -45.16622,40.98407 -57.96692,53.23918 -8.52694,8.16354 -19.91165,19.59549 -19.61347,19.69488 0.28291,0.0943 10.18732,-3.91763 19.45694,-7.88136 38.54513,-16.48201 76.13872,-35.12854 108.52405,-53.82822 9.39351,-5.42392 23.77438,-14.23583 29.24436,-17.91952 0.70406,-0.47415 1.46581,-0.86208 1.69277,-0.86208 0.50066,0 1.26186,0.79494 1.26186,1.31782 0,0.20868 -1.51189,2.91129 -3.35978,6.00577 -30.36975,50.85787 -67.88634,133.20567 -92.45319,202.931947 -1.64069,4.656667 -3.2676,9.252578 -3.61535,10.21316 -0.34775,0.960582 -0.63228,1.797627 -0.63228,1.860101 0,0.27999 1.25723,-0.06704 10.78792,-2.977778 65.15951,-19.900129 137.80546,-45.124508 190.64413,-66.19614 4.93345,-1.96742 9.17884,-3.57712 9.4342,-3.57712 0.55764,0 1.31354,0.77717 1.31354,1.35049 0,0.22665 -2.91523,2.98309 -6.47829,6.1254 -37.16009,32.77213 -63.96343,57.825611 -94.37523,88.213887 -25.64545,25.6256475 -35.97509,36.556498 -57.29421,60.628821 -0.97144,1.096895 -1.70865,2.051935 -1.63825,2.122336 0.15258,0.152606 14.58889,-4.17404 29.57891,-8.864958 19.34595,-6.054051 34.51912,-10.969977 82.74242,-26.8076203 48.8639,-16.0480269 67.50096,-21.9948337 68.59524,-21.8877427 1.08625,0.10632 1.54383,1.254862 0.79309,1.990692 -0.27524,0.269779 -2.57863,1.2923985 -5.11863,2.2724536 -9.56962,3.6924414 -63.06276,24.8761944 -87.61717,34.6971414 -35.43451,14.172635 -63.02345,25.564355 -84.02525,34.694782 -16.70801,7.263707 -17.21332,7.494924 -16.54848,7.572099 1.21766,0.141316 30.2389,-4.255347 51.44141,-7.793259 28.49433,-4.754674 54.34979,-9.461833 109.93838,-20.014993 13.75833,-2.611941 32.00015,-6.065622 40.53737,-7.674879 8.53722,-1.609231 16.18785,-3.062573 17.0014,-3.229648 1.32321,-0.271755 1.53287,-0.255206 1.98838,0.157043 0.67995,0.615322 0.64809,1.562819 -0.0681,2.024149 -0.3175,0.204535 -1.32772,0.562495 -2.24495,0.795457 -0.91722,0.232935 -6.11267,1.61821 -11.54545,3.078325 -5.43278,1.460141 -21.3655,5.672641 -35.40606,9.361157 -58.87855,15.467573 -70.57099,18.576225 -89.41312,23.772089 -24.02173,6.624192 -60.24939,17.339604 -61.01709,18.047648 -0.61904,0.57091 22.96135,4.092351 46.26456,6.909005 45.15827,5.458332 95.86986,9.671165 126.80411,10.534255 5.2161,0.14552 8.8609,0.35134 9.17222,0.51795 0.52442,0.28066 0.67654,1.14867 0.30411,1.73528 -0.11256,0.17729 -2.67965,1.25056 -5.70466,2.38504 -55.03141,20.63891 -124.50549,55.2726 -204.69349,102.04221 -6.68692,3.90013 -7.24284,4.27715 -6.79899,4.6111 0.8772,0.66001 16.74835,8.41399 25.49852,12.45752 59.90959,27.68476 143.00002,62.40879 186.497,77.93833 3.86614,1.38029 7.12596,2.66202 7.24406,2.84826 0.34503,0.54415 0.25543,1.40308 -0.18442,1.76812 -0.3379,0.28043 -1.56813,0.23943 -7.24798,-0.24168 -66.46849,-5.63008 -129.25048,-9.2728 -203.8834,-11.82965 -35.21489,-1.20643 -104.29393,-2.66995 -104.29393,-2.2096 0,0.19155 5.68644,7.24028 13.57586,16.82822 33.14943,40.28617 67.30479,77.82236 97.1113,106.72379 6.5417,6.34304 9.38555,9.26569 9.38555,9.64558 0,0.61071 -0.73965,1.39426 -1.31615,1.39426 -0.20777,0 -1.07375,-0.45223 -1.92437,-1.00497 -2.60268,-1.69118 -8.19496,-4.84093 -13.05139,-7.35091 -14.78634,-7.6422 -33.79486,-15.11108 -61.2424,-24.06353 -4.61444,-1.50506 -8.58451,-2.81116 -8.8224,-2.90245 -0.2571,-0.0987 -0.39228,-0.0546 -0.33333,0.10866 0.2081,0.5765 20.65564,19.74391 39.2254,36.76968 5.15056,4.72232 24.02737,21.91353 41.94848,38.2027 56.64405,51.48592 75.69274,69.089 75.97358,70.20793 0.20202,0.80497 -0.29408,1.38238 -1.18777,1.38238 -0.53725,0 -2.04296,-1.08081 -6.19029,-4.44349 -103.59995,-83.99918 -133.2115,-107.26722 -168.91268,-132.72751 -11.44321,-8.16071 -29.77008,-20.57095 -30.01069,-20.32203 -0.17898,0.18517 13.42151,17.35061 23.95692,30.23647 23.53107,28.78089 48.50981,57.86173 94.32046,109.81009 7.90188,8.96056 18.63174,21.14101 23.84415,27.06768 5.21244,5.92666 10.90327,12.37583 12.6463,14.33147 2.76193,3.0988 3.1591,3.65596 3.09085,4.33576 -0.0989,0.98536 -0.72577,1.41188 -1.58501,1.07847 -0.3497,-0.1357 -2.4011,-2.09399 -4.55866,-4.35177 -6.21553,-6.50424 -35.47697,-36.62756 -53.83111,-55.41666 -19.39342,-19.853 -61.89895,-62.4394 -70.18502,-70.31854 -6.49088,-6.17212 -12.50771,-11.67422 -12.63124,-11.55068 -0.14583,0.1458 6.22739,14.71124 13.15291,30.05984 18.66502,41.36616 39.43743,83.03319 55.96374,112.25691 1.88396,3.33143 3.42538,6.33902 3.42538,6.68354 0,0.34451 -0.13854,0.76495 -0.30787,0.93428 -0.81699,0.81698 -1.39641,0.34511 -6.78306,-5.52399 -20.29745,-22.11534 -46.85646,-46.56961 -79.88482,-73.55411 -11.36516,-9.28547 -12.56807,-10.24625 -12.67834,-10.12639 -0.10781,0.1172 2.52088,8.97092 9.89412,33.32449 18.94624,62.5788 36.76796,117.60264 52.65909,162.58293 1.35549,3.83674 2.46452,7.19069 2.46452,7.45323 0,0.67457 -0.50071,1.09313 -1.30769,1.09313 -0.59782,0 -1.45213,-0.95078 -6.28216,-6.99142 -32.41614,-40.54111 -68.57127,-81.90324 -107.59034,-123.08534 -14.82344,-15.64516 -54.134195,-55.67677 -54.674214,-55.67677 -0.191783,0 -3.614189,7.17743 -6.840835,14.34651 -27.970299,62.14554 -59.836675,163.99945 -76.1690537,243.45776 -0.9086529,4.42067 -1.770893,8.25954 -1.9160579,8.5308 -0.1681787,0.31427 -0.5366583,0.4932 -1.0155894,0.4932 -0.4789311,0 -0.8474107,-0.17893 -1.0155894,-0.4932 z M -5.2096132,673.55755 C -1.550628,659.28313 6.4297436,633.17437 13.356682,612.81563 38.879755,537.80169 70.573719,467.8739 101.61732,418.08231 c 5.2296,-8.3879 15.59316,-23.93052 17.00193,-25.49844 0.28754,-0.32002 9.12558,7.23671 17.04279,14.572 24.43664,22.64054 48.00625,48.66512 84.90067,93.74391 3.37428,4.12277 6.18341,7.44761 6.2425,7.3885 0.0591,-0.0591 -2.57441,-6.0344 -5.85224,-13.27843 -30.5232,-67.45616 -45.08589,-104.99182 -52.59031,-135.55279 -2.09475,-8.53075 -4.20845,-20.11102 -3.75373,-20.56574 0.41512,-0.41512 16.04841,4.16204 23.45063,6.86593 19.1894,7.00953 33.57195,14.07855 66.35388,32.61296 6.46997,3.65801 11.95406,6.72122 12.18687,6.80715 0.23283,0.0859 -2.34935,-2.72191 -5.73814,-6.23963 -41.24342,-42.81198 -65.08365,-71.30811 -80.70319,-96.46409 -1.27767,-2.05773 -2.28715,-3.83942 -2.24333,-3.95927 0.20153,-0.55097 5.03315,-5.53891 8.28369,-8.55171 31.28153,-28.99356 104.07703,-75.27282 179.47379,-114.09931 30.22441,-15.56443 62.53518,-30.20386 82.99899,-37.60531 l 2.05252,-0.74238 -2.56565,-0.18788 c -1.41112,-0.10332 -10.87839,-0.42487 -21.03839,-0.71453 -97.76564,-2.78731 -161.21746,-7.93496 -204.09796,-16.55783 -8.58259,-1.725889 -8.9798,-1.828028 -8.9798,-2.309447 0,-0.629561 2.75059,-13.649831 4.38725,-20.76768 16.35372,-71.122074 51.91572,-166.716148 93.34532,-250.921193 6.67022,-13.55714 18.38829,-36.00596 19.58971,-37.52894 0.78484,-0.99486 -0.45945,-0.27132 -4.21078,2.44846 -65.56306,47.53479 -180.86479,106.2465 -232.371369,118.323686 -4.817969,1.12971 -10.590978,2.141938 -10.812215,1.895789 -0.106654,-0.118687 -1.233414,-1.675912 -2.503901,-3.460506 C 62.237542,-119.2751 39.348167,-179.55122 18.15251,-258.99441 8.5884356,-294.84139 -0.6122648,-336.31244 -5.1136576,-363.86375 c -0.4666929,-2.85647 -0.9062668,-5.19358 -0.9768224,-5.19358 -0.070556,0 -0.5101295,2.33711 -0.9768224,5.19358 -5.6581956,34.63166 -17.4020266,85.21539 -30.0952526,129.62792 -19.224668,67.26551 -39.397963,117.96952 -56.48526,141.971419 -1.270487,1.784594 -2.397247,3.341819 -2.503901,3.460506 -0.221237,0.246149 -5.994244,-0.766079 -10.812214,-1.895789 -33.93145,-7.956177 -98.64472,-37.246406 -160.56694,-72.675016 -26.99719,-15.44638 -52.57766,-31.70879 -71.80443,-45.64867 -3.75133,-2.71978 -4.99562,-3.44332 -4.21078,-2.44846 1.20142,1.52298 12.91949,23.9718 19.58971,37.52894 41.4296,84.205045 76.9916,179.799119 93.34532,250.921193 1.63666,7.117849 4.38725,20.138119 4.38725,20.76768 0,0.481419 -0.39721,0.583558 -8.9798,2.309447 -42.8805,8.62287 -106.33232,13.77052 -204.09796,16.55783 -10.16,0.28966 -19.62727,0.61121 -21.03839,0.71453 l -2.56565,0.18788 2.05252,0.74238 c 20.4638,7.40145 52.77457,22.04088 82.99899,37.60531 75.39676,38.82649 148.19226,85.10575 179.47379,114.09931 3.25054,3.0128 8.08216,8.00074 8.28369,8.55171 0.0438,0.11985 -0.96566,1.90154 -2.24333,3.95927 -15.61954,25.15598 -39.45977,53.65211 -80.70319,96.46409 -3.38879,3.51772 -5.97097,6.32553 -5.73814,6.23963 0.23281,-0.0859 5.7169,-3.14914 12.18687,-6.80715 32.78193,-18.53441 47.16448,-25.60343 66.35388,-32.61296 7.40222,-2.70389 23.03551,-7.28105 23.45063,-6.86593 0.45472,0.45472 -1.65898,12.03499 -3.75373,20.56574 -7.50442,30.56097 -22.06711,68.09663 -52.59031,135.55279 -3.27783,7.24403 -5.91135,13.21931 -5.85224,13.27843 0.0591,0.0591 2.86822,-3.26573 6.2425,-7.3885 36.89442,-45.07879 60.46403,-71.10337 84.90067,-93.74391 7.91721,-7.33529 16.75525,-14.89202 17.04279,-14.572 0.4778,0.53178 5.85693,8.33907 9.1715,13.31157 33.364361,50.05291 68.353448,125.39761 96.091068,206.92019 6.926938,20.35874 14.90731,46.4675 18.5662952,60.74192 0.4069387,1.5875 0.803307,2.88636 0.8808668,2.88636 0.07756,0 0.4739281,-1.29886 0.8808668,-2.88636 z m -1.7713035,-56.97417 c -0.2140014,-0.32664 -1.7611948,-4.74277 -3.4382103,-9.81364 -12.024898,-36.36046 -23.885055,-63.61191 -41.126857,-94.49831 -3.259179,-5.83838 -3.473257,-6.51479 -2.265705,-7.15859 0.927972,-0.49476 4.710006,-0.21829 7.717289,0.56416 11.455271,2.98047 25.720449,12.22425 36.8781552,23.89694 l 3.1257648,3.27003 3.1257648,-3.27003 C 8.192991,517.90125 22.458169,508.65747 33.91344,505.677 c 3.007283,-0.78245 6.789317,-1.05892 7.717289,-0.56416 1.207552,0.6438 0.993474,1.32021 -2.265705,7.15859 -17.241802,30.8864 -29.101959,58.13785 -41.1268568,94.49831 -1.6770157,5.07087 -3.2242091,9.487 -3.4382105,9.81364 -0.214027,0.32663 -0.6147313,0.59387 -0.8904367,0.59387 -0.2757054,0 -0.6764097,-0.26724 -0.8904367,-0.59387 z m 5.2952839,-38.34402 c 9.7319965,-24.36671 15.4499208,-37.36348 22.9917198,-52.25973 1.854302,-3.66258 3.324269,-6.70647 3.266542,-6.76417 -0.15163,-0.15163 -4.981017,2.43924 -7.81853,4.19451 -3.981488,2.46293 -7.3872689,5.16854 -10.7970006,8.57735 -3.7239989,3.723 -6.33650422,7.21001 -9.0016824,12.01492 -1.0402454,1.87539 -2.1511233,3.72266 -2.4686233,4.10505 l -0.5772727,0.69521 -0.5772727,-0.69521 c -0.3175,-0.38239 -1.4283779,-2.22966 -2.4686233,-4.10505 -2.665178,-4.80491 -5.277683,-8.29192 -9.001682,-12.01492 -3.409732,-3.40881 -6.815513,-6.11442 -10.797001,-8.57735 -2.837513,-1.75527 -7.6669,-4.34614 -7.81853,-4.19451 -0.05773,0.0577 1.41224,3.10159 3.266542,6.76417 7.541799,14.89625 13.259723,27.89302 22.99172,52.25973 2.3521166,5.88915 4.3342914,10.70756 4.404847,10.70756 0.070556,0 2.0527304,-4.81841 4.4048472,-10.70756 z m -5.2942576,-79.41807 c -0.2134627,-0.32577 -2.0081906,-8.03236 -3.9883126,-17.12576 -5.816523,-26.71169 -9.050379,-40.40142 -12.100508,-51.22466 -0.724311,-2.57018 -1.399027,-4.62229 -1.499421,-4.56028 -0.100369,0.062 -0.249023,0.49084 -0.33038,0.95286 -0.08133,0.46205 -0.964712,4.80909 -1.96306,9.66013 -2.247823,10.92228 -4.666622,23.73119 -6.546581,34.66782 -0.788323,4.58611 -1.54278,8.59815 -1.676553,8.91565 -0.281171,0.66725 -1.541165,0.8058 -2.025099,0.22268 -0.161867,-0.19502 -0.756432,-3.05252 -1.321261,-6.35 -4.689122,-27.37525 -9.281981,-47.1297 -14.504323,-62.38491 -0.928178,-2.71134 -1.813047,-5.30491 -1.966396,-5.76352 -0.153349,-0.45861 -0.350905,-0.83384 -0.43901,-0.83384 -0.0881,0 -0.424436,1.99159 -0.747427,4.42576 -2.14848,16.19242 -6.096128,34.92864 -10.181037,48.32093 -0.715408,2.34552 -1.034191,2.74661 -2.087008,2.6259 -0.661375,-0.0758 -0.779061,-0.26326 -1.421399,-2.2635 -10.739171,-33.44174 -53.713714,-123.44461 -95.063754,-199.09494 -21.61075,-39.53707 -40.56539,-71.18788 -55.62086,-92.87676 -3.40974,-4.91205 -9.08602,-12.53851 -9.79889,-13.16541 -1.27592,-1.12209 -6.05336,-1.73056 -9.56071,-1.21773 -5.14404,0.75217 -9.45414,3.28881 -11.79668,6.94274 -3.77621,5.89023 -2.67139,16.30095 2.39647,22.58147 3.47231,4.30317 8.23609,6.65762 15.08034,7.45331 3.0009,0.34885 5.28687,0.22211 10.27797,-0.56991 2.68755,-0.42646 3.59877,-0.48783 3.87237,-0.26075 0.26303,0.21829 0.40065,1.33399 0.51955,4.21155 0.25353,6.13713 1.36839,11.77937 3.68764,18.66331 2.78168,8.25646 7.7472,18.21269 13.44822,26.96463 1.80307,2.76801 1.97107,3.22627 1.50317,4.10051 -0.55152,1.03055 -1.37304,0.56804 -7.84829,-4.41844 -45.37169,-34.93998 -89.39632,-64.4124 -144.28611,-96.59276 -3.1477,-1.8454 -3.47069,-2.10219 -3.54088,-2.81524 -0.1455,-1.47795 0.16602,-1.51959 5.7864,-0.77344 21.92933,2.91125 44.23009,2.42046 63.94842,-1.40732 18.7356,-3.63702 34.01511,-10.0252 45.4917,-19.01949 1.39667,-1.09459 2.76001,-1.99016 3.02963,-1.99016 0.63518,0 1.39998,0.74782 6.29743,6.15758 13.33357,14.72828 24.57391,27.69359 39.37033,45.41212 35.54851,42.56883 64.20237,80.67073 79.49366,105.70504 3.12954,5.12357 2.81109,4.70039 3.25805,4.32942 0.63131,-0.52393 2.08914,-3.63274 2.65333,-5.65817 0.28776,-1.03309 0.64426,-3.3215 0.79217,-5.08539 0.62894,-7.49987 0.54828,-7.04709 1.27064,-7.13137 0.89903,-0.10486 1.31049,0.41402 4.23079,5.33541 13.235506,22.30487 25.122038,47.93832 37.952218,81.84444 1.788802,4.72722 3.668068,9.68823 4.176196,11.02442 0.739602,1.94505 0.966175,2.32874 1.13615,1.92424 0.282761,-0.67281 2.237098,-11.27816 3.520876,-19.10623 4.102254,-25.01408 7.027384,-49.33124 7.746512,-64.39798 0.349571,-7.32403 0.426874,-7.80242 1.275234,-7.8917 1.230822,-0.12959 1.163551,-0.27201 4.515196,9.55938 4.593346,13.47382 9.880112,32.47256 14.062491,50.53563 0.906138,3.91352 1.701364,7.16931 1.767173,7.23512 0.328968,0.32897 10.887388,-35.85168 14.9122874,-51.10005 1.080167,-4.09222 2.159436,-8.00631 2.3983499,-8.69793 0.5005083,-1.4489 1.0982036,-1.96496 1.7813866,-1.53809 0.6109084,0.38172 1.0055577,1.61262 3.2817567,10.23602 4.0248992,15.24837 14.5833194,51.42902 14.9122874,51.10005 0.06581,-0.0658 0.861035,-3.3216 1.767173,-7.23512 4.182379,-18.06307 9.469145,-37.06181 14.062491,-50.53563 3.351645,-9.83139 3.284374,-9.68897 4.515196,-9.55938 0.84836,0.0893 0.925663,0.56767 1.275234,7.8917 0.719128,15.06674 3.644258,39.3839 7.746512,64.39798 1.283778,7.82807 3.238115,18.43342 3.520876,19.10623 0.169975,0.4045 0.396548,0.0208 1.13615,-1.92424 0.508128,-1.33619 2.387394,-6.2972 4.176196,-11.02442 12.83018,-33.90612 24.716712,-59.53957 37.952215,-81.84444 2.920307,-4.92139 3.331762,-5.44027 4.230793,-5.33541 0.722361,0.0843 0.641697,-0.3685 1.270642,7.13137 0.14791,1.76389 0.504408,4.0523 0.792172,5.08539 0.564188,2.02543 2.022019,5.13424 2.653325,5.65817 0.446963,0.37097 0.128513,0.79415 3.258051,-4.32942 21.33505,-34.92895 72.05661,-99.41354 118.86399,-151.11716 4.89745,-5.40976 5.66225,-6.15758 6.29743,-6.15758 0.26962,0 1.63296,0.89557 3.02963,1.99016 11.47659,8.99429 26.7561,15.38247 45.4917,19.01949 19.71833,3.82778 42.01909,4.31857 63.94842,1.40732 5.62038,-0.74615 5.9319,-0.70451 5.7864,0.77344 -0.0702,0.71305 -0.39318,0.96984 -3.54088,2.81524 -54.88979,32.18036 -98.91442,61.65278 -144.28611,96.59276 -6.47525,4.98648 -7.29677,5.44899 -7.84829,4.41844 -0.4679,-0.87424 -0.2999,-1.3325 1.50317,-4.10051 5.70102,-8.75194 10.66654,-18.70817 13.44822,-26.96463 2.31925,-6.88394 3.43411,-12.52618 3.68764,-18.66331 0.1189,-2.87756 0.25652,-3.99326 0.51955,-4.21155 0.2736,-0.22708 1.18482,-0.16571 3.87237,0.26075 4.9911,0.79202 7.27707,0.91876 10.27797,0.56991 6.84425,-0.79569 11.60803,-3.15014 15.08034,-7.45331 5.06786,-6.28052 6.17268,-16.69124 2.39647,-22.58147 -2.34254,-3.65393 -6.65264,-6.19057 -11.79668,-6.94274 -3.50735,-0.51283 -8.28479,0.0956 -9.56071,1.21773 -0.71287,0.6269 -6.38915,8.25336 -9.79889,13.16541 -15.05547,21.68888 -34.01011,53.33969 -55.62086,92.87676 -41.35004,75.65033 -84.324583,165.6532 -95.063754,199.09494 -0.642338,2.00024 -0.760024,2.18766 -1.421399,2.2635 -1.052817,0.12071 -1.3716,-0.28038 -2.087008,-2.6259 -4.084909,-13.39229 -8.032557,-32.12851 -10.181037,-48.32093 -0.322991,-2.43417 -0.659323,-4.42576 -0.747427,-4.42576 -0.0881,0 -0.285661,0.37523 -0.43901,0.83384 -0.153349,0.45861 -1.038218,3.05218 -1.966396,5.76352 -5.222342,15.25521 -9.815201,35.00966 -14.504323,62.38491 -0.564829,3.29748 -1.159394,6.15498 -1.321261,6.35 -0.483934,0.58312 -1.743928,0.44457 -2.025099,-0.22268 -0.133773,-0.3175 -0.88823,-4.32954 -1.676553,-8.91565 -1.879959,-10.93663 -4.298758,-23.74554 -6.546581,-34.66782 -0.998348,-4.85104 -1.881729,-9.19808 -1.96306,-9.66013 -0.08136,-0.46202 -0.230011,-0.89082 -0.33038,-0.95286 -0.100394,-0.062 -0.77511,1.9901 -1.499421,4.56028 -3.0501291,10.82324 -6.283985,24.51297 -12.1005077,51.22466 -1.9801223,9.0934 -3.7748502,16.79999 -3.9883129,17.12576 -0.2134626,0.32578 -0.613705,0.59233 -0.8894104,0.59233 -0.2757054,0 -0.6759478,-0.26655 -0.8894104,-0.59233 z m 0.027504,-246.5288 c -0.2096655,-0.32614 -1.0865812,-2.24846 -1.948693,-4.27181 -1.9220616,-4.51102 -2.8963696,-6.46015 -4.9976166,-9.99809 -4.370544,-7.35876 -10.005367,-13.61781 -18.040772,-20.03934 -2.476244,-1.97889 -3.656061,-3.08474 -3.656061,-3.42684 0,-0.39314 6.975789,-22.79509 7.625131,-24.48724 0.128257,-0.3342 -0.08423,-0.36466 -1.492853,-0.21393 -8.329224,0.89129 -18.642239,2.89163 -25.438278,4.93412 -2.149404,0.64596 -2.265525,0.6554 -2.743584,0.22275 -0.59005,-0.53399 -1.116369,-2.69399 -1.802887,-7.39907 -1.266074,-8.6771 -1.893788,-17.98625 -1.906668,-28.27718 -0.01385,-10.99904 0.52578,-14.15216 2.383931,-13.93082 0.513388,0.0611 2.65389,2.73335 10.78915,13.46921 5.581765,7.3661 10.302496,13.54292 10.490482,13.72626 0.454685,0.4434 1.089711,-0.31909 4.637064,-5.56768 7.287824,-10.78296 14.393153,-23.38226 21.594925,-38.29257 1.8231556,-3.77465 3.5749088,-7.37391 3.8927424,-7.99839 0.6964474,-1.36829 1.2861122,-1.80016 1.9248837,-1.4098 0.5253438,0.32104 0.5931797,0.45076 4.91964612,9.40819 7.20177188,14.91031 14.30710078,27.50961 21.59492478,38.29257 3.547353,5.24859 4.182379,6.01108 4.637064,5.56768 0.187986,-0.18334 4.908717,-6.36016 10.490482,-13.72626 10.69617,-14.11539 10.805108,-14.23554 11.855873,-13.07448 0.234424,0.25905 0.629022,1.56338 0.87689,2.8985 0.371584,2.00177 0.44881,3.86736 0.440318,10.63759 -0.01283,10.29093 -0.640594,19.60008 -1.906668,28.27718 -0.686518,4.70508 -1.212837,6.86508 -1.802887,7.39907 -0.478059,0.43265 -0.59418,0.42321 -2.743584,-0.22275 -6.796039,-2.04249 -17.109054,-4.04283 -25.438278,-4.93412 -1.408623,-0.15073 -1.62111,-0.12027 -1.492853,0.21393 0.649342,1.69215 7.625131,24.0941 7.625131,24.48724 0,0.3421 -1.179817,1.44795 -3.656061,3.42684 -10.7162332,8.56393 -17.4211401,17.11663 -22.3573347,28.51879 -0.9320773,2.15305 -1.9546966,4.43417 -2.2724532,5.06917 -0.6815923,1.36198 -1.4892865,1.64192 -2.0811065,0.72128 z M -94.764543,224.46097 c -8.951117,-6.23324 -18.163257,-13.60321 -27.806737,-22.24627 -4.4002,-3.94372 -17.0083,-16.48583 -20.80545,-20.69658 -22.60677,-25.06913 -38.21116,-50.40827 -46.5691,-75.62098 -1.44156,-4.34863 -1.59137,-5.13414 -1.07716,-5.64834 0.86288,-0.862885 1.47276,-0.410355 7.62579,5.65835 12.50242,12.33105 27.00544,24.44729 43.37946,36.24046 4.73574,3.41086 15.59493,10.64583 15.97865,10.64583 0.13664,0 1.32341,-1.02767 2.63729,-2.28374 4.97011,-4.75144 13.28597,-10.43191 20.51032,-14.01036 6.715961,-3.3266 11.28424,-4.67732 12.177807,-3.60067 0.435726,0.52504 0.337641,0.89806 -1.490954,5.66913 -2.819733,7.35712 -4.753058,16.17739 -5.73319,26.15594 -0.483242,4.91988 -0.404348,19.10798 0.13911,25.01515 0.911988,9.91285 2.714618,20.37426 5.334692,30.95911 1.130043,4.5653 1.290577,5.49553 1.007302,5.83687 -0.699628,0.84297 -1.65531,0.46956 -5.30783,-2.0739 z m -8.797477,-19.02981 c -1.10978,-12.39653 -1.06206,-29.09118 0.12186,-42.63166 0.44594,-5.10027 1.46661,-12.94592 2.03683,-15.65666 0.69724,-3.3145 0.71353,-3.30151 -1.86139,-1.48321 -5.50733,3.88907 -11.83542,9.51897 -16.33448,14.53226 -1.88968,2.10569 -2.97547,3.12074 -3.33815,3.12074 -1.18241,0 -12.67783,-7.28867 -20.54403,-13.02594 -7.23102,-5.27401 -16.03648,-12.26076 -22.96263,-18.21983 -1.48166,-1.2748 -2.73786,-2.27474 -2.79151,-2.22209 -0.13423,0.13162 1.67132,3.59487 4.27305,8.19614 10.59101,18.73058 26.09691,37.79392 46.62452,57.32131 9.15832,8.71207 14.86619,13.88975 14.97379,13.58292 0.0511,-0.14583 -0.0379,-1.72712 -0.19786,-3.51398 z m 180.837773,21.10371 c -0.283275,-0.34134 -0.122741,-1.27157 1.007302,-5.83687 2.620074,-10.58485 4.422704,-21.04626 5.334692,-30.95911 0.543458,-5.90717 0.622352,-20.09527 0.13911,-25.01515 -0.980132,-9.97855 -2.913457,-18.79882 -5.73319,-26.15594 -1.828595,-4.77107 -1.92668,-5.14409 -1.490954,-5.66913 0.893567,-1.07665 5.461846,0.27407 12.177811,3.60067 7.22435,3.57845 15.540206,9.25892 20.510316,14.01036 1.31388,1.25607 2.50065,2.28374 2.63729,2.28374 0.38372,0 11.24291,-7.23497 15.97865,-10.64583 16.37402,-11.79317 30.87704,-23.90941 43.37946,-36.24046 6.15303,-6.068705 6.76291,-6.521235 7.62579,-5.65835 0.51421,0.5142 0.3644,1.29971 -1.07716,5.64834 -8.35794,25.21271 -23.96233,50.55185 -46.5691,75.62098 -3.79715,4.21075 -16.40525,16.75286 -20.80545,20.69658 -9.64348,8.64306 -18.855624,16.01303 -27.806737,22.24627 -3.65252,2.54346 -4.608202,2.91687 -5.30783,2.0739 z m 19.13174,-22.0413 C 120.185,182.8011 136.05861,164.77934 148.15966,145.73788 c 3.52523,-5.54705 9.16652,-15.62674 8.8949,-15.89311 -0.0537,-0.0526 -1.30985,0.94729 -2.79151,2.22209 -6.92615,5.95907 -15.73161,12.94582 -22.96263,18.21983 -7.8662,5.73727 -19.36162,13.02594 -20.54403,13.02594 -0.36268,0 -1.44847,-1.01505 -3.33815,-3.12074 -4.49906,-5.01329 -10.827148,-10.64319 -16.334484,-14.53226 -2.574918,-1.8183 -2.558626,-1.83129 -1.861384,1.48321 1.083015,5.1485 2.22717,16.04941 2.720469,25.91928 0.323349,6.46933 0.168486,23.84673 -0.257208,28.86364 -0.13172,1.55222 -0.32063,3.86131 -0.419844,5.13131 l -0.18034,2.30909 0.993346,-0.91486 c 0.546331,-0.50318 2.494254,-2.28415 4.328698,-3.95773 z M -81.553721,118.78379 c -0.676384,-1.5291 -1.572568,-5.10011 -2.282049,-9.09338 -0.426027,-2.39791 -0.585303,-4.40461 -0.63128,-7.95353 l -0.06147,-4.746468 -1.639069,-0.451196 c -2.678802,-0.737421 -8.571653,-1.910772 -12.414801,-2.471984 -16.26283,-2.374874 -32.7532,-1.797294 -55.00688,1.926551 -2.66654,0.446219 -2.66767,0.446194 -3.10624,-0.09542 -0.2413,-0.298001 -0.57771,-1.271027 -0.74758,-2.162259 -2.79942,-14.687151 -10.38024,-38.064258 -17.70629,-54.601247 -2.84018,-6.411114 -7.76329,-15.887032 -8.26177,-15.902144 -0.0891,-0.0028 -0.6437,1.409392 -1.23231,3.138003 -1.23044,3.613368 -3.56432,8.605494 -5.21893,11.163299 -1.73836,2.687192 -4.18538,5.192761 -5.07148,5.192761 -0.78946,0 -1.52831,-0.580121 -1.52831,-1.199984 0,-0.21649 0.171,-1.053535 0.37999,-1.8601 2.4315,-9.383478 2.53374,-23.472216 0.26727,-36.8358734 -1.16224,-6.8529195 -3.6245,-15.9261066 -6.02262,-22.1929276 -0.56699,-1.481667 -1.03268,-2.887749 -1.03483,-3.124611 -0.005,-0.574912 0.68521,-1.237005 1.29006,-1.237005 0.26821,0 5.02248,3.019418 10.56501,6.709807 26.35576,17.54852546 51.44734,35.093382 95.898546,67.055483 10.230555,7.356147 27.02919,19.434847 37.330301,26.841538 10.30111,7.406691 23.174291,16.621169 28.607068,20.476606 5.432778,3.855471 10.079823,7.185891 10.326767,7.400971 0.545716,0.47532 0.588023,1.67273 0.07417,2.09917 -0.293999,0.244 -0.88859,0.23892 -2.758081,-0.0236 -3.217231,-0.45174 -11.482133,-0.38778 -16.237809,0.12566 -16.592972,1.7914 -33.769554,6.7799 -40.260023,11.69252 -2.214547,1.67619 -2.823197,1.69857 -3.517361,0.12931 z m 147.558186,-0.012 c -1.627986,-1.32239 -6.420247,-3.74044 -10.120463,-5.10653 -7.881619,-2.90981 -20.006552,-5.59323 -30.288625,-6.70329 -4.755676,-0.51343 -13.020578,-0.5774 -16.2378089,-0.12566 -1.8694912,0.26247 -2.4640821,0.26755 -2.7580806,0.0236 -0.5138497,-0.42644 -0.471542,-1.62385 0.074173,-2.09917 C 6.920605,104.54565 11.56765,101.21523 17.000428,97.359764 22.433205,93.504327 35.277522,84.310605 45.543355,76.929263 55.809188,69.547921 72.607823,57.469221 82.873656,50.087725 127.39508,18.075158 152.46773,0.5432064 178.83634,-17.013863 c 5.54253,-3.690388 10.2968,-6.709807 10.56501,-6.709807 0.60485,0 1.29532,0.662093 1.29006,1.237006 -0.003,0.236861 -0.46784,1.642944 -1.03483,3.12461 -3.2925,8.604031 -5.90362,19.45916973 -7.06635,29.376766 -0.56093,4.784539 -0.75059,13.8665 -0.38434,18.404941 0.31653,3.922119 1.03866,8.712918 1.69534,11.247094 0.20899,0.806565 0.37999,1.643611 0.37999,1.860101 0,0.619862 -0.73885,1.199983 -1.52831,1.199983 -0.8861,0 -3.33312,-2.505569 -5.07148,-5.19276 -1.65461,-2.557806 -3.98849,-7.549932 -5.21893,-11.1633 -0.58861,-1.728611 -1.14318,-3.140722 -1.23231,-3.138003 -0.49848,0.01514 -5.42159,9.49103 -8.26177,15.902144 -7.32605,16.53699 -14.90687,39.914096 -17.70629,54.601248 -0.16987,0.891232 -0.50628,1.864257 -0.74758,2.162258 -0.43857,0.54161 -0.4397,0.541636 -3.10624,0.09542 -22.25368,-3.723845 -38.74405,-4.301426 -55.006877,-1.926552 -3.843148,0.561212 -9.735999,1.734564 -12.414801,2.471984 l -1.639069,0.451197 -0.06147,4.746463 c -0.04598,3.54892 -0.205253,5.55562 -0.63128,7.95353 -0.709481,3.99327 -1.605665,7.56428 -2.282049,9.09338 -0.690546,1.5611 -1.434946,1.55846 -3.368296,-0.0121 z M -25.289851,74.978107 c -1.223126,-1.170658 -7.130678,-6.617495 -13.1279,-12.104074 C -65.686111,37.927437 -70.652735,33.368394 -79.083405,25.545425 -93.672548,12.007919 -98.14518,7.7587302 -111.8933,-5.6254269 c -9.36793,-9.1199591 -8.87101,-8.8455881 -7.22191,-3.987184 1.64912,4.8585835 4.88311,11.4302558 10.28428,20.8985289 1.92829,3.380278 3.56503,6.299815 3.63717,6.487826 0.19097,0.497661 -0.68174,1.348997 -1.38286,1.348997 -0.4221,0 -1.81507,-1.133225 -4.65174,-3.784343 -34.60262,-32.339432 -69.04635,-59.493826 -95.75302,-75.48877 -2.78445,-1.667651 -8.90831,-5.136983 -9.06751,-5.136983 -0.0496,0 -0.16769,2.395682 -0.26234,5.323737 -0.67995,21.032867 -2.91438,29.262877 -9.75863,35.943384 -1.94682,1.900253 -2.26901,2.118334 -3.02201,2.045598 -0.98172,-0.09483 -1.00494,-0.152451 -1.58501,-3.929893 -2.32182,-15.120183 -20.11978,-50.904342 -51.17076,-102.882821 -5.67313,-9.49665 -18.7804,-30.96829 -19.19819,-31.44948 -0.46713,-0.53802 -0.44843,-1.88922 0.0317,-2.28767 0.21085,-0.175 0.6438,-0.26714 0.96213,-0.20474 0.31829,0.0624 31.04387,21.84436 68.27907,48.40442 37.23519,26.560032 67.75141,48.239905 67.81383,48.177483 0.0625,-0.06242 -2.78022,-8.995474 -6.317,-19.851202 -3.53678,-10.855754 -6.43051,-19.922551 -6.43051,-20.148481 0,-0.55714 0.69855,-1.2171 1.28824,-1.2171 0.53728,0 5.079,3.67646 14.1057,11.418351 27.27698,23.394528 54.48004,49.981784 92.080098,89.9956582 3.019059,3.2128689 5.522498,5.80828695 5.563215,5.76759563 0.04069,-0.040717 0.664556,-2.72752363 1.386352,-5.97074423 2.23638,-10.0485476 3.846663,-16.0322476 6.040248,-22.4452086 2.996867,-8.761255 7.26617,-17.207422 11.997933,-23.736093 1.110468,-1.532159 1.305124,-1.687304 2.026638,-1.615286 1.35382,0.135133 1.418346,0.572962 0.642851,4.362231 -1.450263,7.086369 -2.401095,13.633 -3.048513,20.989148 -0.486808,5.531632 -0.409479,20.5275087 0.136287,26.4262606 2.162464,23.3716934 8.92379,46.4435124 21.565779,73.5892854 1.072778,2.303575 1.950515,4.387529 1.950515,4.63101 0,0.653345 -0.518725,1.058487 -1.355231,1.058487 -0.57676,0 -1.228719,-0.468283 -2.963333,-2.128468 z M -43.64253,43.211637 c -3.26603,-11.085508 -6.15873,-23.896421 -8.22003,-36.404047 -0.720975,-4.3747263 -1.692563,-10.8924685 -1.692563,-11.354261 0,-0.7104303 -0.5119,0.3478003 -1.148619,2.3744636 -1.714089,5.4559967 -2.441248,11.6222439 -1.963702,16.6522394 0.160302,1.688535 0.426053,3.653109 0.590537,4.36572 0.26552,1.150364 0.246611,1.353666 -0.168718,1.812585 -1.020284,1.127401 -1.365878,0.843049 -6.464017,-5.318477 -23.628977,-28.557475 -51.945458,-58.304773 -81.142498,-85.242548 -8.23561,-7.598346 -15.9375,-14.439694 -16.08734,-14.28986 -0.068,0.06799 0.455,2.242435 1.1622,4.832106 3.72715,13.64783 5.93125,24.520568 5.93125,29.258489 0,2.190378 -0.34895,2.917998 -1.30686,2.724907 -0.33957,-0.06845 -27.50459,-19.428074 -60.36674,-43.021389 -32.86214,-23.593315 -59.79789,-42.848385 -59.8572,-42.789065 -0.0593,0.0593 2.13357,4.01771 4.8731,8.79643 14.70663,25.653688 26.50646,48.05936 40.58502,77.06331 l 2.80208,5.772727 0.23696,-3.591919 c 0.60255,-9.133737 -1.07206,-22.445876 -3.84071,-30.531311 -1.40298,-4.097123 -1.52302,-4.64761 -1.11965,-5.133673 0.51262,-0.617657 1.36149,-0.454789 4.29039,0.823242 22.46325,9.801782 56.29053,33.504086 93.03291,65.186761 2.51724,2.170596 4.62578,3.89754 4.68566,3.837657 0.0599,-0.05986 -0.28664,-1.771842 -0.77003,-3.804355 -1.13849,-4.786925 -1.59633,-7.30173 -2.07382,-11.390899 -0.44714,-3.829216 -0.51388,-9.167167 -0.12369,-9.896198 0.7414,-1.385352 0.58828,-1.523436 22.42094,20.22158 24.441824,24.3437432 37.449394,36.968774 51.595345,50.07797 7.225479,6.695927 15.301883,13.91399 15.427754,13.788145 0.05616,-0.05616 -0.523419,-2.225322 -1.287959,-4.82033 z M 9.0982059,76.798697 C 8.5690136,76.269504 8.736397,75.721198 10.740842,71.417078 23.382831,44.271305 30.144157,21.199486 32.306621,-2.1722074 c 0.545766,-5.8987519 0.623095,-20.8946286 0.136287,-26.4262606 -0.647418,-7.356148 -1.59825,-13.902779 -3.048513,-20.989148 -0.775495,-3.789269 -0.710969,-4.227098 0.642851,-4.362231 0.721514,-0.07202 0.91617,0.08313 2.026638,1.615286 4.731763,6.528671 9.001066,14.974838 11.997933,23.736093 2.193585,6.412961 3.803868,12.396661 6.040248,22.4452086 0.721796,3.2432206 1.345661,5.93002727 1.386352,5.97074423 0.04072,0.0406913 2.544156,-2.55472673 5.563215,-5.76759563 37.600054,-40.0138742 64.803118,-66.6011302 92.080098,-89.9956582 9.0267,-7.741891 13.56842,-11.418351 14.1057,-11.418351 0.58969,0 1.28824,0.65996 1.28824,1.2171 0,0.22593 -2.89373,9.292727 -6.43051,20.148481 -3.53678,10.855728 -6.37945,19.788779 -6.317,19.851202 0.0624,0.06242 30.57864,-21.617451 67.81383,-48.177483 37.2352,-26.56006 67.96078,-48.34205 68.27907,-48.40442 0.31833,-0.0624 0.75128,0.0297 0.96213,0.20474 0.48011,0.39845 0.49881,1.74965 0.0317,2.28767 -0.41779,0.48119 -13.52506,21.95283 -19.19819,31.44948 -31.05098,51.978479 -48.84894,87.762638 -51.17076,102.882821 -0.58007,3.777442 -0.60329,3.835066 -1.58501,3.929893 -0.753,0.07274 -1.07519,-0.145345 -3.02201,-2.045598 -6.84425,-6.680507 -9.07868,-14.910517 -9.75863,-35.943384 -0.0947,-2.928055 -0.21272,-5.323737 -0.26234,-5.323737 -0.1592,0 -6.28306,3.469332 -9.06751,5.136983 -26.70667,15.994944 -61.1504,43.149338 -95.75302,75.48877 -2.836667,2.651118 -4.229639,3.784343 -4.651741,3.784343 -0.701117,0 -1.573825,-0.851336 -1.382863,-1.348997 0.07215,-0.188011 1.708881,-3.107548 3.637177,-6.487826 5.401167,-9.4682731 8.635157,-16.0399454 10.284277,-20.8985289 1.6491,-4.8584041 2.14602,-5.1327751 -7.221909,3.987184 C 85.96422,7.7587302 81.491588,12.007919 66.902445,25.545425 c -8.43067,7.822969 -13.397294,12.382012 -40.665654,37.328608 -5.997222,5.486579 -11.904774,10.933416 -13.1279,12.104074 -1.734614,1.660185 -2.386573,2.128468 -2.963333,2.128468 -0.4067077,0 -0.8780188,-0.138545 -1.0473521,-0.307878 z M 35.721253,43.241476 c 15.357224,-13.726493 32.031938,-29.750274 61.475462,-59.075624 21.832655,-21.745016 21.679535,-21.606932 22.420935,-20.22158 0.39019,0.729031 0.32345,6.066982 -0.12369,9.896198 -0.47749,4.089169 -0.93533,6.603974 -2.07382,11.390899 -0.48339,2.032513 -0.82991,3.744499 -0.77003,3.804355 0.0599,0.05988 2.16842,-1.667061 4.68566,-3.837657 36.74238,-31.682675 70.56966,-55.384979 93.03291,-65.186761 2.9289,-1.278031 3.77777,-1.440899 4.29039,-0.823242 0.40337,0.486063 0.28333,1.03655 -1.11965,5.133673 -2.76865,8.085435 -4.44326,21.397574 -3.84071,30.531311 l 0.23696,3.591919 2.80208,-5.772727 c 14.07856,-29.00395 25.87839,-51.409622 40.58502,-77.06331 2.73953,-4.77872 4.93242,-8.73711 4.8731,-8.79643 -0.0593,-0.0593 -26.99506,19.19575 -59.8572,42.789065 -32.86215,23.593315 -60.02717,42.952937 -60.36674,43.021389 -0.95791,0.193091 -1.30686,-0.534529 -1.30686,-2.724907 0,-4.737921 2.2041,-15.610659 5.93125,-29.258489 0.7072,-2.589671 1.23021,-4.764116 1.1622,-4.832106 -0.14984,-0.149834 -7.85173,6.691514 -16.08734,14.28986 -29.19704,26.937775 -57.513521,56.685073 -81.142498,85.242548 -5.098139,6.161526 -5.443733,6.445878 -6.464017,5.318477 -0.415329,-0.458919 -0.434238,-0.662221 -0.168718,-1.812585 1.33722,-5.793123 0.792993,-14.12304 -1.373165,-21.0179594 -0.636719,-2.0266633 -1.148619,-3.0848939 -1.148619,-2.3744636 0,0.4617925 -0.971588,6.9795347 -1.692563,11.354261 -2.059606,12.497415 -4.95418,25.319129 -8.213128,36.3807 -0.760769,2.582179 -1.383197,4.761088 -1.383197,4.842035 0,0.225213 0.531399,-0.226317 5.635978,-4.788849 z M -4.8676112,-45.467659 c -0.2178499,-0.246945 -0.4804961,-0.853081 -0.5836868,-1.34697 -0.2938446,-1.406493 -1.5070409,-3.911651 -3.0136457,-6.222999 -1.8206923,-2.793153 -4.6353713,-6.265667 -10.7610043,-13.275989 -12.818199,-14.669449 -18.220471,-22.570824 -21.576375,-31.557574 -2.107789,-5.644389 -2.870816,-10.171139 -2.674722,-15.867589 0.211564,-6.14513 1.029187,-8.98195 5.878149,-20.39483 3.025781,-7.12173 4.768452,-12.08109 5.468979,-15.56384 0.555567,-2.76211 0.727261,-3.07879 1.669267,-3.07879 0.649881,0 0.917043,0.24564 1.915366,1.76099 2.106044,3.19676 5.003081,5.31178 7.690786,5.61471 1.508631,0.17005 3.43236,-0.71661 4.85535,-2.23792 2.118412,-2.26473 3.430719,-5.60334 4.310842,-10.96713 0.512054,-3.12056 0.537274,-3.7035 0.26552,-6.13551 -0.542047,-4.85058 -2.155665,-8.81252 -6.673529,-16.38564 -5.090699,-8.53335 -6.033218,-11.82429 -5.069942,-17.70241 0.894541,-5.45867 2.597316,-9.30695 7.951379,-17.9702 6.021955,-9.74392 8.4779552,-15.83777 9.5098366,-23.59591 0.2438656,-1.83342 0.5430468,-3.59327 0.6648898,-3.91077 0.2765008,-0.72062 1.5013708,-0.78831 2.1093031,-0.11657 1.0610529,1.17245 2.99943194,6.6251 3.9405404,11.08475 0.3448242,1.63404 0.4579953,3.30652 0.4513246,6.67071 l -0.00898,4.4899 -1.94207363,6.6707 c -2.32974427,8.00218 -2.86437577,10.74333 -2.73465617,14.02114 0.077431,1.95626 0.2280612,2.68916 0.8161096,3.97081 2.19630453,4.78664 7.7726818,6.10406 10.8761254,2.56945 0.7176911,-0.81741 1.8621023,-3.33332 1.8621023,-4.09373 0,-0.63621 0.806719,-1.45858 1.430841,-1.45858 0.50528,0 0.893259,0.39881 1.934479,1.98839 3.599334,5.49497 5.564909,11.41989 6.490059,19.56313 0.696524,6.13094 0.756202,8.56831 0.304569,12.44343 -0.780062,6.69313 -1.956903,10.29754 -6.086738,18.64219 -3.90031,7.88092 -4.373931,9.27595 -4.5244835,13.32668 -0.095109,2.55904 -0.028915,3.54751 0.3173975,4.73875 0.887281,3.05215 2.412307,5.08708 4.806347,6.41342 1.259198,0.6976 1.551042,0.75168 4.056149,0.75168 2.543489,0 2.802723,-0.0501 4.489898,-0.86816 1.389303,-0.67362 2.314992,-1.40667 4.130681,-3.27121 2.290772,-2.35235 2.982371,-2.75067 3.63787,-2.09517 0.397831,0.39783 0.426746,14.89068 0.03733,18.71492 -0.570833,5.60609 -1.971861,10.10025 -4.307866,13.818449 -1.975196,3.143956 -3.883121,5.20523 -7.568891,8.177363 -6.504889,5.245356 -11.3248079,11.591251 -15.7113107,20.685425 -3.53860458,7.336341 -6.2646145,16.206764 -6.2646145,20.38509 0,1.741131 -1.4100335,2.702611 -2.3690502,1.615414 z M -5.503073,-65.827887 c 4.65222781,-11.879041 10.685061,-20.249392 20.450975,-28.375159 3.57981,-2.978599 4.817636,-4.584957 6.524259,-8.466644 1.680788,-3.823 3.225108,-9.59114 3.225313,-12.04686 l 1.02e-4,-0.98595 h -4.938991 c -5.467183,0 -6.796629,-0.22971 -9.9131317,-1.71281 -2.2524154,-1.07188 -4.7903884,-3.60164 -5.8748913,-5.85588 -1.6299872,-3.38805 -1.948026,-7.08986 -1.0588977,-12.32485 0.7317252,-4.30827 1.671833,-7.33372 4.3817562,-14.10141 4.1941555,-10.47434 5.3092155,-14.29299 5.8797405,-20.13594 0.224392,-2.29808 0.225239,-3.86837 0.0033,-6.39964 -0.249766,-2.85047 -1.095945,-7.71819 -1.393408,-8.01565 -0.04982,-0.0498 -0.579145,0.0818 -1.17625,0.29243 -2.0898559,0.73734 -5.2325541,1.03912 -7.2712503,0.69822 -7.2541626,-1.21302 -12.0636138,-7.68537 -14.5260027,-19.54851 l -0.718948,-3.46363 -0.909448,1.79596 c -1.986229,3.92229 -2.60935,7.47491 -1.883372,10.73799 0.429209,1.92924 1.557277,4.35148 5.2164929,11.20129 2.9259515,5.47714 4.3087377,9.73274 5.0844639,15.64758 0.9639685,7.35025 -0.4729787,16.2913 -3.5658775,22.18795 -1.2781074,2.43671 -4.2728703,5.60404 -6.1633223,6.51846 -2.722675,1.31698 -6.304126,1.68823 -9.154237,0.94891 -0.769363,-0.19956 -1.501755,-0.29923 -1.627549,-0.22149 -0.475622,0.29394 -3.831038,5.69588 -5.143936,8.28132 -8.6487,17.03134 -6.103415,31.590056 8.410298,48.106058 1.116035,1.27 4.112081,4.502727 6.657905,7.183838 4.666569,4.914566 7.289799,7.992456 8.0272457,9.418499 0.4816506,0.931462 0.6029805,0.817906 1.4575237,-1.364082 z M -228.25647,642.8423 c 35.33191,-45.18049 78.83352,-91.32684 129.609935,-137.48978 2.2225,-2.02055 4.040909,-3.7203 4.040909,-3.77718 0,-0.0569 -1.043632,-2.30925 -2.319174,-5.00524 -5.14483,-10.87417 -12.37337,-23.6837 -18.80962,-33.33224 -3.30716,-4.95772 -6.06231,-8.65157 -10.87872,-14.58521 -0.38333,-0.47226 -0.63423,-0.39442 -7.44664,2.3097 -17.22202,6.83612 -29.67794,14.30934 -38.9822,23.38817 -2.0313,1.98209 -2.99281,3.11907 -3.26882,3.86536 -0.21505,0.58154 -4.38343,13.4687 -9.26302,28.63814 -21.98437,68.34375 -33.05294,101.29702 -44.78477,133.3326 -1.81807,4.9646 -3.30561,9.11683 -3.30561,9.2272 0,0.31709 0.4173,-0.19001 5.40773,-6.57152 z m 446.45023,-2.61165 c -11.74909,-32.08264 -22.80642,-65.00145 -44.8009,-133.37663 -4.87959,-15.16944 -9.04797,-28.0566 -9.26302,-28.63814 -0.27601,-0.74629 -1.23752,-1.88327 -3.26882,-3.86536 -9.30426,-9.07883 -21.76018,-16.55205 -38.9822,-23.38817 -6.81241,-2.70412 -7.06331,-2.78196 -7.44664,-2.3097 -4.81641,5.93364 -7.57156,9.62749 -10.87872,14.58521 -6.436255,9.64854 -13.664787,22.45807 -18.80962,33.33224 -1.275542,2.69599 -2.319174,4.94833 -2.319174,5.00524 0,0.0569 1.818409,1.75663 4.040909,3.77718 50.942395,46.31382 93.858715,91.85704 129.965505,137.92066 2.68563,3.42623 4.92829,6.18416 4.98369,6.12876 0.0554,-0.0554 -1.39405,-4.18248 -3.22101,-9.17129 z M -489.91113,298.53083 c 41.58731,-4.52882 91.9475,-8.61786 142.2035,-11.5463 35.49655,-2.06841 64.94659,-3.4182 118.14848,-5.41513 4.30389,-0.16156 7.86363,-0.32886 7.91053,-0.37181 0.19399,-0.17765 -11.22428,-8.95504 -20.22568,-15.54778 -20.62583,-15.10663 -44.12308,-30.63337 -64.36868,-42.53417 l -4.4606,-2.62205 -15.16667,6.79227 c -66.08644,29.59626 -111.91708,48.89184 -160.75921,67.68271 -5.85146,2.25121 -10.69093,4.14502 -10.75438,4.2085 -0.18151,0.18149 0.0776,0.15909 7.47271,-0.64624 z m 975.11401,0.64624 c -0.0634,-0.0635 -4.90292,-1.95729 -10.75438,-4.2085 -48.84212,-18.79087 -94.67278,-38.08645 -160.75921,-67.68271 l -15.16667,-6.79227 -4.4606,2.62205 c -20.2456,11.9008 -43.74285,27.42754 -64.36868,42.53417 -9.0014,6.59274 -20.41967,15.37013 -20.22568,15.54778 0.0469,0.043 3.60664,0.21025 7.91053,0.37181 67.80566,2.54508 107.64373,4.52818 152.65656,7.59912 36.99058,2.52363 79.34102,6.21043 107.24444,9.33614 6.72781,0.75364 8.12335,0.87207 7.92369,0.67241 z M -294.34198,74.937929 c 7.27767,-1.471866 15.13404,-3.625298 21.29495,-5.837023 3.47121,-1.246113 11.1348,-4.969933 11.34259,-5.511466 0.0837,-0.218183 -0.16315,-2.374951 -0.54859,-4.7928 -4.17086,-26.162973 -12.77905,-55.6113719 -23.44689,-80.21127 -2.04008,-4.704388 -2.80816,-6.301176 -3.17128,-6.592916 -0.1867,-0.149989 -4.84219,-1.684072 -10.34552,-3.409091 -58.19745,-18.241817 -84.47565,-26.831711 -111.47855,-36.440454 -22.4378,-7.984297 -45.59025,-17.173375 -60.01798,-23.820785 -2.17755,-1.003274 -3.99951,-1.783798 -4.04881,-1.734512 -0.0493,0.04931 2.82915,2.613968 6.39655,5.699272 51.69366,44.707717 109.05537,100.356189 163.08606,158.215153 4.42481,4.73828 5.05766,5.321505 5.77273,5.319837 0.44173,0 2.76585,-0.398805 5.16474,-0.883945 z M 293.09849,70.502037 C 347.12918,12.643073 404.4909,-43.005399 456.18456,-87.713116 c 3.5674,-3.085304 6.44583,-5.64996 6.39654,-5.699272 -0.0493,-0.04929 -1.87126,0.731238 -4.04881,1.734512 -14.42773,6.64741 -37.58017,15.836488 -60.01799,23.820785 -27.00289,9.608743 -53.28109,18.198637 -111.47854,36.440454 -5.50333,1.725019 -10.15882,3.259102 -10.34552,3.409091 -0.36312,0.29174 -1.1312,1.888528 -3.17128,6.592916 -10.66784,24.5998981 -19.27603,54.048297 -23.44689,80.21127 -0.38544,2.417849 -0.63233,4.574617 -0.54859,4.7928 0.20779,0.541533 7.87138,4.265353 11.34259,5.511466 6.06262,2.176421 13.91042,4.335703 21.16666,5.823912 6.44357,1.321544 5.25957,1.794779 11.06576,-4.422781 z M -105.45933,-145.11724 c 2.85807,-3.76266 7.649636,-12.81281 10.215112,-19.29389 l 1.203344,-3.03997 -0.746195,-0.80852 c -0.410428,-0.4447 -2.941269,-3.11763 -5.624121,-5.93985 -23.78336,-25.01887 -54.11201,-59.10813 -78.70344,-88.46225 -2.10053,-2.50733 -3.85962,-4.51827 -3.90913,-4.46877 -0.0495,0.0495 0.66335,2.33333 1.58413,5.07517 8.04144,23.94538 18.59696,60.68891 28.0765,97.73363 1.57077,6.13833 3.02006,11.7475 3.22064,12.46478 l 0.36471,1.3042 3.82467,1.07686 c 9.49675,2.6739 22.73475,4.99597 32.87476,5.76662 0.635,0.0483 2.3614,0.0772 3.83645,0.0644 l 2.68188,-0.0233 1.10069,-1.44909 z m 211.50676,0.93102 c 8.5644,-0.93071 19.97626,-3.10798 27.72472,-5.28963 l 3.82467,-1.07686 0.36471,-1.3042 c 0.20058,-0.71728 1.64987,-6.32645 3.22064,-12.46478 9.47954,-37.04472 20.03506,-73.78825 28.0765,-97.73363 0.92078,-2.74184 1.63363,-5.02566 1.58413,-5.07517 -0.0495,-0.0495 -1.8086,1.96144 -3.90913,4.46877 -24.59143,29.35412 -54.92008,63.44338 -78.703437,88.46225 -2.682855,2.82222 -5.213696,5.49515 -5.624124,5.93985 l -0.746195,0.80852 1.21022,3.03997 c 2.955431,7.42388 7.95025,16.70168 10.841309,20.13748 l 0.681233,0.80959 3.87663,-0.15997 c 2.132164,-0.088 5.542334,-0.34095 7.578124,-0.56219 z"
       id="path428" /></g></svg>
