<?xml version="1.0" encoding="UTF-8" standalone="no"?>
<!-- Created with Inkscape (http://www.inkscape.org/) -->

<svg
   width="165.01219mm"
   height="187.68524mm"
   viewBox="0 0 165.01219 187.68524"
   version="1.1"
   id="svg5"
   xml:space="preserve"
   inkscape:version="1.2.2 (732a01da63, 2022-12-09)"
   sodipodi:docname="Hatchet Girl.svg"
   xmlns:inkscape="http://www.inkscape.org/namespaces/inkscape"
   xmlns:sodipodi="http://sodipodi.sourceforge.net/DTD/sodipodi-0.dtd"
   xmlns="http://www.w3.org/2000/svg"
   xmlns:svg="http://www.w3.org/2000/svg"><sodipodi:namedview
     id="namedview7"
     pagecolor="#505050"
     bordercolor="#eeeeee"
     borderopacity="1"
     inkscape:showpageshadow="0"
     inkscape:pageopacity="0"
     inkscape:pagecheckerboard="0"
     inkscape:deskcolor="#505050"
     inkscape:document-units="mm"
     showgrid="false"
     inkscape:zoom="0.73851712"
     inkscape:cx="137.43757"
     inkscape:cy="330.3918"
     inkscape:window-width="1920"
     inkscape:window-height="1009"
     inkscape:window-x="-8"
     inkscape:window-y="-8"
     inkscape:window-maximized="1"
     inkscape:current-layer="layer1" /><defs
     id="defs2" /><g
     inkscape:label="Layer 1"
     inkscape:groupmode="layer"
     id="layer1"
     transform="translate(-28.343179,-31.073061)"><path
       style="fill:#000000;stroke-width:0.264583"
       d="m 46.514131,218.63153 c -2.079667,-0.36173 -3.258712,-1.33997 -4.619158,-3.83248 -0.645358,-1.18238 -0.721186,-1.58994 -0.713777,-3.83646 0.01201,-3.64191 1.11073,-6.46601 4.838017,-12.43542 2.41657,-3.87023 3.094638,-4.6607 5.194075,-6.05509 1.011066,-0.67152 2.070111,-1.61867 2.353434,-2.10477 0.503651,-0.86412 0.504516,-0.92646 0.03878,-2.79675 l -0.476355,-1.91293 0.684104,-1.49428 c 0.737197,-1.61026 2.770494,-3.9718 3.940791,-4.57699 0.418195,-0.21625 1.493837,-0.37377 2.552425,-0.37377 h 1.82963 l 1.682377,2.05052 c 4.494652,5.47818 9.403845,11.01986 11.720462,13.23048 2.271207,2.16729 4.595116,3.769 5.468419,3.769 0.163261,0 0.866484,-0.50601 1.562721,-1.12448 0.696241,-0.61846 4.836472,-4.26015 9.20052,-8.09263 l 7.934632,-6.96816 -1.36149,-2.68913 c -0.748821,-1.47903 -1.572469,-3.34398 -1.830332,-4.14435 -0.703641,-2.18399 -0.826569,-5.26259 -0.330713,-8.28244 0.470016,-2.86251 1.128416,-4.38586 2.82114,-6.52732 l 1.120057,-1.41697 -0.177489,-6.1346 c -0.253177,-8.7508 -1.424562,-20.44393 -2.377858,-23.73653 -0.303279,-1.0475 -0.399468,-1.13204 -1.504606,-1.32246 -0.649338,-0.11187 -3.859522,-0.62936 -7.13374,-1.14996 -3.274219,-0.52061 -6.502892,-1.06316 -7.174828,-1.20567 l -1.221703,-0.25911 -0.139446,-1.73719 c -0.175088,-2.18124 -0.779754,-3.09512 -2.123874,-3.20996 -0.522496,-0.0446 -1.321207,0.11079 -1.774917,0.34542 -1.364504,0.70561 -4.128773,5.44423 -4.92914,8.44973 -0.462487,1.7367 -0.510397,12.33946 -0.05964,13.19768 0.166947,0.31786 0.859094,1.23277 1.53811,2.03313 0.679013,0.80036 1.505929,1.84623 1.837587,2.32415 l 0.603017,0.86895 -0.923314,1.11543 c -2.252734,2.72147 -6.386806,7.22927 -6.898563,7.5222 -0.710221,0.40653 -4.457419,0.4334 -6.303081,0.0452 -3.477186,-0.73135 -6.319348,-3.07967 -8.018515,-6.62524 -0.508307,-1.06066 -0.924195,-2.08281 -0.924195,-2.27144 0,-0.18864 0.494165,-1.1445 1.098145,-2.12413 4.776666,-7.74761 5.20859,-8.65468 7.021533,-14.74574 5.242079,-17.61215 6.096275,-19.51699 9.357064,-20.86608 1.604716,-0.66393 5.788694,-1.04924 11.36284,-1.04644 6.3379,0.003 9.87284,0.45025 14.684375,1.8571 1.74625,0.51058 3.387026,0.99029 3.646172,1.06601 0.437146,0.12774 0.465806,-0.1074 0.396875,-3.25607 l -0.0743,-3.39375 -3.250731,-1.86627 C 92.314704,100.39698 90.086391,98.606811 87.653032,95.655784 83.107347,90.143055 80.89537,86.152106 79.265716,80.523006 77.786476,75.413452 77.501925,73.6272 77.703564,70.71668 c 0.215587,-3.111881 -0.103609,-3.88148 -2.659621,-6.412463 -3.093225,-3.062939 -4.08446,-3.011676 -7.685997,0.397478 -3.800975,3.597939 -3.866817,3.884742 -3.797065,16.53997 0.05439,9.867749 -0.147198,12.973216 -1.227209,18.905205 -1.12236,6.1646 -3.504049,11.99502 -7.24495,17.73577 -4.764233,7.31115 -6.595977,9.03418 -12.460607,11.7211 -3.941092,1.80563 -5.890393,2.12599 -7.347583,1.20754 -1.529411,-0.96398 -1.591329,-1.50966 -0.496014,-4.37128 0.530437,-1.38581 0.96443,-2.67386 0.96443,-2.86232 0,-0.18847 -0.386953,-0.56515 -0.859895,-0.83709 -1.832847,-1.05385 -6.548307,-4.18369 -6.545873,-4.34476 0.0014,-0.0933 1.064993,-1.09238 2.363515,-2.22011 3.003158,-2.60814 6.178503,-6.41132 7.625667,-9.1334 1.729975,-3.25405 2.215099,-5.46686 2.374474,-10.830718 0.155701,-5.240211 -0.09849,-8.154906 -1.409626,-16.163679 -2.418938,-14.775506 -2.595864,-21.952556 -0.666351,-27.030622 0.778677,-2.049312 3.107555,-5.228667 4.783128,-6.529868 4.712575,-3.659645 12.716315,-8.638 15.060203,-9.3675 3.582395,-1.114967 7.947686,-1.151096 11.670591,-0.09659 1.63953,0.464394 6.683292,2.666933 10.847916,4.737132 4.487793,2.230843 5.899642,2.604804 9.227465,2.444106 1.546093,-0.07466 4.646991,-0.504172 6.890887,-0.954472 6.836081,-1.371849 9.344161,-1.66172 14.954451,-1.728358 4.30573,-0.05114 5.29619,-0.132165 5.38606,-0.440601 0.20495,-0.703351 4.96256,-5.134522 6.46807,-6.024275 2.19959,-1.299956 5.98177,-2.870237 8.46131,-3.512965 1.73099,-0.448694 2.66356,-0.53655 4.56395,-0.429963 2.70451,0.151687 4.27972,0.665991 7.27616,2.37566 3.11177,1.775472 4.02632,3.788152 2.30413,5.07078 -0.66307,0.493837 -1.21971,0.570845 -5.02708,0.695474 -3.4601,0.113262 -4.4591,0.233787 -5.20749,0.628261 -1.55613,0.820232 -3.16012,2.266222 -3.71045,3.344959 -0.52467,1.028437 -0.70521,2.754174 -0.31346,2.996289 0.11518,0.07118 1.57369,-0.05161 3.24114,-0.27288 1.88911,-0.250682 4.17849,-0.358133 6.07444,-0.285101 2.62412,0.101082 3.2793,0.221841 4.7625,0.87781 3.2033,1.41671 6.07487,3.561354 6.64623,4.963773 0.18731,0.45975 0.51305,0.966615 0.72386,1.126365 0.27795,0.210625 0.34121,0.604293 0.23015,1.432304 -0.18437,1.374568 -0.8881,2.389859 -1.88736,2.722946 -0.64972,0.216572 -0.97,0.08321 -2.69851,-1.123638 -2.52802,-1.765059 -4.37075,-2.597727 -6.23337,-2.81664 -1.52412,-0.179131 -4.11496,0.02726 -4.58849,0.365527 -0.17004,0.121467 -0.21577,4.328903 -0.13001,11.961336 l 0.13229,11.773959 0.79375,1.240078 c 0.43656,0.682046 1.37334,2.14952 2.08173,3.261056 l 1.28797,2.020977 -0.491,1.088846 c -0.27005,0.598865 -1.35565,2.215366 -2.41245,3.592224 -1.68297,2.19266 -1.92146,2.641261 -1.92146,3.614264 0,1.748851 -0.46777,2.709688 -1.74801,3.590512 -0.63932,0.439867 -1.16241,0.963496 -1.16241,1.163622 0,0.200123 0.32125,0.745635 0.71387,1.212246 0.62811,0.746467 0.71012,1.05881 0.68267,2.599994 -0.0304,1.70467 -0.98239,5.32585 -1.83846,6.99293 -0.61014,1.18813 -2.21027,2.81885 -3.37649,3.44104 -0.87891,0.4689 -1.51322,0.57312 -3.45763,0.5681 -2.21643,-0.006 -2.58419,-0.0898 -5.31335,-1.21503 -1.61266,-0.66489 -3.26499,-1.29243 -3.67184,-1.39455 l -0.73972,-0.18565 0.11678,3.05101 c 0.0642,1.67806 0.16874,3.09434 0.23225,3.14728 0.34232,0.28543 17.49266,12.37798 18.45886,13.01518 1.0266,0.67704 1.24627,0.72695 2.11667,0.48088 3.79502,-1.07288 19.77295,-6.08708 22.13785,-6.9473 3.48562,-1.26788 4.10104,-1.82571 4.10104,-3.71728 0,-2.17516 0.0845,-2.12355 -3.47619,-2.12355 -2.53804,0 -3.18431,-0.0764 -3.3049,-0.39066 -0.0824,-0.21486 0.0392,-2.98306 0.27036,-6.15156 0.23115,-3.1685 0.53591,-7.8445 0.67723,-10.391117 0.91149,-16.424405 0.60496,-19.610811 -2.25267,-23.416708 -0.65513,-0.872529 -1.26208,-1.863481 -1.34879,-2.202116 -0.40564,-1.584368 1.2315,-2.733387 8.11205,-5.693376 2.83765,-1.22075 6.52859,-2.839762 8.20208,-3.597807 1.67349,-0.758044 4.03193,-1.788205 5.24098,-2.289244 1.20904,-0.501038 3.39826,-1.507511 4.86492,-2.236605 1.46665,-0.729093 2.68941,-1.292338 2.71723,-1.251656 0.49308,0.720982 2.52378,4.530709 3.77676,7.085428 2.15907,4.402156 2.58304,5.422239 2.96911,7.14375 0.17949,0.800365 0.43535,1.931459 0.56858,2.513542 0.56319,2.46059 0.75432,5.088324 0.75926,10.438768 0.003,3.121948 0.13214,8.182104 0.28724,11.244791 0.24217,4.78202 0.22376,5.8488 -0.13033,7.5529 -0.8746,4.20901 -3.19699,7.19374 -7.09726,9.12136 l -1.92079,0.9493 0.21359,3.49748 c 0.41603,6.81253 0.0476,8.58357 -2.20972,10.62295 -1.9452,1.75737 -3.00352,2.06363 -7.9229,2.29274 -2.4011,0.11182 -4.81823,0.33771 -5.3714,0.50197 -0.55318,0.16426 -2.8749,1.23143 -5.15938,2.37149 -4.72824,2.35959 -5.49399,2.64974 -14.36192,5.44174 -7.25054,2.28278 -9.3188,3.13395 -11.03777,4.54252 l -1.18655,0.97229 -4.72016,-2.42984 c -2.59609,-1.33641 -4.94585,-2.42983 -5.2217,-2.42983 -0.35071,0 -1.18754,1.04236 -2.78278,3.46626 -1.25469,1.90644 -2.27987,3.66261 -2.27817,3.9026 0.01,1.38436 2.70178,16.32628 2.99406,16.61856 0.0798,0.0798 6.73067,0.01 14.7797,-0.1552 21.65964,-0.44445 25.09086,-0.43221 26.19855,0.0934 0.84781,0.40231 1.79832,1.78169 1.79701,2.60781 -0.001,0.69387 -6.55294,16.57763 -8.85157,21.45903 -1.74341,3.70235 -3.65529,6.71778 -5.94894,9.38273 -0.91149,1.05905 -1.61532,1.95974 -1.56406,2.00155 0.0513,0.0418 1.54972,0.82394 3.32991,1.73809 3.75685,1.92918 5.4331,3.38258 6.56862,5.69534 0.67799,1.3809 0.77726,1.8737 0.7722,3.83356 -0.007,2.84551 -0.57566,4.05186 -2.48655,5.27807 -4.53313,2.9089 -9.26896,2.48006 -16.05432,-1.45374 -3.55006,-2.05814 -5.18114,-3.44788 -6.23199,-5.30989 -0.93245,-1.65222 -2.38456,-3.01353 -3.21023,-3.0095 -0.32236,0.002 -1.18142,0.18418 -1.90902,0.40579 -1.97559,0.60171 -3.44863,0.17141 -5.34435,-1.56117 -1.75899,-1.60761 -2.71914,-3.45959 -2.72286,-5.25196 l -0.003,-1.24512 5.62239,-4.70707 c 5.28543,-4.42497 14.14367,-12.77383 15.35304,-14.47018 l 0.54567,-0.7654 -5.13816,0.15261 c -6.99041,0.20762 -11.82704,1.2788 -17.07849,3.78242 -4.65182,2.21775 -8.16417,5.39047 -20.96855,18.94101 -7.585261,8.02728 -15.330646,15.67151 -17.140732,16.91688 -1.453698,1.00018 -0.925934,1.08534 -9.217044,-1.48725 -7.909139,-2.45407 -12.709646,-4.56368 -14.852757,-6.52715 l -0.565259,-0.51788 -2.017858,2.76889 c -2.69902,3.70357 -5.018503,5.86319 -6.842228,6.37066 -1.910283,0.53156 -3.795897,0.67985 -5.305672,0.41725 z"
       id="path302" /></g></svg>
