<?xml version="1.0" encoding="UTF-8" standalone="no"?>
<!-- Created with Inkscape (http://www.inkscape.org/) -->

<svg
   width="109.01888mm"
   height="103.39557mm"
   viewBox="0 0 109.01888 103.39557"
   version="1.1"
   id="svg630"
   xml:space="preserve"
   inkscape:version="1.2.2 (732a01da63, 2022-12-09)"
   sodipodi:docname="Old 2 WhitCopr Logo.svg"
   xmlns:inkscape="http://www.inkscape.org/namespaces/inkscape"
   xmlns:sodipodi="http://sodipodi.sourceforge.net/DTD/sodipodi-0.dtd"
   xmlns="http://www.w3.org/2000/svg"
   xmlns:svg="http://www.w3.org/2000/svg"><sodipodi:namedview
     id="namedview632"
     pagecolor="#505050"
     bordercolor="#eeeeee"
     borderopacity="1"
     inkscape:showpageshadow="0"
     inkscape:pageopacity="0"
     inkscape:pagecheckerboard="0"
     inkscape:deskcolor="#505050"
     inkscape:document-units="mm"
     showgrid="false"
     inkscape:zoom="0.73851712"
     inkscape:cx="-161.81074"
     inkscape:cy="284.3536"
     inkscape:window-width="1920"
     inkscape:window-height="1009"
     inkscape:window-x="-8"
     inkscape:window-y="-8"
     inkscape:window-maximized="1"
     inkscape:current-layer="layer1" /><defs
     id="defs627"><filter
       style="color-interpolation-filters:sRGB"
       inkscape:label="Lightness-Contrast"
       id="filter777"
       x="0"
       y="0"
       width="1"
       height="1"><feColorMatrix
         values="1.60703 0 0 0.0124937 -0.303514 0 1.60703 0 0.0124937 -0.303514 0 0 1.60703 0.0124937 -0.303514 0 0 0 1 0"
         id="feColorMatrix775" /></filter></defs><g
     inkscape:label="Layer 1"
     inkscape:groupmode="layer"
     id="layer1"
     transform="translate(-193.08518,-105.75809)"><path
       style="fill:#000000;stroke-width:0.264583"
       d="m 202.61018,204.78803 c 0,-5.48477 -0.0379,-5.42395 3.38071,-5.42395 2.79729,0 3.49846,0.34769 3.49846,1.73479 v 0.91104 h -2.26736 c -2.20186,0 -2.26474,0.0172 -2.17653,0.59531 0.05,0.32742 0.20706,0.5807 0.34913,0.56284 0.14206,-0.0179 0.76431,-0.10857 1.38278,-0.20157 l 1.12448,-0.16909 v 1.18872 c 0,1.08473 -0.0637,1.20157 -0.72761,1.33579 -1.39582,0.28216 -2.00802,0.5267 -2.11342,0.84419 -0.076,0.22888 0.51821,0.34165 2.09124,0.39688 l 2.1974,0.0771 0.17374,1.05833 c 0.0956,0.58208 0.12,1.14763 0.0543,1.25677 -0.0657,0.10914 -1.6602,0.19844 -3.54338,0.19844 h -3.42397 z m 11.90625,3.58971 c 0,-0.82739 0.13142,-0.90649 1.98438,-1.1944 2.39799,-0.3726 2.51354,-0.42286 2.51354,-1.09341 0,-0.71167 -0.34431,-0.78618 -1.85209,-0.40079 -0.50932,0.13018 -1.31299,0.30514 -1.78593,0.38879 l -0.8599,0.15208 v -2.9038 c 0,-3.81858 0.12249,-3.96213 3.38071,-3.96213 2.48329,0 3.49846,0.37951 3.49846,1.30787 0,0.37598 -0.28074,0.52421 -1.25677,0.66355 -2.45998,0.35121 -3.24115,0.65263 -3.24115,1.25063 0,0.59584 0.0236,0.59618 3.63802,0.0524 l 1.12448,-0.16916 v 3.34213 3.34213 h -3.57187 -3.57188 z m 14.28345,-2.06835 c -0.002,-1.56435 -0.1039,-3.00176 -0.22594,-3.19424 -0.15541,-0.24511 -0.51093,-0.29574 -1.18658,-0.16899 l -0.96468,0.18097 v -1.88152 -1.88153 h 3.43958 3.43959 v 1.29966 1.29966 l -1.05834,0.1788 -1.05833,0.17881 v 3.41632 3.41633 h -1.19062 -1.19063 l -0.004,-2.84427 z m 9.52905,2.03295 c 0,-0.72899 0.0738,-0.80283 0.72761,-0.72761 0.57149,0.0658 0.74556,0.23983 0.81132,0.81133 0.0752,0.65376 0.001,0.7276 -0.72761,0.7276 -0.72898,0 -0.81132,-0.0823 -0.81132,-0.81132 z m 13.22917,-0.8361 v -1.64743 l 1.9116,-1.92445 c 1.88531,-1.89797 1.90059,-1.92445 1.11024,-1.92445 -0.5685,0 -1.06219,0.2691 -1.69893,0.92604 -0.49365,0.50932 -0.99326,0.92604 -1.11023,0.92604 -0.11698,0 -0.21268,-0.75145 -0.21268,-1.6699 0,-2.49789 0.40412,-2.82801 3.46191,-2.82801 2.17729,0 2.43903,0.056 3.0324,0.64943 0.43507,0.43506 0.64944,0.94663 0.64944,1.5498 0,0.79176 -0.26157,1.13629 -2.16849,2.85629 l -2.16848,1.95593 2.10234,0.1323 2.10234,0.13229 0.0806,1.25677 0.0806,1.25677 h -3.58638 -3.58637 z m 11.4258,-2.87235 c 0.10019,-5.41834 0.01,-5.27168 3.243,-5.2662 3.84568,0.007 3.85203,0.0159 3.85203,5.69738 v 4.08859 h -3.5893 -3.58929 z m 4.04673,1.61148 c 0.66756,-0.25381 0.68775,-0.32577 0.61254,-2.18281 l -0.0778,-1.92036 -0.91573,0.0747 c -1.16954,0.0954 -1.32424,0.36646 -1.32918,2.32858 -0.005,2.07059 0.19961,2.27417 1.71015,1.69987 z m 7.54622,1.07511 c 0,-1.26129 0.12151,-1.9547 0.3895,-2.22269 0.34294,-0.34294 0.34294,-0.42814 0,-0.71275 -0.27804,-0.23075 -0.3895,-0.87756 -0.3895,-2.26023 0,-2.53007 0.28738,-2.76073 3.43958,-2.76073 3.02248,0 3.43959,0.28417 3.43959,2.34333 0,0.83577 -0.14288,1.66246 -0.3175,1.83708 -0.24695,0.24695 -0.24695,0.38806 0,0.635 0.19884,0.19884 0.3175,1.18769 0.3175,2.64584 v 2.32833 h -3.43959 -3.43958 z m 4.49792,-1.34182 c 0,-0.545 -0.79099,-0.71668 -1.69815,-0.36857 -0.85765,0.32911 -0.45238,0.89774 0.63981,0.89774 0.88195,0 1.05834,-0.0882 1.05834,-0.52917 z m -0.41852,-3.07102 c 0.85764,-0.3291 0.45238,-0.89773 -0.63982,-0.89773 -0.88194,0 -1.05833,0.0882 -1.05833,0.52917 0,0.545 0.79099,0.71667 1.69815,0.36856 z m 7.29768,1.7631 c 0,-5.43627 -0.084,-5.30666 3.43959,-5.30666 3.52359,0 3.43958,-0.12961 3.43958,5.30666 v 4.48292 h -3.43958 -3.43959 z m 3.6711,1.67172 0.82682,-0.16536 v -2.10462 -2.10462 l -0.85989,0.18443 c -0.47295,0.10144 -0.9492,0.23699 -1.05834,0.30122 -0.2801,0.16486 -0.24837,4.05432 0.0331,4.05432 0.12734,0 0.60359,-0.0744 1.05834,-0.16537 z m -96.02664,-11.26934 c -0.48564,-0.17971 -0.51321,-0.48934 -0.51321,-5.76318 0,-6.45786 0.15539,-7.15665 1.7051,-7.6681 1.69255,-0.55859 1.73448,-0.46692 1.73448,3.79091 0,4.06705 0.0783,4.3273 1.34421,4.46764 l 0.64017,0.071 0.0747,-3.12379 0.0747,-3.12379 1.24824,0.18105 c 2.21059,0.32062 2.17429,0.2572 2.17429,3.79857 0,3.32266 0.0528,3.45858 1.34456,3.45858 0.48155,0 0.50752,-0.24419 0.50752,-4.7708 0,-5.30075 0.007,-5.31955 1.70806,-4.75807 1.68394,0.55575 1.73153,0.76109 1.73153,7.47108 v 6.02654 l -1.12448,0.0111 c -0.61847,0.006 -3.60221,0.0359 -6.63055,0.0661 -3.02833,0.0303 -5.737,-0.0304 -6.01927,-0.13483 z m 19.59512,0.0889 -0.92604,-0.16361 v -6.01364 -6.01364 l 0.69058,-0.6902 c 0.44109,-0.44084 1.01461,-0.70574 1.5875,-0.73323 l 0.89692,-0.043 0.13229,2.51354 0.1323,2.51355 1.16755,-0.0544 c 1.88276,-0.0877 1.87515,-0.0772 1.87515,-2.59147 0,-1.77126 0.0867,-2.29884 0.39747,-2.41809 0.62622,-0.2403 1.70662,0.1325 2.40345,0.82932 0.63822,0.63823 0.63867,0.64297 0.63867,6.73612 v 6.09744 h -1.71979 -1.7198 v -2.51354 -2.51354 h -0.90881 c -0.49985,0 -1.21423,0.11612 -1.5875,0.25803 -0.65425,0.24875 -0.67869,0.33813 -0.67869,2.48269 0,2.08338 -0.0378,2.23478 -0.59531,2.38418 -0.32742,0.0877 -0.65484,0.14549 -0.7276,0.12832 -0.0728,-0.0172 -0.54901,-0.10484 -1.05834,-0.19482 z m 38.03386,0.0408 -2.57969,-0.0912 v -5.96094 c 0,-3.76402 0.10536,-6.15781 0.28588,-6.49511 0.48755,-0.91099 1.86395,-1.28312 4.74585,-1.28312 3.82669,0 4.75785,0.58385 4.75785,2.98321 v 1.16592 l -1.45121,0.32477 c -1.51869,0.33986 -1.98837,0.2481 -1.98837,-0.38847 0,-0.28575 -0.36457,-0.38126 -1.45521,-0.38126 h -1.45521 v 3.30729 3.30729 h 1.45521 c 1.42491,0 1.45521,-0.0158 1.45521,-0.75722 0,-0.70874 0.096,-0.77651 1.49934,-1.05834 0.82463,-0.16561 1.59854,-0.30111 1.71979,-0.30111 0.12125,0 0.22045,1.25016 0.22045,2.77813 v 2.77812 l -1.78593,0.004 c -0.98227,0.002 -2.02407,0.0387 -2.31511,0.0816 -0.29104,0.0429 -1.69002,0.037 -3.10885,-0.0132 z m 12.4216,0.0244 c -0.31092,-0.31091 -0.21695,-11.97706 0.10126,-12.57163 0.48825,-0.91231 1.86353,-1.28312 4.75886,-1.28312 2.9938,0 4.20756,0.38164 4.70818,1.48041 0.19605,0.43026 0.30125,2.68956 0.30125,6.46954 v 5.80837 h -4.47628 c -2.46196,0 -4.64106,0.0632 -4.84247,0.14052 -0.2014,0.0773 -0.44926,0.0574 -0.5508,-0.0441 z m 6.07254,-4.36249 c 0.25527,-0.21187 0.35742,-1.03096 0.35742,-2.86599 0,-1.41313 -0.0653,-2.63463 -0.14509,-2.71443 -0.0798,-0.0798 -0.76441,-0.008 -1.52136,0.16004 l -1.37626,0.30513 -0.0755,2.87581 -0.0755,2.87582 1.23941,-0.16988 c 0.68167,-0.0934 1.40025,-0.30336 1.59683,-0.46651 z m 22.91315,4.34933 -0.59531,-0.12007 v -5.78521 c 0,-3.19179 0.11785,-6.09519 0.2629,-6.47669 0.40374,-1.0619 1.7019,-1.45963 4.76418,-1.45963 3.06229,0 4.36045,0.39773 4.76419,1.45963 0.40741,1.07158 0.34187,6.99334 -0.0792,7.15492 -0.18815,0.0722 -1.64666,0.3368 -3.24114,0.588 l -2.89905,0.45674 -0.0773,2.04952 c -0.0721,1.91286 -0.11623,2.04976 -0.66146,2.05313 -0.3213,0.002 -0.82231,0.0478 -1.11335,0.10168 -0.29104,0.0539 -0.79705,0.044 -1.12448,-0.022 z m 5.02709,-8.03468 c 0.90177,-0.25043 0.99218,-0.3588 0.99218,-1.18915 v -0.9136 h -1.5875 -1.5875 v 1.01423 c 0,1.47816 0.27894,1.61725 2.18282,1.08852 z m -70.91281,1.13839 0.0706,-6.81302 h 1.5875 1.5875 l 0.0706,6.81302 0.0706,6.81302 h -1.72872 -1.72872 z m 10.78624,2.42142 v -4.3916 l -1.59741,0.1854 -1.59741,0.18539 0.0761,-2.60681 0.076,-2.60682 h 4.8948 4.89479 l 0.0811,1.58011 c 0.0912,1.77615 -0.25026,2.25635 -1.60428,2.25635 -0.41831,0 -0.99087,0.12325 -1.27234,0.27389 -0.47599,0.25474 -0.51178,0.59704 -0.51178,4.89479 v 4.6209 h -1.71979 -1.71979 z m 40.21667,-1.57892 c 0,-3.77088 0.10532,-6.16731 0.28588,-6.50469 0.48729,-0.91052 1.86409,-1.28312 4.7412,-1.28312 4.36451,0 5.20981,0.7443 4.9781,4.38325 -0.0839,1.31734 -0.24465,1.83129 -0.73673,2.35508 -0.52597,0.55986 -0.55554,0.67 -0.17989,0.67 0.70429,0 0.99079,1.20175 0.90884,3.8122 l -0.0755,2.40551 -1.65365,0.0788 -1.65365,0.0788 v -2.13759 c 0,-2.41655 -0.0615,-2.48903 -1.85208,-2.18062 l -1.19062,0.20507 -0.0773,2.04394 -0.0773,2.04395 h -1.70867 -1.70866 z m 6.13441,-2.25778 c 0.35168,-0.18821 0.48622,-0.49611 0.42989,-0.98376 -0.0771,-0.66734 -0.17304,-0.71456 -1.60336,-0.78916 l -1.52136,-0.0794 v 1.23764 1.23765 l 1.09147,-0.17454 c 0.60031,-0.096 1.32183,-0.29781 1.60336,-0.44848 z m -37.75212,-17.28824 c -0.97124,-0.44094 -17.14665,-16.67689 -16.40417,-16.46556 0.29104,0.0828 1.89839,0.62766 3.57188,1.21071 3.02453,1.05377 7.51098,1.95492 11.4559,2.30103 1.86773,0.16387 2.09745,0.24638 2.42482,0.87098 0.53365,1.01816 1.98982,2.3259 3.11026,2.79322 2.90634,1.2122 6.3761,-0.50243 7.433,-3.67312 0.30953,-0.9286 0.48255,-1.08663 1.39234,-1.27171 0.57139,-0.11624 1.96184,-0.51655 3.08989,-0.88959 1.12805,-0.37303 2.17415,-0.63719 2.32468,-0.58702 0.4625,0.15417 -14.88595,15.23958 -15.96331,15.68973 -1.15948,0.48447 -1.41033,0.48666 -2.43529,0.0213 z m -2.79559,-15.09642 c -6.24463,-0.75693 -11.52165,-2.60616 -17.48918,-6.12873 -1.49382,-0.88178 -2.96663,-2.15053 -5.58741,-4.81325 -5.09775,-5.17933 -5.10308,-5.323 -0.37253,-10.04219 l 3.23747,-3.22969 1.71404,1.59981 c 1.84632,1.72329 5.29425,4.30821 7.0057,5.2522 1.00467,0.55414 1.05929,0.64925 1.07725,1.87573 0.0239,1.6309 0.89457,2.99031 2.37972,3.71546 1.84221,0.89949 3.56857,0.53704 5.06415,-1.06323 l 0.80132,-0.85741 2.35024,0.3507 c 3.38704,0.50542 8.70829,0.44013 11.74294,-0.14408 6.37023,-1.22635 12.45713,-4.26901 17.28532,-8.64042 l 1.80719,-1.63621 2.78458,2.75221 c 4.76629,4.71091 4.75512,4.8174 -1.13448,10.81829 -4.16169,4.24034 -4.41295,4.44577 -7.03907,5.7551 -3.02606,1.50873 -5.27987,2.39727 -8.11804,3.20045 l -1.89753,0.53699 -0.62877,-0.99603 c -0.94251,-1.49303 -2.09613,-2.33153 -3.70227,-2.69097 -2.75222,-0.61592 -5.31081,0.75132 -6.4764,3.46081 -0.6522,1.51607 -0.37056,1.46188 -4.80424,0.92446 z m 2.39871,-15.10001 c -0.3638,-0.0635 -1.51329,-0.2491 -2.55443,-0.41248 -1.84952,-0.29024 -1.90376,-0.32098 -2.36276,-1.33887 -1.14464,-2.53835 -3.5225,-3.33058 -6.22304,-2.07331 -0.58213,0.27101 -0.84932,0.23839 -1.7198,-0.20997 -1.67899,-0.8648 -4.72423,-3.10779 -6.5939,-4.85677 l -1.74541,-1.63275 2.98858,-2.99709 c 1.64373,-1.6484 3.116,-2.99709 3.27173,-2.99709 0.15573,0 0.69345,0.42861 1.19494,0.95245 4.03587,4.21578 9.75606,6.61844 16.26078,6.83004 2.13411,0.0694 2.82836,0.19551 3.57187,0.64877 1.39349,0.84947 3.01249,0.76466 3.98596,-0.20882 0.42537,-0.42537 0.7734,-0.96416 0.7734,-1.1973 0,-0.27135 0.72555,-0.75456 2.01607,-1.34266 2.23956,-1.0206 4.66393,-2.6735 6.41246,-4.37191 l 1.15248,-1.11945 3.07514,3.07514 3.07514,3.07514 -1.3172,1.33769 c -1.58347,1.60809 -5.23168,4.24925 -7.3574,5.32644 -2.22539,1.12771 -5.52595,2.3066 -8.11502,2.89851 -2.15073,0.4917 -8.28599,0.87669 -9.78959,0.61429 z m 0,-11.93908 c -4.65764,-0.78295 -10.06858,-3.62787 -12.52369,-6.5846 l -0.6765,-0.81473 7.06312,-7.0276 c 3.88471,-3.86518 7.34136,-7.11151 7.68143,-7.21405 0.34008,-0.10254 1.05445,-0.1067 1.5875,-0.009 0.82553,0.15093 2.05606,1.26021 8.30193,7.48388 6.13517,6.11338 7.28026,7.37076 7.01145,7.69904 -0.76996,0.94029 -4.2846,3.50485 -5.87892,4.28973 l -1.73973,0.85647 -1.14279,-0.57074 c -0.62854,-0.3139 -1.42741,-0.57029 -1.77528,-0.56975 -0.8323,10e-4 -2.23616,0.87274 -2.63957,1.6385 -0.17659,0.33521 -0.45208,0.69694 -0.6122,0.80386 -0.30159,0.20137 -3.49474,0.21456 -4.65675,0.0192 z"
       id="path779" /></g></svg>
