<?xml version="1.0" encoding="UTF-8" standalone="no"?>
<!-- Created with Inkscape (http://www.inkscape.org/) -->

<svg
   width="123.38525mm"
   height="81.590385mm"
   viewBox="0 0 123.38525 81.590388"
   version="1.1"
   id="svg403"
   xml:space="preserve"
   inkscape:version="1.2.2 (732a01da63, 2022-12-09)"
   sodipodi:docname="Old WhitCopr Logo.svg"
   xmlns:inkscape="http://www.inkscape.org/namespaces/inkscape"
   xmlns:sodipodi="http://sodipodi.sourceforge.net/DTD/sodipodi-0.dtd"
   xmlns="http://www.w3.org/2000/svg"
   xmlns:svg="http://www.w3.org/2000/svg"><sodipodi:namedview
     id="namedview405"
     pagecolor="#505050"
     bordercolor="#eeeeee"
     borderopacity="1"
     inkscape:showpageshadow="0"
     inkscape:pageopacity="0"
     inkscape:pagecheckerboard="0"
     inkscape:deskcolor="#505050"
     inkscape:document-units="mm"
     showgrid="false"
     inkscape:zoom="0.73851712"
     inkscape:cx="532.82448"
     inkscape:cy="258.62637"
     inkscape:window-width="1920"
     inkscape:window-height="1009"
     inkscape:window-x="-8"
     inkscape:window-y="-8"
     inkscape:window-maximized="1"
     inkscape:current-layer="layer1" /><defs
     id="defs400"><filter
       style="color-interpolation-filters:sRGB"
       inkscape:label="Lightness-Contrast"
       id="filter583"
       x="0"
       y="0"
       width="1"
       height="1"><feColorMatrix
         values="1.60703 0 0 0.0124937 -0.303514 0 1.60703 0 0.0124937 -0.303514 0 0 1.60703 0.0124937 -0.303514 0 0 0 1 0"
         id="feColorMatrix581" /></filter><filter
       style="color-interpolation-filters:sRGB"
       inkscape:label="Lightness-Contrast"
       id="filter583-3"
       x="0"
       y="0"
       width="1"
       height="1"><feColorMatrix
         values="1.60703 0 0 0.0124937 -0.303514 0 1.60703 0 0.0124937 -0.303514 0 0 1.60703 0.0124937 -0.303514 0 0 0 1 0"
         id="feColorMatrix581-1" /></filter></defs><g
     inkscape:label="Layer 1"
     inkscape:groupmode="layer"
     id="layer1"
     transform="translate(104.00944,-158.31076)"><path
       style="fill:#000000;stroke-width:0.264583"
       d="m -37.064414,239.47981 c -1.52912,-0.54231 -3.17553,-2.03956 -3.99899,-3.6367 -0.972,-1.88524 -1.01826,-4.74912 -0.10661,-6.6007 2.31422,-4.70026 8.53562,-5.70484 12.26071,-1.97974 0.55185,0.55184 1.00235,1.15217 1.00113,1.33408 -0.001,0.1819 -0.62014,0.65781 -1.37537,1.05758 l -1.37315,0.72685 -0.67515,-0.62838 c -1.00425,-0.93469 -1.70458,-1.2222 -2.97699,-1.2222 -1.51778,0 -2.85176,0.74636 -3.59598,2.01192 -1.98373,3.37341 2.13166,7.4131 5.47536,5.37465 0.49525,-0.30192 1.09056,-0.77579 1.32292,-1.05304 0.4119,-0.49148 0.45719,-0.4838 1.81152,0.3072 0.76399,0.44621 1.38906,0.92018 1.38906,1.05326 0,0.54372 -1.97502,2.37411 -3.24405,3.0065 -1.58164,0.78816 -4.09531,0.89387 -5.91441,0.24872 z m 16.7231,0.0116 c -3.92541,-1.43825 -5.90169,-6.12524 -4.25234,-10.08496 0.19334,-0.46415 0.83958,-1.3734 1.4361,-2.02055 3.46857,-3.76295 9.83184,-2.97329 12.09938,1.50149 2.5798604,5.0911 -0.95798,11.05107 -6.52903,10.99905 -0.94588,-0.009 -2.18523,-0.1866 -2.75411,-0.39503 z m 4.50528,-3.45282 c 1.23099,-0.58415 2.016,-1.77239 2.14203,-3.24233 0.37161,-4.3341 -5.48055,-5.97936 -7.54483,-2.12114 -1.81308,3.38871 1.86653,7.04153 5.4028,5.36347 z m -84.969276,0.90339 c -0.40605,-1.49757 -1.29308,-4.74692 -1.9712,-7.22077 l -1.23293,-4.49792 1.70283,-0.0789 c 0.93656,-0.0434 1.74318,-0.0386 1.7925,0.0107 0.0493,0.0493 0.40114,1.335 0.781837,2.85708 1.10591,4.42157 1.485815,5.61353 1.712669,5.37355 0.116922,-0.12369 0.722061,-2.0406 1.344755,-4.25979 l 1.132171,-4.0349 h 1.792576 1.792576 l 0.523317,1.78594 c 0.287824,0.98227 0.826698,2.84563 1.197498,4.14081 0.370798,1.29518 0.732857,2.41355 0.804575,2.48526 0.191235,0.19124 0.360883,-0.34111 1.436513,-4.50771 l 0.973759,-3.772 1.798532,-0.0787 c 1.625414,-0.0712 1.785175,-0.0329 1.659789,0.39688 -0.07631,0.26158 -0.697513,2.5592 -1.380458,5.10581 -0.682943,2.54662 -1.509705,5.58271 -1.837251,6.74688 l -0.595535,2.11667 -1.862862,0.0773 -1.862866,0.0773 -0.700584,-2.32631 c -0.385324,-1.27946 -0.914244,-3.03547 -1.175383,-3.90224 -0.261138,-0.86677 -0.585729,-1.61292 -0.721312,-1.65812 -0.135583,-0.0452 -0.776264,1.67601 -1.423734,3.8249 l -1.177216,3.90708 -1.883153,0.077 -1.883153,0.077 z m 20.765716,0.84902 c -0.0059,-1.01865 -0.01072,-3.75709 -0.01072,-6.08542 0,-2.32833 0.0048,-4.76911 0.01072,-5.42396 l 0.01073,-1.19062 h 1.5875 1.5875 l 0.01831,1.25677 c 0.01008,0.69122 0.03984,1.91161 0.06615,2.71198 l 0.04783,1.45521 h 3.042708 3.042702 l 0.0754,-2.71198 0.0754,-2.71198 h 1.57824 1.57824 v 7.27604 7.27604 h -1.5875 -1.5875 v -2.77812 c 0,-1.52797 -0.0298,-2.78787 -0.0661,-2.79977 -0.44172,-0.14452 -5.166379,-0.24875 -5.659985,-0.12486 -0.519949,0.1305 -0.651637,0.31984 -0.614744,0.88389 0.02582,0.3948 0.03433,1.64055 0.01892,2.76834 l -0.02804,2.05052 h -1.5875 -1.5875 l -0.01072,-1.85208 z m 17.47323,-5.42396 V 225.091 h 1.71979 1.71979 v 7.27604 7.27604 h -1.71979 -1.71979 z m 10.58333,1.73188 v -5.54416 l -1.78594,-0.0782 -1.78593,-0.0782 -0.0788,-1.65365 -0.0788,-1.65364 h 5.43659 5.43658 v 1.71979 1.71979 h -1.85208 -1.85209 v 5.55625 5.55625 h -1.71979 -1.71979 z m 45.4201404,5.36777 c -0.097,-0.097 -0.17639,-3.37123 -0.17639,-7.27604 V 225.091 l 3.63802,0.006 c 2.97969998,0.005 3.83509948,0.0953 4.7270695,0.50037 2.89985,1.31687 3.69639,5.29277 1.53882,7.68094 l -0.9141,1.01181 0.95481,1.68439 c 0.52515,0.92641 1.18377,2.13087 1.4636,2.67657 l 0.50879,0.99219 h -1.96833 -1.96832 l -1.21705952,-2.23271 c -1.22398998,-2.24546 -1.77747998,-2.72031 -2.79454998,-2.39751 -0.47405,0.15046 -0.52916,0.40032 -0.52916,2.39908 v 2.23113 h -1.54341 c -0.84887,0 -1.62278,-0.0794 -1.71979,-0.17639 z m 7.23194948,-8.29028 c 0.64341002,-0.64341 0.68006002,-1.51138 0.0913,-2.16198 -0.34297,-0.37897 -0.8304395,-0.48385 -2.24895948,-0.48385 h -1.81107 v 1.41111 c 0,0.77611 0.0794,1.49049 0.17639,1.5875 0.097,0.097 0.87091,0.17639 1.71979,0.17639 1.19061998,0 1.66434998,-0.12095 2.07256948,-0.52917 z m 8.20208002,1.19063 V 225.091 l 3.1088501,0.002 c 3.79195,0.002 4.70639,0.23562 5.93142,1.51661 3.08887,3.22985 0.98494,8.27139 -3.45184,8.27139 -2.13076,0 -2.14885,0.0214 -2.14885,2.54185 v 2.22065 h -1.71979 -1.7197901 z m 6.5557101,-1.07334 c 0.41207,-0.28862 0.58804,-0.68172 0.58804,-1.31361 0,-1.11909 -0.53884,-1.44951 -2.36386,-1.44951 h -1.34031 v 1.5875 1.5875 h 1.26405 c 0.71584,0 1.51907,-0.17863 1.85208,-0.41188 z m -61.72134,-17.59007 c -7.86887,-1.22525 -15.08035,-5.73056 -19.43356,-12.14095 -0.60025,-0.88391 -1.21738,-1.6071 -1.37139,-1.6071 -0.64858,0 -1.81692,1.11747 -1.81692,1.73781 0,0.58432 -0.10728,0.64344 -1.16751,0.64344 -0.80118,0 -1.69115,-0.27108 -2.83639,-0.86393 -2.867799,-1.48456 -3.096473,-2.99522 -0.68547,-4.52835 7.56342,-4.80949 39.16352,-6.15045 56.01619,-2.37706 3.79745,0.85027 5.53212,1.4933 6.95397,2.57778 1.4133604,1.07801 1.7499904,1.94119 1.1275104,2.8912 -0.6029404,0.9202 -3.0237804,2.08531 -4.6593604,2.24247 -1.20005,0.11531 -1.30311,0.0797 -1.30311,-0.45025 0,-0.52614 -1.14243,-1.87311 -1.58867,-1.87311 -0.10367,0 -0.62532,0.6579 -1.15921,1.46201 -1.29952,1.95721 -4.35579,5.14236 -6.49358,6.7674 -2.49462,1.89629 -7.06087,4.07889 -10.20665,4.87865 -2.98362,0.75853 -8.5892,1.07389 -11.37585,0.63999 z m 30.95625,-20.65086 c -1.51812,-0.46427 -7.96053,-1.5514 -11.64166,-1.96449 -7.47873,-0.83926 -22.52838,-0.90364 -30.42971,-0.13019 -3.42326,0.3351 -10.27629,1.40995 -11.75781,1.84414 -0.65756,0.19271 -0.96491,0.18265 -1.10005,-0.036 -0.16531,-0.26748 -0.66764,-3.97257 -0.8368,-6.1721 -0.0558,-0.72552 -0.13623,-0.78781 -0.93567,-0.7246 -1.887196,0.1492 -4.284757,1.84602 -4.284757,3.03243 0,0.40078 -0.24442,0.46991 -1.653646,0.46771 -2.5882,-0.004 -5.636872,-1.65293 -6.322431,-3.4195 -0.794179,-2.04648 2.728862,-4.37134 9.03441,-5.96182 8.406854,-2.12051 18.362354,-3.04915 32.816154,-3.06106 21.49013,-0.0177 37.0451604,2.49694 41.46562038,6.70342 1.7473395,1.66275 0.86808,3.58506 -2.31509998,5.06144 -1.74754,0.81051 -5.13579,1.00666 -4.8574,0.28119 0.37311,-0.97232 -1.76041,-2.58848 -4.2045804,-3.18503 -0.72516,-0.17699 -0.72762,-0.17282 -0.72961,1.24016 -10e-4,0.77976 -0.12245,2.19165 -0.26967,3.13753 -0.54516,3.5026 -0.44444,3.35555 -1.97729,2.88678 z m -4.73906,-17.18602 c -6.16029,-0.85122 -9.94101,-1.08087 -20.26406,-1.23089 -10.62771,-0.15444 -16.41924,0.0724 -24.01094,0.94047 -2.21919,0.25375 -4.0349,0.4105 -4.0349,0.34835 0,-0.20204 1.63252,-3.34356 1.92035,-3.69542 0.18683,-0.22839 0.19169,-0.42998 0.0147,-0.60702 -0.44747,-0.44747 -3.28119,0.73934 -4.212,1.76406 -0.75885,0.83541 -0.94122,0.9045 -2.38125,0.90221 -1.249853,-0.002 -1.837403,-0.16188 -2.959482,-0.80536 -2.360919,-1.35393 -2.453434,-2.6432 -0.301532,-4.20203 1.967711,-1.42541 6.608324,-2.81568 12.152604,-3.64078 l 3.04271,-0.45281 2.77812,-1.88066 c 3.09838,-2.09746 5.7395,-3.29219 9.50548,-4.29989 2.18098,-0.58359 3.10308,-0.68014 6.6341,-0.69468 3.62136,-0.0149 4.44147,0.068 7.01146,0.70852 3.4776,0.86677 7.98143,3.00083 10.33035,4.89486 1.52902,1.23292 1.70873,1.30437 4.10104,1.63054 3.20367,0.43679 8.16958,1.64762 10.36997,2.5285 3.3351404,1.33515 4.4963004,3.20071 2.9137504,4.68136 -1.20948,1.1316 -2.28983,1.53491 -4.1115804,1.53491 -1.53756,0 -1.7172,-0.0587 -1.98604,-0.64873 -0.16257,-0.3568 -0.67147,-0.84311 -1.13089,-1.08068 -1.06154,-0.54895 -2.94421,-1.21679 -3.07146,-1.08955 -0.0534,0.0534 0.43943,1.09648 1.09519,2.31793 0.65576,1.22146 1.19428,2.31012 1.19671,2.41926 0.006,0.2601 -0.53021,0.22022 -4.60235,-0.34247 z"
       id="path585" /></g></svg>
