<?xml version="1.0" encoding="UTF-8" standalone="no"?>
<!-- Created with Inkscape (http://www.inkscape.org/) -->

<svg
   width="1057.6936mm"
   height="624.98407mm"
   viewBox="0 0 1057.6936 624.98407"
   version="1.1"
   id="svg5"
   xml:space="preserve"
   inkscape:version="1.2.2 (732a01da63, 2022-12-09)"
   sodipodi:docname="whit_corp_logo.svg"
   xmlns:inkscape="http://www.inkscape.org/namespaces/inkscape"
   xmlns:sodipodi="http://sodipodi.sourceforge.net/DTD/sodipodi-0.dtd"
   xmlns="http://www.w3.org/2000/svg"
   xmlns:svg="http://www.w3.org/2000/svg"><sodipodi:namedview
     id="namedview7"
     pagecolor="#505050"
     bordercolor="#eeeeee"
     borderopacity="1"
     inkscape:showpageshadow="0"
     inkscape:pageopacity="0"
     inkscape:pagecheckerboard="0"
     inkscape:deskcolor="#505050"
     inkscape:document-units="mm"
     showgrid="false"
     inkscape:zoom="0.26110523"
     inkscape:cx="1966.64"
     inkscape:cy="1256.1985"
     inkscape:window-width="1920"
     inkscape:window-height="1009"
     inkscape:window-x="-8"
     inkscape:window-y="-8"
     inkscape:window-maximized="1"
     inkscape:current-layer="layer1" /><defs
     id="defs2" /><g
     inkscape:label="Layer 1"
     inkscape:groupmode="layer"
     id="layer1"
     transform="translate(538.50489,851.12827)"><path
       style="fill:#000000;stroke-width:3.56543"
       d="m -343.08523,-234.16641 c -1.91034,-4.41222 -46.66127,-122.74003 -99.4465,-262.95069 l -95.97316,-254.92846 94.82841,-0.95083 94.82841,-0.95083 2.37836,2.73355 c 1.30809,1.50345 29.28429,81.35134 62.16934,177.43976 32.88504,96.08842 60.90575,175.9333 62.26824,177.4331 l 2.47727,2.72684 37.79839,-79.38365 37.79837,-79.38369 70.745655,-0.96244 70.7456497,-0.96244 26.3495103,72.27108 c 14.49221,39.74913 27.80635,76.22415 29.587,81.05563 l 3.23752,8.78452 18.58728,-44.44776 C 143.2915,-599.24407 268.9747,-733.92309 426.30968,-812.78191 c 40.16967,-20.13367 94.72693,-42.31406 92.83098,-37.74066 -0.61212,1.47657 -13.1075,13.80905 -27.76749,27.40552 -123.11794,114.18626 -204.02654,242.53815 -251.11985,398.37189 -17.68651,58.52534 -34.20103,147.6611 -34.20103,184.59724 v 14.00374 H 91.001925 -24.048435 l -24.44697,-73.63497 -24.44696,-73.63496 -2.70538,5.00038 c -1.48796,2.75019 -16.78025,35.88594 -33.982855,73.63496 l -31.27748,68.63459 h -99.35191 -99.3519 z"
       id="path308" /></g></svg>
