<?xml version="1.0" encoding="UTF-8" standalone="no"?>
<!-- Created with Inkscape (http://www.inkscape.org/) -->

<svg
   width="300mm"
   height="300mm"
   viewBox="0 0 299.99999 299.99999"
   version="1.1"
   id="svg978"
   sodipodi:docname="dee_dee_standing.svg"
   inkscape:version="1.2.2 (732a01da63, 2022-12-09)"
   xmlns:inkscape="http://www.inkscape.org/namespaces/inkscape"
   xmlns:sodipodi="http://sodipodi.sourceforge.net/DTD/sodipodi-0.dtd"
   xmlns="http://www.w3.org/2000/svg"
   xmlns:svg="http://www.w3.org/2000/svg">
  <sodipodi:namedview
     id="namedview980"
     pagecolor="#505050"
     bordercolor="#eeeeee"
     borderopacity="1"
     inkscape:showpageshadow="0"
     inkscape:pageopacity="0"
     inkscape:pagecheckerboard="0"
     inkscape:deskcolor="#505050"
     inkscape:document-units="mm"
     showgrid="false"
     inkscape:zoom="0.18462928"
     inkscape:cx="333.09993"
     inkscape:cy="568.7072"
     inkscape:window-width="1920"
     inkscape:window-height="1009"
     inkscape:window-x="-8"
     inkscape:window-y="-8"
     inkscape:window-maximized="1"
     inkscape:current-layer="layer1" />
  <defs
     id="defs975">
    <clipPath
       clipPathUnits="userSpaceOnUse"
       id="clipPath1950">
      <path
         style="fill:#000000;stroke:none;stroke-width:0.2;stroke-linejoin:round;paint-order:stroke fill markers;stop-color:#000000"
         d="m 50.467009,101.99455 -2.406637,-7.758233 6.36492,5.224936 2.913298,-9.626547 -5.984925,-6.428253 -8.771559,1.86831 -1.393316,13.489831 7.061579,6.143256"
         id="path1952" />
    </clipPath>
  </defs>
  <g
     inkscape:label="Layer 1"
     inkscape:groupmode="layer"
     id="layer1"
     transform="translate(-97.523636,8.3968611)">
    <path
       style="display:inline;fill:#000000;stroke-width:0.46786"
       d="m 195.47391,270.56355 c -9.6147,-2.33069 -15.2517,-9.79685 -13.4919,-17.86996 1.4749,-6.76649 6.5046,-11.25126 15.9376,-14.2109 3.2051,-1.0056 4.3194,-1.09949 12.8662,-1.08403 9.6158,0.0177 11.2013,0.21782 19.9273,2.51894 4.0263,1.0618 11.2574,3.54891 13.1506,4.52313 2.2871,1.17688 2.0195,1.83965 3.4203,-8.47315 0.3845,-2.83057 0.9162,-6.72551 1.1817,-8.65544 0.9341,-6.79109 2.7833,-21.76485 2.7866,-22.56553 0,-0.74302 -0.5286,-0.78601 -6.4296,-0.51962 -12.5487,0.56652 -24.7587,-1.83836 -35.9657,-7.08376 -7.7167,-3.61175 -13.7103,-8.60927 -14.3878,-11.99657 -0.5583,-2.79177 1.8783,-4.89095 6.2827,-5.41258 1.2728,-0.15084 2.3142,-0.32596 2.3142,-0.38936 0,-0.0635 -0.3145,-0.71833 -0.6989,-1.45538 -1.4258,-2.73391 -0.4489,-6.51523 1.9679,-7.61637 1.9147,-0.87241 5.974,-0.59105 9.2472,0.64098 1.6784,0.63178 3.0517,1.04867 3.0517,0.92641 0,-0.12219 -0.5146,-1.03747 -1.1436,-2.03387 -4.4303,-7.01813 -2.469,-12.75042 3.8345,-11.20686 2.8916,0.70806 6.2111,2.36744 9.7403,4.86901 3.8705,2.74351 11.6613,11.00307 14.9619,15.86209 1.4925,2.19719 2.8049,3.90355 2.9165,3.79194 0.3009,-0.30089 2.2086,-12.02285 3.3891,-20.82487 0.7884,-5.87775 0.8984,-7.74623 0.4648,-7.89077 -2.3179,-0.77264 -5.6239,-5.61217 -5.6239,-8.23259 0,-1.06294 0.1524,-1.24189 0.8187,-0.96176 2.6729,1.12349 5.4955,0.43702 6.2385,-1.51723 0.2357,-0.61988 0.4285,-2.67866 0.4285,-4.57509 0,-1.89642 0.2005,-3.97525 0.4455,-4.61962 0.4315,-1.13497 0.3621,-1.18847 -2.2224,-1.71244 -13.9586,-2.83003 -19.5744,-4.8189 -27.0073,-9.56473 l -2.3501,-1.5005 -1.0635,1.68074 c -2.236,3.53369 -6.8597,5.21802 -11.6509,4.24416 -5.989,-1.21734 -11.7907,-5.20386 -13.944,-9.58134 -1.4094,-2.86539 -1.2676,-7.03466 0.3211,-9.43522 1.8349,-2.77278 4.0006,-3.66694 8.8526,-3.65502 l 4.0154,0.0106 -2.0134,-4.22061 c -1.1073,-2.321326 -2.5898,-6.030186 -3.2944,-8.241896 l -1.2811,-4.02126 -2.8263,0.85962 c -3.488,1.06091 -12.6872,1.16022 -16.7853,0.1812 -5.7925,-1.383794 -10.972,-4.587109 -17.7722,-10.99155 -4.402,-4.145769 -7.2759,-5.268769 -10.2701,-4.01312 -2.9294,1.228501 -7.6159,6.588286 -8.8459,10.116864 -0.8289,2.377765 -1.3966,0.887098 -1.665,-4.372337 -0.5948,-11.653305 3.4693,-27.139586 10.3433,-39.41359 5.7803,-10.32119 14.0066,-18.409839 22.5799,-22.202245 6.1624,-2.725877 15.1468,-3.315019 21.9772,-1.441123 13.0074,3.568539 22.4815,14.760118 24.988,29.518044 0.3994,2.351847 0.9882,4.014201 1.8133,5.120056 0.672,0.900628 2.2562,3.163919 3.5203,5.029503 2.5011,3.690821 2.8636,3.843261 7.3692,3.098209 l 1.7144,-0.283497 -0.8338,-1.933691 c -0.4587,-1.063543 -1.6788,-3.670644 -2.7114,-5.79355 -1.0326,-2.122925 -1.695,-3.859866 -1.472,-3.859866 0.5397,0 2.2308,2.638312 4.7889,7.471144 l 2.0973,3.96218 2.0297,-0.125552 c 1.1164,-0.06909 4.2404,-0.316046 6.9423,-0.548826 2.7019,-0.23274 8.1758,-0.549825 12.1644,-0.704627 3.9885,-0.15473 7.7039,-0.373536 8.2564,-0.486072 l 1.0046,-0.204644 -0.8997,-2.890926 c -1.2893,-4.142492 -0.7945,-4.433216 1.0626,-0.624331 l 1.5968,3.275036 2.7383,0.14217 c 2.6617,0.138102 2.7299,0.111933 2.4334,-0.935725 -0.9514,-3.361772 -1.3232,-9.056542 -0.8585,-13.147364 0.9912,-8.725801 4.5951,-16.054315 10.7695,-21.89946 6.4412,-6.097835 14.655,-9.480456 24.5211,-10.098297 19.2577,-1.205993 34.9396,9.144019 39.2215,25.886094 1.0288,4.02246 1.2305,10.958111 0.4052,13.930542 l -0.5085,1.831562 -1.2891,-2.533344 c -0.7708,-1.514792 -2.1108,-3.164609 -3.3329,-4.103361 -1.8033,-1.385174 -2.2918,-1.542039 -4.1496,-1.332638 -3.9482,0.445009 -4.9927,2.764284 -5.627,12.493789 -0.4628,7.100068 -1.391,10.431869 -4.0037,14.371765 -4.2574,6.420259 -12.9683,10.30253 -22.0981,9.848737 -4.4582,-0.221606 -4.3929,-0.312175 -2.9762,4.12477 1.53,4.791441 3.2592,12.463961 3.5866,15.913267 0.2652,2.79351 0.1615,3.66835 -0.6535,5.51066 -1.3478,3.04686 -3.6636,5.73132 -8.4054,9.74346 -4.1709,3.52908 -4.5677,3.82826 -8.9793,6.76983 -6.2505,4.16773 -18.7625,9.09942 -24.8264,9.78548 -1.5189,0.17188 -3.0038,0.60424 -3.2998,0.96088 -0.348,0.41932 -0.4545,1.81808 -0.3013,3.9587 0.1907,2.6657 0.5014,3.6867 1.5954,5.24333 1.7355,2.46925 3.5342,3.05034 6.4603,2.08702 2.0205,-0.66518 2.1252,-0.65593 2.1252,0.1875 0,1.46677 -2.1747,5.29348 -3.834,6.74641 -0.8552,0.74879 -2.4599,1.76737 -3.5661,2.26347 -1.9216,0.86184 -2.0003,0.97648 -1.7665,2.57324 0.1346,0.91917 0.367,3.98714 0.5163,6.81769 0.2601,4.93086 0.4958,8.00707 1.6485,21.5216 1.7094,20.04066 3.7446,37.01211 6.0509,50.45851 0.523,3.04911 0.9509,5.73345 0.9509,5.96522 0,0.73065 1.0981,0.47331 6.2257,-1.45893 6.685,-2.51914 15.2502,-4.9502 20.7341,-5.88496 5.7968,-0.9881 17.8292,-0.71354 21.6492,0.494 6.568,2.07622 10.5351,5.06941 12.5489,9.46798 1.0281,2.24579 1.1547,3.05474 0.9719,6.21251 -0.1641,2.83483 -0.4826,4.09544 -1.4534,5.75194 -3.3619,5.7367 -10.8026,9.51102 -23.0136,11.67377 -7.4196,1.31412 -21.6999,1.40557 -29.7091,0.19023 -5.7649,-0.87476 -14.412,-2.92417 -18.8955,-4.47828 l -2.7543,-0.95472 -8.4744,2.09414 c -9.4122,2.32588 -19.0519,4.10677 -27.8906,5.15268 -7.6068,0.90011 -24.8884,0.88385 -28.6459,-0.0271 z m 51.7387,-18.33782 c 0.5087,-3.07799 0.4037,-3.32389 -1.9221,-4.50063 -2.9464,-1.49074 -12.9761,-4.66618 -17.6617,-5.59171 -7.6268,-1.50656 -9.3866,-1.72114 -14.1139,-1.72114 -5.3032,0 -5.658,0.23048 -3.8645,2.51046 2.4603,3.12788 11.0939,6.05692 28.5052,9.67075 8.6496,1.79525 8.6998,1.79323 9.057,-0.36773 z m 37.0273,-1.80756 c 16.7714,-3.83095 23.1868,-6.93054 23.939,-11.56616 l 0.2783,-1.7148 h -2.1149 c -5.5043,0 -16.9902,2.91359 -28.1195,7.13294 l -5.0815,1.92649 0.2859,2.08565 c 0.1572,1.14709 0.2859,2.59214 0.2859,3.21118 0,1.34324 -0.1105,1.35453 10.5268,-1.0753 z m -26.4341,0.35588 c 1.6294,-0.76683 1.6382,-0.78766 1.7757,-4.20092 0.1371,-3.4016 0.1293,-3.42703 -0.9357,-3.0411 -0.5906,0.21403 -2.7872,0.38917 -4.8813,0.38917 h -3.8074 l -0.4237,3.64127 c -0.4028,3.46196 -0.3766,3.65114 0.5324,3.84163 0.5258,0.11016 1.3771,0.28882 1.8917,0.39692 1.4068,0.29548 4.0095,-0.16161 5.8483,-1.02697 z m 8.0986,-0.85348 c 0.723,-0.36953 2.1441,-1.42137 3.158,-2.33738 1.4376,-1.29879 1.8435,-2.00564 1.8435,-3.2103 0,-2.85394 -0.2918,-3.05747 -2.5633,-1.7879 -1.1186,0.62519 -3.1048,1.26357 -4.4138,1.4186 l -2.3801,0.28188 v 3.48097 3.48095 l 1.5205,-0.32745 c 0.8363,-0.18009 2.1121,-0.62981 2.8352,-0.99937 z m -8.3058,-15.17819 2.0787,-0.52341 v -2.80167 c 0,-2.47686 -0.095,-2.76501 -0.8188,-2.48536 -1.6537,0.63895 -5.065,1.10367 -6.3161,0.8605 -1.2787,-0.24854 -1.2866,-0.23413 -1.2866,2.33871 0,1.63327 0.2158,2.6759 0.5848,2.82477 1.0387,0.41916 3.6265,0.32318 5.758,-0.21354 z m 9.808,-2.28793 c 1.6183,-0.69368 2.1187,-1.1326 1.9103,-1.67575 -0.1553,-0.40476 -0.2824,-1.02517 -0.2824,-1.37868 0,-0.53895 -0.3119,-0.53278 -1.9303,0.0382 -1.0617,0.37454 -2.8758,0.68103 -4.0314,0.68103 -1.9506,0 -2.0809,0.0753 -1.819,1.05268 0.1551,0.57897 0.285,1.31586 0.2885,1.6375 0.011,0.91259 3.3836,0.70836 5.8643,-0.35503 z m -8.0866,-43.55988 c 0.09,-23.49385 -0.019,-32.22953 -0.3992,-32.22949 -0.3705,6e-5 -0.601,5.06815 -0.7925,17.42789 -0.2521,16.26595 -0.7674,25.66345 -1.514,27.60905 -0.1735,0.45185 -0.7864,0.93982 -1.3623,1.08437 -0.9959,0.24994 -1.0887,0.68348 -1.9002,8.88297 -0.4692,4.74111 -0.7323,8.74102 -0.5846,8.8887 0.4026,0.4026 4.6852,0.98179 5.6171,0.75971 0.7601,-0.18119 0.8204,-2.26899 0.9357,-32.4232 z m 8.194,31.48181 c 0.4619,-0.29328 0.2973,-3.26866 -0.7825,-14.14564 -0.7521,-7.57582 -1.498,-15.66907 -1.6575,-17.98497 -0.1594,-2.31592 -0.481,-6.4214 -0.7145,-9.12329 -0.2335,-2.70191 -0.6746,-8.96539 -0.9803,-13.91887 -0.3057,-4.95347 -0.6149,-9.00631 -0.6871,-9.00631 -0.072,0 -0.4642,0.12785 -0.8712,0.28398 -0.6647,0.25506 -0.7401,3.49572 -0.7401,31.82961 v 31.54564 l 1.0527,0.42312 c 1.3208,0.53088 4.6038,0.58988 5.3805,0.0967 z m -15.859,-19.47745 c 1.3776,-0.36496 2.5859,-0.74472 2.6851,-0.84392 0.5023,-0.50235 1.6272,-18.47526 1.8934,-30.25333 0.3292,-14.56458 -0.1549,-35.59385 -0.8194,-35.59385 -0.2285,0 -0.4155,1.14969 -0.4155,2.55488 0,1.4052 -0.199,4.61589 -0.4422,7.13488 -0.2433,2.51899 -0.6803,7.21171 -0.9712,10.42826 -0.5219,5.77018 -1.3815,13.26914 -2.3063,20.11803 -0.2605,1.92991 -0.829,6.29856 -1.2632,9.7081 -0.4342,3.40953 -0.914,6.19916 -1.0663,6.19916 -0.1522,0 -1.2931,-1.69587 -2.5352,-3.76858 -5.4693,-9.12633 -12.4683,-16.79682 -19.6342,-21.51763 -2.3445,-1.54456 -5.308,-3.11871 -6.5856,-3.49809 -2.0871,-0.61982 -2.4388,-0.61378 -3.4664,0.0596 -1.0243,0.67113 -1.1131,0.97231 -0.8509,2.88567 0.7224,5.2705 9.0912,15.00254 18.0678,21.01097 1.158,0.77506 3.8561,2.33638 5.9958,3.46955 2.8191,1.49298 3.619,2.10219 2.9048,2.21235 -2.4457,0.3773 -13.9239,-6.67204 -19.9822,-12.27207 -3.5622,-3.29267 -4.6753,-3.95776 -8.9967,-5.37566 -3.9818,-1.30646 -7.7029,-1.32378 -8.602,-0.04 -1.0084,1.43974 -0.4309,3.07705 2.0386,5.77904 5.011,5.48283 17.5592,12.70179 26.2859,15.12227 4.809,1.33385 5.3357,2.08959 1.0511,1.50816 -6.2105,-0.84279 -14.9189,-4.7223 -23.5699,-10.50019 -4.7393,-3.16525 -4.7442,-3.16722 -8.1718,-3.21503 -3.9418,-0.055 -4.9789,0.50233 -4.9789,2.6758 0,1.11828 0.5105,1.91872 2.2884,3.58786 2.4077,2.26047 9.9945,6.4463 15.9582,8.80451 4.4937,1.77698 12.8079,3.85782 17.3108,4.33253 4.7774,0.50363 15.1161,0.0979 18.178,-0.71318 z m 10.7657,-68.05498 c 0.9357,-0.4928 3.9119,-1.47719 6.6138,-2.18748 11.6855,-3.07198 23.0992,-9.40227 30.9914,-17.18857 4.689,-4.62611 6.8964,-8.09571 6.8968,-10.84068 4e-4,-1.80149 -2.6212,-15.65179 -3.0421,-16.072754 -0.1132,-0.11317 -0.083,1.456849 0.068,3.488848 0.9065,12.238306 -6.2115,19.285506 -15.7995,15.642326 -2.4243,-0.92113 -3.2074,-0.89458 -3.2074,0.10874 0,0.91099 -2.0785,5.95607 -2.4539,5.95607 -0.534,0 -0.4821,-0.28477 1.3294,-7.29263 0.9254,-3.58008 1.7953,-7.035606 1.933,-7.678916 l 0.2504,-1.16966 -1.5769,1.40359 c -0.8673,0.77198 -3.5173,3.245786 -5.8889,5.497376 -2.3715,2.25157 -4.5576,4.09377 -4.858,4.09377 -0.6055,0 -0.5343,-0.10574 2.8361,-4.21074 1.162,-1.41528 2.2673,-2.642306 2.4562,-2.726726 0.189,-0.0844 -0.4645,-1.34765 -1.4521,-2.80717 -3.5058,-5.18096 -5.1309,-9.819546 -5.5192,-15.753776 -0.3022,-4.618447 0.2816,-8.44203 1.6901,-11.069922 l 0.8768,-1.635959 -1.5955,-3.391756 c -0.8775,-1.865483 -1.5954,-3.615902 -1.5954,-3.889846 0,-0.566204 -12.0998,-0.234081 -23.51,0.645326 -5.0583,0.389851 -6.901,0.693472 -6.901,1.137006 0,0.986834 0.9454,1.290112 3.7077,1.189397 2.7291,-0.09958 6.9618,0.825632 9.8181,2.14591 2.6648,1.23181 8.0777,5.46256 10.1826,7.958771 3.2414,3.844123 5.6511,7.958707 6.8717,11.733645 3.6952,11.427614 0.4975,21.21001 -8.3571,25.56542 -2.5416,1.25022 -3.2487,1.38051 -7.4854,1.37927 -5.5557,-10e-4 -8.2045,-0.87016 -13.543,-4.44077 -6.2619,-4.18821 -11.4712,-10.997796 -13.4576,-17.591706 -1.0239,-3.398696 -1.3382,-9.113974 -0.7044,-12.806897 0.3596,-2.094756 0.3322,-2.160976 -1.4035,-3.397667 l -1.7703,-1.261289 -0.3036,7.608418 c -0.4236,10.612855 -2.2382,18.961025 -5.6164,25.838401 -0.7629,1.55308 -1.7819,3.30371 -2.2644,3.89031 l -0.8774,1.06653 -2.487,-1.58156 c -2.9418,-1.87079 -7.3661,-3.59262 -9.2314,-3.59262 -3.6909,0 -6.5897,2.6086 -6.5897,5.93001 0,3.87453 3.2967,8.04587 8.4963,10.75044 2.0751,1.07937 3.099,1.30235 6.0422,1.3159 3.1292,0.0142 3.7349,-0.12927 5.1767,-1.22796 1.5939,-1.21454 2.7422,-3.69949 2.7422,-5.93441 0,-0.88185 0.4144,-0.7178 3.8598,1.52788 9.4615,6.16681 20.8736,10.79502 30.2027,12.24872 1.1077,0.17258 2.6867,0.79339 3.5089,1.37953 1.8699,1.33297 2.7949,1.37975 4.9402,0.24981 z m 9.8568,-13.11957 c -2.6857,-0.48529 -6.3559,-2.32504 -8.0821,-4.05115 -1.7466,-1.74661 -0.8635,-1.96467 1.5332,-0.37862 2.2253,1.47262 7.3845,3.00835 10.0797,3.00038 5.7561,-0.0176 11.8833,-3.52014 15.1262,-8.64806 1.4974,-2.36798 1.8615,-1.47734 0.5429,1.328 -1.2895,2.7432 -4.9603,6.15851 -8.1221,7.55682 -2.8208,1.24748 -7.8048,1.78405 -11.0778,1.19263 z m -10.9674,-9.26071 c 3.254,-1.02362 7.1919,-5.00643 8.6767,-8.77562 1.6067,-4.078726 1.5435,-10.787346 -0.147,-15.592662 -3.1036,-8.822727 -9.9747,-16.156732 -17.8164,-19.016769 -3.0302,-1.105165 -4.0441,-1.252641 -7.6286,-1.109556 -3.1934,0.127498 -4.6128,0.413566 -6.2392,1.257668 -3.1702,1.645282 -5.5736,4.180314 -7.1702,7.562768 -1.3231,2.803172 -1.4374,3.443723 -1.4603,8.187556 -0.022,4.536171 0.1333,5.576697 1.3099,8.774469 3.846,10.453196 12.7512,18.182936 22.4733,19.506856 2.8614,0.38965 4.8714,0.19001 8.0018,-0.79471 z m -18.8126,-6.64079 c -2.6448,-1.63418 -5.5406,-6.261546 -7.6239,-12.182656 -1.2667,-3.600367 -1.532,-9.448646 -0.5153,-11.360757 0.9185,-1.727286 2.8611,-2.44208 4.8517,-1.785141 6.4406,2.125609 12.7378,19.008128 9.1066,24.414604 -1.3254,1.97335 -3.5412,2.32137 -5.8191,0.91395 z m 54.6561,0.16922 c 1.9737,-0.99782 4.0708,-3.74892 4.845,-6.355816 3.7153,-12.510812 -7.5857,-31.355962 -18.8521,-31.437125 -4.3559,-0.03143 -7.2918,2.138501 -8.9977,6.650084 -1.9766,5.22748 -0.5845,14.086614 3.273,20.828831 0.7745,1.3536 1.8405,2.85238 2.3689,3.33062 0.9439,0.85416 0.989,0.8423 2.5494,-0.67013 l 1.5885,-1.53969 -1.5709,-2.86985 c -3.8055,-6.952079 -5.2795,-15.826125 -3.0064,-18.099242 1.3002,-1.300194 2.5594,-0.870147 4.969,1.697008 3.0164,3.213646 5.6312,9.088762 6.6874,15.025934 0.7749,4.35506 -0.2486,7.1619 -2.6114,7.1619 -0.8937,0 -1.2012,0.41157 -1.7909,2.397036 -0.7984,2.68863 -0.693,3.06063 1.072,3.78297 3.1806,1.30172 7.0162,1.34116 9.4762,0.0974 z m 5.8864,-20.40104 c -0.1494,-0.373233 -0.2602,-0.262363 -0.2826,0.282665 -0.02,0.493209 0.09,0.769537 0.2457,0.614068 0.1555,-0.155425 0.1721,-0.559013 0.037,-0.896733 z m -1.7243,-4.882507 c -3.2427,-8.286219 -8.0267,-17.014119 -9.3322,-17.025618 -0.3991,-0.0031 -1.1994,-0.133325 -1.7783,-0.288502 -0.9961,-0.266921 -1.0527,-0.146946 -1.0519,2.228728 0.001,2.461798 0.041,2.536488 2.0798,3.824197 3.4457,2.176876 7.0917,6.527623 9.2726,11.065001 1.0895,2.266561 2.0419,4.067093 2.1165,4.001195 0.075,-0.06597 -0.5133,-1.778149 -1.3065,-3.805001 z m -69.9695,-7.749547 1.8118,-2.426816 -1.361,-2.539153 -1.361,-2.539122 -3.4374,0.254705 c -1.8905,0.140047 -3.532,0.349447 -3.6478,0.465261 -0.1159,0.115822 0.047,1.609392 0.3622,3.319095 0.5452,2.959066 0.6757,3.173949 2.7121,4.468161 1.1767,0.747778 2.3576,1.374251 2.6244,1.392158 0.2667,0.01789 1.3002,-1.059527 2.2967,-2.394289 z m 6.2924,-5.088556 c 1.4043,-0.678498 1.917,-1.176432 1.7254,-1.67578 -0.15,-0.390736 -0.2726,-0.933745 -0.2726,-1.20668 0,-0.453378 -5.4697,-0.195665 -5.9455,0.280135 -0.2133,0.213303 1.8669,3.5204 2.2317,3.54786 0.1446,0.01062 1.1621,-0.414596 2.261,-0.945535 z m 40.4598,-0.270219 c 1.3058,-0.622716 1.65,-1.086592 1.8221,-2.456284 0.1167,-0.928699 0.1238,-1.846462 0.016,-2.039452 -0.211,-0.377114 -6.2233,-0.500128 -6.2233,-0.127322 0,0.305807 2.5042,5.390763 2.6548,5.390763 0.066,0 0.8451,-0.345472 1.7305,-0.767705 z m 8.2469,-1.767265 c 0,-0.622258 0.1192,-1.442115 0.265,-1.821874 0.2052,-0.534726 -0.2261,-0.729527 -1.9121,-0.863612 -1.1973,-0.09531 -2.263,-0.03392 -2.3682,0.136332 -0.1052,0.17011 -0.063,0.951009 0.094,1.735134 0.2791,1.395696 0.535,1.539521 3.3366,1.875336 0.3259,0.03902 0.5848,-0.430703 0.5848,-1.061286 z m -57.6705,-3.291958 c 0.061,-0.04724 -0.8341,-1.617729 -1.9884,-3.489922 -1.1543,-1.872198 -2.0987,-3.594587 -2.0987,-3.827524 0,-0.232938 -0.1579,-0.422375 -0.3509,-0.420977 -0.193,0.0014 -0.3976,1.9027 -0.4546,4.22511 l -0.1036,4.22254 2.443,-0.311665 c 1.3436,-0.171347 2.4926,-0.350311 2.5532,-0.397562 z"
       id="path1116" />
  </g>
</svg>
