<?xml version="1.0" encoding="UTF-8" standalone="no"?>
<!-- Created with Inkscape (http://www.inkscape.org/) -->

<svg
   width="300mm"
   height="300mm"
   viewBox="0 0 299.99999 299.99999"
   version="1.1"
   id="svg978"
   sodipodi:docname="dee_dee_running.svg"
   inkscape:version="1.2.2 (732a01da63, 2022-12-09)"
   xmlns:inkscape="http://www.inkscape.org/namespaces/inkscape"
   xmlns:sodipodi="http://sodipodi.sourceforge.net/DTD/sodipodi-0.dtd"
   xmlns="http://www.w3.org/2000/svg"
   xmlns:svg="http://www.w3.org/2000/svg">
  <sodipodi:namedview
     id="namedview980"
     pagecolor="#505050"
     bordercolor="#eeeeee"
     borderopacity="1"
     inkscape:showpageshadow="0"
     inkscape:pageopacity="0"
     inkscape:pagecheckerboard="0"
     inkscape:deskcolor="#505050"
     inkscape:document-units="mm"
     showgrid="false"
     inkscape:zoom="0.18462928"
     inkscape:cx="333.09993"
     inkscape:cy="568.7072"
     inkscape:window-width="1920"
     inkscape:window-height="1009"
     inkscape:window-x="-8"
     inkscape:window-y="-8"
     inkscape:window-maximized="1"
     inkscape:current-layer="layer1" />
  <defs
     id="defs975">
    <clipPath
       clipPathUnits="userSpaceOnUse"
       id="clipPath1950">
      <path
         style="fill:#000000;stroke:none;stroke-width:0.2;stroke-linejoin:round;paint-order:stroke fill markers;stop-color:#000000"
         d="m 50.467009,101.99455 -2.406637,-7.758233 6.36492,5.224936 2.913298,-9.626547 -5.984925,-6.428253 -8.771559,1.86831 -1.393316,13.489831 7.061579,6.143256"
         id="path1952" />
    </clipPath>
  </defs>
  <g
     inkscape:label="Layer 1"
     inkscape:groupmode="layer"
     id="layer1"
     transform="translate(-97.523636,8.3968611)">
    <path
       style="fill:#000000;stroke-width:0.477474"
       d="m 184.8476,274.31194 c -15.0609,-3.84671 -29.98851,-21.69222 -34.41511,-41.14223 -1.08118,-4.75061 -1.2073,-14.99562 -0.23215,-18.86019 1.51071,-5.98705 4.78981,-10.44217 9.67915,-13.15045 2.40342,-1.33128 2.85185,-1.41098 7.80219,-1.38668 6.19063,0.0305 8.12266,0.6728 14.53328,4.83208 9.20326,5.97115 16.85466,16.06213 21.71867,28.64338 l 1.52682,3.94927 6.89416,-9.89048 c 3.79177,-5.43979 14.362,-20.6304 23.48936,-33.75694 l 16.59519,-23.86646 -2.50974,-1.27706 c -1.38036,-0.70242 -3.10841,-1.90798 -3.84012,-2.67905 -1.31429,-1.38501 -3.53513,-6.32479 -2.84557,-6.32938 0.19588,-9.9e-4 1.35559,0.35584 2.57713,0.79362 1.91471,0.68625 2.43379,0.70784 3.76464,0.15659 1.8222,-0.75477 3.09285,-3.24891 3.59727,-7.06098 l 0.33506,-2.5321 -1.37792,0.38346 c -0.75787,0.21093 -8.14613,0.38059 -16.41834,0.37704 -14.4418,-0.006 -25.90448,-0.57486 -37.78983,-1.87476 -5.04283,-0.55151 -6.04283,-0.52278 -10.74314,0.30877 -6.90419,1.22144 -16.29424,1.01154 -20.32486,-0.45437 -3.36076,-1.22227 -6.45542,-3.40553 -7.9575,-5.61393 l -1.13586,-1.66997 h -8.50801 -8.50801 l -0.14426,-2.50674 -0.14425,-2.50675 -5.34608,-0.1348 -5.34608,-0.13482 -0.14484,2.50687 -0.14483,2.50683 -5.68724,1.80846 c -3.12798,0.99466 -5.72028,1.75355 -5.76063,1.68644 -0.0405,-0.0671 -1.4696,-2.05577 -3.17603,-4.41927 -1.70647,-2.3635 -3.25701,-4.5562 -3.44567,-4.87267 -0.20293,-0.34043 1.06084,-2.48525 3.09473,-5.2522 1.89074,-2.57224 3.47433,-4.73172 3.51904,-4.79882 0.0447,-0.067 2.64058,0.69189 5.76856,1.68663 l 5.68724,1.80864 0.1431,2.73001 0.14329,2.73 h 5.42505 5.42504 l -0.0772,-2.26801 -0.0772,-2.26799 13.78111,-0.12672 c 13.47928,-0.12404 13.77567,-0.14754 13.53331,-1.07431 -0.21461,-0.82072 -0.008,-0.94754 1.54341,-0.94754 1.22778,0 2.07728,-0.3211 2.70076,-1.02086 0.50028,-0.56147 1.60789,-1.31634 2.46136,-1.67757 l 1.5518,-0.6567 v -3.98308 -3.98304 l -3.0385,-0.28376 c -3.15655,-0.29475 -8.42475,-2.15769 -10.1067,-3.57391 -2.88297,-2.4275 -3.38815,-5.31098 -1.35398,-7.72845 1.80205,-2.14163 6.30175,-4.25053 10.49161,-4.91718 3.25076,-0.5172 3.55668,-0.659287 3.29946,-1.532527 -2.37871,-8.07534 -3.18929,-15.789395 -2.20837,-21.016336 0.69486,-3.702624 2.55559,-7.476075 4.75248,-9.637808 6.65558,-6.549063 19.78658,-5.733273 31.34837,1.947587 3.50902,2.331157 7.86813,6.420505 10.13312,9.50603 1.17107,1.595324 1.84563,2.153031 2.18891,1.809732 0.34331,-0.343276 -0.67311,-1.640537 -3.29817,-4.209491 -6.47595,-6.337609 -9.64983,-12.367456 -10.71233,-20.351769 -0.66094,-4.966596 -0.0526,-11.58657 1.49166,-16.231457 4.6412,-13.960368 22.07425,-26.325808 41.97568,-29.773839 6.49361,-1.1250368 19.01534,-1.1149448 24.35113,0.01965 3.73212,0.793563 9.76937,2.851392 10.62489,3.621537 0.19758,0.177764 -1.30646,1.012833 -3.34231,1.855528 -6.46099,2.674419 -10.14165,6.116516 -10.14563,9.488027 -0.002,2.158613 0.59597,3.482659 3.12729,6.918459 4.73193,6.42272 6.42528,11.74833 6.4121,20.166209 -0.0102,6.451399 -0.88463,10.828309 -3.09245,15.477356 -0.9207,1.938728 -1.67399,3.575468 -1.67399,3.637252 0,0.289567 8.11585,1.278092 8.50724,1.036195 0.24511,-0.151569 1.31482,-1.729648 2.37707,-3.507003 2.01467,-3.370856 5.82726,-8.66074 5.82726,-8.085173 0,0.182773 -1.30615,2.937906 -2.90256,6.122525 -2.07909,4.147551 -2.73903,5.891257 -2.32623,6.146409 0.317,0.195908 1.67683,0.502532 3.02192,0.681399 2.39781,0.318855 2.47614,0.289581 4.00924,-1.49838 1.24072,-1.446964 1.51215,-2.119445 1.31423,-3.256019 -2.39213,-13.736998 -0.54143,-22.173692 6.89081,-31.412486 4.59923,-5.717172 10.61697,-9.671974 17.68601,-11.623125 2.42429,-0.669129 4.77566,-0.848165 10.74315,-0.817946 11.32868,0.05739 18.5571,1.843375 28.88737,7.137553 11.5427,5.915543 21.76951,15.207243 26.073,23.688984 0.62849,1.23867 1.14271,2.344158 1.14271,2.456672 0,0.112476 -1.3429,-0.220327 -2.98422,-0.739618 -4.48229,-1.418109 -9.93215,-1.692323 -12.31131,-0.619479 -3.02929,1.36603 -3.8663,3.215338 -4.29723,9.494673 -0.64481,9.395391 -3.25227,15.000725 -10.24919,22.033012 -4.75781,4.78186 -7.7279,6.69799 -13.25363,8.55059 -5.75881,1.93071 -14.1875,2.126977 -20.19099,0.47014 -0.8458,-0.23342 -1.06269,0.0697 -1.62203,2.267347 -1.49085,5.8573 -6.0369,15.33895 -9.57216,19.96457 -2.09725,2.74412 -2.10682,2.73126 1.49261,2.0081 4.15056,-0.83385 7.08312,-0.44987 9.02165,1.18128 7.63633,6.42555 -1.41561,19.55951 -13.8616,20.11255 -3.16517,0.14059 -3.88603,0.002 -6.20716,-1.18636 -2.14762,-1.10035 -2.84359,-1.78048 -3.81978,-3.73287 -0.65653,-1.31303 -1.23231,-2.46179 -1.2795,-2.55275 -0.0471,-0.0909 -1.01408,0.47134 -2.14863,1.24957 -6.54215,4.48753 -19.52481,8.80446 -29.8756,9.93409 l -2.98422,0.3257 0.003,1.72885 c 0.008,3.44372 0.98753,7.92387 1.94549,8.89094 0.76867,0.77599 1.48751,0.93463 3.83581,0.84653 l 2.88984,-0.1084 -0.31297,2.01831 c -0.43135,2.7816 -2.4849,5.60887 -5.11076,7.0363 l -2.2042,1.1982 8.05168,13.36474 c 4.42842,7.35058 8.12777,13.56671 8.22076,13.81365 0.093,0.24694 2.9327,-1.79427 6.31047,-4.536 12.11329,-9.83228 22.057,-17.83859 27.17638,-21.88142 2.86411,-2.26177 6.93126,-5.56265 9.03812,-7.33527 2.10684,-1.77262 3.97818,-3.22293 4.15852,-3.22293 0.49445,0 7.10525,9.5658 10.72419,15.51786 3.97598,6.53928 8.25032,14.99649 10.74835,21.26665 8.19274,20.56421 6.60249,36.75583 -4.00794,40.80798 -3.23941,1.23715 -8.77017,0.81947 -12.17679,-0.91957 -8.90632,-4.54649 -14.63082,-17.8803 -16.31343,-37.99763 -0.29653,-3.54523 -0.68143,-7.79075 -0.85533,-9.4345 l -0.31619,-2.98861 -4.29726,3.01445 c -11.52392,8.08385 -33.14221,22.7779 -33.51146,22.7779 -0.22931,0 -4.69761,-8.91639 -9.92952,-19.8142 -5.23192,-10.89784 -9.66748,-19.65348 -9.85678,-19.45704 -0.34735,0.3605 -15.05732,25.6042 -41.24737,70.78448 -9.66817,16.67846 -14.88455,25.2086 -16.21338,26.51301 -4.14945,4.07324 -10.61786,5.80776 -16.27243,4.36355 z m 25.03108,-22.22421 c 1.3946,-2.41643 2.4462,-4.82891 2.44551,-5.61031 -9.9e-4,-1.54093 -2.24266,-10.25164 -2.77468,-10.78366 -0.18913,-0.18913 -1.05811,0.70261 -1.93099,1.98175 -1.58564,2.32364 -1.58651,2.32815 -0.9906,5.11711 0.32805,1.53527 0.60374,5.20858 0.61267,8.16297 0.0102,2.95434 0.0557,5.37155 0.1038,5.37155 0.0481,0 1.1886,-1.90775 2.53428,-4.23941 z m 11.51872,-20.33734 c 0,-0.94235 -2.39666,-8.51943 -2.84532,-8.99548 -0.20104,-0.21334 -0.7966,0.29298 -1.32348,1.12509 l -0.95795,1.51299 1.12054,2.93341 c 0.6163,1.61339 1.35643,3.87655 1.64475,5.02924 l 0.52422,2.09585 0.91861,-1.51054 c 0.50523,-0.83079 0.91863,-1.81653 0.91863,-2.19056 z m 21.18078,-35.91668 c 7.48718,-12.9191 13.85723,-23.94559 14.15573,-24.50331 0.50298,-0.93984 0.43733,-1.00289 -0.89709,-0.86184 -1.30981,0.13847 -2.75384,2.03432 -15.9992,21.00532 l -14.55945,20.85317 1.5213,3.83205 c 0.8367,2.10763 1.66628,3.68172 1.84348,3.49799 0.17719,-0.18373 6.44808,-10.90429 13.93523,-23.82338 z m 82.37504,20.08456 c 2.48976,-1.74388 3.51608,-7.28961 2.86021,-15.45548 -0.39328,-4.89641 -3.08652,-19.92016 -3.76899,-21.02439 -0.2606,-0.42168 -1.00479,-0.4181 -3.09048,0.0153 l -2.74721,0.57033 0.32373,6.75793 c 0.68664,14.33373 3.14485,29.91538 4.71956,29.91538 0.32535,0 1.09178,-0.35037 1.70318,-0.77861 z m -37.71144,-12.35189 c 8.46672,-5.81077 8.20114,-5.43136 7.16942,-10.24217 -0.28438,-1.32597 -0.72085,-2.41087 -0.96997,-2.41087 -0.24911,0 -3.03161,2.06992 -6.18333,4.59983 -3.15173,2.52988 -5.88448,4.4529 -6.07277,4.27335 -0.18835,-0.17949 -4.2141,-6.81531 -8.94626,-14.74612 -8.2414,-13.81214 -8.66887,-14.42597 -10.14629,-14.56927 -0.84833,-0.0822 -1.54242,-0.0135 -1.54242,0.15465 0,0.76739 18.3607,38.43779 18.67874,38.32291 0.19803,-0.0714 3.80381,-2.49351 8.01288,-5.38223 z m 17.77515,-12.03437 c 1.91282,-1.26584 1.94539,-1.3339 1.65655,-3.46168 -0.16198,-1.19376 -0.63232,-3.19123 -1.04499,-4.43885 l -0.75035,-2.26841 -2.05596,1.68469 -2.05596,1.68472 0.90078,2.89422 c 0.49544,1.59184 0.90081,3.41227 0.90081,4.04539 0,1.43814 0.0703,1.43412 2.44912,-0.14003 z m 11.3976,-10.27291 c 0,-2.59347 -1.54851,-6.58574 -2.54935,-6.57254 -1.755,0.0232 -1.84811,0.76201 -0.59571,4.72653 0.67934,2.15048 1.23517,4.22874 1.23517,4.61835 0,0.56039 0.19944,0.60161 0.95493,0.19729 0.76514,-0.40948 0.95496,-0.99975 0.95496,-2.96963 z m -63.77766,-31.93385 c 2.34426,-0.28751 4.70773,-0.69238 5.25222,-0.89973 0.85612,-0.32606 0.76405,-0.41574 -0.68123,-0.66351 -0.91914,-0.15753 -13.00181,-1.46665 -26.85041,-2.90908 l -25.17923,-2.62257 -1.71852,-1.90221 c -3.77401,-4.17737 -10.26573,-5.9804 -17.23812,-4.78772 -11.64159,1.99135 -2.6255,7.72955 9.9095,6.30678 4.56157,-0.51775 5.99796,-0.23065 4.80661,0.96073 -0.71035,0.71039 -8.26147,0.75403 -27.76506,0.16042 l -13.13052,-0.3996 1.57433,1.65768 c 4.60356,4.84726 14.43624,6.29783 26.37846,3.89153 3.69331,-0.7442 4.46016,-0.74056 12.58,0.0597 4.75581,0.46868 10.903,1.0044 13.6604,1.1905 8.18229,0.55221 33.78231,0.52364 38.40157,-0.0429 z m 21.57497,-4.93792 c 9.65732,-2.0068 16.71171,-4.83287 23.44562,-9.39265 1.89498,-1.28319 3.56017,-2.33305 3.70041,-2.33305 0.14021,0 0.25532,0.80573 0.25573,1.79052 9.4e-4,2.40157 1.31634,4.87728 3.29281,6.19764 2.10075,1.40338 7.06144,1.49956 10.47359,0.20305 6.98209,-2.65298 11.31162,-8.67995 9.44482,-13.1478 -1.57155,-3.76127 -6.66316,-4.13763 -14.54599,-1.07514 -2.45552,0.95396 -4.60413,1.73448 -4.77474,1.73448 -0.17063,0 -0.33981,-0.48343 -0.37601,-1.07432 -0.0362,-0.59087 -0.85845,-3.09453 -1.82722,-5.56369 -2.38895,-6.08884 -3.55527,-11.59116 -3.91239,-18.45754 -0.26707,-5.134667 0.22542,-11.723737 1.09744,-14.683087 0.22424,-0.76101 -0.0369,-0.71675 -2.18026,0.36931 -2.26029,1.14538 -2.40886,1.32736 -2.07064,2.53575 0.61472,2.19622 0.31037,8.30799 -0.56416,11.328767 -2.73947,9.46258 -9.28948,16.91751 -18.82108,21.42129 -3.00312,1.419 -3.46917,1.49742 -8.89877,1.49742 -5.19284,0 -5.98109,-0.11786 -8.41305,-1.25822 -5.39599,-2.53013 -8.68783,-6.95367 -10.23422,-13.75261 -0.67954,-2.98769 -0.71797,-4.05231 -0.24875,-6.89339 1.90016,-11.506027 11.81603,-22.58236 23.14636,-25.855212 2.05013,-0.592205 3.97757,-0.758525 7.07419,-0.610481 3.80964,0.182192 4.30713,0.1084 4.74097,-0.702157 0.26658,-0.498105 0.41358,-0.975776 0.32664,-1.061485 -0.25956,-0.255894 -27.47093,-4.059649 -29.04197,-4.059649 -1.3484,0 -1.57482,0.272308 -3.27536,3.93915 -1.75077,3.775224 -1.80006,4.016525 -1.18417,5.798343 2.58775,7.486534 -0.0622,18.001944 -6.56146,26.036361 -1.65857,2.05036 -2.34078,3.25852 -2.05808,3.6449 0.23255,0.31786 1.46936,2.00942 2.74843,3.75902 1.27907,1.74959 2.22743,3.27926 2.10743,3.39925 -0.12,0.11998 -2.61684,-2.36157 -5.54855,-5.51461 -2.9317,-3.15302 -5.32996,-5.46344 -5.32945,-5.13424 4.9e-4,0.32919 0.4394,4.00925 0.97531,8.17793 0.5359,4.16869 0.8771,7.67675 0.75815,7.79568 -0.11903,0.11882 -0.68731,-1.82233 -1.26306,-4.31391 l -1.04682,-4.53013 -2.65182,0.91236 c -3.5172,1.21011 -6.04274,1.1443 -9.0041,-0.23461 -4.32244,-2.01262 -6.39002,-5.96203 -6.39002,-12.2059 0,-4.657927 1.36516,-10.060697 3.63221,-14.374917 2.14195,-4.076136 8.99671,-11.263189 12.00504,-12.58696 1.93073,-0.849616 2.02926,-0.991862 2.02926,-2.930036 0,-4.634289 -0.96383,-4.623274 -4.95699,0.05662 -6.18879,7.253252 -10.80407,15.251696 -13.85012,24.002736 -1.69955,4.882687 -3.63238,13.634367 -3.63615,16.464147 -0.006,3.7331 9.2457,14.25533 17.04595,19.38899 5.21949,3.43513 14.04509,7.74862 21.63138,10.57227 l 6.4459,2.39915 5.25218,-0.23881 c 2.88872,-0.13135 7.85475,-0.7796 11.03558,-1.44058 z M 252.67186,130.9239 c -3.90291,-0.3239 -12.17313,-2.10294 -15.75659,-3.38945 -7.41642,-2.66259 -14.56952,-7.038 -17.57767,-10.75197 -1.82168,-2.24903 -3.3933,-5.08793 -3.02219,-5.45905 0.13231,-0.13229 0.67292,0.60674 1.20127,1.64239 2.99901,5.87853 14.52144,12.3327 26.32194,14.74393 21.05524,4.30227 39.49052,-0.66019 48.69216,-13.10715 1.29644,-1.75368 2.6992,-3.61824 3.11725,-4.14346 1.24871,-1.56894 -1.71158,3.63851 -3.42902,6.03191 -4.54563,6.33481 -13.41362,11.48413 -23.31305,13.53707 -3.89808,0.80836 -11.94031,1.25215 -16.2341,0.89578 z m -5.01345,13.55206 c -0.65653,-0.29446 -3.07809,-1.36759 -5.38127,-2.38477 -14.55188,-6.42676 -26.00327,-15.91358 -30.87593,-25.57899 -0.96906,-1.92222 -1.00335,-2.31572 -0.49899,-5.72967 0.79259,-5.36533 2.72388,-12.735747 4.3386,-16.557487 l 1.41215,-3.34229 -4.20606,-4.058542 c -7.96173,-7.682474 -16.03855,-10.877356 -22.80147,-9.019445 -2.82811,0.776949 -5.73391,3.997712 -6.39722,7.09065 -0.71416,3.329957 -0.6611,6.954867 0.15888,10.850217 1.00427,4.771327 1.00558,4.773167 3.58225,5.114977 2.98782,0.39635 7.86602,2.8492 9.09277,4.57204 1.24397,1.74696 1.24397,4.48622 0,6.2332 -1.05215,1.47762 -5.83825,4.08393 -8.37269,4.55938 l -1.59179,0.29862 -0.14598,5.92113 -0.14599,5.92112 2.27707,-9.4e-4 c 2.19065,-9.6e-4 2.26573,0.0445 1.9775,1.19281 l -0.29958,1.19369 h 4.82649 4.8265 v 2.31071 c 0,1.93072 0.1766,2.39248 1.07431,2.80779 0.59087,0.27339 2.13285,1.43593 3.42662,2.5834 l 2.35233,2.08629 19.85017,2.20603 c 10.91758,1.21333 20.49476,2.21938 21.28259,2.23571 l 1.43241,0.0296 -1.19367,-0.53536 z M 127.33522,135.7652 v -4.45067 l -4.2251,-1.41701 -4.22507,-1.41702 -2.62901,3.62748 -2.62904,3.62748 2.66111,3.64646 2.6611,3.64648 4.193,-1.40626 4.19301,-1.40626 z m 56.51564,-9.6161 c 0.16699,-1.21839 0.31047,-5.13963 0.31882,-8.71387 0.0153,-6.77114 0.20333,-7.49443 2.22142,-8.56926 1.21038,-0.64464 5.88044,-0.75506 5.88044,-0.13906 0,0.22906 -0.91317,0.56219 -2.02927,0.74035 -3.16802,0.50566 -4.17789,1.39061 -4.17789,3.66111 0,2.24347 0.0996,2.24259 5.09954,-0.0445 2.06486,-0.94448 3.17598,-1.785 3.70043,-2.79916 0.99007,-1.9146 0.9626,-2.12521 -0.50426,-3.86846 -1.61648,-1.9211 -4.34543,-3.29598 -8.00385,-4.03239 l -2.91795,-0.58736 -0.8442,-2.511177 c -2.84383,-8.45928 -1.77859,-17.13059 2.55207,-20.774577 2.38968,-2.010786 4.50794,-2.668469 8.59438,-2.668469 6.67431,0 12.61114,2.859468 19.53708,9.409966 l 4.14366,3.91905 1.33107,-2.784952 1.33107,-2.784935 -1.90626,-2.566527 c -4.34887,-5.855184 -10.66519,-10.69068 -17.48086,-13.382565 -3.3451,-1.321157 -4.62303,-1.562958 -9.14096,-1.729591 -4.46076,-0.164475 -5.64876,-0.04449 -7.88362,0.79603 -7.0369,2.646761 -10.39808,10.438174 -9.06656,21.0167 0.48671,3.86671 1.968,10.08039 3.09818,12.996117 0.25299,0.65268 -0.21749,0.83242 -2.94236,1.12424 -7.29132,0.78084 -12.57025,3.56884 -12.57025,6.63881 0,1.80138 1.69312,3.67272 4.31317,4.76716 l 1.68707,0.70471 0.0379,-2.61918 c 0.0208,-1.44053 0.28225,-2.86354 0.58093,-3.16223 0.40579,-0.4058 0.54307,-0.099 0.54307,1.21389 0,2.14606 1.31553,5.5961 2.13384,5.5961 0.32874,0 1.59459,0.13655 2.81299,0.30362 2.09731,0.2875 2.21647,0.24298 2.23756,-0.83555 0.0115,-0.62657 0.3266,-2.53582 0.69849,-4.24279 0.65229,-2.99401 0.66957,-2.7875 0.48905,5.84904 -0.18663,8.92478 -0.18393,8.95277 0.85331,9.00149 0.78099,0.0367 0.68326,0.13502 -0.39198,0.39457 -1.80899,0.43656 -3.24692,1.20473 -4.03688,2.15659 -0.55055,0.66337 -0.0838,0.74227 4.39099,0.74227 h 5.00702 l 0.30365,-2.21526 z m 90.95571,-3.06587 c 11.74119,-4.05521 20.72237,-16.69776 19.99182,-28.141967 -0.5808,-9.098759 -5.62714,-14.670135 -14.34247,-15.83472 -5.8933,-0.787495 -12.20135,1.269794 -17.94386,5.852151 l -2.57412,2.054067 1.56047,0.525412 c 3.37737,1.13714 4.40596,4.52398 3.18793,10.49685 -1.73232,8.494757 -6.79866,15.527687 -11.18576,15.527687 -1.44696,0 -1.57646,0.10841 -1.28391,1.07431 1.11012,3.66568 5.24395,7.57332 9.48083,8.96214 3.64973,1.19635 8.73037,0.9964 13.10907,-0.51593 z m -41.79614,-9.32667 c 1.22851,-0.41861 2.22993,-1.00947 2.22535,-1.31305 -0.003,-0.30357 -0.32607,-2.48571 -0.71439,-4.8492 -0.38834,-2.3635 -0.6967,-4.61957 -0.68526,-5.01348 0.0115,-0.39392 1.53424,0.89526 3.38403,2.86484 l 3.36324,3.58105 1.77845,-2.05069 c 4.61355,-5.31974 7.25185,-11.433177 7.57568,-17.554187 0.3816,-7.213103 -1.49495,-11.320081 -5.97843,-13.084272 -3.40368,-1.339307 -9.45194,0.163319 -13.13665,3.263706 l -1.49098,1.25453 1.35407,0.238728 c 5.9056,1.041222 3.99688,16.093768 -2.93192,23.121865 -2.64802,2.68595 -4.54836,3.49023 -6.50318,2.75238 -0.80368,-0.30337 -1.55397,-0.45884 -1.66731,-0.3455 -0.37161,0.37163 0.83911,3.24178 2.02135,4.79176 2.29838,3.01334 6.75137,3.9275 11.40595,2.34152 z m 66.91751,-28.289887 c 2.07682,-1.212932 2.56607,-3.367481 1.24875,-5.499001 -0.88421,-1.430687 -1.39054,-1.729661 -3.52123,-2.079318 l -2.48851,-0.408374 -1.55178,2.265904 c -0.85348,1.24625 -1.55178,2.464472 -1.55178,2.707156 0,0.242671 0.6983,1.520431 1.55178,2.839438 l 1.55178,2.398235 1.66968,-0.696858 c 0.91829,-0.383289 2.30938,-1.070506 3.09131,-1.527182 z m -8.58921,-6.552118 c 0.71421,-0.936392 1.22317,-1.769562 1.13098,-1.851463 -0.0922,-0.08189 -1.38484,-0.354364 -2.87261,-0.605404 -2.61123,-0.440614 -2.7236,-0.415676 -3.24083,0.719477 -0.29467,0.646766 -0.47402,1.215819 -0.39854,1.26455 1.76359,1.138803 3.54696,2.161052 3.78099,2.167297 0.16582,0.0034 0.88579,-0.758087 1.60001,-1.694457 z m -40.92755,-4.919947 1.54077,-2.802673 -1.78866,-0.29565 c -0.98377,-0.162549 -2.70184,-0.29802 -3.81794,-0.300909 l -2.02926,-0.0057 9.9e-4,2.029266 c 9.6e-4,1.843896 0.16467,2.122671 1.79053,3.051785 0.98408,0.562392 2.00822,1.045849 2.27586,1.074326 0.26766,0.02854 1.17998,-1.209429 2.0274,-2.750888 z m 48.18646,0.404137 -0.54489,-1.443573 -0.82016,1.08548 c -0.76969,1.018664 -0.77034,1.105453 -0.0102,1.41002 1.68865,0.676848 1.95206,0.475435 1.37555,-1.051927 z m -56.83085,-0.65137 c 0.0422,-0.02944 0.22334,-0.838367 0.40246,-1.797428 l 0.32567,-1.743766 -2.67645,-0.166208 c -2.08065,-0.12923 -2.622,-0.02465 -2.43176,0.469756 0.13462,0.34975 0.24476,1.349891 0.24476,2.222554 v 1.586685 l 2.02926,-0.258995 c 1.11608,-0.142527 2.06381,-0.283156 2.10606,-0.312677 z"
       id="path1135" />
  </g>
</svg>
