<?xml version="1.0" encoding="UTF-8" standalone="no"?>
<!-- Created with Inkscape (http://www.inkscape.org/) -->

<svg
   width="300mm"
   height="300mm"
   viewBox="0 0 299.99999 299.99999"
   version="1.1"
   id="svg978"
   sodipodi:docname="dee_dee_badass.svg"
   inkscape:version="1.2.2 (732a01da63, 2022-12-09)"
   xmlns:inkscape="http://www.inkscape.org/namespaces/inkscape"
   xmlns:sodipodi="http://sodipodi.sourceforge.net/DTD/sodipodi-0.dtd"
   xmlns="http://www.w3.org/2000/svg"
   xmlns:svg="http://www.w3.org/2000/svg">
  <sodipodi:namedview
     id="namedview980"
     pagecolor="#505050"
     bordercolor="#eeeeee"
     borderopacity="1"
     inkscape:showpageshadow="0"
     inkscape:pageopacity="0"
     inkscape:pagecheckerboard="0"
     inkscape:deskcolor="#505050"
     inkscape:document-units="mm"
     showgrid="false"
     inkscape:zoom="0.18462928"
     inkscape:cx="300.60238"
     inkscape:cy="595.78849"
     inkscape:window-width="1920"
     inkscape:window-height="1009"
     inkscape:window-x="-8"
     inkscape:window-y="-8"
     inkscape:window-maximized="1"
     inkscape:current-layer="layer1" />
  <defs
     id="defs975">
    <clipPath
       clipPathUnits="userSpaceOnUse"
       id="clipPath1950">
      <path
         style="fill:#000000;stroke:none;stroke-width:0.2;stroke-linejoin:round;paint-order:stroke fill markers;stop-color:#000000"
         d="m 50.467009,101.99455 -2.406637,-7.758233 6.36492,5.224936 2.913298,-9.626547 -5.984925,-6.428253 -8.771559,1.86831 -1.393316,13.489831 7.061579,6.143256"
         id="path1952" />
    </clipPath>
  </defs>
  <g
     inkscape:label="Layer 1"
     inkscape:groupmode="layer"
     id="layer1"
     transform="translate(-97.523636,8.3968611)">
    <path
       style="display:inline;fill:#000000;stroke-width:0.560462"
       d="m 267.24821,273.51979 -10.63609,-0.34282 -0.43428,-1.40116 c -0.23886,-0.77064 -1.94806,-13.0027 -3.79822,-27.1824 -1.85017,-14.17967 -3.60934,-27.29448 -3.90927,-29.144 -0.29994,-1.84952 -0.92571,-7.01978 -1.39059,-11.48947 -1.08911,-10.47143 -6.46616,-39.51554 -6.46616,-34.92697 0,0.31293 -0.3733,5.84048 -0.82955,12.28346 -0.45626,6.44299 -0.95129,13.98437 -1.10007,16.75865 -0.51355,9.57593 -0.91433,14.03032 -1.73975,19.33593 -0.45559,2.92843 -2.08498,16.04323 -3.62088,29.14403 -1.53589,13.10079 -2.9146,24.34689 -3.06378,24.99133 -0.26063,1.12579 -0.7164,1.18612 -11.63235,1.5398 -21.78288,0.70575 -45.68638,0.45773 -51.47547,-0.53412 -10.21819,-1.75066 -13.97019,-5.19558 -13.97019,-12.82679 0,-6.12844 5.27938,-12.75492 12.61981,-15.83993 9.31251,-3.91384 24.65481,-4.52514 34.19718,-1.36257 6.12313,2.02935 12.1684,5.26053 13.65172,7.29683 0.5999,0.82353 1.23367,1.3544 1.40837,1.17969 0.17469,-0.17476 2.0063,-8.15987 4.07024,-17.74479 l 3.7526,-17.42714 -4.02456,-6.7306 c -2.21351,-3.70182 -4.02456,-7.00252 -4.02456,-7.33487 0,-0.73891 0.68995,-0.74081 3.85708,-0.01 1.35076,0.31143 2.56493,0.4572 2.69817,0.32398 0.13322,-0.13334 -0.65668,-2.02724 -1.75536,-4.20892 -1.09867,-2.18168 -1.99759,-4.36978 -1.99759,-4.86247 0,-0.98324 -0.002,-0.98348 4.61702,0.55652 1.76872,0.5897 3.32282,0.96401 3.45356,0.83185 0.42559,-0.43028 2.79152,-17.30791 2.47116,-17.62829 -0.17116,-0.1711 -2.4239,0.23677 -5.00611,0.90648 -3.95121,1.02476 -5.56849,1.1605 -10.2095,0.8569 -5.9015,-0.38609 -13.92618,-1.95343 -17.27247,-3.37361 -2.40708,-1.02155 -4.39536,-3.33278 -4.39536,-5.10927 0,-0.87988 -0.52565,-1.4753 -1.75032,-1.98257 -1.0876,-0.45051 -2.04253,-1.42438 -2.52208,-2.57207 -0.8941,-2.13987 -1.01047,-6.22639 -0.23537,-8.26505 0.69442,-1.82646 3.59873,-3.3091 6.61008,-3.37442 l 2.38254,-0.0517 -0.31105,-2.52208 c -0.69013,-5.59583 3.96272,-7.41821 13.01366,-5.09705 6.71201,1.72132 7.06974,1.50748 2.69353,-1.61011 -2.1493,-1.53116 -4.79055,-3.50991 -5.86944,-4.39719 -1.49581,-1.23016 -3.67706,-2.02943 -9.18566,-3.3659 -3.97323,-0.96396 -7.34024,-1.86884 -7.48225,-2.01085 -0.65328,-0.65327 0.65707,-1.352 3.77729,-2.01415 1.86757,-0.39632 3.52775,-0.93443 3.68929,-1.19582 0.16153,-0.26138 -0.61565,-2.02678 -1.72707,-3.92314 -1.11143,-1.89636 -1.89682,-3.77091 -1.74533,-4.16572 0.209,-0.54463 1.8576,-0.2479 6.8344,1.23013 3.60743,1.07135 7.52194,2.43917 8.6989,3.03961 1.17696,0.60044 2.68737,1.0917 3.35646,1.0917 1.36827,0 21.62288,-3.80552 22.92798,-4.30781 0.46238,-0.17826 -1.55528,-0.9053 -4.4837,-1.616 -7.15508,-1.73649 -15.07374,-5.05604 -21.90446,-9.18248 -11.3883,-6.87971 -16.20693,-12.03528 -16.20693,-17.340164 0,-2.68565 1.42423,-12.55456 2.33219,-16.16038 0.62334,-2.4755 0.62121,-2.48141 -1.53786,-4.25871 -2.47861,-2.04032 -2.22594,-1.75193 -7.69764,-8.78551 -6.62168,-8.51183 -7.09651,-10.18314 -4.62277,-16.27107 4.82975,-11.88606 18.69559,-25.39788 30.46843,-29.69046 5.17907,-1.88838 8.93392,-1.45949 13.32437,1.52202 4.34427,2.95014 9.49637,9.28661 10.92349,13.43461 1.77329,5.15418 1.41318,7.72512 -1.52392,10.87942 l -1.3523,1.45232 23.4189,0.36797 c 12.8804,0.20235 25.8753,0.53153 28.87755,0.73142 l 5.45864,0.36344 -0.78477,-2.7442 c -2.11204,-7.38523 -1.50002,-19.54743 1.16069,-23.06531 3.15077,-4.16583 13.13707,-9.57397 19.96491,-10.81208 11.52602,-2.09006 22.16692,6.1191 29.43528,22.70847 2.92997,6.68745 4.58292,13.99555 4.59304,20.30704 0.01,6.88032 -0.82791,9.97116 -3.49042,12.85964 -4.68271,5.08015 -13.36903,10.46387 -21.06687,13.05708 -5.15669,1.73716 -5.92736,1.58272 -10.01616,-2.00702 -2.0294,-1.78173 -3.80299,-2.94297 -4.06603,-2.66221 -0.2566,0.27389 -1.14878,2.76787 -1.98262,5.54214 -0.90421,3.00843 -2.3009,6.14071 -3.46074,7.76125 -1.06957,1.49442 -1.84059,2.82118 -1.71337,2.94842 0.12724,0.12726 1.3112,-0.14958 2.63106,-0.61537 3.0403,-1.07269 8.00939,-1.0898 10.04987,-0.0347 5.25344,2.71666 5.37853,10.834974 0.25477,16.533834 -3.51549,3.91008 -8.11963,5.83872 -13.96339,5.84918 -5.00492,0.008 -7.83831,-1.18584 -9.63437,-4.06263 -0.50747,-0.81282 -0.98819,-1.57215 -1.06827,-1.68737 -0.0801,-0.11528 -2.21499,1.11797 -4.74424,2.74041 -6.15356,3.94734 -12.44303,6.78856 -20.62035,9.31508 -3.72646,1.15137 -6.77539,2.26703 -6.77539,2.47922 0,0.40944 25.92259,5.57119 27.97872,5.57119 0.66547,0 2.17292,-0.49127 3.34988,-1.09172 1.17695,-0.60044 5.09146,-1.96825 8.69889,-3.03959 4.97681,-1.47803 6.6254,-1.77477 6.8344,-1.23012 0.15149,0.39477 -0.6339,2.26935 -1.74532,4.16571 -1.11143,1.89635 -1.88861,3.66176 -1.72707,3.92313 0.16153,0.26137 1.82172,0.7995 3.68929,1.19582 3.12021,0.66216 4.43057,1.36087 3.77728,2.01416 -0.14201,0.14207 -3.50901,1.04688 -7.48224,2.01084 -5.5086,1.33645 -7.68986,2.13572 -9.18566,3.36589 -1.07889,0.8873 -3.72014,2.86604 -5.86944,4.39719 -4.37621,3.11761 -4.01849,3.33144 2.69352,1.61012 6.23962,-1.60018 10.15294,-1.29087 11.98958,0.94768 1.11389,1.35764 1.28359,2.04521 1.02408,4.14935 l -0.31104,2.52208 2.38254,0.0517 c 3.01134,0.0654 5.91566,1.54797 6.61007,3.37443 0.77511,2.03865 0.65873,6.12517 -0.23536,8.26503 -0.47955,1.14773 -1.43448,2.12159 -2.52208,2.57207 -1.22468,0.50728 -1.75033,1.10268 -1.75033,1.98259 0,1.7765 -1.98827,4.08772 -4.39536,5.10928 -4.32887,1.83717 -12.03114,3.15664 -18.8638,3.23153 -8.69815,0.0954 -13.04242,-1.17 -20.13051,-5.86331 -2.74892,-1.82019 -5.10102,-3.20645 -5.22688,-3.08059 -0.32551,0.32551 4.10295,22.13874 4.59344,22.6259 0.22332,0.22179 2.68172,-0.81708 5.46313,-2.30862 2.7814,-1.49153 5.25722,-2.50036 5.50181,-2.24185 0.24459,0.25851 0.0432,2.5456 -0.44748,5.0824 -0.49071,2.53682 -0.76049,4.74409 -0.59953,4.90506 0.16097,0.16095 1.48477,-0.0661 2.94179,-0.5046 2.17394,-0.65428 2.6999,-0.66494 2.93224,-0.0594 0.15571,0.40578 -2.25584,4.42291 -5.35902,8.92695 -3.10319,4.50403 -5.64215,8.55533 -5.64215,9.0029 0,0.83124 8.9906,34.58941 9.31762,34.98607 0.0991,0.12015 0.75436,-0.20255 1.45621,-0.71714 6.80974,-4.9928 10.97508,-7.30053 15.47471,-8.57349 16.51616,-4.67244 37.16742,0.26577 43.06418,10.29772 1.4045,2.38941 1.58105,3.21994 1.54505,7.26804 -0.0414,4.66582 -0.42137,5.75011 -2.93936,8.38977 -1.42587,1.49474 -8.6636,4.53865 -12.56526,5.28445 -3.57949,0.68421 -36.98463,1.0677 -51.69747,0.59347 z m 45.94519,-1.72725 c 6.46853,-0.44761 7.82582,-0.73029 12.09742,-2.51959 6.04544,-2.53231 7.18353,-3.90991 7.63004,-9.23589 0.42826,-5.10835 -0.96506,-8.11115 -5.36981,-11.57269 -10.95811,-8.61157 -33.54194,-9.37754 -45.64913,-1.54828 -2.20968,1.42892 -5.08667,3.47356 -6.3933,4.54364 -1.30663,1.07006 -2.69377,1.82297 -3.08254,1.6731 -0.39099,-0.15079 -2.81188,-8.13054 -5.41741,-17.85702 -2.59081,-9.67151 -4.91462,-17.81503 -5.16402,-18.09675 -0.44449,-0.50203 -9.89422,1.13391 -10.681,1.84911 -0.20841,0.18937 1.10908,11.69383 2.92777,25.56524 1.81869,13.87144 3.3133,25.65483 3.32137,26.18533 0.013,0.85423 0.86395,0.98445 7.44078,1.13865 17.31459,0.40595 41.57455,0.3433 48.33983,-0.12483 z m -85.03512,-0.48798 c 0.75457,-0.47886 7.29049,-53.08011 6.67224,-53.69837 -0.17599,-0.17596 -2.50773,-0.49008 -5.18163,-0.69801 -4.5437,-0.3533 -4.89397,-0.30341 -5.35614,0.76299 -0.27198,0.62755 -2.14685,8.83334 -4.16637,18.23509 -2.01953,9.40175 -3.93086,17.3463 -4.24739,17.65456 -0.38788,0.37772 -1.33758,-0.28669 -2.91281,-2.03783 -2.58447,-2.87304 -6.88509,-5.31788 -13.26629,-7.54162 -8.42364,-2.93556 -24.73873,-2.28239 -33.33605,1.33457 -3.84859,1.61913 -8.75742,5.98225 -10.48253,9.3172 -0.90096,1.74171 -1.09015,2.97835 -0.91902,6.00704 0.34522,6.10952 2.83217,8.43136 10.82966,10.11069 3.84731,0.80788 8.54069,0.9462 33.06725,0.97466 15.72095,0.0183 28.90554,-0.1713 29.29908,-0.42097 z m 28.14825,-55.36738 c 3.22498,-0.61892 5.14511,-1.29801 5.94393,-2.10218 2.03933,-2.05296 9.84934,-13.7983 9.17512,-13.7983 -1.0834,0 -21.53859,5.64545 -21.95097,6.0583 -0.34039,0.34075 0.42769,8.20263 0.98234,10.05499 0.26303,0.8784 0.14031,0.88287 5.84958,-0.21281 z m -20.36986,-4.80942 c 0.30718,-3.28946 0.23128,-3.71457 -0.71229,-3.99007 -2.84568,-0.8309 -17.19823,-3.75606 -17.40665,-3.54764 -0.17958,0.17962 5.46809,10.02878 6.24704,10.89442 0.3251,0.36129 10.70149,0.9905 11.09604,0.67285 0.23763,-0.19139 0.58677,-2.00463 0.77586,-4.02956 z m 0.75269,-8.14862 -0.001,-2.10175 -7.89534,-2.98595 c -4.34244,-1.64227 -8.0226,-2.8587 -8.17814,-2.70317 -0.15554,0.15548 0.56048,1.87753 1.59115,3.82665 l 1.87407,3.54387 4.76392,1.21011 c 2.62016,0.66557 5.4575,1.23304 6.3052,1.26104 1.4166,0.0469 1.54119,-0.11913 1.54026,-2.0508 z m 21.85901,-1.5728 c 4.16143,-1.11861 7.6571,-2.12241 7.76817,-2.23061 0.35565,-0.34653 1.78682,-7.70564 1.54549,-7.94697 -0.27391,-0.2739 -18.71252,9.26674 -19.09016,9.87776 -0.5725,0.92634 0.40054,2.88094 1.29894,2.60929 0.50123,-0.15161 4.31613,-1.19082 8.47756,-2.30947 z m -21.29533,-4.03184 c 0.001,-0.84768 0.50463,-8.72918 1.11871,-17.51443 0.61408,-8.78523 1.1175,-16.55266 1.11872,-17.26095 0.002,-1.22403 -0.1712,-1.27952 -3.50068,-1.12091 l -3.50289,0.16684 -2.63142,16.79792 c -1.44729,9.23886 -2.55066,16.87868 -2.45194,16.9774 0.36223,0.36224 8.46825,3.43089 9.14671,3.46261 0.39807,0.0183 0.70153,-0.63273 0.70279,-1.5085 z m 15.83083,-0.69207 c 2.08072,-1.06174 3.78312,-2.29113 3.78312,-2.73194 0,-0.44083 -1.03577,-6.17068 -2.30172,-12.73302 -2.24052,-11.61426 -2.37007,-12.03684 -4.87238,-15.89208 l -2.57066,-3.96054 h -2.69386 c -2.24268,0 -2.69385,0.17271 -2.69385,1.03183 0,1.12459 6.04463,34.64738 6.46698,35.86513 0.14254,0.41095 0.44818,0.65807 0.6792,0.54914 0.23103,-0.10895 2.12246,-1.06676 4.20317,-2.12852 z m 38.84692,-20.06451 c 2.48526,-0.55854 5.35902,-1.50772 6.38614,-2.10933 1.89118,-1.10769 3.30049,-2.76831 2.78599,-3.28279 -0.15461,-0.15466 -2.28946,0.0767 -4.7441,0.51401 -5.83785,1.04011 -15.58627,1.0424 -21.55706,0.004 -5.42086,-0.9418 -11.76969,-3.40064 -11.76969,-4.55826 0,-1.04392 0.48006,-0.98553 3.36768,0.4096 8.4089,4.06275 27.82261,4.37296 36.53473,0.58381 2.30389,-1.00203 2.71197,-1.44268 3.27603,-3.53743 0.97259,-3.61193 -0.0431,-6.47203 -2.69145,-7.57856 -2.66224,-1.11234 -5.02147,-0.70015 -10.51212,1.83668 -5.89355,2.72299 -12.23718,3.80571 -19.98679,3.41129 -5.77355,-0.29382 -8.94785,-1.11906 -7.94652,-2.06583 0.26428,-0.24988 1.74155,-0.24155 3.28282,0.0183 9.89984,1.67046 23.924,-0.96172 27.44996,-5.1521 2.4333,-2.89181 1.65741,-6.20892 -1.66701,-7.12686 -1.95036,-0.5385 -2.69132,-0.43037 -13.03244,1.90231 -7.10109,1.6018 -9.71202,2.01399 -11.66349,1.84134 -3.19263,-0.28246 -2.46422,-1.26902 1.19577,-1.61953 3.94533,-0.37784 3.26337,-0.0385 11.07186,-5.50997 l 6.06864,-4.25238 -2.70587,-0.37123 c -5.72801,-0.78588 -5.36625,-0.93268 -20.38715,8.27299 -7.84578,4.80835 -14.73502,9.19455 -15.30943,9.74713 -3.79309,3.64882 8.84404,15.39151 20.34948,18.90917 3.73395,1.14163 5.02904,1.26111 10.95984,1.01123 3.69905,-0.15587 8.75893,-0.74034 11.24418,-1.29889 z m -67.98763,-0.75366 c 3.36928,-0.90914 4.5275,-1.4767 4.86088,-2.38196 0.5555,-1.50841 1.25254,-5.95239 0.93364,-5.95239 -0.13221,0 -1.39798,0.49622 -2.81282,1.10269 -6.18559,2.65144 -20.11,3.59975 -29.16587,1.98629 -2.45464,-0.43735 -4.58948,-0.66863 -4.7441,-0.51402 -0.54725,0.54726 0.93556,2.20481 3.03854,3.39659 1.79027,1.01458 6.79317,2.22664 13.17431,3.19175 4.24647,0.64224 10.58671,0.2851 14.71542,-0.82895 z m -4.60796,-6.97016 c 8.08684,-1.53404 11.19009,-3.17986 11.19009,-5.93474 0,-1.85388 0.0629,-1.84332 -9.80808,-1.64541 -7.8691,0.15769 -14.01549,-0.951 -19.61595,-3.53858 -5.48107,-2.53241 -7.8413,-2.94417 -10.50251,-1.83223 -2.6483,1.10651 -3.66404,3.96662 -2.69144,7.57856 0.5638,2.09381 0.97316,2.53623 3.27602,3.54063 6.05033,2.63889 19.33901,3.50354 28.15187,1.83177 z m 0.54131,-9.96011 c 0,-0.41219 1.00367,-2.15105 2.23037,-3.86413 2.58897,-3.61545 2.43898,-3.94159 -2.23037,-4.84981 -1.69539,-0.32975 -4.84799,-0.99677 -7.00577,-1.48224 -10.3403,-2.32645 -10.93639,-2.41305 -12.89232,-1.87299 -3.32442,0.91792 -4.10032,4.23505 -1.66702,7.12686 2.48091,2.9484 10.73275,5.44017 18.62269,5.62342 2.11671,0.0491 2.94242,-0.14206 2.94242,-0.68111 z m 27.13974,-0.68127 c 0.20902,-0.83279 1.22991,-1.94542 2.44272,-2.66219 l 2.08363,-1.23146 -9.24762,-0.34799 c -5.08619,-0.19139 -10.78853,-0.52731 -12.67186,-0.74649 l -3.42425,-0.39849 -1.76002,2.13522 c -0.96802,1.17437 -1.76003,2.44061 -1.76003,2.81388 0,0.3766 1.06014,0.81532 2.38196,0.98573 1.31008,0.16886 3.01249,0.40221 3.78312,0.51848 0.77063,0.1163 5.09388,0.24574 9.60721,0.28772 l 8.20605,0.0763 z m 9.52009,-7.19923 c 2.77949,-1.16136 2.81678,-1.73113 0.24652,-3.76683 -2.52902,-2.00303 -1.93129,-1.9378 -11.88846,-1.29733 -4.29362,0.27617 -6.26772,0.14776 -8.84475,-0.57531 l -3.31747,-0.93084 -3.35071,2.7998 c -2.32786,1.94508 -3.1352,2.93321 -2.64472,3.2369 1.41568,0.87653 5.42177,1.17825 16.55704,1.24694 8.598,0.0529 11.82419,-0.12076 13.24255,-0.71333 z m -30.66612,-3.42122 c 1.54532,-1.37816 1.55334,-1.41721 0.46361,-2.2572 -0.60991,-0.47014 -3.44104,-2.26576 -6.29139,-3.99029 l -5.18248,-3.13551 -4.26338,0.48867 -4.26337,0.48867 6.14993,4.33897 c 8.57803,6.05208 10.50463,6.63734 13.38708,4.06669 z m 43.37923,-3.97399 c 4.28679,-2.64879 7.79416,-4.98398 7.79416,-5.1893 0,-0.20534 -5.35941,-1.86183 -11.90981,-3.68113 -6.5504,-1.81932 -12.22507,-3.42034 -12.61039,-3.55784 -0.53331,-0.19039 -0.70058,1.2302 -0.70058,5.94962 v 6.19964 l 1.85554,0.34809 c 1.02055,0.19139 3.10127,1.33516 4.62381,2.54153 1.52255,1.20637 2.85486,2.19611 2.96069,2.19938 0.10583,0.004 3.69979,-2.16123 7.98658,-4.80999 z m -34.21815,-2.5735 c 0.70727,-1.34335 2.35934,-8.91095 2.01952,-9.25079 -0.41571,-0.4157 -19.97662,4.99004 -19.97662,5.52062 0,0.21225 2.68053,2.03101 5.95673,4.04166 l 5.95673,3.65575 2.82774,-1.615 c 1.55525,-0.88823 3.00241,-1.94674 3.2159,-2.35224 z m 14.02607,2.88604 c 0.98278,-0.52598 1.08408,-1.23295 1.08408,-7.56625 0,-5.03086 0.18682,-6.98605 0.66755,-6.98605 0.36714,0 6.50748,1.63935 13.64518,3.643 7.1377,2.00365 13.10899,3.643 13.26952,3.643 0.6566,0 3.30628,-4.6411 2.87222,-5.03089 -0.25837,-0.23202 -7.02717,-1.68985 -15.04177,-3.2396 -12.95941,-2.50593 -15.1435,-2.78595 -19.73616,-2.53043 l -5.16415,0.28733 -0.82432,2.87483 c -0.45338,1.58116 -1.35755,5.01861 -2.00928,7.63876 -0.65173,2.62016 -1.31618,5.20694 -1.47658,5.74839 -0.1975,0.66675 0.12795,1.15272 1.00835,1.50575 1.78552,0.71597 10.37359,0.72489 11.70536,0.0122 z m 45.01095,-6.76762 c 2.81244,-0.6505 5.32152,-1.37551 5.57574,-1.61117 0.25422,-0.23563 -0.49786,-0.60855 -1.67127,-0.82868 -1.56933,-0.29441 -3.65521,0.0162 -7.88833,1.17575 -3.16516,0.86678 -5.75485,1.77192 -5.75485,2.01139 0,0.79906 4.56873,0.44846 9.73871,-0.74729 z m -84.28012,-0.37364 c 0,-0.23947 -2.58968,-1.14461 -5.75485,-2.01139 -4.23312,-1.15926 -6.31899,-1.47016 -7.88832,-1.17575 -1.17342,0.22013 -1.92549,0.59398 -1.67128,0.83077 1.49909,1.39626 15.31445,3.52199 15.31445,2.35637 z m 75.38211,-1.48737 c 11.56566,-3.28105 10.80536,-2.91463 12.34264,-5.94831 1.64537,-3.24697 1.5877,-3.26657 -4.21595,-1.43239 -6.65151,2.10215 -9.22177,3.42655 -11.12075,5.73034 -1.8546,2.24994 -2.25129,3.31413 -1.06929,2.86849 0.38532,-0.14532 2.21382,-0.69344 4.06335,-1.21813 z m -71.45888,-0.19138 c 0,-1.18065 -3.84124,-4.85915 -6.11345,-5.85444 -2.93274,-1.28464 -10.62471,-3.78008 -11.69065,-3.7927 -0.47754,-0.007 -0.24914,0.90108 0.69753,2.76926 1.34394,2.65214 1.57867,2.82764 5.19372,3.88356 2.08239,0.60823 5.42551,1.60456 7.42916,2.21405 4.31029,1.31117 4.48369,1.34134 4.48369,0.78027 z m 10.10602,-1.54808 c 15.13388,-4.28985 14.4266,-4.00832 14.84395,-5.90849 0.20761,-0.94527 0.23307,-1.86308 0.0566,-2.03957 -0.38839,-0.3884 -24.52958,4.30788 -25.19608,4.90149 -0.46349,0.4128 2.23871,5.02741 2.94391,5.02741 0.19996,0 3.50821,-0.89138 7.35164,-1.98084 z m 36.16704,-13.02525 c 11.03876,-3.6399 15.98185,-5.89488 22.36749,-10.20389 2.29288,-1.5472 4.42733,-2.8131 4.74324,-2.8131 0.31591,0 1.05992,0.94577 1.65336,2.10173 1.58361,3.08471 3.94653,4.24174 8.71263,4.26626 9.42128,0.0485 17.22206,-7.31054 15.79771,-14.903004 -1.08679,-5.79309 -9.02561,-6.66064 -16.2751,-1.77855 -4.565,3.074264 -5.61956,2.68428 -8.97729,-3.31991 -2.70234,-4.83224 -4.70648,-10.38686 -5.67887,-15.73935 -1.21519,-6.6891 -1.34275,-7.13451 -1.93771,-6.76681 -0.29922,0.18489 -0.54841,1.39321 -0.55376,2.68512 -0.0294,7.08659 -3.78176,16.42427 -8.55507,21.28891 -3.89781,3.97239 -7.433,5.638474 -12.53289,5.906544 -3.42716,0.18022 -4.49327,-0.01 -7.40459,-1.315834 -6.44604,-2.89281 -11.5151,-9.73029 -14.02684,-18.92028 -1.13475,-4.15187 -1.14659,-4.4552 -0.25174,-6.4453 0.82892,-1.84351 0.96517,-1.94052 1.16184,-0.82735 0.12255,0.69358 0.44457,1.26103 0.71562,1.26103 0.27104,0 8.2923,-4.91804 17.82501,-10.929 9.53271,-6.01095 17.55321,-10.92644 17.82333,-10.92331 0.27012,0.002 0.92816,1.04567 1.46231,2.31675 0.93534,2.22578 1.04647,2.29882 3.01186,1.97987 1.12239,-0.18205 2.10324,-0.40499 2.17967,-0.49524 0.0764,-0.0903 0.30803,-1.32988 0.51464,-2.75474 0.34461,-2.37658 0.2695,-2.61982 -0.909,-2.94371 -2.74195,-0.75359 -53.24647,-1.09488 -60.97383,-0.41207 -12.73574,1.12542 -11.99295,0.90961 -13.94646,4.05214 -1.3455,2.16445 -1.48692,2.63553 -0.65807,2.19195 0.58067,-0.31078 1.17089,-0.88318 1.31161,-1.27204 0.37116,-1.02565 1.29154,-0.40202 14.79411,10.02409 6.52835,5.04092 12.13998,9.16531 12.47028,9.16531 0.33029,0 0.60054,-0.37831 0.60054,-0.84068 0,-0.46238 0.25221,-0.8407 0.56046,-0.8407 0.9959,0 0.59713,3.45247 -0.89964,7.78902 -1.47156,4.26351 -3.57325,7.84335 -5.76066,9.81227 -1.5282,1.37553 -1.49391,1.89171 0.21499,3.23594 1.45194,1.14209 1.83296,2.1417 0.81635,2.1417 -0.32165,0 -2.98043,-2.04909 -5.9084,-4.55356 -2.92798,-2.50445 -5.46525,-4.41188 -5.63838,-4.23876 -0.24342,0.24341 2.35791,8.8344 4.14722,13.696364 0.1418,0.38532 -0.10142,0.70058 -0.54048,0.70058 -0.47622,0 -1.19034,-1.2437 -1.76999,-3.082554 -0.95997,-3.04539 -0.99809,-3.08254 -3.16386,-3.08254 -3.63753,0 -8.15041,-2.04632 -11.16818,-5.06409 -3.41261,-3.41262 -5.53318,-7.69066 -6.41946,-12.95064 -0.37811,-2.24405 -0.85201,-3.81387 -1.05311,-3.48848 -0.8762,1.41773 -3.14736,11.63822 -3.81537,17.16965 -0.69802,5.77991 -0.67917,6.13721 0.44605,8.45324 1.54987,3.190104 6.91747,7.820154 14.05688,12.125374 7.5482,4.55173 13.54961,6.97367 24.49442,9.88504 11.93268,3.17416 13.46905,3.09754 26.93713,-1.34339 z m -20.49182,-10.53014 c -1.07888,-0.4082 -3.0335,-0.75642 -4.34357,-0.77381 -1.31008,-0.0183 -2.38197,-0.2565 -2.38197,-0.53135 0,-0.71196 2.3078,-1.19722 3.94013,-0.82848 3.26721,0.73806 6.70865,2.01752 6.70865,2.49415 0,0.68724 -1.52419,0.54718 -3.92324,-0.36051 z m 25.58752,-11.636284 c 5.53254,-2.80357 10.30932,-9.51154 12.32662,-17.31015 1.05031,-4.06035 1.18805,-12.84998 0.26325,-16.79948 -1.0666,-4.55509 -2.90067,-8.86387 -3.773,-8.86387 -0.80658,0 -33.33008,20.15333 -34.9412,21.65147 -1.87716,1.74551 1.79572,11.67017 6.14919,16.61595 5.57296,6.331224 13.21505,8.131674 19.97514,4.70608 z m 31.57893,-5.51309 c 3.49604,-4.77275 4.77848,-7.59599 6.47793,-14.26098 l 1.01559,-3.98298 -2.86812,-3.94329 c -1.57746,-2.16883 -4.58745,-7.23274 -6.68886,-11.25313 -4.05316,-7.75451 -4.23146,-7.92208 -8.44455,-7.93561 -2.09656,-0.006 -2.38288,0.14349 -2.38961,1.25338 -0.005,0.69357 -0.17014,1.86834 -0.36875,2.61059 -0.32304,1.20735 -0.21886,1.31307 0.98847,1.00321 l 1.34955,-0.34637 -1.2325,0.95841 c -0.86004,0.6688 -1.34586,1.83428 -1.6076,3.85657 l -0.3751,2.89815 2.72852,0.43406 2.72853,0.43407 -2.69209,0.517 c -2.67269,0.51327 -2.69086,0.53168 -2.52208,2.55265 0.15859,1.89897 0.33932,2.07963 2.69209,2.69111 l 2.52208,0.65547 -2.38197,0.045 c -2.77545,0.0526 -2.74609,-0.0674 -1.58995,6.49042 0.78037,4.42638 2.65688,10.09977 4.56284,13.79522 1.73713,3.36808 3.61219,6.10116 4.18578,6.10116 0.30755,0 2.06696,-2.05839 3.9098,-4.57421 z m -79.16464,1.30995 c 0.53654,-0.3407 0.30096,-1.5396 -1.00646,-5.12201 -1.02116,-2.79806 -1.50276,-4.88142 -1.19869,-5.1855 0.30407,-0.30407 2.38767,1.08172 5.18605,3.44921 2.57277,2.17662 4.91094,3.95749 5.19593,3.95749 0.28499,0 1.41032,-0.94577 2.50074,-2.10173 2.28416,-2.42146 4.58385,-7.10763 4.99603,-10.18064 l 0.28414,-2.1184 -12.25236,-9.42799 c -6.73879,-5.18539 -12.57673,-9.67602 -12.9732,-9.97914 -1.07398,-0.82116 -3.79455,2.05083 -5.74023,6.05971 -4.54532,9.36514 -2.72772,20.3115 4.44931,26.79552 2.84319,2.56863 4.2023,3.17064 9.578,4.24241 0.15413,0.0307 0.59546,-0.14431 0.98074,-0.38893 z m 106.81026,-15.2898 c 5.36808,-2.44651 14.95013,-9.05301 14.95013,-10.30763 0,-0.39926 -1.22766,-1.51371 -2.72814,-2.47656 -8.21668,-5.27263 -14.65112,-20.13145 -14.82542,-34.23576 -0.0794,-6.42839 0.45567,-8.17363 2.67704,-8.73116 2.2762,-0.57129 3.58665,0.26754 6.0409,3.86682 7.41467,10.87392 8.08436,22.59802 1.192,20.86815 -2.3682,-0.59436 -3.77915,-6.05279 -2.6519,-10.25907 0.65034,-2.42675 1.32812,-1.22978 1.32812,2.34546 0,4.68014 0.68053,6.48179 2.44824,6.48179 4.03911,0 2.07633,-10.18189 -3.56383,-18.48739 -1.9855,-2.92376 -2.55411,-3.41085 -3.80974,-3.26354 -1.21898,0.14309 -1.56088,0.56346 -1.96384,2.415 -0.64276,2.95325 -0.055,10.65777 1.23982,16.2534 2.09919,9.07154 7.54681,18.11626 13.2156,21.94202 3.41335,2.30359 3.79872,1.99534 4.78023,-3.82371 1.10382,-6.54412 -0.49457,-16.07572 -4.07217,-24.28338 -4.66723,-10.70754 -10.16184,-17.43116 -17.01135,-20.81637 -3.95818,-1.95625 -4.32169,-2.03069 -8.488,-1.73855 -2.63071,0.18449 -5.83875,0.86763 -8.10891,1.72684 -3.89687,1.47487 -11.00268,5.95954 -13.19755,8.3293 -1.81514,1.95978 -2.57489,6.87522 -2.19173,14.18016 0.39379,7.50775 1.26684,10.20939 6.48718,20.07458 4.73447,8.94701 10.16585,16.53122 14.46751,20.20196 3.08541,2.63288 3.28856,2.71538 5.91941,2.4038 1.4984,-0.17739 5.03828,-1.37725 7.8664,-2.66616 z m -128.52808,-4.42485 c 0,-0.88408 -0.37365,-1.12093 -1.76826,-1.12093 -1.73274,0 -1.74788,0.0226 -0.75382,1.12093 0.55793,0.61651 1.35364,1.12093 1.76825,1.12093 0.4146,0 0.75383,-0.50442 0.75383,-1.12093 z m 0.56928,-2.61797 c 0.23845,-0.25552 0.59804,-1.24681 0.79909,-2.20288 0.36281,-1.72539 0.34346,-1.74237 -2.60315,-2.28586 l -2.96869,-0.54756 3.52674,-0.45143 c 3.33935,-0.42743 3.57014,-0.55529 4.34358,-2.40639 0.44926,-1.07524 0.81684,-2.05345 0.81684,-2.17382 0,-0.12036 -1.38714,-0.83232 -3.08254,-1.5821 -1.6954,-0.74979 -3.08254,-1.47012 -3.08254,-1.60074 0,-0.13071 1.4502,0.10371 3.22266,0.52085 3.92152,0.92282 4.06334,0.92889 4.06334,0.17354 0,-0.44489 4.40104,-7.74581 5.29439,-8.78291 0.24655,-0.28622 16.97488,-1.82145 19.86002,-1.82264 2.81329,-10e-4 3.18086,-0.16602 5.4645,-2.44957 2.16632,-2.16631 2.44834,-2.73923 2.44834,-4.97369 0,-3.71752 -1.28194,-6.73982 -4.7543,-11.20873 -3.53178,-4.54539 -8.37066,-8.06979 -11.7819,-8.58133 -8.93002,-1.33915 -28.04638,13.47764 -34.75256,26.93615 -4.05355,8.13498 -3.79454,9.36691 4.0378,19.20519 l 4.22049,5.30141 2.24717,-0.30141 c 1.23594,-0.16582 2.44226,-0.51046 2.68072,-0.76598 z m -6.73436,-21.066 c 0,-0.38777 1.7024,-1.83796 3.78311,-3.22266 4.51673,-3.00583 14.0012,-12.31717 15.54187,-15.25816 2.18174,-4.16471 -1.05142,-3.9083 -7.10091,0.56315 -3.53444,2.61246 -7.17992,6.51963 -7.17992,7.69531 0,1.20494 0.7974,1.03893 2.7001,-0.56207 1.70303,-1.43302 2.90452,-1.8014 2.90452,-0.89053 0,0.79047 -3.29341,3.37384 -4.77527,3.74577 -1.80182,0.45221 -2.51073,-0.10372 -2.51073,-1.96872 0,-2.95461 7.43657,-9.918 13.25591,-12.41246 2.37317,-1.01725 2.70477,-1.03795 3.91602,-0.2443 0.72782,0.47689 1.32331,1.33694 1.32331,1.91121 0,3.21598 -9.31454,13.2966 -17.20751,18.62271 -4.38388,2.95823 -4.6505,3.07408 -4.6505,2.02075 z m 91.35526,16.92534 c 0,-1.00024 -0.23347,-1.57016 -0.56046,-1.36808 -0.30825,0.19058 -0.56046,0.96201 -0.56046,1.71447 0,0.75244 0.25221,1.36807 0.56046,1.36807 0.30826,0 0.56046,-0.77151 0.56046,-1.71446 z m 0.0877,-6.41224 c 0.21012,-2.6418 -0.24796,-3.06788 -1.95574,-1.81913 -1.29626,0.94787 -0.70163,4.34122 0.76073,4.34122 0.77522,0 1.03865,-0.55595 1.19501,-2.52209 z"
       id="path1159" />
    <ellipse
       style="display:inline;fill:#000000;stroke:none;stroke-width:0.623694;stroke-linejoin:round;paint-order:stroke fill markers;stop-color:#000000"
       id="path1213"
       cx="260.56155"
       cy="81.052368"
       rx="7.0054135"
       ry="12.08273" />
    <ellipse
       style="display:inline;fill:#000000;stroke:none;stroke-width:0.307299;stroke-linejoin:round;paint-order:stroke fill markers;stop-color:#000000"
       id="path1213-2"
       cx="50.213676"
       cy="91.798019"
       rx="3.4516237"
       ry="5.953259"
       clip-path="url(#clipPath1950)"
       transform="matrix(2.0295994,0,0,2.0295994,118.73632,-105.77498)" />
  </g>
</svg>
