<?xml version="1.0" encoding="UTF-8" standalone="no"?>
<!-- Created with Inkscape (http://www.inkscape.org/) -->

<svg
   width="300mm"
   height="300mm"
   viewBox="0 0 299.99999 299.99999"
   version="1.1"
   id="svg978"
   sodipodi:docname="dee_dee_badass_goth.svg"
   inkscape:version="1.2.2 (732a01da63, 2022-12-09)"
   xmlns:inkscape="http://www.inkscape.org/namespaces/inkscape"
   xmlns:sodipodi="http://sodipodi.sourceforge.net/DTD/sodipodi-0.dtd"
   xmlns="http://www.w3.org/2000/svg"
   xmlns:svg="http://www.w3.org/2000/svg">
  <sodipodi:namedview
     id="namedview980"
     pagecolor="#505050"
     bordercolor="#eeeeee"
     borderopacity="1"
     inkscape:showpageshadow="0"
     inkscape:pageopacity="0"
     inkscape:pagecheckerboard="0"
     inkscape:deskcolor="#505050"
     inkscape:document-units="mm"
     showgrid="false"
     inkscape:zoom="0.18462928"
     inkscape:cx="311.43489"
     inkscape:cy="904.51526"
     inkscape:window-width="1920"
     inkscape:window-height="1009"
     inkscape:window-x="-8"
     inkscape:window-y="-8"
     inkscape:window-maximized="1"
     inkscape:current-layer="layer1" />
  <defs
     id="defs975">
    <clipPath
       clipPathUnits="userSpaceOnUse"
       id="clipPath1950">
      <path
         style="fill:#000000;stroke:none;stroke-width:0.2;stroke-linejoin:round;paint-order:stroke fill markers;stop-color:#000000"
         d="m 50.467009,101.99455 -2.406637,-7.758233 6.36492,5.224936 2.913298,-9.626547 -5.984925,-6.428253 -8.771559,1.86831 -1.393316,13.489831 7.061579,6.143256"
         id="path1952" />
    </clipPath>
  </defs>
  <g
     inkscape:label="Layer 1"
     inkscape:groupmode="layer"
     id="layer1"
     transform="translate(-97.523636,8.3968611)">
    <path
       style="fill:#000000;stroke-width:0.308923"
       d="m 269.92648,274.39833 c -4.84235,-0.12756 -9.72612,-0.25115 -10.85283,-0.27448 l -2.04854,-0.0424 -0.33447,-1.32821 c -0.33793,-1.34216 -2.06658,-13.70108 -4.37271,-31.26309 -0.69166,-5.26714 -1.81761,-13.67754 -2.50215,-18.68979 -0.68452,-5.01227 -1.58432,-12.0222 -1.99956,-15.57762 -0.87526,-7.49468 -1.36911,-10.9435 -2.63535,-18.40385 -1.22562,-7.22108 -3.6059,-19.0841 -3.95392,-19.70604 -0.39173,-0.69996 -0.51275,0.60456 -1.57003,16.92576 -0.50081,7.73077 -1.06216,16.3497 -1.2474,19.15319 -0.18536,2.80345 -0.60996,7.18244 -0.94376,9.73104 -1.34362,10.25851 -3.07511,24.16947 -3.82594,30.73776 -1.91768,16.77629 -3.29813,27.04512 -3.68855,27.43861 -0.71298,0.71862 -11.9367,1.07829 -34.01166,1.08992 -24.81002,0.0129 -28.34855,-0.20097 -34.48144,-2.08642 -3.4016,-1.04576 -5.9946,-3.01117 -7.2555,-5.49945 -1.05492,-2.08175 -1.54019,-5.75526 -1.06356,-8.05113 1.11078,-5.35062 5.8887,-10.80241 11.8268,-13.49488 8.07479,-3.66129 22.16134,-4.74516 31.9937,-2.46174 6.01752,1.39749 12.97483,4.68965 16.1957,7.66372 0.99106,0.91512 1.88523,1.58057 1.98704,1.47875 0.40692,-0.40691 7.82795,-33.68199 7.82795,-35.09961 0,-0.33124 -1.15586,-2.5209 -2.56856,-4.86594 -3.47999,-5.77665 -5.5732,-9.66306 -5.33357,-9.90268 0.17594,-0.17594 2.41704,0.12694 5.35352,0.72382 1.34826,0.27404 1.32874,-0.29986 -0.11151,-3.28002 -1.44474,-2.98951 -2.66383,-6.20046 -2.43934,-6.42493 0.18064,-0.18066 0.93096,0.006 5.2539,1.31441 2.08267,0.62981 2.52413,0.67983 2.80664,0.31802 0.51688,-0.66194 2.7846,-16.51327 2.47708,-17.31467 -0.18258,-0.47598 -0.77885,-0.40777 -4.54052,0.51948 -5.6013,1.38069 -10.77267,1.36274 -18.81514,-0.0653 -9.3612,-1.66224 -12.7349,-3.37939 -13.63094,-6.93785 -0.21956,-0.87196 -0.63907,-1.59595 -1.11418,-1.9228 -1.85341,-1.2751 -3.16675,-2.6579 -3.52474,-3.7111 -0.21276,-0.62596 -0.39429,-2.45873 -0.40338,-4.07284 -0.0128,-2.42316 0.094,-3.12298 0.61765,-4.01436 0.93892,-1.59833 3.4438,-2.77586 6.37658,-2.99766 l 2.3376,-0.1768 -0.0404,-2.7117 c -0.0342,-2.29309 0.0578,-2.84375 0.59497,-3.56686 1.79888,-2.42108 5.54724,-2.72497 13.07231,-1.05981 5.22701,1.15664 5.87927,0.98853 3.39606,-0.87528 -0.91168,-0.68425 -3.18676,-2.39214 -5.05573,-3.79529 -1.86899,-1.40315 -4.18154,-2.86982 -5.13897,-3.25925 -0.95743,-0.38943 -4.27868,-1.34015 -7.3805,-2.11272 -3.10182,-0.77258 -5.92314,-1.55637 -6.2696,-1.74179 -0.58688,-0.31408 -0.5937,-0.36363 -0.1,-0.72464 0.29147,-0.2132 1.68983,-0.67845 3.10749,-1.03399 3.45556,-0.86668 4.19692,-1.1744 4.19692,-1.74195 0,-0.26387 -0.76456,-1.93768 -1.69905,-3.71958 -2.17359,-4.14461 -2.17605,-4.29797 -0.0652,-4.04989 1.87307,0.22014 11.5328,3.26788 14.09968,4.44859 2.05669,0.94602 3.94218,1.01197 7.74467,0.2708 1.44421,-0.28149 3.39043,-0.64745 4.32492,-0.81322 3.31818,-0.58865 13.13767,-2.49716 13.66979,-2.65686 0.29735,-0.0892 0.54063,-0.27565 0.54063,-0.41428 0,-0.1387 -0.24328,-0.32547 -0.54063,-0.41518 -0.29734,-0.0897 -2.69965,-0.78707 -5.33847,-1.54968 -5.1198,-1.47961 -10.82775,-3.62195 -14.35533,-5.38792 -8.60902,-4.30984 -17.26844,-10.45698 -20.0299,-14.21882 -1.89355,-2.57954 -2.44291,-4.199553 -2.43253,-7.173373 0.0108,-2.84054 0.95742,-9.837324 1.9606,-14.477755 0.344,-1.591251 0.54852,-3.199734 0.45448,-3.574429 -0.094,-0.374719 -1.03675,-1.413429 -2.0949,-2.308262 -2.68281,-2.268792 -10.74634,-12.427385 -12.33631,-15.541567 -1.07627,-2.10805 -1.30497,-3.99521 -0.74772,-6.17036 2.94148,-11.481633 16.85011,-26.503642 29.82015,-32.207161 7.84194,-3.448469 12.90991,-2.204859 19.63766,4.818768 5.18621,5.414331 7.89676,10.973738 7.45347,15.287375 -0.19776,1.925152 -0.67886,2.900913 -2.38437,4.836467 -0.71765,0.814441 -1.2462,1.539413 -1.17456,1.611052 0.0717,0.0717 8.04739,0.276088 17.72387,0.454383 21.06549,0.388095 37.53247,0.867094 39.1896,1.13995 1.08469,0.178509 1.19026,0.139125 1.04081,-0.390193 -1.76517,-6.250153 -2.31684,-11.411662 -1.80197,-16.859684 0.52825,-5.589714 1.20817,-7.605021 3.33394,-9.882246 2.93434,-3.143378 10.56246,-7.393209 16.30005,-9.081185 7.61201,-2.239448 14.94495,-0.269518 21.27678,5.715805 4.78162,4.519927 9.73055,12.620256 12.49424,20.450403 2.27179,6.436476 3.4415,14.766062 2.87041,20.440451 -0.54977,5.462404 -1.79638,7.796908 -6.15595,11.5281 -5.05407,4.325579 -13.70452,9.141564 -19.32161,10.756959 -4.36618,1.255661 -4.82768,1.142733 -8.90988,-2.180008 -1.3232,-1.077002 -2.82621,-2.175621 -3.34008,-2.441351 l -0.9343,-0.48315 -0.55839,1.324067 c -0.3071,0.728224 -1.07694,2.940212 -1.71073,4.915492 -1.0074,3.139676 -1.83369,4.862516 -4.37968,9.131679 -0.32278,0.54122 -0.50373,1.06718 -0.40212,1.1688 0.10164,0.10164 1.28061,-0.11751 2.62002,-0.48705 3.54111,-0.97682 7.8553,-0.94915 9.89486,0.0636 5.72159,2.84075 5.28422,11.624753 -0.8678,17.428243 -2.65699,2.50646 -5.51108,3.93157 -8.98454,4.4862 -2.68776,0.42917 -7.45963,0.24797 -9.27673,-0.35223 -1.44605,-0.47762 -3.42887,-2.14537 -4.42294,-3.72011 -0.41336,-0.65478 -0.92849,-1.19053 -1.14473,-1.19053 -0.21625,0 -1.98695,0.99505 -3.9349,2.21119 -7.37553,4.60481 -12.21513,6.80073 -21.92256,9.94724 -5.43273,1.76091 -6.46217,2.18016 -6.14134,2.50103 0.33874,0.33871 14.75198,3.34797 23.0998,4.82288 4.99399,0.88232 5.69374,0.8488 8.55645,-0.40985 3.58443,-1.57596 13.27031,-4.53859 14.87667,-4.55032 0.73003,-0.004 0.38264,1.16108 -1.31293,4.40833 -0.93447,1.78969 -1.69907,3.46435 -1.69907,3.7215 0,0.48301 1.14828,0.91958 5.00792,1.90402 2.11176,0.5386 3.18681,1.23907 2.36378,1.54012 -0.23152,0.0848 -3.30665,0.91819 -6.83359,1.85221 -3.52699,0.93402 -7.00237,1.99799 -7.72307,2.36435 -1.19571,0.60789 -7.01038,4.7859 -9.91695,7.12567 -1.82215,1.46682 -0.9245,1.59754 3.52681,0.51357 4.48362,-1.09184 8.47524,-1.42995 10.47469,-0.88725 0.86545,0.23491 1.83149,0.82682 2.59419,1.58955 l 1.21527,1.21524 -0.1967,2.77106 -0.1967,2.77103 h 1.52604 c 4.02905,0 6.98544,1.5604 7.63279,4.02863 0.73727,2.81095 0.32774,6.51816 -0.92507,8.37447 -0.36957,0.54756 -1.28687,1.35493 -2.03851,1.79418 -1.30112,0.76038 -1.57023,1.17936 -1.9927,3.10237 -0.26434,1.20331 -2.32515,3.10598 -4.36374,4.02894 -2.28627,1.0351 -6.00138,1.95332 -10.62322,2.62562 -5.17647,0.75299 -15.31199,0.50718 -18.56994,-0.45034 -2.4907,-0.73201 -7.60023,-3.29533 -10.06669,-5.05016 -0.83484,-0.59398 -2.33849,-1.53894 -3.34143,-2.09992 l -1.82358,-1.01998 0.21922,1.678 c 0.53685,4.1094 4.0005,20.47157 4.50704,21.29121 0.19071,0.30865 1.32959,-0.11023 4.83987,-1.77999 2.52474,-1.20102 4.97134,-2.27924 5.43692,-2.3961 0.77384,-0.19414 0.84651,-0.13719 0.84651,0.66469 0,0.48243 -0.30013,2.65794 -0.66696,4.83448 -0.42734,2.53571 -0.56011,4.06413 -0.36957,4.25469 0.1905,0.1905 1.12373,0.0777 2.5977,-0.31433 1.26518,-0.33645 2.4741,-0.61498 2.6865,-0.61899 1.14326,-0.0216 -0.13678,2.28344 -6.83815,12.31378 -2.22993,3.33764 -3.58798,5.66771 -3.58798,6.15604 0,1.4036 8.75976,34.56844 9.2668,35.08443 0.30229,0.30764 0.60298,0.13142 5.77964,-3.38823 6.47971,-4.40552 10.69382,-6.02578 18.47163,-7.10198 6.62866,-0.91722 15.29218,-0.15218 21.90595,1.93445 5.21811,1.64629 10.49695,4.89188 12.92785,7.9484 2.5721,3.23404 3.3564,6.5736 2.72279,11.59375 -0.64076,5.07699 -3.14697,7.2472 -11.65836,10.09529 -2.75144,0.92068 -3.87899,1.12228 -7.58381,1.35585 -6.16896,0.38898 -35.49947,0.58853 -45.96297,0.31274 z m 48.81954,-1.94882 c 3.4483,-0.57991 6.61505,-1.65566 9.96323,-3.38453 4.21365,-2.17578 5.32316,-4.36723 5.10395,-10.08122 -0.15282,-3.98341 -0.80037,-5.46414 -3.54498,-8.10598 -3.98824,-3.83894 -8.75097,-6.11931 -16.16586,-7.74015 -2.84246,-0.62133 -4.08434,-0.70821 -10.03997,-0.7023 -7.20769,0.006 -9.79942,0.35809 -14.69642,1.98997 -4.04023,1.34634 -10.31286,4.9943 -13.56996,7.89183 -0.42476,0.37788 -1.22872,0.91739 -1.78655,1.19892 l -1.01422,0.5119 -0.42337,-1.01725 c -0.59656,-1.43337 -2.81869,-9.06385 -5.71511,-19.62488 -1.36226,-4.96707 -2.91809,-10.56242 -3.4574,-12.4341 l -0.98055,-3.40307 h -0.99444 c -1.2872,0 -7.7721,1.12573 -9.0489,1.57086 -0.69535,0.24239 -0.98428,0.53829 -0.98421,1.00797 1.9e-4,1.24147 1.5322,14.21246 3.08866,26.15094 0.85284,6.54142 1.91996,14.95185 2.37139,18.6898 0.51802,4.28952 0.97674,6.96721 1.24369,7.25967 0.64961,0.71175 6.57661,0.84916 33.61052,0.77919 20.47073,-0.0531 24.53893,-0.13698 27.0405,-0.55757 z m -91.00235,-0.008 c 0.35464,-0.0666 0.70412,-0.48359 0.84873,-1.0127 0.95177,-3.48293 6.17194,-44.85874 6.48473,-51.39917 l 0.0957,-1.99886 -1.23568,-0.22261 c -2.20099,-0.3965 -8.63047,-0.62169 -9.06926,-0.31763 -0.49973,0.34629 -1.75883,5.38779 -4.35874,17.45249 -2.52684,11.7255 -4.3999,19.14657 -4.87012,19.29527 -0.20933,0.0661 -1.46048,-0.90702 -2.7803,-2.16273 -4.82654,-4.59208 -12.32741,-7.93492 -19.96086,-8.89575 -3.8094,-0.47948 -14.06529,-0.22362 -17.94475,0.44771 -3.52156,0.6094 -7.94793,1.87747 -9.81568,2.812 -3.44757,1.72503 -8.13345,6.1267 -9.69795,9.1097 -0.82942,1.58147 -0.88642,1.91618 -0.84104,4.94008 0.0897,5.9801 1.71265,8.38547 6.85363,10.15779 3.52713,1.21592 6.28176,1.6418 12.24522,1.89309 5.51674,0.23245 52.74208,0.14617 54.04647,-0.0986 z m 9.8339,-75.59018 c 0.44545,-4.25828 2.33578,-34.36407 2.18274,-34.76291 -0.083,-0.21632 -0.44774,-0.47095 -0.81052,-0.56582 -0.86783,-0.22694 -6.40289,0.14085 -6.40289,0.42549 0,0.12136 -0.88897,5.90432 -1.97549,12.85094 -2.76704,17.69091 -3.16261,20.74484 -2.74165,21.1658 0.53779,0.53779 8.19435,3.3618 8.88758,3.27806 0.53105,-0.0642 0.65189,-0.40013 0.86023,-2.39156 z m 14.76597,0.88302 c 1.67051,-0.8736 3.49055,-1.96676 4.04453,-2.42923 l 1.00724,-0.8409 -0.39847,-2.43627 c -1.06901,-6.53597 -4.1245,-21.03498 -4.76923,-22.63119 -0.40033,-0.99112 -1.62117,-3.20877 -2.71293,-4.92808 l -1.98504,-3.12602 -2.3721,-0.008 c -2.70063,-0.0107 -3.41606,0.39033 -3.18106,1.77957 2.61596,15.465 5.74874,32.74664 6.35392,35.05073 0.16737,0.63716 0.45539,1.15847 0.64005,1.15847 0.18472,0 1.70258,-0.71477 3.37309,-1.58837 z m 32.56567,-19.73633 c 9.35088,-0.87353 14.92826,-2.67748 16.71658,-5.40682 0.91222,-1.39221 0.30364,-1.48485 -4.70474,-0.71623 -5.35565,0.82189 -14.74115,0.97557 -19.42598,0.31808 -6.40652,-0.89911 -14.59656,-3.87362 -13.87598,-5.03956 0.27943,-0.45211 0.95791,-0.30534 3.07891,0.66612 3.13599,1.43631 7.52662,2.45329 13.00236,3.01166 4.31045,0.43956 5.73273,0.45766 10.50334,0.13377 7.17812,-0.48748 12.88865,-1.7806 15.23192,-3.44915 1.64415,-1.17075 2.43371,-5.48015 1.43987,-7.85878 -0.57202,-1.36902 -2.19166,-2.55971 -4.07227,-2.99383 -1.89885,-0.43831 -3.99054,0.0393 -8.39649,1.91731 -4.36835,1.862 -5.96288,2.3648 -9.6226,3.03429 -4.64697,0.8501 -8.33979,1.03796 -12.63532,0.64277 -4.14331,-0.38117 -6.27332,-0.88284 -6.48845,-1.52821 -0.11922,-0.35774 0.35809,-0.38197 2.91128,-0.14768 4.79627,0.44013 12.21003,0.2858 15.70224,-0.32686 3.44905,-0.60507 6.9744,-1.68127 9.28267,-2.83373 4.08741,-2.04078 5.67595,-5.97651 3.31957,-8.22444 -1.901,-1.8135 -3.76119,-1.8772 -10.66037,-0.36508 -9.77249,2.14187 -11.82979,2.56192 -13.5843,2.7737 -1.91737,0.23141 -4.55851,-0.0396 -4.55851,-0.46773 0,-0.33867 2.75527,-0.93343 4.32415,-0.93343 0.80453,0 1.91689,-0.3847 3.34982,-1.15848 2.71269,-1.46482 12.72954,-8.50935 12.45602,-8.75992 -0.11237,-0.10298 -1.53744,-0.34457 -3.1666,-0.53671 -4.90379,-0.57836 -5.8012,-0.20184 -19.45268,8.16079 -11.92542,7.3053 -15.98983,9.95295 -16.3704,10.6641 -1.33285,2.49042 2.72801,8.04261 9.29339,12.70635 4.54309,3.22717 10.04469,5.73587 14.97247,6.82728 1.21216,0.26847 8.08952,0.20269 11.4301,-0.10938 z m -63.17458,-1.21768 c 2.81896,-0.59999 6.3851,-1.85531 6.9061,-2.43102 0.48841,-0.53965 1.43478,-4.35518 1.43478,-5.78457 0,-0.94049 -0.35607,-0.94071 -2.66697,-0.002 -2.33452,0.9486 -5.96243,1.85591 -9.53545,2.38476 -4.13367,0.61183 -16.1773,0.52772 -19.92548,-0.13913 -3.296,-0.58642 -5.25168,-0.67075 -5.25168,-0.22646 0,0.70826 2.05546,2.5423 3.81073,3.40019 2.03641,0.99532 7.16188,2.26462 11.9443,2.95793 3.3596,0.48707 10.65656,0.39919 13.28367,-0.15989 z m -5.3327,-7.13795 c 3.77206,-0.42063 9.36464,-1.82327 11.41764,-2.86361 0.86743,-0.43955 1.8689,-1.17008 2.22547,-1.6234 0.82544,-1.04936 0.88648,-3.06307 0.10552,-3.48102 -0.29852,-0.15968 -4.50373,-0.35417 -9.34488,-0.43199 -10.09796,-0.16225 -12.75745,-0.56941 -17.91532,-2.74221 -5.85218,-2.46528 -7.66637,-3.04441 -9.53689,-3.04441 -2.3392,0 -4.25645,0.975 -5.20907,2.64901 -1.16109,2.04035 -0.79421,6.21432 0.69038,7.85477 1.24992,1.38115 5.71649,2.7943 11.18991,3.54029 3.74801,0.51083 12.39925,0.58613 16.37722,0.14255 z m 3.60082,-10.63123 c 0.18793,-0.33829 1.14105,-1.88015 2.11804,-3.42634 0.97694,-1.54622 1.77628,-3.10782 1.77628,-3.47024 0,-0.84355 -1.21828,-1.4819 -3.5886,-1.88033 -0.99965,-0.16802 -5.43193,-1.09027 -9.8495,-2.04943 -8.4079,-1.82551 -9.63902,-1.92161 -11.60357,-0.9057 -1.10346,0.57063 -2.14348,2.14556 -2.13553,3.23388 0.008,1.25875 1.04679,3.17527 2.32833,4.30047 3.08966,2.71276 11.38763,4.99443 17.71087,4.86988 2.54358,-0.05 2.94419,-0.13314 3.24368,-0.67219 z m 5.20118,-10.66964 c 0.777,-0.51467 1.58098,-1.13846 1.78658,-1.3862 0.79028,-0.95221 0.3619,-1.29316 -8.10699,-6.45218 l -3.9323,-2.39549 -4.25414,0.51435 c -2.33975,0.28285 -4.2897,0.54945 -4.33322,0.59243 -0.095,0.0938 10.08353,7.18518 11.76047,8.19346 1.59583,0.95951 3.90069,1.83738 4.87024,1.85497 0.43811,0.008 1.43233,-0.40665 2.20936,-0.92134 z m 41.1199,-2.51292 c 5.84223,-3.53096 11.32571,-7.09917 11.32571,-7.36984 0,-0.3514 -22.52283,-6.98159 -24.36059,-7.17118 -1.07833,-0.11131 -1.19821,0.55527 -1.2434,6.91271 -0.0389,5.49524 -0.0332,5.51641 1.54358,5.51641 0.95366,0 3.32996,1.33989 5.67954,3.20241 1.18935,0.94279 2.20944,1.72008 2.26686,1.72727 0.0574,0.006 2.21216,-1.2608 4.7883,-2.81778 z m -31.55632,-4.26982 c 0.45676,-0.49409 0.97873,-1.42709 1.15995,-2.0733 0.67563,-2.40939 1.66115,-7.51184 1.48493,-7.68806 -0.53209,-0.53206 -19.64998,4.61135 -20.15051,5.4212 -0.2042,0.33029 1.67261,1.64213 7.66259,5.35624 l 4.27106,2.64826 2.37076,-1.38298 c 1.30391,-0.76066 2.74446,-1.78726 3.20122,-2.28136 z m 14.49659,2.64349 c 0.9462,-0.39958 1.19988,-1.69329 1.23382,-6.29238 0.0192,-2.49814 0.12265,-5.37618 0.23168,-6.39562 0.19628,-1.83669 0.20676,-1.85289 1.13914,-1.78368 0.51754,0.0384 5.24404,1.25683 10.50337,2.70751 16.43055,4.53213 15.77088,4.38173 16.46471,3.75381 0.78364,-0.70916 2.6049,-4.13557 2.38627,-4.4893 -0.39271,-0.63543 -20.9258,-4.76843 -28.59624,-5.75603 -3.72694,-0.47986 -11.15581,-0.26567 -11.70281,0.33741 -0.4062,0.44784 -4.36115,15.39718 -4.36115,16.48472 0,0.84052 0.72983,1.29381 2.54282,1.57929 1.82743,0.28774 9.38872,0.17916 10.15839,-0.14575 z m -28.91963,-9.60404 c 5.46783,-1.45189 14.46724,-4.09042 16.29691,-4.7781 0.97767,-0.36747 1.91032,-0.91618 2.07257,-1.21936 0.36443,-0.6809 0.52145,-2.70339 0.23235,-2.99248 -0.30655,-0.30654 -4.43128,0.32061 -12.32427,1.87389 -8.75844,1.72359 -12.69782,2.60943 -13.01777,2.92731 -0.63528,0.63119 2.26494,5.40157 3.13432,5.15534 0.28417,-0.0805 1.90683,-0.51545 3.60589,-0.9666 z m 29.95748,-11.15807 c 2.83695,-0.53909 13.1773,-3.85386 18.38884,-5.89483 4.57817,-1.79292 9.65963,-4.33973 12.97475,-6.50285 3.74191,-2.44164 5.52418,-3.46968 6.01521,-3.46968 0.23507,0 0.94106,0.84556 1.56885,1.87901 1.97977,3.25902 4.16927,4.29944 9.04804,4.29944 4.65997,0 8.85414,-1.71092 12.11681,-4.94275 1.12009,-1.1095 2.33512,-2.67483 2.71541,-3.49826 3.10288,-6.718533 -0.20398,-12.110033 -7.07967,-11.542823 -2.69884,0.22262 -5.14896,1.11904 -8.27947,3.02914 -2.87541,1.75446 -4.55308,2.1709 -5.70498,1.41615 -1.67085,-1.09478 -5.394,-8.0072 -7.151,-13.276674 -0.57918,-1.737034 -1.53377,-5.501103 -2.12128,-8.364602 -1.42745,-6.957319 -2.11387,-7.604038 -2.52716,-2.380993 -0.80207,10.136397 -5.65732,19.505829 -12.44149,24.008889 -2.16509,1.43712 -4.30732,2.164393 -7.56947,2.569763 -3.68023,0.45731 -6.12221,0.0312 -9.30139,-1.622703 -5.98007,-3.11118 -10.5711,-9.439543 -13.13372,-18.103831 -1.1125,-3.761373 -1.17157,-5.246396 -0.28415,-7.142269 l 0.65073,-1.390162 0.27809,1.003993 c 0.15304,0.552199 0.43569,1.004014 0.62825,1.004014 0.52967,0 4.81785,-2.570288 17.87847,-10.7161 17.56167,-10.953126 17.99627,-11.211172 18.36532,-10.904882 0.18193,0.150898 0.72973,1.1093 1.21741,2.129645 0.48768,1.020368 1.0922,1.934057 1.34336,2.030439 0.25114,0.09632 1.25965,0.01712 2.24111,-0.17594 l 1.78446,-0.351088 0.33451,-1.920894 c 0.52705,-3.026554 0.46001,-3.536074 -0.51502,-3.913747 -2.68453,-1.039887 -57.09879,-1.171992 -66.34106,-0.16117 -5.99564,0.655793 -7.31635,0.974626 -8.26324,1.9948 -0.75226,0.810523 -2.39458,3.462446 -2.39458,3.86668 0,0.493681 0.93478,0.137413 1.48943,-0.56776 0.33412,-0.424761 0.77095,-0.772317 0.97076,-0.772317 0.53503,0 2.57654,1.442044 9.1244,6.445079 14.60287,11.157641 17.1521,13.017041 17.84643,13.017041 0.2703,0 0.53591,-0.301903 0.59018,-0.670884 0.0544,-0.368981 0.29424,-0.735353 0.53319,-0.814162 0.71864,-0.236983 0.20933,3.790268 -0.89718,7.093554 -1.30308,3.890202 -3.15291,7.267498 -5.31415,9.702218 -0.98545,1.110163 -1.79173,2.192703 -1.79173,2.405703 0,0.21296 0.62556,0.98346 1.39016,1.71215 1.44095,1.37332 1.70079,1.88705 0.95451,1.88705 -0.46826,0 -1.56864,-0.83475 -7.37072,-5.59139 -2.05182,-1.682143 -3.90206,-3.058433 -4.11164,-3.058433 -0.23679,0 -0.32028,0.26316 -0.22054,0.69507 0.44139,1.91115 2.07146,7.334133 3.04679,10.136163 0.69092,1.98496 0.98982,3.263773 0.80585,3.447743 -0.41646,0.41645 -1.16201,-0.75997 -1.91429,-3.020613 -0.94585,-2.84222 -1.00233,-2.88608 -4.16471,-3.23282 -2.24482,-0.24615 -3.27053,-0.5452 -5.32578,-1.55279 -5.83755,-2.86183 -9.58264,-8.081581 -11.18269,-15.585961 -0.80714,-3.7856 -0.92137,-4.170444 -1.23789,-4.170444 -0.82636,0 -3.27311,10.686735 -4.18389,18.274075 -0.40147,3.34441 -0.43283,4.49619 -0.15154,5.56061 1.08555,4.106683 6.63254,9.214803 16.07772,14.805693 6.92876,4.10136 14.63707,7.08503 25.11574,9.72162 7.88327,1.98354 10.28017,2.16592 15.47958,1.17787 z m -10.64983,-13.70479 c -0.93451,-0.3047 -2.78303,-0.65303 -4.10781,-0.77404 -2.62906,-0.24014 -3.02868,-0.72361 -0.96671,-1.16952 0.77065,-0.16675 1.83258,-0.12886 2.91206,0.10379 1.93945,0.41798 5.57011,1.72525 6.00818,2.16332 0.48943,0.48942 -1.99307,0.28052 -3.84572,-0.32361 z m 22.2424,-10.219773 c 7.04438,-1.61523 13.4881,-9.10279 16.12587,-18.738204 0.57382,-2.096063 0.65846,-3.253843 0.672,-9.194325 0.015,-6.558927 -0.015,-6.893384 -0.83487,-9.576578 -1.0683,-3.492838 -2.82397,-7.259691 -3.38361,-7.259691 -1.07593,0 -34.73001,20.907591 -35.51215,22.061903 -0.37841,0.558493 -0.26428,2.91472 0.23852,4.924204 0.26124,1.043975 1.33062,3.635817 2.37643,5.759658 1.72487,3.502893 2.16134,4.121223 4.69951,6.657663 2.9649,2.96291 5.24716,4.40641 8.23885,5.21095 1.9677,0.5292 5.42911,0.60163 7.37945,0.15433 z m -2.04921,-6.97551 c -1.05613,-0.2216 -2.99993,-2.075 -3.88152,-3.701003 -1.41197,-2.60425 -1.87537,-5.067949 -1.70589,-9.06958 0.1721,-4.064686 0.85017,-6.403963 2.51449,-8.675537 1.81799,-2.48129 4.70657,-3.134623 6.913,-1.563512 2.9063,2.069478 4.71737,8.077212 4.04756,13.426797 -0.79231,6.327872 -4.12182,10.372955 -7.88764,9.582835 z m -42.31445,1.34795 c 0.78879,-0.57678 0.39931,-2.23999 -1.04496,-4.462673 -3.25123,-5.00355 -3.51945,-12.00603 -0.67352,-17.584486 0.74422,-1.458805 2.81213,-3.406945 3.90849,-3.682114 2.2692,-0.569537 4.90283,1.219167 6.37686,4.330994 1.25275,2.644645 1.60071,4.749719 1.43177,8.661689 -0.15624,3.61634 -0.78047,5.856707 -2.22527,7.985757 -0.53011,0.78117 -0.6357,1.165703 -0.38808,1.413323 0.6495,0.6495 1.43119,0.33187 2.96974,-1.206673 2.72748,-2.72749 5.19202,-7.666663 5.724,-11.471506 l 0.20057,-1.433763 -6.3802,-4.899139 c -3.50914,-2.694515 -9.30283,-7.158129 -12.87489,-9.919125 -3.57207,-2.760975 -6.55276,-5.019986 -6.62375,-5.019986 -0.071,0 -0.53628,0.210614 -1.03395,0.46791 -2.01159,1.040252 -5.31428,6.823372 -6.36761,11.149915 -0.77367,3.177837 -0.69824,8.279395 0.16845,11.396894 1.0643,3.828067 2.89789,7.00979 5.61384,9.74139 2.51855,2.533063 4.20953,3.529823 7.39031,4.356293 2.50535,0.65096 3.13809,0.67994 3.82822,0.1753 z m 63.99992,-25.671696 c 0.2787,-1.110414 0.04,-2.193879 -0.48309,-2.193879 -0.48299,0 -0.81351,1.670361 -0.49486,2.500789 0.2585,0.673646 0.77232,0.512388 0.97795,-0.30691 z m 58.50267,-2.437327 c -0.075,-0.05694 -0.85338,-0.619065 -1.73008,-1.248939 -4.74283,-3.407459 -9.33152,-10.421796 -11.84916,-18.112754 -1.36606,-4.173055 -2.0762,-8.060603 -2.43792,-13.346019 -0.42049,-6.143691 0.16524,-8.888186 1.99456,-9.347342 1.16264,-0.2918 2.01868,0.370052 3.86939,2.991581 4.32191,6.12203 7.04793,14.485349 5.74103,17.61323 -0.79199,1.895443 -2.47934,2.097753 -3.71317,0.445179 -0.47415,-0.635054 -0.64484,-1.59641 -0.84458,-4.756439 -0.13762,-2.178276 -0.25684,-3.995253 -0.26483,-4.037741 -0.008,-0.04238 -0.13784,-0.07726 -0.28846,-0.07726 -0.48465,0 -1.03805,3.882776 -0.80005,5.613238 0.60499,4.398803 2.28324,6.291036 4.93552,5.564802 2.70001,-0.739292 3.24407,-5.271247 1.34186,-11.17804 -1.57654,-4.895415 -5.60599,-11.648988 -7.75517,-12.998035 -1.16122,-0.728909 -3.36195,-0.620926 -4.28014,0.209974 -1.87152,1.69369 -1.53379,12.805462 0.63959,21.043911 2.59128,9.822572 6.95892,17.005338 12.98861,21.360304 1.46142,1.055512 1.76132,1.166791 2.14408,0.795561 0.24475,-0.237368 0.38375,-0.478248 0.30892,-0.53529 z M 281.378,62.568086 c 0.17337,-0.455711 0.27408,-1.601226 0.22404,-2.545609 -0.10746,-2.027656 -0.70081,-2.376989 -1.93727,-1.140529 -0.56155,0.561553 -0.77953,1.109772 -0.77953,1.960533 0,2.236303 1.81968,3.495965 2.49276,1.725605 z M 192.73352,48.930461 c 8.31388,-5.440574 18.49774,-16.106203 18.49774,-19.372846 0,-0.753182 -0.24455,-1.219915 -0.95046,-1.813895 -0.52277,-0.439871 -1.07251,-0.799757 -1.22165,-0.799757 -0.14918,0 -1.15168,0.319603 -2.22786,0.710224 -2.95668,1.073236 -7.16152,3.969355 -10.12303,6.972343 -3.0053,3.047403 -3.94968,4.741844 -3.50743,6.293134 0.36367,1.275736 1.45208,1.465782 3.29151,0.574738 1.31022,-0.63469 3.61773,-2.647406 3.61773,-3.155557 0,-0.692973 -0.9862,-0.225747 -3.68597,1.746302 -1.25129,0.914011 -1.68528,0.852411 -1.81699,-0.257917 -0.079,-0.665705 0.40095,-1.332478 2.60414,-3.617944 3.03722,-3.150612 5.84294,-5.334324 8.68228,-6.757428 3.4629,-1.735619 4.69692,-1.042647 3.26395,1.832903 -1.47958,2.969192 -11.19889,12.455466 -17.05726,16.648342 -1.99688,1.429181 -2.88279,2.488952 -2.08064,2.488952 0.23904,0 1.46031,-0.671226 2.71394,-1.491594 z"
       id="path428" />
  </g>
</svg>
