<?xml version="1.0" encoding="UTF-8" standalone="no"?>
<!-- Created with Inkscape (http://www.inkscape.org/) -->

<svg
   width="300mm"
   height="300mm"
   viewBox="0 0 299.99999 299.99999"
   version="1.1"
   id="svg978"
   inkscape:version="1.2.2 (732a01da63, 2022-12-09)"
   sodipodi:docname="dee_dee_dexter.svg"
   xmlns:inkscape="http://www.inkscape.org/namespaces/inkscape"
   xmlns:sodipodi="http://sodipodi.sourceforge.net/DTD/sodipodi-0.dtd"
   xmlns="http://www.w3.org/2000/svg"
   xmlns:svg="http://www.w3.org/2000/svg">
  <sodipodi:namedview
     id="namedview980"
     pagecolor="#505050"
     bordercolor="#eeeeee"
     borderopacity="1"
     inkscape:showpageshadow="0"
     inkscape:pageopacity="0"
     inkscape:pagecheckerboard="0"
     inkscape:deskcolor="#505050"
     inkscape:document-units="mm"
     showgrid="false"
     inkscape:zoom="0.18462928"
     inkscape:cx="311.43489"
     inkscape:cy="904.51526"
     inkscape:window-width="1920"
     inkscape:window-height="1009"
     inkscape:window-x="-8"
     inkscape:window-y="-8"
     inkscape:window-maximized="1"
     inkscape:current-layer="layer1" />
  <defs
     id="defs975">
    <clipPath
       clipPathUnits="userSpaceOnUse"
       id="clipPath1950">
      <path
         style="fill:#000000;stroke:none;stroke-width:0.2;stroke-linejoin:round;paint-order:stroke fill markers;stop-color:#000000"
         d="m 50.467009,101.99455 -2.406637,-7.758233 6.36492,5.224936 2.913298,-9.626547 -5.984925,-6.428253 -8.771559,1.86831 -1.393316,13.489831 7.061579,6.143256"
         id="path1952" />
    </clipPath>
  </defs>
  <g
     inkscape:label="Layer 1"
     inkscape:groupmode="layer"
     id="layer1"
     transform="translate(-97.523636,8.3968611)">
    <path
       d="m 345.92934,266.01299 c -0.0948,-0.0948 -4.76308,-0.23625 -10.37384,-0.31421 -5.61074,-0.0779 -11.39768,-0.2283 -12.85985,-0.33412 l -2.65847,-0.19239 2.37414,-0.9012 c 1.30576,-0.49567 2.9707,-0.99525 3.69985,-1.11016 2.13619,-0.33666 7.08972,-2.73778 8.29512,-4.02087 l 1.1114,-1.18304 -4.14616,-4.14615 -4.14617,-4.14616 -3.60832,-0.15429 c -7.13909,-0.30511 -10.72546,-0.85155 -11.00386,-1.6766 -0.28711,-0.85083 -3.06434,-7.46878 -6.08915,-14.51002 -1.85545,-4.31913 -2.11727,-4.6589 -6.48779,-8.41869 -7.0631,-6.07608 -10.98878,-11.28205 -12.31637,-16.33307 -0.64947,-2.47104 0.29218,-7.72268 1.99666,-11.13556 0.83952,-1.68101 0.97094,-2.38086 0.56818,-3.02579 -0.28818,-0.46144 -0.66832,-1.49631 -0.84479,-2.29967 -0.54083,-2.46246 -0.51119,-9.31508 0.0434,-10.00649 0.28651,-0.35726 0.67987,-1.19626 0.8741,-1.86443 0.43792,-1.50654 3.52859,-7.23152 4.52537,-8.38254 1.15653,-1.33551 1.83029,-1.04899 4.75378,2.02154 1.50393,1.57958 3.12758,2.97476 3.60808,3.10043 0.59531,0.15575 1.71611,-0.64314 3.51818,-2.5075 2.20714,-2.28347 4.74196,-5.83523 4.74196,-6.6444 0,-0.1146 -0.8709,-0.78463 -1.93533,-1.48904 -3.37305,-2.23218 -5.8398,-8.75543 -4.56605,-12.07478 0.43677,-1.13822 2.77421,-2.20853 4.82314,-2.20853 4.44032,0 10.71153,2.82956 20.6301,9.30825 3.34087,2.18221 7.27702,4.66836 8.74701,5.52476 2.54471,1.48256 7.70241,4.5394 12.78835,7.57933 2.85831,1.70846 4.15777,1.74703 7.06963,0.20988 1.23888,-0.654 3.01789,-1.39565 3.95333,-1.64809 0.93544,-0.25248 2.08348,-0.61549 2.5512,-0.8067 0.50716,-0.20732 0.85041,-0.13058 0.85041,0.19027 0,0.29588 -0.25613,0.53794 -0.56916,0.53794 -0.31305,0 -0.91441,0.29992 -1.33635,0.66649 -0.42196,0.36658 -1.92865,1.04462 -3.3482,1.50679 -1.41958,0.46218 -3.16899,1.35121 -3.88758,1.97565 -1.16505,1.01238 -1.22742,1.21585 -0.57604,1.87902 0.65554,0.6674 1.12667,0.64472 4.5908,-0.22094 2.12316,-0.53057 4.08647,-0.88929 4.36291,-0.79715 0.62951,0.20984 -3.94298,1.79338 -5.17842,1.79338 -1.45027,0 -3.71005,1.37377 -3.79194,2.30521 -0.24754,2.81514 -0.0261,5.5637 0.49928,6.19672 0.38214,0.46043 1.44967,0.73102 2.88405,0.73102 2.81794,0 3.69098,0.62907 4.63704,3.34121 1.46941,4.21255 0.71336,7.47641 -2.05344,8.86461 -2.80216,1.40593 -3.15781,1.90277 -2.82987,3.95354 0.63559,3.97482 5.79203,21.06175 6.61938,21.93475 0.84042,0.88679 1.02547,0.89108 5.23203,0.1214 7.20682,-1.31851 7.49215,-1.15119 4.82888,2.83154 -3.75236,5.61138 -4.30527,6.58214 -4.01586,7.05045 0.16824,0.27228 1.51412,1.0666 2.99074,1.76516 3.2491,1.53705 4.54385,3.40609 4.5464,6.56285 0.003,2.32625 -0.85804,3.87343 -3.39979,6.11685 l -1.21486,1.07228 1.0207,1.84434 c 1.49316,2.69813 5.69698,5.29956 11.97193,7.40857 2.98379,1.00285 5.49906,2.04526 5.58946,2.31647 0.0903,0.27123 -0.71257,0.63336 -1.78439,0.80474 -2.40913,0.38524 -19.71104,0.37937 -23.35796,-0.008 -2.41827,-0.25681 -2.79948,-0.46362 -4.00444,-2.17243 -1.425,-2.02087 -2.31259,-2.33107 -3.29231,-1.15055 -0.49935,0.60165 -0.46544,0.90054 0.18348,1.61757 1.58494,1.75136 1.03077,2.01789 -4.19572,2.01789 -4.86428,0 -5.03832,-0.0384 -6.81782,-1.50524 -1.48818,-1.22669 -1.95831,-1.39552 -2.54045,-0.91239 -0.39287,0.32607 -0.71433,1.08936 -0.71433,1.69622 0,0.95914 -1.04265,1.94649 -1.5353,1.45386 z m 4.21864,-17.75776 c 0.17098,-0.27675 -0.6663,-3.5022 -1.86072,-7.16769 -1.19445,-3.66549 -2.87007,-8.90407 -3.72362,-11.64132 -0.85354,-2.73723 -1.75225,-5.1006 -1.99711,-5.25195 -0.24488,-0.15134 -2.03109,0.9469 -3.96937,2.44051 -13.83939,10.66454 -16.19737,12.40471 -16.80873,12.40471 -0.85954,0 -5.34096,-2.26393 -9.58385,-4.84157 -3.35255,-2.03676 -4.38285,-2.38965 -3.95376,-1.35421 0.13849,0.33407 1.01231,2.46616 1.9419,4.73794 2.97962,7.28172 4.16463,9.72637 4.81101,9.92501 3.48201,1.07005 34.53674,1.73152 35.14425,0.74857 z m 3.62669,-7.15047 c 1.33263,-0.735 2.42612,-1.56905 2.42997,-1.85348 0.003,-0.28439 -1.41439,-1.59077 -3.15165,-2.90303 -1.73724,-1.31225 -3.15864,-2.74391 -3.15864,-3.18143 0,-0.57896 1.07083,-1.10042 3.93378,-1.91559 2.16358,-0.61605 4.02979,-1.37035 4.14716,-1.67618 0.11735,-0.30586 -0.30521,-3.22081 -0.93903,-6.47768 -0.63382,-3.25686 -1.0422,-6.03177 -0.90751,-6.16647 1.11317,-1.11317 2.40939,2.70891 3.26384,9.62382 0.16327,1.32181 0.58179,2.449 0.96358,2.59551 0.91617,0.35157 4.11654,-0.7459 4.11654,-1.41166 0,-0.29413 -0.76632,-3.06527 -1.70294,-6.15812 -0.93663,-3.09285 -2.04119,-6.77139 -2.45456,-8.17457 -0.4681,-1.58889 -1.02272,-2.55121 -1.47033,-2.55121 -0.3953,0 -2.08169,1.14805 -3.74754,2.55121 -1.66586,1.40318 -4.71206,3.86327 -6.76931,5.4669 -4.10004,3.19592 -4.50401,3.74788 -3.76024,5.13763 0.46737,0.87326 0.58102,0.88445 1.67865,0.16529 1.11224,-0.72876 1.2438,-0.70498 2.37887,0.43009 1.31872,1.31873 2.42315,4.64647 1.9507,5.87766 -0.17963,0.46829 -0.86255,0.78096 -1.70554,0.78096 -1.01342,0 -1.40693,0.23737 -1.40979,0.8504 -0.005,1.29299 3.05713,10.32634 3.50158,10.32634 0.21417,0 1.47977,-0.60135 2.81241,-1.33636 z m -26.70169,-7.28917 c 2.27672,-1.80407 4.82873,-3.82682 5.67116,-4.49499 0.84242,-0.66817 5.3192,-4.27322 9.94839,-8.01122 4.62918,-3.73799 8.74471,-7.05962 9.14562,-7.38135 3.84978,-3.08976 6.80322,-5.73403 6.80322,-6.09107 0,-0.23926 -0.34903,-1.96965 -0.77566,-3.84532 -0.42662,-1.87568 -0.6398,-3.54618 -0.47372,-3.71224 0.16603,-0.16604 1.04931,-0.0318 1.9628,0.29866 2.10448,0.76098 3.43391,0.0429 4.19618,-2.26696 0.60289,-1.82676 -0.0204,-5.16953 -1.33926,-7.18229 -1.47729,-2.25463 -4.20199,-1.04868 -4.84017,2.14225 -0.3129,1.56451 -1.46401,2.10077 -1.92587,0.89722 -0.32181,-0.83865 -6.66212,-5.66707 -7.44154,-5.66707 -0.32612,0 -1.10331,1.14805 -1.72703,2.55121 -2.52589,5.68244 -8.41387,10.83499 -14.54953,12.73229 -3.29893,1.02012 -8.35019,0.81851 -11.97986,-0.4781 -2.00976,-0.71797 -2.38238,-0.712 -5.08437,0.0815 -3.67948,1.08054 -11.89232,5.2669 -14.76378,7.52559 -2.57614,2.0264 -2.66988,0.29864 -0.29407,-5.41996 0.93898,-2.26016 1.60188,-4.384 1.47307,-4.71963 -0.12874,-0.33564 -0.9517,-0.61544 -1.82874,-0.62178 -0.87701,-0.005 -2.88837,-0.54341 -4.46969,-1.19352 -1.58133,-0.65007 -3.0517,-1.07283 -3.2675,-0.93947 -0.74576,0.4609 -1.87547,5.24615 -1.87509,7.94257 4.8e-4,3.32675 1.82036,7.44726 4.84542,10.97083 2.74213,3.19399 10.21644,9.99273 13.7911,12.54456 4.82562,3.44487 12.15799,7.59492 13.44004,7.60695 0.78375,0.008 2.69832,-1.16044 5.35888,-3.26869 z m -20.63419,-19.5002 c -0.1451,-0.23478 -1.08737,-0.82605 -2.09395,-1.31393 -1.25369,-0.60768 -1.57384,-0.94141 -1.01647,-1.05954 0.83322,-0.17651 4.27192,1.77919 4.28275,2.43586 0.008,0.5043 -0.85035,0.45859 -1.17233,-0.0625 z m -0.52993,-8.29577 c 3.0598,-1.59022 6.44528,-3.15555 7.52333,-3.47855 1.07803,-0.32297 1.96007,-0.65938 1.96007,-0.74754 0,-0.59518 -7.53473,-7.46098 -8.1879,-7.46098 -0.4487,0 -2.01235,-0.43736 -3.47478,-0.9719 -4.62336,-1.68989 -4.82321,-1.34354 -1.89763,3.28881 l 1.98994,3.15084 -0.94271,1.27517 c -0.51848,0.70135 -1.23994,2.14986 -1.60319,3.21895 -0.36327,1.06909 -0.83452,2.15152 -1.04723,2.40541 -0.42831,0.5113 -0.53204,2.21106 -0.135,2.21106 0.13848,0 2.75526,-1.30106 5.81505,-2.89127 z m 26.17691,-7.69986 c 4.83375,-2.27039 10.51941,-8.74646 10.51941,-11.98181 0,-1.05976 -0.76741,-0.97665 -10.68811,1.15741 -5.25886,1.13126 -6.70248,1.62158 -7.28917,2.47586 -1.58314,2.30511 -3.09578,3.35943 -5.63502,3.9277 -1.44581,0.32356 -2.62874,0.73405 -2.62874,0.91219 0,1.09634 4.15393,3.79581 7.15385,4.64897 2.97979,0.84747 4.87181,0.59565 8.56778,-1.14032 z m -33.21566,-3.63611 c 0,-0.34143 -0.35331,-1.12523 -0.78513,-1.74178 -1.22777,-1.75285 -0.28363,-2.27267 2.82303,-1.55425 6.2276,1.44016 7.11521,0.50719 3.63684,-3.82266 -1.97669,-2.46055 -2.26962,-2.64341 -4.37691,-2.73221 -1.59944,-0.0674 -2.75696,-0.47541 -3.96691,-1.39827 l -1.70848,-1.30313 -0.53889,1.36264 c -1.46595,3.70687 -0.95385,7.61884 1.35683,10.36496 1.24011,1.47378 3.55962,2.01117 3.55962,0.8247 z m 55.47237,-10.95579 c -0.0869,-1.7846 -0.33759,-3.43207 -0.55696,-3.66105 -0.6201,-0.64723 -5.349,0.15502 -5.349,0.90734 0,0.35355 0.16438,0.71573 0.36544,0.80481 0.20097,0.0891 1.43481,1.42469 2.74185,2.96802 1.30703,1.54331 2.50699,2.67544 2.66659,2.51583 0.15962,-0.15959 0.21905,-1.75033 0.13207,-3.53495 z m -40.1809,-0.20759 c 1.66668,-2.18445 2.68851,-2.88348 2.68851,-1.83922 0,0.25798 -0.68852,1.25325 -1.53008,2.21171 -0.8765,0.99828 -1.34355,1.91565 -1.09338,2.14762 0.40178,0.37258 5.55711,-0.57295 22.30423,-4.09077 3.47451,-0.72984 6.40326,-1.4079 6.50833,-1.50678 0.20762,-0.19543 0.0216,-0.25603 -3.59266,-1.17124 -7.28835,-1.84549 -10.56312,-2.93684 -13.61844,-4.53848 -3.01726,-1.58169 -8.98279,-3.89991 -11.65069,-4.52748 -0.73825,-0.17374 -1.84814,0.74218 -4.61679,3.80957 -5.5264,6.12271 -5.23262,5.27495 -2.91519,8.41192 1.10892,1.50109 2.27323,2.6455 2.58736,2.54313 0.31411,-0.10231 0.76959,-1.6459 1.01218,-3.43004 0.24259,-1.78411 0.62527,-3.24385 0.8504,-3.24385 0.48752,0 0.48952,-0.1405 -0.058,4.11119 -0.23957,1.86024 -0.32717,3.55768 -0.19466,3.77208 0.39369,0.63702 1.44913,-0.20865 3.31895,-2.65936 z m 35.33625,-6.19581 c 1.15074,0 1.79217,-0.19343 1.61139,-0.48594 -0.16512,-0.26726 -0.698,-0.48595 -1.18403,-0.48595 -0.48605,0 -1.15218,-0.32348 -1.4803,-0.71882 -0.32811,-0.39536 -1.28427,-1.0799 -2.12478,-1.52117 -3.73254,-1.95966 -5.12375,-2.75618 -8.08843,-4.63097 -1.73726,-1.09858 -3.92402,-2.4333 -4.85945,-2.96605 -0.93544,-0.53273 -2.89707,-1.76281 -4.35918,-2.7335 -3.24117,-2.15178 -5.16043,-3.21094 -11.43404,-6.30995 -8.0993,-4.00084 -10.44783,-4.21761 -10.44783,-0.96443 0,2.19572 1.81136,5.2381 4.94308,8.30249 3.12612,3.05893 4.11719,3.40966 4.5673,1.6163 0.53702,-2.13961 1.8378,-2.8549 4.75232,-2.6132 2.051,0.17008 3.0803,0.57428 4.67122,1.83431 2.60756,2.06521 3.19467,3.52115 2.21326,5.48843 -0.94984,1.90399 -1.00573,1.75244 0.94771,2.56867 2.07743,0.868 2.23606,0.87138 1.91739,0.041 -0.38206,-0.99563 2.54707,-3.22437 4.23761,-3.22437 2.67895,0 5.66597,1.05421 7.17933,2.53378 1.592,1.55648 1.76878,2.12405 1.02703,3.29744 -0.59204,0.93654 0.66152,1.5143 2.6016,1.19903 0.7684,-0.12488 2.25737,-0.22701 3.3088,-0.22701 z m -10.17236,-2.50221 c -0.24683,-0.24682 -1.2543,-0.57948 -2.23887,-0.73924 -1.4979,-0.24308 -1.7421,-0.1653 -1.49602,0.47589 0.1618,0.4215 0.98617,0.83876 1.83204,0.92723 1.83105,0.19151 2.51841,-0.0483 1.90285,-0.66388 z M 324.88134,170.014 c 0.65977,-1.06751 -2.88179,-3.61576 -4.54078,-3.2672 -0.65388,0.13738 -0.4623,0.5328 0.95592,1.97312 1.77622,1.80385 2.99736,2.24467 3.58486,1.29408 z"
       style="display:inline;fill:#000000;stroke-width:0.485945"
       id="path2016"
       inkscape:label="Dexter" />
    <path
       style="display:inline;fill:#000000;stroke-width:0.399995"
       d="m 215.57784,279.82304 c -0.79117,-0.28279 -2.14609,-1.08282 -3.01093,-1.77782 l -1.57248,-1.2637 -2.17777,0.8275 c -2.65384,1.00839 -5.05082,0.77391 -6.756,-0.66092 -1.31966,-1.1104 -1.74105,-1.16071 -4.20374,-0.50207 -2.27428,0.60828 -4.00618,0.11535 -7.471,-2.12687 l -2.56925,-1.66258 -2.22407,0.45788 c -3.41345,0.70281 -3.93473,0.59772 -5.86589,-1.18236 -1.90858,-1.7593 -1.84577,-1.7513 -5.75445,-0.73153 -1.7004,0.44364 -2.01293,0.40007 -3.99994,-0.55782 -1.18548,-0.57148 -2.84335,-1.62804 -3.68415,-2.34789 -1.49392,-1.27902 -1.60471,-1.30627 -4.86353,-1.19591 -3.25271,0.11004 -3.37082,0.0814 -4.79662,-1.17051 -1.03267,-0.90671 -2.07082,-1.37875 -3.53635,-1.60799 -1.3533,-0.21184 -2.31794,-0.62216 -2.77457,-1.18057 -1.6498,-2.01753 -0.24447,-8.55444 2.51238,-11.68639 1.85337,-2.10553 3.56315,-3.09474 11.83423,-6.8467 3.27426,-1.48527 6.10659,-2.84796 6.2941,-3.0282 0.18764,-0.18009 -0.12745,-1.01706 -0.69998,-1.85961 -1.33628,-1.96649 -1.31158,-2.29961 0.25905,-3.49426 1.39581,-1.06166 3.23776,-1.84698 10.03297,-4.27758 6.72605,-2.40588 8.45171,-3.81068 5.96682,-4.85737 -1.74928,-0.73685 -11.40257,-0.59266 -14.45009,0.2159 -3.15318,0.83652 -7.79083,3.23523 -9.43628,4.88066 -0.67871,0.6787 -1.93155,2.57334 -2.78407,4.21029 -2.81628,5.4076 -3.77172,6.22089 -8.42913,7.17559 -3.45067,0.70731 -4.37678,1.28274 -8.44601,5.24781 -3.56288,3.47166 -3.68995,3.55271 -5.56832,3.55271 -1.32289,0 -2.69225,-0.37511 -4.39166,-1.20301 l -2.46941,-1.20301 -4.16213,1.20054 c -4.75349,1.37112 -5.80404,1.44941 -7.86946,0.58641 -3.02675,-1.26465 -4.80348,-3.93961 -7.17616,-10.80393 l -1.51286,-4.37681 0.003,-8.19989 c 0.003,-8.88559 0.28179,-10.77557 2.22733,-15.11207 0.93901,-2.09296 1.38067,-2.6195 2.64661,-3.15504 2.07921,-0.87961 3.67496,-0.79523 11.31941,0.59853 11.17434,2.03737 9.95294,2.06585 12.55741,-0.29279 2.01667,-1.82631 2.44133,-2.03837 4.08123,-2.03837 1.69603,0 2.01682,0.17919 4.37052,2.43914 1.39705,1.34152 2.70021,2.34023 2.89586,2.2193 0.6122,-0.37836 1.80743,-3.38765 1.58046,-3.97919 -0.11888,-0.31004 -1.19393,-1.11542 -2.3888,-1.78977 -3.85759,-2.17711 -5.61923,-5.26497 -4.51349,-7.91141 0.69205,-1.65628 1.63259,-2.1556 4.94382,-2.62451 2.58305,-0.36582 4.47265,-1.19004 4.47265,-1.95096 0,-0.20847 -0.5346,-1.14931 -1.18801,-2.09073 -1.48711,-2.14263 -2.22175,-4.86791 -1.84849,-6.8575 0.5889,-3.13909 4.87056,-3.40501 9.99815,-0.62103 1.56103,0.84754 4.33358,2.29422 6.16125,3.21487 8.15544,4.10801 12.04699,1.1068 7.38624,-5.69643 -1.74411,-2.54615 -2.90917,-4.98074 -2.90917,-6.07969 0,-1.18358 1.5927,-3.589 3.31269,-5.00306 0.70799,-0.58205 2.16675,-1.88475 3.24171,-2.8949 l 1.95447,-1.83663 -0.89475,-2.89105 c -1.1334,-3.66213 -0.9019,-5.13482 1.08098,-6.87581 0.80874,-0.71006 2.82814,-1.90561 4.48757,-2.65675 3.52913,-1.59746 5.85256,-3.11023 6.21561,-4.04692 0.14217,-0.36645 0.40897,-2.01629 0.5932,-3.66624 0.3131,-2.80373 0.43553,-3.08809 1.87161,-4.34691 0.95931,-0.84085 3.32796,-2.04308 6.30458,-3.19994 2.62238,-1.01919 4.8388,-2.06751 4.92545,-2.3296 0.0866,-0.26206 -0.37214,-0.75039 -1.01952,-1.08517 -0.64738,-0.33476 -1.28822,-0.89841 -1.42411,-1.25253 -0.35358,-0.92142 1.19935,-4.29152 2.59253,-5.6263 1.03941,-0.99584 1.53763,-1.15054 4.07092,-1.2643 3.91004,-0.17537 4.68654,-0.37789 4.68654,-1.22146 0,-1.14756 -2.79486,-3.54396 -5.59992,-4.80154 -1.42998,-0.64111 -4.48995,-1.65284 -6.79993,-2.24835 -7.18911,-1.8533 -12.46903,-3.47715 -15.93211,-4.89992 l -3.33226,-1.36908 -2.87757,0.85425 -2.87754,0.85426 -3.35539,-0.8567 c -4.40619,-1.125 -5.9981,-1.98132 -7.98001,-4.29255 -3.52235,-4.1077 -3.69082,-6.81566 -0.62768,-10.090389 l 1.75248,-1.873532 -2.9121,-2.892643 -2.91207,-2.892645 -6.77253,0.251742 c -6.09397,0.226498 -7.0932,0.167484 -9.97253,-0.588518 -7.31058,-1.919585 -11.40585,-4.899957 -14.03069,-10.210979 -1.41882,-2.870816 -1.46281,-3.09881 -1.745,-9.043409 -0.28139,-5.927833 -0.31893,-6.123675 -1.34274,-7.004302 -2.29886,-1.977406 -6.41671,-2.122322 -11.04594,-0.388736 -0.97055,0.363468 -2.23055,0.606708 -2.79996,0.540528 -0.87224,-0.101372 -1.02753,-0.310849 -0.98608,-1.330194 0.1084,-2.670852 6.88264,-11.88671 11.84462,-16.114118 2.987,-2.544827 9.34077,-6.875715 10.08721,-6.875715 0.2909,0 1.68829,-0.542559 3.10535,-1.205679 4.02913,-1.88546 9.79598,-3.194276 14.07448,-3.194276 4.22259,0 12.16006,1.73865 15.37504,3.367811 3.05227,1.546699 7.54063,5.353349 9.68049,8.210141 2.7433,3.662428 3.79427,5.733012 4.78344,9.424247 0.47127,1.758568 1.30304,3.782416 1.84844,4.497439 0.98517,1.291633 1.01408,1.300024 4.47118,1.297008 1.91379,-0.0017 4.92252,-0.168977 6.68608,-0.371816 1.76355,-0.202837 7.70348,-0.56422 13.19985,-0.80309 20.74425,-0.901536 25.56774,-1.235752 26.14925,-1.811848 0.47466,-0.470257 0.45895,-0.937425 -0.10744,-3.191834 -1.54429,-6.147747 -1.23239,-10.025964 1.2054,-14.988595 1.01528,-2.066884 2.26838,-3.77028 4.11948,-5.599935 5.17289,-5.112909 9.30979,-6.740792 18.02607,-7.093263 9.51863,-0.384911 13.89559,1.194607 21.61176,7.799089 7.4748,6.39791 11.41232,10.990986 12.15033,14.173256 0.37343,1.610191 -0.56656,1.775482 -3.27668,0.576179 -1.25717,-0.556332 -3.29145,-1.214711 -4.52064,-1.46308 -2.90839,-0.587647 -4.19909,-0.116697 -5.01189,1.828521 -0.56599,1.354627 -0.53313,1.83596 0.47435,6.946135 l 1.08249,5.490651 -1.42191,2.956289 c -0.78208,1.625955 -2.3368,4.001751 -3.45497,5.279533 -1.11817,1.277792 -2.03191,2.627778 -2.03052,2.999972 10e-4,0.372192 1.35394,2.476697 3.00566,4.676668 5.33911,7.111271 7.3917,11.999653 7.3917,17.60379 0,2.967587 -0.10962,3.424347 -1.22698,5.111207 -1.7554,2.65018 -7.11706,7.55672 -9.63018,8.8127 -1.17848,0.589 -4.39267,1.95792 -7.14263,3.04211 -2.74997,1.08419 -7.87991,3.17112 -11.39985,4.6377 -3.51996,1.46654 -8.98514,3.72444 -12.14486,5.01757 -3.1597,1.29308 -6.52892,2.81053 -7.48714,3.37211 -2.0563,1.20506 -4.32862,4.26509 -3.98087,5.36081 0.12975,0.40876 1.22077,1.39713 2.4245,2.19635 1.20372,0.79921 2.1886,1.63764 2.1886,1.86313 0,0.4986 -0.96778,2.06974 -2.51429,4.0818 l -1.15291,1.49998 h -3.1356 -3.13567 l -1.78964,2.7 c -0.9843,1.48495 -2.37884,3.89884 -3.09889,5.36412 l -1.30924,2.66418 3.16819,3.08323 c 4.03606,3.44747 2.82401,2.93001 2.44955,2.66571 -1.54717,-1.09203 -3.16629,0.75245 -4.44274,5.0951 -0.85639,2.9136 -0.87123,8.36314 -0.0237,8.68835 1.45288,0.55755 3.69133,-2.55001 4.62841,-7.66095 1.2094,-6.59608 1.27809,-2.77398 0.21174,2.82784 -0.87817,4.20073 -1.56374,4.83627 -4.35537,6.68925 -2.79904,1.85792 -3.24877,2.42864 -2.92628,3.71356 0.38733,1.54321 5.54014,6.46228 9.46859,9.03902 6.75867,4.43317 9.33157,9.50905 7.79968,15.38759 -0.35225,1.35175 -0.64046,2.74136 -0.64046,3.08802 0,0.34666 1.96599,2.25749 4.36884,4.24627 4.8036,3.97579 7.01503,6.64318 7.89224,9.51951 1.00992,3.31139 0.15645,5.6655 -3.41714,9.42662 l -2.244,2.36168 1.18291,0.8499 c 0.65059,0.46746 2.0674,1.6599 3.14844,2.64988 l 1.96553,1.79999 h 12.65136 12.65137 l 3.79995,1.32559 c 5.05727,1.76419 9.64826,4.25696 12.00915,6.52053 2.16661,2.07732 2.95868,4.09106 3.40976,8.66871 0.2299,2.33308 0.14561,2.98601 -0.5654,4.37969 -1.77941,3.48791 -4.78838,4.3968 -8.99059,2.71564 l -2.67418,-1.06983 -2.38515,1.79298 c -2.88617,2.16955 -4.62222,2.54757 -7.84045,1.70718 -2.28822,-0.59754 -2.37995,-0.5897 -3.96487,0.33915 -2.96242,1.73606 -4.16659,1.69598 -9.61342,-0.31989 -1.42493,-0.52735 -1.94373,-0.52897 -4.39996,-0.0136 -2.45045,0.51402 -2.95254,0.51309 -4.18455,-0.009 -2.60654,-1.10225 -3.16218,-1.12801 -5.01234,-0.23235 -2.0199,0.97782 -2.20361,1.4027 -2.35746,5.4521 -0.1065,2.80136 -1.34052,7.66985 -2.20965,8.71711 -0.26587,0.32038 -1.27658,0.8854 -2.24596,1.25562 -2.17928,0.83226 -4.4714,0.53957 -6.89459,-0.88039 l -1.7202,-1.00803 -1.87975,1.20507 c -1.61647,1.03627 -4.56164,2.05061 -5.87971,2.02498 -0.21999,-0.004 -1.0473,-0.23915 -1.83847,-0.52196 z m 6.59638,-2.30308 c 0.68309,-0.7661 1.60439,-1.8999 2.04729,-2.51955 l 0.8053,-1.1266 2.73837,2.48165 c 2.32066,2.10304 2.89954,2.44344 3.79468,2.23118 2.8937,-0.68608 4.5718,-3.38477 4.7943,-7.71007 0.18166,-3.5327 0.0627,-3.611 -4.1579,-2.73815 -7.18672,1.48627 -27.52607,0.30061 -44.16215,-2.57439 -14.22955,-2.45907 -25.00195,-5.05156 -30.8031,-7.41308 -3.78355,-1.5402 -5.0122,-1.68495 -6.08242,-0.71639 -1.02217,0.92504 -0.95735,3.34295 0.12663,4.72088 0.71501,0.90901 1.06503,1.04926 2.09998,0.84142 2.56983,-0.51605 2.72839,-0.46207 4.04084,1.37565 1.21184,1.69681 1.39111,1.79856 3.128,1.77578 1.13965,-0.0157 2.12731,-0.28199 2.58922,-0.69999 1.23591,-1.11851 2.05491,-0.79175 4.41399,1.761 3.45545,3.73912 5.17848,4.3076 8.37518,2.76312 2.31908,-1.12048 2.68334,-1.0304 3.84402,0.95009 1.48777,2.53865 2.35243,2.60148 7.10372,0.51604 l 1.45337,-0.63793 1.84907,2.00733 c 3.25701,3.53577 6.14257,3.93808 9.09756,1.26843 l 1.5321,-1.38414 2.02895,2.22003 c 1.11595,1.22103 2.37235,2.32899 2.79203,2.4622 1.0626,0.33725 2.34748,-0.39674 4.02926,-2.30177 1.62788,-1.84399 1.93473,-1.78712 3.41649,0.63328 1.7878,2.92033 2.79615,3.53575 5.50532,3.35991 2.09828,-0.1362 2.49472,-0.30643 3.59996,-1.54593 z m 10.74568,-11.14253 c 3.32806,-0.98413 3.33024,-3.87463 0.004,-6.8015 -5.93099,-5.22066 -15.97087,-6.97855 -34.64913,-6.06676 -5.31262,0.25933 -10.69424,0.46969 -11.95923,0.46748 -3.33036,-0.006 -3.01182,-0.84223 0.79999,-2.10059 6.88085,-2.27146 11.71729,-4.41785 13.5096,-5.99552 2.07466,-1.8262 2.21295,-2.47518 0.69023,-3.2391 -3.08982,-1.55008 -5.96455,-1.67185 -10.27248,-0.43503 -2.31848,0.66566 -4.47598,0.73485 -4.83428,0.15511 -0.37012,-0.59894 4.14711,-2.52833 9.80684,-4.18871 8.02292,-2.35368 11.7089,-4.36618 12.79373,-6.98519 0.7044,-1.70058 0.25194,-3.45112 -1.59447,-6.16865 -2.34705,-3.45441 -2.04157,-3.92651 1.19629,-1.84877 1.5287,0.981 2.76606,1.33297 6.8508,1.94893 7.16712,1.08073 9.12298,2.27274 8.68647,5.29394 -0.10456,0.72416 -0.97468,1.33379 -4.06145,2.84584 -2.75177,1.34799 -3.88985,2.1092 -3.79996,2.54168 0.0707,0.33957 1.16794,1.03903 2.43855,1.5543 2.57337,1.04363 3.48973,1.67618 3.48973,2.40891 0,0.27116 -1.12499,1.28065 -2.49996,2.24324 -3.19077,2.23384 -4.29997,3.43649 -4.29997,4.66231 0,1.37776 1.40132,3.1857 3.16762,4.08678 2.93372,1.49669 6.35091,1.93791 28.43203,3.67132 3.10684,0.24386 11.42991,0.34822 19.59973,0.24568 13.00371,-0.16322 14.41328,-0.24816 16.73358,-1.00796 2.67572,-0.87618 4.06619,-1.83369 4.06619,-2.80006 0,-1.07509 -1.7163,-3.65201 -3.25703,-4.89018 -4.11278,-3.30511 -11.1954,-6.05073 -17.63421,-6.83601 -6.71178,-0.81856 -16.84232,0.29699 -27.81451,3.06288 -6.43034,1.62096 -8.09356,1.81337 -8.09356,0.93627 0,-0.59462 2.81647,-1.81979 7.17778,-3.12231 2.2978,-0.68628 4.31022,-1.46198 4.47203,-1.72379 0.46012,-0.74451 -0.28924,-1.75173 -1.85654,-2.49545 -2.42164,-1.14917 -3.97704,-1.2047 -6.82228,-0.24364 -3.09372,1.04501 -4.30784,0.87714 -3.12545,-0.43211 0.41497,-0.45947 1.74443,-1.33629 2.95444,-1.94852 7.461,-3.77496 11.00932,-8.90225 8.94059,-12.91911 -1.22518,-2.37891 -2.54947,-3.77499 -10.18432,-10.73648 -4.18811,-3.81888 -8.78556,-8.29341 -10.21638,-9.94339 -4.56879,-5.26866 -6.93238,-10.48072 -7.88976,-17.39814 -0.29027,-2.09713 -0.65439,-3.93961 -0.80918,-4.09441 -0.15477,-0.15466 -1.73648,-0.4065 -3.51485,-0.55931 -2.48425,-0.21342 -3.42423,-0.46873 -4.05717,-1.10167 -0.99815,-0.99812 -1.38752,-3.68275 -1.43465,-9.89148 -0.0402,-5.30559 -0.57583,-8.47436 -1.60636,-9.50489 -0.74207,-0.74207 -0.77359,-0.72298 -1.64651,0.99691 -0.4895,0.96439 -2.42825,3.32873 -4.30836,5.25403 l -3.41839,3.50055 0.67811,2.89938 c 0.93162,3.98323 0.86183,5.50527 -0.33213,7.24346 -0.55,0.80069 -1.44998,2.11094 -1.99998,2.91161 -0.54998,0.80069 -0.99998,1.95837 -0.99998,2.57264 0,0.61425 0.82433,2.79413 1.83181,4.84412 1.74989,3.56066 1.82404,3.85247 1.65866,6.52726 -0.21998,3.55782 -1.68823,6.84464 -5.03604,11.27366 -4.63421,6.13094 -9.36918,9.65755 -17.41411,12.97004 -2.04875,0.84356 -5.20493,1.79059 -7.01371,2.10447 -2.17397,0.37725 -3.58528,0.84932 -4.16365,1.39268 -1.00709,0.94611 -1.50137,0.74624 -2.37531,-0.96049 -0.61785,-1.20662 -3.97058,-3.38065 -5.21351,-3.38065 -0.33992,0 -0.67558,0.38663 -0.74587,0.85917 -0.0702,0.4725 -0.43811,1.05362 -0.81736,1.29135 -0.56267,0.35264 -0.97064,0.15782 -2.21685,-1.05916 -0.84,-0.82024 -1.69967,-1.49136 -1.9104,-1.49136 -0.22505,0 -0.39958,2.43421 -0.42303,5.89993 -0.0352,5.22018 -0.18079,6.43707 -1.26286,10.56175 -2.12551,8.10199 -5.51999,14.03259 -8.82331,15.41541 -1.50995,0.63207 -1.6213,1.84311 -0.18828,2.0479 1.22495,0.17514 3.82597,-2.32589 7.55501,-7.26432 3.33929,-4.42226 4.33588,-5.4609 5.2397,-5.4609 0.45832,0 0.56105,0.4283 0.45567,1.89997 -0.13493,1.88647 -0.12663,1.90088 1.17449,2.02611 2.67546,0.25749 4.85789,-1.97973 7.05213,-7.22911 1.51525,-3.62501 3.68996,-5.32492 10.13716,-7.92392 1.81497,-0.73165 3.29994,-1.47488 3.29994,-1.65161 0,-0.17671 -0.72,-0.32129 -1.59998,-0.32129 -0.87996,0 -1.59998,-0.16524 -1.59998,-0.36739 0,-0.83147 10.40869,-3.42679 12.66977,-3.15905 0.5876,0.0695 1.1394,0.34291 1.22621,0.60746 0.14324,0.43692 -1.78921,1.1405 -5.19608,1.8917 -0.60499,0.13356 -1.09997,0.39464 -1.09997,0.58055 0,0.53172 3.27048,0.84674 8.79149,0.84674 4.92452,0 5.09284,-0.0284 5.50251,-0.9275 0.50453,-1.10736 0.23438,-2.86779 -0.5385,-3.50924 -0.72087,-0.59826 -0.71887,-1.96319 0.003,-1.96319 0.68672,0 2.87038,2.43095 3.24559,3.61317 0.42374,1.33505 -0.1475,4.18441 -1.13185,5.64493 -1.3146,1.95078 -3.74738,3.26052 -10.97576,5.90923 -6.21534,2.27748 -8.89628,3.62702 -8.89628,4.47826 0,0.2152 0.56462,0.698 1.25467,1.07276 0.69006,0.37475 1.72505,1.07495 2.29997,1.55599 1.0203,0.8537 1.02671,0.88838 0.26763,1.45142 -0.42772,0.31722 -1.77769,0.89124 -2.99995,1.27558 -5.62134,1.76752 -14.35487,6.10024 -17.22212,8.54386 -1.66026,1.41495 -1.45156,2.12676 1.03836,3.54192 6.15038,3.49564 33.2717,8.94826 53.32458,10.72066 7.02376,0.62081 20.96353,0.49935 23.3399,-0.2035 z m 29.01575,-2.56693 c 0.59403,-0.3091 1.51647,-1.02908 2.04983,-1.6 1.16479,-1.24679 1.4105,-1.26891 2.71343,-0.244 1.66089,1.30645 3.50229,1.63234 5.42964,0.96099 2.4582,-0.85627 3.49007,-1.89189 4.06802,-4.08285 l 0.513,-1.9446 -13.64683,-0.27672 c -7.50574,-0.15218 -15.5368,-0.4464 -17.84676,-0.6538 -9.13766,-0.82047 -12.66798,-0.93389 -12.98724,-0.41733 -0.33153,0.5364 1.80628,2.92077 5.1468,5.74045 l 1.95946,1.65393 2.2943,-1.25117 2.29434,-1.2512 1.52734,1.56417 c 0.86972,0.89067 1.90975,1.56413 2.4155,1.56413 0.4885,0 1.72244,-0.63681 2.74209,-1.41515 l 1.85393,-1.41515 1.47666,1.15861 c 3.166,2.48394 5.72032,3.09398 7.99649,1.90969 z m 24.46391,-2.89218 c 1.58064,-0.93373 2.4159,-2.57906 2.4159,-4.759 v -1.88978 l -1.93354,0.25649 c -3.31393,0.43962 -9.00357,2.02223 -9.17395,2.55184 -0.34202,1.063 4.72735,4.49466 6.63963,4.49466 0.51946,0 1.44283,-0.2944 2.05196,-0.65421 z m -73.61919,-10.00545 c 0.87939,-0.61599 0.92656,-0.84363 0.71005,-3.42636 l -0.23194,-2.76654 2.17891,-2.37013 c 1.19839,-1.30356 2.17892,-2.54802 2.17892,-2.76546 0,-0.21747 -0.72725,-0.76635 -1.6161,-1.2198 -1.81691,-0.92693 -2.55133,-2.29918 -2.00272,-3.74213 0.33627,-0.88446 0.94796,-1.25865 5.33264,-3.26213 1.99264,-0.91051 2.58679,-1.99217 1.65804,-3.01843 -1.29355,-1.42938 -5.49258,-2.04354 -7.553,-1.10475 -0.56035,0.25531 -1.03094,0.57031 -1.0458,0.69998 -0.26605,2.32379 -0.5321,3.32915 -1.27975,4.83573 -0.78341,1.5787 -1.38122,2.07047 -4.86246,3.99997 -2.18311,1.20999 -4.03313,2.39513 -4.11116,2.63363 -0.0779,0.23849 0.5831,1.34426 1.46926,2.45721 0.88617,1.113 1.61118,2.17359 1.61118,2.35692 0,0.18346 -1.29524,1.63727 -2.87833,3.23102 -1.58307,1.59371 -2.75096,3.02501 -2.59529,3.18069 0.15562,0.15556 2.03592,0.40324 4.17832,0.55016 6.79382,0.46589 7.85526,0.43358 8.85923,-0.26958 z m -93.65096,-1.04021 c 0.75079,-0.9159 1.34873,-3.86257 0.9341,-4.60344 -0.21324,-0.38098 -1.16462,-0.88188 -2.11423,-1.1131 -2.15549,-0.52483 -2.82709,-1.64817 -2.60091,-4.35049 0.21241,-2.53743 1.05569,-3.26714 2.75824,-2.38677 2.03174,1.05068 2.31366,0.61512 2.28702,-3.53346 -0.0293,-4.54608 -0.47901,-7.47885 -1.21895,-7.94738 -0.30645,-0.19406 -1.06401,-0.35558 -1.68347,-0.35895 -1.61889,-0.009 -2.52884,-0.61518 -3.01471,-2.00892 -0.72339,-2.07506 -0.18698,-2.60153 2.94101,-2.88745 1.14812,-0.10487 1.19533,-0.18348 1.09203,-1.81594 -0.13601,-2.14923 -1.47296,-5.77142 -2.45996,-6.66463 -0.7114,-0.64381 -0.78562,-0.63081 -1.40302,0.24561 -1.64181,2.33055 -4.28151,14.46772 -3.67346,16.89032 0.16351,0.65185 0.82145,1.31292 1.80671,1.81556 1.03345,0.52723 1.69751,1.21519 1.99405,2.06586 0.42105,1.20783 0.35981,1.35369 -1.15585,2.7529 -0.88023,0.81268 -1.60044,1.70622 -1.60044,1.9857 0,0.98787 3.67456,9.19752 4.83161,10.79484 1.251,1.72695 1.62993,1.913 2.28023,1.11974 z m 10.08796,-1.38883 c 2.08997,-0.77179 4.02494,-1.58454 4.29993,-1.80617 0.27501,-0.22152 0.5,-1.16881 0.5,-2.10495 0,-2.09173 0.62761,-2.67343 2.96941,-2.75224 0.97677,-0.0329 1.85658,-0.14701 1.95512,-0.25374 0.0986,-0.10678 0.66487,-1.16069 1.25849,-2.34228 1.22784,-2.44386 1.13244,-3.62183 -0.37324,-4.6084 -1.28755,-0.84361 -2.61023,-3.44361 -2.60831,-5.12719 7.9e-4,-0.72379 0.36475,-1.91176 0.80875,-2.63998 0.79229,-1.29953 3.21513,-2.67967 4.12693,-2.35091 0.25451,0.0918 0.77774,0.004 1.16275,-0.19314 0.56296,-0.28958 0.69999,-0.89367 0.69999,-3.08624 0,-3.8095 -0.51013,-5.04271 -2.39856,-5.79831 -1.60917,-0.64386 -7.78984,-1.93663 -16.52989,-3.45738 -5.51705,-0.96001 -6.17402,-0.85058 -5.72142,0.95264 0.20919,0.83378 0.61637,1.07684 2.43651,1.4547 2.99707,0.62216 4.21358,2.05702 4.21358,4.96982 0,1.94774 -0.13561,2.24907 -1.80649,4.01809 l -1.80646,1.91245 0.25315,6.65109 c 0.13918,3.65809 0.36898,7.64107 0.51063,8.85105 l 0.25755,2.19999 h 2.19581 c 2.58501,0 3.19577,0.30759 3.19577,1.6095 0,1.81441 -2.48514,2.35394 -4.43785,0.96346 l -1.16137,-0.82694 -0.40036,1.05299 c -0.46011,1.21018 -0.53501,3.93291 -0.11954,4.34828 0.4071,0.40709 2.21396,-0.0464 6.51921,-1.63622 z m 1.57759,-13.24868 c -1.10732,-0.89666 -0.834,-1.93253 0.60525,-2.29373 1.36342,-0.3422 2.99372,0.10487 3.30092,0.90566 0.2895,0.75444 -1.18377,2.12573 -2.28379,2.12573 -0.39126,0 -1.12133,-0.33192 -1.62238,-0.73766 z m 2.39159,-15.23136 c -1.4741,-1.47411 -1.51518,-2.90052 -0.1152,-4.00169 1.41587,-1.11372 2.62214,-1.04383 3.89147,0.22549 1.39145,1.39148 1.39168,3.02217 4e-4,4.11641 -1.43472,1.12854 -2.39449,1.04207 -3.77679,-0.34021 z m 9.48419,11.70269 c 0.74984,-1.79465 0.90839,-4.73163 0.28886,-5.35112 -0.69234,-0.69235 -2.10454,0.2293 -2.76186,1.80253 -0.57738,1.38188 -0.29477,3.31336 0.65166,4.45374 0.73417,0.88462 1.16244,0.6718 1.82134,-0.90515 z m -19.22648,-11.11825 c 0.53204,-0.812 0.56533,-1.22692 0.18978,-2.3646 -0.44884,-1.36 -1.34136,-2.06795 -2.05276,-1.62828 -0.59056,0.365 -0.41584,3.12552 0.25875,4.08865 0.77636,1.10839 0.81671,1.10599 1.60415,-0.0958 z m 44.38861,-4.4186 c 8.83693,-2.23686 21.5755,-13.38081 23.3497,-20.42675 0.6293,-2.49928 0.0532,-5.17194 -1.96573,-9.11979 -0.86153,-1.68468 -1.68062,-3.6716 -1.82013,-4.41538 -0.29431,-1.56879 0.60465,-3.73696 2.81018,-6.77783 1.57689,-2.17413 1.6521,-2.71797 0.80975,-5.85626 -1.06648,-3.97327 -1.02618,-4.07328 3.36273,-8.34392 3.56245,-3.46643 4.02816,-4.08807 4.61059,-6.15411 1.02892,-3.64994 4.45901,-6.78965 6.65586,-6.09239 1.07581,0.34145 0.96382,0.89332 -0.42938,2.11581 -1.46966,1.28964 -1.51758,1.97385 -0.17397,2.48471 1.59498,0.60639 2.90456,0.46534 4.13672,-0.44565 1.01443,-0.75001 1.38345,-0.79747 3.59634,-0.46251 l 2.46593,0.37321 2.18259,-3.83745 c 1.20045,-2.11057 2.48818,-4.31871 2.86162,-4.90699 0.56506,-0.8902 0.59122,-1.17534 0.15582,-1.69999 -0.28776,-0.3467 -0.77024,-0.63037 -1.07215,-0.63037 -0.30196,0 -2.65906,-0.8444 -5.23803,-1.87644 l -4.68903,-1.87646 -3.8129,1.32341 c -5.59945,1.94351 -9.24384,3.74356 -10.70646,5.28824 -1.08088,1.14146 -1.38968,1.91636 -1.87763,4.71129 -0.32119,1.83978 -0.72901,3.48799 -0.90633,3.66267 -0.17716,0.17469 -1.85234,0.96965 -3.72231,1.76665 -7.51108,3.20135 -8.53266,4.41251 -7.36068,8.72672 1.1514,4.23847 1.16475,5.00247 0.10731,6.15115 -0.52065,0.56561 -2.15099,1.80655 -3.62303,2.75767 -4.35127,2.81142 -4.4961,3.88727 -1.28073,9.51527 3.44305,6.02663 3.60142,7.75617 0.86715,9.46987 -1.06429,0.66703 -1.83531,0.79782 -4.11126,0.69739 -3.06389,-0.13506 -6.03291,-1.3929 -12.99851,-5.50617 -3.59837,-2.12488 -5.23465,-2.46636 -6.46843,-1.3498 -2.29245,2.07466 1.33945,8.13278 6.21343,10.36414 1.50463,0.68885 3.36194,1.06199 6.85912,1.37801 5.68585,0.51386 6.28035,0.66084 6.11638,1.51239 -0.28333,1.47118 -7.20535,1.60491 -12.95762,0.25031 -3.5392,-0.83343 -10.34227,-0.9071 -11.97165,-0.12961 -0.9693,0.46248 -1.21459,0.85391 -1.3174,2.10229 -0.11058,1.34143 0.0711,1.72182 1.44578,3.02956 2.47414,2.3536 6.32158,3.43755 12.08039,3.40339 5.21776,-0.0308 8.07269,-0.65744 12.92424,-2.83635 3.11991,-1.40116 4.27556,-1.49768 4.27556,-0.35698 0,1.88085 -10.45159,5.61613 -17.59978,6.28998 -2.52998,0.23849 -4.82497,0.61249 -5.09995,0.83108 -0.81736,0.64975 -0.57509,1.67787 0.67843,2.8788 2.49581,2.39112 7.80933,3.23927 12.63736,2.01719 z m -23.45696,-4.84623 c -1.23256,-1.48514 -3.1587,-1.571 -3.1587,-0.1407 0,0.91279 1.90475,1.63451 2.92582,1.10858 0.59011,-0.30393 0.63363,-0.48489 0.23288,-0.96775 z m 86.42617,-8.52388 c 0.77648,-1.45085 0.47879,-4.53926 -0.65724,-6.819 -1.9205,-3.85395 -8.22501,-9.11362 -11.1771,-9.32475 -1.01339,-0.0725 -1.13583,0.0375 -1.02113,0.91765 0.386,2.96213 4.01053,8.74661 8.20832,13.09983 2.87991,2.98653 3.92971,3.46686 4.64715,2.12627 z m -15.05189,-28.00918 c 0.18359,-0.17852 0.27362,-0.75029 0.20002,-1.27064 -0.10841,-0.76738 -0.51066,-1.03908 -2.12866,-1.43837 -1.09715,-0.27074 -3.07713,-0.54076 -4.39994,-0.60001 -2.34673,-0.10488 -2.40816,-0.0815 -2.52981,0.97249 -0.17548,1.52055 0.53677,2.63465 1.82448,2.85385 1.511,0.25719 6.62396,-0.11887 7.03393,-0.51732 z m 0.12866,-5.43592 c 0.33443,-0.8715 -0.79735,-1.58241 -4.06268,-2.5519 -3.30666,-0.98184 -4.33263,-1.0329 -4.984,-0.24808 -0.80407,0.96885 -0.10637,2.16519 1.50817,2.58603 3.63118,0.94644 7.21836,1.04824 7.53851,0.21386 z m 0.77153,-4.21858 c 0.74851,-0.82714 0.74447,-0.84971 -0.31835,-1.76389 -1.16213,-0.99964 -4.49694,-2.37083 -6.83082,-2.80867 -1.33464,-0.25037 -1.47039,-0.18707 -1.71891,0.80315 -0.37661,1.50064 0.31948,2.05525 4.27345,3.40483 4.1069,1.40177 3.68617,1.36838 4.59463,0.36458 z m 2.23422,-4.62411 c 0.90338,-0.81757 0.93899,-1.86781 0.0874,-2.5747 -0.9158,-0.76001 -6.5478,-3.16322 -7.41321,-3.16322 -0.87926,0 -2.11717,1.76769 -1.80591,2.57879 0.25614,0.66754 2.72998,2.00806 5.66339,3.06896 2.48463,0.89858 2.57268,0.90085 3.46849,0.0903 z m 10.64881,-18.72966 c 1.64094,-1.38078 2.39635,-3.2657 1.61992,-4.04213 -0.63654,-0.6365 -13.52392,-5.97823 -18.26397,-7.57027 -1.6303,-0.54756 -3.66634,-0.99556 -4.52453,-0.99556 -1.33116,0 -1.67679,0.19113 -2.35296,1.3 -0.43595,0.71499 -0.7933,1.64835 -0.79413,2.07417 -0.001,0.77193 1.45098,2.62575 2.05727,2.62575 0.17569,0 2.43922,0.91806 5.03022,2.04014 2.59099,1.12208 5.88088,2.45779 7.31086,2.96824 1.42998,0.51046 3.58994,1.29588 4.79995,1.74539 2.88102,1.07031 3.69991,1.04698 5.11737,-0.14587 z m -2.26299,-11.39677 c 1.08731,-1.48796 2.42434,-2.7572 3.54554,-3.36582 0.98999,-0.53739 7.10992,-3.06862 13.59983,-5.62492 17.88198,-7.04346 21.75784,-8.88477 26.65481,-12.66273 2.83993,-2.19102 6.3434,-6.00419 7.43159,-8.08862 2.64928,-5.074662 -0.7297,-11.911531 -11.28368,-22.830826 -4.29035,-4.438868 -9.07361,-8.500174 -9.50412,-8.069654 -0.10277,0.102903 0.62322,1.232235 1.61368,2.509576 0.99047,1.27735 2.0895,2.896855 2.44229,3.598914 0.77985,1.551908 1.55714,6.703199 1.23369,8.175922 -0.51585,2.348575 -5.45913,5.98124 -8.90392,6.543155 -1.12934,0.184144 -1.89285,0.57444 -2.23448,1.14204 -0.28547,0.4742 -1.13072,1.904174 -1.87836,3.177695 -1.02752,1.750196 -1.55516,2.287272 -2.16137,2.199974 -1.14555,-0.165021 -1.20743,-1.258427 -0.21006,-3.715457 1.38637,-3.415851 1.16578,-3.563871 -2.93885,-1.972248 -4.09716,1.588725 -5.46104,1.739125 -5.46104,0.602214 0,-0.491135 0.61058,-1.106827 1.68582,-1.699983 0.92721,-0.511454 1.66274,-1.109941 1.63452,-1.329939 -0.0626,-0.487693 -4.31349,-2.847204 -5.77495,-3.205428 -1.27586,-0.312729 -2.53195,0.838491 -2.89489,2.653239 -0.29983,1.498973 -3.90121,5.153644 -6.26876,6.361486 -2.2268,1.136015 -5.31578,1.373021 -11.15943,0.856159 -4.23869,-0.3749 -4.84626,-0.538969 -8.19991,-2.214157 -8.40495,-4.198441 -13.49399,-10.815545 -13.57497,-17.65115 -0.0386,-3.256378 0.59197,-4.822678 3.07905,-7.648132 l 1.64417,-1.867886 -3.12594,0.200607 c -2.05523,0.131904 -3.24686,0.391552 -3.47894,0.758056 -0.19403,0.306594 -0.35574,1.673571 -0.35911,3.037726 -0.0192,7.428129 -3.01661,13.092424 -11.57929,21.87547 -6.09068,6.247374 -7.79702,7.443852 -10.61586,7.443852 -1.159,0 -2.40068,0.257773 -2.88886,0.599715 -1.15125,0.80637 -2.52179,3.08518 -2.52179,4.19302 0,3.45843 5.89485,7.64606 10.79186,7.66636 2.31497,0.009 3.60798,-1.31915 3.60798,-3.70778 0,-1.96795 0.58771,-3.15136 1.56506,-3.15136 1.08393,0 1.70715,0.96925 1.93755,3.01323 0.14431,1.27965 0.48673,2.03496 1.16462,2.56814 1.50284,1.18215 6.25463,3.02211 11.93258,4.62044 13.39102,3.76957 16.8834,5.07665 19.12003,7.15591 1.3076,1.2156 2.2797,3.33365 2.2797,4.96717 0,0.63295 0.32225,1.44245 0.71609,1.79892 0.78555,0.71088 6.41033,3.43847 7.13826,3.4615 0.24993,0.009 1.23992,-1.06059 2.19997,-2.3744 z m -4.81568,-24.23081 c -7.12626,-1.24685 -15.79182,-4.84227 -25.0384,-10.388686 -5.13877,-3.082406 -7.02538,-4.725768 -6.28046,-5.470684 0.69385,-0.693844 1.95439,-0.147681 7.0688,3.062781 7.28942,4.575815 14.85133,8.074239 21.27417,9.842239 2.6266,0.72302 4.56944,0.89539 11.93709,1.05913 12.78057,0.28399 16.75855,-0.49816 26.9997,-5.308601 6.27599,-2.947945 7.59989,-3.367907 7.59989,-2.410827 0,0.824874 -3.92874,3.387299 -8.59989,5.609078 -7.47846,3.55704 -10.91283,4.23114 -22.59973,4.43593 -6.72781,0.11779 -9.84849,0.009 -12.36117,-0.43036 z M 173.89589,93.801608 c 3.29961,-2.480397 8.37095,-7.87818 10.69871,-11.387429 2.8918,-4.359561 3.95734,-7.214979 4.14425,-11.105651 l 0.15688,-3.266222 -2.26502,-0.282994 c -2.73245,-0.341397 -5.32739,-0.0427 -6.06864,0.698528 -0.29942,0.299406 -0.82156,1.618193 -1.16036,2.930648 -0.33879,1.312456 -1.4375,4.080897 -2.44151,6.152092 -2.08355,4.298043 -3.8517,6.228209 -9.64353,10.527109 -2.03497,1.510438 -3.69996,2.88205 -3.69996,3.048078 0,0.166137 0.58499,0.846774 1.29999,1.512805 3.85899,3.594704 5.4765,3.805986 8.97915,1.173036 z m 45.71397,-0.223778 c 0.40766,-0.218147 0.85185,-0.90043 0.98708,-1.516124 0.70969,-3.231352 3.65353,-5.458021 8.55555,-6.471354 1.63863,-0.338721 3.14767,-0.885674 3.35425,-1.215744 0.71069,-1.135416 -1.16124,-5.032173 -3.74338,-7.792467 -2.6079,-2.787875 -8.3599,-6.926246 -11.64805,-8.38043 -5.90797,-2.612788 -12.66058,-2.248465 -16.31583,0.880283 -5.06821,4.338214 -4.31392,11.481938 1.85422,17.560753 4.51479,4.449381 14.19946,8.41043 16.95616,6.935083 z M 158.187,88.731529 c 3.79872,-1.25554 8.21634,-4.232336 12.02968,-8.106134 2.88392,-2.929654 3.36715,-3.653257 4.89256,-7.326698 0.9309,-2.241802 1.87151,-4.851767 2.09019,-5.799929 0.93203,-4.041078 0.17056,-9.211901 -2.03826,-13.839999 -1.46911,-3.078246 -6.11486,-8.129938 -9.64372,-10.486428 -6.14274,-4.101957 -16.74831,-5.03794 -25.05843,-2.211492 -7.25755,2.468456 -16.66817,9.464227 -21.11624,15.697623 -2.50993,3.517349 -2.33811,3.875702 1.87677,3.914847 4.14676,0.03854 7.71897,1.416598 8.41458,3.246143 0.22733,0.597962 0.86878,3.982508 1.42541,7.521216 0.66953,4.256366 1.33574,7.110928 1.96843,8.433998 1.04197,2.178985 4.70116,6.159878 6.96531,7.577665 4.81386,3.014389 11.67309,3.534357 18.19372,1.379188 z m 92.69461,-3.803426 c 3.14089,-2.40483 6.40226,-4.143195 7.78504,-4.149546 2.22322,-0.0095 2.20156,-2.383762 -0.0528,-5.779959 -3.92247,-5.909414 -11.78483,-10.719101 -17.63763,-10.78956 -2.48992,-0.02996 -3.17932,0.138159 -5.59994,1.365799 -2.38473,1.209432 -2.89148,1.664331 -3.72321,3.342148 -0.52952,1.068193 -1.04605,2.809146 -1.14789,3.868789 -0.16139,1.678656 -0.001,2.226629 1.23688,4.257756 1.71735,2.815255 4.07525,5.145497 7.21152,7.127035 3.4048,2.151156 5.44559,2.985295 7.32799,2.995224 1.41505,0.0068 2.10759,-0.329431 4.59992,-2.237686 z m 18.85374,-13.200126 c 1.68729,-0.852509 3.00443,-2.078266 3.81809,-3.553173 0.55244,-1.001429 0.66201,-2.493101 0.66201,-9.015074 0,-10.375037 0.25167,-10.784687 6.62595,-10.784687 2.63459,0 3.17391,-0.108129 3.17391,-0.636067 0,-0.765535 -5.54656,-6.32124 -9.41552,-9.431012 -5.62542,-4.521603 -9.83293,-5.961901 -17.38414,-5.950897 -8.09628,0.01224 -11.69073,1.354733 -16.64338,6.218089 -1.58262,1.554084 -3.3219,3.732796 -3.9088,4.89638 -2.48331,4.923256 -2.83435,10.876098 -0.89162,15.119561 l 0.99978,2.1838 h 6.75435 6.75435 l 4.56765,3.133082 c 2.51218,1.723191 6.14988,4.33316 8.08373,5.799928 3.74852,2.84314 4.64673,3.109843 6.80364,2.02007 z m -41.17226,-2.353186 c 0.41261,-0.87999 1.48961,-2.484281 2.39333,-3.565094 l 1.64309,-1.965108 -6.39172,0.278315 c -6.5823,0.286615 -8.99168,0.554044 -8.99168,0.998028 0,0.140387 0.8183,0.689378 1.81841,1.219942 1.00013,0.530564 3.02511,1.832181 4.49994,2.89248 1.47485,1.0603 3.04082,1.885882 3.47997,1.834619 0.49298,-0.05752 1.08544,-0.705286 1.54866,-1.693182 z"
       id="path2202"
       inkscape:label="New Path"
       sodipodi:nodetypes="cscsssscssssscccssscsssscsssssscsssccssssscscsscssssccssscssccsscccsscsscccccscsccccccsccsccscsssccsssscssssssssscsscsssssscccssscccscccsssscsscsssssccscccssssscssssccscssscscccsscsscssssssscssssscsscsssssssccsccssscsscsssscsssssssssssssssssscssssccscssscsssssssssssscccscsscssccssssssccsssssscssssscscsccssssscsssscccssscsssscsssscscsscsssscsscssscscssssccscscssccsscsssccsscssssccssccsscccscssscscccsscsscsscccsssssccsscccssssscsscssccssssccssscssscsscscssssscccssssscccssccssscssscsccsssccscccsssscsccssscccssscssssscccscsssssccccsccsscsscssccscscccssscsscccsscccccsscscsssccssscssscsscssccsssscscsssccsscccscssscssssccscsssssssscssscccssssccsssscs" />
  </g>
</svg>
