<?xml version="1.0" encoding="UTF-8" standalone="no"?>
<!-- Created with Inkscape (http://www.inkscape.org/) -->

<svg
   width="300mm"
   height="300mm"
   viewBox="0 0 299.99999 299.99999"
   version="1.1"
   id="svg978"
   sodipodi:docname="lab_dee_dee_goth.svg"
   inkscape:version="1.2.2 (732a01da63, 2022-12-09)"
   xmlns:inkscape="http://www.inkscape.org/namespaces/inkscape"
   xmlns:sodipodi="http://sodipodi.sourceforge.net/DTD/sodipodi-0.dtd"
   xmlns="http://www.w3.org/2000/svg"
   xmlns:svg="http://www.w3.org/2000/svg">
  <sodipodi:namedview
     id="namedview980"
     pagecolor="#505050"
     bordercolor="#eeeeee"
     borderopacity="1"
     inkscape:showpageshadow="0"
     inkscape:pageopacity="0"
     inkscape:pagecheckerboard="0"
     inkscape:deskcolor="#505050"
     inkscape:document-units="mm"
     showgrid="false"
     inkscape:zoom="0.18462928"
     inkscape:cx="333.09993"
     inkscape:cy="568.7072"
     inkscape:window-width="1920"
     inkscape:window-height="1009"
     inkscape:window-x="-8"
     inkscape:window-y="-8"
     inkscape:window-maximized="1"
     inkscape:current-layer="layer1" />
  <defs
     id="defs975">
    <clipPath
       clipPathUnits="userSpaceOnUse"
       id="clipPath1950">
      <path
         style="fill:#000000;stroke:none;stroke-width:0.2;stroke-linejoin:round;paint-order:stroke fill markers;stop-color:#000000"
         d="m 50.467009,101.99455 -2.406637,-7.758233 6.36492,5.224936 2.913298,-9.626547 -5.984925,-6.428253 -8.771559,1.86831 -1.393316,13.489831 7.061579,6.143256"
         id="path1952" />
    </clipPath>
  </defs>
  <g
     inkscape:label="Layer 1"
     inkscape:groupmode="layer"
     id="layer1"
     transform="translate(-97.523636,8.3968611)">
    <path
       id="path438"
       style="display:inline;fill:#000000;stroke-width:1.18033"
       d="m 315.95888,7.9897356 c -3.6729,0.020589 -7.48243,0.5237421 -11.35693,1.5554606 C 286.21063,14.442519 276.60268,26.68459 276.68738,45.112534 l 0.0439,9.534819 -20.8256,1.431954 c -11.45398,0.787503 -23.49693,1.752287 -26.76167,2.144055 l -5.93556,0.712618 -0.22738,-7.6724 C 222.3522,30.042281 207.19205,13.400964 188.74132,13.67776 c -9.35962,0.140414 -15.43138,2.724889 -23.47091,9.990088 -7.41473,6.700538 -12.338,14.183335 -16.35766,24.862565 -5.21575,13.857 -8.09072,31.434996 -5.41208,33.090487 0.59218,0.36599 2.76181,-1.461446 4.8209,-4.061251 5.1574,-6.51176 8.9769,-6.419524 16.99173,0.410828 9.97608,8.501752 12.78901,9.556942 25.56639,9.588562 l 11.27477,0.02791 2.93935,7.701339 2.93988,7.701857 -3.60495,-0.42065 c -5.32908,-0.62214 -10.07019,3.49742 -10.07019,8.75089 0,5.42081 2.84594,9.50321 8.7111,12.49536 6.8837,3.51184 13.63486,3.27884 16.50803,-0.56947 l 2.25723,-3.02256 4.26176,2.67736 c 5.04688,3.17047 16.98538,7.768 20.17138,7.768 4.00638,0 3.73132,2.07913 -1.70739,12.90826 -2.94209,5.85803 -5.34955,11.36598 -5.34955,12.23956 0,0.87358 1.32828,2.83578 2.95124,4.36046 1.62295,1.52467 2.95073,4.06621 2.95073,5.64823 0,2.65673 0.32056,2.81654 4.19716,2.08928 l 4.19716,-0.78755 -0.70177,6.85281 c -0.38602,3.76902 -1.99134,21.13187 -3.56722,38.58369 -1.57588,17.45183 -3.01605,31.87758 -3.20032,32.05748 -0.18426,0.17991 -4.31869,-1.03364 -9.18756,-2.697 -7.60762,-2.59901 -11.00995,-3.04086 -24.19645,-3.13986 -13.93245,-0.1047 -15.82839,0.13921 -20.60495,2.64894 -2.89328,1.52025 -5.93658,3.64468 -6.76289,4.72116 -2.35648,3.06993 -3.86384,9.57052 -3.10214,13.37902 0.87355,4.36772 6.44449,10.02775 11.36623,11.54762 8.96713,2.7691 47.20512,-0.44287 62.27114,-5.23069 4.90447,-1.55861 6.06269,-1.51299 12.7,0.49661 20.78927,6.29449 42.86088,5.81322 57.00065,-1.24282 13.10916,-6.54174 14.13026,-20.11334 2.0345,-27.03814 -4.55302,-2.6066 -6.46398,-2.93166 -16.9354,-2.88406 -10.15166,0.0462 -13.42417,0.5997 -23.38617,3.9579 -6.37051,2.1475 -11.85826,3.62916 -12.19512,3.2923 -0.33687,-0.33685 -2.14389,-15.39696 -4.01577,-33.46669 -1.87189,-18.06969 -3.71047,-35.04737 -4.08554,-37.72844 l -0.68161,-4.87516 5.36246,-0.80408 c 3.55092,-0.53251 5.36246,-1.38701 5.36246,-2.52957 0,-0.949 -1.8988,-8.1357 -4.21938,-15.9706 -2.32057,-7.83491 -4.04666,-14.39026 -3.83594,-14.56707 0.21074,-0.17681 3.57009,-1.49154 7.46518,-2.92178 15.35862,-5.6395 29.15771,-15.71678 32.46933,-23.71173 1.22273,-2.95188 1.14464,-5.27076 -0.44596,-13.283947 -2.57056,-12.949916 -2.62489,-12.658659 2.36419,-12.658659 6.63108,0 12.98839,-2.358424 18.06092,-6.700366 5.125,-4.386803 6.61424,-8.02223 7.78712,-19.007625 1.12752,-10.560485 5.09985,-13.673686 10.71562,-8.397937 4.14756,3.896414 5.57963,1.897746 4.63745,-6.473507 C 349.84028,20.319941 334.67318,7.8848285 315.95888,7.9897356 Z M 278.86137,48.286987 c 0.9337,-0.78355 2.23348,-0.500938 3.33368,-0.37204 4.05395,0.474953 9.55394,2.166163 9.55394,3.781681 0,0.60657 -1.64783,0.702595 -3.79305,0.221176 -6.57732,-1.476129 -8.37406,-0.923412 -9.01616,-1.148173 -0.30959,-0.485703 -0.42714,-1.924414 -0.0784,-2.482644 z m -38.98312,0.938991 c -3.96179,0 -8.92917,2.023872 -8.92917,3.638021 0,0.796514 0.83386,1.006422 2.06551,0.519348 1.13606,-0.449272 3.79159,-1.107107 5.90145,-1.461409 4.47209,-0.750992 5.16633,-2.69596 0.96221,-2.69596 z m 45.44788,8.241358 c 5.80282,-0.01342 6.78369,0.488477 7.76076,1.824695 2.27426,3.110244 1.98001,4.38428 -0.68316,2.958992 -4.6328,-2.479401 -11.52669,-1.460702 -15.8595,2.343526 -2.2388,1.96571 -4.50802,5.361981 -5.05757,7.569564 l -0.99632,4.004407 -4.41058,-5.095813 c -5.7103,-6.597868 -12.84851,-10.043315 -20.80804,-10.043315 -8.91752,0 -16.10898,4.493752 -18.79006,11.741402 -0.93546,2.52881 -1.17269,2.103834 -1.90531,-3.418912 -0.46013,-3.468796 -0.40918,-6.716605 0.11265,-7.217131 1.39033,-1.33353 24.00663,-3.393584 46.85657,-4.267957 6.37803,-0.244059 10.74098,-0.392428 13.78056,-0.399458 z m 0.31419,6.285921 c 1.24293,9.5e-5 2.60413,0.461688 5.02295,1.385445 2.84569,1.086779 6.26005,3.5008 7.58713,5.36453 l 2.41277,3.388941 -3.87314,0.636137 c -2.13036,0.34981 -8.02857,1.173672 -13.1067,1.830896 -11.20865,1.450623 -10.24227,1.460029 -10.24227,-0.10232 0,-3.542547 4.09872,-9.321602 7.88583,-11.118701 1.94597,-0.923426 3.0705,-1.385023 4.31343,-1.384928 z m -40.05699,0.940511 c 3.12982,-0.01408 6.46965,0.739838 9.81232,2.357996 4.59903,2.226348 12.03261,9.825996 10.80865,11.049971 -0.26602,0.266032 -7.11197,1.314648 -15.21355,2.33009 -8.10155,1.015429 -16.53238,2.149673 -18.73477,2.52026 l -4.00389,0.673861 0.70435,-4.341337 c 1.47541,-9.091829 8.31051,-14.553423 16.62689,-14.590841 z m 54.39358,12.924276 c 2.68663,0.01054 3.03235,1.29919 3.61115,5.158858 0.97812,6.522645 -1.00466,12.850431 -5.01468,16.004708 -3.67446,2.89034 -10.96832,3.26315 -10.96832,0.560689 0,-0.500029 -0.54175,-3.887595 0.51624,-4.066935 1.12203,-0.19026 2.55279,0.233075 3.42047,-0.237195 2.66389,-1.443789 2.27076,-5.594022 1.04179,-10.459827 l -1.42678,-5.650301 3.46335,-0.653707 c 2.43025,-0.402095 4.13559,-0.661079 5.35678,-0.65629 z m -22.57898,2.881994 c 2.82343,-0.04426 2.03283,3.046099 3.56412,6.149496 1.75042,3.547499 4.02454,5.260224 1.50792,7.133931 -0.58077,0.811484 -1.52968,1.475362 -2.10892,1.475362 -1.24929,0 -5.73056,-7.069593 -5.73556,-9.051127 -0.002,-0.758382 -0.30882,-2.172354 -0.6811,-3.142444 -0.42408,-1.105114 0.15787,-1.802282 1.47536,-2.198315 0.80844,-0.243012 1.45532,-0.358706 1.97818,-0.366903 z m -11.53522,2.047421 c 1.44896,0.0028 2.48949,0.09083 2.81327,0.290938 2.04644,1.264767 1.42284,12.676957 -0.93276,17.069242 -1.18621,2.211851 -3.96658,4.992211 -6.17843,6.178431 -10.38186,5.56785 -25.71436,-1.60162 -31.11438,-14.548979 -1.61893,-3.881841 -1.61539,-4.382791 0.0367,-5.016748 2.68616,-1.030776 2.60622,-1.109692 4.17545,4.127913 0.79623,2.657597 2.89002,6.375867 4.65243,8.262545 6.61445,7.080769 12.281,2.283829 9.5157,-8.055322 -1.11376,-4.16377 -1.1274,-5.631749 -0.0589,-6.292123 1.53346,-0.947736 11.91611,-2.025841 17.09094,-2.015897 z m -41.55973,2.169893 1.86087,5.566068 c 1.78826,5.349231 1.76822,5.621805 -0.51315,6.999573 -3.65694,2.208508 -3.75509,1.992187 -2.51199,-5.52421 z m 49.19028,7.590751 2.26549,2.948657 c 2.23455,2.908507 2.23405,2.981157 -0.0264,5.38727 -2.41942,2.57534 -3.03097,5.23792 -1.20303,5.23792 0.59869,0 3.25118,-2.52276 5.89421,-5.60637 5.2772,-6.156849 5.60392,-5.911506 3.10266,2.33112 -1.75563,5.78546 -0.37321,9.36595 1.6061,4.15995 0.89497,-2.35385 1.71302,-2.72241 5.15317,-2.32079 5.17453,0.60409 10.92072,-2.30301 13.7511,-6.957195 l 2.16318,-3.557405 0.786,4.188375 c 0.92979,4.956215 -0.35542,7.848745 -6.24148,14.046685 -5.55531,5.84966 -16.43598,11.90958 -29.14603,16.2326 -10.65461,3.6239 -12.96644,3.95803 -15.86208,2.29392 -0.97377,-0.55962 -5.46689,-1.86254 -9.9844,-2.89543 -9.2587,-2.11683 -16.89239,-5.50225 -21.89117,-9.70845 l -3.38429,-2.84789 -1.98024,4.17287 c -1.70023,3.58297 -2.55328,4.17287 -6.03529,4.17287 -11.37764,0 -20.51109,-11.8698 -13.11807,-17.04805 3.63268,-2.54443 5.78896,-2.31314 10.92389,1.1715 3.87291,2.62823 4.67764,2.79837 6.36136,1.34359 1.94961,-1.68453 12.36753,-5.53248 14.97842,-5.53248 0.77949,0 4.50426,1.8589 8.27753,4.13102 12.0611,7.2628 23.79867,5.2788 30.87305,-5.21881 1.47612,-2.19039 2.69583,-5.365108 2.71043,-7.054347 z m 5.43532,21.836397 c -4.14119,0 -10.30805,2.42568 -9.49812,3.7362 0.3895,0.63018 1.58421,0.79873 2.65461,0.37466 1.07041,-0.42409 3.67223,-1.0606 5.78208,-1.4149 4.4181,-0.74192 5.18745,-2.69596 1.06143,-2.69596 z m -25.64649,18.88515 c 1.1859,0 2.45411,11.91254 2.45411,23.05544 v 8.54521 l -3.59306,0.52762 c -1.97614,0.28998 -3.7629,0.21741 -3.9703,-0.16123 -0.20742,-0.37866 0.86676,-5.99993 2.38693,-12.49174 3.17871,-13.57449 3.17861,-13.57385 1.71566,-13.57385 -0.60489,0 -2.00021,4.1166 -3.10059,9.14776 -2.61326,11.94871 -3.08097,12.77771 -5.62291,9.9689 -1.90586,-2.10595 -1.73389,-2.79513 3.39308,-13.61829 2.97015,-6.27007 5.82167,-11.39982 6.33708,-11.39982 z m 12.92944,0.54157 3.78375,13.00799 c 2.08104,7.15427 4.01768,13.63912 4.30361,14.41101 0.31329,0.84573 -1.04357,1.64132 -3.41478,2.00194 -2.16409,0.32911 -5.92682,0.85937 -8.36124,1.17822 l -4.42609,0.57981 v -8.01501 c 0,-4.40822 -0.33502,-11.21731 -0.74414,-15.13138 l -0.74362,-7.11688 4.80125,-0.45785 z m -5.77432,6.77788 c -0.7024,-0.015 -1.16014,0.79171 -1.16014,2.12287 0,1.52131 0.59766,2.35806 1.47536,2.0655 0.81147,-0.27048 1.47536,-1.19993 1.47536,-2.0655 0,-0.86556 -0.66389,-1.79503 -1.47536,-2.06551 -0.10971,-0.0366 -0.21488,-0.0552 -0.31522,-0.0574 z m 0.63252,10.83035 c -1.13708,0.003 -2.01468,1.78182 -1.20251,3.09593 h -0.001 c 0.40122,0.64919 1.22932,1.18029 1.8402,1.18029 1.43713,0 1.44656,-3.19432 0.0129,-4.08037 -0.21926,-0.13552 -0.439,-0.19638 -0.64957,-0.19585 z m -3.36672,16.07963 c 1.26597,0 1.57406,5.31079 1.57406,27.1477 0,14.93117 -0.39833,27.09448 -0.88522,27.02988 -3.76657,-0.50059 -6.75517,-2.08791 -6.59184,-3.5016 0.1075,-0.93063 1.12565,-12.71339 2.26239,-26.18393 1.56878,-18.59038 2.44596,-24.49205 3.64061,-24.49205 z m 5.11493,0 c 0.64918,0 1.19153,0.92944 1.20613,2.06551 0.0141,1.13606 1.06462,11.36095 2.33474,22.72161 1.27014,11.36069 2.32066,22.38169 2.33526,24.49153 0.0217,3.23919 -0.40296,3.83646 -2.72852,3.83646 -1.51478,0 -3.10809,-0.35423 -3.54087,-0.78703 -1.31538,-1.31535 -0.93201,-52.32808 0.39326,-52.32808 z m 5.35368,63.34187 c 2.40259,0.0184 2.30925,1.14535 -0.92759,2.0128 -3.62914,0.97259 -4.42609,0.91823 -4.42609,-0.30231 0,-0.5755 1.59334,-1.28048 3.54087,-1.56631 0.70787,-0.1039 1.31416,-0.14799 1.81281,-0.14418 z m -11.23084,0.0501 c 1.87706,0.004 2.33629,0.4893 2.33629,1.79007 0,1.65934 -0.98478,2.09703 -4.72116,2.09703 -3.25184,0 -4.72167,-0.51289 -4.72167,-1.64693 0,-1.05902 1.68499,-1.80692 4.72167,-2.09651 0.97633,-0.0931 1.75918,-0.14507 2.38487,-0.14366 z m 48.32211,7.54889 c 2.25983,0.0109 3.5879,0.49283 3.5879,1.49862 0,2.65448 -6.07185,6.19474 -15.46882,9.01909 -4.28824,1.28886 -10.2637,2.68164 -13.27878,3.0949 -5.26214,0.72125 -5.48184,0.63279 -5.48184,-2.20245 0,-2.63843 1.09618,-3.35304 10.27069,-6.6952 8.34675,-3.04062 16.05664,-4.73586 20.37085,-4.71496 z m -93.57671,2.31356 c 5.42071,0.0249 16.63498,1.90705 24.24451,4.3987 8.8502,2.89784 9.8079,3.50601 10.14615,6.4456 0.41051,3.56768 0.0164,3.66575 -7.45587,1.8619 -21.56185,-5.20524 -30.09842,-8.59318 -30.09842,-11.94553 0,-0.53591 1.20294,-0.76969 3.16363,-0.76067 z m 57.83678,3.80545 c 1.57244,-0.007 1.83654,0.61542 1.01027,1.95234 -0.43076,0.69698 -2.34297,2.07394 -4.24935,3.05976 -3.36986,1.74259 -3.46594,1.71357 -3.46594,-1.04128 0,-2.23603 0.78651,-2.99103 3.72949,-3.57963 1.27577,-0.25515 2.26078,-0.38806 2.97553,-0.39119 z m -16.46308,1.31103 c 0.3153,-8.2e-4 0.65304,0.003 1.01337,0.0103 4.08491,0.0868 5.20307,0.54576 5.2033,2.13475 1.8e-4,1.11324 -1.02688,2.57375 -2.28254,3.2458 -3.24677,1.73758 -5.96254,1.51241 -6.60632,-0.54829 -0.3042,-0.97377 -0.77031,-2.48458 -1.0356,-3.3569 -0.32287,-1.06173 0.65991,-1.47781 3.70779,-1.4857 z"
       sodipodi:nodetypes="sscccccssccssssccccsccccssssscccssscsssssssssssscccssssssssssssccscccssssssssscccsssssssscccsssssssscccssssscscccssscscssssssscssccssccsccccsssssscccsssccccssssscsccsssssssccssscssscsssccscccccsssscsccssssscsssscscscsssssssssssssssssssssscssssssssssscsss" />
  </g>
</svg>
