<?xml version="1.0" encoding="UTF-8" standalone="no"?>
<!-- Created with Inkscape (http://www.inkscape.org/) -->

<svg
   width="300mm"
   height="300mm"
   viewBox="0 0 299.99999 299.99999"
   version="1.1"
   id="svg978"
   sodipodi:docname="lab_dee_dee.svg"
   inkscape:version="1.2.2 (732a01da63, 2022-12-09)"
   xmlns:inkscape="http://www.inkscape.org/namespaces/inkscape"
   xmlns:sodipodi="http://sodipodi.sourceforge.net/DTD/sodipodi-0.dtd"
   xmlns="http://www.w3.org/2000/svg"
   xmlns:svg="http://www.w3.org/2000/svg">
  <sodipodi:namedview
     id="namedview980"
     pagecolor="#505050"
     bordercolor="#eeeeee"
     borderopacity="1"
     inkscape:showpageshadow="0"
     inkscape:pageopacity="0"
     inkscape:pagecheckerboard="0"
     inkscape:deskcolor="#505050"
     inkscape:document-units="mm"
     showgrid="false"
     inkscape:zoom="0.18462928"
     inkscape:cx="533.50151"
     inkscape:cy="839.52015"
     inkscape:window-width="1920"
     inkscape:window-height="1009"
     inkscape:window-x="-8"
     inkscape:window-y="-8"
     inkscape:window-maximized="1"
     inkscape:current-layer="layer1" />
  <defs
     id="defs975">
    <clipPath
       clipPathUnits="userSpaceOnUse"
       id="clipPath1950">
      <path
         style="fill:#000000;stroke:none;stroke-width:0.2;stroke-linejoin:round;paint-order:stroke fill markers;stop-color:#000000"
         d="m 50.467009,101.99455 -2.406637,-7.758233 6.36492,5.224936 2.913298,-9.626547 -5.984925,-6.428253 -8.771559,1.86831 -1.393316,13.489831 7.061579,6.143256"
         id="path1952" />
    </clipPath>
  </defs>
  <g
     inkscape:label="Layer 1"
     inkscape:groupmode="layer"
     id="layer1"
     transform="translate(-97.523636,8.3968611)">
    <path
       style="fill:#000000;stroke-width:1.16712"
       d="m 195.82988,269.84403 c -9.12183,-2.76794 -12.67907,-6.83034 -12.73136,-14.53931 -0.0534,-7.85904 3.62861,-12.5431 12.50135,-15.90407 5.87186,-2.22422 8.25982,-2.46556 18.97215,-1.91726 8.43498,0.43172 15.15302,1.54657 21.55297,3.57671 5.43567,1.72424 9.58187,2.49044 9.98111,1.84444 0.37562,-0.60776 1.88594,-15.4229 3.35624,-32.92255 1.47031,-17.49962 2.96619,-34.36009 3.32418,-37.46768 l 0.65086,-5.65019 -3.9683,0.39813 c -3.10646,0.31166 -3.97138,-0.0319 -3.98245,-1.58249 -0.007,-1.08932 -1.54196,-3.57528 -3.40929,-5.52434 l -3.39512,-3.54375 5.62487,-12.29565 c 3.09367,-6.76263 5.41566,-12.43959 5.15995,-12.61548 -0.2557,-0.1759 -3.09094,-0.95874 -6.30053,-1.73963 -3.20958,-0.7809 -9.44745,-3.23938 -13.86195,-5.46331 l -8.02633,-4.04352 -2.2707,2.88672 c -6.05304,7.69519 -24.2766,-1.02074 -24.2766,-11.61099 0,-5.13945 3.56284,-8.25067 9.27674,-8.10084 l 4.41252,0.11572 -3.05146,-8.604699 c -2.39313,-6.74817 -3.42922,-8.41472 -4.80218,-7.72431 -0.96288,0.48421 -5.7405,0.84406 -10.61694,0.79971 -10.1424,-0.0923 -15.93207,-2.471365 -23.93507,-9.835339 -8.00442,-7.365298 -11.50347,-7.235762 -17.51712,0.648524 -1.72965,2.267694 -3.58783,3.68009 -4.12926,3.13866 -1.42658,-1.426553 0.97597,-18.621954 3.8134,-27.293402 4.15786,-12.706773 8.32601,-20.004926 15.60425,-27.321814 8.65015,-8.696144 14.04755,-11.364423 24.2438,-11.985314 6.76012,-0.41166 8.79507,-0.03637 14.23491,2.625067 12.40167,6.067581 20.47737,19.925835 20.47737,35.140094 0,6.778283 0.24309,7.622666 2.04245,7.093941 2.34354,-0.688642 23.42053,-2.612472 40.55752,-3.701946 l 11.67122,-0.741993 V 44.711498 c 0,-9.858176 0.3539,-11.855226 2.82448,-15.938777 7.59523,-12.553885 24.46416,-20.484972 39.7755,-18.700796 17.39244,2.02668 30.34521,15.718317 30.34521,32.076217 0,3.877075 -0.26261,7.049234 -0.58357,7.049234 -0.32096,0 -1.63397,-1.050413 -2.9178,-2.334259 -3.10006,-3.100047 -7.72159,-3.018391 -9.42612,0.166548 -0.7361,1.37543 -1.7903,6.099952 -2.34267,10.498925 -0.55234,4.398985 -1.8214,9.578349 -2.82015,11.509671 -2.68498,5.192175 -9.76417,9.319878 -18.57133,10.828478 -8.88261,1.521517 -8.86276,1.472779 -5.86432,14.401652 1.00355,4.32739 1.54073,8.999279 1.19369,10.382019 -1.87277,7.46173 -17.61256,19.37365 -33.07183,25.02885 -4.01198,1.46764 -7.28905,3.26091 -7.28239,3.98505 0.007,0.72412 1.83943,7.35646 4.0728,14.7385 2.2334,7.38207 4.06617,14.00926 4.07283,14.72715 0.007,0.71786 -2.13208,1.59282 -4.75277,1.94433 -2.62068,0.35151 -4.9801,0.85432 -5.24313,1.11735 -0.47158,0.47158 6.15655,69.16519 7.13733,73.97108 0.49829,2.44166 0.66657,2.41927 12.48378,-1.66233 10.5412,-3.64083 13.37924,-4.14256 23.6499,-4.18078 13.06794,-0.0487 16.75474,1.22384 22.16126,7.64916 5.90041,7.0122 2.48981,16.8829 -7.57223,21.915 -11.83022,5.91638 -34.69165,6.81077 -52.4388,2.05149 l -11.00596,-2.95146 -8.59402,2.19795 c -17.93611,4.5873 -48.37073,7.10256 -56.41289,4.66224 z m 50.25444,-19.76423 c 0,-3.19648 -0.49562,-3.52193 -9.94672,-6.53135 -5.61211,-1.787 -14.06319,-3.44938 -19.39282,-3.81469 l -9.44606,-0.64745 1.37335,2.56618 c 1.68145,3.14177 4.15367,4.14711 20.48897,8.33182 16.62319,4.25844 16.92328,4.26014 16.92328,0.0954 z m 49.55428,-3.0463 c 7.11991,-2.11581 14.72659,-8.01602 12.75661,-9.89482 -2.76014,-2.63239 -33.40099,6.14268 -34.10685,9.76766 -0.89576,4.60025 0.37121,5.20962 7.59967,3.65522 3.73796,-0.80383 9.9257,-2.39144 13.75057,-3.52806 z m -38.56207,3.36771 c 1.0154,-0.38963 1.84615,-1.96526 1.84615,-3.50136 0,-2.53207 -0.49055,-2.79294 -5.25206,-2.79294 -4.72406,0 -5.25203,0.27375 -5.25203,2.72328 0,1.49781 0.35013,3.07341 0.77808,3.50137 0.97171,0.97173 5.42649,1.01109 7.87986,0.0696 z m 11.41507,-4.01243 c 3.81379,-3.8138 3.78595,-5.59931 -0.0553,-3.54354 -1.29667,0.69391 -3.44246,1.26167 -4.76849,1.26167 -1.79363,0 -2.41098,0.74711 -2.41098,2.91781 0,4.0034 2.84546,3.75329 7.23467,-0.63594 z m -11.41507,-12.32729 c 1.0154,-0.38964 1.84615,-1.58522 1.84615,-2.65686 0,-1.56931 -0.90842,-1.8618 -4.66849,-1.50324 -2.84742,0.27155 -4.66849,1.04237 -4.66849,1.97606 0,2.38524 3.95869,3.53945 7.49083,2.18404 z m 11.83541,-3.46313 c 2.18661,-1.77329 2.16385,-1.81451 -0.65228,-1.18305 -1.60479,0.35983 -3.8369,0.66141 -4.96027,0.67018 -1.12336,0.008 -2.04245,0.54114 -2.04245,1.18306 0,1.82054 5.13847,1.37068 7.655,-0.67019 z m -9.98926,-36.67773 c 0,-23.0831 -0.24527,-26.84383 -1.75068,-26.84383 -0.96287,0 -1.75069,0.8542 -1.75069,1.8982 0,2.70499 -3.37448,39.83236 -4.09995,45.10918 -0.52011,3.78311 -0.23131,4.5579 2.03879,5.46987 5.68709,2.28463 5.56253,2.85864 5.56253,-25.63342 z m 9.88918,22.46711 c -0.50116,-2.89007 -5.22069,-47.81835 -5.22069,-49.6991 0,-0.42843 -0.5252,-0.77896 -1.16711,-0.77896 -0.74427,0 -1.16712,9.72603 -1.16712,26.84384 v 26.8438 h 4.05574 c 3.78131,0 4.01808,-0.21718 3.49918,-3.20958 z M 253.96241,164.7585 c 2.09704,-0.0229 2.05333,-27.93495 -0.0483,-30.80903 -1.33699,-1.82844 -2.12787,-0.76646 -7.00456,9.4057 -3.02358,6.30677 -5.49658,12.04196 -5.49557,12.74487 0.001,0.70291 1.00468,2.18557 2.23037,3.2948 2.59757,2.35077 2.18405,3.2031 5.48221,-11.29998 1.13338,-4.98378 2.46685,-8.65524 2.96326,-8.15881 0.49644,0.49642 -0.0695,4.83668 -1.25757,9.64497 -1.18812,4.80831 -2.47893,10.51031 -2.86845,12.67109 -0.65555,3.6364 -0.51299,3.87642 1.91572,3.22553 1.44315,-0.38675 3.28046,-0.71038 4.08288,-0.71914 z m 19.38614,-2.3903 c 0.55312,-0.50542 0.19165,-3.45392 -0.80497,-6.56603 -0.99491,-3.10675 -2.87864,-9.34014 -4.18604,-13.85197 l -2.37711,-8.20332 -4.696,0.44782 c -5.40731,0.51568 -5.22423,-0.36949 -3.93864,19.04254 l 0.74529,11.25355 7.12677,-0.6026 c 3.9197,-0.33142 7.57853,-1.01541 8.1307,-1.51999 z m -13.63357,-7.79199 c -0.35106,-0.56803 -0.21338,-1.72028 0.30593,-2.56055 0.7174,-1.16074 1.15112,-1.19304 1.80542,-0.13432 0.47363,0.76637 0.33597,1.91861 -0.30594,2.56053 -0.65295,0.65297 -1.44831,0.71215 -1.80541,0.13432 z m -0.7923,-12.00899 c 0,-1.28382 0.52519,-2.33424 1.16712,-2.33424 0.64192,0 1.16714,1.05042 1.16714,2.33424 0,1.28385 -0.52522,2.33426 -1.16714,2.33426 -0.64193,0 -1.16712,-1.05041 -1.16712,-2.33426 z m 13.34028,-14.04246 c 15.45744,-5.45578 27.71135,-13.45815 32.46928,-21.20393 2.15774,-3.51271 2.47009,-7.00505 0.97018,-10.847209 -0.8256,-2.1149 -1.09063,-1.97383 -2.91329,1.55083 -2.46303,4.762979 -8.75555,7.691829 -14.2935,6.652899 -3.38519,-0.63507 -3.89626,-0.41782 -3.89626,1.6562 0,1.31291 -0.59083,2.38713 -1.313,2.38713 -1.27418,0 -1.12882,-1.78713 0.81946,-10.076159 0.74611,-3.17424 0.47974,-3.04884 -5.19564,2.445979 -5.78824,5.60413 -8.5466,6.42554 -3.48512,1.03785 2.44945,-2.607329 2.45612,-2.719659 0.35053,-5.910849 l -2.14639,-3.25299 -0.81704,3.94161 c -1.69401,8.172289 -8.58574,14.206129 -17.16785,15.030759 -6.88846,0.66188 -12.33512,-0.94741 -18.32677,-5.41488 l -4.40872,-3.28723 -6.76243,2.1047 c -3.71933,1.15759 -7.82016,2.76527 -9.11292,3.57261 -1.98778,1.24138 -3.08308,1.05618 -7.09758,-1.2001 -8.35915,-4.6981 -14.51921,-1.04979 -12.41091,7.35038 1.04038,4.14517 7.10935,7.94872 13.69237,8.58126 5.63943,0.54187 5.6985,0.51178 7.51149,-3.82735 1.81936,-4.35432 1.837,-4.36316 4.02391,-2.01581 3.28401,3.52498 13.41948,8.09767 23.82056,10.74687 5.08332,1.29473 9.50379,2.61545 9.82329,2.93492 1.3268,1.3268 6.41542,0.37828 15.86635,-2.95749 z m -2.5561,-10.74962 c 0.72673,-2.21929 8.78352,-3.95908 10.47962,-2.26298 1.05975,1.05976 0.6675,1.37837 -1.69687,1.37837 -1.69139,0 -4.46761,0.52937 -6.16938,1.1764 -2.36693,0.8999 -2.98114,0.83132 -2.61337,-0.29179 z m -7.64907,-11.33062 c 6.18953,-3.77406 9.33452,-12.477629 7.28594,-20.16347 l -1.15924,-4.349244 -5.50624,0.724677 c -14.73103,1.938717 -16.01249,2.264313 -15.56978,3.955975 0.24232,0.925963 0.93191,3.531823 1.53246,5.790803 1.35982,5.11503 -0.42016,10.481809 -3.47649,10.481809 -3.00253,0 -8.30887,-5.883719 -10.14409,-11.247879 -1.03948,-3.03829 -2.34133,-4.62989 -3.99263,-4.881237 -3.33506,-0.507644 -3.09371,1.547067 1.02538,8.728967 3.40162,5.930979 7.63562,9.824989 13.03353,11.986989 4.75652,1.90511 12.978,1.40741 16.97116,-1.02739 z m -43.32882,-7.636719 c 2.07977,-4.97762 4.08155,-21.439222 3.23868,-26.633269 l -0.67333,-4.149192 -4.64521,6.956248 c -2.55486,3.825943 -6.16821,7.743841 -8.02965,8.70642 -1.86143,0.96259 -3.38442,2.505027 -3.38442,3.427673 0,2.07372 4.45575,13.523189 5.97536,15.354199 1.86251,2.24419 5.86539,0.2945 7.51857,-3.662079 z m 80.37444,-0.50252 c 3.47078,-3.6227 5.13859,-11.24303 3.7081,-16.942547 -0.6121,-2.43877 -1.44214,-2.984326 -4.52068,-2.971307 -7.21631,0.0304 -9.09766,1.068558 -8.14477,4.493972 1.35275,4.862662 1.22982,12.704202 -1.1019,13.054352 -1.04161,0.15646 -1.38646,-0.28763 -1.99284,0.62438 -0.60639,0.91202 -0.84714,2.35339 -0.42631,4.456139 0.10646,0.53207 2.61269,0.69767 4.95328,0.69767 3.18033,0 5.08171,-0.86229 7.52512,-3.412659 z m -72.70816,-7.60021 -1.90112,-6.429801 -1.38773,7.262421 c -0.76325,3.99435 -1.4201,7.66983 -1.4597,8.16774 -0.0396,0.497929 1.44042,0.12314 3.28887,-0.83262 l 3.36081,-1.73795 z m 56.26867,4.68771 c 2.19141,-1.35251 -0.26498,-3.5033 -1.68552,-6.35545 -1.16221,-2.333466 -2.38206,-5.161783 -2.7108,-6.285129 -0.73344,-2.506381 -3.99685,-2.690622 -4.92271,-0.277943 -0.74732,1.947537 4.98277,14.575192 6.61385,14.575192 0.56282,0 1.69432,-1.03278 2.70518,-1.65667 z M 202.31724,83.763758 c 19.36437,-9.15453 24.22608,-36.170405 9.79463,-54.427547 -15.99437,-20.23442 -43.87227,-13.029786 -57.13822,14.766548 -3.78282,7.926196 -8.09476,23.228824 -8.09476,28.727547 v 3.418444 l 3.59091,-3.021576 c 5.90072,-4.965111 7.48532,-4.463505 21.50845,6.808542 8.19499,6.58727 20.97028,8.157095 30.33899,3.728042 z m 46.20517,-1.976586 c 9.88429,-1.333181 18.09163,-2.544138 18.23851,-2.691036 0.14691,-0.146929 -1.34479,-2.222596 -3.3149,-4.612669 -9.74277,-11.819642 -27.40876,-12.059041 -32.91949,-0.446103 -2.06499,4.351664 -2.61568,10.173739 -0.96231,10.173739 0.54272,0 9.0739,-1.090771 18.95819,-2.423931 z m 42.23717,-5.264554 c 4.35099,-0.445751 8.16225,-1.217141 8.46946,-1.714216 1.11005,-1.796131 -5.56772,-8.09284 -9.98674,-9.416817 -3.55475,-1.065031 -5.31344,-1.027027 -8.22188,0.177705 -3.91782,1.62282 -8.08062,7.24448 -8.08791,10.922387 -0.004,1.918489 0.63249,2.113826 4.95592,1.521248 2.72814,-0.37389 8.52016,-1.044544 12.87115,-1.490276 z m 31.89751,-2.275656 c 6.58301,-3.814889 8.59384,-7.401555 9.70512,-17.310686 0.52373,-4.670184 1.56103,-9.628768 2.3051,-11.019081 1.58203,-2.956075 5.84614,-4.295556 10.19768,-3.20339 3.05006,0.765519 3.07134,0.725604 2.4677,-4.62985 -0.73914,-6.557693 -7.58557,-17.09388 -13.66257,-21.025762 -11.72058,-7.583344 -30.60423,-5.973437 -43.27491,3.689341 -7.081,5.400057 -10.53408,11.605415 -11.32758,20.356394 l -0.62807,6.92638 h 3.60857 c 4.08168,0 9.55399,2.165908 9.55399,3.781428 0,0.606566 -1.64795,0.702671 -3.79316,0.221244 -6.57733,-1.476129 -9.04575,-1.505312 -9.02732,-0.106701 0.0398,3.023197 2.09113,4.150868 8.17746,4.495486 l 6.3937,0.361993 4.84783,8.753432 c 6.98238,12.60767 7.70285,13.229193 14.23316,12.278599 2.98572,-0.434614 7.5862,-2.040568 10.2233,-3.568765 z M 276.51498,65.14177 c 3.17631,-2.856117 4.43081,-3.246933 9.0941,-2.833035 2.9752,0.264073 6.39395,0.917159 7.59718,1.451295 2.10784,0.935719 2.11358,0.858066 0.15753,-2.127216 -1.98786,-3.033879 -2.2887,-3.098035 -14.44248,-3.079931 -11.43078,0.01804 -29.655,1.166685 -47.7178,3.010291 -7.0051,0.714984 -7.29453,0.872269 -7.29453,3.964047 0,1.770712 0.33563,4.897562 0.7458,6.948533 l 0.74582,3.729014 2.46378,-4.348748 c 3.57008,-6.301435 7.76754,-8.952143 15.14469,-9.563908 8.38822,-0.695631 17.48476,3.314251 22.95203,10.11752 l 3.87524,4.822235 1.49701,-4.388469 c 0.82337,-2.413651 3.1551,-5.879376 5.18163,-7.701628 z M 230.91173,54.081282 c 0,-1.73152 7.9016,-4.088391 10.26046,-3.060455 1.52945,0.666498 1.04214,1.062663 -2.0906,1.699498 -2.24671,0.456753 -5.00403,1.220134 -6.12739,1.696448 -1.18331,0.501729 -2.04247,0.36061 -2.04247,-0.335491 z"
       id="path382"
       sodipodi:nodetypes="sssssssscscscsssccssscssssscscssssscsssssssscsssscscsssssssscsscsscssccssssssssssssssssssssssssscsssssssssssscssssssssssssssssscsscsssssssssssssssssssssssscssscsssssssscsssssssscssssssssssscssssssssssssssccsssccsscssssssscssssscsssscsscssssssssssscssscscsssssssscssccssscsssssss" />
  </g>
</svg>
